<?xml version="1.0" encoding="us-ascii" standalone="no"?><svg xmlns="http://www.w3.org/2000/svg" xmlns:xlink="http://www.w3.org/1999/xlink" contentStyleType="text/css" height="440px" preserveAspectRatio="none" style="width:909px;height:440px;background:#FFFFFF;" version="1.1" viewBox="0 0 909 440" width="909px" zoomAndPan="magnify"><defs/><g><rect fill="#FFFFFF" height="293.6481" style="stroke:#181818;stroke-width:1.0;" width="10" x="405" y="90.4799"/><rect fill="#FFFFFF" height="132.118" style="stroke:#181818;stroke-width:1.0;" width="10" x="410" y="206.304"/><rect fill="#FFFFFF" height="42.706" style="stroke:#181818;stroke-width:1.0;" width="10" x="415" y="251.01"/><rect fill="none" height="247.9421" style="stroke:#000000;stroke-width:1.5;" width="558.5" x="344.5" y="105.4799"/><line style="stroke:#181818;stroke-width:0.5;stroke-dasharray:5.0,5.0;" x1="409.5" x2="409.5" y1="39.0679" y2="402.1281"/><line style="stroke:#181818;stroke-width:0.5;stroke-dasharray:5.0,5.0;" x1="864" x2="864" y1="159.892" y2="402.1281"/><rect fill="#E3E3E3" height="33.0679" rx="2.5" ry="2.5" style="stroke:#181818;stroke-width:0.5;" width="111" x="354.5" y="5"/><text fill="#000000" font-family="sans-serif" font-size="14" lengthAdjust="spacing" textLength="97" x="361.5" y="26.9659">:Administrator</text><rect fill="#E3E3E3" height="33.0679" rx="2.5" ry="2.5" style="stroke:#181818;stroke-width:0.5;" width="111" x="354.5" y="401.1281"/><text fill="#000000" font-family="sans-serif" font-size="14" lengthAdjust="spacing" textLength="97" x="361.5" y="423.094">:Administrator</text><rect fill="#E3E3E3" height="33.0679" rx="2.5" ry="2.5" style="stroke:#181818;stroke-width:0.5;" width="57" x="836" y="401.1281"/><text fill="#000000" font-family="sans-serif" font-size="14" lengthAdjust="spacing" textLength="43" x="843" y="423.094">:Client</text><rect fill="#FFFFFF" height="293.6481" style="stroke:#181818;stroke-width:1.0;" width="10" x="405" y="90.4799"/><rect fill="#FFFFFF" height="132.118" style="stroke:#181818;stroke-width:1.0;" width="10" x="410" y="206.304"/><rect fill="#FFFFFF" height="42.706" style="stroke:#181818;stroke-width:1.0;" width="10" x="415" y="251.01"/><polygon fill="#181818" points="393,86.4799,403,90.4799,393,94.4799,397,90.4799" style="stroke:#181818;stroke-width:1.0;"/><line style="stroke:#181818;stroke-width:1.0;" x1="0" x2="399" y1="90.4799" y2="90.4799"/><text fill="#000000" font-family="sans-serif" font-size="13" font-weight="bold" lengthAdjust="spacing" textLength="7" x="7" y="75.8179">8</text><text fill="#000000" font-family="sans-serif" font-size="13" lengthAdjust="spacing" textLength="260" x="18" y="66.9649">registerClient(name, passport card number,</text><text fill="#000000" font-family="sans-serif" font-size="13" lengthAdjust="spacing" textLength="375" x="18" y="84.6709">tax number, email address, phone number, address, password)</text><path d="M344.5,105.4799 L486.5,105.4799 L486.5,115.186 L476.5,125.186 L344.5,125.186 L344.5,105.4799 " fill="#EEEEEE" style="stroke:#000000;stroke-width:1.5;"/><rect fill="none" height="247.9421" style="stroke:#000000;stroke-width:1.5;" width="558.5" x="344.5" y="105.4799"/><text fill="#000000" font-family="sans-serif" font-size="13" font-weight="bold" lengthAdjust="spacing" textLength="97" x="359.5" y="120.377">Register Client</text><polygon fill="#181818" points="824,162.598,834,166.598,824,170.598,828,166.598" style="stroke:#181818;stroke-width:1.0;"/><line style="stroke:#181818;stroke-width:1.0;" x1="415" x2="830" y1="166.598" y2="166.598"/><text fill="#000000" font-family="sans-serif" font-size="13" font-weight="bold" lengthAdjust="spacing" textLength="18" x="422" y="151.936">8.1</text><text fill="#000000" font-family="sans-serif" font-size="13" lengthAdjust="spacing" textLength="260" x="444" y="143.083">registerClient(name, passport card number,</text><text fill="#000000" font-family="sans-serif" font-size="13" lengthAdjust="spacing" textLength="375" x="444" y="160.789">tax number, email address, phone number, address, password)</text><rect fill="#E3E3E3" height="33.0679" rx="2.5" ry="2.5" style="stroke:#181818;stroke-width:0.5;" width="57" x="836" y="130.5301"/><text fill="#000000" font-family="sans-serif" font-size="14" lengthAdjust="spacing" textLength="43" x="843" y="152.496">:Client</text><line style="stroke:#181818;stroke-width:1.0;" x1="415" x2="462" y1="193.304" y2="193.304"/><line style="stroke:#181818;stroke-width:1.0;" x1="462" x2="462" y1="193.304" y2="206.304"/><line style="stroke:#181818;stroke-width:1.0;" x1="421" x2="462" y1="206.304" y2="206.304"/><polygon fill="#181818" points="431,202.304,421,206.304,431,210.304,427,206.304" style="stroke:#181818;stroke-width:1.0;"/><text fill="#000000" font-family="sans-serif" font-size="13" font-weight="bold" lengthAdjust="spacing" textLength="18" x="427" y="187.495">8.2</text><text fill="#000000" font-family="sans-serif" font-size="13" lengthAdjust="spacing" textLength="97" x="449" y="187.495">addClient(client)</text><line style="stroke:#181818;stroke-width:1.0;" x1="420" x2="467" y1="238.01" y2="238.01"/><line style="stroke:#181818;stroke-width:1.0;" x1="467" x2="467" y1="238.01" y2="251.01"/><line style="stroke:#181818;stroke-width:1.0;" x1="426" x2="467" y1="251.01" y2="251.01"/><polygon fill="#181818" points="436,247.01,426,251.01,436,255.01,432,251.01" style="stroke:#181818;stroke-width:1.0;"/><text fill="#000000" font-family="sans-serif" font-size="13" font-weight="bold" lengthAdjust="spacing" textLength="18" x="432" y="232.201">8.3</text><text fill="#000000" font-family="sans-serif" font-size="13" lengthAdjust="spacing" textLength="121" x="454" y="232.201">validateClient(client)</text><line style="stroke:#181818;stroke-width:1.0;stroke-dasharray:2.0,2.0;" x1="425" x2="467" y1="292.716" y2="292.716"/><line style="stroke:#181818;stroke-width:1.0;stroke-dasharray:2.0,2.0;" x1="467" x2="467" y1="292.716" y2="305.716"/><line style="stroke:#181818;stroke-width:1.0;stroke-dasharray:2.0,2.0;" x1="420" x2="467" y1="305.716" y2="305.716"/><polygon fill="#181818" points="430,301.716,420,305.716,430,309.716,426,305.716" style="stroke:#181818;stroke-width:1.0;"/><text fill="#000000" font-family="sans-serif" font-size="13" font-weight="bold" lengthAdjust="spacing" textLength="18" x="432" y="286.907">8.4</text><text fill="#000000" font-family="sans-serif" font-size="13" lengthAdjust="spacing" textLength="3" x="454" y="286.907">&#160;</text><line style="stroke:#181818;stroke-width:1.0;stroke-dasharray:2.0,2.0;" x1="420" x2="462" y1="337.4221" y2="337.4221"/><line style="stroke:#181818;stroke-width:1.0;stroke-dasharray:2.0,2.0;" x1="462" x2="462" y1="337.4221" y2="350.4221"/><line style="stroke:#181818;stroke-width:1.0;stroke-dasharray:2.0,2.0;" x1="415" x2="462" y1="350.4221" y2="350.4221"/><polygon fill="#181818" points="425,346.4221,415,350.4221,425,354.4221,421,350.4221" style="stroke:#181818;stroke-width:1.0;"/><text fill="#000000" font-family="sans-serif" font-size="13" font-weight="bold" lengthAdjust="spacing" textLength="18" x="427" y="331.6131">8.5</text><text fill="#000000" font-family="sans-serif" font-size="13" lengthAdjust="spacing" textLength="3" x="449" y="331.6131">&#160;</text><polygon fill="#181818" points="11,380.1281,1,384.1281,11,388.1281,7,384.1281" style="stroke:#181818;stroke-width:1.0;"/><line style="stroke:#181818;stroke-width:1.0;stroke-dasharray:2.0,2.0;" x1="5" x2="409" y1="384.1281" y2="384.1281"/><text fill="#000000" font-family="sans-serif" font-size="13" font-weight="bold" lengthAdjust="spacing" textLength="7" x="17" y="378.3191">9</text><text fill="#000000" font-family="sans-serif" font-size="13" lengthAdjust="spacing" textLength="32" x="28" y="378.3191">client</text><!--SRC=[lP4_JyCm4CLtVufJ9wWQ93Qe4585AmkiB8Tz95Rz9pfVMlZsE758saZ0XXV7T- -z-zb9UnjQPFJWOuYwuUW9X3jIQUgqgFTOqujyEW8cBHXgTof83PfujA66TtI9bCfbiTgs60HMsvtnDjWaZ19v1PXWz_Yqq3muIq66PlbK2Zk9eVDln72ZgllU1DiylyvHn4Lr4T3J9XEcr4OMqCW6Yca3hq7mOpgHH-i0ZM5AALkQ66XgpkMST8niBi_dNrqhr68FA3J0Grurnww5vv5dmeRlrVDcx59Vh_-JVO5GNYxhni5ws6RPsTNc2om33kYioR8VKdvFcj9At5dFq1y42yz2tvSecE8x-MktG-6kgaR-0goMqxu0]--></g></svg>