<?xml version="1.0" encoding="us-ascii" standalone="no"?><svg xmlns="http://www.w3.org/2000/svg" xmlns:xlink="http://www.w3.org/1999/xlink" contentStyleType="text/css" height="1316.8px" preserveAspectRatio="none" style="width:2005px;height:1316px;background:#FFFFFF;" version="1.1" viewBox="0 0 2005 1316" width="2005.6px" zoomAndPan="magnify"><defs/><g><rect fill="#FFFFFF" height="1173.4313" style="stroke:#181818;stroke-width:0.8000000000000002;" width="8" x="17.2" y="72.5125"/><rect fill="#FFFFFF" height="22.8188" style="stroke:#181818;stroke-width:0.8000000000000002;" width="8" x="202.8" y="88.9313"/><rect fill="#FFFFFF" height="22.8188" style="stroke:#181818;stroke-width:0.8000000000000002;" width="8" x="202.8" y="134.5688"/><rect fill="#FFFFFF" height="1058.5375" style="stroke:#181818;stroke-width:0.8000000000000002;" width="8" x="202.8" y="180.2063"/><rect fill="#FFFFFF" height="159.7313" style="stroke:#181818;stroke-width:0.8000000000000002;" width="8" x="443.6" y="235.5375"/><rect fill="#FFFFFF" height="786.2188" style="stroke:#181818;stroke-width:0.8000000000000002;" width="8" x="443.6" y="429.7063"/><rect fill="#FFFFFF" height="22.8188" style="stroke:#181818;stroke-width:0.8000000000000002;" width="8" x="575.6" y="258.3563"/><rect fill="#FFFFFF" height="22.8188" style="stroke:#181818;stroke-width:0.8000000000000002;" width="8" x="575.6" y="452.525"/><rect fill="#FFFFFF" height="22.8188" style="stroke:#181818;stroke-width:0.8000000000000002;" width="8" x="661.2" y="303.9938"/><rect fill="#FFFFFF" height="22.8188" style="stroke:#181818;stroke-width:0.8000000000000002;" width="8" x="661.2" y="498.1625"/><rect fill="#FFFFFF" height="22.8188" style="stroke:#181818;stroke-width:0.8000000000000002;" width="8" x="778.4" y="349.6313"/><rect fill="#FFFFFF" height="397.2563" style="stroke:#181818;stroke-width:0.8000000000000002;" width="8" x="944.8" y="543.8"/><rect fill="#FFFFFF" height="22.4" style="stroke:#181818;stroke-width:0.8000000000000002;" width="8" x="948.8" y="573.0188"/><rect fill="#FFFFFF" height="22.4" style="stroke:#181818;stroke-width:0.8000000000000002;" width="8" x="948.8" y="630.2375"/><rect fill="#FFFFFF" height="225.1813" style="stroke:#181818;stroke-width:0.8000000000000002;" width="8" x="948.8" y="687.4563"/><rect fill="#FFFFFF" height="31.6188" style="stroke:#181818;stroke-width:0.8000000000000002;" width="8" x="952.8" y="720.675"/><rect fill="#FFFFFF" height="22.8188" style="stroke:#181818;stroke-width:0.8000000000000002;" width="8" x="1184" y="799.5313"/><rect fill="#FFFFFF" height="22.8188" style="stroke:#181818;stroke-width:0.8000000000000002;" width="8" x="1253.6" y="856.6"/><rect fill="#FFFFFF" height="229.2313" style="stroke:#181818;stroke-width:0.8000000000000002;" width="8" x="1357.6" y="963.875"/><rect fill="#FFFFFF" height="26.8188" style="stroke:#181818;stroke-width:0.8000000000000002;" width="8" x="1361.6" y="1063.2438"/><rect fill="#FFFFFF" height="24" style="stroke:#181818;stroke-width:0.8000000000000002;" width="8" x="1659.2" y="1135.0875"/><rect fill="none" height="115.925" style="stroke:#000000;stroke-width:1.2000000000000002;" width="440.8" x="852.8" y="769.8938"/><rect fill="none" height="162.7" style="stroke:#000000;stroke-width:1.2000000000000002;" width="723.2" x="1277.6" y="1008.3875"/><rect fill="none" height="138.2813" style="stroke:#000000;stroke-width:1.2000000000000002;" width="707.2" x="1285.6" y="1027.2063"/><line style="stroke:#181818;stroke-width:0.4000000000000001;stroke-dasharray:5.0,5.0;" x1="20.8" x2="20.8" y1="64.5125" y2="1253.1438"/><line style="stroke:#181818;stroke-width:0.4000000000000001;stroke-dasharray:5.0,5.0;" x1="206.4" x2="206.4" y1="64.5125" y2="1253.1438"/><line style="stroke:#181818;stroke-width:0.4000000000000001;stroke-dasharray:5.0,5.0;" x1="447.2" x2="447.2" y1="210.8625" y2="1253.1438"/><line style="stroke:#181818;stroke-width:0.4000000000000001;stroke-dasharray:5.0,5.0;" x1="579.2" x2="579.2" y1="64.5125" y2="1253.1438"/><line style="stroke:#181818;stroke-width:0.4000000000000001;stroke-dasharray:5.0,5.0;" x1="664.8" x2="664.8" y1="64.5125" y2="1253.1438"/><line style="stroke:#181818;stroke-width:0.4000000000000001;stroke-dasharray:5.0,5.0;" x1="782.4" x2="782.4" y1="64.5125" y2="1253.1438"/><line style="stroke:#181818;stroke-width:0.4000000000000001;stroke-dasharray:5.0,5.0;" x1="948.8" x2="948.8" y1="64.5125" y2="1253.1438"/><line style="stroke:#181818;stroke-width:0.4000000000000001;stroke-dasharray:5.0,5.0;" x1="1188" x2="1188" y1="64.5125" y2="1253.1438"/><line style="stroke:#181818;stroke-width:0.4000000000000001;stroke-dasharray:5.0,5.0;" x1="1257.6" x2="1257.6" y1="64.5125" y2="1253.1438"/><line style="stroke:#181818;stroke-width:0.4000000000000001;stroke-dasharray:5.0,5.0;" x1="1361.6" x2="1361.6" y1="64.5125" y2="1253.1438"/><line style="stroke:#181818;stroke-width:0.4000000000000001;stroke-dasharray:5.0,5.0;" x1="1663.2" x2="1663.2" y1="994.5313" y2="1253.1438"/><line style="stroke:#181818;stroke-width:0.4000000000000001;stroke-dasharray:5.0,5.0;" x1="1911.2" x2="1911.2" y1="1104.1563" y2="1253.1438"/><text fill="#000000" font-family="sans-serif" font-size="11.2" lengthAdjust="spacing" textLength="29.6" x="4" y="62.1391">Agent</text><ellipse cx="21.2" cy="10.8" fill="#E3E3E3" rx="6.4" ry="6.4" style="stroke:#181818;stroke-width:0.4000000000000001;"/><path d="M21.2,17.2 L21.2,38.8 M10.8,23.6 L31.6,23.6 M21.2,38.8 L10.8,50.8 M21.2,38.8 L31.6,50.8 " fill="none" style="stroke:#181818;stroke-width:0.4000000000000001;"/><text fill="#000000" font-family="sans-serif" font-size="11.2" lengthAdjust="spacing" textLength="29.6" x="4" y="1262.4828">Agent</text><ellipse cx="21.2" cy="1271.6563" fill="#E3E3E3" rx="6.4" ry="6.4" style="stroke:#181818;stroke-width:0.4000000000000001;"/><path d="M21.2,1278.0563 L21.2,1299.6563 M10.8,1284.4563 L31.6,1284.4563 M21.2,1299.6563 L10.8,1311.6563 M21.2,1299.6563 L31.6,1311.6563 " fill="none" style="stroke:#181818;stroke-width:0.4000000000000001;"/><rect fill="#E3E3E3" height="23.7125" rx="2" ry="2" style="stroke:#181818;stroke-width:0.4000000000000001;" width="130.4" x="141.6" y="40"/><text fill="#000000" font-family="sans-serif" font-size="11.2" lengthAdjust="spacing" textLength="119.2" x="147.2" y="55.7391">:ListBookingRequestsUI</text><rect fill="#E3E3E3" height="23.7125" rx="2" ry="2" style="stroke:#181818;stroke-width:0.4000000000000001;" width="130.4" x="141.6" y="1252.3438"/><text fill="#000000" font-family="sans-serif" font-size="11.2" lengthAdjust="spacing" textLength="119.2" x="147.2" y="1268.0828">:ListBookingRequestsUI</text><rect fill="#E3E3E3" height="23.7125" rx="2" ry="2" style="stroke:#181818;stroke-width:0.4000000000000001;" width="170.4" x="362.4" y="1252.3438"/><text fill="#000000" font-family="sans-serif" font-size="11.2" lengthAdjust="spacing" textLength="159.2" x="368" y="1268.0828">:ListBookingRequestsController</text><rect fill="#E3E3E3" height="23.7125" rx="2" ry="2" style="stroke:#181818;stroke-width:0.4000000000000001;" width="77.6" x="540.8" y="40"/><text fill="#000000" font-family="sans-serif" font-size="11.2" lengthAdjust="spacing" textLength="66.4" x="546.4" y="55.7391">:Repositories</text><rect fill="#E3E3E3" height="23.7125" rx="2" ry="2" style="stroke:#181818;stroke-width:0.4000000000000001;" width="77.6" x="540.8" y="1252.3438"/><text fill="#000000" font-family="sans-serif" font-size="11.2" lengthAdjust="spacing" textLength="66.4" x="546.4" y="1268.0828">:Repositories</text><rect fill="#E3E3E3" height="36.225" rx="2" ry="2" style="stroke:#181818;stroke-width:0.4000000000000001;" width="77.6" x="626.4" y="27.4875"/><text fill="#000000" font-family="sans-serif" font-size="11.2" lengthAdjust="spacing" textLength="59.2" x="635.6" y="43.2266">repositories</text><text fill="#000000" font-family="sans-serif" font-size="11.2" lengthAdjust="spacing" textLength="66.4" x="632" y="55.7391">:Repositories</text><rect fill="#E3E3E3" height="36.225" rx="2" ry="2" style="stroke:#181818;stroke-width:0.4000000000000001;" width="77.6" x="626.4" y="1252.3438"/><text fill="#000000" font-family="sans-serif" font-size="11.2" lengthAdjust="spacing" textLength="59.2" x="635.6" y="1268.0828">repositories</text><text fill="#000000" font-family="sans-serif" font-size="11.2" lengthAdjust="spacing" textLength="66.4" x="632" y="1280.5953">:Repositories</text><rect fill="#E3E3E3" height="36.225" rx="2" ry="2" style="stroke:#181818;stroke-width:0.4000000000000001;" width="140.8" x="712" y="27.4875"/><text fill="#000000" font-family="sans-serif" font-size="11.2" lengthAdjust="spacing" textLength="125.6" x="719.6" y="43.2266">authenticationRepository</text><text fill="#000000" font-family="sans-serif" font-size="11.2" lengthAdjust="spacing" textLength="129.6" x="717.6" y="55.7391">:AuthenticationRepository</text><rect fill="#E3E3E3" height="36.225" rx="2" ry="2" style="stroke:#181818;stroke-width:0.4000000000000001;" width="140.8" x="712" y="1252.3438"/><text fill="#000000" font-family="sans-serif" font-size="11.2" lengthAdjust="spacing" textLength="125.6" x="719.6" y="1268.0828">authenticationRepository</text><text fill="#000000" font-family="sans-serif" font-size="11.2" lengthAdjust="spacing" textLength="129.6" x="717.6" y="1280.5953">:AuthenticationRepository</text><rect fill="#E3E3E3" height="23.7125" rx="2" ry="2" style="stroke:#181818;stroke-width:0.4000000000000001;" width="176" x="860.8" y="40"/><text fill="#000000" font-family="sans-serif" font-size="11.2" lengthAdjust="spacing" textLength="164.8" x="866.4" y="55.7391">VisitScheduleRequestRepository</text><rect fill="#E3E3E3" height="23.7125" rx="2" ry="2" style="stroke:#181818;stroke-width:0.4000000000000001;" width="176" x="860.8" y="1252.3438"/><text fill="#000000" font-family="sans-serif" font-size="11.2" lengthAdjust="spacing" textLength="164.8" x="866.4" y="1268.0828">VisitScheduleRequestRepository</text><rect fill="#E3E3E3" height="23.7125" rx="2" ry="2" style="stroke:#181818;stroke-width:0.4000000000000001;" width="67.2" x="1154.4" y="40"/><text fill="#000000" font-family="sans-serif" font-size="11.2" lengthAdjust="spacing" textLength="56" x="1160" y="55.7391">BubbleSort</text><rect fill="#E3E3E3" height="23.7125" rx="2" ry="2" style="stroke:#181818;stroke-width:0.4000000000000001;" width="67.2" x="1154.4" y="1252.3438"/><text fill="#000000" font-family="sans-serif" font-size="11.2" lengthAdjust="spacing" textLength="56" x="1160" y="1268.0828">BubbleSort</text><rect fill="#E3E3E3" height="23.7125" rx="2" ry="2" style="stroke:#181818;stroke-width:0.4000000000000001;" width="56" x="1229.6" y="40"/><text fill="#000000" font-family="sans-serif" font-size="11.2" lengthAdjust="spacing" textLength="44.8" x="1235.2" y="55.7391">TreeSort</text><rect fill="#E3E3E3" height="23.7125" rx="2" ry="2" style="stroke:#181818;stroke-width:0.4000000000000001;" width="56" x="1229.6" y="1252.3438"/><text fill="#000000" font-family="sans-serif" font-size="11.2" lengthAdjust="spacing" textLength="44.8" x="1235.2" y="1268.0828">TreeSort</text><rect fill="#E3E3E3" height="23.7125" rx="2" ry="2" style="stroke:#181818;stroke-width:0.4000000000000001;" width="136" x="1293.6" y="40"/><text fill="#000000" font-family="sans-serif" font-size="11.2" lengthAdjust="spacing" textLength="124.8" x="1299.2" y="55.7391">:BookingRequestMapper</text><rect fill="#E3E3E3" height="23.7125" rx="2" ry="2" style="stroke:#181818;stroke-width:0.4000000000000001;" width="136" x="1293.6" y="1252.3438"/><text fill="#000000" font-family="sans-serif" font-size="11.2" lengthAdjust="spacing" textLength="124.8" x="1299.2" y="1268.0828">:BookingRequestMapper</text><rect fill="#E3E3E3" height="23.7125" rx="2" ry="2" style="stroke:#181818;stroke-width:0.4000000000000001;" width="332.8" x="1496.8" y="1252.3438"/><text fill="#000000" font-family="sans-serif" font-size="11.2" lengthAdjust="spacing" textLength="321.6" x="1502.4" y="1268.0828">VisitScheduleRequestListDTO: List&lt;visitScheduleRequestDTO&gt;</text><rect fill="#E3E3E3" height="36.225" rx="2" ry="2" style="stroke:#181818;stroke-width:0.4000000000000001;" width="147.2" x="1837.6" y="1252.3438"/><text fill="#000000" font-family="sans-serif" font-size="11.2" lengthAdjust="spacing" textLength="132.8" x="1844.8" y="1268.0828">visitScheduleRequestDTO</text><text fill="#000000" font-family="sans-serif" font-size="11.2" lengthAdjust="spacing" textLength="136" x="1843.2" y="1280.5953">:visitScheduleRequestDTO</text><rect fill="#FFFFFF" height="1173.4313" style="stroke:#181818;stroke-width:0.8000000000000002;" width="8" x="17.2" y="72.5125"/><rect fill="#FFFFFF" height="22.8188" style="stroke:#181818;stroke-width:0.8000000000000002;" width="8" x="202.8" y="88.9313"/><rect fill="#FFFFFF" height="22.8188" style="stroke:#181818;stroke-width:0.8000000000000002;" width="8" x="202.8" y="134.5688"/><rect fill="#FFFFFF" height="1058.5375" style="stroke:#181818;stroke-width:0.8000000000000002;" width="8" x="202.8" y="180.2063"/><rect fill="#FFFFFF" height="159.7313" style="stroke:#181818;stroke-width:0.8000000000000002;" width="8" x="443.6" y="235.5375"/><rect fill="#FFFFFF" height="786.2188" style="stroke:#181818;stroke-width:0.8000000000000002;" width="8" x="443.6" y="429.7063"/><rect fill="#FFFFFF" height="22.8188" style="stroke:#181818;stroke-width:0.8000000000000002;" width="8" x="575.6" y="258.3563"/><rect fill="#FFFFFF" height="22.8188" style="stroke:#181818;stroke-width:0.8000000000000002;" width="8" x="575.6" y="452.525"/><rect fill="#FFFFFF" height="22.8188" style="stroke:#181818;stroke-width:0.8000000000000002;" width="8" x="661.2" y="303.9938"/><rect fill="#FFFFFF" height="22.8188" style="stroke:#181818;stroke-width:0.8000000000000002;" width="8" x="661.2" y="498.1625"/><rect fill="#FFFFFF" height="22.8188" style="stroke:#181818;stroke-width:0.8000000000000002;" width="8" x="778.4" y="349.6313"/><rect fill="#FFFFFF" height="397.2563" style="stroke:#181818;stroke-width:0.8000000000000002;" width="8" x="944.8" y="543.8"/><rect fill="#FFFFFF" height="22.4" style="stroke:#181818;stroke-width:0.8000000000000002;" width="8" x="948.8" y="573.0188"/><rect fill="#FFFFFF" height="22.4" style="stroke:#181818;stroke-width:0.8000000000000002;" width="8" x="948.8" y="630.2375"/><rect fill="#FFFFFF" height="225.1813" style="stroke:#181818;stroke-width:0.8000000000000002;" width="8" x="948.8" y="687.4563"/><rect fill="#FFFFFF" height="31.6188" style="stroke:#181818;stroke-width:0.8000000000000002;" width="8" x="952.8" y="720.675"/><rect fill="#FFFFFF" height="22.8188" style="stroke:#181818;stroke-width:0.8000000000000002;" width="8" x="1184" y="799.5313"/><rect fill="#FFFFFF" height="22.8188" style="stroke:#181818;stroke-width:0.8000000000000002;" width="8" x="1253.6" y="856.6"/><rect fill="#FFFFFF" height="229.2313" style="stroke:#181818;stroke-width:0.8000000000000002;" width="8" x="1357.6" y="963.875"/><rect fill="#FFFFFF" height="26.8188" style="stroke:#181818;stroke-width:0.8000000000000002;" width="8" x="1361.6" y="1063.2438"/><rect fill="#FFFFFF" height="24" style="stroke:#181818;stroke-width:0.8000000000000002;" width="8" x="1659.2" y="1135.0875"/><polygon fill="#181818" points="193.2,85.7313,201.2,88.9313,193.2,92.1313,196.4,88.9313" style="stroke:#181818;stroke-width:0.8000000000000002;"/><line style="stroke:#181818;stroke-width:0.8000000000000002;" x1="25.2" x2="198" y1="88.9313" y2="88.9313"/><text fill="#000000" font-family="sans-serif" font-size="10.4" font-weight="bold" lengthAdjust="spacing" textLength="5.6" x="30.8" y="85.1273">1</text><text fill="#000000" font-family="sans-serif" font-size="10.4" lengthAdjust="spacing" textLength="153.6" x="39.6" y="85.1273">asks to see booking requests list</text><polygon fill="#181818" points="34,108.55,26,111.75,34,114.95,30.8,111.75" style="stroke:#181818;stroke-width:0.8000000000000002;"/><line style="stroke:#181818;stroke-width:0.8000000000000002;stroke-dasharray:2.0,2.0;" x1="29.2" x2="206" y1="111.75" y2="111.75"/><text fill="#000000" font-family="sans-serif" font-size="10.4" font-weight="bold" lengthAdjust="spacing" textLength="5.6" x="38.8" y="107.9461">2</text><text fill="#000000" font-family="sans-serif" font-size="10.4" lengthAdjust="spacing" textLength="128" x="47.6" y="107.9461">requests the beginning date</text><polygon fill="#181818" points="193.2,131.3688,201.2,134.5688,193.2,137.7688,196.4,134.5688" style="stroke:#181818;stroke-width:0.8000000000000002;"/><line style="stroke:#181818;stroke-width:0.8000000000000002;" x1="25.2" x2="198" y1="134.5688" y2="134.5688"/><text fill="#000000" font-family="sans-serif" font-size="10.4" font-weight="bold" lengthAdjust="spacing" textLength="5.6" x="30.8" y="130.7648">3</text><text fill="#000000" font-family="sans-serif" font-size="10.4" lengthAdjust="spacing" textLength="113.6" x="39.6" y="130.7648">insert the beginning date</text><polygon fill="#181818" points="34,154.1875,26,157.3875,34,160.5875,30.8,157.3875" style="stroke:#181818;stroke-width:0.8000000000000002;"/><line style="stroke:#181818;stroke-width:0.8000000000000002;stroke-dasharray:2.0,2.0;" x1="29.2" x2="206" y1="157.3875" y2="157.3875"/><text fill="#000000" font-family="sans-serif" font-size="10.4" font-weight="bold" lengthAdjust="spacing" textLength="5.6" x="38.8" y="153.5836">4</text><text fill="#000000" font-family="sans-serif" font-size="10.4" lengthAdjust="spacing" textLength="96.8" x="47.6" y="153.5836">requests ending date</text><polygon fill="#181818" points="193.2,177.0063,201.2,180.2063,193.2,183.4063,196.4,180.2063" style="stroke:#181818;stroke-width:0.8000000000000002;"/><line style="stroke:#181818;stroke-width:0.8000000000000002;" x1="25.2" x2="198" y1="180.2063" y2="180.2063"/><text fill="#000000" font-family="sans-serif" font-size="10.4" font-weight="bold" lengthAdjust="spacing" textLength="5.6" x="30.8" y="176.4023">5</text><text fill="#000000" font-family="sans-serif" font-size="10.4" lengthAdjust="spacing" textLength="90.4" x="39.6" y="176.4023">selects ending date</text><polygon fill="#181818" points="352.8,199.825,360.8,203.025,352.8,206.225,356,203.025" style="stroke:#181818;stroke-width:0.8000000000000002;"/><line style="stroke:#181818;stroke-width:0.8000000000000002;stroke-dasharray:2.0,2.0;" x1="210.8" x2="357.6" y1="203.025" y2="203.025"/><text fill="#000000" font-family="sans-serif" font-size="10.4" font-weight="bold" lengthAdjust="spacing" textLength="5.6" x="216.4" y="199.2211">6</text><text fill="#000000" font-family="sans-serif" font-size="10.4" lengthAdjust="spacing" textLength="35.2" x="225.2" y="199.2211">create()</text><rect fill="#E3E3E3" height="23.7125" rx="2" ry="2" style="stroke:#181818;stroke-width:0.4000000000000001;" width="170.4" x="362.4" y="186.6063"/><text fill="#000000" font-family="sans-serif" font-size="11.2" lengthAdjust="spacing" textLength="159.2" x="368" y="202.3453">:ListBookingRequestsController</text><polygon fill="#181818" points="434,232.3375,442,235.5375,434,238.7375,437.2,235.5375" style="stroke:#181818;stroke-width:0.8000000000000002;"/><line style="stroke:#181818;stroke-width:0.8000000000000002;" x1="210.8" x2="438.8" y1="235.5375" y2="235.5375"/><text fill="#000000" font-family="sans-serif" font-size="10.4" font-weight="bold" lengthAdjust="spacing" textLength="5.6" x="216.4" y="231.7336">7</text><text fill="#000000" font-family="sans-serif" font-size="10.4" lengthAdjust="spacing" textLength="89.6" x="225.2" y="231.7336">getAgentLoggedIn()</text><polygon fill="#181818" points="566,255.1563,574,258.3563,566,261.5563,569.2,258.3563" style="stroke:#181818;stroke-width:0.8000000000000002;"/><line style="stroke:#181818;stroke-width:0.8000000000000002;" x1="451.6" x2="570.8" y1="258.3563" y2="258.3563"/><text fill="#000000" font-family="sans-serif" font-size="10.4" font-weight="bold" lengthAdjust="spacing" textLength="5.6" x="457.2" y="254.5523">8</text><text fill="#000000" font-family="sans-serif" font-size="10.4" lengthAdjust="spacing" textLength="60" x="466" y="254.5523">getInstance()</text><polygon fill="#181818" points="460.4,277.975,452.4,281.175,460.4,284.375,457.2,281.175" style="stroke:#181818;stroke-width:0.8000000000000002;"/><line style="stroke:#181818;stroke-width:0.8000000000000002;stroke-dasharray:2.0,2.0;" x1="455.6" x2="578.8" y1="281.175" y2="281.175"/><text fill="#000000" font-family="sans-serif" font-size="10.4" font-weight="bold" lengthAdjust="spacing" textLength="5.6" x="465.2" y="277.3711">9</text><text fill="#000000" font-family="sans-serif" font-size="10.4" lengthAdjust="spacing" textLength="53.6" x="474" y="277.3711">repositories</text><polygon fill="#181818" points="651.6,300.7938,659.6,303.9938,651.6,307.1938,654.8,303.9938" style="stroke:#181818;stroke-width:0.8000000000000002;"/><line style="stroke:#181818;stroke-width:0.8000000000000002;" x1="451.6" x2="656.4" y1="303.9938" y2="303.9938"/><text fill="#000000" font-family="sans-serif" font-size="10.4" font-weight="bold" lengthAdjust="spacing" textLength="11.2" x="457.2" y="300.1898">10</text><text fill="#000000" font-family="sans-serif" font-size="10.4" lengthAdjust="spacing" textLength="136.8" x="471.6" y="300.1898">getAuthenticationRepository()</text><polygon fill="#181818" points="460.4,323.6125,452.4,326.8125,460.4,330.0125,457.2,326.8125" style="stroke:#181818;stroke-width:0.8000000000000002;"/><line style="stroke:#181818;stroke-width:0.8000000000000002;stroke-dasharray:2.0,2.0;" x1="455.6" x2="664.4" y1="326.8125" y2="326.8125"/><text fill="#000000" font-family="sans-serif" font-size="10.4" font-weight="bold" lengthAdjust="spacing" textLength="11.2" x="465.2" y="323.0086">11</text><text fill="#000000" font-family="sans-serif" font-size="10.4" lengthAdjust="spacing" textLength="114.4" x="479.6" y="323.0086">authenticationRepository</text><polygon fill="#181818" points="768.8,346.4313,776.8,349.6313,768.8,352.8313,772,349.6313" style="stroke:#181818;stroke-width:0.8000000000000002;"/><line style="stroke:#181818;stroke-width:0.8000000000000002;" x1="451.6" x2="773.6" y1="349.6313" y2="349.6313"/><text fill="#000000" font-family="sans-serif" font-size="10.4" font-weight="bold" lengthAdjust="spacing" textLength="11.2" x="457.2" y="345.8273">12</text><text fill="#000000" font-family="sans-serif" font-size="10.4" lengthAdjust="spacing" textLength="89.6" x="471.6" y="345.8273">getAgentLoggedIn()</text><polygon fill="#181818" points="460.4,369.25,452.4,372.45,460.4,375.65,457.2,372.45" style="stroke:#181818;stroke-width:0.8000000000000002;"/><line style="stroke:#181818;stroke-width:0.8000000000000002;stroke-dasharray:2.0,2.0;" x1="455.6" x2="781.6" y1="372.45" y2="372.45"/><text fill="#000000" font-family="sans-serif" font-size="10.4" font-weight="bold" lengthAdjust="spacing" textLength="11.2" x="465.2" y="368.6461">13</text><text fill="#000000" font-family="sans-serif" font-size="10.4" lengthAdjust="spacing" textLength="67.2" x="479.6" y="368.6461">agentLoggedIn</text><polygon fill="#181818" points="219.6,392.0688,211.6,395.2688,219.6,398.4688,216.4,395.2688" style="stroke:#181818;stroke-width:0.8000000000000002;"/><line style="stroke:#181818;stroke-width:0.8000000000000002;stroke-dasharray:2.0,2.0;" x1="214.8" x2="446.8" y1="395.2688" y2="395.2688"/><text fill="#000000" font-family="sans-serif" font-size="10.4" font-weight="bold" lengthAdjust="spacing" textLength="11.2" x="224.4" y="391.4648">14</text><text fill="#000000" font-family="sans-serif" font-size="10.4" lengthAdjust="spacing" textLength="67.2" x="238.8" y="391.4648">agentLoggedIn</text><polygon fill="#181818" points="434,426.5063,442,429.7063,434,432.9063,437.2,429.7063" style="stroke:#181818;stroke-width:0.8000000000000002;"/><line style="stroke:#181818;stroke-width:0.8000000000000002;" x1="210.8" x2="438.8" y1="429.7063" y2="429.7063"/><text fill="#000000" font-family="sans-serif" font-size="10.4" font-weight="bold" lengthAdjust="spacing" textLength="11.2" x="216.4" y="420.093">15</text><text fill="#000000" font-family="sans-serif" font-size="10.4" lengthAdjust="spacing" textLength="203.2" x="230.8" y="414.2836">getBookingListSorted(Agent agentLoggedIn,</text><text fill="#000000" font-family="sans-serif" font-size="10.4" lengthAdjust="spacing" textLength="140" x="234" y="425.9023">Date startDate, Date endDate)</text><polygon fill="#181818" points="566,449.325,574,452.525,566,455.725,569.2,452.525" style="stroke:#181818;stroke-width:0.8000000000000002;"/><line style="stroke:#181818;stroke-width:0.8000000000000002;" x1="451.6" x2="570.8" y1="452.525" y2="452.525"/><text fill="#000000" font-family="sans-serif" font-size="10.4" font-weight="bold" lengthAdjust="spacing" textLength="11.2" x="457.2" y="448.7211">16</text><text fill="#000000" font-family="sans-serif" font-size="10.4" lengthAdjust="spacing" textLength="60" x="471.6" y="448.7211">getInstance()</text><polygon fill="#181818" points="460.4,472.1438,452.4,475.3438,460.4,478.5438,457.2,475.3438" style="stroke:#181818;stroke-width:0.8000000000000002;"/><line style="stroke:#181818;stroke-width:0.8000000000000002;stroke-dasharray:2.0,2.0;" x1="455.6" x2="578.8" y1="475.3438" y2="475.3438"/><text fill="#000000" font-family="sans-serif" font-size="10.4" font-weight="bold" lengthAdjust="spacing" textLength="11.2" x="465.2" y="471.5398">17</text><text fill="#000000" font-family="sans-serif" font-size="10.4" lengthAdjust="spacing" textLength="53.6" x="479.6" y="471.5398">repositories</text><polygon fill="#181818" points="651.6,494.9625,659.6,498.1625,651.6,501.3625,654.8,498.1625" style="stroke:#181818;stroke-width:0.8000000000000002;"/><line style="stroke:#181818;stroke-width:0.8000000000000002;" x1="451.6" x2="656.4" y1="498.1625" y2="498.1625"/><text fill="#000000" font-family="sans-serif" font-size="10.4" font-weight="bold" lengthAdjust="spacing" textLength="11.2" x="457.2" y="494.3586">18</text><text fill="#000000" font-family="sans-serif" font-size="10.4" lengthAdjust="spacing" textLength="158.4" x="471.6" y="494.3586">VisitScheduleRequestRepository()</text><polygon fill="#181818" points="460.4,517.7813,452.4,520.9813,460.4,524.1813,457.2,520.9813" style="stroke:#181818;stroke-width:0.8000000000000002;"/><line style="stroke:#181818;stroke-width:0.8000000000000002;stroke-dasharray:2.0,2.0;" x1="455.6" x2="664.4" y1="520.9813" y2="520.9813"/><text fill="#000000" font-family="sans-serif" font-size="10.4" font-weight="bold" lengthAdjust="spacing" textLength="11.2" x="465.2" y="517.1773">19</text><text fill="#000000" font-family="sans-serif" font-size="10.4" lengthAdjust="spacing" textLength="148.8" x="479.6" y="517.1773">visitScheduleRequestRepository</text><polygon fill="#181818" points="935.2,540.6,943.2,543.8,935.2,547,938.4,543.8" style="stroke:#181818;stroke-width:0.8000000000000002;"/><line style="stroke:#181818;stroke-width:0.8000000000000002;" x1="451.6" x2="940" y1="543.8" y2="543.8"/><text fill="#000000" font-family="sans-serif" font-size="10.4" font-weight="bold" lengthAdjust="spacing" textLength="11.2" x="457.2" y="539.9961">20</text><text fill="#000000" font-family="sans-serif" font-size="10.4" lengthAdjust="spacing" textLength="414.4" x="471.6" y="539.9961">getVisitScheduleRequestListByAgent(Agent agentLoggedIn,Date startDate,Date endDate)</text><line style="stroke:#181818;stroke-width:0.8000000000000002;" x1="956.8" x2="990.4" y1="566.6188" y2="566.6188"/><line style="stroke:#181818;stroke-width:0.8000000000000002;" x1="990.4" x2="990.4" y1="566.6188" y2="577.0188"/><line style="stroke:#181818;stroke-width:0.8000000000000002;" x1="957.6" x2="990.4" y1="577.0188" y2="577.0188"/><polygon fill="#181818" points="965.6,573.8188,957.6,577.0188,965.6,580.2188,962.4,577.0188" style="stroke:#181818;stroke-width:0.8000000000000002;"/><text fill="#000000" font-family="sans-serif" font-size="10.4" font-weight="bold" lengthAdjust="spacing" textLength="11.2" x="962.4" y="562.8148">21</text><text fill="#000000" font-family="sans-serif" font-size="10.4" lengthAdjust="spacing" textLength="205.6" x="976.8" y="562.8148">getListByDate(Date startDate,Date endDate)</text><line style="stroke:#181818;stroke-width:0.8000000000000002;" x1="956.8" x2="990.4" y1="623.8375" y2="623.8375"/><line style="stroke:#181818;stroke-width:0.8000000000000002;" x1="990.4" x2="990.4" y1="623.8375" y2="634.2375"/><line style="stroke:#181818;stroke-width:0.8000000000000002;" x1="957.6" x2="990.4" y1="634.2375" y2="634.2375"/><polygon fill="#181818" points="965.6,631.0375,957.6,634.2375,965.6,637.4375,962.4,634.2375" style="stroke:#181818;stroke-width:0.8000000000000002;"/><text fill="#000000" font-family="sans-serif" font-size="10.4" font-weight="bold" lengthAdjust="spacing" textLength="11.2" x="962.4" y="620.0336">22</text><text fill="#000000" font-family="sans-serif" font-size="10.4" lengthAdjust="spacing" textLength="180" x="976.8" y="620.0336">filterListByAgent(Agent agentLoggedIn)</text><line style="stroke:#181818;stroke-width:0.8000000000000002;" x1="952.8" x2="990.4" y1="677.0563" y2="677.0563"/><line style="stroke:#181818;stroke-width:0.8000000000000002;" x1="990.4" x2="990.4" y1="677.0563" y2="687.4563"/><line style="stroke:#181818;stroke-width:0.8000000000000002;" x1="957.6" x2="990.4" y1="687.4563" y2="687.4563"/><polygon fill="#181818" points="965.6,684.2563,957.6,687.4563,965.6,690.6563,962.4,687.4563" style="stroke:#181818;stroke-width:0.8000000000000002;"/><text fill="#000000" font-family="sans-serif" font-size="10.4" font-weight="bold" lengthAdjust="spacing" textLength="11.2" x="962.4" y="673.2523">23</text><text fill="#000000" font-family="sans-serif" font-size="10.4" lengthAdjust="spacing" textLength="113.6" x="976.8" y="673.2523">sortByConfigurationFile()</text><line style="stroke:#181818;stroke-width:0.8000000000000002;" x1="956.8" x2="994.4" y1="710.275" y2="710.275"/><line style="stroke:#181818;stroke-width:0.8000000000000002;" x1="994.4" x2="994.4" y1="710.275" y2="720.675"/><line style="stroke:#181818;stroke-width:0.8000000000000002;" x1="961.6" x2="994.4" y1="720.675" y2="720.675"/><polygon fill="#181818" points="969.6,717.475,961.6,720.675,969.6,723.875,966.4,720.675" style="stroke:#181818;stroke-width:0.8000000000000002;"/><text fill="#000000" font-family="sans-serif" font-size="10.4" font-weight="bold" lengthAdjust="spacing" textLength="11.2" x="966.4" y="706.4711">24</text><text fill="#000000" font-family="sans-serif" font-size="10.4" lengthAdjust="spacing" textLength="88" x="980.8" y="706.4711">getSortingMethod()</text><line style="stroke:#181818;stroke-width:0.8000000000000002;stroke-dasharray:2.0,2.0;" x1="960.8" x2="994.4" y1="751.4938" y2="751.4938"/><line style="stroke:#181818;stroke-width:0.8000000000000002;stroke-dasharray:2.0,2.0;" x1="994.4" x2="994.4" y1="751.4938" y2="761.8938"/><line style="stroke:#181818;stroke-width:0.8000000000000002;stroke-dasharray:2.0,2.0;" x1="956.8" x2="994.4" y1="761.8938" y2="761.8938"/><polygon fill="#181818" points="964.8,758.6938,956.8,761.8938,964.8,765.0938,961.6,761.8938" style="stroke:#181818;stroke-width:0.8000000000000002;"/><text fill="#000000" font-family="sans-serif" font-size="10.4" font-weight="bold" lengthAdjust="spacing" textLength="11.2" x="966.4" y="747.6898">25</text><text fill="#000000" font-family="sans-serif" font-size="10.4" lengthAdjust="spacing" textLength="65.6" x="980.8" y="747.6898">sortingMethod</text><path d="M852.8,769.8938 L901.6,769.8938 L901.6,775.1125 L893.6,783.1125 L852.8,783.1125 L852.8,769.8938 " fill="#EEEEEE" style="stroke:#000000;stroke-width:1.2000000000000002;"/><rect fill="none" height="115.925" style="stroke:#000000;stroke-width:1.2000000000000002;" width="440.8" x="852.8" y="769.8938"/><text fill="#000000" font-family="sans-serif" font-size="10.4" font-weight="bold" lengthAdjust="spacing" textLength="12.8" x="864.8" y="780.1086">alt</text><text fill="#000000" font-family="sans-serif" font-size="8.8" font-weight="bold" lengthAdjust="spacing" textLength="98.4" x="913.6" y="779.4602">[sortMethod = bubble]</text><polygon fill="#181818" points="1174.4,796.3313,1182.4,799.5313,1174.4,802.7313,1177.6,799.5313" style="stroke:#181818;stroke-width:0.8000000000000002;"/><line style="stroke:#181818;stroke-width:0.8000000000000002;" x1="956.8" x2="1179.2" y1="799.5313" y2="799.5313"/><text fill="#000000" font-family="sans-serif" font-size="10.4" font-weight="bold" lengthAdjust="spacing" textLength="11.2" x="962.4" y="795.7273">26</text><text fill="#000000" font-family="sans-serif" font-size="10.4" lengthAdjust="spacing" textLength="140" x="976.8" y="795.7273">sort(visitScheduleRequestList)</text><polygon fill="#181818" points="965.6,819.15,957.6,822.35,965.6,825.55,962.4,822.35" style="stroke:#181818;stroke-width:0.8000000000000002;"/><line style="stroke:#181818;stroke-width:0.8000000000000002;stroke-dasharray:2.0,2.0;" x1="960.8" x2="1187.2" y1="822.35" y2="822.35"/><text fill="#000000" font-family="sans-serif" font-size="10.4" font-weight="bold" lengthAdjust="spacing" textLength="11.2" x="970.4" y="818.5461">27</text><text fill="#000000" font-family="sans-serif" font-size="10.4" lengthAdjust="spacing" textLength="146.4" x="984.8" y="818.5461">visitScheduleRequestListSorted</text><line style="stroke:#000000;stroke-width:0.8000000000000002;stroke-dasharray:2.0,2.0;" x1="852.8" x2="1293.6" y1="829.55" y2="829.55"/><text fill="#000000" font-family="sans-serif" font-size="8.8" font-weight="bold" lengthAdjust="spacing" textLength="86.4" x="856.8" y="837.5164">[sortMethod = tree]</text><polygon fill="#181818" points="1244,853.4,1252,856.6,1244,859.8,1247.2,856.6" style="stroke:#181818;stroke-width:0.8000000000000002;"/><line style="stroke:#181818;stroke-width:0.8000000000000002;" x1="956.8" x2="1248.8" y1="856.6" y2="856.6"/><text fill="#000000" font-family="sans-serif" font-size="10.4" font-weight="bold" lengthAdjust="spacing" textLength="11.2" x="962.4" y="852.7961">28</text><text fill="#000000" font-family="sans-serif" font-size="10.4" lengthAdjust="spacing" textLength="140" x="976.8" y="852.7961">sort(visitScheduleRequestList)</text><polygon fill="#181818" points="965.6,876.2188,957.6,879.4188,965.6,882.6188,962.4,879.4188" style="stroke:#181818;stroke-width:0.8000000000000002;"/><line style="stroke:#181818;stroke-width:0.8000000000000002;stroke-dasharray:2.0,2.0;" x1="960.8" x2="1256.8" y1="879.4188" y2="879.4188"/><text fill="#000000" font-family="sans-serif" font-size="10.4" font-weight="bold" lengthAdjust="spacing" textLength="11.2" x="970.4" y="875.6148">29</text><text fill="#000000" font-family="sans-serif" font-size="10.4" lengthAdjust="spacing" textLength="146.4" x="984.8" y="875.6148">visitScheduleRequestListSorted</text><line style="stroke:#181818;stroke-width:0.8000000000000002;stroke-dasharray:2.0,2.0;" x1="956.8" x2="990.4" y1="911.8375" y2="911.8375"/><line style="stroke:#181818;stroke-width:0.8000000000000002;stroke-dasharray:2.0,2.0;" x1="990.4" x2="990.4" y1="911.8375" y2="922.2375"/><line style="stroke:#181818;stroke-width:0.8000000000000002;stroke-dasharray:2.0,2.0;" x1="952.8" x2="990.4" y1="922.2375" y2="922.2375"/><polygon fill="#181818" points="960.8,919.0375,952.8,922.2375,960.8,925.4375,957.6,922.2375" style="stroke:#181818;stroke-width:0.8000000000000002;"/><text fill="#000000" font-family="sans-serif" font-size="10.4" font-weight="bold" lengthAdjust="spacing" textLength="11.2" x="962.4" y="908.0336">30</text><text fill="#000000" font-family="sans-serif" font-size="10.4" lengthAdjust="spacing" textLength="116" x="976.8" y="908.0336">visitScheduleRequestList</text><polygon fill="#181818" points="460.4,937.8563,452.4,941.0563,460.4,944.2563,457.2,941.0563" style="stroke:#181818;stroke-width:0.8000000000000002;"/><line style="stroke:#181818;stroke-width:0.8000000000000002;stroke-dasharray:2.0,2.0;" x1="455.6" x2="948" y1="941.0563" y2="941.0563"/><text fill="#000000" font-family="sans-serif" font-size="10.4" font-weight="bold" lengthAdjust="spacing" textLength="11.2" x="465.2" y="937.2523">31</text><text fill="#000000" font-family="sans-serif" font-size="10.4" lengthAdjust="spacing" textLength="116" x="479.6" y="937.2523">visitScheduleRequestList</text><polygon fill="#181818" points="1348,960.675,1356,963.875,1348,967.075,1351.2,963.875" style="stroke:#181818;stroke-width:0.8000000000000002;"/><line style="stroke:#181818;stroke-width:0.8000000000000002;" x1="451.6" x2="1352.8" y1="963.875" y2="963.875"/><text fill="#000000" font-family="sans-serif" font-size="10.4" font-weight="bold" lengthAdjust="spacing" textLength="11.2" x="457.2" y="960.0711">32</text><text fill="#000000" font-family="sans-serif" font-size="10.4" lengthAdjust="spacing" textLength="152" x="471.6" y="960.0711">toDTO(visitScheduleRequestList)</text><polygon fill="#181818" points="1487.2,983.4938,1495.2,986.6938,1487.2,989.8938,1490.4,986.6938" style="stroke:#181818;stroke-width:0.8000000000000002;"/><line style="stroke:#181818;stroke-width:0.8000000000000002;stroke-dasharray:2.0,2.0;" x1="1365.6" x2="1492" y1="986.6938" y2="986.6938"/><text fill="#000000" font-family="sans-serif" font-size="10.4" font-weight="bold" lengthAdjust="spacing" textLength="11.2" x="1371.2" y="982.8898">33</text><text fill="#000000" font-family="sans-serif" font-size="10.4" lengthAdjust="spacing" textLength="35.2" x="1385.6" y="982.8898">create()</text><rect fill="#E3E3E3" height="23.7125" rx="2" ry="2" style="stroke:#181818;stroke-width:0.4000000000000001;" width="332.8" x="1496.8" y="970.275"/><text fill="#000000" font-family="sans-serif" font-size="11.2" lengthAdjust="spacing" textLength="321.6" x="1502.4" y="986.0141">VisitScheduleRequestListDTO: List&lt;visitScheduleRequestDTO&gt;</text><path d="M1277.6,1008.3875 L1336,1008.3875 L1336,1013.6063 L1328,1021.6063 L1277.6,1021.6063 L1277.6,1008.3875 " fill="#EEEEEE" style="stroke:#000000;stroke-width:1.2000000000000002;"/><rect fill="none" height="162.7" style="stroke:#000000;stroke-width:1.2000000000000002;" width="723.2" x="1277.6" y="1008.3875"/><text fill="#000000" font-family="sans-serif" font-size="10.4" font-weight="bold" lengthAdjust="spacing" textLength="22.4" x="1289.6" y="1018.6023">loop</text><text fill="#000000" font-family="sans-serif" font-size="8.8" font-weight="bold" lengthAdjust="spacing" textLength="335.2" x="1348" y="1017.9539">[for VisitScheduleRequest visitScheduleRequest: visitScheduleRequestList]</text><path d="M1285.6,1027.2063 L1334.4,1027.2063 L1334.4,1032.425 L1326.4,1040.425 L1285.6,1040.425 L1285.6,1027.2063 " fill="#EEEEEE" style="stroke:#000000;stroke-width:1.2000000000000002;"/><rect fill="none" height="138.2813" style="stroke:#000000;stroke-width:1.2000000000000002;" width="707.2" x="1285.6" y="1027.2063"/><text fill="#000000" font-family="sans-serif" font-size="10.4" font-weight="bold" lengthAdjust="spacing" textLength="12.8" x="1297.6" y="1037.4211">alt</text><text fill="#000000" font-family="sans-serif" font-size="8.8" font-weight="bold" lengthAdjust="spacing" textLength="391.2" x="1346.4" y="1036.7727">[visitScheduleRequest.getDate()==startDate || visitScheduleRequest.getDate()==endDate)]</text><line style="stroke:#181818;stroke-width:0.8000000000000002;" x1="1365.6" x2="1403.2" y1="1052.8438" y2="1052.8438"/><line style="stroke:#181818;stroke-width:0.8000000000000002;" x1="1403.2" x2="1403.2" y1="1052.8438" y2="1063.2438"/><line style="stroke:#181818;stroke-width:0.8000000000000002;" x1="1370.4" x2="1403.2" y1="1063.2438" y2="1063.2438"/><polygon fill="#181818" points="1378.4,1060.0438,1370.4,1063.2438,1378.4,1066.4438,1375.2,1063.2438" style="stroke:#181818;stroke-width:0.8000000000000002;"/><text fill="#000000" font-family="sans-serif" font-size="10.4" font-weight="bold" lengthAdjust="spacing" textLength="11.2" x="1375.2" y="1049.0398">34</text><text fill="#000000" font-family="sans-serif" font-size="10.4" lengthAdjust="spacing" textLength="268" x="1389.6" y="1049.0398">visitScheduleRequestDTO = toDTO(visitScheduleRequest)</text><polygon fill="#181818" points="1828,1086.8625,1836,1090.0625,1828,1093.2625,1831.2,1090.0625" style="stroke:#181818;stroke-width:0.8000000000000002;"/><line style="stroke:#181818;stroke-width:0.8000000000000002;" x1="1365.6" x2="1832.8" y1="1090.0625" y2="1090.0625"/><text fill="#000000" font-family="sans-serif" font-size="10.4" font-weight="bold" lengthAdjust="spacing" textLength="11.2" x="1371.2" y="1086.2586">35</text><text fill="#000000" font-family="sans-serif" font-size="10.4" lengthAdjust="spacing" textLength="155.2" x="1385.6" y="1086.2586">create(visitScheduleRequestDTO)</text><rect fill="#E3E3E3" height="36.225" rx="2" ry="2" style="stroke:#181818;stroke-width:0.4000000000000001;" width="147.2" x="1837.6" y="1073.6438"/><text fill="#000000" font-family="sans-serif" font-size="11.2" lengthAdjust="spacing" textLength="132.8" x="1844.8" y="1089.3828">visitScheduleRequestDTO</text><text fill="#000000" font-family="sans-serif" font-size="11.2" lengthAdjust="spacing" textLength="136" x="1843.2" y="1101.8953">:visitScheduleRequestDTO</text><polygon fill="#181818" points="1649.6,1131.8875,1657.6,1135.0875,1649.6,1138.2875,1652.8,1135.0875" style="stroke:#181818;stroke-width:0.8000000000000002;"/><line style="stroke:#181818;stroke-width:0.8000000000000002;" x1="1365.6" x2="1654.4" y1="1135.0875" y2="1135.0875"/><text fill="#000000" font-family="sans-serif" font-size="10.4" font-weight="bold" lengthAdjust="spacing" textLength="11.2" x="1371.2" y="1131.2836">36</text><text fill="#000000" font-family="sans-serif" font-size="10.4" lengthAdjust="spacing" textLength="143.2" x="1385.6" y="1131.2836">add(visitScheduleRequestDTO)</text><polygon fill="#181818" points="460.4,1189.9063,452.4,1193.1063,460.4,1196.3063,457.2,1193.1063" style="stroke:#181818;stroke-width:0.8000000000000002;"/><line style="stroke:#181818;stroke-width:0.8000000000000002;stroke-dasharray:2.0,2.0;" x1="455.6" x2="1360.8" y1="1193.1063" y2="1193.1063"/><text fill="#000000" font-family="sans-serif" font-size="10.4" font-weight="bold" lengthAdjust="spacing" textLength="11.2" x="465.2" y="1189.3023">37</text><text fill="#000000" font-family="sans-serif" font-size="10.4" lengthAdjust="spacing" textLength="136.8" x="479.6" y="1189.3023">visitScheduleRequestListDTO</text><polygon fill="#181818" points="219.6,1212.725,211.6,1215.925,219.6,1219.125,216.4,1215.925" style="stroke:#181818;stroke-width:0.8000000000000002;"/><line style="stroke:#181818;stroke-width:0.8000000000000002;stroke-dasharray:2.0,2.0;" x1="214.8" x2="446.8" y1="1215.925" y2="1215.925"/><text fill="#000000" font-family="sans-serif" font-size="10.4" font-weight="bold" lengthAdjust="spacing" textLength="11.2" x="224.4" y="1212.1211">38</text><text fill="#000000" font-family="sans-serif" font-size="10.4" lengthAdjust="spacing" textLength="136.8" x="238.8" y="1212.1211">visitScheduleRequestListDTO</text><polygon fill="#181818" points="34,1235.5438,26,1238.7438,34,1241.9438,30.8,1238.7438" style="stroke:#181818;stroke-width:0.8000000000000002;"/><line style="stroke:#181818;stroke-width:0.8000000000000002;stroke-dasharray:2.0,2.0;" x1="29.2" x2="206" y1="1238.7438" y2="1238.7438"/><text fill="#000000" font-family="sans-serif" font-size="10.4" font-weight="bold" lengthAdjust="spacing" textLength="11.2" x="38.8" y="1234.9398">39</text><text fill="#000000" font-family="sans-serif" font-size="10.4" lengthAdjust="spacing" textLength="85.6" x="53.2" y="1234.9398">shows booking list</text><!--SRC=[hLVRRjim37ttLmXzMLeq-u1WBT0B1WH8iQ6NFUt5iLb7g2jbaf8kG3z-bEIBv9YEqpKliItoy90Y9LA_SB5ELVhANgMGsKh9Ls16RI3HpSewpLxI0XxChWIc83EfACfGGA_INBvnKR3djDIG9Ed6IB5vNO9AaYyhdWDxbj8ivTyapOnKxEIg065EMAgPUqeGn_2ChrDXsCbimRMvbXBnYtluim5jzDFSIJ_D3ulUI66KB4jGJkNcyNxHKRg7jTGSYN3GJaO57sBPSEMtsDVykRXwZ3NGznMwnBFKS2aQXHrgNn5B3edIYz5_SVpwaAqWtvHGUTm1sbeHJG5SRvRB4Xwayk5lNsEnHmMjKFqIYM0Suy3VfUjr5NF_U9YvtRtRnnypPX- -RNiaSFNIvya27sD4GXu3JQmu80kJs3paszH0bNy9mvzxPDDBp38sGz4NpOna6e0jlQEO9px5M8bydKw3WvbP_rZrGvWfeddOMQkC-yoMK70XB6QEsaubXmXidn4N6fIXrBjC3h40aG-Pxx6leSJYtzViMAuCshexEqErJ04kJavRIZKjBuGY1HXdQY6B0lAvGE5GjZ7WQZbQSW085DQf1vmBZGTL1XHMLFEHI8GrRLb66g5243eQjMPgJupAPQBYASRkh8cM75R0a3n32BRxY3LB2kc8pIB9nEAKeT2jq1pbopXpth-cniS0nqdtD9zUjbbRdO3s-B879EGJNp8HyFblmMuj4YQaClRftBzZ8Td_DdwnJTRvsO_Jop33Za_qBcQuEFMUVI3H-vdQx9gnuHjhCDUxiFPZGt8xY3kOyNrqRT9tRquNNkhUkjwvhUxTyCvk7zZilGixvDPTxEFfSz6JiZOce-oFvz36xoFKddbfG1q8sKTeVHv5ZRLxlSF6yPaN6-KEaE-y92lgapRCdXXuUDo1MSdyaspH_ZMMncnjMXgdv3NO1LkwFl6WesqxMLcTR8do8TmD-j5mFS0bNAJi-6EPyZdw3ZYxn5uRR7mF-bntnyTvtEjzqsXJaesj_u_2Y2o8WYDeTUetAZrfqc4NEy1uS8C6huj5tSNtN1HxTPV4bviVSMOu8U10CMBF6-1gDgg_-rUawGQSk64EgPLIhd6ALhttQQzt8tskoxrF-2kUKkv2ERsuQAuJzlv-KBZtikcuN8MGo5eCXYr0Chhzq5IK-yntmasGwBSJ9Ce8IsvhiTlCy-Eij4Eg6twFhDnknNRVg_07VVQM7j6JOU-JyHF6VXV-0RE-9nyOS_LAlkbcRc_6zUwG-my0]--></g></svg>