<?xml version="1.0" encoding="us-ascii" standalone="no"?><svg xmlns="http://www.w3.org/2000/svg" xmlns:xlink="http://www.w3.org/1999/xlink" contentStyleType="text/css" height="1197px" preserveAspectRatio="none" style="width:1678px;height:1197px;background:#FFFFFF;" version="1.1" viewBox="0 0 1678 1197" width="1678px" zoomAndPan="magnify"><defs/><g><!--class ListBookingRequestsUI--><g id="elem_ListBookingRequestsUI"><rect codeLine="12" fill="#F1F1F1" height="48" id="ListBookingRequestsUI" rx="2.5" ry="2.5" style="stroke:#181818;stroke-width:0.5;" width="177" x="305.5" y="30.5"/><ellipse cx="320.5" cy="46.5" fill="#ADD1B2" rx="11" ry="11" style="stroke:#181818;stroke-width:1.0;"/><path d="M323.2656,42.375 Q323.4219,42.1563 323.6094,42.0469 Q323.7969,41.9375 324.0156,41.9375 Q324.3906,41.9375 324.625,42.2031 Q324.8594,42.4531 324.8594,43.0625 L324.8594,44.5156 Q324.8594,45.125 324.625,45.3906 Q324.3906,45.6563 324.0156,45.6563 Q323.6719,45.6563 323.4688,45.4531 Q323.2656,45.2656 323.1563,44.75 Q323.1094,44.3906 322.9219,44.2031 Q322.5938,43.8281 321.9844,43.6094 Q321.375,43.3906 320.75,43.3906 Q319.9844,43.3906 319.3438,43.7188 Q318.7188,44.0469 318.2188,44.7969 Q317.7344,45.5469 317.7344,46.5781 L317.7344,47.6719 Q317.7344,48.9063 318.625,49.7344 Q319.5156,50.5469 321.1094,50.5469 Q322.0469,50.5469 322.7031,50.2969 Q323.0938,50.1406 323.5156,49.7031 Q323.7813,49.4375 323.9219,49.3594 Q324.0781,49.2813 324.2813,49.2813 Q324.6094,49.2813 324.8594,49.5469 Q325.125,49.7969 325.125,50.1406 Q325.125,50.4844 324.7813,50.8906 Q324.2813,51.4688 323.4844,51.7969 Q322.4063,52.25 321.1094,52.25 Q319.5938,52.25 318.3906,51.625 Q317.4063,51.125 316.7188,50.0625 Q316.0313,48.9844 316.0313,47.7031 L316.0313,46.5469 Q316.0313,45.2188 316.6406,44.0781 Q317.2656,42.9219 318.3594,42.3125 Q319.4531,41.6875 320.6875,41.6875 Q321.4219,41.6875 322.0625,41.8594 Q322.7188,42.0156 323.2656,42.375 Z " fill="#000000"/><text fill="#000000" font-family="sans-serif" font-size="14" lengthAdjust="spacing" textLength="145" x="334.5" y="51.3535">ListBookingRequestsUI</text><line style="stroke:#181818;stroke-width:0.5;" x1="306.5" x2="481.5" y1="62.5" y2="62.5"/><line style="stroke:#181818;stroke-width:0.5;" x1="306.5" x2="481.5" y1="70.5" y2="70.5"/></g><!--class ListBookingRequestsController--><g id="elem_ListBookingRequestsController"><rect codeLine="13" fill="#F1F1F1" height="94.9219" id="ListBookingRequestsController" rx="2.5" ry="2.5" style="stroke:#181818;stroke-width:0.5;" width="300" x="518" y="7"/><ellipse cx="566.25" cy="23" fill="#ADD1B2" rx="11" ry="11" style="stroke:#181818;stroke-width:1.0;"/><path d="M569.0156,18.875 Q569.1719,18.6563 569.3594,18.5469 Q569.5469,18.4375 569.7656,18.4375 Q570.1406,18.4375 570.375,18.7031 Q570.6094,18.9531 570.6094,19.5625 L570.6094,21.0156 Q570.6094,21.625 570.375,21.8906 Q570.1406,22.1563 569.7656,22.1563 Q569.4219,22.1563 569.2188,21.9531 Q569.0156,21.7656 568.9063,21.25 Q568.8594,20.8906 568.6719,20.7031 Q568.3438,20.3281 567.7344,20.1094 Q567.125,19.8906 566.5,19.8906 Q565.7344,19.8906 565.0938,20.2188 Q564.4688,20.5469 563.9688,21.2969 Q563.4844,22.0469 563.4844,23.0781 L563.4844,24.1719 Q563.4844,25.4063 564.375,26.2344 Q565.2656,27.0469 566.8594,27.0469 Q567.7969,27.0469 568.4531,26.7969 Q568.8438,26.6406 569.2656,26.2031 Q569.5313,25.9375 569.6719,25.8594 Q569.8281,25.7813 570.0313,25.7813 Q570.3594,25.7813 570.6094,26.0469 Q570.875,26.2969 570.875,26.6406 Q570.875,26.9844 570.5313,27.3906 Q570.0313,27.9688 569.2344,28.2969 Q568.1563,28.75 566.8594,28.75 Q565.3438,28.75 564.1406,28.125 Q563.1563,27.625 562.4688,26.5625 Q561.7813,25.4844 561.7813,24.2031 L561.7813,23.0469 Q561.7813,21.7188 562.3906,20.5781 Q563.0156,19.4219 564.1094,18.8125 Q565.2031,18.1875 566.4375,18.1875 Q567.1719,18.1875 567.8125,18.3594 Q568.4688,18.5156 569.0156,18.875 Z " fill="#000000"/><text fill="#000000" font-family="sans-serif" font-size="14" lengthAdjust="spacing" textLength="195" x="586.75" y="27.8535">ListBookingRequestsController</text><line style="stroke:#181818;stroke-width:0.5;" x1="519" x2="817" y1="39" y2="39"/><line style="stroke:#181818;stroke-width:0.5;" x1="519" x2="817" y1="47" y2="47"/><text fill="#000000" font-family="sans-serif" font-size="14" lengthAdjust="spacing" textLength="134" x="524" y="63.6738">+getAgentLoggedIn()</text><text fill="#000000" font-family="sans-serif" font-size="14" lengthAdjust="spacing" textLength="288" x="524" y="79.3145">+getBookingListSorted(Agent agentLoggedIn,</text><text fill="#000000" font-family="sans-serif" font-size="14" lengthAdjust="spacing" textLength="193" x="528" y="94.9551">Date startDate, Date endDate)</text></g><!--class Repositories--><g id="elem_Repositories"><rect codeLine="19" fill="#F1F1F1" height="94.9219" id="Repositories" rx="2.5" ry="2.5" style="stroke:#181818;stroke-width:0.5;" width="236" x="397" y="178"/><ellipse cx="471.25" cy="194" fill="#ADD1B2" rx="11" ry="11" style="stroke:#181818;stroke-width:1.0;"/><path d="M474.0156,189.875 Q474.1719,189.6563 474.3594,189.5469 Q474.5469,189.4375 474.7656,189.4375 Q475.1406,189.4375 475.375,189.7031 Q475.6094,189.9531 475.6094,190.5625 L475.6094,192.0156 Q475.6094,192.625 475.375,192.8906 Q475.1406,193.1563 474.7656,193.1563 Q474.4219,193.1563 474.2188,192.9531 Q474.0156,192.7656 473.9063,192.25 Q473.8594,191.8906 473.6719,191.7031 Q473.3438,191.3281 472.7344,191.1094 Q472.125,190.8906 471.5,190.8906 Q470.7344,190.8906 470.0938,191.2188 Q469.4688,191.5469 468.9688,192.2969 Q468.4844,193.0469 468.4844,194.0781 L468.4844,195.1719 Q468.4844,196.4063 469.375,197.2344 Q470.2656,198.0469 471.8594,198.0469 Q472.7969,198.0469 473.4531,197.7969 Q473.8438,197.6406 474.2656,197.2031 Q474.5313,196.9375 474.6719,196.8594 Q474.8281,196.7813 475.0313,196.7813 Q475.3594,196.7813 475.6094,197.0469 Q475.875,197.2969 475.875,197.6406 Q475.875,197.9844 475.5313,198.3906 Q475.0313,198.9688 474.2344,199.2969 Q473.1563,199.75 471.8594,199.75 Q470.3438,199.75 469.1406,199.125 Q468.1563,198.625 467.4688,197.5625 Q466.7813,196.4844 466.7813,195.2031 L466.7813,194.0469 Q466.7813,192.7188 467.3906,191.5781 Q468.0156,190.4219 469.1094,189.8125 Q470.2031,189.1875 471.4375,189.1875 Q472.1719,189.1875 472.8125,189.3594 Q473.4688,189.5156 474.0156,189.875 Z " fill="#000000"/><text fill="#000000" font-family="sans-serif" font-size="14" lengthAdjust="spacing" textLength="79" x="491.75" y="198.8535">Repositories</text><line style="stroke:#181818;stroke-width:0.5;" x1="398" x2="632" y1="210" y2="210"/><line style="stroke:#181818;stroke-width:0.5;" x1="398" x2="632" y1="218" y2="218"/><text fill="#000000" font-family="sans-serif" font-size="14" lengthAdjust="spacing" textLength="91" x="403" y="234.6738">+getInstance()</text><text fill="#000000" font-family="sans-serif" font-size="14" lengthAdjust="spacing" textLength="196" x="403" y="250.3145">+getAuthenticationRepository()</text><text fill="#000000" font-family="sans-serif" font-size="14" lengthAdjust="spacing" textLength="224" x="403" y="265.9551">+VisitScheduleRequestRepository()</text></g><!--class AuthenticationRepository--><g id="elem_AuthenticationRepository"><rect codeLine="24" fill="#F1F1F1" height="63.6406" id="AuthenticationRepository" rx="2.5" ry="2.5" style="stroke:#181818;stroke-width:0.5;" width="190" x="440" y="388"/><ellipse cx="455" cy="404" fill="#ADD1B2" rx="11" ry="11" style="stroke:#181818;stroke-width:1.0;"/><path d="M457.7656,399.875 Q457.9219,399.6563 458.1094,399.5469 Q458.2969,399.4375 458.5156,399.4375 Q458.8906,399.4375 459.125,399.7031 Q459.3594,399.9531 459.3594,400.5625 L459.3594,402.0156 Q459.3594,402.625 459.125,402.8906 Q458.8906,403.1563 458.5156,403.1563 Q458.1719,403.1563 457.9688,402.9531 Q457.7656,402.7656 457.6563,402.25 Q457.6094,401.8906 457.4219,401.7031 Q457.0938,401.3281 456.4844,401.1094 Q455.875,400.8906 455.25,400.8906 Q454.4844,400.8906 453.8438,401.2188 Q453.2188,401.5469 452.7188,402.2969 Q452.2344,403.0469 452.2344,404.0781 L452.2344,405.1719 Q452.2344,406.4063 453.125,407.2344 Q454.0156,408.0469 455.6094,408.0469 Q456.5469,408.0469 457.2031,407.7969 Q457.5938,407.6406 458.0156,407.2031 Q458.2813,406.9375 458.4219,406.8594 Q458.5781,406.7813 458.7813,406.7813 Q459.1094,406.7813 459.3594,407.0469 Q459.625,407.2969 459.625,407.6406 Q459.625,407.9844 459.2813,408.3906 Q458.7813,408.9688 457.9844,409.2969 Q456.9063,409.75 455.6094,409.75 Q454.0938,409.75 452.8906,409.125 Q451.9063,408.625 451.2188,407.5625 Q450.5313,406.4844 450.5313,405.2031 L450.5313,404.0469 Q450.5313,402.7188 451.1406,401.5781 Q451.7656,400.4219 452.8594,399.8125 Q453.9531,399.1875 455.1875,399.1875 Q455.9219,399.1875 456.5625,399.3594 Q457.2188,399.5156 457.7656,399.875 Z " fill="#000000"/><text fill="#000000" font-family="sans-serif" font-size="14" lengthAdjust="spacing" textLength="158" x="469" y="408.8535">AuthenticationRepository</text><line style="stroke:#181818;stroke-width:0.5;" x1="441" x2="629" y1="420" y2="420"/><line style="stroke:#181818;stroke-width:0.5;" x1="441" x2="629" y1="428" y2="428"/><text fill="#000000" font-family="sans-serif" font-size="14" lengthAdjust="spacing" textLength="134" x="446" y="444.6738">+getAgentLoggedIn()</text></g><!--class VisitScheduleRequestRepository--><g id="elem_VisitScheduleRequestRepository"><rect codeLine="27" fill="#F1F1F1" height="141.8438" id="VisitScheduleRequestRepository" rx="2.5" ry="2.5" style="stroke:#181818;stroke-width:0.5;" width="398" x="7" y="349"/><ellipse cx="98.75" cy="365" fill="#ADD1B2" rx="11" ry="11" style="stroke:#181818;stroke-width:1.0;"/><path d="M101.5156,360.875 Q101.6719,360.6563 101.8594,360.5469 Q102.0469,360.4375 102.2656,360.4375 Q102.6406,360.4375 102.875,360.7031 Q103.1094,360.9531 103.1094,361.5625 L103.1094,363.0156 Q103.1094,363.625 102.875,363.8906 Q102.6406,364.1563 102.2656,364.1563 Q101.9219,364.1563 101.7188,363.9531 Q101.5156,363.7656 101.4063,363.25 Q101.3594,362.8906 101.1719,362.7031 Q100.8438,362.3281 100.2344,362.1094 Q99.625,361.8906 99,361.8906 Q98.2344,361.8906 97.5938,362.2188 Q96.9688,362.5469 96.4688,363.2969 Q95.9844,364.0469 95.9844,365.0781 L95.9844,366.1719 Q95.9844,367.4063 96.875,368.2344 Q97.7656,369.0469 99.3594,369.0469 Q100.2969,369.0469 100.9531,368.7969 Q101.3438,368.6406 101.7656,368.2031 Q102.0313,367.9375 102.1719,367.8594 Q102.3281,367.7813 102.5313,367.7813 Q102.8594,367.7813 103.1094,368.0469 Q103.375,368.2969 103.375,368.6406 Q103.375,368.9844 103.0313,369.3906 Q102.5313,369.9688 101.7344,370.2969 Q100.6563,370.75 99.3594,370.75 Q97.8438,370.75 96.6406,370.125 Q95.6563,369.625 94.9688,368.5625 Q94.2813,367.4844 94.2813,366.2031 L94.2813,365.0469 Q94.2813,363.7188 94.8906,362.5781 Q95.5156,361.4219 96.6094,360.8125 Q97.7031,360.1875 98.9375,360.1875 Q99.6719,360.1875 100.3125,360.3594 Q100.9688,360.5156 101.5156,360.875 Z " fill="#000000"/><text fill="#000000" font-family="sans-serif" font-size="14" lengthAdjust="spacing" textLength="206" x="119.25" y="369.8535">VisitScheduleRequestRepository</text><line style="stroke:#181818;stroke-width:0.5;" x1="8" x2="404" y1="381" y2="381"/><line style="stroke:#181818;stroke-width:0.5;" x1="8" x2="404" y1="389" y2="389"/><text fill="#000000" font-family="sans-serif" font-size="14" lengthAdjust="spacing" textLength="386" x="13" y="405.6738">+getVisitScheduleRequestListByAgent(Agent agentLoggedIn,</text><text fill="#000000" font-family="sans-serif" font-size="14" lengthAdjust="spacing" textLength="189" x="13" y="421.3145">Date startDate,Date endDate)</text><text fill="#000000" font-family="sans-serif" font-size="14" lengthAdjust="spacing" textLength="290" x="13" y="436.9551">+getListByDate(Date startDate,Date endDate)</text><text fill="#000000" font-family="sans-serif" font-size="14" lengthAdjust="spacing" textLength="256" x="13" y="452.5957">+filterListByAgent(Agent agentLoggedIn)</text><text fill="#000000" font-family="sans-serif" font-size="14" lengthAdjust="spacing" textLength="166" x="13" y="468.2363">+sortByConfigurationFile()</text><text fill="#000000" font-family="sans-serif" font-size="14" lengthAdjust="spacing" textLength="130" x="13" y="483.877">+getSortingMethod()</text></g><!--class SortMethod--><g id="elem_SortMethod"><rect codeLine="34" fill="#F1F1F1" height="63.6406" id="SortMethod" rx="2.5" ry="2.5" style="stroke:#181818;stroke-width:0.5;" width="212" x="100" y="567"/><ellipse cx="165.25" cy="583" fill="#ADD1B2" rx="11" ry="11" style="stroke:#181818;stroke-width:1.0;"/><path d="M168.0156,578.875 Q168.1719,578.6563 168.3594,578.5469 Q168.5469,578.4375 168.7656,578.4375 Q169.1406,578.4375 169.375,578.7031 Q169.6094,578.9531 169.6094,579.5625 L169.6094,581.0156 Q169.6094,581.625 169.375,581.8906 Q169.1406,582.1563 168.7656,582.1563 Q168.4219,582.1563 168.2188,581.9531 Q168.0156,581.7656 167.9063,581.25 Q167.8594,580.8906 167.6719,580.7031 Q167.3438,580.3281 166.7344,580.1094 Q166.125,579.8906 165.5,579.8906 Q164.7344,579.8906 164.0938,580.2188 Q163.4688,580.5469 162.9688,581.2969 Q162.4844,582.0469 162.4844,583.0781 L162.4844,584.1719 Q162.4844,585.4063 163.375,586.2344 Q164.2656,587.0469 165.8594,587.0469 Q166.7969,587.0469 167.4531,586.7969 Q167.8438,586.6406 168.2656,586.2031 Q168.5313,585.9375 168.6719,585.8594 Q168.8281,585.7813 169.0313,585.7813 Q169.3594,585.7813 169.6094,586.0469 Q169.875,586.2969 169.875,586.6406 Q169.875,586.9844 169.5313,587.3906 Q169.0313,587.9688 168.2344,588.2969 Q167.1563,588.75 165.8594,588.75 Q164.3438,588.75 163.1406,588.125 Q162.1563,587.625 161.4688,586.5625 Q160.7813,585.4844 160.7813,584.2031 L160.7813,583.0469 Q160.7813,581.7188 161.3906,580.5781 Q162.0156,579.4219 163.1094,578.8125 Q164.2031,578.1875 165.4375,578.1875 Q166.1719,578.1875 166.8125,578.3594 Q167.4688,578.5156 168.0156,578.875 Z " fill="#000000"/><text fill="#000000" font-family="sans-serif" font-size="14" lengthAdjust="spacing" textLength="73" x="185.75" y="587.8535">SortMethod</text><line style="stroke:#181818;stroke-width:0.5;" x1="101" x2="311" y1="599" y2="599"/><line style="stroke:#181818;stroke-width:0.5;" x1="101" x2="311" y1="607" y2="607"/><text fill="#000000" font-family="sans-serif" font-size="14" lengthAdjust="spacing" textLength="200" x="106" y="623.6738">+sort(visitScheduleRequestList)</text></g><!--class BookingRequestMapper--><g id="elem_BookingRequestMapper"><rect codeLine="37" fill="#F1F1F1" height="63.6406" id="BookingRequestMapper" rx="2.5" ry="2.5" style="stroke:#181818;stroke-width:0.5;" width="230" x="668" y="193.5"/><ellipse cx="703.7" cy="209.5" fill="#ADD1B2" rx="11" ry="11" style="stroke:#181818;stroke-width:1.0;"/><path d="M706.4656,205.375 Q706.6219,205.1563 706.8094,205.0469 Q706.9969,204.9375 707.2156,204.9375 Q707.5906,204.9375 707.825,205.2031 Q708.0594,205.4531 708.0594,206.0625 L708.0594,207.5156 Q708.0594,208.125 707.825,208.3906 Q707.5906,208.6563 707.2156,208.6563 Q706.8719,208.6563 706.6688,208.4531 Q706.4656,208.2656 706.3563,207.75 Q706.3094,207.3906 706.1219,207.2031 Q705.7938,206.8281 705.1844,206.6094 Q704.575,206.3906 703.95,206.3906 Q703.1844,206.3906 702.5438,206.7188 Q701.9188,207.0469 701.4188,207.7969 Q700.9344,208.5469 700.9344,209.5781 L700.9344,210.6719 Q700.9344,211.9063 701.825,212.7344 Q702.7156,213.5469 704.3094,213.5469 Q705.2469,213.5469 705.9031,213.2969 Q706.2938,213.1406 706.7156,212.7031 Q706.9813,212.4375 707.1219,212.3594 Q707.2781,212.2813 707.4813,212.2813 Q707.8094,212.2813 708.0594,212.5469 Q708.325,212.7969 708.325,213.1406 Q708.325,213.4844 707.9813,213.8906 Q707.4813,214.4688 706.6844,214.7969 Q705.6063,215.25 704.3094,215.25 Q702.7938,215.25 701.5906,214.625 Q700.6063,214.125 699.9188,213.0625 Q699.2313,211.9844 699.2313,210.7031 L699.2313,209.5469 Q699.2313,208.2188 699.8406,207.0781 Q700.4656,205.9219 701.5594,205.3125 Q702.6531,204.6875 703.8875,204.6875 Q704.6219,204.6875 705.2625,204.8594 Q705.9188,205.0156 706.4656,205.375 Z " fill="#000000"/><text fill="#000000" font-family="sans-serif" font-size="14" lengthAdjust="spacing" textLength="152" x="722.3" y="214.3535">BookingRequestMapper</text><line style="stroke:#181818;stroke-width:0.5;" x1="669" x2="897" y1="225.5" y2="225.5"/><line style="stroke:#181818;stroke-width:0.5;" x1="669" x2="897" y1="233.5" y2="233.5"/><text fill="#000000" font-family="sans-serif" font-size="14" lengthAdjust="spacing" textLength="218" x="674" y="250.1738">+toDTO(visitScheduleRequestList)</text></g><!--class VisitScheduleRequestListDTO--><g id="elem_VisitScheduleRequestListDTO"><rect codeLine="42" fill="#F1F1F1" height="63.6406" id="VisitScheduleRequestListDTO" rx="2.5" ry="2.5" style="stroke:#181818;stroke-width:0.5;" width="222" x="665" y="388"/><ellipse cx="680" cy="404" fill="#ADD1B2" rx="11" ry="11" style="stroke:#181818;stroke-width:1.0;"/><path d="M682.7656,399.875 Q682.9219,399.6563 683.1094,399.5469 Q683.2969,399.4375 683.5156,399.4375 Q683.8906,399.4375 684.125,399.7031 Q684.3594,399.9531 684.3594,400.5625 L684.3594,402.0156 Q684.3594,402.625 684.125,402.8906 Q683.8906,403.1563 683.5156,403.1563 Q683.1719,403.1563 682.9688,402.9531 Q682.7656,402.7656 682.6563,402.25 Q682.6094,401.8906 682.4219,401.7031 Q682.0938,401.3281 681.4844,401.1094 Q680.875,400.8906 680.25,400.8906 Q679.4844,400.8906 678.8438,401.2188 Q678.2188,401.5469 677.7188,402.2969 Q677.2344,403.0469 677.2344,404.0781 L677.2344,405.1719 Q677.2344,406.4063 678.125,407.2344 Q679.0156,408.0469 680.6094,408.0469 Q681.5469,408.0469 682.2031,407.7969 Q682.5938,407.6406 683.0156,407.2031 Q683.2813,406.9375 683.4219,406.8594 Q683.5781,406.7813 683.7813,406.7813 Q684.1094,406.7813 684.3594,407.0469 Q684.625,407.2969 684.625,407.6406 Q684.625,407.9844 684.2813,408.3906 Q683.7813,408.9688 682.9844,409.2969 Q681.9063,409.75 680.6094,409.75 Q679.0938,409.75 677.8906,409.125 Q676.9063,408.625 676.2188,407.5625 Q675.5313,406.4844 675.5313,405.2031 L675.5313,404.0469 Q675.5313,402.7188 676.1406,401.5781 Q676.7656,400.4219 677.8594,399.8125 Q678.9531,399.1875 680.1875,399.1875 Q680.9219,399.1875 681.5625,399.3594 Q682.2188,399.5156 682.7656,399.875 Z " fill="#000000"/><text fill="#000000" font-family="sans-serif" font-size="14" lengthAdjust="spacing" textLength="190" x="694" y="408.8535">VisitScheduleRequestListDTO</text><line style="stroke:#181818;stroke-width:0.5;" x1="666" x2="886" y1="420" y2="420"/><line style="stroke:#181818;stroke-width:0.5;" x1="666" x2="886" y1="428" y2="428"/><text fill="#000000" font-family="sans-serif" font-size="14" lengthAdjust="spacing" textLength="208" x="671" y="444.6738">+add(visitScheduleRequestDTO)</text></g><!--class VisitScheduleRequestDTO--><g id="elem_VisitScheduleRequestDTO"><rect codeLine="46" fill="#F1F1F1" height="63.6406" id="VisitScheduleRequestDTO" rx="2.5" ry="2.5" style="stroke:#181818;stroke-width:0.5;" width="236" x="922" y="388"/><ellipse cx="953.2" cy="404" fill="#ADD1B2" rx="11" ry="11" style="stroke:#181818;stroke-width:1.0;"/><path d="M955.9656,399.875 Q956.1219,399.6563 956.3094,399.5469 Q956.4969,399.4375 956.7156,399.4375 Q957.0906,399.4375 957.325,399.7031 Q957.5594,399.9531 957.5594,400.5625 L957.5594,402.0156 Q957.5594,402.625 957.325,402.8906 Q957.0906,403.1563 956.7156,403.1563 Q956.3719,403.1563 956.1688,402.9531 Q955.9656,402.7656 955.8563,402.25 Q955.8094,401.8906 955.6219,401.7031 Q955.2938,401.3281 954.6844,401.1094 Q954.075,400.8906 953.45,400.8906 Q952.6844,400.8906 952.0438,401.2188 Q951.4188,401.5469 950.9188,402.2969 Q950.4344,403.0469 950.4344,404.0781 L950.4344,405.1719 Q950.4344,406.4063 951.325,407.2344 Q952.2156,408.0469 953.8094,408.0469 Q954.7469,408.0469 955.4031,407.7969 Q955.7938,407.6406 956.2156,407.2031 Q956.4813,406.9375 956.6219,406.8594 Q956.7781,406.7813 956.9813,406.7813 Q957.3094,406.7813 957.5594,407.0469 Q957.825,407.2969 957.825,407.6406 Q957.825,407.9844 957.4813,408.3906 Q956.9813,408.9688 956.1844,409.2969 Q955.1063,409.75 953.8094,409.75 Q952.2938,409.75 951.0906,409.125 Q950.1063,408.625 949.4188,407.5625 Q948.7313,406.4844 948.7313,405.2031 L948.7313,404.0469 Q948.7313,402.7188 949.3406,401.5781 Q949.9656,400.4219 951.0594,399.8125 Q952.1531,399.1875 953.3875,399.1875 Q954.1219,399.1875 954.7625,399.3594 Q955.4188,399.5156 955.9656,399.875 Z " fill="#000000"/><text fill="#000000" font-family="sans-serif" font-size="14" lengthAdjust="spacing" textLength="168" x="970.8" y="408.8535">VisitScheduleRequestDTO</text><line style="stroke:#181818;stroke-width:0.5;" x1="923" x2="1157" y1="420" y2="420"/><line style="stroke:#181818;stroke-width:0.5;" x1="923" x2="1157" y1="428" y2="428"/><text fill="#000000" font-family="sans-serif" font-size="14" lengthAdjust="spacing" textLength="224" x="928" y="444.6738">+create(visitScheduleRequestDTO)</text></g><!--class Employee--><g id="elem_Employee"><rect codeLine="49" fill="#F1F1F1" height="48" id="Employee" rx="2.5" ry="2.5" style="stroke:#181818;stroke-width:0.5;" width="94" x="1042" y="575"/><ellipse cx="1057" cy="591" fill="#ADD1B2" rx="11" ry="11" style="stroke:#181818;stroke-width:1.0;"/><path d="M1059.7656,586.875 Q1059.9219,586.6563 1060.1094,586.5469 Q1060.2969,586.4375 1060.5156,586.4375 Q1060.8906,586.4375 1061.125,586.7031 Q1061.3594,586.9531 1061.3594,587.5625 L1061.3594,589.0156 Q1061.3594,589.625 1061.125,589.8906 Q1060.8906,590.1563 1060.5156,590.1563 Q1060.1719,590.1563 1059.9688,589.9531 Q1059.7656,589.7656 1059.6563,589.25 Q1059.6094,588.8906 1059.4219,588.7031 Q1059.0938,588.3281 1058.4844,588.1094 Q1057.875,587.8906 1057.25,587.8906 Q1056.4844,587.8906 1055.8438,588.2188 Q1055.2188,588.5469 1054.7188,589.2969 Q1054.2344,590.0469 1054.2344,591.0781 L1054.2344,592.1719 Q1054.2344,593.4063 1055.125,594.2344 Q1056.0156,595.0469 1057.6094,595.0469 Q1058.5469,595.0469 1059.2031,594.7969 Q1059.5938,594.6406 1060.0156,594.2031 Q1060.2813,593.9375 1060.4219,593.8594 Q1060.5781,593.7813 1060.7813,593.7813 Q1061.1094,593.7813 1061.3594,594.0469 Q1061.625,594.2969 1061.625,594.6406 Q1061.625,594.9844 1061.2813,595.3906 Q1060.7813,595.9688 1059.9844,596.2969 Q1058.9063,596.75 1057.6094,596.75 Q1056.0938,596.75 1054.8906,596.125 Q1053.9063,595.625 1053.2188,594.5625 Q1052.5313,593.4844 1052.5313,592.2031 L1052.5313,591.0469 Q1052.5313,589.7188 1053.1406,588.5781 Q1053.7656,587.4219 1054.8594,586.8125 Q1055.9531,586.1875 1057.1875,586.1875 Q1057.9219,586.1875 1058.5625,586.3594 Q1059.2188,586.5156 1059.7656,586.875 Z " fill="#000000"/><text fill="#000000" font-family="sans-serif" font-size="14" lengthAdjust="spacing" textLength="62" x="1071" y="595.8535">Employee</text><line style="stroke:#181818;stroke-width:0.5;" x1="1043" x2="1135" y1="607" y2="607"/><line style="stroke:#181818;stroke-width:0.5;" x1="1043" x2="1135" y1="615" y2="615"/></g><!--class VisitScheduleRequest--><g id="elem_VisitScheduleRequest"><rect codeLine="50" fill="#F1F1F1" height="48" id="VisitScheduleRequest" rx="2.5" ry="2.5" style="stroke:#181818;stroke-width:0.5;" width="170" x="837" y="575"/><ellipse cx="852" cy="591" fill="#ADD1B2" rx="11" ry="11" style="stroke:#181818;stroke-width:1.0;"/><path d="M854.7656,586.875 Q854.9219,586.6563 855.1094,586.5469 Q855.2969,586.4375 855.5156,586.4375 Q855.8906,586.4375 856.125,586.7031 Q856.3594,586.9531 856.3594,587.5625 L856.3594,589.0156 Q856.3594,589.625 856.125,589.8906 Q855.8906,590.1563 855.5156,590.1563 Q855.1719,590.1563 854.9688,589.9531 Q854.7656,589.7656 854.6563,589.25 Q854.6094,588.8906 854.4219,588.7031 Q854.0938,588.3281 853.4844,588.1094 Q852.875,587.8906 852.25,587.8906 Q851.4844,587.8906 850.8438,588.2188 Q850.2188,588.5469 849.7188,589.2969 Q849.2344,590.0469 849.2344,591.0781 L849.2344,592.1719 Q849.2344,593.4063 850.125,594.2344 Q851.0156,595.0469 852.6094,595.0469 Q853.5469,595.0469 854.2031,594.7969 Q854.5938,594.6406 855.0156,594.2031 Q855.2813,593.9375 855.4219,593.8594 Q855.5781,593.7813 855.7813,593.7813 Q856.1094,593.7813 856.3594,594.0469 Q856.625,594.2969 856.625,594.6406 Q856.625,594.9844 856.2813,595.3906 Q855.7813,595.9688 854.9844,596.2969 Q853.9063,596.75 852.6094,596.75 Q851.0938,596.75 849.8906,596.125 Q848.9063,595.625 848.2188,594.5625 Q847.5313,593.4844 847.5313,592.2031 L847.5313,591.0469 Q847.5313,589.7188 848.1406,588.5781 Q848.7656,587.4219 849.8594,586.8125 Q850.9531,586.1875 852.1875,586.1875 Q852.9219,586.1875 853.5625,586.3594 Q854.2188,586.5156 854.7656,586.875 Z " fill="#000000"/><text fill="#000000" font-family="sans-serif" font-size="14" lengthAdjust="spacing" textLength="138" x="866" y="595.8535">VisitScheduleRequest</text><line style="stroke:#181818;stroke-width:0.5;" x1="838" x2="1006" y1="607" y2="607"/><line style="stroke:#181818;stroke-width:0.5;" x1="838" x2="1006" y1="615" y2="615"/></g><!--class Property--><g id="elem_Property"><rect codeLine="51" fill="#F1F1F1" height="110.5625" id="Property" rx="2.5" ry="2.5" style="stroke:#181818;stroke-width:0.5;" width="130" x="1195" y="707"/><ellipse cx="1229.8" cy="723" fill="#ADD1B2" rx="11" ry="11" style="stroke:#181818;stroke-width:1.0;"/><path d="M1232.5656,718.875 Q1232.7219,718.6563 1232.9094,718.5469 Q1233.0969,718.4375 1233.3156,718.4375 Q1233.6906,718.4375 1233.925,718.7031 Q1234.1594,718.9531 1234.1594,719.5625 L1234.1594,721.0156 Q1234.1594,721.625 1233.925,721.8906 Q1233.6906,722.1563 1233.3156,722.1563 Q1232.9719,722.1563 1232.7688,721.9531 Q1232.5656,721.7656 1232.4563,721.25 Q1232.4094,720.8906 1232.2219,720.7031 Q1231.8938,720.3281 1231.2844,720.1094 Q1230.675,719.8906 1230.05,719.8906 Q1229.2844,719.8906 1228.6438,720.2188 Q1228.0188,720.5469 1227.5188,721.2969 Q1227.0344,722.0469 1227.0344,723.0781 L1227.0344,724.1719 Q1227.0344,725.4063 1227.925,726.2344 Q1228.8156,727.0469 1230.4094,727.0469 Q1231.3469,727.0469 1232.0031,726.7969 Q1232.3938,726.6406 1232.8156,726.2031 Q1233.0813,725.9375 1233.2219,725.8594 Q1233.3781,725.7813 1233.5813,725.7813 Q1233.9094,725.7813 1234.1594,726.0469 Q1234.425,726.2969 1234.425,726.6406 Q1234.425,726.9844 1234.0813,727.3906 Q1233.5813,727.9688 1232.7844,728.2969 Q1231.7063,728.75 1230.4094,728.75 Q1228.8938,728.75 1227.6906,728.125 Q1226.7063,727.625 1226.0188,726.5625 Q1225.3313,725.4844 1225.3313,724.2031 L1225.3313,723.0469 Q1225.3313,721.7188 1225.9406,720.5781 Q1226.5656,719.4219 1227.6594,718.8125 Q1228.7531,718.1875 1229.9875,718.1875 Q1230.7219,718.1875 1231.3625,718.3594 Q1232.0188,718.5156 1232.5656,718.875 Z " fill="#000000"/><text fill="#000000" font-family="sans-serif" font-size="14" lengthAdjust="spacing" textLength="54" x="1248.2" y="727.8535">Property</text><line style="stroke:#181818;stroke-width:0.5;" x1="1196" x2="1324" y1="739" y2="739"/><text fill="#000000" font-family="sans-serif" font-size="14" lengthAdjust="spacing" textLength="53" x="1201" y="755.6738">-int area</text><text fill="#000000" font-family="sans-serif" font-size="14" lengthAdjust="spacing" textLength="88" x="1201" y="771.3145">-int cityCenter</text><text fill="#000000" font-family="sans-serif" font-size="14" lengthAdjust="spacing" textLength="55" x="1201" y="786.9551">-int price</text><text fill="#000000" font-family="sans-serif" font-size="14" lengthAdjust="spacing" textLength="118" x="1201" y="802.5957">-String ownerEmail</text><line style="stroke:#181818;stroke-width:0.5;" x1="1196" x2="1324" y1="809.5625" y2="809.5625"/></g><!--class Client--><g id="elem_Client"><rect codeLine="57" fill="#F1F1F1" height="48" id="Client" rx="2.5" ry="2.5" style="stroke:#181818;stroke-width:0.5;" width="68" x="1021" y="738.5"/><ellipse cx="1036" cy="754.5" fill="#ADD1B2" rx="11" ry="11" style="stroke:#181818;stroke-width:1.0;"/><path d="M1038.7656,750.375 Q1038.9219,750.1563 1039.1094,750.0469 Q1039.2969,749.9375 1039.5156,749.9375 Q1039.8906,749.9375 1040.125,750.2031 Q1040.3594,750.4531 1040.3594,751.0625 L1040.3594,752.5156 Q1040.3594,753.125 1040.125,753.3906 Q1039.8906,753.6563 1039.5156,753.6563 Q1039.1719,753.6563 1038.9688,753.4531 Q1038.7656,753.2656 1038.6563,752.75 Q1038.6094,752.3906 1038.4219,752.2031 Q1038.0938,751.8281 1037.4844,751.6094 Q1036.875,751.3906 1036.25,751.3906 Q1035.4844,751.3906 1034.8438,751.7188 Q1034.2188,752.0469 1033.7188,752.7969 Q1033.2344,753.5469 1033.2344,754.5781 L1033.2344,755.6719 Q1033.2344,756.9063 1034.125,757.7344 Q1035.0156,758.5469 1036.6094,758.5469 Q1037.5469,758.5469 1038.2031,758.2969 Q1038.5938,758.1406 1039.0156,757.7031 Q1039.2813,757.4375 1039.4219,757.3594 Q1039.5781,757.2813 1039.7813,757.2813 Q1040.1094,757.2813 1040.3594,757.5469 Q1040.625,757.7969 1040.625,758.1406 Q1040.625,758.4844 1040.2813,758.8906 Q1039.7813,759.4688 1038.9844,759.7969 Q1037.9063,760.25 1036.6094,760.25 Q1035.0938,760.25 1033.8906,759.625 Q1032.9063,759.125 1032.2188,758.0625 Q1031.5313,756.9844 1031.5313,755.7031 L1031.5313,754.5469 Q1031.5313,753.2188 1032.1406,752.0781 Q1032.7656,750.9219 1033.8594,750.3125 Q1034.9531,749.6875 1036.1875,749.6875 Q1036.9219,749.6875 1037.5625,749.8594 Q1038.2188,750.0156 1038.7656,750.375 Z " fill="#000000"/><text fill="#000000" font-family="sans-serif" font-size="14" lengthAdjust="spacing" textLength="36" x="1050" y="759.3535">Client</text><line style="stroke:#181818;stroke-width:0.5;" x1="1022" x2="1088" y1="770.5" y2="770.5"/><line style="stroke:#181818;stroke-width:0.5;" x1="1022" x2="1088" y1="778.5" y2="778.5"/></g><!--class Owner--><g id="elem_Owner"><rect codeLine="60" fill="#F1F1F1" height="48" id="Owner" rx="2.5" ry="2.5" style="stroke:#181818;stroke-width:0.5;" width="73" x="1242.5" y="575"/><ellipse cx="1257.5" cy="591" fill="#ADD1B2" rx="11" ry="11" style="stroke:#181818;stroke-width:1.0;"/><path d="M1260.2656,586.875 Q1260.4219,586.6563 1260.6094,586.5469 Q1260.7969,586.4375 1261.0156,586.4375 Q1261.3906,586.4375 1261.625,586.7031 Q1261.8594,586.9531 1261.8594,587.5625 L1261.8594,589.0156 Q1261.8594,589.625 1261.625,589.8906 Q1261.3906,590.1563 1261.0156,590.1563 Q1260.6719,590.1563 1260.4688,589.9531 Q1260.2656,589.7656 1260.1563,589.25 Q1260.1094,588.8906 1259.9219,588.7031 Q1259.5938,588.3281 1258.9844,588.1094 Q1258.375,587.8906 1257.75,587.8906 Q1256.9844,587.8906 1256.3438,588.2188 Q1255.7188,588.5469 1255.2188,589.2969 Q1254.7344,590.0469 1254.7344,591.0781 L1254.7344,592.1719 Q1254.7344,593.4063 1255.625,594.2344 Q1256.5156,595.0469 1258.1094,595.0469 Q1259.0469,595.0469 1259.7031,594.7969 Q1260.0938,594.6406 1260.5156,594.2031 Q1260.7813,593.9375 1260.9219,593.8594 Q1261.0781,593.7813 1261.2813,593.7813 Q1261.6094,593.7813 1261.8594,594.0469 Q1262.125,594.2969 1262.125,594.6406 Q1262.125,594.9844 1261.7813,595.3906 Q1261.2813,595.9688 1260.4844,596.2969 Q1259.4063,596.75 1258.1094,596.75 Q1256.5938,596.75 1255.3906,596.125 Q1254.4063,595.625 1253.7188,594.5625 Q1253.0313,593.4844 1253.0313,592.2031 L1253.0313,591.0469 Q1253.0313,589.7188 1253.6406,588.5781 Q1254.2656,587.4219 1255.3594,586.8125 Q1256.4531,586.1875 1257.6875,586.1875 Q1258.4219,586.1875 1259.0625,586.3594 Q1259.7188,586.5156 1260.2656,586.875 Z " fill="#000000"/><text fill="#000000" font-family="sans-serif" font-size="14" lengthAdjust="spacing" textLength="41" x="1271.5" y="595.8535">Owner</text><line style="stroke:#181818;stroke-width:0.5;" x1="1243.5" x2="1314.5" y1="607" y2="607"/><line style="stroke:#181818;stroke-width:0.5;" x1="1243.5" x2="1314.5" y1="615" y2="615"/></g><!--class PropertyType--><g id="elem_PropertyType"><rect codeLine="63" fill="#F1F1F1" height="63.6406" id="PropertyType" rx="2.5" ry="2.5" style="stroke:#181818;stroke-width:0.5;" width="121" x="1550.5" y="925"/><ellipse cx="1566.85" cy="941" fill="#ADD1B2" rx="11" ry="11" style="stroke:#181818;stroke-width:1.0;"/><path d="M1569.6156,936.875 Q1569.7719,936.6563 1569.9594,936.5469 Q1570.1469,936.4375 1570.3656,936.4375 Q1570.7406,936.4375 1570.975,936.7031 Q1571.2094,936.9531 1571.2094,937.5625 L1571.2094,939.0156 Q1571.2094,939.625 1570.975,939.8906 Q1570.7406,940.1563 1570.3656,940.1563 Q1570.0219,940.1563 1569.8188,939.9531 Q1569.6156,939.7656 1569.5063,939.25 Q1569.4594,938.8906 1569.2719,938.7031 Q1568.9438,938.3281 1568.3344,938.1094 Q1567.725,937.8906 1567.1,937.8906 Q1566.3344,937.8906 1565.6938,938.2188 Q1565.0688,938.5469 1564.5688,939.2969 Q1564.0844,940.0469 1564.0844,941.0781 L1564.0844,942.1719 Q1564.0844,943.4063 1564.975,944.2344 Q1565.8656,945.0469 1567.4594,945.0469 Q1568.3969,945.0469 1569.0531,944.7969 Q1569.4438,944.6406 1569.8656,944.2031 Q1570.1313,943.9375 1570.2719,943.8594 Q1570.4281,943.7813 1570.6313,943.7813 Q1570.9594,943.7813 1571.2094,944.0469 Q1571.475,944.2969 1571.475,944.6406 Q1571.475,944.9844 1571.1313,945.3906 Q1570.6313,945.9688 1569.8344,946.2969 Q1568.7563,946.75 1567.4594,946.75 Q1565.9438,946.75 1564.7406,946.125 Q1563.7563,945.625 1563.0688,944.5625 Q1562.3813,943.4844 1562.3813,942.2031 L1562.3813,941.0469 Q1562.3813,939.7188 1562.9906,938.5781 Q1563.6156,937.4219 1564.7094,936.8125 Q1565.8031,936.1875 1567.0375,936.1875 Q1567.7719,936.1875 1568.4125,936.3594 Q1569.0688,936.5156 1569.6156,936.875 Z " fill="#000000"/><text fill="#000000" font-family="sans-serif" font-size="14" lengthAdjust="spacing" textLength="86" x="1581.15" y="945.8535">PropertyType</text><line style="stroke:#181818;stroke-width:0.5;" x1="1551.5" x2="1670.5" y1="957" y2="957"/><text fill="#000000" font-family="sans-serif" font-size="14" lengthAdjust="spacing" textLength="109" x="1556.5" y="973.6738">-int propertyType</text><line style="stroke:#181818;stroke-width:0.5;" x1="1551.5" x2="1670.5" y1="980.6406" y2="980.6406"/></g><!--class Address--><g id="elem_Address"><rect codeLine="67" fill="#F1F1F1" height="126.2031" id="Address" rx="2.5" ry="2.5" style="stroke:#181818;stroke-width:0.5;" width="89" x="1030.5" y="894"/><ellipse cx="1047.75" cy="910" fill="#ADD1B2" rx="11" ry="11" style="stroke:#181818;stroke-width:1.0;"/><path d="M1050.5156,905.875 Q1050.6719,905.6563 1050.8594,905.5469 Q1051.0469,905.4375 1051.2656,905.4375 Q1051.6406,905.4375 1051.875,905.7031 Q1052.1094,905.9531 1052.1094,906.5625 L1052.1094,908.0156 Q1052.1094,908.625 1051.875,908.8906 Q1051.6406,909.1563 1051.2656,909.1563 Q1050.9219,909.1563 1050.7188,908.9531 Q1050.5156,908.7656 1050.4063,908.25 Q1050.3594,907.8906 1050.1719,907.7031 Q1049.8438,907.3281 1049.2344,907.1094 Q1048.625,906.8906 1048,906.8906 Q1047.2344,906.8906 1046.5938,907.2188 Q1045.9688,907.5469 1045.4688,908.2969 Q1044.9844,909.0469 1044.9844,910.0781 L1044.9844,911.1719 Q1044.9844,912.4063 1045.875,913.2344 Q1046.7656,914.0469 1048.3594,914.0469 Q1049.2969,914.0469 1049.9531,913.7969 Q1050.3438,913.6406 1050.7656,913.2031 Q1051.0313,912.9375 1051.1719,912.8594 Q1051.3281,912.7813 1051.5313,912.7813 Q1051.8594,912.7813 1052.1094,913.0469 Q1052.375,913.2969 1052.375,913.6406 Q1052.375,913.9844 1052.0313,914.3906 Q1051.5313,914.9688 1050.7344,915.2969 Q1049.6563,915.75 1048.3594,915.75 Q1046.8438,915.75 1045.6406,915.125 Q1044.6563,914.625 1043.9688,913.5625 Q1043.2813,912.4844 1043.2813,911.2031 L1043.2813,910.0469 Q1043.2813,908.7188 1043.8906,907.5781 Q1044.5156,906.4219 1045.6094,905.8125 Q1046.7031,905.1875 1047.9375,905.1875 Q1048.6719,905.1875 1049.3125,905.3594 Q1049.9688,905.5156 1050.5156,905.875 Z " fill="#000000"/><text fill="#000000" font-family="sans-serif" font-size="14" lengthAdjust="spacing" textLength="52" x="1062.25" y="914.8535">Address</text><line style="stroke:#181818;stroke-width:0.5;" x1="1031.5" x2="1118.5" y1="926" y2="926"/><text fill="#000000" font-family="sans-serif" font-size="14" lengthAdjust="spacing" textLength="65" x="1036.5" y="942.6738">-int district</text><text fill="#000000" font-family="sans-serif" font-size="14" lengthAdjust="spacing" textLength="55" x="1036.5" y="958.3145">-int state</text><text fill="#000000" font-family="sans-serif" font-size="14" lengthAdjust="spacing" textLength="45" x="1036.5" y="973.9551">-int city</text><text fill="#000000" font-family="sans-serif" font-size="14" lengthAdjust="spacing" textLength="60" x="1036.5" y="989.5957">-int street</text><text fill="#000000" font-family="sans-serif" font-size="14" lengthAdjust="spacing" textLength="77" x="1036.5" y="1005.2363">-int zip-code</text><line style="stroke:#181818;stroke-width:0.5;" x1="1031.5" x2="1118.5" y1="1012.2031" y2="1012.2031"/></g><!--class Photograph--><g id="elem_Photograph"><rect codeLine="75" fill="#F1F1F1" height="63.6406" id="Photograph" rx="2.5" ry="2.5" style="stroke:#181818;stroke-width:0.5;" width="157" x="1164.5" y="925"/><ellipse cx="1202.45" cy="941" fill="#ADD1B2" rx="11" ry="11" style="stroke:#181818;stroke-width:1.0;"/><path d="M1205.2156,936.875 Q1205.3719,936.6563 1205.5594,936.5469 Q1205.7469,936.4375 1205.9656,936.4375 Q1206.3406,936.4375 1206.575,936.7031 Q1206.8094,936.9531 1206.8094,937.5625 L1206.8094,939.0156 Q1206.8094,939.625 1206.575,939.8906 Q1206.3406,940.1563 1205.9656,940.1563 Q1205.6219,940.1563 1205.4188,939.9531 Q1205.2156,939.7656 1205.1063,939.25 Q1205.0594,938.8906 1204.8719,938.7031 Q1204.5438,938.3281 1203.9344,938.1094 Q1203.325,937.8906 1202.7,937.8906 Q1201.9344,937.8906 1201.2938,938.2188 Q1200.6688,938.5469 1200.1688,939.2969 Q1199.6844,940.0469 1199.6844,941.0781 L1199.6844,942.1719 Q1199.6844,943.4063 1200.575,944.2344 Q1201.4656,945.0469 1203.0594,945.0469 Q1203.9969,945.0469 1204.6531,944.7969 Q1205.0438,944.6406 1205.4656,944.2031 Q1205.7313,943.9375 1205.8719,943.8594 Q1206.0281,943.7813 1206.2313,943.7813 Q1206.5594,943.7813 1206.8094,944.0469 Q1207.075,944.2969 1207.075,944.6406 Q1207.075,944.9844 1206.7313,945.3906 Q1206.2313,945.9688 1205.4344,946.2969 Q1204.3563,946.75 1203.0594,946.75 Q1201.5438,946.75 1200.3406,946.125 Q1199.3563,945.625 1198.6688,944.5625 Q1197.9813,943.4844 1197.9813,942.2031 L1197.9813,941.0469 Q1197.9813,939.7188 1198.5906,938.5781 Q1199.2156,937.4219 1200.3094,936.8125 Q1201.4031,936.1875 1202.6375,936.1875 Q1203.3719,936.1875 1204.0125,936.3594 Q1204.6688,936.5156 1205.2156,936.875 Z " fill="#000000"/><text fill="#000000" font-family="sans-serif" font-size="14" lengthAdjust="spacing" textLength="74" x="1221.55" y="945.8535">Photograph</text><line style="stroke:#181818;stroke-width:0.5;" x1="1165.5" x2="1320.5" y1="957" y2="957"/><text fill="#000000" font-family="sans-serif" font-size="14" lengthAdjust="spacing" textLength="145" x="1170.5" y="973.6738">-String photographLink</text><line style="stroke:#181818;stroke-width:0.5;" x1="1165.5" x2="1320.5" y1="980.6406" y2="980.6406"/></g><!--class Equipment--><g id="elem_Equipment"><rect codeLine="79" fill="#F1F1F1" height="79.2813" id="Equipment" rx="2.5" ry="2.5" style="stroke:#181818;stroke-width:0.5;" width="170" x="1249" y="1104"/><ellipse cx="1296.25" cy="1120" fill="#ADD1B2" rx="11" ry="11" style="stroke:#181818;stroke-width:1.0;"/><path d="M1299.0156,1115.875 Q1299.1719,1115.6563 1299.3594,1115.5469 Q1299.5469,1115.4375 1299.7656,1115.4375 Q1300.1406,1115.4375 1300.375,1115.7031 Q1300.6094,1115.9531 1300.6094,1116.5625 L1300.6094,1118.0156 Q1300.6094,1118.625 1300.375,1118.8906 Q1300.1406,1119.1563 1299.7656,1119.1563 Q1299.4219,1119.1563 1299.2188,1118.9531 Q1299.0156,1118.7656 1298.9063,1118.25 Q1298.8594,1117.8906 1298.6719,1117.7031 Q1298.3438,1117.3281 1297.7344,1117.1094 Q1297.125,1116.8906 1296.5,1116.8906 Q1295.7344,1116.8906 1295.0938,1117.2188 Q1294.4688,1117.5469 1293.9688,1118.2969 Q1293.4844,1119.0469 1293.4844,1120.0781 L1293.4844,1121.1719 Q1293.4844,1122.4063 1294.375,1123.2344 Q1295.2656,1124.0469 1296.8594,1124.0469 Q1297.7969,1124.0469 1298.4531,1123.7969 Q1298.8438,1123.6406 1299.2656,1123.2031 Q1299.5313,1122.9375 1299.6719,1122.8594 Q1299.8281,1122.7813 1300.0313,1122.7813 Q1300.3594,1122.7813 1300.6094,1123.0469 Q1300.875,1123.2969 1300.875,1123.6406 Q1300.875,1123.9844 1300.5313,1124.3906 Q1300.0313,1124.9688 1299.2344,1125.2969 Q1298.1563,1125.75 1296.8594,1125.75 Q1295.3438,1125.75 1294.1406,1125.125 Q1293.1563,1124.625 1292.4688,1123.5625 Q1291.7813,1122.4844 1291.7813,1121.2031 L1291.7813,1120.0469 Q1291.7813,1118.7188 1292.3906,1117.5781 Q1293.0156,1116.4219 1294.1094,1115.8125 Q1295.2031,1115.1875 1296.4375,1115.1875 Q1297.1719,1115.1875 1297.8125,1115.3594 Q1298.4688,1115.5156 1299.0156,1115.875 Z " fill="#000000"/><text fill="#000000" font-family="sans-serif" font-size="14" lengthAdjust="spacing" textLength="67" x="1316.75" y="1124.8535">Equipment</text><line style="stroke:#181818;stroke-width:0.5;" x1="1250" x2="1418" y1="1136" y2="1136"/><text fill="#000000" font-family="sans-serif" font-size="14" lengthAdjust="spacing" textLength="125" x="1255" y="1152.6738">-int numEquipments</text><text fill="#000000" font-family="sans-serif" font-size="14" lengthAdjust="spacing" textLength="158" x="1255" y="1168.3145">-List&lt;String&gt; Equipments</text><line style="stroke:#181818;stroke-width:0.5;" x1="1250" x2="1418" y1="1175.2813" y2="1175.2813"/></g><!--class Dwelling--><g id="elem_Dwelling"><rect codeLine="84" fill="#F1F1F1" height="94.9219" id="Dwelling" rx="2.5" ry="2.5" style="stroke:#181818;stroke-width:0.5;" width="158" x="1357" y="909.5"/><ellipse cx="1405.75" cy="925.5" fill="#ADD1B2" rx="11" ry="11" style="stroke:#181818;stroke-width:1.0;"/><path d="M1408.5156,921.375 Q1408.6719,921.1563 1408.8594,921.0469 Q1409.0469,920.9375 1409.2656,920.9375 Q1409.6406,920.9375 1409.875,921.2031 Q1410.1094,921.4531 1410.1094,922.0625 L1410.1094,923.5156 Q1410.1094,924.125 1409.875,924.3906 Q1409.6406,924.6563 1409.2656,924.6563 Q1408.9219,924.6563 1408.7188,924.4531 Q1408.5156,924.2656 1408.4063,923.75 Q1408.3594,923.3906 1408.1719,923.2031 Q1407.8438,922.8281 1407.2344,922.6094 Q1406.625,922.3906 1406,922.3906 Q1405.2344,922.3906 1404.5938,922.7188 Q1403.9688,923.0469 1403.4688,923.7969 Q1402.9844,924.5469 1402.9844,925.5781 L1402.9844,926.6719 Q1402.9844,927.9063 1403.875,928.7344 Q1404.7656,929.5469 1406.3594,929.5469 Q1407.2969,929.5469 1407.9531,929.2969 Q1408.3438,929.1406 1408.7656,928.7031 Q1409.0313,928.4375 1409.1719,928.3594 Q1409.3281,928.2813 1409.5313,928.2813 Q1409.8594,928.2813 1410.1094,928.5469 Q1410.375,928.7969 1410.375,929.1406 Q1410.375,929.4844 1410.0313,929.8906 Q1409.5313,930.4688 1408.7344,930.7969 Q1407.6563,931.25 1406.3594,931.25 Q1404.8438,931.25 1403.6406,930.625 Q1402.6563,930.125 1401.9688,929.0625 Q1401.2813,927.9844 1401.2813,926.7031 L1401.2813,925.5469 Q1401.2813,924.2188 1401.8906,923.0781 Q1402.5156,921.9219 1403.6094,921.3125 Q1404.7031,920.6875 1405.9375,920.6875 Q1406.6719,920.6875 1407.3125,920.8594 Q1407.9688,921.0156 1408.5156,921.375 Z " fill="#000000"/><text fill="#000000" font-family="sans-serif" font-size="14" lengthAdjust="spacing" textLength="52" x="1426.25" y="930.3535">Dwelling</text><line style="stroke:#181818;stroke-width:0.5;" x1="1358" x2="1514" y1="941.5" y2="941.5"/><text fill="#000000" font-family="sans-serif" font-size="14" lengthAdjust="spacing" textLength="115" x="1363" y="958.1738">-int numBedrooms</text><text fill="#000000" font-family="sans-serif" font-size="14" lengthAdjust="spacing" textLength="119" x="1363" y="973.8145">-int numBathrooms</text><text fill="#000000" font-family="sans-serif" font-size="14" lengthAdjust="spacing" textLength="146" x="1363" y="989.4551">-int numParkingSpaces</text><line style="stroke:#181818;stroke-width:0.5;" x1="1358" x2="1514" y1="996.4219" y2="996.4219"/></g><!--class House--><g id="elem_House"><rect codeLine="90" fill="#F1F1F1" height="94.9219" id="House" rx="2.5" ry="2.5" style="stroke:#181818;stroke-width:0.5;" width="165" x="1454.5" y="1096"/><ellipse cx="1512.75" cy="1112" fill="#ADD1B2" rx="11" ry="11" style="stroke:#181818;stroke-width:1.0;"/><path d="M1515.5156,1107.875 Q1515.6719,1107.6563 1515.8594,1107.5469 Q1516.0469,1107.4375 1516.2656,1107.4375 Q1516.6406,1107.4375 1516.875,1107.7031 Q1517.1094,1107.9531 1517.1094,1108.5625 L1517.1094,1110.0156 Q1517.1094,1110.625 1516.875,1110.8906 Q1516.6406,1111.1563 1516.2656,1111.1563 Q1515.9219,1111.1563 1515.7188,1110.9531 Q1515.5156,1110.7656 1515.4063,1110.25 Q1515.3594,1109.8906 1515.1719,1109.7031 Q1514.8438,1109.3281 1514.2344,1109.1094 Q1513.625,1108.8906 1513,1108.8906 Q1512.2344,1108.8906 1511.5938,1109.2188 Q1510.9688,1109.5469 1510.4688,1110.2969 Q1509.9844,1111.0469 1509.9844,1112.0781 L1509.9844,1113.1719 Q1509.9844,1114.4063 1510.875,1115.2344 Q1511.7656,1116.0469 1513.3594,1116.0469 Q1514.2969,1116.0469 1514.9531,1115.7969 Q1515.3438,1115.6406 1515.7656,1115.2031 Q1516.0313,1114.9375 1516.1719,1114.8594 Q1516.3281,1114.7813 1516.5313,1114.7813 Q1516.8594,1114.7813 1517.1094,1115.0469 Q1517.375,1115.2969 1517.375,1115.6406 Q1517.375,1115.9844 1517.0313,1116.3906 Q1516.5313,1116.9688 1515.7344,1117.2969 Q1514.6563,1117.75 1513.3594,1117.75 Q1511.8438,1117.75 1510.6406,1117.125 Q1509.6563,1116.625 1508.9688,1115.5625 Q1508.2813,1114.4844 1508.2813,1113.2031 L1508.2813,1112.0469 Q1508.2813,1110.7188 1508.8906,1109.5781 Q1509.5156,1108.4219 1510.6094,1107.8125 Q1511.7031,1107.1875 1512.9375,1107.1875 Q1513.6719,1107.1875 1514.3125,1107.3594 Q1514.9688,1107.5156 1515.5156,1107.875 Z " fill="#000000"/><text fill="#000000" font-family="sans-serif" font-size="14" lengthAdjust="spacing" textLength="40" x="1533.25" y="1116.8535">House</text><line style="stroke:#181818;stroke-width:0.5;" x1="1455.5" x2="1618.5" y1="1128" y2="1128"/><text fill="#000000" font-family="sans-serif" font-size="14" lengthAdjust="spacing" textLength="122" x="1460.5" y="1144.6738">-boolean basement</text><text fill="#000000" font-family="sans-serif" font-size="14" lengthAdjust="spacing" textLength="153" x="1460.5" y="1160.3145">-boolean inhabitableLoft</text><text fill="#000000" font-family="sans-serif" font-size="14" lengthAdjust="spacing" textLength="128" x="1460.5" y="1175.9551">-String sunExposure</text><line style="stroke:#181818;stroke-width:0.5;" x1="1455.5" x2="1618.5" y1="1182.9219" y2="1182.9219"/></g><!--class Slot--><g id="elem_Slot"><rect codeLine="95" fill="#F1F1F1" height="79.2813" id="Slot" rx="2.5" ry="2.5" style="stroke:#181818;stroke-width:0.5;" width="75" x="884.5" y="723"/><ellipse cx="908.05" cy="739" fill="#ADD1B2" rx="11" ry="11" style="stroke:#181818;stroke-width:1.0;"/><path d="M910.8156,734.875 Q910.9719,734.6563 911.1594,734.5469 Q911.3469,734.4375 911.5656,734.4375 Q911.9406,734.4375 912.175,734.7031 Q912.4094,734.9531 912.4094,735.5625 L912.4094,737.0156 Q912.4094,737.625 912.175,737.8906 Q911.9406,738.1563 911.5656,738.1563 Q911.2219,738.1563 911.0188,737.9531 Q910.8156,737.7656 910.7063,737.25 Q910.6594,736.8906 910.4719,736.7031 Q910.1438,736.3281 909.5344,736.1094 Q908.925,735.8906 908.3,735.8906 Q907.5344,735.8906 906.8938,736.2188 Q906.2688,736.5469 905.7688,737.2969 Q905.2844,738.0469 905.2844,739.0781 L905.2844,740.1719 Q905.2844,741.4063 906.175,742.2344 Q907.0656,743.0469 908.6594,743.0469 Q909.5969,743.0469 910.2531,742.7969 Q910.6438,742.6406 911.0656,742.2031 Q911.3313,741.9375 911.4719,741.8594 Q911.6281,741.7813 911.8313,741.7813 Q912.1594,741.7813 912.4094,742.0469 Q912.675,742.2969 912.675,742.6406 Q912.675,742.9844 912.3313,743.3906 Q911.8313,743.9688 911.0344,744.2969 Q909.9563,744.75 908.6594,744.75 Q907.1438,744.75 905.9406,744.125 Q904.9563,743.625 904.2688,742.5625 Q903.5813,741.4844 903.5813,740.2031 L903.5813,739.0469 Q903.5813,737.7188 904.1906,736.5781 Q904.8156,735.4219 905.9094,734.8125 Q907.0031,734.1875 908.2375,734.1875 Q908.9719,734.1875 909.6125,734.3594 Q910.2688,734.5156 910.8156,734.875 Z " fill="#000000"/><text fill="#000000" font-family="sans-serif" font-size="14" lengthAdjust="spacing" textLength="24" x="923.95" y="743.8535">Slot</text><line style="stroke:#181818;stroke-width:0.5;" x1="885.5" x2="958.5" y1="755" y2="755"/><text fill="#000000" font-family="sans-serif" font-size="14" lengthAdjust="spacing" textLength="63" x="890.5" y="771.6738">-startDate</text><text fill="#000000" font-family="sans-serif" font-size="14" lengthAdjust="spacing" textLength="59" x="890.5" y="787.3145">-endDate</text><line style="stroke:#181818;stroke-width:0.5;" x1="885.5" x2="958.5" y1="794.2813" y2="794.2813"/></g><!--class Person--><g id="elem_Person"><rect codeLine="99" fill="#F1F1F1" height="126.2031" id="Person" rx="2.5" ry="2.5" style="stroke:#181818;stroke-width:0.5;" width="172" x="1193" y="357"/><ellipse cx="1252.25" cy="373" fill="#ADD1B2" rx="11" ry="11" style="stroke:#181818;stroke-width:1.0;"/><path d="M1255.0156,368.875 Q1255.1719,368.6563 1255.3594,368.5469 Q1255.5469,368.4375 1255.7656,368.4375 Q1256.1406,368.4375 1256.375,368.7031 Q1256.6094,368.9531 1256.6094,369.5625 L1256.6094,371.0156 Q1256.6094,371.625 1256.375,371.8906 Q1256.1406,372.1563 1255.7656,372.1563 Q1255.4219,372.1563 1255.2188,371.9531 Q1255.0156,371.7656 1254.9063,371.25 Q1254.8594,370.8906 1254.6719,370.7031 Q1254.3438,370.3281 1253.7344,370.1094 Q1253.125,369.8906 1252.5,369.8906 Q1251.7344,369.8906 1251.0938,370.2188 Q1250.4688,370.5469 1249.9688,371.2969 Q1249.4844,372.0469 1249.4844,373.0781 L1249.4844,374.1719 Q1249.4844,375.4063 1250.375,376.2344 Q1251.2656,377.0469 1252.8594,377.0469 Q1253.7969,377.0469 1254.4531,376.7969 Q1254.8438,376.6406 1255.2656,376.2031 Q1255.5313,375.9375 1255.6719,375.8594 Q1255.8281,375.7813 1256.0313,375.7813 Q1256.3594,375.7813 1256.6094,376.0469 Q1256.875,376.2969 1256.875,376.6406 Q1256.875,376.9844 1256.5313,377.3906 Q1256.0313,377.9688 1255.2344,378.2969 Q1254.1563,378.75 1252.8594,378.75 Q1251.3438,378.75 1250.1406,378.125 Q1249.1563,377.625 1248.4688,376.5625 Q1247.7813,375.4844 1247.7813,374.2031 L1247.7813,373.0469 Q1247.7813,371.7188 1248.3906,370.5781 Q1249.0156,369.4219 1250.1094,368.8125 Q1251.2031,368.1875 1252.4375,368.1875 Q1253.1719,368.1875 1253.8125,368.3594 Q1254.4688,368.5156 1255.0156,368.875 Z " fill="#000000"/><text fill="#000000" font-family="sans-serif" font-size="14" lengthAdjust="spacing" textLength="45" x="1272.75" y="377.8535">Person</text><line style="stroke:#181818;stroke-width:0.5;" x1="1194" x2="1364" y1="389" y2="389"/><text fill="#000000" font-family="sans-serif" font-size="14" lengthAdjust="spacing" textLength="81" x="1199" y="405.6738">-String name</text><text fill="#000000" font-family="sans-serif" font-size="14" lengthAdjust="spacing" textLength="160" x="1199" y="421.3145">-String passportCardNum</text><text fill="#000000" font-family="sans-serif" font-size="14" lengthAdjust="spacing" textLength="113" x="1199" y="436.9551">-String taxNumber</text><text fill="#000000" font-family="sans-serif" font-size="14" lengthAdjust="spacing" textLength="135" x="1199" y="452.5957">-String phoneNumber</text><text fill="#000000" font-family="sans-serif" font-size="14" lengthAdjust="spacing" textLength="131" x="1199" y="468.2363">-String emailAddress</text><line style="stroke:#181818;stroke-width:0.5;" x1="1194" x2="1364" y1="475.2031" y2="475.2031"/></g><!--link ListBookingRequestsUI to ListBookingRequestsController--><g id="link_ListBookingRequestsUI_ListBookingRequestsController"><path codeLine="111" d="M482.7,54.5 C484.39,54.5 485.33,54.5 485.33,54.5 C485.33,54.5 497.27,54.5 512.51,54.5 " fill="none" id="ListBookingRequestsUI-to-ListBookingRequestsController" style="stroke:#181818;stroke-width:1.0;stroke-dasharray:7.0,7.0;"/><polygon fill="#181818" points="517.79,54.5,508.79,50.5,512.79,54.5,508.79,58.5,517.79,54.5" style="stroke:#181818;stroke-width:1.0;"/></g><!--link ListBookingRequestsController to Repositories--><g id="link_ListBookingRequestsController_Repositories"><path codeLine="112" d="M625.79,102.13 C605.64,124.39 581.48,151.06 560.88,173.82 " fill="none" id="ListBookingRequestsController-to-Repositories" style="stroke:#181818;stroke-width:1.0;stroke-dasharray:7.0,7.0;"/><polygon fill="#181818" points="557.34,177.73,566.35,173.7526,560.6998,174.0271,560.4253,168.3769,557.34,177.73" style="stroke:#181818;stroke-width:1.0;"/><text fill="#000000" font-family="sans-serif" font-size="13" lengthAdjust="spacing" textLength="67" x="598" y="144.7686">repositories</text></g><!--link Repositories to VisitScheduleRequestRepository--><g id="link_Repositories_VisitScheduleRequestRepository"><path codeLine="113" d="M398.67,273.09 C358.79,289.07 324,303 324,303 C324,303 304.37,322.3 281.12,345.15 " fill="none" id="Repositories-to-VisitScheduleRequestRepository" style="stroke:#181818;stroke-width:1.0;stroke-dasharray:7.0,7.0;"/><polygon fill="#181818" points="277.36,348.85,286.5806,345.3887,280.9239,345.3431,280.9695,339.6864,277.36,348.85" style="stroke:#181818;stroke-width:1.0;"/><text fill="#000000" font-family="sans-serif" font-size="13" lengthAdjust="spacing" textLength="190" x="325" y="315.7686">VisitScheduleRequestRepository</text></g><!--link Repositories to AuthenticationRepository--><g id="link_Repositories_AuthenticationRepository"><path codeLine="114" d="M519.84,273.1 C523.34,306.76 527.99,351.57 531.22,382.61 " fill="none" id="Repositories-to-AuthenticationRepository" style="stroke:#181818;stroke-width:1.0;stroke-dasharray:7.0,7.0;"/><polygon fill="#181818" points="531.76,387.86,534.786,378.4875,531.2314,382.888,526.8309,379.3333,531.76,387.86" style="stroke:#181818;stroke-width:1.0;"/><text fill="#000000" font-family="sans-serif" font-size="13" lengthAdjust="spacing" textLength="145" x="526" y="315.7686">AuthenticationRepository</text></g><!--link VisitScheduleRequestRepository to SortMethod--><g id="link_VisitScheduleRequestRepository_SortMethod"><path codeLine="115" d="M206,491.21 C206,515.41 206,541.52 206,561.87 " fill="none" id="VisitScheduleRequestRepository-to-SortMethod" style="stroke:#181818;stroke-width:1.0;stroke-dasharray:7.0,7.0;"/><polygon fill="#181818" points="206,566.91,210,557.91,206,561.91,202,557.91,206,566.91" style="stroke:#181818;stroke-width:1.0;"/><text fill="#000000" font-family="sans-serif" font-size="13" lengthAdjust="spacing" textLength="28" x="207" y="533.7686">uses</text></g><!--link ListBookingRequestsController to BookingRequestMapper--><g id="link_ListBookingRequestsController_BookingRequestMapper"><path codeLine="116" d="M699.73,102.13 C718.46,129.65 741.78,163.93 758.98,189.2 " fill="none" id="ListBookingRequestsController-to-BookingRequestMapper" style="stroke:#181818;stroke-width:1.0;stroke-dasharray:7.0,7.0;"/><polygon fill="#181818" points="761.9,193.5,760.1515,183.8076,759.0904,189.364,753.534,188.303,761.9,193.5" style="stroke:#181818;stroke-width:1.0;"/><text fill="#000000" font-family="sans-serif" font-size="13" lengthAdjust="spacing" textLength="43" x="730" y="144.7686">mapper</text></g><!--link BookingRequestMapper to VisitScheduleRequestListDTO--><g id="link_BookingRequestMapper_VisitScheduleRequestListDTO"><path codeLine="117" d="M781.86,257.86 C780.62,292.08 778.63,346.78 777.32,382.8 " fill="none" id="BookingRequestMapper-to-VisitScheduleRequestListDTO" style="stroke:#181818;stroke-width:1.0;stroke-dasharray:7.0,7.0;"/><polygon fill="#181818" points="777.13,387.98,781.436,379.1223,777.3013,382.9829,773.4407,378.8482,777.13,387.98" style="stroke:#181818;stroke-width:1.0;"/><text fill="#000000" font-family="sans-serif" font-size="13" lengthAdjust="spacing" textLength="43" x="782" y="315.7686">listDTO</text></g><!--link BookingRequestMapper to VisitScheduleRequestDTO--><g id="link_BookingRequestMapper_VisitScheduleRequestDTO"><path codeLine="118" d="M824.58,257.64 C871.05,292.45 946.08,348.65 994.2,384.69 " fill="none" id="BookingRequestMapper-to-VisitScheduleRequestDTO" style="stroke:#181818;stroke-width:1.0;stroke-dasharray:7.0,7.0;"/><polygon fill="#181818" points="998.48,387.9,993.6653,379.3082,994.4749,384.9068,988.8763,385.7164,998.48,387.9" style="stroke:#181818;stroke-width:1.0;"/><text fill="#000000" font-family="sans-serif" font-size="13" lengthAdjust="spacing" textLength="36" x="905" y="315.7686">create</text></g><!--link AuthenticationRepository to Employee--><g id="link_AuthenticationRepository_Employee"><path codeLine="119" d="M584.78,452.11 C614.69,470.81 647,491 647,491 C647,491 1025,567 1025,567 C1025,567 1029.95,569.4 1037.1,572.86 " fill="none" id="AuthenticationRepository-to-Employee" style="stroke:#181818;stroke-width:1.0;stroke-dasharray:7.0,7.0;"/><polygon fill="#181818" points="1041.82,575.14,1035.472,567.6098,1037.3225,572.9555,1031.9768,574.8059,1041.82,575.14" style="stroke:#181818;stroke-width:1.0;"/><text fill="#000000" font-family="sans-serif" font-size="13" lengthAdjust="spacing" textLength="25" x="871" y="533.7686">gets</text><text fill="#000000" font-family="sans-serif" font-size="13" lengthAdjust="spacing" textLength="7" x="1027.0596" y="568.2232">1</text></g><!--link VisitScheduleRequestRepository to VisitScheduleRequest--><g id="link_VisitScheduleRequestRepository_VisitScheduleRequest"><path codeLine="120" d="M405.05,485.51 C415.62,488.93 422,491 422,491 C422,491 687.83,547.89 831.83,578.7 " fill="none" id="VisitScheduleRequestRepository-to-VisitScheduleRequest" style="stroke:#181818;stroke-width:1.0;stroke-dasharray:7.0,7.0;"/><polygon fill="#181818" points="836.9,579.79,828.9495,573.9771,832.0131,578.7326,827.2576,581.7962,836.9,579.79" style="stroke:#181818;stroke-width:1.0;"/><text fill="#000000" font-family="sans-serif" font-size="13" lengthAdjust="spacing" textLength="21" x="629" y="533.7686">has</text><text fill="#000000" font-family="sans-serif" font-size="13" lengthAdjust="spacing" textLength="20" x="809.0245" y="575.4097">1..*</text></g><!--link VisitScheduleRequest to Slot--><g id="link_VisitScheduleRequest_Slot"><path codeLine="121" d="M922,623.14 C922,647.71 922,687.13 922,717.62 " fill="none" id="VisitScheduleRequest-to-Slot" style="stroke:#181818;stroke-width:1.0;stroke-dasharray:7.0,7.0;"/><polygon fill="#181818" points="922,722.81,926,713.81,922,717.81,918,713.81,922,722.81" style="stroke:#181818;stroke-width:1.0;"/><text fill="#000000" font-family="sans-serif" font-size="13" lengthAdjust="spacing" textLength="7" x="914.3766" y="712.2835">1</text></g><!--link VisitScheduleRequest to Property--><g id="link_VisitScheduleRequest_Property"><path codeLine="122" d="M970.43,623.14 C1028.01,650.65 1124.55,696.78 1190.19,728.14 " fill="none" id="VisitScheduleRequest-to-Property" style="stroke:#181818;stroke-width:1.0;stroke-dasharray:7.0,7.0;"/><polygon fill="#181818" points="1194.86,730.37,1188.4641,722.8805,1190.3486,728.2142,1185.0149,730.0987,1194.86,730.37" style="stroke:#181818;stroke-width:1.0;"/><text fill="#000000" font-family="sans-serif" font-size="13" lengthAdjust="spacing" textLength="7" x="1179.9235" y="723.6697">1</text></g><!--link VisitScheduleRequest to Client--><g id="link_VisitScheduleRequest_Client"><path codeLine="123" d="M941.06,623.14 C965.25,652.52 1006.94,703.14 1032.62,734.32 " fill="none" id="VisitScheduleRequest-to-Client" style="stroke:#181818;stroke-width:1.0;stroke-dasharray:7.0,7.0;"/><polygon fill="#181818" points="1035.98,738.4,1033.3328,728.9136,1032.796,734.5449,1027.1646,734.008,1035.98,738.4" style="stroke:#181818;stroke-width:1.0;"/><text fill="#000000" font-family="sans-serif" font-size="13" lengthAdjust="spacing" textLength="7" x="1022.9278" y="727.8808">1</text></g><!--link Client to Address--><g id="link_Client_Address"><path codeLine="124" d="M1054.18,786.59 C1053.29,811.61 1052,848 1052,848 C1052,848 1052,864 1052,864 C1052,864 1054.69,874.77 1058.24,888.94 " fill="none" id="Client-to-Address" style="stroke:#181818;stroke-width:1.0;stroke-dasharray:7.0,7.0;"/><polygon fill="#181818" points="1059.47,893.87,1061.161,884.1674,1058.254,889.0201,1053.4012,886.1131,1059.47,893.87" style="stroke:#181818;stroke-width:1.0;"/><text fill="#000000" font-family="sans-serif" font-size="13" lengthAdjust="spacing" textLength="57" x="1053" y="860.7686">located at</text><text fill="#000000" font-family="sans-serif" font-size="13" lengthAdjust="spacing" textLength="7" x="1050.1507" y="883.111">1</text></g><!--reverse link Property to Dwelling--><g id="link_Property_Dwelling"><path codeLine="125" d="M1318.79,827.8 C1343.19,854.49 1370.98,884.88 1393.37,909.37 " fill="none" id="Property-backto-Dwelling" style="stroke:#181818;stroke-width:1.0;"/><polygon fill="#181818" points="1309.96,818.15,1311.0595,825.2768,1318.0609,827.003,1316.9615,819.8762,1309.96,818.15" style="stroke:#181818;stroke-width:1.0;"/><text fill="#000000" font-family="sans-serif" font-size="13" lengthAdjust="spacing" textLength="39" x="1349" y="860.7686">can be</text></g><!--link Property to Photograph--><g id="link_Property_Photograph"><path codeLine="126" d="M1255.17,818.15 C1252.3,850.69 1248.73,891.09 1246.2,919.72 " fill="none" id="Property-to-Photograph" style="stroke:#181818;stroke-width:1.0;stroke-dasharray:7.0,7.0;"/><polygon fill="#181818" points="1245.74,924.93,1250.5206,916.3192,1246.1824,919.9496,1242.552,915.6114,1245.74,924.93" style="stroke:#181818;stroke-width:1.0;"/><text fill="#000000" font-family="sans-serif" font-size="13" lengthAdjust="spacing" textLength="21" x="1253" y="860.7686">has</text><text fill="#000000" font-family="sans-serif" font-size="13" lengthAdjust="spacing" textLength="20" x="1224.1519" y="914.2485">1..*</text></g><!--link Property to PropertyType--><g id="link_Property_PropertyType"><path codeLine="127" d="M1325.04,794.59 C1405.79,833.19 1533,894 1533,894 C1533,894 1549.59,907.19 1567.47,921.4 " fill="none" id="Property-to-PropertyType" style="stroke:#181818;stroke-width:1.0;stroke-dasharray:7.0,7.0;"/><polygon fill="#181818" points="1571.54,924.64,1566.9876,915.9064,1567.6273,921.527,1562.0067,922.1667,1571.54,924.64" style="stroke:#181818;stroke-width:1.0;"/><text fill="#000000" font-family="sans-serif" font-size="13" lengthAdjust="spacing" textLength="21" x="1468" y="860.7686">has</text><text fill="#000000" font-family="sans-serif" font-size="13" lengthAdjust="spacing" textLength="7" x="1555.6795" y="914.3816">1</text></g><!--link Property to Address--><g id="link_Property_Address"><path codeLine="128" d="M1207.48,818.15 C1181.01,845.69 1149.13,878.87 1123.27,905.77 " fill="none" id="Property-to-Address" style="stroke:#181818;stroke-width:1.0;stroke-dasharray:7.0,7.0;"/><polygon fill="#181818" points="1119.5,909.69,1128.6266,905.9879,1122.9707,906.0908,1122.8678,900.4349,1119.5,909.69" style="stroke:#181818;stroke-width:1.0;"/><text fill="#000000" font-family="sans-serif" font-size="13" lengthAdjust="spacing" textLength="57" x="1179" y="860.7686">located at</text><text fill="#000000" font-family="sans-serif" font-size="13" lengthAdjust="spacing" textLength="7" x="1127.45" y="898.49">1</text></g><!--link Owner to Property--><g id="link_Owner_Property"><path codeLine="129" d="M1276.28,623.14 C1273.87,643.58 1270.26,674.31 1267.04,701.62 " fill="none" id="Owner-to-Property" style="stroke:#181818;stroke-width:1.0;stroke-dasharray:7.0,7.0;"/><polygon fill="#181818" points="1266.45,706.67,1271.4784,698.2015,1267.0367,701.7045,1263.5337,697.2628,1266.45,706.67" style="stroke:#181818;stroke-width:1.0;"/><text fill="#000000" font-family="sans-serif" font-size="13" lengthAdjust="spacing" textLength="30" x="1272" y="673.7686">owns</text><text fill="#000000" font-family="sans-serif" font-size="13" lengthAdjust="spacing" textLength="20" x="1245.973" y="696.0603">1..*</text></g><!--link Dwelling to Equipment--><g id="link_Dwelling_Equipment"><path codeLine="130" d="M1410.26,1004.56 C1394.18,1033.64 1373.62,1070.83 1357.91,1099.26 " fill="none" id="Dwelling-to-Equipment" style="stroke:#181818;stroke-width:1.0;stroke-dasharray:7.0,7.0;"/><polygon fill="#181818" points="1355.43,1103.75,1363.2892,1097.8143,1357.8522,1099.3759,1356.2906,1093.9388,1355.43,1103.75" style="stroke:#181818;stroke-width:1.0;"/><text fill="#000000" font-family="sans-serif" font-size="13" lengthAdjust="spacing" textLength="51" x="1386" y="1062.7686">can have</text></g><!--reverse link Dwelling to House--><g id="link_Dwelling_House"><path codeLine="131" d="M1467.78,1016.06 C1481.88,1041.81 1498.25,1071.71 1511.52,1095.96 " fill="none" id="Dwelling-backto-House" style="stroke:#181818;stroke-width:1.0;"/><polygon fill="#181818" points="1461.49,1004.56,1460.8635,1011.7438,1467.2538,1015.0852,1467.8803,1007.9013,1461.49,1004.56" style="stroke:#181818;stroke-width:1.0;"/><text fill="#000000" font-family="sans-serif" font-size="13" lengthAdjust="spacing" textLength="39" x="1493" y="1062.7686">can be</text></g><!--link Person to Owner--><g id="link_Person_Owner"><path codeLine="133" d="M1279,483.4 C1279,506.89 1279,533.08 1279,554.48 " fill="none" id="Person-to-Owner" style="stroke:#181818;stroke-width:1.0;"/><polygon fill="none" points="1286,554.74,1279,574.74,1272,554.74,1286,554.74" style="stroke:#181818;stroke-width:1.0;"/></g><!--link Person to Employee--><g id="link_Person_Employee"><path codeLine="134" d="M1206.85,483.19 C1183.26,503.53 1163,521 1163,521 C1163,521 1143.95,540.82 1125.18,560.35 " fill="none" id="Person-to-Employee" style="stroke:#181818;stroke-width:1.0;"/><polygon fill="none" points="1130.11,565.33,1111.2,574.9,1120.01,555.63,1130.11,565.33" style="stroke:#181818;stroke-width:1.0;"/></g><!--link Person to Client--><g id="link_Person_Client"><path codeLine="135" d="M1242,483.15 C1205.14,545.08 1154,631 1154,631 C1154,631 1113.88,683.88 1084.72,722.32 " fill="none" id="Person-to-Client" style="stroke:#181818;stroke-width:1.0;"/><polygon fill="none" points="1090.14,726.77,1072.47,738.47,1078.98,718.31,1090.14,726.77" style="stroke:#181818;stroke-width:1.0;"/></g><!--SRC=[bLLDRzms4BtpLn1xiHD7HdDT50RyLTI0qnZPjATUkDAiH9ZYA2GLP-FslsTcHObQLvBJlQmuysQ6yuPyFF6FsZRAgLhMQ36l7DOWWsj194-ZyaTLmYRi3KW7UL2sD6E0hrI1JzgMSgUC7tkCjX3s3SW6pPuNucJ2YIwW64NbHdb_6OBJspR0NOvsex-3_4M84mEx80DAfyigo4BpTZHQ8SGXIDvh7wuGALNv2Rwqu8F_ysxUTuqsE3G6d7mMPoM4on9ikCUoXEBEdhuvs68CXszegr2S7b1IZR7l_hRoHWMGFYWN-EjTjmPRyFyRskA_SIEVe46l0peDFjQzinHdSuWbBzjGKNATA-vkmE_P_PUcxqrUGT4QY8qS8VeoSqbcMkt3blF7u2dGWT_z8UqCGoy8EkQ7qtOfU7swZDrf4y2zKf5mdWPsjQSnxtJPkWCHlsdJqypZfCb-W51XCQA0xPsHs-KSfrzd6av1nqVhWsgQxbG5lFdySI5UB3BF68gdHE9C5SLa7l8lZwzBS9OxO6PVJN5RDmRt00iPe-l18NKP-5Hackcd2jrNhiF-ccO1hbitJkSWiWrTQj89VBBWRckbpL3qscWUu7EYuoE3neQ-scSIZUS-RJ8HhZ_vHU70-uWfY4Ag7heL7Qa0QO-zqG54m7VTP3aMetGF5GOidMggvw63Ph3TQ_kOiBTVMjtKr4aiRjjwC7cHyJX_xL9So95ZYBzv0aF2MARmAoWSOksJGONgsFAW71-z3IarZ7BzZgrdehQ81fILM-M1ooMBjfNQwg2s1kvn5uRkV6jllz6LRnsaIs6GnvCDTr9ayJwc0O7pQ6LYoQew3RqXI4DtwLgvue-s7kn1VQFbbazA8jV22nlmQOc3vHRvDwdsylnYMUh5yaDmJl572hscHoyjnP6FmQy8vdhP_zzyixgzddM9L_R0QKUYjfPqCFnFy32fQMjP7px4f7UEaLx8rlJk7xx-NtWNsYcOc6M8erVlLuE2KGZ9lFyPUbRlpy_VhYPhKvPAJISPAlBjM4RqwhMCwcHGH3NihV7SCtb8JKCXLH23-BxDia4tc2I-wf3Se-wIaiMUNe1MHnexXvdSJQVMurfzs9hbtejXXumPf2_kjr9V8I6ueODufMv4r9Oi- -UYUncEBCEJDJP6Bkdt0m00]--></g></svg>