<?xml version="1.0" encoding="us-ascii" standalone="no"?><svg xmlns="http://www.w3.org/2000/svg" xmlns:xlink="http://www.w3.org/1999/xlink" contentStyleType="text/css" height="436px" preserveAspectRatio="none" style="width:1001px;height:436px;background:#FFFFFF;" version="1.1" viewBox="0 0 1001 436" width="1001px" zoomAndPan="magnify"><defs/><g><rect fill="#FFFFFF" height="286.5391" style="stroke:#181818;stroke-width:1.0;" width="10" x="209" y="81.8047"/><rect fill="#FFFFFF" height="33.5234" style="stroke:#181818;stroke-width:1.0;" width="10" x="214" y="206.0156"/><rect fill="#FFFFFF" height="30" style="stroke:#181818;stroke-width:1.0;" width="10" x="568" y="295.8203"/><rect fill="none" height="203.375" style="stroke:#000000;stroke-width:1.5;" width="886" x="109" y="137.4453"/><rect fill="none" height="172.8516" style="stroke:#000000;stroke-width:1.5;" width="866" x="119" y="160.9688"/><line style="stroke:#181818;stroke-width:0.5;stroke-dasharray:5.0,5.0;" x1="214" x2="214" y1="51.2813" y2="386.3438"/><line style="stroke:#181818;stroke-width:0.5;stroke-dasharray:5.0,5.0;" x1="573" x2="573" y1="120.125" y2="386.3438"/><line style="stroke:#181818;stroke-width:0.5;stroke-dasharray:5.0,5.0;" x1="883" x2="883" y1="257.1563" y2="386.3438"/><rect fill="#E3E3E3" height="29.6406" rx="2.5" ry="2.5" style="stroke:#181818;stroke-width:0.5;" width="170" x="129" y="20.6406"/><text fill="#000000" font-family="sans-serif" font-size="14" lengthAdjust="spacing" textLength="156" x="136" y="40.3145">:BookingRequestMapper</text><rect fill="#E3E3E3" height="29.6406" rx="2.5" ry="2.5" style="stroke:#181818;stroke-width:0.5;" width="170" x="129" y="385.3438"/><text fill="#000000" font-family="sans-serif" font-size="14" lengthAdjust="spacing" textLength="156" x="136" y="405.0176">:BookingRequestMapper</text><rect fill="#E3E3E3" height="29.6406" rx="2.5" ry="2.5" style="stroke:#181818;stroke-width:0.5;" width="416" x="365" y="385.3438"/><text fill="#000000" font-family="sans-serif" font-size="14" lengthAdjust="spacing" textLength="402" x="372" y="405.0176">VisitScheduleRequestListDTO: List&lt;visitScheduleRequestDTO&gt;</text><rect fill="#E3E3E3" height="45.2813" rx="2.5" ry="2.5" style="stroke:#181818;stroke-width:0.5;" width="184" x="791" y="385.3438"/><text fill="#000000" font-family="sans-serif" font-size="14" lengthAdjust="spacing" textLength="166" x="800" y="405.0176">visitScheduleRequestDTO</text><text fill="#000000" font-family="sans-serif" font-size="14" lengthAdjust="spacing" textLength="170" x="798" y="420.6582">:visitScheduleRequestDTO</text><rect fill="#FFFFFF" height="286.5391" style="stroke:#181818;stroke-width:1.0;" width="10" x="209" y="81.8047"/><rect fill="#FFFFFF" height="33.5234" style="stroke:#181818;stroke-width:1.0;" width="10" x="214" y="206.0156"/><rect fill="#FFFFFF" height="30" style="stroke:#181818;stroke-width:1.0;" width="10" x="568" y="295.8203"/><polygon fill="#181818" points="197,77.8047,207,81.8047,197,85.8047,201,81.8047" style="stroke:#181818;stroke-width:1.0;"/><line style="stroke:#181818;stroke-width:1.0;" x1="0" x2="203" y1="81.8047" y2="81.8047"/><text fill="#000000" font-family="sans-serif" font-size="13" lengthAdjust="spacing" textLength="190" x="7" y="77.0498">toDTO(visitScheduleRequestList)</text><polygon fill="#181818" points="353,106.3281,363,110.3281,353,114.3281,357,110.3281" style="stroke:#181818;stroke-width:1.0;"/><line style="stroke:#181818;stroke-width:1.0;stroke-dasharray:2.0,2.0;" x1="219" x2="359" y1="110.3281" y2="110.3281"/><text fill="#000000" font-family="sans-serif" font-size="13" lengthAdjust="spacing" textLength="44" x="226" y="105.5732">create()</text><rect fill="#E3E3E3" height="29.6406" rx="2.5" ry="2.5" style="stroke:#181818;stroke-width:0.5;" width="416" x="365" y="89.8047"/><text fill="#000000" font-family="sans-serif" font-size="14" lengthAdjust="spacing" textLength="402" x="372" y="109.4785">VisitScheduleRequestListDTO: List&lt;visitScheduleRequestDTO&gt;</text><path d="M109,137.4453 L182,137.4453 L182,143.9688 L172,153.9688 L109,153.9688 L109,137.4453 " fill="#EEEEEE" style="stroke:#000000;stroke-width:1.5;"/><rect fill="none" height="203.375" style="stroke:#000000;stroke-width:1.5;" width="886" x="109" y="137.4453"/><text fill="#000000" font-family="sans-serif" font-size="13" font-weight="bold" lengthAdjust="spacing" textLength="28" x="124" y="150.2139">loop</text><text fill="#000000" font-family="sans-serif" font-size="11" font-weight="bold" lengthAdjust="spacing" textLength="419" x="197" y="149.4033">[for VisitScheduleRequest visitScheduleRequest: visitScheduleRequestList]</text><path d="M119,160.9688 L180,160.9688 L180,167.4922 L170,177.4922 L119,177.4922 L119,160.9688 " fill="#EEEEEE" style="stroke:#000000;stroke-width:1.5;"/><rect fill="none" height="172.8516" style="stroke:#000000;stroke-width:1.5;" width="866" x="119" y="160.9688"/><text fill="#000000" font-family="sans-serif" font-size="13" font-weight="bold" lengthAdjust="spacing" textLength="16" x="134" y="173.7373">alt</text><text fill="#000000" font-family="sans-serif" font-size="11" font-weight="bold" lengthAdjust="spacing" textLength="489" x="195" y="172.9268">[visitScheduleRequest.getDate()==startDate || visitScheduleRequest.getDate()==endDate)]</text><line style="stroke:#181818;stroke-width:1.0;" x1="219" x2="266" y1="193.0156" y2="193.0156"/><line style="stroke:#181818;stroke-width:1.0;" x1="266" x2="266" y1="193.0156" y2="206.0156"/><line style="stroke:#181818;stroke-width:1.0;" x1="225" x2="266" y1="206.0156" y2="206.0156"/><polygon fill="#181818" points="235,202.0156,225,206.0156,235,210.0156,231,206.0156" style="stroke:#181818;stroke-width:1.0;"/><text fill="#000000" font-family="sans-serif" font-size="13" lengthAdjust="spacing" textLength="335" x="231" y="188.2607">visitScheduleRequestDTO = toDTO(visitScheduleRequest)</text><polygon fill="#181818" points="779,235.5391,789,239.5391,779,243.5391,783,239.5391" style="stroke:#181818;stroke-width:1.0;"/><line style="stroke:#181818;stroke-width:1.0;" x1="219" x2="785" y1="239.5391" y2="239.5391"/><text fill="#000000" font-family="sans-serif" font-size="13" lengthAdjust="spacing" textLength="194" x="226" y="234.7842">create(visitScheduleRequestDTO)</text><rect fill="#E3E3E3" height="45.2813" rx="2.5" ry="2.5" style="stroke:#181818;stroke-width:0.5;" width="184" x="791" y="219.0156"/><text fill="#000000" font-family="sans-serif" font-size="14" lengthAdjust="spacing" textLength="166" x="800" y="238.6895">visitScheduleRequestDTO</text><text fill="#000000" font-family="sans-serif" font-size="14" lengthAdjust="spacing" textLength="170" x="798" y="254.3301">:visitScheduleRequestDTO</text><polygon fill="#181818" points="556,291.8203,566,295.8203,556,299.8203,560,295.8203" style="stroke:#181818;stroke-width:1.0;"/><line style="stroke:#181818;stroke-width:1.0;" x1="219" x2="562" y1="295.8203" y2="295.8203"/><text fill="#000000" font-family="sans-serif" font-size="13" lengthAdjust="spacing" textLength="179" x="226" y="291.0654">add(visitScheduleRequestDTO)</text><polygon fill="#181818" points="11,364.3438,1,368.3438,11,372.3438,7,368.3438" style="stroke:#181818;stroke-width:1.0;"/><line style="stroke:#181818;stroke-width:1.0;stroke-dasharray:2.0,2.0;" x1="5" x2="213" y1="368.3438" y2="368.3438"/><text fill="#000000" font-family="sans-serif" font-size="13" lengthAdjust="spacing" textLength="171" x="17" y="363.5889">visitScheduleRequestListDTO</text><!--SRC=[bLFBRi8m4BpxArPS2aZf1rY0r8eZLQLIzTIBQo-9HR1JUvEs4XzVvm65uWJXqwvtF3CU9twhJI6SsC7E6YipPtS8v4fa_ZWfXDoA5DVqaoCub2HCcfy2V2QK_T8cXOt8FJ8MjabBNGX302F-Q6t0fY_uMQAd9r4Kw4OWFBJb6NpqfhscjSnGbJbsHrRQq_BrcKDTpAe88amN3UN3AfJdZ3tuTyDx9WrHJSFONQOLmiPQ-h3VeKyMhMSEP0DYNFMudJ3ebf2aAq5ukEnXlssJPD4udaw1WtGOWEE_i_NAhIs20GUnO22cpw7FrHbnOowFKzodICl6otpkAOHPDx3VNmMZKNKvkL0wkN8N8SHzXZ1WFf1kdBelvPZylxXxJCHr5DwYr3mj1w7KRIf7ZVPh7ZPoCGvlm8RwMPB0u1DqlniRllWl]--></g></svg>