<?xml version="1.0" encoding="us-ascii" standalone="no"?><svg xmlns="http://www.w3.org/2000/svg" xmlns:xlink="http://www.w3.org/1999/xlink" contentStyleType="text/css" height="515px" preserveAspectRatio="none" style="width:538px;height:515px;background:#FFFFFF;" version="1.1" viewBox="0 0 538 515" width="538px" zoomAndPan="magnify"><defs/><g><text fill="#000000" font-family="sans-serif" font-size="14" font-weight="bold" lengthAdjust="spacing" textLength="224" x="158.5" y="29.9659">System Sequence Diagram (SSD)</text><rect fill="#FFFFFF" height="279.3541" style="stroke:#181818;stroke-width:1.0;" width="10" x="68" y="134.1358"/><rect fill="#FFFFFF" height="31.706" style="stroke:#181818;stroke-width:1.0;" width="10" x="484" y="157.8419"/><rect fill="#FFFFFF" height="58.412" style="stroke:#181818;stroke-width:1.0;" width="10" x="484" y="221.2539"/><rect fill="#FFFFFF" height="38.706" style="stroke:#181818;stroke-width:1.0;" width="10" x="484" y="311.3719"/><rect fill="#FFFFFF" height="31.706" style="stroke:#181818;stroke-width:1.0;" width="10" x="484" y="381.784"/><rect fill="none" height="83.118" style="stroke:#000000;stroke-width:1.5;" width="522" x="10" y="236.2539"/><line style="stroke:#181818;stroke-width:0.5;stroke-dasharray:5.0,5.0;" x1="73" x2="73" y1="124.1358" y2="431.49"/><line style="stroke:#181818;stroke-width:0.5;stroke-dasharray:5.0,5.0;" x1="489" x2="489" y1="124.1358" y2="431.49"/><text fill="#000000" font-family="sans-serif" font-size="14" lengthAdjust="spacing" textLength="100" x="20" y="120.0339">Store Manager</text><ellipse cx="73" cy="53.5679" fill="#E3E3E3" rx="8" ry="8" style="stroke:#181818;stroke-width:0.5;"/><path d="M73,61.5679 L73,88.5679 M60,69.5679 L86,69.5679 M73,88.5679 L60,103.5679 M73,88.5679 L86,103.5679 " fill="none" style="stroke:#181818;stroke-width:0.5;"/><text fill="#000000" font-family="sans-serif" font-size="14" lengthAdjust="spacing" textLength="100" x="20" y="445.4559">Store Manager</text><ellipse cx="73" cy="458.0579" fill="#E3E3E3" rx="8" ry="8" style="stroke:#181818;stroke-width:0.5;"/><path d="M73,466.0579 L73,493.0579 M60,474.0579 L86,474.0579 M73,493.0579 L60,508.0579 M73,493.0579 L86,508.0579 " fill="none" style="stroke:#181818;stroke-width:0.5;"/><rect fill="#E3E3E3" height="33.0679" rx="2.5" ry="2.5" style="stroke:#181818;stroke-width:0.5;" width="66" x="456" y="90.0679"/><text fill="#000000" font-family="sans-serif" font-size="14" lengthAdjust="spacing" textLength="52" x="463" y="112.0339">:System</text><rect fill="#E3E3E3" height="33.0679" rx="2.5" ry="2.5" style="stroke:#181818;stroke-width:0.5;" width="66" x="456" y="430.49"/><text fill="#000000" font-family="sans-serif" font-size="14" lengthAdjust="spacing" textLength="52" x="463" y="452.4559">:System</text><rect fill="#FFFFFF" height="279.3541" style="stroke:#181818;stroke-width:1.0;" width="10" x="68" y="134.1358"/><rect fill="#FFFFFF" height="31.706" style="stroke:#181818;stroke-width:1.0;" width="10" x="484" y="157.8419"/><rect fill="#FFFFFF" height="58.412" style="stroke:#181818;stroke-width:1.0;" width="10" x="484" y="221.2539"/><rect fill="#FFFFFF" height="38.706" style="stroke:#181818;stroke-width:1.0;" width="10" x="484" y="311.3719"/><rect fill="#FFFFFF" height="31.706" style="stroke:#181818;stroke-width:1.0;" width="10" x="484" y="381.784"/><polygon fill="#181818" points="472,153.8419,482,157.8419,472,161.8419,476,157.8419" style="stroke:#181818;stroke-width:1.0;"/><line style="stroke:#181818;stroke-width:1.0;" x1="78" x2="478" y1="157.8419" y2="157.8419"/><text fill="#000000" font-family="sans-serif" font-size="13" font-weight="bold" lengthAdjust="spacing" textLength="7" x="85" y="152.0328">1</text><text fill="#000000" font-family="sans-serif" font-size="13" lengthAdjust="spacing" textLength="184" x="96" y="152.0328">asks to analyse the deals made</text><polygon fill="#181818" points="89,185.5479,79,189.5479,89,193.5479,85,189.5479" style="stroke:#181818;stroke-width:1.0;"/><line style="stroke:#181818;stroke-width:1.0;stroke-dasharray:2.0,2.0;" x1="83" x2="488" y1="189.5479" y2="189.5479"/><text fill="#000000" font-family="sans-serif" font-size="13" font-weight="bold" lengthAdjust="spacing" textLength="7" x="95" y="183.7389">2</text><text fill="#000000" font-family="sans-serif" font-size="13" lengthAdjust="spacing" textLength="362" x="106" y="183.7389">shows the different regression models and asks to select one</text><polygon fill="#181818" points="472,217.2539,482,221.2539,472,225.2539,476,221.2539" style="stroke:#181818;stroke-width:1.0;"/><line style="stroke:#181818;stroke-width:1.0;" x1="78" x2="478" y1="221.2539" y2="221.2539"/><text fill="#000000" font-family="sans-serif" font-size="13" font-weight="bold" lengthAdjust="spacing" textLength="7" x="85" y="215.4449">3</text><text fill="#000000" font-family="sans-serif" font-size="13" lengthAdjust="spacing" textLength="157" x="96" y="215.4449">selects a regression model</text><path d="M10,236.2539 L73,236.2539 L73,245.9599 L63,255.9599 L10,255.9599 L10,236.2539 " fill="#EEEEEE" style="stroke:#000000;stroke-width:1.5;"/><rect fill="none" height="83.118" style="stroke:#000000;stroke-width:1.5;" width="522" x="10" y="236.2539"/><text fill="#000000" font-family="sans-serif" font-size="13" font-weight="bold" lengthAdjust="spacing" textLength="18" x="25" y="251.1509">alt</text><text fill="#000000" font-family="sans-serif" font-size="11" font-weight="bold" lengthAdjust="spacing" textLength="172" x="88" y="250.0128">[if it is simple linear regression]</text><polygon fill="#181818" points="89,275.6659,79,279.6659,89,283.6659,85,279.6659" style="stroke:#181818;stroke-width:1.0;"/><line style="stroke:#181818;stroke-width:1.0;stroke-dasharray:2.0,2.0;" x1="83" x2="488" y1="279.6659" y2="279.6659"/><text fill="#000000" font-family="sans-serif" font-size="13" font-weight="bold" lengthAdjust="spacing" textLength="7" x="95" y="273.8569">4</text><text fill="#000000" font-family="sans-serif" font-size="13" lengthAdjust="spacing" textLength="310" x="106" y="273.8569">shows regression parameters and asks to select one</text><polygon fill="#181818" points="472,307.3719,482,311.3719,472,315.3719,476,311.3719" style="stroke:#181818;stroke-width:1.0;"/><line style="stroke:#181818;stroke-width:1.0;" x1="78" x2="478" y1="311.3719" y2="311.3719"/><text fill="#000000" font-family="sans-serif" font-size="13" font-weight="bold" lengthAdjust="spacing" textLength="7" x="85" y="305.5629">5</text><text fill="#000000" font-family="sans-serif" font-size="13" lengthAdjust="spacing" textLength="195" x="96" y="305.5629">selects the regression parameter</text><polygon fill="#181818" points="89,346.0779,79,350.0779,89,354.0779,85,350.0779" style="stroke:#181818;stroke-width:1.0;"/><line style="stroke:#181818;stroke-width:1.0;stroke-dasharray:2.0,2.0;" x1="83" x2="488" y1="350.0779" y2="350.0779"/><text fill="#000000" font-family="sans-serif" font-size="13" font-weight="bold" lengthAdjust="spacing" textLength="7" x="95" y="344.2689">6</text><text fill="#000000" font-family="sans-serif" font-size="13" lengthAdjust="spacing" textLength="226" x="106" y="344.2689">asks the significance value to consider</text><polygon fill="#181818" points="472,377.784,482,381.784,472,385.784,476,381.784" style="stroke:#181818;stroke-width:1.0;"/><line style="stroke:#181818;stroke-width:1.0;" x1="78" x2="478" y1="381.784" y2="381.784"/><text fill="#000000" font-family="sans-serif" font-size="13" font-weight="bold" lengthAdjust="spacing" textLength="7" x="85" y="375.975">7</text><text fill="#000000" font-family="sans-serif" font-size="13" lengthAdjust="spacing" textLength="168" x="96" y="375.975">enters the significance value</text><polygon fill="#181818" points="84,409.49,74,413.49,84,417.49,80,413.49" style="stroke:#181818;stroke-width:1.0;"/><line style="stroke:#181818;stroke-width:1.0;stroke-dasharray:2.0,2.0;" x1="78" x2="488" y1="413.49" y2="413.49"/><text fill="#000000" font-family="sans-serif" font-size="13" font-weight="bold" lengthAdjust="spacing" textLength="7" x="90" y="407.681">8</text><text fill="#000000" font-family="sans-serif" font-size="13" lengthAdjust="spacing" textLength="371" x="101" y="407.681">shows selected regression model and all the required statistics</text><!--SRC=[ZLCnaeCm3Epz2asgko8VkEAgj5H-WGu4Q69iOfbayliJc2HSGfXpuV7Ogrtj2kJ8liU87NJ1XxADeID8SI0ZzvSUooCsPDFL4KGg4_h6BG7IOXKkx1keqGaPapWfr5ubKGUMJWFvak30s8pm3siFdyRWa88VkX-AUYvJYB2pkXCKw5KkxW05R65K8t79FVe4kwzCcj-curJCPqmqWWteiWNils_oNmez2gG0IkkkelPQWegqK-YmegdYGJ5pmhncalt8LoYNjE4YcO7hcY9fKv6QI28Sl8POaVAYh-wgGauZW-2paWglQJsrd8kKw8Lykrrq2RW6rbr0kEjr38uzOLmGFU3l7IvafnbJehZfQyFRNMdTunZccjoVscVYsptvQjjERbSbX1lFDPSuVefdT0EDBihWXQk5s8Q7f_vrz6CcwzpcNUF_o3u7GzNBx7F-pisHdGQEYfA4YKL_4TamiRmfp2y0]--></g></svg>