<?xml version="1.0" encoding="us-ascii" standalone="no"?><svg xmlns="http://www.w3.org/2000/svg" xmlns:xlink="http://www.w3.org/1999/xlink" contentStyleType="text/css" height="1464px" preserveAspectRatio="none" style="width:1078px;height:1464px;background:#FFFFFF;" version="1.1" viewBox="0 0 1078 1464" width="1078px" zoomAndPan="magnify"><defs/><g><rect fill="#FFFFFF" height="1276.0625" style="stroke:#181818;stroke-width:1.0;" width="10" x="88.5" y="90.6406"/><rect fill="#FFFFFF" height="183.6641" style="stroke:#181818;stroke-width:1.0;" width="10" x="371.5" y="111.1641"/><rect fill="#FFFFFF" height="141.6172" style="stroke:#181818;stroke-width:1.0;" width="10" x="371.5" y="346.875"/><rect fill="#FFFFFF" height="28.5234" style="stroke:#181818;stroke-width:1.0;" width="10" x="371.5" y="540.5391"/><rect fill="#FFFFFF" height="28.5234" style="stroke:#181818;stroke-width:1.0;" width="10" x="371.5" y="597.5859"/><rect fill="#FFFFFF" height="648.0234" style="stroke:#181818;stroke-width:1.0;" width="10" x="371.5" y="654.6328"/><rect fill="#FFFFFF" height="28.5234" style="stroke:#181818;stroke-width:1.0;" width="10" x="371.5" y="1338.1797"/><rect fill="#FFFFFF" height="71.4531" style="stroke:#181818;stroke-width:1.0;" width="10" x="664.5" y="180.3281"/><rect fill="#FFFFFF" height="70.0469" style="stroke:#181818;stroke-width:1.0;" width="10" x="664.5" y="375.3984"/><rect fill="#FFFFFF" height="69.1641" style="stroke:#181818;stroke-width:1.0;" width="10" x="664.5" y="683.1563"/><rect fill="#FFFFFF" height="71.4531" style="stroke:#181818;stroke-width:1.0;" width="10" x="664.5" y="780.8438"/><rect fill="#FFFFFF" height="71.4531" style="stroke:#181818;stroke-width:1.0;" width="10" x="664.5" y="909.3438"/><rect fill="#FFFFFF" height="71.4531" style="stroke:#181818;stroke-width:1.0;" width="10" x="664.5" y="1052.1328"/><rect fill="#FFFFFF" height="71.4531" style="stroke:#181818;stroke-width:1.0;" width="10" x="664.5" y="1159.1094"/><rect fill="none" height="1000.8281" style="stroke:#000000;stroke-width:1.5;" width="1062.5" x="10" y="309.8281"/><rect fill="none" height="628.0938" style="stroke:#000000;stroke-width:1.5;" width="1042.5" x="20" y="503.4922"/><line style="stroke:#181818;stroke-width:0.5;stroke-dasharray:5.0,5.0;" x1="93" x2="93" y1="80.6406" y2="1384.7031"/><line style="stroke:#181818;stroke-width:0.5;stroke-dasharray:5.0,5.0;" x1="376" x2="376" y1="80.6406" y2="1384.7031"/><line style="stroke:#181818;stroke-width:0.5;stroke-dasharray:5.0,5.0;" x1="669" x2="669" y1="149.4844" y2="1384.7031"/><line style="stroke:#181818;stroke-width:0.5;stroke-dasharray:5.0,5.0;" x1="869.5" x2="869.5" y1="80.6406" y2="1384.7031"/><line style="stroke:#181818;stroke-width:0.5;stroke-dasharray:5.0,5.0;" x1="1007.5" x2="1007.5" y1="721.4766" y2="1384.7031"/><text fill="#000000" font-family="sans-serif" font-size="14" lengthAdjust="spacing" textLength="121" x="30" y="77.6738">Organization Agent</text><ellipse cx="93.5" cy="13.5" fill="#E3E3E3" rx="8" ry="8" style="stroke:#181818;stroke-width:0.5;"/><path d="M93.5,21.5 L93.5,48.5 M80.5,29.5 L106.5,29.5 M93.5,48.5 L80.5,63.5 M93.5,48.5 L106.5,63.5 " fill="none" style="stroke:#181818;stroke-width:0.5;"/><text fill="#000000" font-family="sans-serif" font-size="14" lengthAdjust="spacing" textLength="121" x="30" y="1396.377">Organization Agent</text><ellipse cx="93.5" cy="1407.8438" fill="#E3E3E3" rx="8" ry="8" style="stroke:#181818;stroke-width:0.5;"/><path d="M93.5,1415.8438 L93.5,1442.8438 M80.5,1423.8438 L106.5,1423.8438 M93.5,1442.8438 L80.5,1457.8438 M93.5,1442.8438 L106.5,1457.8438 " fill="none" style="stroke:#181818;stroke-width:0.5;"/><rect fill="#E3E3E3" height="29.6406" rx="2.5" ry="2.5" style="stroke:#181818;stroke-width:0.5;" width="105" x="324" y="50"/><text fill="#000000" font-family="sans-serif" font-size="14" lengthAdjust="spacing" textLength="91" x="331" y="69.6738">:ListRequestUI</text><rect fill="#E3E3E3" height="29.6406" rx="2.5" ry="2.5" style="stroke:#181818;stroke-width:0.5;" width="105" x="324" y="1383.7031"/><text fill="#000000" font-family="sans-serif" font-size="14" lengthAdjust="spacing" textLength="91" x="331" y="1403.377">:ListRequestUI</text><rect fill="#E3E3E3" height="29.6406" rx="2.5" ry="2.5" style="stroke:#181818;stroke-width:0.5;" width="155" x="592" y="1383.7031"/><text fill="#000000" font-family="sans-serif" font-size="14" lengthAdjust="spacing" textLength="141" x="599" y="1403.377">:ListRequestController</text><rect fill="#E3E3E3" height="45.2813" rx="2.5" ry="2.5" style="stroke:#181818;stroke-width:0.5;" width="142" x="798.5" y="34.3594"/><text fill="#000000" font-family="sans-serif" font-size="14" lengthAdjust="spacing" textLength="72" x="833.5" y="54.0332">Repository:</text><text fill="#000000" font-family="sans-serif" font-size="14" lengthAdjust="spacing" textLength="128" x="805.5" y="69.6738">RequestsRepository</text><rect fill="#E3E3E3" height="45.2813" rx="2.5" ry="2.5" style="stroke:#181818;stroke-width:0.5;" width="142" x="798.5" y="1383.7031"/><text fill="#000000" font-family="sans-serif" font-size="14" lengthAdjust="spacing" textLength="72" x="833.5" y="1403.377">Repository:</text><text fill="#000000" font-family="sans-serif" font-size="14" lengthAdjust="spacing" textLength="128" x="805.5" y="1419.0176">RequestsRepository</text><rect fill="#E3E3E3" height="29.6406" rx="2.5" ry="2.5" style="stroke:#181818;stroke-width:0.5;" width="90" x="962.5" y="1383.7031"/><text fill="#000000" font-family="sans-serif" font-size="14" lengthAdjust="spacing" textLength="76" x="969.5" y="1403.377">Commission</text><rect fill="#FFFFFF" height="1276.0625" style="stroke:#181818;stroke-width:1.0;" width="10" x="88.5" y="90.6406"/><rect fill="#FFFFFF" height="183.6641" style="stroke:#181818;stroke-width:1.0;" width="10" x="371.5" y="111.1641"/><rect fill="#FFFFFF" height="141.6172" style="stroke:#181818;stroke-width:1.0;" width="10" x="371.5" y="346.875"/><rect fill="#FFFFFF" height="28.5234" style="stroke:#181818;stroke-width:1.0;" width="10" x="371.5" y="540.5391"/><rect fill="#FFFFFF" height="28.5234" style="stroke:#181818;stroke-width:1.0;" width="10" x="371.5" y="597.5859"/><rect fill="#FFFFFF" height="648.0234" style="stroke:#181818;stroke-width:1.0;" width="10" x="371.5" y="654.6328"/><rect fill="#FFFFFF" height="28.5234" style="stroke:#181818;stroke-width:1.0;" width="10" x="371.5" y="1338.1797"/><rect fill="#FFFFFF" height="71.4531" style="stroke:#181818;stroke-width:1.0;" width="10" x="664.5" y="180.3281"/><rect fill="#FFFFFF" height="70.0469" style="stroke:#181818;stroke-width:1.0;" width="10" x="664.5" y="375.3984"/><rect fill="#FFFFFF" height="69.1641" style="stroke:#181818;stroke-width:1.0;" width="10" x="664.5" y="683.1563"/><rect fill="#FFFFFF" height="71.4531" style="stroke:#181818;stroke-width:1.0;" width="10" x="664.5" y="780.8438"/><rect fill="#FFFFFF" height="71.4531" style="stroke:#181818;stroke-width:1.0;" width="10" x="664.5" y="909.3438"/><rect fill="#FFFFFF" height="71.4531" style="stroke:#181818;stroke-width:1.0;" width="10" x="664.5" y="1052.1328"/><rect fill="#FFFFFF" height="71.4531" style="stroke:#181818;stroke-width:1.0;" width="10" x="664.5" y="1159.1094"/><polygon fill="#181818" points="359.5,107.1641,369.5,111.1641,359.5,115.1641,363.5,111.1641" style="stroke:#181818;stroke-width:1.0;"/><line style="stroke:#181818;stroke-width:1.0;" x1="98.5" x2="365.5" y1="111.1641" y2="111.1641"/><text fill="#000000" font-family="sans-serif" font-size="13" font-weight="bold" lengthAdjust="spacing" textLength="7" x="105.5" y="106.4092">1</text><text fill="#000000" font-family="sans-serif" font-size="13" lengthAdjust="spacing" textLength="157" x="116.5" y="106.4092">asks to see list of requests</text><polygon fill="#181818" points="580,135.6875,590,139.6875,580,143.6875,584,139.6875" style="stroke:#181818;stroke-width:1.0;"/><line style="stroke:#181818;stroke-width:1.0;" x1="381.5" x2="586" y1="139.6875" y2="139.6875"/><text fill="#000000" font-family="sans-serif" font-size="13" font-weight="bold" lengthAdjust="spacing" textLength="7" x="388.5" y="134.9326">2</text><text fill="#000000" font-family="sans-serif" font-size="13" lengthAdjust="spacing" textLength="44" x="399.5" y="134.9326">create()</text><rect fill="#E3E3E3" height="29.6406" rx="2.5" ry="2.5" style="stroke:#181818;stroke-width:0.5;" width="155" x="592" y="119.1641"/><text fill="#000000" font-family="sans-serif" font-size="14" lengthAdjust="spacing" textLength="141" x="599" y="138.8379">:ListRequestController</text><polygon fill="#181818" points="652.5,176.3281,662.5,180.3281,652.5,184.3281,656.5,180.3281" style="stroke:#181818;stroke-width:1.0;"/><line style="stroke:#181818;stroke-width:1.0;" x1="381.5" x2="658.5" y1="180.3281" y2="180.3281"/><text fill="#000000" font-family="sans-serif" font-size="13" font-weight="bold" lengthAdjust="spacing" textLength="7" x="388.5" y="175.5732">3</text><text fill="#000000" font-family="sans-serif" font-size="13" lengthAdjust="spacing" textLength="84" x="399.5" y="175.5732">ListRequests()</text><rect fill="none" height="37.9297" style="stroke:#000000;stroke-width:1.5;" width="161" x="589" y="188.3281"/><path d="M589,188.3281 L651,188.3281 L651,194.3281 L641,204.3281 L589,204.3281 L589,188.3281 " fill="#EEEEEE" style="stroke:#000000;stroke-width:2.0;"/><text fill="#000000" font-family="sans-serif" font-size="13" font-weight="bold" lengthAdjust="spacing" textLength="17" x="602" y="202.0967">ref</text><text fill="#000000" font-family="sans-serif" font-size="12" lengthAdjust="spacing" textLength="74" x="632.5" y="219.1914">ListRequests</text><polygon fill="#181818" points="392.5,247.7813,382.5,251.7813,392.5,255.7813,388.5,251.7813" style="stroke:#181818;stroke-width:1.0;"/><line style="stroke:#181818;stroke-width:1.0;stroke-dasharray:2.0,2.0;" x1="386.5" x2="668.5" y1="251.7813" y2="251.7813"/><text fill="#000000" font-family="sans-serif" font-size="13" font-weight="bold" lengthAdjust="spacing" textLength="7" x="398.5" y="247.0264">4</text><text fill="#000000" font-family="sans-serif" font-size="13" lengthAdjust="spacing" textLength="17" x="409.5" y="247.0264">list</text><polygon fill="#181818" points="109.5,290.8281,99.5,294.8281,109.5,298.8281,105.5,294.8281" style="stroke:#181818;stroke-width:1.0;"/><line style="stroke:#181818;stroke-width:1.0;stroke-dasharray:2.0,2.0;" x1="103.5" x2="375.5" y1="294.8281" y2="294.8281"/><text fill="#000000" font-family="sans-serif" font-size="13" font-weight="bold" lengthAdjust="spacing" textLength="7" x="115.5" y="282.8115">5</text><text fill="#000000" font-family="sans-serif" font-size="13" lengthAdjust="spacing" textLength="234" x="126.5" y="275.5498">shows list of offers by most recent dates</text><text fill="#000000" font-family="sans-serif" font-size="13" lengthAdjust="spacing" textLength="196" x="126.5" y="290.0732">and asks to choose one or cancel</text><path d="M10,309.8281 L83,309.8281 L83,316.3516 L73,326.3516 L10,326.3516 L10,309.8281 " fill="#EEEEEE" style="stroke:#000000;stroke-width:1.5;"/><rect fill="none" height="1000.8281" style="stroke:#000000;stroke-width:1.5;" width="1062.5" x="10" y="309.8281"/><text fill="#000000" font-family="sans-serif" font-size="13" font-weight="bold" lengthAdjust="spacing" textLength="28" x="25" y="322.5967">loop</text><polygon fill="#181818" points="359.5,342.875,369.5,346.875,359.5,350.875,363.5,346.875" style="stroke:#181818;stroke-width:1.0;"/><line style="stroke:#181818;stroke-width:1.0;" x1="98.5" x2="365.5" y1="346.875" y2="346.875"/><text fill="#000000" font-family="sans-serif" font-size="13" font-weight="bold" lengthAdjust="spacing" textLength="7" x="105.5" y="342.1201">6</text><text fill="#000000" font-family="sans-serif" font-size="13" lengthAdjust="spacing" textLength="136" x="116.5" y="342.1201">selects request number</text><polygon fill="#181818" points="652.5,371.3984,662.5,375.3984,652.5,379.3984,656.5,375.3984" style="stroke:#181818;stroke-width:1.0;"/><line style="stroke:#181818;stroke-width:1.0;" x1="381.5" x2="658.5" y1="375.3984" y2="375.3984"/><text fill="#000000" font-family="sans-serif" font-size="13" font-weight="bold" lengthAdjust="spacing" textLength="7" x="388.5" y="370.6436">7</text><text fill="#000000" font-family="sans-serif" font-size="13" lengthAdjust="spacing" textLength="165" x="399.5" y="370.6436">getRequest(requestNum,list)</text><line style="stroke:#181818;stroke-width:1.0;" x1="674.5" x2="716.5" y1="403.9219" y2="403.9219"/><line style="stroke:#181818;stroke-width:1.0;" x1="716.5" x2="716.5" y1="403.9219" y2="416.9219"/><line style="stroke:#181818;stroke-width:1.0;" x1="675.5" x2="716.5" y1="416.9219" y2="416.9219"/><polygon fill="#181818" points="685.5,412.9219,675.5,416.9219,685.5,420.9219,681.5,416.9219" style="stroke:#181818;stroke-width:1.0;"/><text fill="#000000" font-family="sans-serif" font-size="13" font-weight="bold" lengthAdjust="spacing" textLength="7" x="681.5" y="399.167">8</text><text fill="#000000" font-family="sans-serif" font-size="13" lengthAdjust="spacing" textLength="165" x="692.5" y="399.167">getRequest(requestNum,list)</text><polygon fill="#181818" points="392.5,441.4453,382.5,445.4453,392.5,449.4453,388.5,445.4453" style="stroke:#181818;stroke-width:1.0;"/><line style="stroke:#181818;stroke-width:1.0;stroke-dasharray:2.0,2.0;" x1="386.5" x2="668.5" y1="445.4453" y2="445.4453"/><text fill="#000000" font-family="sans-serif" font-size="13" font-weight="bold" lengthAdjust="spacing" textLength="7" x="398.5" y="440.6904">9</text><text fill="#000000" font-family="sans-serif" font-size="13" lengthAdjust="spacing" textLength="43" x="409.5" y="440.6904">request</text><polygon fill="#181818" points="109.5,484.4922,99.5,488.4922,109.5,492.4922,105.5,488.4922" style="stroke:#181818;stroke-width:1.0;"/><line style="stroke:#181818;stroke-width:1.0;stroke-dasharray:2.0,2.0;" x1="103.5" x2="375.5" y1="488.4922" y2="488.4922"/><text fill="#000000" font-family="sans-serif" font-size="13" font-weight="bold" lengthAdjust="spacing" textLength="14" x="115.5" y="476.4756">10</text><text fill="#000000" font-family="sans-serif" font-size="13" lengthAdjust="spacing" textLength="214" x="133.5" y="469.2139">shows three options: accept request,</text><text fill="#000000" font-family="sans-serif" font-size="13" lengthAdjust="spacing" textLength="143" x="133.5" y="483.7373">delete request or cancel.</text><path d="M20,503.4922 L81,503.4922 L81,510.0156 L71,520.0156 L20,520.0156 L20,503.4922 " fill="#EEEEEE" style="stroke:#000000;stroke-width:1.5;"/><rect fill="none" height="628.0938" style="stroke:#000000;stroke-width:1.5;" width="1042.5" x="20" y="503.4922"/><text fill="#000000" font-family="sans-serif" font-size="13" font-weight="bold" lengthAdjust="spacing" textLength="16" x="35" y="516.2607">alt</text><text fill="#000000" font-family="sans-serif" font-size="11" font-weight="bold" lengthAdjust="spacing" textLength="138" x="96" y="515.4502">[option = accept request]</text><polygon fill="#181818" points="359.5,536.5391,369.5,540.5391,359.5,544.5391,363.5,540.5391" style="stroke:#181818;stroke-width:1.0;"/><line style="stroke:#181818;stroke-width:1.0;" x1="98.5" x2="365.5" y1="540.5391" y2="540.5391"/><text fill="#000000" font-family="sans-serif" font-size="13" font-weight="bold" lengthAdjust="spacing" textLength="14" x="105.5" y="535.7842">11</text><text fill="#000000" font-family="sans-serif" font-size="13" lengthAdjust="spacing" textLength="139" x="123.5" y="535.7842">chooses accept request</text><polygon fill="#181818" points="109.5,565.0625,99.5,569.0625,109.5,573.0625,105.5,569.0625" style="stroke:#181818;stroke-width:1.0;"/><line style="stroke:#181818;stroke-width:1.0;stroke-dasharray:2.0,2.0;" x1="103.5" x2="375.5" y1="569.0625" y2="569.0625"/><text fill="#000000" font-family="sans-serif" font-size="13" font-weight="bold" lengthAdjust="spacing" textLength="14" x="115.5" y="564.3076">12</text><text fill="#000000" font-family="sans-serif" font-size="13" lengthAdjust="spacing" textLength="211" x="133.5" y="564.3076">shows and asks type of commission</text><polygon fill="#181818" points="359.5,593.5859,369.5,597.5859,359.5,601.5859,363.5,597.5859" style="stroke:#181818;stroke-width:1.0;"/><line style="stroke:#181818;stroke-width:1.0;" x1="98.5" x2="365.5" y1="597.5859" y2="597.5859"/><text fill="#000000" font-family="sans-serif" font-size="13" font-weight="bold" lengthAdjust="spacing" textLength="14" x="105.5" y="592.8311">13</text><text fill="#000000" font-family="sans-serif" font-size="13" lengthAdjust="spacing" textLength="159" x="123.5" y="592.8311">selects type of commission</text><polygon fill="#181818" points="109.5,622.1094,99.5,626.1094,109.5,630.1094,105.5,626.1094" style="stroke:#181818;stroke-width:1.0;"/><line style="stroke:#181818;stroke-width:1.0;stroke-dasharray:2.0,2.0;" x1="103.5" x2="375.5" y1="626.1094" y2="626.1094"/><text fill="#000000" font-family="sans-serif" font-size="13" font-weight="bold" lengthAdjust="spacing" textLength="14" x="115.5" y="621.3545">14</text><text fill="#000000" font-family="sans-serif" font-size="13" lengthAdjust="spacing" textLength="135" x="133.5" y="621.3545">asks commission value</text><polygon fill="#181818" points="359.5,650.6328,369.5,654.6328,359.5,658.6328,363.5,654.6328" style="stroke:#181818;stroke-width:1.0;"/><line style="stroke:#181818;stroke-width:1.0;" x1="98.5" x2="365.5" y1="654.6328" y2="654.6328"/><text fill="#000000" font-family="sans-serif" font-size="13" font-weight="bold" lengthAdjust="spacing" textLength="14" x="105.5" y="649.8779">15</text><text fill="#000000" font-family="sans-serif" font-size="13" lengthAdjust="spacing" textLength="146" x="123.5" y="649.8779">inserts commission value</text><polygon fill="#181818" points="652.5,679.1563,662.5,683.1563,652.5,687.1563,656.5,683.1563" style="stroke:#181818;stroke-width:1.0;"/><line style="stroke:#181818;stroke-width:1.0;" x1="381.5" x2="658.5" y1="683.1563" y2="683.1563"/><text fill="#000000" font-family="sans-serif" font-size="13" font-weight="bold" lengthAdjust="spacing" textLength="14" x="388.5" y="678.4014">16</text><text fill="#000000" font-family="sans-serif" font-size="13" lengthAdjust="spacing" textLength="246" x="406.5" y="678.4014">create(commissiontype,commissionValue)</text><polygon fill="#181818" points="950.5,707.6797,960.5,711.6797,950.5,715.6797,954.5,711.6797" style="stroke:#181818;stroke-width:1.0;"/><line style="stroke:#181818;stroke-width:1.0;" x1="674.5" x2="956.5" y1="711.6797" y2="711.6797"/><text fill="#000000" font-family="sans-serif" font-size="13" font-weight="bold" lengthAdjust="spacing" textLength="14" x="681.5" y="706.9248">17</text><text fill="#000000" font-family="sans-serif" font-size="13" lengthAdjust="spacing" textLength="246" x="699.5" y="706.9248">create(commissiontype,commissionValue)</text><rect fill="#E3E3E3" height="29.6406" rx="2.5" ry="2.5" style="stroke:#181818;stroke-width:0.5;" width="90" x="962.5" y="691.1563"/><text fill="#000000" font-family="sans-serif" font-size="14" lengthAdjust="spacing" textLength="76" x="969.5" y="710.8301">Commission</text><polygon fill="#181818" points="392.5,748.3203,382.5,752.3203,392.5,756.3203,388.5,752.3203" style="stroke:#181818;stroke-width:1.0;"/><line style="stroke:#181818;stroke-width:1.0;stroke-dasharray:2.0,2.0;" x1="386.5" x2="668.5" y1="752.3203" y2="752.3203"/><text fill="#000000" font-family="sans-serif" font-size="13" font-weight="bold" lengthAdjust="spacing" textLength="14" x="398.5" y="747.5654">18</text><text fill="#000000" font-family="sans-serif" font-size="13" lengthAdjust="spacing" textLength="70" x="416.5" y="747.5654">commission</text><polygon fill="#181818" points="652.5,776.8438,662.5,780.8438,652.5,784.8438,656.5,780.8438" style="stroke:#181818;stroke-width:1.0;"/><line style="stroke:#181818;stroke-width:1.0;" x1="381.5" x2="658.5" y1="780.8438" y2="780.8438"/><text fill="#000000" font-family="sans-serif" font-size="13" font-weight="bold" lengthAdjust="spacing" textLength="14" x="388.5" y="776.0889">19</text><text fill="#000000" font-family="sans-serif" font-size="13" lengthAdjust="spacing" textLength="214" x="406.5" y="776.0889">AcceptRequest(request,commission)</text><rect fill="none" height="37.9297" style="stroke:#000000;stroke-width:1.5;" width="161" x="589" y="788.8438"/><path d="M589,788.8438 L651,788.8438 L651,794.8438 L641,804.8438 L589,804.8438 L589,788.8438 " fill="#EEEEEE" style="stroke:#000000;stroke-width:2.0;"/><text fill="#000000" font-family="sans-serif" font-size="13" font-weight="bold" lengthAdjust="spacing" textLength="17" x="602" y="802.6123">ref</text><text fill="#000000" font-family="sans-serif" font-size="12" lengthAdjust="spacing" textLength="83" x="628" y="819.707">AcceptRequest</text><polygon fill="#181818" points="392.5,848.2969,382.5,852.2969,392.5,856.2969,388.5,852.2969" style="stroke:#181818;stroke-width:1.0;"/><line style="stroke:#181818;stroke-width:1.0;stroke-dasharray:2.0,2.0;" x1="386.5" x2="668.5" y1="852.2969" y2="852.2969"/><text fill="#000000" font-family="sans-serif" font-size="13" font-weight="bold" lengthAdjust="spacing" textLength="14" x="398.5" y="847.542">20</text><text fill="#000000" font-family="sans-serif" font-size="13" lengthAdjust="spacing" textLength="111" x="416.5" y="847.542">saleAnnouncement</text><polygon fill="#181818" points="109.5,876.8203,99.5,880.8203,109.5,884.8203,105.5,880.8203" style="stroke:#181818;stroke-width:1.0;"/><line style="stroke:#181818;stroke-width:1.0;stroke-dasharray:2.0,2.0;" x1="103.5" x2="370.5" y1="880.8203" y2="880.8203"/><text fill="#000000" font-family="sans-serif" font-size="13" font-weight="bold" lengthAdjust="spacing" textLength="14" x="115.5" y="876.0654">21</text><text fill="#000000" font-family="sans-serif" font-size="13" lengthAdjust="spacing" textLength="226" x="133.5" y="876.0654">confirms that the add has been created</text><polygon fill="#181818" points="652.5,905.3438,662.5,909.3438,652.5,913.3438,656.5,909.3438" style="stroke:#181818;stroke-width:1.0;"/><line style="stroke:#181818;stroke-width:1.0;" x1="381.5" x2="658.5" y1="909.3438" y2="909.3438"/><text fill="#000000" font-family="sans-serif" font-size="13" font-weight="bold" lengthAdjust="spacing" textLength="14" x="388.5" y="904.5889">22</text><text fill="#000000" font-family="sans-serif" font-size="13" lengthAdjust="spacing" textLength="157" x="406.5" y="904.5889">DeleteRequest(request,list)</text><rect fill="none" height="37.9297" style="stroke:#000000;stroke-width:1.5;" width="161" x="589" y="917.3438"/><path d="M589,917.3438 L651,917.3438 L651,923.3438 L641,933.3438 L589,933.3438 L589,917.3438 " fill="#EEEEEE" style="stroke:#000000;stroke-width:2.0;"/><text fill="#000000" font-family="sans-serif" font-size="13" font-weight="bold" lengthAdjust="spacing" textLength="17" x="602" y="931.1123">ref</text><text fill="#000000" font-family="sans-serif" font-size="12" lengthAdjust="spacing" textLength="86" x="626.5" y="948.207">Delete Request</text><polygon fill="#181818" points="392.5,976.7969,382.5,980.7969,392.5,984.7969,388.5,980.7969" style="stroke:#181818;stroke-width:1.0;"/><line style="stroke:#181818;stroke-width:1.0;stroke-dasharray:2.0,2.0;" x1="386.5" x2="668.5" y1="980.7969" y2="980.7969"/><text fill="#000000" font-family="sans-serif" font-size="13" font-weight="bold" lengthAdjust="spacing" textLength="14" x="398.5" y="976.042">23</text><text fill="#000000" font-family="sans-serif" font-size="13" lengthAdjust="spacing" textLength="17" x="416.5" y="976.042">list</text><line style="stroke:#000000;stroke-width:1.0;stroke-dasharray:2.0,2.0;" x1="20" x2="1062.5" y1="989.7969" y2="989.7969"/><text fill="#000000" font-family="sans-serif" font-size="11" font-weight="bold" lengthAdjust="spacing" textLength="137" x="25" y="999.7549">[option = delete request]</text><polygon fill="#181818" points="359.5,1019.6094,369.5,1023.6094,359.5,1027.6094,363.5,1023.6094" style="stroke:#181818;stroke-width:1.0;"/><line style="stroke:#181818;stroke-width:1.0;" x1="98.5" x2="365.5" y1="1023.6094" y2="1023.6094"/><text fill="#000000" font-family="sans-serif" font-size="13" font-weight="bold" lengthAdjust="spacing" textLength="14" x="105.5" y="1018.8545">24</text><text fill="#000000" font-family="sans-serif" font-size="13" lengthAdjust="spacing" textLength="135" x="123.5" y="1018.8545">chooses delete request</text><polygon fill="#181818" points="652.5,1048.1328,662.5,1052.1328,652.5,1056.1328,656.5,1052.1328" style="stroke:#181818;stroke-width:1.0;"/><line style="stroke:#181818;stroke-width:1.0;" x1="381.5" x2="658.5" y1="1052.1328" y2="1052.1328"/><text fill="#000000" font-family="sans-serif" font-size="13" font-weight="bold" lengthAdjust="spacing" textLength="14" x="388.5" y="1047.3779">25</text><text fill="#000000" font-family="sans-serif" font-size="13" lengthAdjust="spacing" textLength="157" x="406.5" y="1047.3779">DeleteRequest(request,list)</text><rect fill="none" height="37.9297" style="stroke:#000000;stroke-width:1.5;" width="161" x="589" y="1060.1328"/><path d="M589,1060.1328 L651,1060.1328 L651,1066.1328 L641,1076.1328 L589,1076.1328 L589,1060.1328 " fill="#EEEEEE" style="stroke:#000000;stroke-width:2.0;"/><text fill="#000000" font-family="sans-serif" font-size="13" font-weight="bold" lengthAdjust="spacing" textLength="17" x="602" y="1073.9014">ref</text><text fill="#000000" font-family="sans-serif" font-size="12" lengthAdjust="spacing" textLength="86" x="626.5" y="1090.9961">Delete Request</text><polygon fill="#181818" points="392.5,1119.5859,382.5,1123.5859,392.5,1127.5859,388.5,1123.5859" style="stroke:#181818;stroke-width:1.0;"/><line style="stroke:#181818;stroke-width:1.0;stroke-dasharray:2.0,2.0;" x1="386.5" x2="668.5" y1="1123.5859" y2="1123.5859"/><text fill="#000000" font-family="sans-serif" font-size="13" font-weight="bold" lengthAdjust="spacing" textLength="14" x="398.5" y="1118.8311">26</text><text fill="#000000" font-family="sans-serif" font-size="13" lengthAdjust="spacing" textLength="17" x="416.5" y="1118.8311">list</text><polygon fill="#181818" points="652.5,1155.1094,662.5,1159.1094,652.5,1163.1094,656.5,1159.1094" style="stroke:#181818;stroke-width:1.0;"/><line style="stroke:#181818;stroke-width:1.0;" x1="381.5" x2="658.5" y1="1159.1094" y2="1159.1094"/><text fill="#000000" font-family="sans-serif" font-size="13" font-weight="bold" lengthAdjust="spacing" textLength="14" x="388.5" y="1154.3545">27</text><text fill="#000000" font-family="sans-serif" font-size="13" lengthAdjust="spacing" textLength="84" x="406.5" y="1154.3545">ListRequests()</text><rect fill="none" height="37.9297" style="stroke:#000000;stroke-width:1.5;" width="161" x="589" y="1167.1094"/><path d="M589,1167.1094 L651,1167.1094 L651,1173.1094 L641,1183.1094 L589,1183.1094 L589,1167.1094 " fill="#EEEEEE" style="stroke:#000000;stroke-width:2.0;"/><text fill="#000000" font-family="sans-serif" font-size="13" font-weight="bold" lengthAdjust="spacing" textLength="17" x="602" y="1180.8779">ref</text><text fill="#000000" font-family="sans-serif" font-size="12" lengthAdjust="spacing" textLength="74" x="632.5" y="1197.9727">ListRequests</text><polygon fill="#181818" points="392.5,1226.5625,382.5,1230.5625,392.5,1234.5625,388.5,1230.5625" style="stroke:#181818;stroke-width:1.0;"/><line style="stroke:#181818;stroke-width:1.0;stroke-dasharray:2.0,2.0;" x1="386.5" x2="668.5" y1="1230.5625" y2="1230.5625"/><text fill="#000000" font-family="sans-serif" font-size="13" font-weight="bold" lengthAdjust="spacing" textLength="14" x="398.5" y="1225.8076">28</text><text fill="#000000" font-family="sans-serif" font-size="13" lengthAdjust="spacing" textLength="17" x="416.5" y="1225.8076">list</text><polygon fill="#181818" points="109.5,1298.6563,99.5,1302.6563,109.5,1306.6563,105.5,1302.6563" style="stroke:#181818;stroke-width:1.0;"/><line style="stroke:#181818;stroke-width:1.0;stroke-dasharray:2.0,2.0;" x1="103.5" x2="375.5" y1="1302.6563" y2="1302.6563"/><text fill="#000000" font-family="sans-serif" font-size="13" font-weight="bold" lengthAdjust="spacing" textLength="14" x="115.5" y="1276.1162">29</text><text fill="#000000" font-family="sans-serif" font-size="13" lengthAdjust="spacing" textLength="179" x="133.5" y="1254.3311">confirms that the add has been</text><text fill="#000000" font-family="sans-serif" font-size="13" lengthAdjust="spacing" textLength="200" x="137.5" y="1268.8545">deleted and shows refreshed list of</text><text fill="#000000" font-family="sans-serif" font-size="13" lengthAdjust="spacing" textLength="183" x="133.5" y="1283.3779">offers by most recent dates and</text><text fill="#000000" font-family="sans-serif" font-size="13" lengthAdjust="spacing" textLength="171" x="137.5" y="1297.9014">asks to choose one or cancel</text><polygon fill="#181818" points="359.5,1334.1797,369.5,1338.1797,359.5,1342.1797,363.5,1338.1797" style="stroke:#181818;stroke-width:1.0;"/><line style="stroke:#181818;stroke-width:1.0;" x1="98.5" x2="365.5" y1="1338.1797" y2="1338.1797"/><text fill="#000000" font-family="sans-serif" font-size="13" font-weight="bold" lengthAdjust="spacing" textLength="14" x="105.5" y="1333.4248">30</text><text fill="#000000" font-family="sans-serif" font-size="13" lengthAdjust="spacing" textLength="99" x="123.5" y="1333.4248">selects to cancel</text><polygon fill="#181818" points="104.5,1362.7031,94.5,1366.7031,104.5,1370.7031,100.5,1366.7031" style="stroke:#181818;stroke-width:1.0;"/><line style="stroke:#181818;stroke-width:1.0;stroke-dasharray:2.0,2.0;" x1="98.5" x2="375.5" y1="1366.7031" y2="1366.7031"/><text fill="#000000" font-family="sans-serif" font-size="13" font-weight="bold" lengthAdjust="spacing" textLength="14" x="110.5" y="1361.9482">31</text><text fill="#000000" font-family="sans-serif" font-size="13" lengthAdjust="spacing" textLength="140" x="128.5" y="1361.9482">goes to the admin menu</text><!--SRC=[hLVRRjim37ttLn1zMLkq-u006n2qBmMw3UZMFUL5iUb4g2rwajmk-_fHliYNA8wRr40BI28FgSEB6FCYLI6qo24dHV5MKuvWTOcHyIU5Y5_41d_QNOQWCRP2RRA-WDcAXDwasa0gCeDH94fBgipNgAFeqrOc22cHNTFVICIMD5pyq1kXv3zX9IbORb3P2n06blVV8eQqCfQ5K1Ok5e_Is2VyKwAnpm-LpFF3OP4xKbPJbg6kHEz-FJqEXP-m82FPXTrYfHebqsrMMhpDEqEzEyfpQGnxMmFxPUG-lfHy5HOh_oDeFbx0xLVs5nQiysB04XX4oDXVe9IPhCrt6Xw7xzZkiJg3k9jSNpDGh945Bgy2vtpQeyBqP3nkHKZK6TIO0hsYhW_QtJwAtqILEF5Ejp9vsrxGNSeV9TXQx1jpdhAuesN1AKDlnbD1QOhQm7h7MSWxd6ES4P0mW86L4cow9J3U4Xa4Klod8HOgngmpiU-0ez8VPqJ5ld0_JWOppc_JnWQQ91wh1D634TbWI-LbW_czp6_SlQyEemwYCUJx9E1Xg1hn2TAYVjZsmzT6psurfpCLheWDvtWSOs5R-9kLIfXCYvvB7w_FKwRtICbiOmA-Z4pioOwYMUUAcQCLghpmvNtkTbcvAz0bSTmrXH34n1qFPU5Cv7SvNxdS0SAho4eyrs6f36ex4tUoUCO5rFIx3jXnSjCjVpipLzDsWkKqA2aFvthi6IO7XJO_7uwoiAmoU5JlFPTE9I3S_mTHxbiEIhGFmr4-m8WCbqfHoKqWvmP_CYq-cMDIgTIvQqN2yZy4aIImvHTwZQYQnpA9ZXCCzrMl6ZCSRgSVnMrj4uwGEuFOmUCxqTBzjsScCzXrsM7VFbhyRPkTeNOMvQU5uRJGd1YkzuJmZB3E2tN8aIFJoe7vyJJ-WcFaUxf7O7Jz0EAc6ao_kKptbfLgyZsf1e5w9E2BQ3HRtci7svMQ6crPat4cHzkPGzeuoOBJ18L01w_n926m8QnGQYvogO2xU7bi-FP-ZlPxI_UpwJy0]--></g></svg>