<?xml version="1.0" encoding="us-ascii" standalone="no"?><svg xmlns="http://www.w3.org/2000/svg" xmlns:xlink="http://www.w3.org/1999/xlink" contentStyleType="text/css" height="969.6px" preserveAspectRatio="none" style="width:855px;height:969px;background:#FFFFFF;" version="1.1" viewBox="0 0 855 969" width="855.2px" zoomAndPan="magnify"><defs/><g><!--class ListRequestUI--><g id="elem_ListRequestUI"><rect codeLine="14" fill="#F1F1F1" height="38.4" id="ListRequestUI" rx="2" ry="2" style="stroke:#181818;stroke-width:0.4000000000000001;" width="95.2" x="185.6" y="18"/><ellipse cx="197.6" cy="30.8" fill="#ADD1B2" rx="8.8" ry="8.8" style="stroke:#181818;stroke-width:0.8000000000000002;"/><path d="M199.8125,27.5 Q199.9375,27.325 200.0875,27.2375 Q200.2375,27.15 200.4125,27.15 Q200.7125,27.15 200.9,27.3625 Q201.0875,27.5625 201.0875,28.05 L201.0875,29.2125 Q201.0875,29.7 200.9,29.9125 Q200.7125,30.125 200.4125,30.125 Q200.1375,30.125 199.975,29.9625 Q199.8125,29.8125 199.725,29.4 Q199.6875,29.1125 199.5375,28.9625 Q199.275,28.6625 198.7875,28.4875 Q198.3,28.3125 197.8,28.3125 Q197.1875,28.3125 196.675,28.575 Q196.175,28.8375 195.775,29.4375 Q195.3875,30.0375 195.3875,30.8625 L195.3875,31.7375 Q195.3875,32.725 196.1,33.3875 Q196.8125,34.0375 198.0875,34.0375 Q198.8375,34.0375 199.3625,33.8375 Q199.675,33.7125 200.0125,33.3625 Q200.225,33.15 200.3375,33.0875 Q200.4625,33.025 200.625,33.025 Q200.8875,33.025 201.0875,33.2375 Q201.3,33.4375 201.3,33.7125 Q201.3,33.9875 201.025,34.3125 Q200.625,34.775 199.9875,35.0375 Q199.125,35.4 198.0875,35.4 Q196.875,35.4 195.9125,34.9 Q195.125,34.5 194.575,33.65 Q194.025,32.7875 194.025,31.7625 L194.025,30.8375 Q194.025,29.775 194.5125,28.8625 Q195.0125,27.9375 195.8875,27.45 Q196.7625,26.95 197.75,26.95 Q198.3375,26.95 198.85,27.0875 Q199.375,27.2125 199.8125,27.5 Z " fill="#000000"/><text fill="#000000" font-family="sans-serif" font-size="11.2" lengthAdjust="spacing" textLength="69.6" x="208.8" y="34.6828">ListRequestUI</text><line style="stroke:#181818;stroke-width:0.4000000000000001;" x1="186.4" x2="280" y1="43.6" y2="43.6"/><line style="stroke:#181818;stroke-width:0.4000000000000001;" x1="186.4" x2="280" y1="50" y2="50"/></g><!--class Repositories--><g id="elem_Repositories"><rect codeLine="17" fill="#F1F1F1" height="50.9125" id="Repositories" rx="2" ry="2" style="stroke:#181818;stroke-width:0.4000000000000001;" width="88.8" x="5.6" y="160.8"/><ellipse cx="17.6" cy="173.6" fill="#ADD1B2" rx="8.8" ry="8.8" style="stroke:#181818;stroke-width:0.8000000000000002;"/><path d="M19.8125,170.3 Q19.9375,170.125 20.0875,170.0375 Q20.2375,169.95 20.4125,169.95 Q20.7125,169.95 20.9,170.1625 Q21.0875,170.3625 21.0875,170.85 L21.0875,172.0125 Q21.0875,172.5 20.9,172.7125 Q20.7125,172.925 20.4125,172.925 Q20.1375,172.925 19.975,172.7625 Q19.8125,172.6125 19.725,172.2 Q19.6875,171.9125 19.5375,171.7625 Q19.275,171.4625 18.7875,171.2875 Q18.3,171.1125 17.8,171.1125 Q17.1875,171.1125 16.675,171.375 Q16.175,171.6375 15.775,172.2375 Q15.3875,172.8375 15.3875,173.6625 L15.3875,174.5375 Q15.3875,175.525 16.1,176.1875 Q16.8125,176.8375 18.0875,176.8375 Q18.8375,176.8375 19.3625,176.6375 Q19.675,176.5125 20.0125,176.1625 Q20.225,175.95 20.3375,175.8875 Q20.4625,175.825 20.625,175.825 Q20.8875,175.825 21.0875,176.0375 Q21.3,176.2375 21.3,176.5125 Q21.3,176.7875 21.025,177.1125 Q20.625,177.575 19.9875,177.8375 Q19.125,178.2 18.0875,178.2 Q16.875,178.2 15.9125,177.7 Q15.125,177.3 14.575,176.45 Q14.025,175.5875 14.025,174.5625 L14.025,173.6375 Q14.025,172.575 14.5125,171.6625 Q15.0125,170.7375 15.8875,170.25 Q16.7625,169.75 17.75,169.75 Q18.3375,169.75 18.85,169.8875 Q19.375,170.0125 19.8125,170.3 Z " fill="#000000"/><text fill="#000000" font-family="sans-serif" font-size="11.2" lengthAdjust="spacing" textLength="63.2" x="28.8" y="177.4828">Repositories</text><line style="stroke:#181818;stroke-width:0.4000000000000001;" x1="6.4" x2="93.6" y1="186.4" y2="186.4"/><line style="stroke:#181818;stroke-width:0.4000000000000001;" x1="6.4" x2="93.6" y1="192.8" y2="192.8"/><text fill="#000000" font-family="sans-serif" font-size="11.2" lengthAdjust="spacing" textLength="72.8" x="10.4" y="206.1391">+getInstance()</text></g><!--class ListRequestController--><g id="elem_ListRequestController"><rect codeLine="21" fill="#F1F1F1" height="50.9125" id="ListRequestController" rx="2" ry="2" style="stroke:#181818;stroke-width:0.4000000000000001;" width="160" x="309.2" y="11.6"/><ellipse cx="332.36" cy="24.4" fill="#ADD1B2" rx="8.8" ry="8.8" style="stroke:#181818;stroke-width:0.8000000000000002;"/><path d="M334.5725,21.1 Q334.6975,20.925 334.8475,20.8375 Q334.9975,20.75 335.1725,20.75 Q335.4725,20.75 335.66,20.9625 Q335.8475,21.1625 335.8475,21.65 L335.8475,22.8125 Q335.8475,23.3 335.66,23.5125 Q335.4725,23.725 335.1725,23.725 Q334.8975,23.725 334.735,23.5625 Q334.5725,23.4125 334.485,23 Q334.4475,22.7125 334.2975,22.5625 Q334.035,22.2625 333.5475,22.0875 Q333.06,21.9125 332.56,21.9125 Q331.9475,21.9125 331.435,22.175 Q330.935,22.4375 330.535,23.0375 Q330.1475,23.6375 330.1475,24.4625 L330.1475,25.3375 Q330.1475,26.325 330.86,26.9875 Q331.5725,27.6375 332.8475,27.6375 Q333.5975,27.6375 334.1225,27.4375 Q334.435,27.3125 334.7725,26.9625 Q334.985,26.75 335.0975,26.6875 Q335.2225,26.625 335.385,26.625 Q335.6475,26.625 335.8475,26.8375 Q336.06,27.0375 336.06,27.3125 Q336.06,27.5875 335.785,27.9125 Q335.385,28.375 334.7475,28.6375 Q333.885,29 332.8475,29 Q331.635,29 330.6725,28.5 Q329.885,28.1 329.335,27.25 Q328.785,26.3875 328.785,25.3625 L328.785,24.4375 Q328.785,23.375 329.2725,22.4625 Q329.7725,21.5375 330.6475,21.05 Q331.5225,20.55 332.51,20.55 Q333.0975,20.55 333.61,20.6875 Q334.135,20.8125 334.5725,21.1 Z " fill="#000000"/><text fill="#000000" font-family="sans-serif" font-size="11.2" lengthAdjust="spacing" textLength="109.6" x="346.04" y="28.2828">ListRequestController</text><line style="stroke:#181818;stroke-width:0.4000000000000001;" x1="310" x2="468.4" y1="37.2" y2="37.2"/><line style="stroke:#181818;stroke-width:0.4000000000000001;" x1="310" x2="468.4" y1="43.6" y2="43.6"/><text fill="#000000" font-family="sans-serif" font-size="11.2" lengthAdjust="spacing" textLength="150.4" x="314" y="56.9391">+getRequest(requestNum,list)</text></g><!--class repositories:Repositories--><g id="elem_repositories:Repositories"><rect codeLine="27" fill="#F1F1F1" height="63.425" id="repositories:Repositories" rx="2" ry="2" style="stroke:#181818;stroke-width:0.4000000000000001;" width="192.8" x="497.6" y="5.6"/><ellipse cx="528.32" cy="18.4" fill="#ADD1B2" rx="8.8" ry="8.8" style="stroke:#181818;stroke-width:0.8000000000000002;"/><path d="M530.5325,15.1 Q530.6575,14.925 530.8075,14.8375 Q530.9575,14.75 531.1325,14.75 Q531.4325,14.75 531.62,14.9625 Q531.8075,15.1625 531.8075,15.65 L531.8075,16.8125 Q531.8075,17.3 531.62,17.5125 Q531.4325,17.725 531.1325,17.725 Q530.8575,17.725 530.695,17.5625 Q530.5325,17.4125 530.445,17 Q530.4075,16.7125 530.2575,16.5625 Q529.995,16.2625 529.5075,16.0875 Q529.02,15.9125 528.52,15.9125 Q527.9075,15.9125 527.395,16.175 Q526.895,16.4375 526.495,17.0375 Q526.1075,17.6375 526.1075,18.4625 L526.1075,19.3375 Q526.1075,20.325 526.82,20.9875 Q527.5325,21.6375 528.8075,21.6375 Q529.5575,21.6375 530.0825,21.4375 Q530.395,21.3125 530.7325,20.9625 Q530.945,20.75 531.0575,20.6875 Q531.1825,20.625 531.345,20.625 Q531.6075,20.625 531.8075,20.8375 Q532.02,21.0375 532.02,21.3125 Q532.02,21.5875 531.745,21.9125 Q531.345,22.375 530.7075,22.6375 Q529.845,23 528.8075,23 Q527.595,23 526.6325,22.5 Q525.845,22.1 525.295,21.25 Q524.745,20.3875 524.745,19.3625 L524.745,18.4375 Q524.745,17.375 525.2325,16.4625 Q525.7325,15.5375 526.6075,15.05 Q527.4825,14.55 528.47,14.55 Q529.0575,14.55 529.57,14.6875 Q530.095,14.8125 530.5325,15.1 Z " fill="#000000"/><text fill="#000000" font-family="sans-serif" font-size="11.2" lengthAdjust="spacing" textLength="125.6" x="543.68" y="22.2828">repositories:Repositories</text><line style="stroke:#181818;stroke-width:0.4000000000000001;" x1="498.4" x2="689.6" y1="31.2" y2="31.2"/><line style="stroke:#181818;stroke-width:0.4000000000000001;" x1="498.4" x2="689.6" y1="37.6" y2="37.6"/><text fill="#000000" font-family="sans-serif" font-size="11.2" lengthAdjust="spacing" textLength="127.2" x="502.4" y="50.9391">+getRequestRepository()</text><text fill="#000000" font-family="sans-serif" font-size="11.2" lengthAdjust="spacing" textLength="183.2" x="502.4" y="63.4516">+getSaleAnnouncementRepository()</text></g><!--class PublishSaleAnnouncementController--><g id="elem_PublishSaleAnnouncementController"><rect codeLine="34" fill="#F1F1F1" height="50.9125" id="PublishSaleAnnouncementController" rx="2" ry="2" style="stroke:#181818;stroke-width:0.4000000000000001;" width="210.4" x="122.4" y="160.8"/><ellipse cx="134.4" cy="173.6" fill="#ADD1B2" rx="8.8" ry="8.8" style="stroke:#181818;stroke-width:0.8000000000000002;"/><path d="M136.6125,170.3 Q136.7375,170.125 136.8875,170.0375 Q137.0375,169.95 137.2125,169.95 Q137.5125,169.95 137.7,170.1625 Q137.8875,170.3625 137.8875,170.85 L137.8875,172.0125 Q137.8875,172.5 137.7,172.7125 Q137.5125,172.925 137.2125,172.925 Q136.9375,172.925 136.775,172.7625 Q136.6125,172.6125 136.525,172.2 Q136.4875,171.9125 136.3375,171.7625 Q136.075,171.4625 135.5875,171.2875 Q135.1,171.1125 134.6,171.1125 Q133.9875,171.1125 133.475,171.375 Q132.975,171.6375 132.575,172.2375 Q132.1875,172.8375 132.1875,173.6625 L132.1875,174.5375 Q132.1875,175.525 132.9,176.1875 Q133.6125,176.8375 134.8875,176.8375 Q135.6375,176.8375 136.1625,176.6375 Q136.475,176.5125 136.8125,176.1625 Q137.025,175.95 137.1375,175.8875 Q137.2625,175.825 137.425,175.825 Q137.6875,175.825 137.8875,176.0375 Q138.1,176.2375 138.1,176.5125 Q138.1,176.7875 137.825,177.1125 Q137.425,177.575 136.7875,177.8375 Q135.925,178.2 134.8875,178.2 Q133.675,178.2 132.7125,177.7 Q131.925,177.3 131.375,176.45 Q130.825,175.5875 130.825,174.5625 L130.825,173.6375 Q130.825,172.575 131.3125,171.6625 Q131.8125,170.7375 132.6875,170.25 Q133.5625,169.75 134.55,169.75 Q135.1375,169.75 135.65,169.8875 Q136.175,170.0125 136.6125,170.3 Z " fill="#000000"/><text fill="#000000" font-family="sans-serif" font-size="11.2" lengthAdjust="spacing" textLength="184.8" x="145.6" y="177.4828">PublishSaleAnnouncementController</text><line style="stroke:#181818;stroke-width:0.4000000000000001;" x1="123.2" x2="332" y1="186.4" y2="186.4"/><line style="stroke:#181818;stroke-width:0.4000000000000001;" x1="123.2" x2="332" y1="192.8" y2="192.8"/><text fill="#000000" font-family="sans-serif" font-size="11.2" lengthAdjust="spacing" textLength="150.4" x="127.2" y="206.1391">+create(property,commission)</text></g><!--class SaleAnnouncementRepository--><g id="elem_SaleAnnouncementRepository"><rect codeLine="39" fill="#F1F1F1" height="63.425" id="SaleAnnouncementRepository" rx="2" ry="2" style="stroke:#181818;stroke-width:0.4000000000000001;" width="248" x="125.2" y="310.4"/><ellipse cx="169.4" cy="323.2" fill="#ADD1B2" rx="8.8" ry="8.8" style="stroke:#181818;stroke-width:0.8000000000000002;"/><path d="M171.6125,319.9 Q171.7375,319.725 171.8875,319.6375 Q172.0375,319.55 172.2125,319.55 Q172.5125,319.55 172.7,319.7625 Q172.8875,319.9625 172.8875,320.45 L172.8875,321.6125 Q172.8875,322.1 172.7,322.3125 Q172.5125,322.525 172.2125,322.525 Q171.9375,322.525 171.775,322.3625 Q171.6125,322.2125 171.525,321.8 Q171.4875,321.5125 171.3375,321.3625 Q171.075,321.0625 170.5875,320.8875 Q170.1,320.7125 169.6,320.7125 Q168.9875,320.7125 168.475,320.975 Q167.975,321.2375 167.575,321.8375 Q167.1875,322.4375 167.1875,323.2625 L167.1875,324.1375 Q167.1875,325.125 167.9,325.7875 Q168.6125,326.4375 169.8875,326.4375 Q170.6375,326.4375 171.1625,326.2375 Q171.475,326.1125 171.8125,325.7625 Q172.025,325.55 172.1375,325.4875 Q172.2625,325.425 172.425,325.425 Q172.6875,325.425 172.8875,325.6375 Q173.1,325.8375 173.1,326.1125 Q173.1,326.3875 172.825,326.7125 Q172.425,327.175 171.7875,327.4375 Q170.925,327.8 169.8875,327.8 Q168.675,327.8 167.7125,327.3 Q166.925,326.9 166.375,326.05 Q165.825,325.1875 165.825,324.1625 L165.825,323.2375 Q165.825,322.175 166.3125,321.2625 Q166.8125,320.3375 167.6875,319.85 Q168.5625,319.35 169.55,319.35 Q170.1375,319.35 170.65,319.4875 Q171.175,319.6125 171.6125,319.9 Z " fill="#000000"/><text fill="#000000" font-family="sans-serif" font-size="11.2" lengthAdjust="spacing" textLength="152.8" x="185.8" y="327.0828">SaleAnnouncementRepository</text><line style="stroke:#181818;stroke-width:0.4000000000000001;" x1="126" x2="372.4" y1="336" y2="336"/><text fill="#000000" font-family="sans-serif" font-size="11.2" lengthAdjust="spacing" textLength="238.4" x="130" y="349.3391">-List&lt;SaleAnnouncement&gt; saleAnnouncements</text><line style="stroke:#181818;stroke-width:0.4000000000000001;" x1="126" x2="372.4" y1="354.9125" y2="354.9125"/><text fill="#000000" font-family="sans-serif" font-size="11.2" lengthAdjust="spacing" textLength="150.4" x="130" y="368.2516">+create(property,commission)</text></g><!--class Commission--><g id="elem_Commission"><rect codeLine="46" fill="#F1F1F1" height="75.9375" id="Commission" rx="2" ry="2" style="stroke:#181818;stroke-width:0.4000000000000001;" width="226.4" x="247.2" y="559.2"/><ellipse cx="326.6" cy="572" fill="#ADD1B2" rx="8.8" ry="8.8" style="stroke:#181818;stroke-width:0.8000000000000002;"/><path d="M328.8125,568.7 Q328.9375,568.525 329.0875,568.4375 Q329.2375,568.35 329.4125,568.35 Q329.7125,568.35 329.9,568.5625 Q330.0875,568.7625 330.0875,569.25 L330.0875,570.4125 Q330.0875,570.9 329.9,571.1125 Q329.7125,571.325 329.4125,571.325 Q329.1375,571.325 328.975,571.1625 Q328.8125,571.0125 328.725,570.6 Q328.6875,570.3125 328.5375,570.1625 Q328.275,569.8625 327.7875,569.6875 Q327.3,569.5125 326.8,569.5125 Q326.1875,569.5125 325.675,569.775 Q325.175,570.0375 324.775,570.6375 Q324.3875,571.2375 324.3875,572.0625 L324.3875,572.9375 Q324.3875,573.925 325.1,574.5875 Q325.8125,575.2375 327.0875,575.2375 Q327.8375,575.2375 328.3625,575.0375 Q328.675,574.9125 329.0125,574.5625 Q329.225,574.35 329.3375,574.2875 Q329.4625,574.225 329.625,574.225 Q329.8875,574.225 330.0875,574.4375 Q330.3,574.6375 330.3,574.9125 Q330.3,575.1875 330.025,575.5125 Q329.625,575.975 328.9875,576.2375 Q328.125,576.6 327.0875,576.6 Q325.875,576.6 324.9125,576.1 Q324.125,575.7 323.575,574.85 Q323.025,573.9875 323.025,572.9625 L323.025,572.0375 Q323.025,570.975 323.5125,570.0625 Q324.0125,569.1375 324.8875,568.65 Q325.7625,568.15 326.75,568.15 Q327.3375,568.15 327.85,568.2875 Q328.375,568.4125 328.8125,568.7 Z " fill="#000000"/><text fill="#000000" font-family="sans-serif" font-size="11.2" lengthAdjust="spacing" textLength="60.8" x="343" y="575.8828">Commission</text><line style="stroke:#181818;stroke-width:0.4000000000000001;" x1="248" x2="472.8" y1="584.8" y2="584.8"/><text fill="#000000" font-family="sans-serif" font-size="11.2" lengthAdjust="spacing" textLength="142.4" x="252" y="598.1391">-boolean typeOfCommission</text><text fill="#000000" font-family="sans-serif" font-size="11.2" lengthAdjust="spacing" textLength="128.8" x="252" y="610.6516">-double commissionValue</text><line style="stroke:#181818;stroke-width:0.4000000000000001;" x1="248" x2="472.8" y1="616.225" y2="616.225"/><text fill="#000000" font-family="sans-serif" font-size="11.2" lengthAdjust="spacing" textLength="216.8" x="252" y="629.5641">+create(commissiontype,commissionValue)</text></g><!--class Request--><g id="elem_Request"><rect codeLine="52" fill="#F1F1F1" height="75.9375" id="Request" rx="2" ry="2" style="stroke:#181818;stroke-width:0.4000000000000001;" width="118.4" x="442" y="304"/><ellipse cx="476.68" cy="316.8" fill="#ADD1B2" rx="8.8" ry="8.8" style="stroke:#181818;stroke-width:0.8000000000000002;"/><path d="M478.8925,313.5 Q479.0175,313.325 479.1675,313.2375 Q479.3175,313.15 479.4925,313.15 Q479.7925,313.15 479.98,313.3625 Q480.1675,313.5625 480.1675,314.05 L480.1675,315.2125 Q480.1675,315.7 479.98,315.9125 Q479.7925,316.125 479.4925,316.125 Q479.2175,316.125 479.055,315.9625 Q478.8925,315.8125 478.805,315.4 Q478.7675,315.1125 478.6175,314.9625 Q478.355,314.6625 477.8675,314.4875 Q477.38,314.3125 476.88,314.3125 Q476.2675,314.3125 475.755,314.575 Q475.255,314.8375 474.855,315.4375 Q474.4675,316.0375 474.4675,316.8625 L474.4675,317.7375 Q474.4675,318.725 475.18,319.3875 Q475.8925,320.0375 477.1675,320.0375 Q477.9175,320.0375 478.4425,319.8375 Q478.755,319.7125 479.0925,319.3625 Q479.305,319.15 479.4175,319.0875 Q479.5425,319.025 479.705,319.025 Q479.9675,319.025 480.1675,319.2375 Q480.38,319.4375 480.38,319.7125 Q480.38,319.9875 480.105,320.3125 Q479.705,320.775 479.0675,321.0375 Q478.205,321.4 477.1675,321.4 Q475.955,321.4 474.9925,320.9 Q474.205,320.5 473.655,319.65 Q473.105,318.7875 473.105,317.7625 L473.105,316.8375 Q473.105,315.775 473.5925,314.8625 Q474.0925,313.9375 474.9675,313.45 Q475.8425,312.95 476.83,312.95 Q477.4175,312.95 477.93,313.0875 Q478.455,313.2125 478.8925,313.5 Z " fill="#000000"/><text fill="#000000" font-family="sans-serif" font-size="11.2" lengthAdjust="spacing" textLength="42.4" x="492.92" y="320.6828">Request</text><line style="stroke:#181818;stroke-width:0.4000000000000001;" x1="442.8" x2="559.6" y1="329.6" y2="329.6"/><text fill="#000000" font-family="sans-serif" font-size="11.2" lengthAdjust="spacing" textLength="59.2" x="446.8" y="342.9391">-String date</text><line style="stroke:#181818;stroke-width:0.4000000000000001;" x1="442.8" x2="559.6" y1="348.5125" y2="348.5125"/><text fill="#000000" font-family="sans-serif" font-size="11.2" lengthAdjust="spacing" textLength="108.8" x="446.8" y="361.8516">+Request(todayDate)</text><text fill="#000000" font-family="sans-serif" font-size="11.2" lengthAdjust="spacing" textLength="73.6" x="446.8" y="374.3641">+getProperty()</text></g><!--class SaleAnnouncement--><g id="elem_SaleAnnouncement"><rect codeLine="59" fill="#F1F1F1" height="50.9125" id="SaleAnnouncement" rx="2" ry="2" style="stroke:#181818;stroke-width:0.4000000000000001;" width="145.6" x="314" y="440.8"/><ellipse cx="335.72" cy="453.6" fill="#ADD1B2" rx="8.8" ry="8.8" style="stroke:#181818;stroke-width:0.8000000000000002;"/><path d="M337.9325,450.3 Q338.0575,450.125 338.2075,450.0375 Q338.3575,449.95 338.5325,449.95 Q338.8325,449.95 339.02,450.1625 Q339.2075,450.3625 339.2075,450.85 L339.2075,452.0125 Q339.2075,452.5 339.02,452.7125 Q338.8325,452.925 338.5325,452.925 Q338.2575,452.925 338.095,452.7625 Q337.9325,452.6125 337.845,452.2 Q337.8075,451.9125 337.6575,451.7625 Q337.395,451.4625 336.9075,451.2875 Q336.42,451.1125 335.92,451.1125 Q335.3075,451.1125 334.795,451.375 Q334.295,451.6375 333.895,452.2375 Q333.5075,452.8375 333.5075,453.6625 L333.5075,454.5375 Q333.5075,455.525 334.22,456.1875 Q334.9325,456.8375 336.2075,456.8375 Q336.9575,456.8375 337.4825,456.6375 Q337.795,456.5125 338.1325,456.1625 Q338.345,455.95 338.4575,455.8875 Q338.5825,455.825 338.745,455.825 Q339.0075,455.825 339.2075,456.0375 Q339.42,456.2375 339.42,456.5125 Q339.42,456.7875 339.145,457.1125 Q338.745,457.575 338.1075,457.8375 Q337.245,458.2 336.2075,458.2 Q334.995,458.2 334.0325,457.7 Q333.245,457.3 332.695,456.45 Q332.145,455.5875 332.145,454.5625 L332.145,453.6375 Q332.145,452.575 332.6325,451.6625 Q333.1325,450.7375 334.0075,450.25 Q334.8825,449.75 335.87,449.75 Q336.4575,449.75 336.97,449.8875 Q337.495,450.0125 337.9325,450.3 Z " fill="#000000"/><text fill="#000000" font-family="sans-serif" font-size="11.2" lengthAdjust="spacing" textLength="98.4" x="349.08" y="457.4828">SaleAnnouncement</text><line style="stroke:#181818;stroke-width:0.4000000000000001;" x1="314.8" x2="458.8" y1="466.4" y2="466.4"/><text fill="#000000" font-family="sans-serif" font-size="11.2" lengthAdjust="spacing" textLength="136" x="318.8" y="479.7391">-String announcementDate</text><line style="stroke:#181818;stroke-width:0.4000000000000001;" x1="314.8" x2="458.8" y1="485.3125" y2="485.3125"/></g><!--class RequestsRepository--><g id="elem_RequestsRepository"><rect codeLine="64" fill="#F1F1F1" height="113.475" id="RequestsRepository" rx="2" ry="2" style="stroke:#181818;stroke-width:0.4000000000000001;" width="137.6" x="457.2" y="129.6"/><ellipse cx="473.52" cy="142.4" fill="#ADD1B2" rx="8.8" ry="8.8" style="stroke:#181818;stroke-width:0.8000000000000002;"/><path d="M475.7325,139.1 Q475.8575,138.925 476.0075,138.8375 Q476.1575,138.75 476.3325,138.75 Q476.6325,138.75 476.82,138.9625 Q477.0075,139.1625 477.0075,139.65 L477.0075,140.8125 Q477.0075,141.3 476.82,141.5125 Q476.6325,141.725 476.3325,141.725 Q476.0575,141.725 475.895,141.5625 Q475.7325,141.4125 475.645,141 Q475.6075,140.7125 475.4575,140.5625 Q475.195,140.2625 474.7075,140.0875 Q474.22,139.9125 473.72,139.9125 Q473.1075,139.9125 472.595,140.175 Q472.095,140.4375 471.695,141.0375 Q471.3075,141.6375 471.3075,142.4625 L471.3075,143.3375 Q471.3075,144.325 472.02,144.9875 Q472.7325,145.6375 474.0075,145.6375 Q474.7575,145.6375 475.2825,145.4375 Q475.595,145.3125 475.9325,144.9625 Q476.145,144.75 476.2575,144.6875 Q476.3825,144.625 476.545,144.625 Q476.8075,144.625 477.0075,144.8375 Q477.22,145.0375 477.22,145.3125 Q477.22,145.5875 476.945,145.9125 Q476.545,146.375 475.9075,146.6375 Q475.045,147 474.0075,147 Q472.795,147 471.8325,146.5 Q471.045,146.1 470.495,145.25 Q469.945,144.3875 469.945,143.3625 L469.945,142.4375 Q469.945,141.375 470.4325,140.4625 Q470.9325,139.5375 471.8075,139.05 Q472.6825,138.55 473.67,138.55 Q474.2575,138.55 474.77,138.6875 Q475.295,138.8125 475.7325,139.1 Z " fill="#000000"/><text fill="#000000" font-family="sans-serif" font-size="11.2" lengthAdjust="spacing" textLength="102.4" x="485.68" y="146.2828">RequestsRepository</text><line style="stroke:#181818;stroke-width:0.4000000000000001;" x1="458" x2="594" y1="155.2" y2="155.2"/><text fill="#000000" font-family="sans-serif" font-size="11.2" lengthAdjust="spacing" textLength="124" x="462" y="168.5391">-List&lt;Request&gt; requests</text><line style="stroke:#181818;stroke-width:0.4000000000000001;" x1="458" x2="594" y1="174.1125" y2="174.1125"/><text fill="#000000" font-family="sans-serif" font-size="11.2" lengthAdjust="spacing" textLength="92" x="462" y="187.4516">+Collections.sort()</text><text fill="#000000" font-family="sans-serif" font-size="11.2" lengthAdjust="spacing" textLength="90.4" x="462" y="199.9641">+getRequestList()</text><text fill="#000000" font-family="sans-serif" font-size="11.2" lengthAdjust="spacing" textLength="128" x="462" y="212.4766">+DeleteRequest(request)</text><text fill="#000000" font-family="sans-serif" font-size="11.2" lengthAdjust="spacing" textLength="45.6" x="462" y="224.9891">-getList()</text><text fill="#000000" font-family="sans-serif" font-size="11.2" lengthAdjust="spacing" textLength="104.8" x="462" y="237.5016">-list.remove(request)</text></g><!--class Property--><g id="elem_Property"><rect codeLine="76" fill="#F1F1F1" height="88.45" id="Property" rx="2" ry="2" style="stroke:#181818;stroke-width:0.4000000000000001;" width="80" x="502" y="552.8"/><ellipse cx="519.04" cy="565.6" fill="#ADD1B2" rx="8.8" ry="8.8" style="stroke:#181818;stroke-width:0.8000000000000002;"/><path d="M521.2525,562.3 Q521.3775,562.125 521.5275,562.0375 Q521.6775,561.95 521.8525,561.95 Q522.1525,561.95 522.34,562.1625 Q522.5275,562.3625 522.5275,562.85 L522.5275,564.0125 Q522.5275,564.5 522.34,564.7125 Q522.1525,564.925 521.8525,564.925 Q521.5775,564.925 521.415,564.7625 Q521.2525,564.6125 521.165,564.2 Q521.1275,563.9125 520.9775,563.7625 Q520.715,563.4625 520.2275,563.2875 Q519.74,563.1125 519.24,563.1125 Q518.6275,563.1125 518.115,563.375 Q517.615,563.6375 517.215,564.2375 Q516.8275,564.8375 516.8275,565.6625 L516.8275,566.5375 Q516.8275,567.525 517.54,568.1875 Q518.2525,568.8375 519.5275,568.8375 Q520.2775,568.8375 520.8025,568.6375 Q521.115,568.5125 521.4525,568.1625 Q521.665,567.95 521.7775,567.8875 Q521.9025,567.825 522.065,567.825 Q522.3275,567.825 522.5275,568.0375 Q522.74,568.2375 522.74,568.5125 Q522.74,568.7875 522.465,569.1125 Q522.065,569.575 521.4275,569.8375 Q520.565,570.2 519.5275,570.2 Q518.315,570.2 517.3525,569.7 Q516.565,569.3 516.015,568.45 Q515.465,567.5875 515.465,566.5625 L515.465,565.6375 Q515.465,564.575 515.9525,563.6625 Q516.4525,562.7375 517.3275,562.25 Q518.2025,561.75 519.19,561.75 Q519.7775,561.75 520.29,561.8875 Q520.815,562.0125 521.2525,562.3 Z " fill="#000000"/><text fill="#000000" font-family="sans-serif" font-size="11.2" lengthAdjust="spacing" textLength="43.2" x="531.36" y="569.4828">Property</text><line style="stroke:#181818;stroke-width:0.4000000000000001;" x1="502.8" x2="581.2" y1="578.4" y2="578.4"/><text fill="#000000" font-family="sans-serif" font-size="11.2" lengthAdjust="spacing" textLength="42.4" x="506.8" y="591.7391">-int area</text><text fill="#000000" font-family="sans-serif" font-size="11.2" lengthAdjust="spacing" textLength="70.4" x="506.8" y="604.2516">-int cityCenter</text><text fill="#000000" font-family="sans-serif" font-size="11.2" lengthAdjust="spacing" textLength="44" x="506.8" y="616.7641">-int price</text><line style="stroke:#181818;stroke-width:0.4000000000000001;" x1="502.8" x2="581.2" y1="622.3375" y2="622.3375"/><text fill="#000000" font-family="sans-serif" font-size="11.2" lengthAdjust="spacing" textLength="57.6" x="506.8" y="635.6766">+Property()</text></g><!--class Dwelling--><g id="elem_Dwelling"><rect codeLine="84" fill="#F1F1F1" height="75.9375" id="Dwelling" rx="2" ry="2" style="stroke:#181818;stroke-width:0.4000000000000001;" width="126.4" x="269.2" y="727.2"/><ellipse cx="308.2" cy="740" fill="#ADD1B2" rx="8.8" ry="8.8" style="stroke:#181818;stroke-width:0.8000000000000002;"/><path d="M310.4125,736.7 Q310.5375,736.525 310.6875,736.4375 Q310.8375,736.35 311.0125,736.35 Q311.3125,736.35 311.5,736.5625 Q311.6875,736.7625 311.6875,737.25 L311.6875,738.4125 Q311.6875,738.9 311.5,739.1125 Q311.3125,739.325 311.0125,739.325 Q310.7375,739.325 310.575,739.1625 Q310.4125,739.0125 310.325,738.6 Q310.2875,738.3125 310.1375,738.1625 Q309.875,737.8625 309.3875,737.6875 Q308.9,737.5125 308.4,737.5125 Q307.7875,737.5125 307.275,737.775 Q306.775,738.0375 306.375,738.6375 Q305.9875,739.2375 305.9875,740.0625 L305.9875,740.9375 Q305.9875,741.925 306.7,742.5875 Q307.4125,743.2375 308.6875,743.2375 Q309.4375,743.2375 309.9625,743.0375 Q310.275,742.9125 310.6125,742.5625 Q310.825,742.35 310.9375,742.2875 Q311.0625,742.225 311.225,742.225 Q311.4875,742.225 311.6875,742.4375 Q311.9,742.6375 311.9,742.9125 Q311.9,743.1875 311.625,743.5125 Q311.225,743.975 310.5875,744.2375 Q309.725,744.6 308.6875,744.6 Q307.475,744.6 306.5125,744.1 Q305.725,743.7 305.175,742.85 Q304.625,741.9875 304.625,740.9625 L304.625,740.0375 Q304.625,738.975 305.1125,738.0625 Q305.6125,737.1375 306.4875,736.65 Q307.3625,736.15 308.35,736.15 Q308.9375,736.15 309.45,736.2875 Q309.975,736.4125 310.4125,736.7 Z " fill="#000000"/><text fill="#000000" font-family="sans-serif" font-size="11.2" lengthAdjust="spacing" textLength="41.6" x="324.6" y="743.8828">Dwelling</text><line style="stroke:#181818;stroke-width:0.4000000000000001;" x1="270" x2="394.8" y1="752.8" y2="752.8"/><text fill="#000000" font-family="sans-serif" font-size="11.2" lengthAdjust="spacing" textLength="92" x="274" y="766.1391">-int numBedrooms</text><text fill="#000000" font-family="sans-serif" font-size="11.2" lengthAdjust="spacing" textLength="95.2" x="274" y="778.6516">-int numBathrooms</text><text fill="#000000" font-family="sans-serif" font-size="11.2" lengthAdjust="spacing" textLength="116.8" x="274" y="791.1641">-int numParkingSpaces</text><line style="stroke:#181818;stroke-width:0.4000000000000001;" x1="270" x2="394.8" y1="796.7375" y2="796.7375"/></g><!--class House--><g id="elem_House"><rect codeLine="90" fill="#F1F1F1" height="75.9375" id="House" rx="2" ry="2" style="stroke:#181818;stroke-width:0.4000000000000001;" width="132" x="185.6" y="888.8"/><ellipse cx="232.2" cy="901.6" fill="#ADD1B2" rx="8.8" ry="8.8" style="stroke:#181818;stroke-width:0.8000000000000002;"/><path d="M234.4125,898.3 Q234.5375,898.125 234.6875,898.0375 Q234.8375,897.95 235.0125,897.95 Q235.3125,897.95 235.5,898.1625 Q235.6875,898.3625 235.6875,898.85 L235.6875,900.0125 Q235.6875,900.5 235.5,900.7125 Q235.3125,900.925 235.0125,900.925 Q234.7375,900.925 234.575,900.7625 Q234.4125,900.6125 234.325,900.2 Q234.2875,899.9125 234.1375,899.7625 Q233.875,899.4625 233.3875,899.2875 Q232.9,899.1125 232.4,899.1125 Q231.7875,899.1125 231.275,899.375 Q230.775,899.6375 230.375,900.2375 Q229.9875,900.8375 229.9875,901.6625 L229.9875,902.5375 Q229.9875,903.525 230.7,904.1875 Q231.4125,904.8375 232.6875,904.8375 Q233.4375,904.8375 233.9625,904.6375 Q234.275,904.5125 234.6125,904.1625 Q234.825,903.95 234.9375,903.8875 Q235.0625,903.825 235.225,903.825 Q235.4875,903.825 235.6875,904.0375 Q235.9,904.2375 235.9,904.5125 Q235.9,904.7875 235.625,905.1125 Q235.225,905.575 234.5875,905.8375 Q233.725,906.2 232.6875,906.2 Q231.475,906.2 230.5125,905.7 Q229.725,905.3 229.175,904.45 Q228.625,903.5875 228.625,902.5625 L228.625,901.6375 Q228.625,900.575 229.1125,899.6625 Q229.6125,898.7375 230.4875,898.25 Q231.3625,897.75 232.35,897.75 Q232.9375,897.75 233.45,897.8875 Q233.975,898.0125 234.4125,898.3 Z " fill="#000000"/><text fill="#000000" font-family="sans-serif" font-size="11.2" lengthAdjust="spacing" textLength="32" x="248.6" y="905.4828">House</text><line style="stroke:#181818;stroke-width:0.4000000000000001;" x1="186.4" x2="316.8" y1="914.4" y2="914.4"/><text fill="#000000" font-family="sans-serif" font-size="11.2" lengthAdjust="spacing" textLength="97.6" x="190.4" y="927.7391">-boolean basement</text><text fill="#000000" font-family="sans-serif" font-size="11.2" lengthAdjust="spacing" textLength="122.4" x="190.4" y="940.2516">-boolean inhabitableLoft</text><text fill="#000000" font-family="sans-serif" font-size="11.2" lengthAdjust="spacing" textLength="84.8" x="190.4" y="952.7641">-int sunExposure</text><line style="stroke:#181818;stroke-width:0.4000000000000001;" x1="186.4" x2="316.8" y1="958.3375" y2="958.3375"/></g><!--class PropertyType--><g id="elem_PropertyType"><rect codeLine="97" fill="#F1F1F1" height="50.9125" id="PropertyType" rx="2" ry="2" style="stroke:#181818;stroke-width:0.4000000000000001;" width="96.8" x="424" y="739.6"/><ellipse cx="437.08" cy="752.4" fill="#ADD1B2" rx="8.8" ry="8.8" style="stroke:#181818;stroke-width:0.8000000000000002;"/><path d="M439.2925,749.1 Q439.4175,748.925 439.5675,748.8375 Q439.7175,748.75 439.8925,748.75 Q440.1925,748.75 440.38,748.9625 Q440.5675,749.1625 440.5675,749.65 L440.5675,750.8125 Q440.5675,751.3 440.38,751.5125 Q440.1925,751.725 439.8925,751.725 Q439.6175,751.725 439.455,751.5625 Q439.2925,751.4125 439.205,751 Q439.1675,750.7125 439.0175,750.5625 Q438.755,750.2625 438.2675,750.0875 Q437.78,749.9125 437.28,749.9125 Q436.6675,749.9125 436.155,750.175 Q435.655,750.4375 435.255,751.0375 Q434.8675,751.6375 434.8675,752.4625 L434.8675,753.3375 Q434.8675,754.325 435.58,754.9875 Q436.2925,755.6375 437.5675,755.6375 Q438.3175,755.6375 438.8425,755.4375 Q439.155,755.3125 439.4925,754.9625 Q439.705,754.75 439.8175,754.6875 Q439.9425,754.625 440.105,754.625 Q440.3675,754.625 440.5675,754.8375 Q440.78,755.0375 440.78,755.3125 Q440.78,755.5875 440.505,755.9125 Q440.105,756.375 439.4675,756.6375 Q438.605,757 437.5675,757 Q436.355,757 435.3925,756.5 Q434.605,756.1 434.055,755.25 Q433.505,754.3875 433.505,753.3625 L433.505,752.4375 Q433.505,751.375 433.9925,750.4625 Q434.4925,749.5375 435.3675,749.05 Q436.2425,748.55 437.23,748.55 Q437.8175,748.55 438.33,748.6875 Q438.855,748.8125 439.2925,749.1 Z " fill="#000000"/><text fill="#000000" font-family="sans-serif" font-size="11.2" lengthAdjust="spacing" textLength="68.8" x="448.52" y="756.2828">PropertyType</text><line style="stroke:#181818;stroke-width:0.4000000000000001;" x1="424.8" x2="520" y1="765.2" y2="765.2"/><text fill="#000000" font-family="sans-serif" font-size="11.2" lengthAdjust="spacing" textLength="87.2" x="428.8" y="778.5391">-int propertyType</text><line style="stroke:#181818;stroke-width:0.4000000000000001;" x1="424.8" x2="520" y1="784.1125" y2="784.1125"/></g><!--class Address--><g id="elem_Address"><rect codeLine="101" fill="#F1F1F1" height="125.9875" id="Address" rx="2" ry="2" style="stroke:#181818;stroke-width:0.4000000000000001;" width="125.6" x="548.8" y="702.4"/><ellipse cx="587.4" cy="715.2" fill="#ADD1B2" rx="8.8" ry="8.8" style="stroke:#181818;stroke-width:0.8000000000000002;"/><path d="M589.6125,711.9 Q589.7375,711.725 589.8875,711.6375 Q590.0375,711.55 590.2125,711.55 Q590.5125,711.55 590.7,711.7625 Q590.8875,711.9625 590.8875,712.45 L590.8875,713.6125 Q590.8875,714.1 590.7,714.3125 Q590.5125,714.525 590.2125,714.525 Q589.9375,714.525 589.775,714.3625 Q589.6125,714.2125 589.525,713.8 Q589.4875,713.5125 589.3375,713.3625 Q589.075,713.0625 588.5875,712.8875 Q588.1,712.7125 587.6,712.7125 Q586.9875,712.7125 586.475,712.975 Q585.975,713.2375 585.575,713.8375 Q585.1875,714.4375 585.1875,715.2625 L585.1875,716.1375 Q585.1875,717.125 585.9,717.7875 Q586.6125,718.4375 587.8875,718.4375 Q588.6375,718.4375 589.1625,718.2375 Q589.475,718.1125 589.8125,717.7625 Q590.025,717.55 590.1375,717.4875 Q590.2625,717.425 590.425,717.425 Q590.6875,717.425 590.8875,717.6375 Q591.1,717.8375 591.1,718.1125 Q591.1,718.3875 590.825,718.7125 Q590.425,719.175 589.7875,719.4375 Q588.925,719.8 587.8875,719.8 Q586.675,719.8 585.7125,719.3 Q584.925,718.9 584.375,718.05 Q583.825,717.1875 583.825,716.1625 L583.825,715.2375 Q583.825,714.175 584.3125,713.2625 Q584.8125,712.3375 585.6875,711.85 Q586.5625,711.35 587.55,711.35 Q588.1375,711.35 588.65,711.4875 Q589.175,711.6125 589.6125,711.9 Z " fill="#000000"/><text fill="#000000" font-family="sans-serif" font-size="11.2" lengthAdjust="spacing" textLength="41.6" x="603.8" y="719.0828">Address</text><line style="stroke:#181818;stroke-width:0.4000000000000001;" x1="549.6" x2="673.6" y1="728" y2="728"/><text fill="#000000" font-family="sans-serif" font-size="11.2" lengthAdjust="spacing" textLength="52" x="553.6" y="741.3391">-int district</text><text fill="#000000" font-family="sans-serif" font-size="11.2" lengthAdjust="spacing" textLength="44" x="553.6" y="753.8516">-int state</text><text fill="#000000" font-family="sans-serif" font-size="11.2" lengthAdjust="spacing" textLength="36" x="553.6" y="766.3641">-int city</text><text fill="#000000" font-family="sans-serif" font-size="11.2" lengthAdjust="spacing" textLength="48" x="553.6" y="778.8766">-int street</text><text fill="#000000" font-family="sans-serif" font-size="11.2" lengthAdjust="spacing" textLength="61.6" x="553.6" y="791.3891">-int zip-code</text><line style="stroke:#181818;stroke-width:0.4000000000000001;" x1="549.6" x2="673.6" y1="796.9625" y2="796.9625"/><text fill="#000000" font-family="sans-serif" font-size="11.2" lengthAdjust="spacing" textLength="116" x="553.6" y="810.3016">+Address(district,state,</text><text fill="#000000" font-family="sans-serif" font-size="11.2" lengthAdjust="spacing" textLength="98.4" x="553.6" y="822.8141">city,street,zip-code)</text></g><!--class Photograph--><g id="elem_Photograph"><rect codeLine="110" fill="#F1F1F1" height="63.425" id="Photograph" rx="2" ry="2" style="stroke:#181818;stroke-width:0.4000000000000001;" width="147.2" x="702.8" y="733.6"/><ellipse cx="743.4" cy="746.4" fill="#ADD1B2" rx="8.8" ry="8.8" style="stroke:#181818;stroke-width:0.8000000000000002;"/><path d="M745.6125,743.1 Q745.7375,742.925 745.8875,742.8375 Q746.0375,742.75 746.2125,742.75 Q746.5125,742.75 746.7,742.9625 Q746.8875,743.1625 746.8875,743.65 L746.8875,744.8125 Q746.8875,745.3 746.7,745.5125 Q746.5125,745.725 746.2125,745.725 Q745.9375,745.725 745.775,745.5625 Q745.6125,745.4125 745.525,745 Q745.4875,744.7125 745.3375,744.5625 Q745.075,744.2625 744.5875,744.0875 Q744.1,743.9125 743.6,743.9125 Q742.9875,743.9125 742.475,744.175 Q741.975,744.4375 741.575,745.0375 Q741.1875,745.6375 741.1875,746.4625 L741.1875,747.3375 Q741.1875,748.325 741.9,748.9875 Q742.6125,749.6375 743.8875,749.6375 Q744.6375,749.6375 745.1625,749.4375 Q745.475,749.3125 745.8125,748.9625 Q746.025,748.75 746.1375,748.6875 Q746.2625,748.625 746.425,748.625 Q746.6875,748.625 746.8875,748.8375 Q747.1,749.0375 747.1,749.3125 Q747.1,749.5875 746.825,749.9125 Q746.425,750.375 745.7875,750.6375 Q744.925,751 743.8875,751 Q742.675,751 741.7125,750.5 Q740.925,750.1 740.375,749.25 Q739.825,748.3875 739.825,747.3625 L739.825,746.4375 Q739.825,745.375 740.3125,744.4625 Q740.8125,743.5375 741.6875,743.05 Q742.5625,742.55 743.55,742.55 Q744.1375,742.55 744.65,742.6875 Q745.175,742.8125 745.6125,743.1 Z " fill="#000000"/><text fill="#000000" font-family="sans-serif" font-size="11.2" lengthAdjust="spacing" textLength="59.2" x="759.8" y="750.2828">Photograph</text><line style="stroke:#181818;stroke-width:0.4000000000000001;" x1="703.6" x2="849.2" y1="759.2" y2="759.2"/><text fill="#000000" font-family="sans-serif" font-size="11.2" lengthAdjust="spacing" textLength="100.8" x="707.6" y="772.5391">-String photographs</text><line style="stroke:#181818;stroke-width:0.4000000000000001;" x1="703.6" x2="849.2" y1="778.1125" y2="778.1125"/><text fill="#000000" font-family="sans-serif" font-size="11.2" lengthAdjust="spacing" textLength="137.6" x="707.6" y="791.4516">+Photograph(photographs)</text></g><!--class Equipment--><g id="elem_Equipment"><rect codeLine="115" fill="#F1F1F1" height="63.425" id="Equipment" rx="2" ry="2" style="stroke:#181818;stroke-width:0.4000000000000001;" width="136" x="346" y="895.2"/><ellipse cx="383.8" cy="908" fill="#ADD1B2" rx="8.8" ry="8.8" style="stroke:#181818;stroke-width:0.8000000000000002;"/><path d="M386.0125,904.7 Q386.1375,904.525 386.2875,904.4375 Q386.4375,904.35 386.6125,904.35 Q386.9125,904.35 387.1,904.5625 Q387.2875,904.7625 387.2875,905.25 L387.2875,906.4125 Q387.2875,906.9 387.1,907.1125 Q386.9125,907.325 386.6125,907.325 Q386.3375,907.325 386.175,907.1625 Q386.0125,907.0125 385.925,906.6 Q385.8875,906.3125 385.7375,906.1625 Q385.475,905.8625 384.9875,905.6875 Q384.5,905.5125 384,905.5125 Q383.3875,905.5125 382.875,905.775 Q382.375,906.0375 381.975,906.6375 Q381.5875,907.2375 381.5875,908.0625 L381.5875,908.9375 Q381.5875,909.925 382.3,910.5875 Q383.0125,911.2375 384.2875,911.2375 Q385.0375,911.2375 385.5625,911.0375 Q385.875,910.9125 386.2125,910.5625 Q386.425,910.35 386.5375,910.2875 Q386.6625,910.225 386.825,910.225 Q387.0875,910.225 387.2875,910.4375 Q387.5,910.6375 387.5,910.9125 Q387.5,911.1875 387.225,911.5125 Q386.825,911.975 386.1875,912.2375 Q385.325,912.6 384.2875,912.6 Q383.075,912.6 382.1125,912.1 Q381.325,911.7 380.775,910.85 Q380.225,909.9875 380.225,908.9625 L380.225,908.0375 Q380.225,906.975 380.7125,906.0625 Q381.2125,905.1375 382.0875,904.65 Q382.9625,904.15 383.95,904.15 Q384.5375,904.15 385.05,904.2875 Q385.575,904.4125 386.0125,904.7 Z " fill="#000000"/><text fill="#000000" font-family="sans-serif" font-size="11.2" lengthAdjust="spacing" textLength="53.6" x="400.2" y="911.8828">Equipment</text><line style="stroke:#181818;stroke-width:0.4000000000000001;" x1="346.8" x2="481.2" y1="920.8" y2="920.8"/><text fill="#000000" font-family="sans-serif" font-size="11.2" lengthAdjust="spacing" textLength="100" x="350.8" y="934.1391">-int numEquipments</text><text fill="#000000" font-family="sans-serif" font-size="11.2" lengthAdjust="spacing" textLength="126.4" x="350.8" y="946.6516">-List&lt;String&gt; Equipments</text><line style="stroke:#181818;stroke-width:0.4000000000000001;" x1="346.8" x2="481.2" y1="952.225" y2="952.225"/></g><!--link ListRequestUI to ListRequestController--><g id="link_ListRequestUI_ListRequestController"><path codeLine="121" d="M281.12,37.2 C283.664,37.2 285.2,37.2 285.2,37.2 C285.2,37.2 294.256,37.2 304.808,37.2 " fill="none" id="ListRequestUI-to-ListRequestController" style="stroke:#181818;stroke-width:0.8000000000000002;stroke-dasharray:7.0,7.0;"/><polygon fill="#181818" points="309.072,37.2,301.872,34,305.072,37.2,301.872,40.4,309.072,37.2" style="stroke:#181818;stroke-width:0.8000000000000002;"/></g><!--link ListRequestController to Request--><g id="link_ListRequestController_Request"><path codeLine="122" d="M390.856,62.96 C394.48,117.64 402.8,243.2 402.8,243.2 C402.8,243.2 433.624,273.896 460.768,300.928 " fill="none" id="ListRequestController-to-Request" style="stroke:#181818;stroke-width:0.8000000000000002;stroke-dasharray:7.0,7.0;"/><polygon fill="#181818" points="463.72,303.872,460.8767,296.5238,460.8859,301.0493,456.3604,301.0584,463.72,303.872" style="stroke:#181818;stroke-width:0.8000000000000002;"/><text fill="#000000" font-family="sans-serif" font-size="10.4" lengthAdjust="spacing" textLength="38.4" x="403.6" y="190.2148">Request</text><text fill="#000000" font-family="sans-serif" font-size="10.4" lengthAdjust="spacing" textLength="4" x="453.6746" y="295.4278">*</text></g><!--link ListRequestController to RequestsRepository--><g id="link_ListRequestController_RequestsRepository"><path codeLine="123" d="M412.408,63.04 C428.528,80.432 450.712,104.376 471.208,126.48 " fill="none" id="ListRequestController-to-RequestsRepository" style="stroke:#181818;stroke-width:0.8000000000000002;stroke-dasharray:7.0,7.0;"/><polygon fill="#181818" points="473.952,129.448,471.4077,121.991,471.2341,126.5132,466.712,126.3396,473.952,129.448" style="stroke:#181818;stroke-width:0.8000000000000002;"/><text fill="#000000" font-family="sans-serif" font-size="10.4" lengthAdjust="spacing" textLength="93.6" x="450.8" y="103.0148">RequestsRepository</text><text fill="#000000" font-family="sans-serif" font-size="10.4" lengthAdjust="spacing" textLength="5.6" x="462.353" y="120.851">1</text></g><!--link RequestsRepository to Request--><g id="link_RequestsRepository_Request"><path codeLine="124" d="M516.976,243.232 C513.96,261.944 510.664,282.44 507.864,299.832 " fill="none" id="RequestsRepository-to-Request" style="stroke:#181818;stroke-width:0.8000000000000002;stroke-dasharray:7.0,7.0;"/><polygon fill="#181818" points="507.2,303.952,511.5123,297.3577,507.8409,300.0037,505.1949,296.3323,507.2,303.952" style="stroke:#181818;stroke-width:0.8000000000000002;"/><text fill="#000000" font-family="sans-serif" font-size="10.4" lengthAdjust="spacing" textLength="34.4" x="514" y="277.4148">creates</text><text fill="#000000" font-family="sans-serif" font-size="10.4" lengthAdjust="spacing" textLength="4" x="503.8125" y="295.5201">*</text></g><!--link ListRequestController to Property--><g id="link_ListRequestController_Property"><path codeLine="125" d="M462.8,62.832 C505.768,77.336 551.6,92.8 551.6,92.8 C551.6,92.8 608.4,129.6 608.4,129.6 C608.4,129.6 637.2,185.6 637.2,185.6 C637.2,185.6 637.2,185.6 637.2,467.2 C637.2,467.2 603.888,512.408 576.68,549.336 " fill="none" id="ListRequestController-to-Property" style="stroke:#181818;stroke-width:0.8000000000000002;stroke-dasharray:7.0,7.0;"/><polygon fill="#181818" points="574.232,552.656,581.0877,548.7728,576.6118,549.441,575.9436,544.9651,574.232,552.656" style="stroke:#181818;stroke-width:0.8000000000000002;"/><text fill="#000000" font-family="sans-serif" font-size="10.4" lengthAdjust="spacing" textLength="39.2" x="638" y="345.8148">Property</text><text fill="#000000" font-family="sans-serif" font-size="10.4" lengthAdjust="spacing" textLength="4" x="574.2944" y="544.1844">*</text></g><!--link Request to Property--><g id="link_Request_Property"><path codeLine="126" d="M507.224,380.216 C514.408,424.912 526.448,499.744 534.312,548.592 " fill="none" id="Request-to-Property" style="stroke:#181818;stroke-width:0.8000000000000002;stroke-dasharray:7.0,7.0;"/><polygon fill="#181818" points="534.96,552.648,536.9866,545.034,534.3303,548.6979,530.6664,546.0416,534.96,552.648" style="stroke:#181818;stroke-width:0.8000000000000002;"/><text fill="#000000" font-family="sans-serif" font-size="10.4" lengthAdjust="spacing" textLength="37.6" x="526" y="470.2148">refers to</text><text fill="#000000" font-family="sans-serif" font-size="10.4" lengthAdjust="spacing" textLength="5.6" x="528.0378" y="544.1753">1</text></g><!--link Request to SaleAnnouncement--><g id="link_Request_SaleAnnouncement"><path codeLine="127" d="M466.256,380.312 C449.056,398.768 428.68,420.64 412.872,437.616 " fill="none" id="Request-to-SaleAnnouncement" style="stroke:#181818;stroke-width:0.8000000000000002;stroke-dasharray:7.0,7.0;"/><polygon fill="#181818" points="409.976,440.728,417.222,437.6337,412.6996,437.7985,412.5348,433.276,409.976,440.728" style="stroke:#181818;stroke-width:0.8000000000000002;"/><text fill="#000000" font-family="sans-serif" font-size="10.4" lengthAdjust="spacing" textLength="49.6" x="445.2" y="414.2148">can turn to</text><text fill="#000000" font-family="sans-serif" font-size="10.4" lengthAdjust="spacing" textLength="5.6" x="408.8333" y="432.1793">1</text></g><!--link SaleAnnouncement to Commission--><g id="link_SaleAnnouncement_Commission"><path codeLine="129" d="M381.712,492.112 C378.072,509.92 373.088,534.288 368.864,554.992 " fill="none" id="SaleAnnouncement-to-Commission" style="stroke:#181818;stroke-width:0.8000000000000002;stroke-dasharray:7.0,7.0;"/><polygon fill="#181818" points="368.024,559.088,372.5991,552.6733,368.8238,555.1688,366.3283,551.3935,368.024,559.088" style="stroke:#181818;stroke-width:0.8000000000000002;"/><text fill="#000000" font-family="sans-serif" font-size="10.4" lengthAdjust="spacing" textLength="25.6" x="378" y="526.2148">has a</text><text fill="#000000" font-family="sans-serif" font-size="10.4" lengthAdjust="spacing" textLength="5.6" x="363.1627" y="550.6463">1</text></g><!--link SaleAnnouncement to Property--><g id="link_SaleAnnouncement_Property"><path codeLine="130" d="M416.728,492.112 C440,511.488 472.624,538.648 498.744,560.392 " fill="none" id="SaleAnnouncement-to-Property" style="stroke:#181818;stroke-width:0.8000000000000002;stroke-dasharray:7.0,7.0;"/><polygon fill="#181818" points="501.896,563.016,498.4108,555.9496,498.8222,560.4564,494.3154,560.8678,501.896,563.016" style="stroke:#181818;stroke-width:0.8000000000000002;"/><text fill="#000000" font-family="sans-serif" font-size="10.4" lengthAdjust="spacing" textLength="37.6" x="461.2" y="526.2148">refers to</text><text fill="#000000" font-family="sans-serif" font-size="10.4" lengthAdjust="spacing" textLength="5.6" x="489.9945" y="555.444">1</text></g><!--link Property to PropertyType--><g id="link_Property_PropertyType"><path codeLine="132" d="M523.712,641.72 C511.272,671.456 495.176,709.952 484.352,735.824 " fill="none" id="Property-to-PropertyType" style="stroke:#181818;stroke-width:0.8000000000000002;stroke-dasharray:7.0,7.0;"/><polygon fill="#181818" points="482.8,739.544,488.529,734.1349,484.3425,735.8534,482.624,731.6669,482.8,739.544" style="stroke:#181818;stroke-width:0.8000000000000002;"/><text fill="#000000" font-family="sans-serif" font-size="10.4" lengthAdjust="spacing" textLength="25.6" x="514.8" y="675.8148">has a</text><text fill="#000000" font-family="sans-serif" font-size="10.4" lengthAdjust="spacing" textLength="5.6" x="478.8625" y="730.9988">1</text></g><!--link Property to Address--><g id="link_Property_Address"><path codeLine="133" d="M560.288,641.72 C567.536,659.056 576.032,679.36 584,698.408 " fill="none" id="Property-to-Address" style="stroke:#181818;stroke-width:0.8000000000000002;stroke-dasharray:7.0,7.0;"/><polygon fill="#181818" points="585.584,702.2,585.7392,694.3224,584.0318,698.5135,579.8408,696.806,585.584,702.2" style="stroke:#181818;stroke-width:0.8000000000000002;"/><text fill="#000000" font-family="sans-serif" font-size="10.4" lengthAdjust="spacing" textLength="45.6" x="575.6" y="675.8148">located at</text><text fill="#000000" font-family="sans-serif" font-size="10.4" lengthAdjust="spacing" textLength="5.6" x="577.2375" y="693.8779">1</text></g><!--link Property to Photograph--><g id="link_Property_Photograph"><path codeLine="134" d="M582.032,626.416 C622.936,655.456 686.424,700.528 729.624,731.192 " fill="none" id="Property-to-Photograph" style="stroke:#181818;stroke-width:0.8000000000000002;stroke-dasharray:7.0,7.0;"/><polygon fill="#181818" points="732.96,733.56,728.9363,726.7858,729.6966,731.247,725.2354,732.0073,732.96,733.56" style="stroke:#181818;stroke-width:0.8000000000000002;"/><text fill="#000000" font-family="sans-serif" font-size="10.4" lengthAdjust="spacing" textLength="16.8" x="653.2" y="675.8148">has</text><text fill="#000000" font-family="sans-serif" font-size="10.4" lengthAdjust="spacing" textLength="16" x="707.4758" y="724.9266">1..*</text></g><!--link Property to Dwelling--><g id="link_Property_Dwelling"><path codeLine="135" d="M501.896,630.144 C493.736,636.68 487.6,641.6 487.6,641.6 C487.6,641.6 410,702.4 410,702.4 C410,702.4 397.504,712.384 382.544,724.336 " fill="none" id="Property-to-Dwelling" style="stroke:#181818;stroke-width:0.8000000000000002;stroke-dasharray:7.0,7.0;"/><polygon fill="#181818" points="379.104,727.08,386.7306,725.1014,382.2342,724.5896,382.7459,720.0931,379.104,727.08" style="stroke:#181818;stroke-width:0.8000000000000002;"/><text fill="#000000" font-family="sans-serif" font-size="10.4" lengthAdjust="spacing" textLength="31.2" x="457.2" y="675.8148">can be</text><text fill="#000000" font-family="sans-serif" font-size="10.4" lengthAdjust="spacing" textLength="5.6" x="380.2268" y="718.6371">1</text></g><!--link Dwelling to Equipment--><g id="link_Dwelling_Equipment"><path codeLine="136" d="M351.432,803.312 C364.984,829.888 383.072,865.36 396.32,891.328 " fill="none" id="Dwelling-to-Equipment" style="stroke:#181818;stroke-width:0.8000000000000002;stroke-dasharray:7.0,7.0;"/><polygon fill="#181818" points="398.232,895.088,397.8139,887.22,396.4158,891.5241,392.1117,890.126,398.232,895.088" style="stroke:#181818;stroke-width:0.8000000000000002;"/><text fill="#000000" font-family="sans-serif" font-size="10.4" lengthAdjust="spacing" textLength="40.8" x="382" y="862.2148">can have</text><text fill="#000000" font-family="sans-serif" font-size="10.4" lengthAdjust="spacing" textLength="4" x="391.0671" y="886.6739">*</text></g><!--link Dwelling to House--><g id="link_Dwelling_House"><path codeLine="137" d="M313.56,803.312 C301.2,827.776 285.04,859.784 272.32,884.968 " fill="none" id="Dwelling-to-House" style="stroke:#181818;stroke-width:0.8000000000000002;stroke-dasharray:7.0,7.0;"/><polygon fill="#181818" points="270.472,888.632,276.5605,883.631,272.2654,885.0566,270.8398,880.7615,270.472,888.632" style="stroke:#181818;stroke-width:0.8000000000000002;"/><text fill="#000000" font-family="sans-serif" font-size="10.4" lengthAdjust="spacing" textLength="31.2" x="288.4" y="862.2148">can be</text><text fill="#000000" font-family="sans-serif" font-size="10.4" lengthAdjust="spacing" textLength="5.6" x="267.333" y="880.1817">1</text></g><!--link ListRequestController to PublishSaleAnnouncementController--><g id="link_ListRequestController_PublishSaleAnnouncementController"><path codeLine="139" d="M354.76,62.832 C334.648,77.336 313.2,92.8 313.2,92.8 C313.2,92.8 278.472,130.448 253.256,157.784 " fill="none" id="ListRequestController-to-PublishSaleAnnouncementController" style="stroke:#181818;stroke-width:0.8000000000000002;stroke-dasharray:7.0,7.0;"/><polygon fill="#181818" points="250.536,160.728,257.776,157.6196,253.2539,157.7932,253.0803,153.271,250.536,160.728" style="stroke:#181818;stroke-width:0.8000000000000002;"/><text fill="#000000" font-family="sans-serif" font-size="10.4" lengthAdjust="spacing" textLength="53.6" x="314" y="103.0148">has access</text></g><!--link PublishSaleAnnouncementController to SaleAnnouncementRepository--><g id="link_PublishSaleAnnouncementController_SaleAnnouncementRepository"><path codeLine="140" d="M227.352,212.072 C227.12,235.56 226.8,267.2 226.8,267.2 C226.8,267.2 226.8,280 226.8,280 C226.8,280 231.408,292.584 236.44,306.344 " fill="none" id="PublishSaleAnnouncementController-to-SaleAnnouncementRepository" style="stroke:#181818;stroke-width:0.8000000000000002;stroke-dasharray:7.0,7.0;"/><polygon fill="#181818" points="237.872,310.24,238.3901,302.378,236.4913,306.4858,232.3834,304.5871,237.872,310.24" style="stroke:#181818;stroke-width:0.8000000000000002;"/><text fill="#000000" font-family="sans-serif" font-size="10.4" lengthAdjust="spacing" textLength="140" x="227.6" y="277.4148">SaleAnnouncementRepository</text></g><!--link SaleAnnouncementRepository to SaleAnnouncement--><g id="link_SaleAnnouncementRepository_SaleAnnouncement"><path codeLine="141" d="M283.92,373.784 C306.008,393.496 334.352,418.792 355.696,437.84 " fill="none" id="SaleAnnouncementRepository-to-SaleAnnouncement" style="stroke:#181818;stroke-width:0.8000000000000002;stroke-dasharray:7.0,7.0;"/><polygon fill="#181818" points="358.792,440.608,355.552,433.4259,355.808,437.9442,351.2898,438.2003,358.792,440.608" style="stroke:#181818;stroke-width:0.8000000000000002;"/><text fill="#000000" font-family="sans-serif" font-size="10.4" lengthAdjust="spacing" textLength="34.4" x="331.6" y="414.2148">creates</text></g><!--link ListRequestController to Repositories--><g id="link_ListRequestController_Repositories"><path codeLine="143" d="M313,62.864 C302.264,66.36 294.8,68.8 294.8,68.8 C294.8,68.8 108.4,129.6 108.4,129.6 C108.4,129.6 93.704,143.696 79.048,157.744 " fill="none" id="ListRequestController-to-Repositories" style="stroke:#181818;stroke-width:0.8000000000000002;stroke-dasharray:7.0,7.0;"/><polygon fill="#181818" points="76.128,160.552,83.5374,157.8724,79.0129,157.7812,79.1041,153.2566,76.128,160.552" style="stroke:#181818;stroke-width:0.8000000000000002;"/><text fill="#000000" font-family="sans-serif" font-size="10.4" lengthAdjust="spacing" textLength="53.6" x="219.6" y="103.0148">repositories</text></g><!--SRC=[XLRVRzem47xtNs7rfR02sbxHXDJHIgjKRQXiUzgBIOx4gcEdjjEEelxlEoTsOa80NWXtttttmvylN9jdBakcMK4B9LMIQrK0jRe2qdbAbZop3DPs9u1gI2oJcOW19cUfUkCoericJEmHN8BTbK1B9NRk1xaUS2fj5OcY4i6CkRLMyqrbuI5HSitVWNucrmAsbbf5DSzoIrFkgk5AalfJXz57RkmJl5HWxE-7FI4Vtlu4fJBSAit1q3svoS0-I8Ez930Q8-euVAcarKe8q8Yd-74ntZVIpVUFgfW831cx0a8g7QMQ3-Jr7ArdXmKu-ve9k9LILLXJ0V8GyD6rkAesc3FlmxjwCKsYWLaObLgLeErkagYYuCRWi1ggXkbqnZsPkb5yxICMrFGivd8odstPcfjvJZTA2M2IEXNyt7Rknfigx1DeH_Q72HHcVH8-O-Tp59CUD3fMFtAVTutIGhMcID7GXLErAcMxEpIFsmDV-QP6u-Y4-rCvv6MHnv6HepfCFEWwj1wszoweLvTfgbYwGws5RcO6Byjet9UZYmxMEn1WeQVJnZV5Y0WwTSgTQIZKAtH04fKRcaSrS6afmwatJmctkoMs1xhvNMgU0Bc9XzMItBs1mBkUUH9P5TyWrKeLfZCmcnzQLapZFiZMk7p0T5pVLMK0YO9oDipKO-uiNEPimor3wJoghMq8JINl_-74AmsH-aErlr0x-z17P-gotgQf1cCy9iMfORk1sheJReSIZ1h00zvvEKrKYjFnDAD0CAbZ9t-b2vmqCPC0ZyIxofLLcMPbZXLuZPMj3UzV1nX5zeZX_gNYPIFKCE3MPC9DhuaND78uWeDzIcUBuGr9XlVc3F5Ndww2xEayF9t3VxaQk2PTQ6Ga0xZZbCskC1TA36B0WF0Ow4DP4KJ35hJ1Lr4VSxGQN05knLLQEZWvyll0RljXHCuCPIUXWtMGrXegYUNTSXwXl2WH85I2SqefittKREO6r2gh8Jkc2XVTjxm1qbh2b5jnUKpENlie9AflUSTovkGklWf3umck4Ipv8joHdduh8jjf9paJDqHBvq6PPney-FimF_XhGVu3]--></g></svg>