<?xml version="1.0" encoding="us-ascii" standalone="no"?><svg xmlns="http://www.w3.org/2000/svg" xmlns:xlink="http://www.w3.org/1999/xlink" contentStyleType="text/css" height="555px" preserveAspectRatio="none" style="width:1368px;height:555px;background:#FFFFFF;" version="1.1" viewBox="0 0 1368 555" width="1368px" zoomAndPan="magnify"><defs/><g><rect fill="#FFFFFF" height="436.5625" style="stroke:#181818;stroke-width:1.0;" width="10" x="244" y="66.1641"/><rect fill="#FFFFFF" height="70.0469" style="stroke:#181818;stroke-width:1.0;" width="10" x="365" y="94.6875"/><rect fill="#FFFFFF" height="240.3047" style="stroke:#181818;stroke-width:1.0;" width="10" x="508" y="233.8984"/><rect fill="#FFFFFF" height="28.5234" style="stroke:#181818;stroke-width:1.0;" width="10" x="666" y="262.4219"/><rect fill="#FFFFFF" height="28.5234" style="stroke:#181818;stroke-width:1.0;" width="10" x="810" y="319.4688"/><rect fill="#FFFFFF" height="69.1641" style="stroke:#181818;stroke-width:1.0;" width="10" x="1008" y="376.5156"/><line style="stroke:#181818;stroke-width:0.5;stroke-dasharray:5.0,5.0;" x1="248.5" x2="248.5" y1="35.6406" y2="520.7266"/><line style="stroke:#181818;stroke-width:0.5;stroke-dasharray:5.0,5.0;" x1="369.5" x2="369.5" y1="35.6406" y2="520.7266"/><line style="stroke:#181818;stroke-width:0.5;stroke-dasharray:5.0,5.0;" x1="512.5" x2="512.5" y1="203.0547" y2="520.7266"/><line style="stroke:#181818;stroke-width:0.5;stroke-dasharray:5.0,5.0;" x1="670.5" x2="670.5" y1="35.6406" y2="520.7266"/><line style="stroke:#181818;stroke-width:0.5;stroke-dasharray:5.0,5.0;" x1="814.5" x2="814.5" y1="35.6406" y2="520.7266"/><line style="stroke:#181818;stroke-width:0.5;stroke-dasharray:5.0,5.0;" x1="1012.5" x2="1012.5" y1="35.6406" y2="520.7266"/><line style="stroke:#181818;stroke-width:0.5;stroke-dasharray:5.0,5.0;" x1="1293" x2="1293" y1="414.8359" y2="520.7266"/><rect fill="#E3E3E3" height="29.6406" rx="2.5" ry="2.5" style="stroke:#181818;stroke-width:0.5;" width="155" x="171.5" y="5"/><text fill="#000000" font-family="sans-serif" font-size="14" lengthAdjust="spacing" textLength="141" x="178.5" y="24.6738">:ListRequestController</text><rect fill="#E3E3E3" height="29.6406" rx="2.5" ry="2.5" style="stroke:#181818;stroke-width:0.5;" width="155" x="171.5" y="519.7266"/><text fill="#000000" font-family="sans-serif" font-size="14" lengthAdjust="spacing" textLength="141" x="178.5" y="539.4004">:ListRequestController</text><rect fill="#E3E3E3" height="29.6406" rx="2.5" ry="2.5" style="stroke:#181818;stroke-width:0.5;" width="67" x="336.5" y="5"/><text fill="#000000" font-family="sans-serif" font-size="14" lengthAdjust="spacing" textLength="53" x="343.5" y="24.6738">Request</text><rect fill="#E3E3E3" height="29.6406" rx="2.5" ry="2.5" style="stroke:#181818;stroke-width:0.5;" width="67" x="336.5" y="519.7266"/><text fill="#000000" font-family="sans-serif" font-size="14" lengthAdjust="spacing" textLength="53" x="343.5" y="539.4004">Request</text><rect fill="#E3E3E3" height="29.6406" rx="2.5" ry="2.5" style="stroke:#181818;stroke-width:0.5;" width="199" x="413.5" y="519.7266"/><text fill="#000000" font-family="sans-serif" font-size="14" lengthAdjust="spacing" textLength="185" x="420.5" y="539.4004">SaleAnnouncementController</text><rect fill="#E3E3E3" height="29.6406" rx="2.5" ry="2.5" style="stroke:#181818;stroke-width:0.5;" width="97" x="622.5" y="5"/><text fill="#000000" font-family="sans-serif" font-size="14" lengthAdjust="spacing" textLength="83" x="629.5" y="24.6738">:Repositories</text><rect fill="#E3E3E3" height="29.6406" rx="2.5" ry="2.5" style="stroke:#181818;stroke-width:0.5;" width="97" x="622.5" y="519.7266"/><text fill="#000000" font-family="sans-serif" font-size="14" lengthAdjust="spacing" textLength="83" x="629.5" y="539.4004">:Repositories</text><rect fill="#E3E3E3" height="29.6406" rx="2.5" ry="2.5" style="stroke:#181818;stroke-width:0.5;" width="171" x="729.5" y="5"/><text fill="#000000" font-family="sans-serif" font-size="14" lengthAdjust="spacing" textLength="157" x="736.5" y="24.6738">repositories:Repositories</text><rect fill="#E3E3E3" height="29.6406" rx="2.5" ry="2.5" style="stroke:#181818;stroke-width:0.5;" width="171" x="729.5" y="519.7266"/><text fill="#000000" font-family="sans-serif" font-size="14" lengthAdjust="spacing" textLength="157" x="736.5" y="539.4004">repositories:Repositories</text><rect fill="#E3E3E3" height="29.6406" rx="2.5" ry="2.5" style="stroke:#181818;stroke-width:0.5;" width="205" x="910.5" y="5"/><text fill="#000000" font-family="sans-serif" font-size="14" lengthAdjust="spacing" textLength="191" x="917.5" y="24.6738">SaleAnnouncementRepository</text><rect fill="#E3E3E3" height="29.6406" rx="2.5" ry="2.5" style="stroke:#181818;stroke-width:0.5;" width="205" x="910.5" y="519.7266"/><text fill="#000000" font-family="sans-serif" font-size="14" lengthAdjust="spacing" textLength="191" x="917.5" y="539.4004">SaleAnnouncementRepository</text><rect fill="#E3E3E3" height="29.6406" rx="2.5" ry="2.5" style="stroke:#181818;stroke-width:0.5;" width="137" x="1225" y="519.7266"/><text fill="#000000" font-family="sans-serif" font-size="14" lengthAdjust="spacing" textLength="123" x="1232" y="539.4004">SaleAnnouncement</text><rect fill="#FFFFFF" height="436.5625" style="stroke:#181818;stroke-width:1.0;" width="10" x="244" y="66.1641"/><rect fill="#FFFFFF" height="70.0469" style="stroke:#181818;stroke-width:1.0;" width="10" x="365" y="94.6875"/><rect fill="#FFFFFF" height="240.3047" style="stroke:#181818;stroke-width:1.0;" width="10" x="508" y="233.8984"/><rect fill="#FFFFFF" height="28.5234" style="stroke:#181818;stroke-width:1.0;" width="10" x="666" y="262.4219"/><rect fill="#FFFFFF" height="28.5234" style="stroke:#181818;stroke-width:1.0;" width="10" x="810" y="319.4688"/><rect fill="#FFFFFF" height="69.1641" style="stroke:#181818;stroke-width:1.0;" width="10" x="1008" y="376.5156"/><polygon fill="#181818" points="232,62.1641,242,66.1641,232,70.1641,236,66.1641" style="stroke:#181818;stroke-width:1.0;"/><line style="stroke:#181818;stroke-width:1.0;" x1="0" x2="238" y1="66.1641" y2="66.1641"/><text fill="#000000" font-family="sans-serif" font-size="13" font-weight="bold" lengthAdjust="spacing" textLength="7" x="7" y="61.4092">1</text><text fill="#000000" font-family="sans-serif" font-size="13" lengthAdjust="spacing" textLength="214" x="18" y="61.4092">AcceptRequest(request,commission)</text><polygon fill="#181818" points="353,90.6875,363,94.6875,353,98.6875,357,94.6875" style="stroke:#181818;stroke-width:1.0;"/><line style="stroke:#181818;stroke-width:1.0;" x1="254" x2="359" y1="94.6875" y2="94.6875"/><text fill="#000000" font-family="sans-serif" font-size="13" font-weight="bold" lengthAdjust="spacing" textLength="7" x="261" y="89.9326">2</text><text fill="#000000" font-family="sans-serif" font-size="13" lengthAdjust="spacing" textLength="75" x="272" y="89.9326">getProperty()</text><line style="stroke:#181818;stroke-width:1.0;" x1="375" x2="417" y1="123.2109" y2="123.2109"/><line style="stroke:#181818;stroke-width:1.0;" x1="417" x2="417" y1="123.2109" y2="136.2109"/><line style="stroke:#181818;stroke-width:1.0;" x1="376" x2="417" y1="136.2109" y2="136.2109"/><polygon fill="#181818" points="386,132.2109,376,136.2109,386,140.2109,382,136.2109" style="stroke:#181818;stroke-width:1.0;"/><text fill="#000000" font-family="sans-serif" font-size="13" font-weight="bold" lengthAdjust="spacing" textLength="7" x="382" y="118.4561">3</text><text fill="#000000" font-family="sans-serif" font-size="13" lengthAdjust="spacing" textLength="75" x="393" y="118.4561">getProperty()</text><polygon fill="#181818" points="265,160.7344,255,164.7344,265,168.7344,261,164.7344" style="stroke:#181818;stroke-width:1.0;"/><line style="stroke:#181818;stroke-width:1.0;stroke-dasharray:2.0,2.0;" x1="259" x2="369" y1="164.7344" y2="164.7344"/><text fill="#000000" font-family="sans-serif" font-size="13" font-weight="bold" lengthAdjust="spacing" textLength="7" x="271" y="159.9795">4</text><text fill="#000000" font-family="sans-serif" font-size="13" lengthAdjust="spacing" textLength="47" x="282" y="159.9795">property</text><polygon fill="#181818" points="401.5,189.2578,411.5,193.2578,401.5,197.2578,405.5,193.2578" style="stroke:#181818;stroke-width:1.0;"/><line style="stroke:#181818;stroke-width:1.0;" x1="254" x2="407.5" y1="193.2578" y2="193.2578"/><text fill="#000000" font-family="sans-serif" font-size="13" font-weight="bold" lengthAdjust="spacing" textLength="7" x="261" y="188.5029">5</text><text fill="#000000" font-family="sans-serif" font-size="13" lengthAdjust="spacing" textLength="44" x="272" y="188.5029">create()</text><rect fill="#E3E3E3" height="29.6406" rx="2.5" ry="2.5" style="stroke:#181818;stroke-width:0.5;" width="199" x="413.5" y="172.7344"/><text fill="#000000" font-family="sans-serif" font-size="14" lengthAdjust="spacing" textLength="185" x="420.5" y="192.4082">SaleAnnouncementController</text><polygon fill="#181818" points="496,229.8984,506,233.8984,496,237.8984,500,233.8984" style="stroke:#181818;stroke-width:1.0;"/><line style="stroke:#181818;stroke-width:1.0;" x1="254" x2="502" y1="233.8984" y2="233.8984"/><text fill="#000000" font-family="sans-serif" font-size="13" font-weight="bold" lengthAdjust="spacing" textLength="7" x="261" y="229.1436">6</text><text fill="#000000" font-family="sans-serif" font-size="13" lengthAdjust="spacing" textLength="165" x="272" y="229.1436">create(property,commission)</text><polygon fill="#181818" points="654,258.4219,664,262.4219,654,266.4219,658,262.4219" style="stroke:#181818;stroke-width:1.0;"/><line style="stroke:#181818;stroke-width:1.0;" x1="518" x2="660" y1="262.4219" y2="262.4219"/><text fill="#000000" font-family="sans-serif" font-size="13" font-weight="bold" lengthAdjust="spacing" textLength="7" x="525" y="257.667">7</text><text fill="#000000" font-family="sans-serif" font-size="13" lengthAdjust="spacing" textLength="75" x="536" y="257.667">getInstance()</text><polygon fill="#181818" points="529,286.9453,519,290.9453,529,294.9453,525,290.9453" style="stroke:#181818;stroke-width:1.0;"/><line style="stroke:#181818;stroke-width:1.0;stroke-dasharray:2.0,2.0;" x1="523" x2="670" y1="290.9453" y2="290.9453"/><text fill="#000000" font-family="sans-serif" font-size="13" font-weight="bold" lengthAdjust="spacing" textLength="7" x="535" y="286.1904">8</text><text fill="#000000" font-family="sans-serif" font-size="13" lengthAdjust="spacing" textLength="67" x="546" y="286.1904">repositories</text><polygon fill="#181818" points="798,315.4688,808,319.4688,798,323.4688,802,319.4688" style="stroke:#181818;stroke-width:1.0;"/><line style="stroke:#181818;stroke-width:1.0;" x1="518" x2="804" y1="319.4688" y2="319.4688"/><text fill="#000000" font-family="sans-serif" font-size="13" font-weight="bold" lengthAdjust="spacing" textLength="7" x="525" y="314.7139">9</text><text fill="#000000" font-family="sans-serif" font-size="13" lengthAdjust="spacing" textLength="201" x="536" y="314.7139">getSaleAnnouncementRepository()</text><polygon fill="#181818" points="529,343.9922,519,347.9922,529,351.9922,525,347.9922" style="stroke:#181818;stroke-width:1.0;"/><line style="stroke:#181818;stroke-width:1.0;stroke-dasharray:2.0,2.0;" x1="523" x2="814" y1="347.9922" y2="347.9922"/><text fill="#000000" font-family="sans-serif" font-size="13" font-weight="bold" lengthAdjust="spacing" textLength="14" x="535" y="343.2373">10</text><text fill="#000000" font-family="sans-serif" font-size="13" lengthAdjust="spacing" textLength="173" x="553" y="343.2373">saleAnnouncementRepository</text><polygon fill="#181818" points="996,372.5156,1006,376.5156,996,380.5156,1000,376.5156" style="stroke:#181818;stroke-width:1.0;"/><line style="stroke:#181818;stroke-width:1.0;" x1="518" x2="1002" y1="376.5156" y2="376.5156"/><text fill="#000000" font-family="sans-serif" font-size="13" font-weight="bold" lengthAdjust="spacing" textLength="14" x="525" y="371.7607">11</text><text fill="#000000" font-family="sans-serif" font-size="13" lengthAdjust="spacing" textLength="165" x="543" y="371.7607">create(property,commission)</text><polygon fill="#181818" points="1213,401.0391,1223,405.0391,1213,409.0391,1217,405.0391" style="stroke:#181818;stroke-width:1.0;"/><line style="stroke:#181818;stroke-width:1.0;" x1="1018" x2="1219" y1="405.0391" y2="405.0391"/><text fill="#000000" font-family="sans-serif" font-size="13" font-weight="bold" lengthAdjust="spacing" textLength="14" x="1025" y="400.2842">12</text><text fill="#000000" font-family="sans-serif" font-size="13" lengthAdjust="spacing" textLength="165" x="1043" y="400.2842">create(property,commission)</text><rect fill="#E3E3E3" height="29.6406" rx="2.5" ry="2.5" style="stroke:#181818;stroke-width:0.5;" width="137" x="1225" y="384.5156"/><text fill="#000000" font-family="sans-serif" font-size="14" lengthAdjust="spacing" textLength="123" x="1232" y="404.1895">SaleAnnouncement</text><polygon fill="#181818" points="529,441.6797,519,445.6797,529,449.6797,525,445.6797" style="stroke:#181818;stroke-width:1.0;"/><line style="stroke:#181818;stroke-width:1.0;stroke-dasharray:2.0,2.0;" x1="523" x2="1012" y1="445.6797" y2="445.6797"/><text fill="#000000" font-family="sans-serif" font-size="13" font-weight="bold" lengthAdjust="spacing" textLength="14" x="535" y="440.9248">13</text><text fill="#000000" font-family="sans-serif" font-size="13" lengthAdjust="spacing" textLength="111" x="553" y="440.9248">saleAnnouncement</text><polygon fill="#181818" points="265,470.2031,255,474.2031,265,478.2031,261,474.2031" style="stroke:#181818;stroke-width:1.0;"/><line style="stroke:#181818;stroke-width:1.0;stroke-dasharray:2.0,2.0;" x1="259" x2="512" y1="474.2031" y2="474.2031"/><text fill="#000000" font-family="sans-serif" font-size="13" font-weight="bold" lengthAdjust="spacing" textLength="14" x="271" y="469.4482">14</text><text fill="#000000" font-family="sans-serif" font-size="13" lengthAdjust="spacing" textLength="111" x="289" y="469.4482">saleAnnouncement</text><polygon fill="#181818" points="11,498.7266,1,502.7266,11,506.7266,7,502.7266" style="stroke:#181818;stroke-width:1.0;"/><line style="stroke:#181818;stroke-width:1.0;stroke-dasharray:2.0,2.0;" x1="5" x2="248" y1="502.7266" y2="502.7266"/><text fill="#000000" font-family="sans-serif" font-size="13" font-weight="bold" lengthAdjust="spacing" textLength="14" x="17" y="497.9717">15</text><text fill="#000000" font-family="sans-serif" font-size="13" lengthAdjust="spacing" textLength="111" x="35" y="497.9717">saleAnnouncement</text><!--SRC=[fLD1Ri8m4Bpx5HQNKbG-45ML4ATA72he1unPWaNiTUrDMtxVDCI6X8G4oCMHF3ExCzxrUsMiS49pZGRbpg46JYu7vkED5N8lKbZH8GFkG98mQNOEy3knmHzbKhuLcGV6H4veShq6nzZJJcs0Rn5fZR-i892IoWf3V9GibASbVENWQOw676OPk14Ndiy_buiwkCALjzL_7R0I6SoCmTn8q62QYgVhI-ra2HQz8dGAV5N1rY7k3D4Als0q-ucaG-odbnEHZB7fMvaAJsPIWWsvZTtnV96ejV9UeNbclEKJajIt83X6suOerOigbJ9FU0hquT22eyEuHpKyIHie2Dwe7MdHERSLenM_WT3DLNlrGPXC2bdfe61rjD7EEx52JyDVe36AhU16jJ8wUupjtVXY1INqFudjoDMMcJODdOzuNy33UuvjT-_302DNl7JPuRwpOAyxDjHWjSMFJaENlI0VIlrFwws5WiQWZEvPh6OgftMzLVrrEhsJ-GS0]--></g></svg>