<?xml version="1.0" encoding="us-ascii" standalone="no"?><svg xmlns="http://www.w3.org/2000/svg" xmlns:xlink="http://www.w3.org/1999/xlink" contentStyleType="text/css" height="432px" preserveAspectRatio="none" style="width:710px;height:432px;background:#FFFFFF;" version="1.1" viewBox="0 0 710 432" width="710px" zoomAndPan="magnify"><defs/><g><rect fill="#FFFFFF" height="291.7109" style="stroke:#181818;stroke-width:1.0;" width="10" x="114" y="81.8047"/><rect fill="#FFFFFF" height="28.5234" style="stroke:#181818;stroke-width:1.0;" width="10" x="250" y="110.3281"/><rect fill="#FFFFFF" height="28.5234" style="stroke:#181818;stroke-width:1.0;" width="10" x="394" y="167.375"/><rect fill="#FFFFFF" height="111.5703" style="stroke:#181818;stroke-width:1.0;" width="10" x="560.5" y="224.4219"/><line style="stroke:#181818;stroke-width:0.5;stroke-dasharray:5.0,5.0;" x1="118.5" x2="118.5" y1="51.2813" y2="382.5156"/><line style="stroke:#181818;stroke-width:0.5;stroke-dasharray:5.0,5.0;" x1="254.5" x2="254.5" y1="51.2813" y2="382.5156"/><line style="stroke:#181818;stroke-width:0.5;stroke-dasharray:5.0,5.0;" x1="398.5" x2="398.5" y1="51.2813" y2="382.5156"/><line style="stroke:#181818;stroke-width:0.5;stroke-dasharray:5.0,5.0;" x1="565.5" x2="565.5" y1="51.2813" y2="382.5156"/><rect fill="#E3E3E3" height="29.6406" rx="2.5" ry="2.5" style="stroke:#181818;stroke-width:0.5;" width="155" x="41.5" y="20.6406"/><text fill="#000000" font-family="sans-serif" font-size="14" lengthAdjust="spacing" textLength="141" x="48.5" y="40.3145">:ListRequestController</text><rect fill="#E3E3E3" height="29.6406" rx="2.5" ry="2.5" style="stroke:#181818;stroke-width:0.5;" width="155" x="41.5" y="381.5156"/><text fill="#000000" font-family="sans-serif" font-size="14" lengthAdjust="spacing" textLength="141" x="48.5" y="401.1895">:ListRequestController</text><rect fill="#E3E3E3" height="29.6406" rx="2.5" ry="2.5" style="stroke:#181818;stroke-width:0.5;" width="97" x="206.5" y="20.6406"/><text fill="#000000" font-family="sans-serif" font-size="14" lengthAdjust="spacing" textLength="83" x="213.5" y="40.3145">:Repositories</text><rect fill="#E3E3E3" height="29.6406" rx="2.5" ry="2.5" style="stroke:#181818;stroke-width:0.5;" width="97" x="206.5" y="381.5156"/><text fill="#000000" font-family="sans-serif" font-size="14" lengthAdjust="spacing" textLength="83" x="213.5" y="401.1895">:Repositories</text><rect fill="#E3E3E3" height="29.6406" rx="2.5" ry="2.5" style="stroke:#181818;stroke-width:0.5;" width="171" x="313.5" y="20.6406"/><text fill="#000000" font-family="sans-serif" font-size="14" lengthAdjust="spacing" textLength="157" x="320.5" y="40.3145">repositories:Repositories</text><rect fill="#E3E3E3" height="29.6406" rx="2.5" ry="2.5" style="stroke:#181818;stroke-width:0.5;" width="171" x="313.5" y="381.5156"/><text fill="#000000" font-family="sans-serif" font-size="14" lengthAdjust="spacing" textLength="157" x="320.5" y="401.1895">repositories:Repositories</text><rect fill="#E3E3E3" height="45.2813" rx="2.5" ry="2.5" style="stroke:#181818;stroke-width:0.5;" width="142" x="494.5" y="5"/><text fill="#000000" font-family="sans-serif" font-size="14" lengthAdjust="spacing" textLength="72" x="529.5" y="24.6738">Repository:</text><text fill="#000000" font-family="sans-serif" font-size="14" lengthAdjust="spacing" textLength="128" x="501.5" y="40.3145">RequestsRepository</text><rect fill="#E3E3E3" height="45.2813" rx="2.5" ry="2.5" style="stroke:#181818;stroke-width:0.5;" width="142" x="494.5" y="381.5156"/><text fill="#000000" font-family="sans-serif" font-size="14" lengthAdjust="spacing" textLength="72" x="529.5" y="401.1895">Repository:</text><text fill="#000000" font-family="sans-serif" font-size="14" lengthAdjust="spacing" textLength="128" x="501.5" y="416.8301">RequestsRepository</text><rect fill="#FFFFFF" height="291.7109" style="stroke:#181818;stroke-width:1.0;" width="10" x="114" y="81.8047"/><rect fill="#FFFFFF" height="28.5234" style="stroke:#181818;stroke-width:1.0;" width="10" x="250" y="110.3281"/><rect fill="#FFFFFF" height="28.5234" style="stroke:#181818;stroke-width:1.0;" width="10" x="394" y="167.375"/><rect fill="#FFFFFF" height="111.5703" style="stroke:#181818;stroke-width:1.0;" width="10" x="560.5" y="224.4219"/><polygon fill="#181818" points="102,77.8047,112,81.8047,102,85.8047,106,81.8047" style="stroke:#181818;stroke-width:1.0;"/><line style="stroke:#181818;stroke-width:1.0;" x1="0" x2="108" y1="81.8047" y2="81.8047"/><text fill="#000000" font-family="sans-serif" font-size="13" font-weight="bold" lengthAdjust="spacing" textLength="7" x="7" y="77.0498">1</text><text fill="#000000" font-family="sans-serif" font-size="13" lengthAdjust="spacing" textLength="84" x="18" y="77.0498">ListRequests()</text><polygon fill="#181818" points="238,106.3281,248,110.3281,238,114.3281,242,110.3281" style="stroke:#181818;stroke-width:1.0;"/><line style="stroke:#181818;stroke-width:1.0;" x1="124" x2="244" y1="110.3281" y2="110.3281"/><text fill="#000000" font-family="sans-serif" font-size="13" font-weight="bold" lengthAdjust="spacing" textLength="7" x="131" y="105.5732">2</text><text fill="#000000" font-family="sans-serif" font-size="13" lengthAdjust="spacing" textLength="75" x="142" y="105.5732">getInstance()</text><polygon fill="#181818" points="135,134.8516,125,138.8516,135,142.8516,131,138.8516" style="stroke:#181818;stroke-width:1.0;"/><line style="stroke:#181818;stroke-width:1.0;stroke-dasharray:2.0,2.0;" x1="129" x2="254" y1="138.8516" y2="138.8516"/><text fill="#000000" font-family="sans-serif" font-size="13" font-weight="bold" lengthAdjust="spacing" textLength="7" x="141" y="134.0967">3</text><text fill="#000000" font-family="sans-serif" font-size="13" lengthAdjust="spacing" textLength="67" x="152" y="134.0967">repositories</text><polygon fill="#181818" points="382,163.375,392,167.375,382,171.375,386,167.375" style="stroke:#181818;stroke-width:1.0;"/><line style="stroke:#181818;stroke-width:1.0;" x1="124" x2="388" y1="167.375" y2="167.375"/><text fill="#000000" font-family="sans-serif" font-size="13" font-weight="bold" lengthAdjust="spacing" textLength="7" x="131" y="162.6201">4</text><text fill="#000000" font-family="sans-serif" font-size="13" lengthAdjust="spacing" textLength="136" x="142" y="162.6201">getRequestRepository()</text><polygon fill="#181818" points="135,191.8984,125,195.8984,135,199.8984,131,195.8984" style="stroke:#181818;stroke-width:1.0;"/><line style="stroke:#181818;stroke-width:1.0;stroke-dasharray:2.0,2.0;" x1="129" x2="398" y1="195.8984" y2="195.8984"/><text fill="#000000" font-family="sans-serif" font-size="13" font-weight="bold" lengthAdjust="spacing" textLength="7" x="141" y="191.1436">5</text><text fill="#000000" font-family="sans-serif" font-size="13" lengthAdjust="spacing" textLength="105" x="152" y="191.1436">requestRepository</text><polygon fill="#181818" points="548.5,220.4219,558.5,224.4219,548.5,228.4219,552.5,224.4219" style="stroke:#181818;stroke-width:1.0;"/><line style="stroke:#181818;stroke-width:1.0;" x1="124" x2="554.5" y1="224.4219" y2="224.4219"/><text fill="#000000" font-family="sans-serif" font-size="13" font-weight="bold" lengthAdjust="spacing" textLength="7" x="131" y="219.667">6</text><text fill="#000000" font-family="sans-serif" font-size="13" lengthAdjust="spacing" textLength="95" x="142" y="219.667">getRequestList()</text><line style="stroke:#181818;stroke-width:1.0;" x1="570.5" x2="612.5" y1="252.9453" y2="252.9453"/><line style="stroke:#181818;stroke-width:1.0;" x1="612.5" x2="612.5" y1="252.9453" y2="265.9453"/><line style="stroke:#181818;stroke-width:1.0;" x1="571.5" x2="612.5" y1="265.9453" y2="265.9453"/><polygon fill="#181818" points="581.5,261.9453,571.5,265.9453,581.5,269.9453,577.5,265.9453" style="stroke:#181818;stroke-width:1.0;"/><text fill="#000000" font-family="sans-serif" font-size="13" font-weight="bold" lengthAdjust="spacing" textLength="7" x="577.5" y="248.1904">7</text><text fill="#000000" font-family="sans-serif" font-size="13" lengthAdjust="spacing" textLength="115" x="588.5" y="248.1904">Collections.sort(list)</text><line style="stroke:#181818;stroke-width:1.0;" x1="570.5" x2="612.5" y1="294.4688" y2="294.4688"/><line style="stroke:#181818;stroke-width:1.0;" x1="612.5" x2="612.5" y1="294.4688" y2="307.4688"/><line style="stroke:#181818;stroke-width:1.0;" x1="571.5" x2="612.5" y1="307.4688" y2="307.4688"/><polygon fill="#181818" points="581.5,303.4688,571.5,307.4688,581.5,311.4688,577.5,307.4688" style="stroke:#181818;stroke-width:1.0;"/><text fill="#000000" font-family="sans-serif" font-size="13" font-weight="bold" lengthAdjust="spacing" textLength="7" x="577.5" y="289.7139">8</text><text fill="#000000" font-family="sans-serif" font-size="13" lengthAdjust="spacing" textLength="95" x="588.5" y="289.7139">getRequestList()</text><polygon fill="#181818" points="135,331.9922,125,335.9922,135,339.9922,131,335.9922" style="stroke:#181818;stroke-width:1.0;"/><line style="stroke:#181818;stroke-width:1.0;stroke-dasharray:2.0,2.0;" x1="129" x2="564.5" y1="335.9922" y2="335.9922"/><text fill="#000000" font-family="sans-serif" font-size="13" font-weight="bold" lengthAdjust="spacing" textLength="7" x="141" y="331.2373">9</text><text fill="#000000" font-family="sans-serif" font-size="13" lengthAdjust="spacing" textLength="17" x="152" y="331.2373">list</text><polygon fill="#181818" points="11,360.5156,1,364.5156,11,368.5156,7,364.5156" style="stroke:#181818;stroke-width:1.0;"/><line style="stroke:#181818;stroke-width:1.0;stroke-dasharray:2.0,2.0;" x1="5" x2="113" y1="364.5156" y2="364.5156"/><text fill="#000000" font-family="sans-serif" font-size="13" font-weight="bold" lengthAdjust="spacing" textLength="14" x="17" y="359.7607">10</text><text fill="#000000" font-family="sans-serif" font-size="13" lengthAdjust="spacing" textLength="17" x="35" y="359.7607">list</text><!--SRC=[TP4xSeCm48PxdKBZ9dP13i1aqb1bnfMTCeqirg0nQ46x9F7j8n410YTRIj__M8bkndRAgLQsQ57N3bkGx0OGDDzqIjzK1MU-Do0TQ5QsQbA0QbNYbx6LlAg6G0WrCDgXlO0Jugas9SWh8b_mMtW16sqwPLdkygCXFa4_0761bXqs3RYTL2IBzzDn0v-WGpACpW2DZ3zO8ouX_iGV53DqppziR4BBOTJrGJTEzZesaxbCgjF-89HcywaOVekFZ6UzpgCLy9ib_seQKZAO1Y2RJTF-eeI95AdVR1d3bx8RxsY_Jl3Vjr6jSeICaqRssyYmkW-Rs2HqV2YvcUYGU1NXdxqABJqJEjuttl6mf3yg_a-Vs6N5O3PVhxPxoR8Lz0C0]--></g></svg>