<?xml version="1.0" encoding="us-ascii" standalone="no"?><svg xmlns="http://www.w3.org/2000/svg" xmlns:xlink="http://www.w3.org/1999/xlink" contentStyleType="text/css" height="432px" preserveAspectRatio="none" style="width:760px;height:432px;background:#FFFFFF;" version="1.1" viewBox="0 0 760 432" width="760px" zoomAndPan="magnify"><defs/><g><rect fill="#FFFFFF" height="282.7109" style="stroke:#181818;stroke-width:1.0;" width="10" x="166" y="81.8047"/><rect fill="#FFFFFF" height="28.5234" style="stroke:#181818;stroke-width:1.0;" width="10" x="302" y="110.3281"/><rect fill="#FFFFFF" height="28.5234" style="stroke:#181818;stroke-width:1.0;" width="10" x="446" y="167.375"/><rect fill="#FFFFFF" height="111.5703" style="stroke:#181818;stroke-width:1.0;" width="10" x="612.5" y="224.4219"/><line style="stroke:#181818;stroke-width:0.5;stroke-dasharray:5.0,5.0;" x1="170.5" x2="170.5" y1="51.2813" y2="382.5156"/><line style="stroke:#181818;stroke-width:0.5;stroke-dasharray:5.0,5.0;" x1="306.5" x2="306.5" y1="51.2813" y2="382.5156"/><line style="stroke:#181818;stroke-width:0.5;stroke-dasharray:5.0,5.0;" x1="450.5" x2="450.5" y1="51.2813" y2="382.5156"/><line style="stroke:#181818;stroke-width:0.5;stroke-dasharray:5.0,5.0;" x1="617.5" x2="617.5" y1="51.2813" y2="382.5156"/><rect fill="#E3E3E3" height="29.6406" rx="2.5" ry="2.5" style="stroke:#181818;stroke-width:0.5;" width="155" x="93.5" y="20.6406"/><text fill="#000000" font-family="sans-serif" font-size="14" lengthAdjust="spacing" textLength="141" x="100.5" y="40.3145">:ListRequestController</text><rect fill="#E3E3E3" height="29.6406" rx="2.5" ry="2.5" style="stroke:#181818;stroke-width:0.5;" width="155" x="93.5" y="381.5156"/><text fill="#000000" font-family="sans-serif" font-size="14" lengthAdjust="spacing" textLength="141" x="100.5" y="401.1895">:ListRequestController</text><rect fill="#E3E3E3" height="29.6406" rx="2.5" ry="2.5" style="stroke:#181818;stroke-width:0.5;" width="97" x="258.5" y="20.6406"/><text fill="#000000" font-family="sans-serif" font-size="14" lengthAdjust="spacing" textLength="83" x="265.5" y="40.3145">:Repositories</text><rect fill="#E3E3E3" height="29.6406" rx="2.5" ry="2.5" style="stroke:#181818;stroke-width:0.5;" width="97" x="258.5" y="381.5156"/><text fill="#000000" font-family="sans-serif" font-size="14" lengthAdjust="spacing" textLength="83" x="265.5" y="401.1895">:Repositories</text><rect fill="#E3E3E3" height="29.6406" rx="2.5" ry="2.5" style="stroke:#181818;stroke-width:0.5;" width="171" x="365.5" y="20.6406"/><text fill="#000000" font-family="sans-serif" font-size="14" lengthAdjust="spacing" textLength="157" x="372.5" y="40.3145">repositories:Repositories</text><rect fill="#E3E3E3" height="29.6406" rx="2.5" ry="2.5" style="stroke:#181818;stroke-width:0.5;" width="171" x="365.5" y="381.5156"/><text fill="#000000" font-family="sans-serif" font-size="14" lengthAdjust="spacing" textLength="157" x="372.5" y="401.1895">repositories:Repositories</text><rect fill="#E3E3E3" height="45.2813" rx="2.5" ry="2.5" style="stroke:#181818;stroke-width:0.5;" width="142" x="546.5" y="5"/><text fill="#000000" font-family="sans-serif" font-size="14" lengthAdjust="spacing" textLength="72" x="581.5" y="24.6738">Repository:</text><text fill="#000000" font-family="sans-serif" font-size="14" lengthAdjust="spacing" textLength="128" x="553.5" y="40.3145">RequestsRepository</text><rect fill="#E3E3E3" height="45.2813" rx="2.5" ry="2.5" style="stroke:#181818;stroke-width:0.5;" width="142" x="546.5" y="381.5156"/><text fill="#000000" font-family="sans-serif" font-size="14" lengthAdjust="spacing" textLength="72" x="581.5" y="401.1895">Repository:</text><text fill="#000000" font-family="sans-serif" font-size="14" lengthAdjust="spacing" textLength="128" x="553.5" y="416.8301">RequestsRepository</text><rect fill="#FFFFFF" height="282.7109" style="stroke:#181818;stroke-width:1.0;" width="10" x="166" y="81.8047"/><rect fill="#FFFFFF" height="28.5234" style="stroke:#181818;stroke-width:1.0;" width="10" x="302" y="110.3281"/><rect fill="#FFFFFF" height="28.5234" style="stroke:#181818;stroke-width:1.0;" width="10" x="446" y="167.375"/><rect fill="#FFFFFF" height="111.5703" style="stroke:#181818;stroke-width:1.0;" width="10" x="612.5" y="224.4219"/><polygon fill="#181818" points="154,77.8047,164,81.8047,154,85.8047,158,81.8047" style="stroke:#181818;stroke-width:1.0;"/><line style="stroke:#181818;stroke-width:1.0;" x1="0" x2="160" y1="81.8047" y2="81.8047"/><text fill="#000000" font-family="sans-serif" font-size="13" font-weight="bold" lengthAdjust="spacing" textLength="7" x="7" y="77.0498">1</text><text fill="#000000" font-family="sans-serif" font-size="13" lengthAdjust="spacing" textLength="136" x="18" y="77.0498">DeleteRequest(request)</text><polygon fill="#181818" points="290,106.3281,300,110.3281,290,114.3281,294,110.3281" style="stroke:#181818;stroke-width:1.0;"/><line style="stroke:#181818;stroke-width:1.0;" x1="176" x2="296" y1="110.3281" y2="110.3281"/><text fill="#000000" font-family="sans-serif" font-size="13" font-weight="bold" lengthAdjust="spacing" textLength="7" x="183" y="105.5732">2</text><text fill="#000000" font-family="sans-serif" font-size="13" lengthAdjust="spacing" textLength="75" x="194" y="105.5732">getInstance()</text><polygon fill="#181818" points="187,134.8516,177,138.8516,187,142.8516,183,138.8516" style="stroke:#181818;stroke-width:1.0;"/><line style="stroke:#181818;stroke-width:1.0;stroke-dasharray:2.0,2.0;" x1="181" x2="306" y1="138.8516" y2="138.8516"/><text fill="#000000" font-family="sans-serif" font-size="13" font-weight="bold" lengthAdjust="spacing" textLength="7" x="193" y="134.0967">3</text><text fill="#000000" font-family="sans-serif" font-size="13" lengthAdjust="spacing" textLength="67" x="204" y="134.0967">repositories</text><polygon fill="#181818" points="434,163.375,444,167.375,434,171.375,438,167.375" style="stroke:#181818;stroke-width:1.0;"/><line style="stroke:#181818;stroke-width:1.0;" x1="176" x2="440" y1="167.375" y2="167.375"/><text fill="#000000" font-family="sans-serif" font-size="13" font-weight="bold" lengthAdjust="spacing" textLength="7" x="183" y="162.6201">4</text><text fill="#000000" font-family="sans-serif" font-size="13" lengthAdjust="spacing" textLength="136" x="194" y="162.6201">getRequestRepository()</text><polygon fill="#181818" points="187,191.8984,177,195.8984,187,199.8984,183,195.8984" style="stroke:#181818;stroke-width:1.0;"/><line style="stroke:#181818;stroke-width:1.0;stroke-dasharray:2.0,2.0;" x1="181" x2="450" y1="195.8984" y2="195.8984"/><text fill="#000000" font-family="sans-serif" font-size="13" font-weight="bold" lengthAdjust="spacing" textLength="7" x="193" y="191.1436">5</text><text fill="#000000" font-family="sans-serif" font-size="13" lengthAdjust="spacing" textLength="105" x="204" y="191.1436">requestRepository</text><polygon fill="#181818" points="600.5,220.4219,610.5,224.4219,600.5,228.4219,604.5,224.4219" style="stroke:#181818;stroke-width:1.0;"/><line style="stroke:#181818;stroke-width:1.0;" x1="176" x2="606.5" y1="224.4219" y2="224.4219"/><text fill="#000000" font-family="sans-serif" font-size="13" font-weight="bold" lengthAdjust="spacing" textLength="7" x="183" y="219.667">6</text><text fill="#000000" font-family="sans-serif" font-size="13" lengthAdjust="spacing" textLength="136" x="194" y="219.667">DeleteRequest(request)</text><line style="stroke:#181818;stroke-width:1.0;" x1="622.5" x2="664.5" y1="252.9453" y2="252.9453"/><line style="stroke:#181818;stroke-width:1.0;" x1="664.5" x2="664.5" y1="252.9453" y2="265.9453"/><line style="stroke:#181818;stroke-width:1.0;" x1="623.5" x2="664.5" y1="265.9453" y2="265.9453"/><polygon fill="#181818" points="633.5,261.9453,623.5,265.9453,633.5,269.9453,629.5,265.9453" style="stroke:#181818;stroke-width:1.0;"/><text fill="#000000" font-family="sans-serif" font-size="13" font-weight="bold" lengthAdjust="spacing" textLength="7" x="629.5" y="248.1904">7</text><text fill="#000000" font-family="sans-serif" font-size="13" lengthAdjust="spacing" textLength="47" x="640.5" y="248.1904">getList()</text><line style="stroke:#181818;stroke-width:1.0;" x1="622.5" x2="664.5" y1="294.4688" y2="294.4688"/><line style="stroke:#181818;stroke-width:1.0;" x1="664.5" x2="664.5" y1="294.4688" y2="307.4688"/><line style="stroke:#181818;stroke-width:1.0;" x1="623.5" x2="664.5" y1="307.4688" y2="307.4688"/><polygon fill="#181818" points="633.5,303.4688,623.5,307.4688,633.5,311.4688,629.5,307.4688" style="stroke:#181818;stroke-width:1.0;"/><text fill="#000000" font-family="sans-serif" font-size="13" font-weight="bold" lengthAdjust="spacing" textLength="7" x="629.5" y="289.7139">8</text><text fill="#000000" font-family="sans-serif" font-size="13" lengthAdjust="spacing" textLength="113" x="640.5" y="289.7139">list.remove(request)</text><polygon fill="#181818" points="187,331.9922,177,335.9922,187,339.9922,183,335.9922" style="stroke:#181818;stroke-width:1.0;"/><line style="stroke:#181818;stroke-width:1.0;stroke-dasharray:2.0,2.0;" x1="181" x2="616.5" y1="335.9922" y2="335.9922"/><text fill="#000000" font-family="sans-serif" font-size="13" font-weight="bold" lengthAdjust="spacing" textLength="7" x="193" y="331.2373">9</text><text fill="#000000" font-family="sans-serif" font-size="13" lengthAdjust="spacing" textLength="95" x="204" y="331.2373">request removed</text><polygon fill="#181818" points="11,360.5156,1,364.5156,11,368.5156,7,364.5156" style="stroke:#181818;stroke-width:1.0;"/><line style="stroke:#181818;stroke-width:1.0;stroke-dasharray:2.0,2.0;" x1="5" x2="170" y1="364.5156" y2="364.5156"/><text fill="#000000" font-family="sans-serif" font-size="13" font-weight="bold" lengthAdjust="spacing" textLength="14" x="17" y="359.7607">10</text><text fill="#000000" font-family="sans-serif" font-size="13" lengthAdjust="spacing" textLength="95" x="35" y="359.7607">request removed</text><!--SRC=[hLCzRuCm4DtzAqvPcWxq1w2gIxfKoaGxTd7W0bQC3-mZRVvzpKS8WLGYA5wGuBrx7sVSGPb2Mfb3JeRYp5AEmBP2uVelXOmFCiLFFca4Yp5Ba-eXm6KoeHzbKjXBxL08MJ6PAj-X5U8fKmd2deXtz2iyWLMi2caOLk5MEOwmhD3nXWnRqXhj2gI3pLUq7O4ZBCWf9glGDHZ_uXfY1uYRy0cZ1vt2RzCvSPUN7Q-iUKB0-0HlZKy8uHqrCdO3rhPzFayP_nmPipfAnZRsR5eZxaruUzv3YlnXd5zEZEi5qdN6kQHQCEZJ3skVFIB1i_AYl7tahlFBpXPclpF-TGDWnouMzR2WYB8jub7thxlhyujez8TE_4hgl_gEBTmOels45uiv7V7-CETva-r0Ep5PifkvbDSWQ5KV8zkTFm00]--></g></svg>