<?xml version="1.0" encoding="us-ascii" standalone="no"?><svg xmlns="http://www.w3.org/2000/svg" xmlns:xlink="http://www.w3.org/1999/xlink" contentStyleType="text/css" height="764px" preserveAspectRatio="none" style="width:392px;height:764px;background:#FFFFFF;" version="1.1" viewBox="0 0 392 764" width="392px" zoomAndPan="magnify"><defs/><g><text fill="#000000" font-family="sans-serif" font-size="14" font-weight="bold" lengthAdjust="spacing" textLength="228" x="83.75" y="27.6738">System Sequence Diagram (SSD)</text><rect fill="#FFFFFF" height="548.2813" style="stroke:#181818;stroke-width:1.0;" width="10" x="46.5" y="127.2813"/><rect fill="#FFFFFF" height="43.0469" style="stroke:#181818;stroke-width:1.0;" width="10" x="329.5" y="147.8047"/><rect fill="#FFFFFF" height="43.0469" style="stroke:#181818;stroke-width:1.0;" width="10" x="329.5" y="242.8984"/><rect fill="#FFFFFF" height="28.5234" style="stroke:#181818;stroke-width:1.0;" width="10" x="329.5" y="337.9922"/><rect fill="#FFFFFF" height="28.5234" style="stroke:#181818;stroke-width:1.0;" width="10" x="329.5" y="395.0391"/><rect fill="#FFFFFF" height="150.4297" style="stroke:#181818;stroke-width:1.0;" width="10" x="329.5" y="452.0859"/><rect fill="#FFFFFF" height="28.5234" style="stroke:#181818;stroke-width:1.0;" width="10" x="329.5" y="638.0391"/><rect fill="none" height="404.6641" style="stroke:#000000;stroke-width:1.5;" width="376.5" x="10" y="205.8516"/><rect fill="none" height="230.4766" style="stroke:#000000;stroke-width:1.5;" width="356.5" x="20" y="300.9453"/><line style="stroke:#181818;stroke-width:0.5;stroke-dasharray:5.0,5.0;" x1="51" x2="51" y1="117.2813" y2="684.5625"/><line style="stroke:#181818;stroke-width:0.5;stroke-dasharray:5.0,5.0;" x1="334.5" x2="334.5" y1="117.2813" y2="684.5625"/><text fill="#000000" font-family="sans-serif" font-size="14" lengthAdjust="spacing" textLength="37" x="30" y="114.3145">Agent</text><ellipse cx="51.5" cy="50.1406" fill="#E3E3E3" rx="8" ry="8" style="stroke:#181818;stroke-width:0.5;"/><path d="M51.5,58.1406 L51.5,85.1406 M38.5,66.1406 L64.5,66.1406 M51.5,85.1406 L38.5,100.1406 M51.5,85.1406 L64.5,100.1406 " fill="none" style="stroke:#181818;stroke-width:0.5;"/><text fill="#000000" font-family="sans-serif" font-size="14" lengthAdjust="spacing" textLength="37" x="30" y="696.2363">Agent</text><ellipse cx="51.5" cy="707.7031" fill="#E3E3E3" rx="8" ry="8" style="stroke:#181818;stroke-width:0.5;"/><path d="M51.5,715.7031 L51.5,742.7031 M38.5,723.7031 L64.5,723.7031 M51.5,742.7031 L38.5,757.7031 M51.5,742.7031 L64.5,757.7031 " fill="none" style="stroke:#181818;stroke-width:0.5;"/><rect fill="#E3E3E3" height="29.6406" rx="2.5" ry="2.5" style="stroke:#181818;stroke-width:0.5;" width="64" x="302.5" y="86.6406"/><text fill="#000000" font-family="sans-serif" font-size="14" lengthAdjust="spacing" textLength="50" x="309.5" y="106.3145">:System</text><rect fill="#E3E3E3" height="29.6406" rx="2.5" ry="2.5" style="stroke:#181818;stroke-width:0.5;" width="64" x="302.5" y="683.5625"/><text fill="#000000" font-family="sans-serif" font-size="14" lengthAdjust="spacing" textLength="50" x="309.5" y="703.2363">:System</text><rect fill="#FFFFFF" height="548.2813" style="stroke:#181818;stroke-width:1.0;" width="10" x="46.5" y="127.2813"/><rect fill="#FFFFFF" height="43.0469" style="stroke:#181818;stroke-width:1.0;" width="10" x="329.5" y="147.8047"/><rect fill="#FFFFFF" height="43.0469" style="stroke:#181818;stroke-width:1.0;" width="10" x="329.5" y="242.8984"/><rect fill="#FFFFFF" height="28.5234" style="stroke:#181818;stroke-width:1.0;" width="10" x="329.5" y="337.9922"/><rect fill="#FFFFFF" height="28.5234" style="stroke:#181818;stroke-width:1.0;" width="10" x="329.5" y="395.0391"/><rect fill="#FFFFFF" height="150.4297" style="stroke:#181818;stroke-width:1.0;" width="10" x="329.5" y="452.0859"/><rect fill="#FFFFFF" height="28.5234" style="stroke:#181818;stroke-width:1.0;" width="10" x="329.5" y="638.0391"/><polygon fill="#181818" points="317.5,143.8047,327.5,147.8047,317.5,151.8047,321.5,147.8047" style="stroke:#181818;stroke-width:1.0;"/><line style="stroke:#181818;stroke-width:1.0;" x1="56.5" x2="323.5" y1="147.8047" y2="147.8047"/><text fill="#000000" font-family="sans-serif" font-size="13" font-weight="bold" lengthAdjust="spacing" textLength="7" x="63.5" y="143.0498">1</text><text fill="#000000" font-family="sans-serif" font-size="13" lengthAdjust="spacing" textLength="152" x="74.5" y="143.0498">asks to review list of offers</text><polygon fill="#181818" points="67.5,186.8516,57.5,190.8516,67.5,194.8516,63.5,190.8516" style="stroke:#181818;stroke-width:1.0;"/><line style="stroke:#181818;stroke-width:1.0;stroke-dasharray:2.0,2.0;" x1="61.5" x2="333.5" y1="190.8516" y2="190.8516"/><text fill="#000000" font-family="sans-serif" font-size="13" font-weight="bold" lengthAdjust="spacing" textLength="7" x="73.5" y="178.835">2</text><text fill="#000000" font-family="sans-serif" font-size="13" lengthAdjust="spacing" textLength="234" x="84.5" y="171.5732">shows list of offers by most recent dates</text><text fill="#000000" font-family="sans-serif" font-size="13" lengthAdjust="spacing" textLength="196" x="84.5" y="186.0967">and asks to choose one or cancel</text><path d="M10,205.8516 L83,205.8516 L83,212.375 L73,222.375 L10,222.375 L10,205.8516 " fill="#EEEEEE" style="stroke:#000000;stroke-width:1.5;"/><rect fill="none" height="404.6641" style="stroke:#000000;stroke-width:1.5;" width="376.5" x="10" y="205.8516"/><text fill="#000000" font-family="sans-serif" font-size="13" font-weight="bold" lengthAdjust="spacing" textLength="28" x="25" y="218.6201">loop</text><polygon fill="#181818" points="317.5,238.8984,327.5,242.8984,317.5,246.8984,321.5,242.8984" style="stroke:#181818;stroke-width:1.0;"/><line style="stroke:#181818;stroke-width:1.0;" x1="56.5" x2="323.5" y1="242.8984" y2="242.8984"/><text fill="#000000" font-family="sans-serif" font-size="13" font-weight="bold" lengthAdjust="spacing" textLength="7" x="63.5" y="238.1436">3</text><text fill="#000000" font-family="sans-serif" font-size="13" lengthAdjust="spacing" textLength="136" x="74.5" y="238.1436">selects request number</text><polygon fill="#181818" points="67.5,281.9453,57.5,285.9453,67.5,289.9453,63.5,285.9453" style="stroke:#181818;stroke-width:1.0;"/><line style="stroke:#181818;stroke-width:1.0;stroke-dasharray:2.0,2.0;" x1="61.5" x2="333.5" y1="285.9453" y2="285.9453"/><text fill="#000000" font-family="sans-serif" font-size="13" font-weight="bold" lengthAdjust="spacing" textLength="7" x="73.5" y="273.9287">4</text><text fill="#000000" font-family="sans-serif" font-size="13" lengthAdjust="spacing" textLength="214" x="84.5" y="266.667">shows three options: accept request,</text><text fill="#000000" font-family="sans-serif" font-size="13" lengthAdjust="spacing" textLength="143" x="84.5" y="281.1904">delete request or cancel.</text><path d="M20,300.9453 L81,300.9453 L81,307.4688 L71,317.4688 L20,317.4688 L20,300.9453 " fill="#EEEEEE" style="stroke:#000000;stroke-width:1.5;"/><rect fill="none" height="230.4766" style="stroke:#000000;stroke-width:1.5;" width="356.5" x="20" y="300.9453"/><text fill="#000000" font-family="sans-serif" font-size="13" font-weight="bold" lengthAdjust="spacing" textLength="16" x="35" y="313.7139">alt</text><text fill="#000000" font-family="sans-serif" font-size="11" font-weight="bold" lengthAdjust="spacing" textLength="138" x="96" y="312.9033">[option = accept request]</text><polygon fill="#181818" points="317.5,333.9922,327.5,337.9922,317.5,341.9922,321.5,337.9922" style="stroke:#181818;stroke-width:1.0;"/><line style="stroke:#181818;stroke-width:1.0;" x1="56.5" x2="323.5" y1="337.9922" y2="337.9922"/><text fill="#000000" font-family="sans-serif" font-size="13" font-weight="bold" lengthAdjust="spacing" textLength="7" x="63.5" y="333.2373">5</text><text fill="#000000" font-family="sans-serif" font-size="13" lengthAdjust="spacing" textLength="139" x="74.5" y="333.2373">chooses accept request</text><polygon fill="#181818" points="67.5,362.5156,57.5,366.5156,67.5,370.5156,63.5,366.5156" style="stroke:#181818;stroke-width:1.0;"/><line style="stroke:#181818;stroke-width:1.0;stroke-dasharray:2.0,2.0;" x1="61.5" x2="333.5" y1="366.5156" y2="366.5156"/><text fill="#000000" font-family="sans-serif" font-size="13" font-weight="bold" lengthAdjust="spacing" textLength="7" x="73.5" y="361.7607">6</text><text fill="#000000" font-family="sans-serif" font-size="13" lengthAdjust="spacing" textLength="211" x="84.5" y="361.7607">shows and asks type of commission</text><polygon fill="#181818" points="317.5,391.0391,327.5,395.0391,317.5,399.0391,321.5,395.0391" style="stroke:#181818;stroke-width:1.0;"/><line style="stroke:#181818;stroke-width:1.0;" x1="56.5" x2="323.5" y1="395.0391" y2="395.0391"/><text fill="#000000" font-family="sans-serif" font-size="13" font-weight="bold" lengthAdjust="spacing" textLength="7" x="63.5" y="390.2842">7</text><text fill="#000000" font-family="sans-serif" font-size="13" lengthAdjust="spacing" textLength="159" x="74.5" y="390.2842">selects type of commission</text><polygon fill="#181818" points="67.5,419.5625,57.5,423.5625,67.5,427.5625,63.5,423.5625" style="stroke:#181818;stroke-width:1.0;"/><line style="stroke:#181818;stroke-width:1.0;stroke-dasharray:2.0,2.0;" x1="61.5" x2="333.5" y1="423.5625" y2="423.5625"/><text fill="#000000" font-family="sans-serif" font-size="13" font-weight="bold" lengthAdjust="spacing" textLength="7" x="73.5" y="418.8076">8</text><text fill="#000000" font-family="sans-serif" font-size="13" lengthAdjust="spacing" textLength="135" x="84.5" y="418.8076">asks commission value</text><polygon fill="#181818" points="317.5,448.0859,327.5,452.0859,317.5,456.0859,321.5,452.0859" style="stroke:#181818;stroke-width:1.0;"/><line style="stroke:#181818;stroke-width:1.0;" x1="56.5" x2="323.5" y1="452.0859" y2="452.0859"/><text fill="#000000" font-family="sans-serif" font-size="13" font-weight="bold" lengthAdjust="spacing" textLength="7" x="63.5" y="447.3311">9</text><text fill="#000000" font-family="sans-serif" font-size="13" lengthAdjust="spacing" textLength="146" x="74.5" y="447.3311">inserts commission value</text><polygon fill="#181818" points="67.5,476.6094,57.5,480.6094,67.5,484.6094,63.5,480.6094" style="stroke:#181818;stroke-width:1.0;"/><line style="stroke:#181818;stroke-width:1.0;stroke-dasharray:2.0,2.0;" x1="61.5" x2="328.5" y1="480.6094" y2="480.6094"/><text fill="#000000" font-family="sans-serif" font-size="13" font-weight="bold" lengthAdjust="spacing" textLength="14" x="73.5" y="475.8545">10</text><text fill="#000000" font-family="sans-serif" font-size="13" lengthAdjust="spacing" textLength="226" x="91.5" y="475.8545">confirms that the add has been created</text><line style="stroke:#000000;stroke-width:1.0;stroke-dasharray:2.0,2.0;" x1="20" x2="376.5" y1="489.6094" y2="489.6094"/><text fill="#000000" font-family="sans-serif" font-size="11" font-weight="bold" lengthAdjust="spacing" textLength="137" x="25" y="499.5674">[option = delete request]</text><polygon fill="#181818" points="317.5,519.4219,327.5,523.4219,317.5,527.4219,321.5,523.4219" style="stroke:#181818;stroke-width:1.0;"/><line style="stroke:#181818;stroke-width:1.0;" x1="56.5" x2="323.5" y1="523.4219" y2="523.4219"/><text fill="#000000" font-family="sans-serif" font-size="13" font-weight="bold" lengthAdjust="spacing" textLength="14" x="63.5" y="518.667">11</text><text fill="#000000" font-family="sans-serif" font-size="13" lengthAdjust="spacing" textLength="135" x="81.5" y="518.667">chooses delete request</text><polygon fill="#181818" points="67.5,598.5156,57.5,602.5156,67.5,606.5156,63.5,602.5156" style="stroke:#181818;stroke-width:1.0;"/><line style="stroke:#181818;stroke-width:1.0;stroke-dasharray:2.0,2.0;" x1="61.5" x2="333.5" y1="602.5156" y2="602.5156"/><text fill="#000000" font-family="sans-serif" font-size="13" font-weight="bold" lengthAdjust="spacing" textLength="14" x="73.5" y="575.9756">12</text><text fill="#000000" font-family="sans-serif" font-size="13" lengthAdjust="spacing" textLength="179" x="91.5" y="554.1904">confirms that the add has been</text><text fill="#000000" font-family="sans-serif" font-size="13" lengthAdjust="spacing" textLength="200" x="95.5" y="568.7139">deleted and shows refreshed list of</text><text fill="#000000" font-family="sans-serif" font-size="13" lengthAdjust="spacing" textLength="183" x="91.5" y="583.2373">offers by most recent dates and</text><text fill="#000000" font-family="sans-serif" font-size="13" lengthAdjust="spacing" textLength="171" x="95.5" y="597.7607">asks to choose one or cancel</text><polygon fill="#181818" points="317.5,634.0391,327.5,638.0391,317.5,642.0391,321.5,638.0391" style="stroke:#181818;stroke-width:1.0;"/><line style="stroke:#181818;stroke-width:1.0;" x1="56.5" x2="323.5" y1="638.0391" y2="638.0391"/><text fill="#000000" font-family="sans-serif" font-size="13" font-weight="bold" lengthAdjust="spacing" textLength="14" x="63.5" y="633.2842">13</text><text fill="#000000" font-family="sans-serif" font-size="13" lengthAdjust="spacing" textLength="99" x="81.5" y="633.2842">selects to cancel</text><polygon fill="#181818" points="67.5,662.5625,57.5,666.5625,67.5,670.5625,63.5,666.5625" style="stroke:#181818;stroke-width:1.0;"/><line style="stroke:#181818;stroke-width:1.0;stroke-dasharray:2.0,2.0;" x1="61.5" x2="333.5" y1="666.5625" y2="666.5625"/><text fill="#000000" font-family="sans-serif" font-size="13" font-weight="bold" lengthAdjust="spacing" textLength="14" x="73.5" y="661.8076">14</text><text fill="#000000" font-family="sans-serif" font-size="13" lengthAdjust="spacing" textLength="140" x="91.5" y="661.8076">goes to the admin menu</text><!--SRC=[dPJ1Zjf038RlynGMfrRgzW6GMgdIzWcuSXac9XanOsV73eYthnD8iikoH3G252Rsv__tE2E7IAqlFaDcuj0KpWXQEdGoFMbzEFWQDtfE20M3UghJ-m1fVCMdI3NiVH9qJgDQwEOiYXas-DOX1OJNwEi-_Djcy_hTETyfKvTtMEm-A1TO_QcHT0LUu6zk4vyHdLNG66BhIM6rlY27YClja1gFNd5ESM3N-0zUVez2rfPs450s4yU89qXH57XldpqM6T8cseZl5w_vBuQQi6jppIUvOS3kR8sq5MkJMO7AK09RybHDnKF3B0XCzYqGlBKc3MNwgy9F2X9pwwQ0kxu4assBM5LhjLM_jdNCkKMEwtTyZRQqALQ3MurCOeqB0LiT-J-sL5b5nQdWPEJd7IUpZgHN9FowGKunNtcyT4qUfNrbSsaBvyqvjzZlPU2SeuZf_C2uusXnHnQGpqiUXCuqEFhKuN_BZ2HOT07ulCZ0j8ybzsFarNuGV5L1Os_j3f4W53HSDO4m2Sw3yN6qbZsCat6JDxyoI9LpZmKlADxIbLuDmt8PcuBxWjBOsdW6REdHAM2Pnddo572z-EKfu_U4JoV8WlcQSK1SNET8a96wHqUI-mS0]--></g></svg>