<?xml version="1.0" encoding="us-ascii" standalone="no"?><svg xmlns="http://www.w3.org/2000/svg" xmlns:xlink="http://www.w3.org/1999/xlink" contentStyleType="text/css" height="1239px" preserveAspectRatio="none" style="width:1430px;height:1239px;background:#FFFFFF;" version="1.1" viewBox="0 0 1430 1239" width="1430px" zoomAndPan="magnify"><defs/><g><rect fill="#FFFFFF" height="1051.3665" style="stroke:#181818;stroke-width:1.0;" width="10" x="37.5" y="94.0679"/><rect fill="#FFFFFF" height="347.1281" style="stroke:#181818;stroke-width:1.0;" width="10" x="358.5" y="117.7739"/><rect fill="#FFFFFF" height="49.412" style="stroke:#181818;stroke-width:1.0;" width="10" x="358.5" y="496.608"/><rect fill="#FFFFFF" height="568.7083" style="stroke:#181818;stroke-width:1.0;" width="10" x="358.5" y="577.7261"/><rect fill="#FFFFFF" height="221.9421" style="stroke:#181818;stroke-width:1.0;" width="10" x="550.5" y="193.5479"/><rect fill="#FFFFFF" height="537.0023" style="stroke:#181818;stroke-width:1.0;" width="10" x="550.5" y="609.4321"/><rect fill="#FFFFFF" height="31.706" style="stroke:#181818;stroke-width:1.0;" width="10" x="731" y="954.1983"/><rect fill="#FFFFFF" height="31.706" style="stroke:#181818;stroke-width:1.0;" width="10" x="925" y="704.5501"/><rect fill="#FFFFFF" height="31.706" style="stroke:#181818;stroke-width:1.0;" width="10" x="925" y="1017.6103"/><rect fill="#FFFFFF" height="31.706" style="stroke:#181818;stroke-width:1.0;" width="10" x="1088.5" y="225.2539"/><rect fill="#FFFFFF" height="31.706" style="stroke:#181818;stroke-width:1.0;" width="10" x="1088.5" y="641.1381"/><rect fill="#FFFFFF" height="31.706" style="stroke:#181818;stroke-width:1.0;" width="10" x="1199.5" y="288.6659"/><rect fill="#FFFFFF" height="31.706" style="stroke:#181818;stroke-width:1.0;" width="10" x="1339.5" y="352.0779"/><rect fill="none" height="100.8241" style="stroke:#000000;stroke-width:1.5;" width="645" x="10" y="795.9622"/><rect fill="none" height="227.6481" style="stroke:#000000;stroke-width:1.5;" width="1033" x="10" y="910.7862"/><line style="stroke:#181818;stroke-width:0.5;stroke-dasharray:5.0,5.0;" x1="42" x2="42" y1="84.0679" y2="1155.4344"/><line style="stroke:#181818;stroke-width:0.5;stroke-dasharray:5.0,5.0;" x1="363" x2="363" y1="84.0679" y2="1155.4344"/><line style="stroke:#181818;stroke-width:0.5;stroke-dasharray:5.0,5.0;" x1="555" x2="555" y1="157.8079" y2="1155.4344"/><line style="stroke:#181818;stroke-width:0.5;stroke-dasharray:5.0,5.0;" x1="736" x2="736" y1="84.0679" y2="1155.4344"/><line style="stroke:#181818;stroke-width:0.5;stroke-dasharray:5.0,5.0;" x1="930" x2="930" y1="84.0679" y2="1155.4344"/><line style="stroke:#181818;stroke-width:0.5;stroke-dasharray:5.0,5.0;" x1="1093" x2="1093" y1="84.0679" y2="1155.4344"/><line style="stroke:#181818;stroke-width:0.5;stroke-dasharray:5.0,5.0;" x1="1204" x2="1204" y1="84.0679" y2="1155.4344"/><line style="stroke:#181818;stroke-width:0.5;stroke-dasharray:5.0,5.0;" x1="1344" x2="1344" y1="84.0679" y2="1155.4344"/><text fill="#000000" font-family="sans-serif" font-size="14" lengthAdjust="spacing" textLength="39" x="20" y="79.9659">Client</text><ellipse cx="42.5" cy="13.5" fill="#E3E3E3" rx="8" ry="8" style="stroke:#181818;stroke-width:0.5;"/><path d="M42.5,21.5 L42.5,48.5 M29.5,29.5 L55.5,29.5 M42.5,48.5 L29.5,63.5 M42.5,48.5 L55.5,63.5 " fill="none" style="stroke:#181818;stroke-width:0.5;"/><text fill="#000000" font-family="sans-serif" font-size="14" lengthAdjust="spacing" textLength="39" x="20" y="1169.4003">Client</text><ellipse cx="42.5" cy="1182.0023" fill="#E3E3E3" rx="8" ry="8" style="stroke:#181818;stroke-width:0.5;"/><path d="M42.5,1190.0023 L42.5,1217.0023 M29.5,1198.0023 L55.5,1198.0023 M42.5,1217.0023 L29.5,1232.0023 M42.5,1217.0023 L55.5,1232.0023 " fill="none" style="stroke:#181818;stroke-width:0.5;"/><rect fill="#E3E3E3" height="33.0679" rx="2.5" ry="2.5" style="stroke:#181818;stroke-width:0.5;" width="127" x="300" y="50"/><text fill="#000000" font-family="sans-serif" font-size="14" lengthAdjust="spacing" textLength="113" x="307" y="71.9659">:VisitiScheduleUI</text><rect fill="#E3E3E3" height="33.0679" rx="2.5" ry="2.5" style="stroke:#181818;stroke-width:0.5;" width="127" x="300" y="1154.4344"/><text fill="#000000" font-family="sans-serif" font-size="14" lengthAdjust="spacing" textLength="113" x="307" y="1176.4003">:VisitiScheduleUI</text><rect fill="#E3E3E3" height="33.0679" rx="2.5" ry="2.5" style="stroke:#181818;stroke-width:0.5;" width="179" x="466" y="1154.4344"/><text fill="#000000" font-family="sans-serif" font-size="14" lengthAdjust="spacing" textLength="165" x="473" y="1176.4003">:VisitiScheduleController</text><rect fill="#E3E3E3" height="33.0679" rx="2.5" ry="2.5" style="stroke:#181818;stroke-width:0.5;" width="162" x="655" y="50"/><text fill="#000000" font-family="sans-serif" font-size="14" lengthAdjust="spacing" textLength="148" x="662" y="71.9659">:visitScheduleRequest</text><rect fill="#E3E3E3" height="33.0679" rx="2.5" ry="2.5" style="stroke:#181818;stroke-width:0.5;" width="162" x="655" y="1154.4344"/><text fill="#000000" font-family="sans-serif" font-size="14" lengthAdjust="spacing" textLength="148" x="662" y="1176.4003">:visitScheduleRequest</text><rect fill="#E3E3E3" height="52.1358" rx="2.5" ry="2.5" style="stroke:#181818;stroke-width:0.5;" width="206" x="827" y="30.9321"/><text fill="#000000" font-family="sans-serif" font-size="14" lengthAdjust="spacing" textLength="191" x="834.5" y="52.898">scheduleRequestRepository:</text><text fill="#000000" font-family="sans-serif" font-size="14" lengthAdjust="spacing" textLength="188" x="838" y="71.9659">ScheduleRequestRepository</text><rect fill="#E3E3E3" height="52.1358" rx="2.5" ry="2.5" style="stroke:#181818;stroke-width:0.5;" width="206" x="827" y="1154.4344"/><text fill="#000000" font-family="sans-serif" font-size="14" lengthAdjust="spacing" textLength="191" x="834.5" y="1176.4003">scheduleRequestRepository:</text><text fill="#000000" font-family="sans-serif" font-size="14" lengthAdjust="spacing" textLength="188" x="838" y="1195.4682">ScheduleRequestRepository</text><rect fill="#E3E3E3" height="33.0679" rx="2.5" ry="2.5" style="stroke:#181818;stroke-width:0.5;" width="101" x="1043" y="50"/><text fill="#000000" font-family="sans-serif" font-size="14" lengthAdjust="spacing" textLength="87" x="1050" y="71.9659">:Repositories</text><rect fill="#E3E3E3" height="33.0679" rx="2.5" ry="2.5" style="stroke:#181818;stroke-width:0.5;" width="101" x="1043" y="1154.4344"/><text fill="#000000" font-family="sans-serif" font-size="14" lengthAdjust="spacing" textLength="87" x="1050" y="1176.4003">:Repositories</text><rect fill="#E3E3E3" height="52.1358" rx="2.5" ry="2.5" style="stroke:#181818;stroke-width:0.5;" width="101" x="1154" y="30.9321"/><text fill="#000000" font-family="sans-serif" font-size="14" lengthAdjust="spacing" textLength="80" x="1164.5" y="52.898">repositories</text><text fill="#000000" font-family="sans-serif" font-size="14" lengthAdjust="spacing" textLength="87" x="1161" y="71.9659">:Repositories</text><rect fill="#E3E3E3" height="52.1358" rx="2.5" ry="2.5" style="stroke:#181818;stroke-width:0.5;" width="101" x="1154" y="1154.4344"/><text fill="#000000" font-family="sans-serif" font-size="14" lengthAdjust="spacing" textLength="80" x="1164.5" y="1176.4003">repositories</text><text fill="#000000" font-family="sans-serif" font-size="14" lengthAdjust="spacing" textLength="87" x="1161" y="1195.4682">:Repositories</text><rect fill="#E3E3E3" height="52.1358" rx="2.5" ry="2.5" style="stroke:#181818;stroke-width:0.5;" width="159" x="1265" y="30.9321"/><text fill="#000000" font-family="sans-serif" font-size="14" lengthAdjust="spacing" textLength="145" x="1272" y="52.898">propertiesRepository:</text><text fill="#000000" font-family="sans-serif" font-size="14" lengthAdjust="spacing" textLength="140" x="1274.5" y="71.9659">PropertiesRepository</text><rect fill="#E3E3E3" height="52.1358" rx="2.5" ry="2.5" style="stroke:#181818;stroke-width:0.5;" width="159" x="1265" y="1154.4344"/><text fill="#000000" font-family="sans-serif" font-size="14" lengthAdjust="spacing" textLength="145" x="1272" y="1176.4003">propertiesRepository:</text><text fill="#000000" font-family="sans-serif" font-size="14" lengthAdjust="spacing" textLength="140" x="1274.5" y="1195.4682">PropertiesRepository</text><rect fill="#FFFFFF" height="1051.3665" style="stroke:#181818;stroke-width:1.0;" width="10" x="37.5" y="94.0679"/><rect fill="#FFFFFF" height="347.1281" style="stroke:#181818;stroke-width:1.0;" width="10" x="358.5" y="117.7739"/><rect fill="#FFFFFF" height="49.412" style="stroke:#181818;stroke-width:1.0;" width="10" x="358.5" y="496.608"/><rect fill="#FFFFFF" height="568.7083" style="stroke:#181818;stroke-width:1.0;" width="10" x="358.5" y="577.7261"/><rect fill="#FFFFFF" height="221.9421" style="stroke:#181818;stroke-width:1.0;" width="10" x="550.5" y="193.5479"/><rect fill="#FFFFFF" height="537.0023" style="stroke:#181818;stroke-width:1.0;" width="10" x="550.5" y="609.4321"/><rect fill="#FFFFFF" height="31.706" style="stroke:#181818;stroke-width:1.0;" width="10" x="731" y="954.1983"/><rect fill="#FFFFFF" height="31.706" style="stroke:#181818;stroke-width:1.0;" width="10" x="925" y="704.5501"/><rect fill="#FFFFFF" height="31.706" style="stroke:#181818;stroke-width:1.0;" width="10" x="925" y="1017.6103"/><rect fill="#FFFFFF" height="31.706" style="stroke:#181818;stroke-width:1.0;" width="10" x="1088.5" y="225.2539"/><rect fill="#FFFFFF" height="31.706" style="stroke:#181818;stroke-width:1.0;" width="10" x="1088.5" y="641.1381"/><rect fill="#FFFFFF" height="31.706" style="stroke:#181818;stroke-width:1.0;" width="10" x="1199.5" y="288.6659"/><rect fill="#FFFFFF" height="31.706" style="stroke:#181818;stroke-width:1.0;" width="10" x="1339.5" y="352.0779"/><polygon fill="#181818" points="346.5,113.7739,356.5,117.7739,346.5,121.7739,350.5,117.7739" style="stroke:#181818;stroke-width:1.0;"/><line style="stroke:#181818;stroke-width:1.0;" x1="47.5" x2="352.5" y1="117.7739" y2="117.7739"/><text fill="#000000" font-family="sans-serif" font-size="13" font-weight="bold" lengthAdjust="spacing" textLength="7" x="54.5" y="111.9649">1</text><text fill="#000000" font-family="sans-serif" font-size="13" lengthAdjust="spacing" textLength="166" x="65.5" y="111.9649">Asks to see list of properties</text><polygon fill="#181818" points="454,145.4799,464,149.4799,454,153.4799,458,149.4799" style="stroke:#181818;stroke-width:1.0;"/><line style="stroke:#181818;stroke-width:1.0;" x1="368.5" x2="460" y1="149.4799" y2="149.4799"/><text fill="#000000" font-family="sans-serif" font-size="13" font-weight="bold" lengthAdjust="spacing" textLength="7" x="375.5" y="143.6709">2</text><text fill="#000000" font-family="sans-serif" font-size="13" lengthAdjust="spacing" textLength="37" x="386.5" y="143.6709">create</text><rect fill="#E3E3E3" height="33.0679" rx="2.5" ry="2.5" style="stroke:#181818;stroke-width:0.5;" width="179" x="466" y="125.7739"/><text fill="#000000" font-family="sans-serif" font-size="14" lengthAdjust="spacing" textLength="165" x="473" y="147.7399">:VisitiScheduleController</text><polygon fill="#181818" points="538.5,189.5479,548.5,193.5479,538.5,197.5479,542.5,193.5479" style="stroke:#181818;stroke-width:1.0;"/><line style="stroke:#181818;stroke-width:1.0;" x1="368.5" x2="544.5" y1="193.5479" y2="193.5479"/><text fill="#000000" font-family="sans-serif" font-size="13" font-weight="bold" lengthAdjust="spacing" textLength="7" x="375.5" y="187.7389">3</text><text fill="#000000" font-family="sans-serif" font-size="13" lengthAdjust="spacing" textLength="111" x="386.5" y="187.7389">getPropertiesList()</text><polygon fill="#181818" points="1076.5,221.2539,1086.5,225.2539,1076.5,229.2539,1080.5,225.2539" style="stroke:#181818;stroke-width:1.0;"/><line style="stroke:#181818;stroke-width:1.0;" x1="560.5" x2="1082.5" y1="225.2539" y2="225.2539"/><text fill="#000000" font-family="sans-serif" font-size="13" font-weight="bold" lengthAdjust="spacing" textLength="7" x="567.5" y="219.4449">4</text><text fill="#000000" font-family="sans-serif" font-size="13" lengthAdjust="spacing" textLength="79" x="578.5" y="219.4449">getInstance()</text><polygon fill="#181818" points="571.5,252.9599,561.5,256.9599,571.5,260.9599,567.5,256.9599" style="stroke:#181818;stroke-width:1.0;"/><line style="stroke:#181818;stroke-width:1.0;stroke-dasharray:2.0,2.0;" x1="565.5" x2="1092.5" y1="256.9599" y2="256.9599"/><text fill="#000000" font-family="sans-serif" font-size="13" font-weight="bold" lengthAdjust="spacing" textLength="7" x="577.5" y="251.1509">5</text><text fill="#000000" font-family="sans-serif" font-size="13" lengthAdjust="spacing" textLength="71" x="588.5" y="251.1509">repositories</text><polygon fill="#181818" points="1187.5,284.6659,1197.5,288.6659,1187.5,292.6659,1191.5,288.6659" style="stroke:#181818;stroke-width:1.0;"/><line style="stroke:#181818;stroke-width:1.0;" x1="560.5" x2="1193.5" y1="288.6659" y2="288.6659"/><text fill="#000000" font-family="sans-serif" font-size="13" font-weight="bold" lengthAdjust="spacing" textLength="7" x="567.5" y="282.8569">6</text><text fill="#000000" font-family="sans-serif" font-size="13" lengthAdjust="spacing" textLength="155" x="578.5" y="282.8569">getPropretiesRepository()</text><polygon fill="#181818" points="571.5,316.3719,561.5,320.3719,571.5,324.3719,567.5,320.3719" style="stroke:#181818;stroke-width:1.0;"/><line style="stroke:#181818;stroke-width:1.0;stroke-dasharray:2.0,2.0;" x1="565.5" x2="1203.5" y1="320.3719" y2="320.3719"/><text fill="#000000" font-family="sans-serif" font-size="13" font-weight="bold" lengthAdjust="spacing" textLength="7" x="577.5" y="314.5629">7</text><text fill="#000000" font-family="sans-serif" font-size="13" lengthAdjust="spacing" textLength="127" x="588.5" y="314.5629">propertiesRepository</text><polygon fill="#181818" points="1327.5,348.0779,1337.5,352.0779,1327.5,356.0779,1331.5,352.0779" style="stroke:#181818;stroke-width:1.0;"/><line style="stroke:#181818;stroke-width:1.0;" x1="560.5" x2="1333.5" y1="352.0779" y2="352.0779"/><text fill="#000000" font-family="sans-serif" font-size="13" font-weight="bold" lengthAdjust="spacing" textLength="7" x="567.5" y="346.2689">8</text><text fill="#000000" font-family="sans-serif" font-size="13" lengthAdjust="spacing" textLength="111" x="578.5" y="346.2689">getPropretiesList()</text><polygon fill="#181818" points="571.5,379.784,561.5,383.784,571.5,387.784,567.5,383.784" style="stroke:#181818;stroke-width:1.0;"/><line style="stroke:#181818;stroke-width:1.0;stroke-dasharray:2.0,2.0;" x1="565.5" x2="1343.5" y1="383.784" y2="383.784"/><text fill="#000000" font-family="sans-serif" font-size="13" font-weight="bold" lengthAdjust="spacing" textLength="7" x="577.5" y="377.975">9</text><text fill="#000000" font-family="sans-serif" font-size="13" lengthAdjust="spacing" textLength="83" x="588.5" y="377.975">propertiesList</text><polygon fill="#181818" points="379.5,411.49,369.5,415.49,379.5,419.49,375.5,415.49" style="stroke:#181818;stroke-width:1.0;"/><line style="stroke:#181818;stroke-width:1.0;stroke-dasharray:2.0,2.0;" x1="373.5" x2="554.5" y1="415.49" y2="415.49"/><text fill="#000000" font-family="sans-serif" font-size="13" font-weight="bold" lengthAdjust="spacing" textLength="14" x="385.5" y="409.681">10</text><text fill="#000000" font-family="sans-serif" font-size="13" lengthAdjust="spacing" textLength="83" x="403.5" y="409.681">propertiesList</text><polygon fill="#181818" points="58.5,460.902,48.5,464.902,58.5,468.902,54.5,464.902" style="stroke:#181818;stroke-width:1.0;"/><line style="stroke:#181818;stroke-width:1.0;stroke-dasharray:2.0,2.0;" x1="52.5" x2="362.5" y1="464.902" y2="464.902"/><text fill="#000000" font-family="sans-serif" font-size="13" font-weight="bold" lengthAdjust="spacing" textLength="14" x="64.5" y="450.24">11</text><text fill="#000000" font-family="sans-serif" font-size="13" lengthAdjust="spacing" textLength="210" x="82.5" y="441.387">Show listed properties  sorted from</text><text fill="#000000" font-family="sans-serif" font-size="13" lengthAdjust="spacing" textLength="218" x="85.5" y="459.093">the most recent entries to the oldest</text><polygon fill="#181818" points="346.5,492.608,356.5,496.608,346.5,500.608,350.5,496.608" style="stroke:#181818;stroke-width:1.0;"/><line style="stroke:#181818;stroke-width:1.0;" x1="47.5" x2="352.5" y1="496.608" y2="496.608"/><text fill="#000000" font-family="sans-serif" font-size="13" font-weight="bold" lengthAdjust="spacing" textLength="14" x="54.5" y="490.799">12</text><text fill="#000000" font-family="sans-serif" font-size="13" lengthAdjust="spacing" textLength="164" x="72.5" y="490.799">Select one of the properties</text><polygon fill="#181818" points="58.5,542.0201,48.5,546.0201,58.5,550.0201,54.5,546.0201" style="stroke:#181818;stroke-width:1.0;"/><line style="stroke:#181818;stroke-width:1.0;stroke-dasharray:2.0,2.0;" x1="52.5" x2="362.5" y1="546.0201" y2="546.0201"/><text fill="#000000" font-family="sans-serif" font-size="13" font-weight="bold" lengthAdjust="spacing" textLength="14" x="64.5" y="531.3581">13</text><text fill="#000000" font-family="sans-serif" font-size="13" lengthAdjust="spacing" textLength="269" x="82.5" y="522.505">Requests data (client's name, phone number,</text><text fill="#000000" font-family="sans-serif" font-size="13" lengthAdjust="spacing" textLength="171" x="82.5" y="540.2111">preferred date and time slot)</text><polygon fill="#181818" points="346.5,573.7261,356.5,577.7261,346.5,581.7261,350.5,577.7261" style="stroke:#181818;stroke-width:1.0;"/><line style="stroke:#181818;stroke-width:1.0;" x1="47.5" x2="352.5" y1="577.7261" y2="577.7261"/><text fill="#000000" font-family="sans-serif" font-size="13" font-weight="bold" lengthAdjust="spacing" textLength="14" x="54.5" y="571.9171">14</text><text fill="#000000" font-family="sans-serif" font-size="13" lengthAdjust="spacing" textLength="123" x="72.5" y="571.9171">Type requested data</text><polygon fill="#181818" points="538.5,605.4321,548.5,609.4321,538.5,613.4321,542.5,609.4321" style="stroke:#181818;stroke-width:1.0;"/><line style="stroke:#181818;stroke-width:1.0;" x1="368.5" x2="544.5" y1="609.4321" y2="609.4321"/><text fill="#000000" font-family="sans-serif" font-size="13" font-weight="bold" lengthAdjust="spacing" textLength="14" x="375.5" y="603.6231">15</text><text fill="#000000" font-family="sans-serif" font-size="13" lengthAdjust="spacing" textLength="145" x="393.5" y="603.6231">submitScheduleRequest</text><polygon fill="#181818" points="1076.5,637.1381,1086.5,641.1381,1076.5,645.1381,1080.5,641.1381" style="stroke:#181818;stroke-width:1.0;"/><line style="stroke:#181818;stroke-width:1.0;" x1="560.5" x2="1082.5" y1="641.1381" y2="641.1381"/><text fill="#000000" font-family="sans-serif" font-size="13" font-weight="bold" lengthAdjust="spacing" textLength="14" x="567.5" y="635.3291">16</text><text fill="#000000" font-family="sans-serif" font-size="13" lengthAdjust="spacing" textLength="188" x="585.5" y="635.3291">getScheduleRequestRepository</text><polygon fill="#181818" points="571.5,668.8441,561.5,672.8441,571.5,676.8441,567.5,672.8441" style="stroke:#181818;stroke-width:1.0;"/><line style="stroke:#181818;stroke-width:1.0;" x1="565.5" x2="1092.5" y1="672.8441" y2="672.8441"/><text fill="#000000" font-family="sans-serif" font-size="13" font-weight="bold" lengthAdjust="spacing" textLength="14" x="577.5" y="667.0351">17</text><text fill="#000000" font-family="sans-serif" font-size="13" lengthAdjust="spacing" textLength="167" x="595.5" y="667.0351">scheduleRequestRepository</text><polygon fill="#181818" points="913,700.5501,923,704.5501,913,708.5501,917,704.5501" style="stroke:#181818;stroke-width:1.0;"/><line style="stroke:#181818;stroke-width:1.0;" x1="560.5" x2="919" y1="704.5501" y2="704.5501"/><text fill="#000000" font-family="sans-serif" font-size="13" font-weight="bold" lengthAdjust="spacing" textLength="14" x="567.5" y="698.7411">18</text><text fill="#000000" font-family="sans-serif" font-size="13" lengthAdjust="spacing" textLength="189" x="585.5" y="698.7411">getScheduleRequestList (Client)</text><polygon fill="#181818" points="571.5,732.2562,561.5,736.2562,571.5,740.2562,567.5,736.2562" style="stroke:#181818;stroke-width:1.0;"/><line style="stroke:#181818;stroke-width:1.0;" x1="565.5" x2="929" y1="736.2562" y2="736.2562"/><text fill="#000000" font-family="sans-serif" font-size="13" font-weight="bold" lengthAdjust="spacing" textLength="14" x="577.5" y="730.4472">19</text><text fill="#000000" font-family="sans-serif" font-size="13" lengthAdjust="spacing" textLength="3" x="595.5" y="730.4472">&#160;</text><line style="stroke:#181818;stroke-width:1.0;" x1="560.5" x2="602.5" y1="767.9622" y2="767.9622"/><line style="stroke:#181818;stroke-width:1.0;" x1="602.5" x2="602.5" y1="767.9622" y2="780.9622"/><line style="stroke:#181818;stroke-width:1.0;" x1="561.5" x2="602.5" y1="780.9622" y2="780.9622"/><polygon fill="#181818" points="571.5,776.9622,561.5,780.9622,571.5,784.9622,567.5,780.9622" style="stroke:#181818;stroke-width:1.0;"/><text fill="#000000" font-family="sans-serif" font-size="13" font-weight="bold" lengthAdjust="spacing" textLength="14" x="567.5" y="762.1532">20</text><text fill="#000000" font-family="sans-serif" font-size="13" lengthAdjust="spacing" textLength="80" x="585.5" y="762.1532">verifyOverlap</text><path d="M10,795.9622 L73,795.9622 L73,805.6682 L63,815.6682 L10,815.6682 L10,795.9622 " fill="#EEEEEE" style="stroke:#000000;stroke-width:1.5;"/><rect fill="none" height="100.8241" style="stroke:#000000;stroke-width:1.5;" width="645" x="10" y="795.9622"/><text fill="#000000" font-family="sans-serif" font-size="13" font-weight="bold" lengthAdjust="spacing" textLength="18" x="25" y="810.8592">alt</text><text fill="#000000" font-family="sans-serif" font-size="11" font-weight="bold" lengthAdjust="spacing" textLength="173" x="88" y="809.7211">[in case of the request overlap]</text><polygon fill="#181818" points="379.5,835.3742,369.5,839.3742,379.5,843.3742,375.5,839.3742" style="stroke:#181818;stroke-width:1.0;"/><line style="stroke:#181818;stroke-width:1.0;" x1="373.5" x2="549.5" y1="839.3742" y2="839.3742"/><text fill="#000000" font-family="sans-serif" font-size="13" font-weight="bold" lengthAdjust="spacing" textLength="14" x="385.5" y="833.5652">21</text><text fill="#000000" font-family="sans-serif" font-size="13" lengthAdjust="spacing" textLength="88" x="403.5" y="833.5652">invalidRequest</text><polygon fill="#181818" points="58.5,884.7862,48.5,888.7862,58.5,892.7862,54.5,888.7862" style="stroke:#181818;stroke-width:1.0;"/><line style="stroke:#181818;stroke-width:1.0;" x1="52.5" x2="357.5" y1="888.7862" y2="888.7862"/><text fill="#000000" font-family="sans-serif" font-size="13" font-weight="bold" lengthAdjust="spacing" textLength="14" x="64.5" y="874.1242">22</text><text fill="#000000" font-family="sans-serif" font-size="13" lengthAdjust="spacing" textLength="181" x="82.5" y="865.2712">Show a message to inform the</text><text fill="#000000" font-family="sans-serif" font-size="13" lengthAdjust="spacing" textLength="186" x="85.5" y="882.9772">client that the request is invalid</text><path d="M10,910.7862 L73,910.7862 L73,920.4923 L63,930.4923 L10,930.4923 L10,910.7862 " fill="#EEEEEE" style="stroke:#000000;stroke-width:1.5;"/><rect fill="none" height="227.6481" style="stroke:#000000;stroke-width:1.5;" width="1033" x="10" y="910.7862"/><text fill="#000000" font-family="sans-serif" font-size="13" font-weight="bold" lengthAdjust="spacing" textLength="18" x="25" y="925.6833">alt</text><text fill="#000000" font-family="sans-serif" font-size="11" font-weight="bold" lengthAdjust="spacing" textLength="190" x="88" y="924.5452">[in case of the request no overlap]</text><polygon fill="#181818" points="719,950.1983,729,954.1983,719,958.1983,723,954.1983" style="stroke:#181818;stroke-width:1.0;"/><line style="stroke:#181818;stroke-width:1.0;" x1="560.5" x2="725" y1="954.1983" y2="954.1983"/><text fill="#000000" font-family="sans-serif" font-size="13" font-weight="bold" lengthAdjust="spacing" textLength="14" x="567.5" y="948.3893">23</text><text fill="#000000" font-family="sans-serif" font-size="13" lengthAdjust="spacing" textLength="111" x="585.5" y="948.3893">createVisitRequest</text><polygon fill="#181818" points="571.5,981.9043,561.5,985.9043,571.5,989.9043,567.5,985.9043" style="stroke:#181818;stroke-width:1.0;"/><line style="stroke:#181818;stroke-width:1.0;" x1="565.5" x2="735" y1="985.9043" y2="985.9043"/><text fill="#000000" font-family="sans-serif" font-size="13" font-weight="bold" lengthAdjust="spacing" textLength="14" x="577.5" y="980.0953">24</text><text fill="#000000" font-family="sans-serif" font-size="13" lengthAdjust="spacing" textLength="73" x="595.5" y="980.0953">visitRequest</text><polygon fill="#181818" points="913,1013.6103,923,1017.6103,913,1021.6103,917,1017.6103" style="stroke:#181818;stroke-width:1.0;"/><line style="stroke:#181818;stroke-width:1.0;" x1="560.5" x2="919" y1="1017.6103" y2="1017.6103"/><text fill="#000000" font-family="sans-serif" font-size="13" font-weight="bold" lengthAdjust="spacing" textLength="14" x="567.5" y="1011.8013">25</text><text fill="#000000" font-family="sans-serif" font-size="13" lengthAdjust="spacing" textLength="210" x="585.5" y="1011.8013">addScheduleRequest (visitRequest)</text><polygon fill="#181818" points="571.5,1045.3163,561.5,1049.3163,571.5,1053.3163,567.5,1049.3163" style="stroke:#181818;stroke-width:1.0;"/><line style="stroke:#181818;stroke-width:1.0;" x1="565.5" x2="929" y1="1049.3163" y2="1049.3163"/><text fill="#000000" font-family="sans-serif" font-size="13" font-weight="bold" lengthAdjust="spacing" textLength="14" x="577.5" y="1043.5073">26</text><text fill="#000000" font-family="sans-serif" font-size="13" lengthAdjust="spacing" textLength="3" x="595.5" y="1043.5073">&#160;</text><polygon fill="#181818" points="379.5,1077.0223,369.5,1081.0223,379.5,1085.0223,375.5,1081.0223" style="stroke:#181818;stroke-width:1.0;"/><line style="stroke:#181818;stroke-width:1.0;" x1="373.5" x2="549.5" y1="1081.0223" y2="1081.0223"/><text fill="#000000" font-family="sans-serif" font-size="13" font-weight="bold" lengthAdjust="spacing" textLength="14" x="385.5" y="1075.2133">27</text><text fill="#000000" font-family="sans-serif" font-size="13" lengthAdjust="spacing" textLength="77" x="403.5" y="1075.2133">validRequest</text><polygon fill="#181818" points="58.5,1126.4344,48.5,1130.4344,58.5,1134.4344,54.5,1130.4344" style="stroke:#181818;stroke-width:1.0;"/><line style="stroke:#181818;stroke-width:1.0;" x1="52.5" x2="357.5" y1="1130.4344" y2="1130.4344"/><text fill="#000000" font-family="sans-serif" font-size="13" font-weight="bold" lengthAdjust="spacing" textLength="14" x="64.5" y="1115.7724">28</text><text fill="#000000" font-family="sans-serif" font-size="13" lengthAdjust="spacing" textLength="181" x="82.5" y="1106.9194">Show a message to inform the</text><text fill="#000000" font-family="sans-serif" font-size="13" lengthAdjust="spacing" textLength="175" x="85.5" y="1124.6254">client that the request is valid</text><!--SRC=[jLNBRjim4BppAnQvs0dY7_0XG91U0gHeOISzvS9GQuimHQeavTH_toNr8cKffzQ0ROaxEnpkY-uaTSqjhw0oseZIcWh1smQP6omr5oT-nBs_A0IBmdDzL2d0bRmmdr8VuS2LGyPuuurkgW-qZArAMI0SZF4VvW_ZmXiBDqzAelOtm1qyVllEYCPB8MkkFTniVqadlToB4ej6uTjpXBqzVubwCjfRenJQY7vwtRrCyEU0x-4x_DsWQmL4GmvsEMo7jI6CiPVjkuRzaZ6oaMkXQ6so-u2Iw2BE9WivDhMywwyzzpAaWeATKzJMr4Zlw3BfFsUM8sMjP7eGnaAUv9bxZEbXz0ER1ye1RE7HdHnu0muHWXkO0upx9PwKCRQ2v4Fk6s89P5iwHOoUWu9x3ckB1xIe1Tv3WKvOMNjfz3s0r0TZAww08fzPF8fIIq6MRBbeB6-VX77-bgs4nQ0cLaHGy10Vx-v8GsjALcdjY7uCqmkTRtsRd2coXBD4D7cboMYzdxMZ1X58VW4uk6O9ZwRCTzD9sER0W2jmcQJNCLyLutaivcblrStoZZN5O8btCmPihjROikg4FTK_gS2fy2uHgUIhcYNZb6LMPk2Q2BpYQcLr9JznJVnYER2ihlUb-OnzWKMo9u0pDYmTQC26KlObqiIbxg5vIfCGw1lBW1ehc8oYeiws2jsKzU4U5OrYC1f31mQdf0ipjqpVBkyx4GVnoe7c5VLUNGQ-TdJVl-iwjgKbtKKWuxe0B-c2SCfGQqtbfUfUBpNsFTwwysjHGt9Syr5T3UT9rx7bbbkSo6oXSVBE6sKiyYosO2-g7_kpWaBPmBgzysv7JSDLmGRlGKkwuuZhT-lqdj7Am-K7_IbUjzD6UPgO8BWRgg9B0fWErdF4D4bzvaeMVSIxh2ILpA52v-Zs3vNPpkB8IYNSbWwzSPzj95rFonXg-WdNoR8kRGPfWxPu9Gy3EjxqLqNHNjkiXIOnIS5943luNC9uKKmI1kkKvf-aB8RxlmGx3tKY8bpTVm40]--></g></svg>