<?xml version="1.0" encoding="us-ascii" standalone="no"?><svg xmlns="http://www.w3.org/2000/svg" xmlns:xlink="http://www.w3.org/1999/xlink" contentStyleType="text/css" height="359px" preserveAspectRatio="none" style="width:680px;height:359px;background:#FFFFFF;" version="1.1" viewBox="0 0 680 359" width="680px" zoomAndPan="magnify"><defs/><g><rect fill="#FFFFFF" height="201.2361" style="stroke:#181818;stroke-width:1.0;" width="10" x="187" y="91.8419"/><rect fill="#FFFFFF" height="192.2361" style="stroke:#181818;stroke-width:1.0;" width="10" x="187" y="91.8419"/><rect fill="#FFFFFF" height="31.706" style="stroke:#181818;stroke-width:1.0;" width="10" x="362.5" y="150.2539"/><rect fill="#FFFFFF" height="31.706" style="stroke:#181818;stroke-width:1.0;" width="10" x="556.5" y="213.6659"/><rect fill="none" height="146.5301" style="stroke:#000000;stroke-width:1.5;" width="587" x="87.5" y="106.8419"/><line style="stroke:#181818;stroke-width:0.5;stroke-dasharray:5.0,5.0;" x1="186.5" x2="186.5" y1="58.1358" y2="302.0779"/><line style="stroke:#181818;stroke-width:0.5;stroke-dasharray:5.0,5.0;" x1="367.5" x2="367.5" y1="58.1358" y2="302.0779"/><line style="stroke:#181818;stroke-width:0.5;stroke-dasharray:5.0,5.0;" x1="561.5" x2="561.5" y1="58.1358" y2="302.0779"/><rect fill="#E3E3E3" height="33.0679" rx="2.5" ry="2.5" style="stroke:#181818;stroke-width:0.5;" width="179" x="97.5" y="24.0679"/><text fill="#000000" font-family="sans-serif" font-size="14" lengthAdjust="spacing" textLength="165" x="104.5" y="46.0339">:VisitiScheduleController</text><rect fill="#E3E3E3" height="33.0679" rx="2.5" ry="2.5" style="stroke:#181818;stroke-width:0.5;" width="179" x="97.5" y="301.0779"/><text fill="#000000" font-family="sans-serif" font-size="14" lengthAdjust="spacing" textLength="165" x="104.5" y="323.0439">:VisitiScheduleController</text><rect fill="#E3E3E3" height="33.0679" rx="2.5" ry="2.5" style="stroke:#181818;stroke-width:0.5;" width="162" x="286.5" y="24.0679"/><text fill="#000000" font-family="sans-serif" font-size="14" lengthAdjust="spacing" textLength="148" x="293.5" y="46.0339">:visitScheduleRequest</text><rect fill="#E3E3E3" height="33.0679" rx="2.5" ry="2.5" style="stroke:#181818;stroke-width:0.5;" width="162" x="286.5" y="301.0779"/><text fill="#000000" font-family="sans-serif" font-size="14" lengthAdjust="spacing" textLength="148" x="293.5" y="323.0439">:visitScheduleRequest</text><rect fill="#E3E3E3" height="52.1358" rx="2.5" ry="2.5" style="stroke:#181818;stroke-width:0.5;" width="206" x="458.5" y="5"/><text fill="#000000" font-family="sans-serif" font-size="14" lengthAdjust="spacing" textLength="191" x="466" y="26.9659">scheduleRequestRepository:</text><text fill="#000000" font-family="sans-serif" font-size="14" lengthAdjust="spacing" textLength="188" x="469.5" y="46.0339">ScheduleRequestRepository</text><rect fill="#E3E3E3" height="52.1358" rx="2.5" ry="2.5" style="stroke:#181818;stroke-width:0.5;" width="206" x="458.5" y="301.0779"/><text fill="#000000" font-family="sans-serif" font-size="14" lengthAdjust="spacing" textLength="191" x="466" y="323.0439">scheduleRequestRepository:</text><text fill="#000000" font-family="sans-serif" font-size="14" lengthAdjust="spacing" textLength="188" x="469.5" y="342.1118">ScheduleRequestRepository</text><rect fill="#FFFFFF" height="201.2361" style="stroke:#181818;stroke-width:1.0;" width="10" x="187" y="91.8419"/><rect fill="#FFFFFF" height="192.2361" style="stroke:#181818;stroke-width:1.0;" width="10" x="187" y="91.8419"/><rect fill="#FFFFFF" height="31.706" style="stroke:#181818;stroke-width:1.0;" width="10" x="362.5" y="150.2539"/><rect fill="#FFFFFF" height="31.706" style="stroke:#181818;stroke-width:1.0;" width="10" x="556.5" y="213.6659"/><polygon fill="#181818" points="170,87.8419,180,91.8419,170,95.8419,174,91.8419" style="stroke:#181818;stroke-width:1.0;"/><line style="stroke:#181818;stroke-width:1.0;" x1="0" x2="176" y1="91.8419" y2="91.8419"/><text fill="#000000" font-family="sans-serif" font-size="13" font-weight="bold" lengthAdjust="spacing" textLength="14" x="7" y="86.0328">23</text><text fill="#000000" font-family="sans-serif" font-size="13" lengthAdjust="spacing" textLength="145" x="25" y="86.0328">submitScheduleRequest</text><path d="M87.5,106.8419 L264.5,106.8419 L264.5,116.5479 L254.5,126.5479 L87.5,126.5479 L87.5,106.8419 " fill="#EEEEEE" style="stroke:#000000;stroke-width:1.5;"/><rect fill="none" height="146.5301" style="stroke:#000000;stroke-width:1.5;" width="587" x="87.5" y="106.8419"/><text fill="#000000" font-family="sans-serif" font-size="13" font-weight="bold" lengthAdjust="spacing" textLength="132" x="102.5" y="121.7389">Create Visit Request</text><polygon fill="#181818" points="350.5,146.2539,360.5,150.2539,350.5,154.2539,354.5,150.2539" style="stroke:#181818;stroke-width:1.0;"/><line style="stroke:#181818;stroke-width:1.0;" x1="197" x2="356.5" y1="150.2539" y2="150.2539"/><text fill="#000000" font-family="sans-serif" font-size="13" font-weight="bold" lengthAdjust="spacing" textLength="25" x="204" y="144.4449">23.1</text><text fill="#000000" font-family="sans-serif" font-size="13" lengthAdjust="spacing" textLength="111" x="233" y="144.4449">createVisitRequest</text><polygon fill="#181818" points="208,177.9599,198,181.9599,208,185.9599,204,181.9599" style="stroke:#181818;stroke-width:1.0;"/><line style="stroke:#181818;stroke-width:1.0;" x1="202" x2="366.5" y1="181.9599" y2="181.9599"/><text fill="#000000" font-family="sans-serif" font-size="13" font-weight="bold" lengthAdjust="spacing" textLength="25" x="214" y="176.1509">23.2</text><text fill="#000000" font-family="sans-serif" font-size="13" lengthAdjust="spacing" textLength="73" x="243" y="176.1509">visitRequest</text><polygon fill="#181818" points="544.5,209.6659,554.5,213.6659,544.5,217.6659,548.5,213.6659" style="stroke:#181818;stroke-width:1.0;"/><line style="stroke:#181818;stroke-width:1.0;" x1="197" x2="550.5" y1="213.6659" y2="213.6659"/><text fill="#000000" font-family="sans-serif" font-size="13" font-weight="bold" lengthAdjust="spacing" textLength="25" x="204" y="207.8569">23.3</text><text fill="#000000" font-family="sans-serif" font-size="13" lengthAdjust="spacing" textLength="210" x="233" y="207.8569">addScheduleRequest (visitRequest)</text><polygon fill="#181818" points="208,241.3719,198,245.3719,208,249.3719,204,245.3719" style="stroke:#181818;stroke-width:1.0;"/><line style="stroke:#181818;stroke-width:1.0;" x1="202" x2="560.5" y1="245.3719" y2="245.3719"/><text fill="#000000" font-family="sans-serif" font-size="13" font-weight="bold" lengthAdjust="spacing" textLength="25" x="214" y="239.5629">23.4</text><text fill="#000000" font-family="sans-serif" font-size="13" lengthAdjust="spacing" textLength="3" x="243" y="239.5629">&#160;</text><polygon fill="#181818" points="11,280.0779,1,284.0779,11,288.0779,7,284.0779" style="stroke:#181818;stroke-width:1.0;"/><line style="stroke:#181818;stroke-width:1.0;stroke-dasharray:2.0,2.0;" x1="5" x2="181" y1="284.0779" y2="284.0779"/><text fill="#000000" font-family="sans-serif" font-size="13" font-weight="bold" lengthAdjust="spacing" textLength="14" x="17" y="278.2689">24</text><text fill="#000000" font-family="sans-serif" font-size="13" lengthAdjust="spacing" textLength="77" x="35" y="278.2689">validRequest</text><!--SRC=[TL2xReGm4Epz5Qkhae98ULGeIaDx5KIfqkpP6x3EsCGFellx67CG7fVjTdTcD3FkB7M75bjeZJQyiQOby3OGS_EdGtx6cYf_KGIMk4TTgoN0DIZCZzGrVA5on1YBTo-vx51xEEGVqaalAzwG28eAexqrIf4z03eetilZ1jyF-0bUqdSWvnCsFTPWjuQLr9c8CVQIVsge_dicjKWLAjwYNmpUwD2UoCBJCylUagiSN3YrEoSRzCCZG-vbZvx6B12djYPqK5WQhYa-p6oupfurpB10D92YGWuyQII9IM4dCDOotqVgDKIKw6-H1MtfEmjJFr42XTYq07TBsVkzgRzsfzUiDrkxvMRD8ot6CjEsBFubNLwpR8w9Ieefva8mrSj-0G00]--></g></svg>