<?xml version="1.0" encoding="us-ascii" standalone="no"?><svg xmlns="http://www.w3.org/2000/svg" xmlns:xlink="http://www.w3.org/1999/xlink" contentStyleType="text/css" height="924px" preserveAspectRatio="none" style="width:1169px;height:924px;background:#FFFFFF;" version="1.1" viewBox="0 0 1169 924" width="1169px" zoomAndPan="magnify"><defs/><g><!--class VisitScheduleUI--><g id="elem_VisitScheduleUI"><rect codeLine="11" fill="#F1F1F1" height="48" id="VisitScheduleUI" rx="2.5" ry="2.5" style="stroke:#181818;stroke-width:0.5;" width="137" x="534" y="7"/><ellipse cx="549" cy="23" fill="#ADD1B2" rx="11" ry="11" style="stroke:#181818;stroke-width:1.0;"/><path d="M548.4688,29.6719 Q546.7188,29.6719 545.5781,28.9375 Q544.4531,28.1875 543.8906,26.8438 Q543.3438,25.4844 543.3438,23.6875 Q543.3438,21.6563 544,20.2031 Q544.6563,18.75 545.9375,17.9688 Q547.2188,17.1875 549.0938,17.1875 Q549.9844,17.1875 550.6563,17.375 Q551.3281,17.5469 552.0156,17.8906 L551.2031,19.9063 Q550.5781,19.5938 550.0313,19.4688 Q549.5,19.3438 549.0156,19.3438 Q547.8438,19.3438 547.1406,19.875 Q546.4375,20.4063 546.1406,21.3594 Q545.8438,22.3125 545.8438,23.5781 Q545.8438,25.5938 546.5625,26.5625 Q547.2813,27.5156 548.875,27.5156 Q549.4688,27.5156 550.0938,27.3594 Q550.7188,27.2031 551.5469,26.8281 L551.5469,29.0469 Q550.8125,29.3594 550.0156,29.5156 Q549.2344,29.6719 548.4688,29.6719 Z " fill="#000000"/><text fill="#000000" font-family="sans-serif" font-size="14" lengthAdjust="spacing" textLength="105" x="563" y="28.432">VisitScheduleUI</text><line style="stroke:#181818;stroke-width:0.5;" x1="535" x2="670" y1="39" y2="39"/><line style="stroke:#181818;stroke-width:0.5;" x1="535" x2="670" y1="47" y2="47"/></g><!--class ScheduleRequestRepository--><g id="elem_ScheduleRequestRepository"><rect codeLine="16" fill="#F1F1F1" height="86.1358" id="ScheduleRequestRepository" rx="2.5" ry="2.5" style="stroke:#181818;stroke-width:0.5;" width="351" x="472" y="617.5"/><ellipse cx="549.25" cy="633.5" fill="#ADD1B2" rx="11" ry="11" style="stroke:#181818;stroke-width:1.0;"/><path d="M548.7188,640.1719 Q546.9688,640.1719 545.8281,639.4375 Q544.7031,638.6875 544.1406,637.3438 Q543.5938,635.9844 543.5938,634.1875 Q543.5938,632.1563 544.25,630.7031 Q544.9063,629.25 546.1875,628.4688 Q547.4688,627.6875 549.3438,627.6875 Q550.2344,627.6875 550.9063,627.875 Q551.5781,628.0469 552.2656,628.3906 L551.4531,630.4063 Q550.8281,630.0938 550.2813,629.9688 Q549.75,629.8438 549.2656,629.8438 Q548.0938,629.8438 547.3906,630.375 Q546.6875,630.9063 546.3906,631.8594 Q546.0938,632.8125 546.0938,634.0781 Q546.0938,636.0938 546.8125,637.0625 Q547.5313,638.0156 549.125,638.0156 Q549.7188,638.0156 550.3438,637.8594 Q550.9688,637.7031 551.7969,637.3281 L551.7969,639.5469 Q551.0625,639.8594 550.2656,640.0156 Q549.4844,640.1719 548.7188,640.1719 Z " fill="#000000"/><text fill="#000000" font-family="sans-serif" font-size="14" lengthAdjust="spacing" textLength="188" x="569.75" y="638.932">ScheduleRequestRepository</text><line style="stroke:#181818;stroke-width:0.5;" x1="473" x2="822" y1="649.5" y2="649.5"/><text fill="#000000" font-family="sans-serif" font-size="14" lengthAdjust="spacing" textLength="339" x="478" y="668.4659">List&lt;VisitScheduleRequest&gt; visitScheduleRequests</text><text fill="#000000" font-family="sans-serif" font-size="14" lengthAdjust="spacing" textLength="205" x="478" y="687.5339">+getVisitScheduleRequestsList</text><line style="stroke:#181818;stroke-width:0.5;" x1="473" x2="822" y1="695.6358" y2="695.6358"/></g><!--class Property--><g id="elem_Property"><rect codeLine="22" fill="#F1F1F1" height="124.2717" id="Property" rx="2.5" ry="2.5" style="stroke:#181818;stroke-width:0.5;" width="107" x="137" y="793"/><ellipse cx="160.1" cy="809" fill="#ADD1B2" rx="11" ry="11" style="stroke:#181818;stroke-width:1.0;"/><path d="M159.5688,815.6719 Q157.8188,815.6719 156.6781,814.9375 Q155.5531,814.1875 154.9906,812.8438 Q154.4438,811.4844 154.4438,809.6875 Q154.4438,807.6563 155.1,806.2031 Q155.7563,804.75 157.0375,803.9688 Q158.3188,803.1875 160.1938,803.1875 Q161.0844,803.1875 161.7563,803.375 Q162.4281,803.5469 163.1156,803.8906 L162.3031,805.9063 Q161.6781,805.5938 161.1313,805.4688 Q160.6,805.3438 160.1156,805.3438 Q158.9438,805.3438 158.2406,805.875 Q157.5375,806.4063 157.2406,807.3594 Q156.9438,808.3125 156.9438,809.5781 Q156.9438,811.5938 157.6625,812.5625 Q158.3813,813.5156 159.975,813.5156 Q160.5688,813.5156 161.1938,813.3594 Q161.8188,813.2031 162.6469,812.8281 L162.6469,815.0469 Q161.9125,815.3594 161.1156,815.5156 Q160.3344,815.6719 159.5688,815.6719 Z " fill="#000000"/><text fill="#000000" font-family="sans-serif" font-size="14" lengthAdjust="spacing" textLength="57" x="175.9" y="814.432">Property</text><line style="stroke:#181818;stroke-width:0.5;" x1="138" x2="243" y1="825" y2="825"/><text fill="#000000" font-family="sans-serif" font-size="14" lengthAdjust="spacing" textLength="57" x="143" y="843.9659">-int area</text><text fill="#000000" font-family="sans-serif" font-size="14" lengthAdjust="spacing" textLength="95" x="143" y="863.0339">-int cityCenter</text><text fill="#000000" font-family="sans-serif" font-size="14" lengthAdjust="spacing" textLength="61" x="143" y="882.1018">-int price</text><line style="stroke:#181818;stroke-width:0.5;" x1="138" x2="243" y1="890.2038" y2="890.2038"/><text fill="#000000" font-family="sans-serif" font-size="14" lengthAdjust="spacing" textLength="73" x="143" y="909.1697">+Property()</text></g><!--class Repositories--><g id="elem_Repositories"><rect codeLine="29" fill="#F1F1F1" height="143.3396" id="Repositories" rx="2.5" ry="2.5" style="stroke:#181818;stroke-width:0.5;" width="238" x="282.5" y="262"/><ellipse cx="355.75" cy="278" fill="#ADD1B2" rx="11" ry="11" style="stroke:#181818;stroke-width:1.0;"/><path d="M355.2188,284.6719 Q353.4688,284.6719 352.3281,283.9375 Q351.2031,283.1875 350.6406,281.8438 Q350.0938,280.4844 350.0938,278.6875 Q350.0938,276.6563 350.75,275.2031 Q351.4063,273.75 352.6875,272.9688 Q353.9688,272.1875 355.8438,272.1875 Q356.7344,272.1875 357.4063,272.375 Q358.0781,272.5469 358.7656,272.8906 L357.9531,274.9063 Q357.3281,274.5938 356.7813,274.4688 Q356.25,274.3438 355.7656,274.3438 Q354.5938,274.3438 353.8906,274.875 Q353.1875,275.4063 352.8906,276.3594 Q352.5938,277.3125 352.5938,278.5781 Q352.5938,280.5938 353.3125,281.5625 Q354.0313,282.5156 355.625,282.5156 Q356.2188,282.5156 356.8438,282.3594 Q357.4688,282.2031 358.2969,281.8281 L358.2969,284.0469 Q357.5625,284.3594 356.7656,284.5156 Q355.9844,284.6719 355.2188,284.6719 Z " fill="#000000"/><text fill="#000000" font-family="sans-serif" font-size="14" lengthAdjust="spacing" textLength="83" x="376.25" y="283.432">Repositories</text><line style="stroke:#181818;stroke-width:0.5;" x1="283.5" x2="519.5" y1="294" y2="294"/><text fill="#000000" font-family="sans-serif" font-size="14" lengthAdjust="spacing" textLength="170" x="288.5" y="312.9659">+getPropertiesRepository</text><line style="stroke:#181818;stroke-width:0.5;" x1="283.5" x2="519.5" y1="321.0679" y2="321.0679"/><text fill="#000000" font-family="sans-serif" font-size="14" lengthAdjust="spacing" textLength="96" x="288.5" y="340.0339">-Repositories()</text><text fill="#000000" font-family="sans-serif" font-size="14" lengthAdjust="spacing" textLength="191" x="288.5" y="359.1018">+getInstance() : Repositories</text><text fill="#000000" font-family="sans-serif" font-size="14" lengthAdjust="spacing" textLength="226" x="288.5" y="378.1697">+getScheduleRequestRepository()</text><text fill="#000000" font-family="sans-serif" font-size="14" lengthAdjust="spacing" textLength="191" x="288.5" y="397.2376">+getvisitRequestRepository()</text></g><!--class PropertyRepository--><g id="elem_PropertyRepository"><rect codeLine="40" fill="#F1F1F1" height="143.3396" id="PropertyRepository" rx="2.5" ry="2.5" style="stroke:#181818;stroke-width:0.5;" width="367" x="7" y="589"/><ellipse cx="122.25" cy="605" fill="#ADD1B2" rx="11" ry="11" style="stroke:#181818;stroke-width:1.0;"/><path d="M121.7188,611.6719 Q119.9688,611.6719 118.8281,610.9375 Q117.7031,610.1875 117.1406,608.8438 Q116.5938,607.4844 116.5938,605.6875 Q116.5938,603.6563 117.25,602.2031 Q117.9063,600.75 119.1875,599.9688 Q120.4688,599.1875 122.3438,599.1875 Q123.2344,599.1875 123.9063,599.375 Q124.5781,599.5469 125.2656,599.8906 L124.4531,601.9063 Q123.8281,601.5938 123.2813,601.4688 Q122.75,601.3438 122.2656,601.3438 Q121.0938,601.3438 120.3906,601.875 Q119.6875,602.4063 119.3906,603.3594 Q119.0938,604.3125 119.0938,605.5781 Q119.0938,607.5938 119.8125,608.5625 Q120.5313,609.5156 122.125,609.5156 Q122.7188,609.5156 123.3438,609.3594 Q123.9688,609.2031 124.7969,608.8281 L124.7969,611.0469 Q124.0625,611.3594 123.2656,611.5156 Q122.4844,611.6719 121.7188,611.6719 Z " fill="#000000"/><text fill="#000000" font-family="sans-serif" font-size="14" lengthAdjust="spacing" textLength="128" x="142.75" y="610.432">PropertyRepository</text><line style="stroke:#181818;stroke-width:0.5;" x1="8" x2="373" y1="621" y2="621"/><line style="stroke:#181818;stroke-width:0.5;" x1="8" x2="373" y1="629" y2="629"/><text fill="#000000" font-family="sans-serif" font-size="14" lengthAdjust="spacing" textLength="130" x="13" y="647.9659">+getPropertiesList()</text><text fill="#000000" font-family="sans-serif" font-size="14" lengthAdjust="spacing" textLength="302" x="13" y="667.0339">+getPropertiesByPropertyType(propertyType)</text><text fill="#000000" font-family="sans-serif" font-size="14" lengthAdjust="spacing" textLength="247" x="13" y="686.1018">+getPropertiesByPrice(propertyPrice)</text><text fill="#000000" font-family="sans-serif" font-size="14" lengthAdjust="spacing" textLength="355" x="13" y="705.1697">+getPropertiesByNumberOfRooms(numberOfRooms)</text><text fill="#000000" font-family="sans-serif" font-size="14" lengthAdjust="spacing" textLength="320" x="13" y="724.2376">+getPropertiesByTypeOfBusiness(typeBusiness)</text></g><!--class VisitScheduleController--><g id="elem_VisitScheduleController"><rect codeLine="48" fill="#F1F1F1" height="67.0679" id="VisitScheduleController" rx="2.5" ry="2.5" style="stroke:#181818;stroke-width:0.5;" width="649" x="278" y="116"/><ellipse cx="519.75" cy="132" fill="#ADD1B2" rx="11" ry="11" style="stroke:#181818;stroke-width:1.0;"/><path d="M519.2188,138.6719 Q517.4688,138.6719 516.3281,137.9375 Q515.2031,137.1875 514.6406,135.8438 Q514.0938,134.4844 514.0938,132.6875 Q514.0938,130.6563 514.75,129.2031 Q515.4063,127.75 516.6875,126.9688 Q517.9688,126.1875 519.8438,126.1875 Q520.7344,126.1875 521.4063,126.375 Q522.0781,126.5469 522.7656,126.8906 L521.9531,128.9063 Q521.3281,128.5938 520.7813,128.4688 Q520.25,128.3438 519.7656,128.3438 Q518.5938,128.3438 517.8906,128.875 Q517.1875,129.4063 516.8906,130.3594 Q516.5938,131.3125 516.5938,132.5781 Q516.5938,134.5938 517.3125,135.5625 Q518.0313,136.5156 519.625,136.5156 Q520.2188,136.5156 520.8438,136.3594 Q521.4688,136.2031 522.2969,135.8281 L522.2969,138.0469 Q521.5625,138.3594 520.7656,138.5156 Q519.9844,138.6719 519.2188,138.6719 Z " fill="#000000"/><text fill="#000000" font-family="sans-serif" font-size="14" lengthAdjust="spacing" textLength="157" x="540.25" y="137.432">VisitScheduleController</text><line style="stroke:#181818;stroke-width:0.5;" x1="279" x2="926" y1="148" y2="148"/><line style="stroke:#181818;stroke-width:0.5;" x1="279" x2="926" y1="156" y2="156"/><text fill="#000000" font-family="sans-serif" font-size="14" lengthAdjust="spacing" textLength="637" x="284" y="174.9659">+submitVisitScheduleRequest(Property property, LocalDate date, LocalTime from, LocalTime to)</text></g><!--class VisitScheduleRequest--><g id="elem_VisitScheduleRequest"><rect codeLine="53" fill="#F1F1F1" height="67.0679" id="VisitScheduleRequest" rx="2.5" ry="2.5" style="stroke:#181818;stroke-width:0.5;" width="682" x="480.5" y="821.5"/><ellipse cx="744.75" cy="837.5" fill="#ADD1B2" rx="11" ry="11" style="stroke:#181818;stroke-width:1.0;"/><path d="M744.2188,844.1719 Q742.4688,844.1719 741.3281,843.4375 Q740.2031,842.6875 739.6406,841.3438 Q739.0938,839.9844 739.0938,838.1875 Q739.0938,836.1563 739.75,834.7031 Q740.4063,833.25 741.6875,832.4688 Q742.9688,831.6875 744.8438,831.6875 Q745.7344,831.6875 746.4063,831.875 Q747.0781,832.0469 747.7656,832.3906 L746.9531,834.4063 Q746.3281,834.0938 745.7813,833.9688 Q745.25,833.8438 744.7656,833.8438 Q743.5938,833.8438 742.8906,834.375 Q742.1875,834.9063 741.8906,835.8594 Q741.5938,836.8125 741.5938,838.0781 Q741.5938,840.0938 742.3125,841.0625 Q743.0313,842.0156 744.625,842.0156 Q745.2188,842.0156 745.8438,841.8594 Q746.4688,841.7031 747.2969,841.3281 L747.2969,843.5469 Q746.5625,843.8594 745.7656,844.0156 Q744.9844,844.1719 744.2188,844.1719 Z " fill="#000000"/><text fill="#000000" font-family="sans-serif" font-size="14" lengthAdjust="spacing" textLength="145" x="765.25" y="842.932">VisitScheduleRequest</text><line style="stroke:#181818;stroke-width:0.5;" x1="481.5" x2="1161.5" y1="853.5" y2="853.5"/><line style="stroke:#181818;stroke-width:0.5;" x1="481.5" x2="1161.5" y1="861.5" y2="861.5"/><text fill="#000000" font-family="sans-serif" font-size="14" lengthAdjust="spacing" textLength="670" x="486.5" y="880.4659">VisitScheduleRequest(Property property, Client client, LocalDate date, LocalTime from, LocalTime to)</text></g><!--class User--><g id="elem_User"><rect codeLine="58" fill="#F1F1F1" height="124.2717" id="User" rx="2.5" ry="2.5" style="stroke:#181818;stroke-width:0.5;" width="170" x="808.5" y="435"/><ellipse cx="873.75" cy="451" fill="#ADD1B2" rx="11" ry="11" style="stroke:#181818;stroke-width:1.0;"/><path d="M873.2188,457.6719 Q871.4688,457.6719 870.3281,456.9375 Q869.2031,456.1875 868.6406,454.8438 Q868.0938,453.4844 868.0938,451.6875 Q868.0938,449.6563 868.75,448.2031 Q869.4063,446.75 870.6875,445.9688 Q871.9688,445.1875 873.8438,445.1875 Q874.7344,445.1875 875.4063,445.375 Q876.0781,445.5469 876.7656,445.8906 L875.9531,447.9063 Q875.3281,447.5938 874.7813,447.4688 Q874.25,447.3438 873.7656,447.3438 Q872.5938,447.3438 871.8906,447.875 Q871.1875,448.4063 870.8906,449.3594 Q870.5938,450.3125 870.5938,451.5781 Q870.5938,453.5938 871.3125,454.5625 Q872.0313,455.5156 873.625,455.5156 Q874.2188,455.5156 874.8438,455.3594 Q875.4688,455.2031 876.2969,454.8281 L876.2969,457.0469 Q875.5625,457.3594 874.7656,457.5156 Q873.9844,457.6719 873.2188,457.6719 Z " fill="#000000"/><text fill="#000000" font-family="sans-serif" font-size="14" lengthAdjust="spacing" textLength="31" x="894.25" y="456.432">User</text><line style="stroke:#181818;stroke-width:0.5;" x1="809.5" x2="977.5" y1="467" y2="467"/><text fill="#000000" font-family="sans-serif" font-size="14" lengthAdjust="spacing" textLength="88" x="814.5" y="485.9659">-String name</text><text fill="#000000" font-family="sans-serif" font-size="14" lengthAdjust="spacing" textLength="87" x="814.5" y="505.0339">-String email</text><text fill="#000000" font-family="sans-serif" font-size="14" lengthAdjust="spacing" textLength="158" x="814.5" y="524.1018">-Integer phoneNumber</text><text fill="#000000" font-family="sans-serif" font-size="14" lengthAdjust="spacing" textLength="115" x="814.5" y="543.1697">-String password</text><line style="stroke:#181818;stroke-width:0.5;" x1="809.5" x2="977.5" y1="551.2717" y2="551.2717"/></g><!--link VisitScheduleUI to VisitScheduleController--><g id="link_VisitScheduleUI_VisitScheduleController"><path codeLine="68" d="M602.5,55.3 C602.5,70.67 602.5,91.2 602.5,109.08 " fill="none" id="VisitScheduleUI-to-VisitScheduleController" style="stroke:#181818;stroke-width:1.0;stroke-dasharray:7.0,7.0;"/><polygon fill="#181818" points="602.5,114.02,606.5,105.02,602.5,109.02,598.5,105.02,602.5,114.02" style="stroke:#181818;stroke-width:1.0;"/></g><!--link Repositories to Repositories--><g id="link_Repositories_Repositories"><path codeLine="70" d="M520.96,314.07 C541.36,316.73 555.5,323.2 555.5,333.5 C555.5,342.75 544.09,348.92 526.97,352 " fill="none" id="Repositories-to-Repositories" style="stroke:#181818;stroke-width:1.0;"/><polygon fill="#181818" points="522.45,352.7,531.9519,355.2912,527.3924,351.9429,530.7406,347.3834,522.45,352.7" style="stroke:#181818;stroke-width:1.0;"/><text fill="#000000" font-family="sans-serif" font-size="13" lengthAdjust="spacing" textLength="50" x="561.5" y="338.897">instance</text></g><!--link VisitScheduleController to Repositories--><g id="link_VisitScheduleController_Repositories"><path codeLine="72" d="M566.1,183.46 C543.23,204.17 512.75,231.76 484.24,257.58 " fill="none" id="VisitScheduleController-to-Repositories" style="stroke:#181818;stroke-width:1.0;stroke-dasharray:7.0,7.0;"/><polygon fill="#181818" points="480.81,260.69,490.169,257.6226,484.5194,257.3373,484.8047,251.6876,480.81,260.69" style="stroke:#181818;stroke-width:1.0;"/><text fill="#000000" font-family="sans-serif" font-size="13" lengthAdjust="spacing" textLength="71" x="533.5" y="227.897">repositories</text></g><!--link Repositories to ScheduleRequestRepository--><g id="link_Repositories_ScheduleRequestRepository"><path codeLine="74" d="M455.18,405.42 C502.57,468.02 570.33,557.55 611.49,611.92 " fill="none" id="Repositories-to-ScheduleRequestRepository" style="stroke:#181818;stroke-width:1.0;"/><polygon fill="#181818" points="614.47,615.87,612.2098,606.284,611.4449,611.8889,605.84,611.1241,614.47,615.87" style="stroke:#181818;stroke-width:1.0;"/></g><!--link VisitScheduleController to ScheduleRequestRepository--><g id="link_VisitScheduleController_ScheduleRequestRepository"><path codeLine="76" d="M608.26,183.21 C610.92,198.34 613.5,213 613.5,213 C613.5,213 617.5,262 617.5,262 C617.5,262 635.82,504.76 643.83,610.86 " fill="none" id="VisitScheduleController-to-ScheduleRequestRepository" style="stroke:#181818;stroke-width:1.0;stroke-dasharray:7.0,7.0;"/><polygon fill="#181818" points="644.2,615.83,647.5203,606.5577,643.8285,610.8438,639.5424,607.152,644.2,615.83" style="stroke:#181818;stroke-width:1.0;"/><text fill="#000000" font-family="sans-serif" font-size="13" lengthAdjust="spacing" textLength="168" x="629.5" y="338.897">ScheduleRequestRepository</text></g><!--link ScheduleRequestRepository to VisitScheduleRequest--><g id="link_ScheduleRequestRepository_VisitScheduleRequest"><path codeLine="78" d="M685.69,703.74 C716.1,737.4 758.29,784.07 787.54,816.43 " fill="none" id="ScheduleRequestRepository-to-VisitScheduleRequest" style="stroke:#181818;stroke-width:1.0;"/><polygon fill="#181818" points="790.74,819.97,787.6726,810.611,787.3873,816.2606,781.7376,815.9753,790.74,819.97" style="stroke:#181818;stroke-width:1.0;"/></g><!--link VisitScheduleController to PropertyRepository--><g id="link_VisitScheduleController_PropertyRepository"><path codeLine="80" d="M467.25,183.43 C332.18,216.31 144.5,262 144.5,262 C144.5,262 144.5,405 144.5,405 C144.5,405 163.02,507.46 176.56,582.36 " fill="none" id="VisitScheduleController-to-PropertyRepository" style="stroke:#181818;stroke-width:1.0;stroke-dasharray:7.0,7.0;"/><polygon fill="#181818" points="177.42,587.12,179.7602,577.5532,176.5331,582.1993,171.8871,578.9722,177.42,587.12" style="stroke:#181818;stroke-width:1.0;"/><text fill="#000000" font-family="sans-serif" font-size="13" lengthAdjust="spacing" textLength="118" x="145.5" y="338.897">PropertyRepository</text></g><!--link Repositories to PropertyRepository--><g id="link_Repositories_PropertyRepository"><path codeLine="82" d="M355.46,405.42 C321.27,458.07 274.72,529.77 239.79,583.58 " fill="none" id="Repositories-to-PropertyRepository" style="stroke:#181818;stroke-width:1.0;"/><polygon fill="#181818" points="237.27,587.46,245.5357,582.1049,240.0005,583.2714,238.8339,577.7361,237.27,587.46" style="stroke:#181818;stroke-width:1.0;"/></g><!--link PropertyRepository to Property--><g id="link_PropertyRepository_Property"><path codeLine="84" d="M190.5,732.36 C190.5,750.02 190.5,768.92 190.5,786.42 " fill="none" id="PropertyRepository-to-Property" style="stroke:#181818;stroke-width:1.0;"/><polygon fill="#181818" points="190.5,791.28,194.5,782.28,190.5,786.28,186.5,782.28,190.5,791.28" style="stroke:#181818;stroke-width:1.0;"/></g><!--link VisitScheduleController to User--><g id="link_VisitScheduleController_User"><path codeLine="86" d="M674.98,183.35 C747.54,216.24 848.5,262 848.5,262 C848.5,262 867.2,359.23 880.49,428.34 " fill="none" id="VisitScheduleController-to-User" style="stroke:#181818;stroke-width:1.0;stroke-dasharray:7.0,7.0;"/><polygon fill="#181818" points="881.39,433.03,883.6225,423.4375,880.4479,428.1196,875.7658,424.9449,881.39,433.03" style="stroke:#181818;stroke-width:1.0;"/><text fill="#000000" font-family="sans-serif" font-size="13" lengthAdjust="spacing" textLength="26" x="782.5" y="227.897">user</text></g><!--link User to VisitScheduleRequest--><g id="link_User_VisitScheduleRequest"><path codeLine="88" d="M881.12,559.2 C865.76,635.14 840.13,761.87 828.11,821.32 " fill="none" id="User-VisitScheduleRequest" style="stroke:#181818;stroke-width:1.0;"/><polygon fill="#000000" points="878.5089,665.7538,883.1824,657.4708,877.4212,656.3056,878.5089,665.7538" style="stroke:#000000;stroke-width:1.0;"/><text fill="#000000" font-family="sans-serif" font-size="13" lengthAdjust="spacing" textLength="50" x="888.5" y="665.897">Propose</text><text fill="#000000" font-family="sans-serif" font-size="13" lengthAdjust="spacing" textLength="7" x="872.2839" y="581.2968">1</text><text fill="#000000" font-family="sans-serif" font-size="13" lengthAdjust="spacing" textLength="7" x="821.7514" y="809.5832">*</text></g><!--SRC=[dLJ1Rjim3BthAuXSugnBiLs38S2QNG8Kwv2qkoisOmkLHK-YLtZ1_dsoOoUs9mV3V8X3wl7naI8zTw_A5DBA778o56UMSWIs9OhhII7ZLvdYdYkDO35cQLBT1xXC9lIcJ0f7gLt_H2k3N1K81UcgDiGyS4YMIVIYOYsT-ynirQ5atCPazkeNmWSXvXgF34nWLPen9AgMeyW8qSJ0T-KKx-CCarBZo_OaVWlHdNNk7VueqV4E2_9WiXMS1FZdKJd-D21eaMlu6V2w9kWkHGx5k9fDrEdFoRzPAj1oTH9BPHYaHNd-5okkDcWOxTakh8fHt7NuQ77bk2XMw5hDou7JWnjDu4LjZVFt56EqWDK0T8LCDgJZyPYcybk0LgWdlXwBfl1HvN_rkz5m3QyR5kHzg3gAPpyiKT4pfk2-XHTSOuM1NylyWFRfk2FANMJwLZYWplbqV2YTdrpdedfuEwDtJuDvs91XIrgZxSfsvI5NmQ69kaAX4_yU7YcM-ejaXCJ_jFQpybjwzBlQjvaMOa94otyI_vfrenNMmzcy_b_4YxkKlOIztsV_YJ0onw47SwbqwzhwJKXzK96HmVFz3C65vtqZcvn7J8mM7kxlrnFj5sAmFylrS9zMeDgD6P7sBj2JZuDiVxD66NoAoHMxdMJwKxMwHJaTLci9tVqD6UlGvgu2pa3P8L20hG-ztP1ca5PGkleU6sFsSURZOVPk5YoiLKeEOVq7]--></g></svg>