<?xml version="1.0" encoding="us-ascii" standalone="no"?><svg xmlns="http://www.w3.org/2000/svg" xmlns:xlink="http://www.w3.org/1999/xlink" contentStyleType="text/css" height="623px" preserveAspectRatio="none" style="width:532px;height:623px;background:#FFFFFF;" version="1.1" viewBox="0 0 532 623" width="532px" zoomAndPan="magnify"><defs/><g><!--cluster System--><g id="cluster_System"><rect fill="none" height="610" rx="2.5" ry="2.5" style="stroke:#181818;stroke-width:1.0;" width="295" x="231" y="7"/><text fill="#000000" font-family="sans-serif" font-size="14" font-weight="bold" lengthAdjust="spacing" textLength="51" x="353" y="23.9659">System</text></g><g id="elem_UC1 - Display listed properties"><ellipse cx="378.668" cy="72.1336" fill="#F1F1F1" rx="121.168" ry="26.6336" style="stroke:#181818;stroke-width:0.5;"/><text fill="#000000" font-family="sans-serif" font-size="14" lengthAdjust="spacing" textLength="204" x="274.5593" y="76.5211">UC1 - Display listed properties</text></g><g id="elem_UC7 - Register as a client"><ellipse cx="378.4886" cy="156.9977" fill="#F1F1F1" rx="105.4886" ry="23.4977" style="stroke:#181818;stroke-width:0.5;"/><text fill="#000000" font-family="sans-serif" font-size="14" lengthAdjust="spacing" textLength="168" x="291.4886" y="161.7307">UC7 - Register as a client</text></g><g id="elem_UC2 - Publish sale announcement"><ellipse cx="378.6578" cy="244.2316" fill="#F1F1F1" rx="131.6578" ry="28.7316" style="stroke:#181818;stroke-width:0.5;"/><text fill="#000000" font-family="sans-serif" font-size="14" lengthAdjust="spacing" textLength="227" x="265.0073" y="247.739">UC2 - Publish sale announcement</text></g><g id="elem_UC3 - Register employee"><ellipse cx="378.7183" cy="331.2437" fill="#F1F1F1" rx="104.2183" ry="23.2437" style="stroke:#181818;stroke-width:0.5;"/><text fill="#000000" font-family="sans-serif" font-size="14" lengthAdjust="spacing" textLength="165" x="293.2183" y="335.9766">UC3 - Register employee</text></g><g id="elem_UC4 - Requests listing a property"><ellipse cx="378.3468" cy="571.7694" fill="#F1F1F1" rx="129.3468" ry="28.2694" style="stroke:#181818;stroke-width:0.5;"/><text fill="#000000" font-family="sans-serif" font-size="14" lengthAdjust="spacing" textLength="222" x="266.7982" y="575.4706">UC4 - Requests listing a property</text></g><g id="elem_UC5 - Register store"><ellipse cx="378.515" cy="410.203" fill="#F1F1F1" rx="91.515" ry="20.703" style="stroke:#181818;stroke-width:0.5;"/><text fill="#000000" font-family="sans-serif" font-size="14" lengthAdjust="spacing" textLength="134" x="308.515" y="414.936">UC5 - Register store</text></g><g id="elem_UC6 - Specify address"><ellipse cx="378.3322" cy="487.1664" fill="#F1F1F1" rx="96.3322" ry="21.6664" style="stroke:#181818;stroke-width:0.5;"/><text fill="#000000" font-family="sans-serif" font-size="14" lengthAdjust="spacing" textLength="146" x="302.3322" y="491.8994">UC6 - Specify address</text></g><!--entity UnregisteredUser--><g id="elem_UnregisteredUser"><ellipse cx="66" cy="77" fill="#F1F1F1" rx="8" ry="8" style="stroke:#181818;stroke-width:0.5;"/><path d="M66,85 L66,112 M53,93 L79,93 M66,112 L53,127 M66,112 L79,127 " fill="none" style="stroke:#181818;stroke-width:0.5;"/><text fill="#000000" font-family="sans-serif" font-size="14" lengthAdjust="spacing" textLength="120" x="6" y="143.4659">UnregisteredUser</text></g><!--entity Agent--><g id="elem_Agent"><ellipse cx="66" cy="213" fill="#F1F1F1" rx="8" ry="8" style="stroke:#181818;stroke-width:0.5;"/><path d="M66,221 L66,248 M53,229 L79,229 M66,248 L53,263 M66,248 L79,263 " fill="none" style="stroke:#181818;stroke-width:0.5;"/><text fill="#000000" font-family="sans-serif" font-size="14" lengthAdjust="spacing" textLength="40" x="46" y="279.4659">Agent</text></g><!--entity Administrator--><g id="elem_Administrator"><ellipse cx="66" cy="379" fill="#F1F1F1" rx="8" ry="8" style="stroke:#181818;stroke-width:0.5;"/><path d="M66,387 L66,414 M53,395 L79,395 M66,414 L53,429 M66,414 L79,429 " fill="none" style="stroke:#181818;stroke-width:0.5;"/><text fill="#000000" font-family="sans-serif" font-size="14" lengthAdjust="spacing" textLength="93" x="19.5" y="445.4659">Administrator</text></g><!--entity Owner--><g id="elem_Owner"><ellipse cx="66" cy="541" fill="#F1F1F1" rx="8" ry="8" style="stroke:#181818;stroke-width:0.5;"/><path d="M66,549 L66,576 M53,557 L79,557 M66,576 L53,591 M66,576 L79,591 " fill="none" style="stroke:#181818;stroke-width:0.5;"/><text fill="#000000" font-family="sans-serif" font-size="14" lengthAdjust="spacing" textLength="45" x="43.5" y="607.4659">Owner</text></g><!--link UnregisteredUser to UC1 - Display listed properties--><g id="link_UnregisteredUser_UC1 - Display listed properties"><path d="M126.13,101.14 C166.95,96.41 222.39,89.98 270.82,84.37 " fill="none" id="UnregisteredUser-UC1 - Display listed properties" style="stroke:#181818;stroke-width:1.0;"/></g><!--link UnregisteredUser to UC7 - Register as a client--><g id="link_UnregisteredUser_UC7 - Register as a client"><path d="M126.13,117.33 C172.85,124.7 238.71,135.1 291.29,143.4 " fill="none" id="UnregisteredUser-UC7 - Register as a client" style="stroke:#181818;stroke-width:1.0;"/></g><!--link Agent to UC2 - Publish sale announcement--><g id="link_Agent_UC2 - Publish sale announcement"><path d="M86.42,244 C118.55,244 185.34,244 246.84,244 " fill="none" id="Agent-UC2 - Publish sale announcement" style="stroke:#181818;stroke-width:1.0;"/></g><!--link Administrator to UC3 - Register employee--><g id="link_Administrator_UC3 - Register employee"><path d="M112.82,398.34 C164.52,385.19 249.17,363.65 308.8,348.48 " fill="none" id="Administrator-UC3 - Register employee" style="stroke:#181818;stroke-width:1.0;"/></g><!--link Owner to UC4 - Requests listing a property--><g id="link_Owner_UC4 - Requests listing a property"><path d="M88.83,572 C122.17,572 188.28,572 248.83,572 " fill="none" id="Owner-UC4 - Requests listing a property" style="stroke:#181818;stroke-width:1.0;"/></g><!--link Administrator to UC5 - Register store--><g id="link_Administrator_UC5 - Register store"><path d="M112.82,410 C158.36,410 229.48,410 286.53,410 " fill="none" id="Administrator-UC5 - Register store" style="stroke:#181818;stroke-width:1.0;"/></g><!--link Administrator to UC6 - Specify address--><g id="link_Administrator_UC6 - Specify address"><path d="M112.82,421.36 C165.62,434.46 252.78,456.07 312.56,470.89 " fill="none" id="Administrator-UC6 - Specify address" style="stroke:#181818;stroke-width:1.0;"/></g><!--SRC=[VL2xJiKm3Dtp5HvXwC1xHh23gFe19l7DZMvUEAbGXFXtt2gLAePcIdmUFYUUJXLg0dRsNC4u9brTYgfSNCp8622Zlg2biJPFiC1AATGrCKoHoRfIYSbCXRYFdot5kjrDS54eZFBgixVlA5orM66qOZesyGW_Ie6S_wOm30DSJIytCC2hAzbZ0x_W1ZAdJ5mTbUjZxPDeFpe2M011UoSXksmDl75lXVi-VygACnIKT1XZcgEci1FiMst2k_qI2jcdHjG5Q-MDUByIlsOgjQnLNBGIgRTfHpiUzZkA07J4VXJsc4cxKmCqXgd8H_sgFm00]--></g></svg>