<?xml version="1.0" encoding="us-ascii" standalone="no"?><svg xmlns="http://www.w3.org/2000/svg" xmlns:xlink="http://www.w3.org/1999/xlink" contentStyleType="text/css" height="806px" preserveAspectRatio="none" style="width:1202px;height:806px;background:#FFFFFF;" version="1.1" viewBox="0 0 1202 806" width="1202px" zoomAndPan="magnify"><defs/><g><!--class DivideAgenciesUI--><g id="elem_DivideAgenciesUI"><rect codeLine="11" fill="#F1F1F1" height="48" id="DivideAgenciesUI" rx="2.5" ry="2.5" style="stroke:#181818;stroke-width:0.5;" width="150" x="285.5" y="7"/><ellipse cx="300.5" cy="23" fill="#ADD1B2" rx="11" ry="11" style="stroke:#181818;stroke-width:1.0;"/><path d="M299.9688,29.6719 Q298.2188,29.6719 297.0781,28.9375 Q295.9531,28.1875 295.3906,26.8438 Q294.8438,25.4844 294.8438,23.6875 Q294.8438,21.6563 295.5,20.2031 Q296.1563,18.75 297.4375,17.9688 Q298.7188,17.1875 300.5938,17.1875 Q301.4844,17.1875 302.1563,17.375 Q302.8281,17.5469 303.5156,17.8906 L302.7031,19.9063 Q302.0781,19.5938 301.5313,19.4688 Q301,19.3438 300.5156,19.3438 Q299.3438,19.3438 298.6406,19.875 Q297.9375,20.4063 297.6406,21.3594 Q297.3438,22.3125 297.3438,23.5781 Q297.3438,25.5938 298.0625,26.5625 Q298.7813,27.5156 300.375,27.5156 Q300.9688,27.5156 301.5938,27.3594 Q302.2188,27.2031 303.0469,26.8281 L303.0469,29.0469 Q302.3125,29.3594 301.5156,29.5156 Q300.7344,29.6719 299.9688,29.6719 Z " fill="#000000"/><text fill="#000000" font-family="sans-serif" font-size="14" lengthAdjust="spacing" textLength="118" x="314.5" y="28.432">DivideAgenciesUI</text><line style="stroke:#181818;stroke-width:0.5;" x1="286.5" x2="434.5" y1="39" y2="39"/><line style="stroke:#181818;stroke-width:0.5;" x1="286.5" x2="434.5" y1="47" y2="47"/></g><!--class DivideAgenciesController--><g id="elem_DivideAgenciesController"><rect codeLine="13" fill="#F1F1F1" height="124.2717" id="DivideAgenciesController" rx="2.5" ry="2.5" style="stroke:#181818;stroke-width:0.5;" width="382" x="169.5" y="116"/><ellipse cx="271.25" cy="132" fill="#ADD1B2" rx="11" ry="11" style="stroke:#181818;stroke-width:1.0;"/><path d="M270.7188,138.6719 Q268.9688,138.6719 267.8281,137.9375 Q266.7031,137.1875 266.1406,135.8438 Q265.5938,134.4844 265.5938,132.6875 Q265.5938,130.6563 266.25,129.2031 Q266.9063,127.75 268.1875,126.9688 Q269.4688,126.1875 271.3438,126.1875 Q272.2344,126.1875 272.9063,126.375 Q273.5781,126.5469 274.2656,126.8906 L273.4531,128.9063 Q272.8281,128.5938 272.2813,128.4688 Q271.75,128.3438 271.2656,128.3438 Q270.0938,128.3438 269.3906,128.875 Q268.6875,129.4063 268.3906,130.3594 Q268.0938,131.3125 268.0938,132.5781 Q268.0938,134.5938 268.8125,135.5625 Q269.5313,136.5156 271.125,136.5156 Q271.7188,136.5156 272.3438,136.3594 Q272.9688,136.2031 273.7969,135.8281 L273.7969,138.0469 Q273.0625,138.3594 272.2656,138.5156 Q271.4844,138.6719 270.7188,138.6719 Z " fill="#000000"/><text fill="#000000" font-family="sans-serif" font-size="14" lengthAdjust="spacing" textLength="170" x="291.75" y="137.432">DivideAgenciesController</text><line style="stroke:#181818;stroke-width:0.5;" x1="170.5" x2="550.5" y1="148" y2="148"/><line style="stroke:#181818;stroke-width:0.5;" x1="170.5" x2="550.5" y1="156" y2="156"/><text fill="#000000" font-family="sans-serif" font-size="14" lengthAdjust="spacing" textLength="305" x="175.5" y="174.9659">+DivideAgenciesController(agencyRepository)</text><text fill="#000000" font-family="sans-serif" font-size="14" lengthAdjust="spacing" textLength="99" x="175.5" y="194.0339">+getAgencies()</text><text fill="#000000" font-family="sans-serif" font-size="14" lengthAdjust="spacing" textLength="370" x="175.5" y="213.1018">+getPartitionSublist(agencyList, numAgenciesToDivide)</text><text fill="#000000" font-family="sans-serif" font-size="14" lengthAdjust="spacing" textLength="259" x="175.5" y="232.1697">+divideSetOfAgencies(partitionSublist)</text></g><!--class Repositories--><g id="elem_Repositories"><rect codeLine="20" fill="#F1F1F1" height="105.2038" id="Repositories" rx="2.5" ry="2.5" style="stroke:#181818;stroke-width:0.5;" width="203" x="7" y="395.5"/><ellipse cx="62.75" cy="411.5" fill="#ADD1B2" rx="11" ry="11" style="stroke:#181818;stroke-width:1.0;"/><path d="M62.2188,418.1719 Q60.4688,418.1719 59.3281,417.4375 Q58.2031,416.6875 57.6406,415.3438 Q57.0938,413.9844 57.0938,412.1875 Q57.0938,410.1563 57.75,408.7031 Q58.4063,407.25 59.6875,406.4688 Q60.9688,405.6875 62.8438,405.6875 Q63.7344,405.6875 64.4063,405.875 Q65.0781,406.0469 65.7656,406.3906 L64.9531,408.4063 Q64.3281,408.0938 63.7813,407.9688 Q63.25,407.8438 62.7656,407.8438 Q61.5938,407.8438 60.8906,408.375 Q60.1875,408.9063 59.8906,409.8594 Q59.5938,410.8125 59.5938,412.0781 Q59.5938,414.0938 60.3125,415.0625 Q61.0313,416.0156 62.625,416.0156 Q63.2188,416.0156 63.8438,415.8594 Q64.4688,415.7031 65.2969,415.3281 L65.2969,417.5469 Q64.5625,417.8594 63.7656,418.0156 Q62.9844,418.1719 62.2188,418.1719 Z " fill="#000000"/><text fill="#000000" font-family="sans-serif" font-size="14" lengthAdjust="spacing" textLength="83" x="83.25" y="416.932">Repositories</text><line style="stroke:#181818;stroke-width:0.5;" x1="8" x2="209" y1="427.5" y2="427.5"/><line style="stroke:#181818;stroke-width:0.5;" x1="8" x2="209" y1="435.5" y2="435.5"/><text fill="#000000" font-family="sans-serif" font-size="14" lengthAdjust="spacing" textLength="96" x="13" y="454.4659">-Repositories()</text><text fill="#000000" font-family="sans-serif" font-size="14" lengthAdjust="spacing" textLength="191" x="13" y="473.5339">+getInstance() : Repositories</text><text fill="#000000" font-family="sans-serif" font-size="14" lengthAdjust="spacing" textLength="158" x="13" y="492.6018">+getAgencyRepository()</text></g><!--class AgencyRepository--><g id="elem_AgencyRepository"><rect codeLine="26" fill="#F1F1F1" height="105.2038" id="AgencyRepository" rx="2.5" ry="2.5" style="stroke:#181818;stroke-width:0.5;" width="382" x="43.5" y="675"/><ellipse cx="170.25" cy="691" fill="#ADD1B2" rx="11" ry="11" style="stroke:#181818;stroke-width:1.0;"/><path d="M169.7188,697.6719 Q167.9688,697.6719 166.8281,696.9375 Q165.7031,696.1875 165.1406,694.8438 Q164.5938,693.4844 164.5938,691.6875 Q164.5938,689.6563 165.25,688.2031 Q165.9063,686.75 167.1875,685.9688 Q168.4688,685.1875 170.3438,685.1875 Q171.2344,685.1875 171.9063,685.375 Q172.5781,685.5469 173.2656,685.8906 L172.4531,687.9063 Q171.8281,687.5938 171.2813,687.4688 Q170.75,687.3438 170.2656,687.3438 Q169.0938,687.3438 168.3906,687.875 Q167.6875,688.4063 167.3906,689.3594 Q167.0938,690.3125 167.0938,691.5781 Q167.0938,693.5938 167.8125,694.5625 Q168.5313,695.5156 170.125,695.5156 Q170.7188,695.5156 171.3438,695.3594 Q171.9688,695.2031 172.7969,694.8281 L172.7969,697.0469 Q172.0625,697.3594 171.2656,697.5156 Q170.4844,697.6719 169.7188,697.6719 Z " fill="#000000"/><text fill="#000000" font-family="sans-serif" font-size="14" lengthAdjust="spacing" textLength="120" x="190.75" y="696.432">AgencyRepository</text><line style="stroke:#181818;stroke-width:0.5;" x1="44.5" x2="424.5" y1="707" y2="707"/><line style="stroke:#181818;stroke-width:0.5;" x1="44.5" x2="424.5" y1="715" y2="715"/><text fill="#000000" font-family="sans-serif" font-size="14" lengthAdjust="spacing" textLength="370" x="49.5" y="733.9659">+getPartitionSublist(agencyList, numAgenciesToDivide)</text><text fill="#000000" font-family="sans-serif" font-size="14" lengthAdjust="spacing" textLength="338" x="49.5" y="753.0339">+getNumberPropertiesPerAgency(partitionSublist)</text><text fill="#000000" font-family="sans-serif" font-size="14" lengthAdjust="spacing" textLength="216" x="49.5" y="772.1018">+getOrdersFromAgency(agency)</text></g><!--class DivideAgenciesAlgorithm--><g id="elem_DivideAgenciesAlgorithm"><rect codeLine="32" fill="#F1F1F1" height="257.7471" id="DivideAgenciesAlgorithm" rx="2.5" ry="2.5" style="stroke:#181818;stroke-width:0.5;" width="689" x="506" y="319"/><ellipse cx="761.25" cy="335" fill="#ADD1B2" rx="11" ry="11" style="stroke:#181818;stroke-width:1.0;"/><path d="M760.7188,341.6719 Q758.9688,341.6719 757.8281,340.9375 Q756.7031,340.1875 756.1406,338.8438 Q755.5938,337.4844 755.5938,335.6875 Q755.5938,333.6563 756.25,332.2031 Q756.9063,330.75 758.1875,329.9688 Q759.4688,329.1875 761.3438,329.1875 Q762.2344,329.1875 762.9063,329.375 Q763.5781,329.5469 764.2656,329.8906 L763.4531,331.9063 Q762.8281,331.5938 762.2813,331.4688 Q761.75,331.3438 761.2656,331.3438 Q760.0938,331.3438 759.3906,331.875 Q758.6875,332.4063 758.3906,333.3594 Q758.0938,334.3125 758.0938,335.5781 Q758.0938,337.5938 758.8125,338.5625 Q759.5313,339.5156 761.125,339.5156 Q761.7188,339.5156 762.3438,339.3594 Q762.9688,339.2031 763.7969,338.8281 L763.7969,341.0469 Q763.0625,341.3594 762.2656,341.5156 Q761.4844,341.6719 760.7188,341.6719 Z " fill="#000000"/><text fill="#000000" font-family="sans-serif" font-size="14" lengthAdjust="spacing" textLength="170" x="781.75" y="340.432">DivideAgenciesAlgorithm</text><line style="stroke:#181818;stroke-width:0.5;" x1="507" x2="1194" y1="351" y2="351"/><text fill="#000000" font-family="sans-serif" font-size="14" lengthAdjust="spacing" textLength="183" x="512" y="369.9659">-static final int DIFFERENCE</text><text fill="#000000" font-family="sans-serif" font-size="14" lengthAdjust="spacing" textLength="218" x="512" y="389.0339">-static final int MIN_DIFFERENCE</text><text fill="#000000" font-family="sans-serif" font-size="14" lengthAdjust="spacing" textLength="266" x="512" y="408.1018">-static final int MIN_DIFFERENCE_INDEX</text><line style="stroke:#181818;stroke-width:0.5;" x1="507" x2="1194" y1="416.2038" y2="416.2038"/><text fill="#000000" font-family="sans-serif" font-size="14" lengthAdjust="spacing" textLength="393" x="512" y="435.1697">+static divideSetOfAgencies(numPropertiesInAgenciesList)</text><text fill="#000000" font-family="sans-serif" font-size="14" lengthAdjust="spacing" textLength="325" x="512" y="454.2376">-static verifyIfDifferenceIsMin(differenceArray, i)</text><text fill="#000000" font-family="sans-serif" font-size="14" lengthAdjust="spacing" textLength="196" x="512" y="473.3055">-static calculatePowerNum(n)</text><text fill="#000000" font-family="sans-serif" font-size="14" lengthAdjust="spacing" textLength="202" x="512" y="492.3734">-static convertIntToBinary(i, n)</text><text fill="#000000" font-family="sans-serif" font-size="14" lengthAdjust="spacing" textLength="571" x="512" y="511.4414">-static createSublists(numPropertiesInAgenciesList, binaryString, zeroList, oneList, n)</text><text fill="#000000" font-family="sans-serif" font-size="14" lengthAdjust="spacing" textLength="677" x="512" y="530.5093">-static calculateDifferenceOfTheSum(numPropertiesInAgenciesList, binaryString, n, zeroList, oneList)</text><text fill="#000000" font-family="sans-serif" font-size="14" lengthAdjust="spacing" textLength="216" x="512" y="549.5772">-static calculateAbsoluteValue(x)</text><text fill="#000000" font-family="sans-serif" font-size="14" lengthAdjust="spacing" textLength="173" x="512" y="568.6451">-static sublistSum(sublist)</text></g><!--class SublistsAndSumDifference--><g id="elem_SublistsAndSumDifference"><rect codeLine="46" fill="#F1F1F1" height="143.3396" id="SublistsAndSumDifference" rx="2.5" ry="2.5" style="stroke:#181818;stroke-width:0.5;" width="473" x="614" y="656"/><ellipse cx="756.25" cy="672" fill="#ADD1B2" rx="11" ry="11" style="stroke:#181818;stroke-width:1.0;"/><path d="M755.7188,678.6719 Q753.9688,678.6719 752.8281,677.9375 Q751.7031,677.1875 751.1406,675.8438 Q750.5938,674.4844 750.5938,672.6875 Q750.5938,670.6563 751.25,669.2031 Q751.9063,667.75 753.1875,666.9688 Q754.4688,666.1875 756.3438,666.1875 Q757.2344,666.1875 757.9063,666.375 Q758.5781,666.5469 759.2656,666.8906 L758.4531,668.9063 Q757.8281,668.5938 757.2813,668.4688 Q756.75,668.3438 756.2656,668.3438 Q755.0938,668.3438 754.3906,668.875 Q753.6875,669.4063 753.3906,670.3594 Q753.0938,671.3125 753.0938,672.5781 Q753.0938,674.5938 753.8125,675.5625 Q754.5313,676.5156 756.125,676.5156 Q756.7188,676.5156 757.3438,676.3594 Q757.9688,676.2031 758.7969,675.8281 L758.7969,678.0469 Q758.0625,678.3594 757.2656,678.5156 Q756.4844,678.6719 755.7188,678.6719 Z " fill="#000000"/><text fill="#000000" font-family="sans-serif" font-size="14" lengthAdjust="spacing" textLength="180" x="776.75" y="677.432">SublistsAndSumDifference</text><line style="stroke:#181818;stroke-width:0.5;" x1="615" x2="1086" y1="688" y2="688"/><text fill="#000000" font-family="sans-serif" font-size="14" lengthAdjust="spacing" textLength="109" x="620" y="706.9659">-int[] inputArray</text><text fill="#000000" font-family="sans-serif" font-size="14" lengthAdjust="spacing" textLength="85" x="620" y="726.0339">-int[] oneList</text><text fill="#000000" font-family="sans-serif" font-size="14" lengthAdjust="spacing" textLength="89" x="620" y="745.1018">-int[] zeroList</text><text fill="#000000" font-family="sans-serif" font-size="14" lengthAdjust="spacing" textLength="96" x="620" y="764.1697">-int difference</text><line style="stroke:#181818;stroke-width:0.5;" x1="615" x2="1086" y1="772.2717" y2="772.2717"/><text fill="#000000" font-family="sans-serif" font-size="14" lengthAdjust="spacing" textLength="461" x="620" y="791.2376">+SublistsAndSumDifference(inputArray, oneList, zeroList, difference)</text></g><!--link DivideAgenciesUI to DivideAgenciesController--><g id="link_DivideAgenciesUI_DivideAgenciesController"><path codeLine="55" d="M360.5,55.3 C360.5,70.03 360.5,89.9 360.5,109.31 " fill="none" id="DivideAgenciesUI-to-DivideAgenciesController" style="stroke:#181818;stroke-width:1.0;stroke-dasharray:7.0,7.0;"/><polygon fill="#181818" points="360.5,114.08,364.5,105.08,360.5,109.08,356.5,105.08,360.5,114.08" style="stroke:#181818;stroke-width:1.0;"/></g><!--link DivideAgenciesController to Repositories--><g id="link_DivideAgenciesController_Repositories"><path codeLine="57" d="M293.64,240.45 C275.86,256.8 261.5,270 261.5,270 C261.5,270 201.97,338.86 157.18,390.69 " fill="none" id="DivideAgenciesController-to-Repositories" style="stroke:#181818;stroke-width:1.0;stroke-dasharray:7.0,7.0;"/><polygon fill="#181818" points="154.16,394.18,163.0711,389.9857,157.4292,390.3968,157.0181,384.755,154.16,394.18" style="stroke:#181818;stroke-width:1.0;"/><text fill="#000000" font-family="sans-serif" font-size="13" lengthAdjust="spacing" textLength="71" x="262.5" y="284.897">repositories</text></g><!--link DivideAgenciesController to AgencyRepository--><g id="link_DivideAgenciesController_AgencyRepository"><path codeLine="58" d="M352.83,240.22 C337.49,362.64 304.5,626 304.5,626 C304.5,626 289.96,646.88 274.13,669.6 " fill="none" id="DivideAgenciesController-to-AgencyRepository" style="stroke:#181818;stroke-width:1.0;stroke-dasharray:7.0,7.0;"/><polygon fill="#181818" points="271.39,673.54,279.8174,668.443,274.2487,669.4378,273.2539,663.8691,271.39,673.54" style="stroke:#181818;stroke-width:1.0;"/><text fill="#000000" font-family="sans-serif" font-size="13" lengthAdjust="spacing" textLength="108" x="344.5" y="453.397">agencyRepository</text></g><!--link DivideAgenciesController to DivideAgenciesAlgorithm--><g id="link_DivideAgenciesController_DivideAgenciesAlgorithm"><path codeLine="59" d="M472.92,240.48 C514,262.95 562.2,289.32 610.16,315.55 " fill="none" id="DivideAgenciesController-to-DivideAgenciesAlgorithm" style="stroke:#181818;stroke-width:1.0;stroke-dasharray:7.0,7.0;"/><polygon fill="#181818" points="614.37,317.85,608.3951,310.0206,609.9838,315.4497,604.5546,317.0385,614.37,317.85" style="stroke:#181818;stroke-width:1.0;"/><text fill="#000000" font-family="sans-serif" font-size="13" lengthAdjust="spacing" textLength="149" x="563.5" y="284.897">divideAgenciesAlgorithm</text></g><!--link Repositories to Repositories--><g id="link_Repositories_Repositories"><path codeLine="61" d="M210.29,417.71 C230.55,421.12 245,431.22 245,448 C245,463.08 233.34,472.76 216.28,477.04 " fill="none" id="Repositories-to-Repositories" style="stroke:#181818;stroke-width:1.0;"/><polygon fill="#181818" points="211.78,477.98,221.4098,480.0458,216.6734,476.9528,219.7663,472.2164,211.78,477.98" style="stroke:#181818;stroke-width:1.0;"/><text fill="#000000" font-family="sans-serif" font-size="13" lengthAdjust="spacing" textLength="50" x="251" y="453.397">instance</text></g><!--link Repositories to AgencyRepository--><g id="link_Repositories_AgencyRepository"><path codeLine="62" d="M132.05,500.87 C153.75,548.66 185.89,619.45 208.37,668.96 " fill="none" id="Repositories-to-AgencyRepository" style="stroke:#181818;stroke-width:1.0;"/><polygon fill="#181818" points="210.44,673.51,210.3456,663.6616,208.3656,668.9606,203.0666,666.9806,210.44,673.51" style="stroke:#181818;stroke-width:1.0;"/><text fill="#000000" font-family="sans-serif" font-size="13" lengthAdjust="spacing" textLength="108" x="187.5" y="621.897">agencyRepository</text></g><!--link DivideAgenciesAlgorithm to SublistsAndSumDifference--><g id="link_DivideAgenciesAlgorithm_SublistsAndSumDifference"><path codeLine="64" d="M850.5,577.19 C850.5,601.85 850.5,626.96 850.5,649.38 " fill="none" id="DivideAgenciesAlgorithm-to-SublistsAndSumDifference" style="stroke:#181818;stroke-width:1.0;"/><polygon fill="#181818" points="850.5,654.12,854.5,645.12,850.5,649.12,846.5,645.12,850.5,654.12" style="stroke:#181818;stroke-width:1.0;"/><text fill="#000000" font-family="sans-serif" font-size="13" lengthAdjust="spacing" textLength="43" x="851.5" y="621.897">creates</text></g><!--SRC=[fLHDRzim3BthL-WM1qkAdNSOu3K9OA1DWYOR1Wn5eTYq8rIM34bkvnRxxwE_Fs87AvQ34P7laO-an9bvvZ9XciKqLbBvPwrYe5QdG5fFmlnd5i71PWAe1jyo6Oakm9nPe5wvZ6Z8XEbw19TWimHeeaIM7yXinAcqLQJ3yWKpnhLMyrDgmVELFF0te9y9cGa8BRMAQXwTBGruBeShIKZ1eIl-mWDm8v0-1_FT6xVVAccr4WBqEw7u-pJfTrXkoXuWKOPRfRDvHOZ0rcYdOzipRNakw92U13Usuj_XtmMLQLnpZghCM5E3udG0kmkRiCaWrfpygSjfz22kB67PitKbUTBWm7nmvlHB3pIef5EaqqarzBt_Vx58tQRn2VHUgmGm1fWzw3BHIDKDQQS3q6Q3LxJ2blawOljZT4M4XTfpNBS86s6vJqCkcQ1SMhhoDflrmtfxkvv2t7lRfu-YdhpjQlspqbrXnmQCBMexuCdQVjTKtMHw0St3p0jNF0n18mmySy-b4pHdLskMBIWV47qc_5Gm2tlr2XgxxiWXGacCZhV47jKtB0Ydpt5wGvG635ADvAho1JqLKGxuUcMqe6-WLMbN4gghCIMoBMyN7i-OBlv89ZcIR2gJUp9Au6xvmKGApky1p9HrvldDnTkhc-3A006jvFgIuNtuzOZV9BN5K7hcIbRFLejkZRITQtMBff8wRPvEWzisj86A2iXmFzARcw-Josy8Rpq5hRjBSBNexcgvIXok52GFr-pr01FF7EC4unv2UcANomlrlDgIby1_KKkc5EK1fcQ7WSfdPSXV]--></g></svg>