<?xml version="1.0" encoding="us-ascii" standalone="no"?><svg xmlns="http://www.w3.org/2000/svg" xmlns:xlink="http://www.w3.org/1999/xlink" contentStyleType="text/css" height="422px" preserveAspectRatio="none" style="width:592px;height:422px;background:#FFFFFF;" version="1.1" viewBox="0 0 592 422" width="592px" zoomAndPan="magnify"><defs/><g><rect fill="#FFFFFF" height="255.6481" style="stroke:#181818;stroke-width:1.0;" width="10" x="111" y="91.8419"/><rect fill="#FFFFFF" height="31.706" style="stroke:#181818;stroke-width:1.0;" width="10" x="265.5" y="150.2539"/><rect fill="#FFFFFF" height="31.706" style="stroke:#181818;stroke-width:1.0;" width="10" x="375" y="213.6659"/><rect fill="#FFFFFF" height="31.706" style="stroke:#181818;stroke-width:1.0;" width="10" x="502.5" y="277.0779"/><rect fill="none" height="209.9421" style="stroke:#000000;stroke-width:1.5;" width="574" x="12" y="106.8419"/><line style="stroke:#181818;stroke-width:0.5;stroke-dasharray:5.0,5.0;" x1="116" x2="116" y1="58.1358" y2="365.49"/><line style="stroke:#181818;stroke-width:0.5;stroke-dasharray:5.0,5.0;" x1="270" x2="270" y1="58.1358" y2="365.49"/><line style="stroke:#181818;stroke-width:0.5;stroke-dasharray:5.0,5.0;" x1="380" x2="380" y1="58.1358" y2="365.49"/><line style="stroke:#181818;stroke-width:0.5;stroke-dasharray:5.0,5.0;" x1="507" x2="507" y1="58.1358" y2="365.49"/><rect fill="#E3E3E3" height="33.0679" rx="2.5" ry="2.5" style="stroke:#181818;stroke-width:0.5;" width="188" x="22" y="24.0679"/><text fill="#000000" font-family="sans-serif" font-size="14" lengthAdjust="spacing" textLength="174" x="29" y="46.0339">:DivideAgenciesController</text><rect fill="#E3E3E3" height="33.0679" rx="2.5" ry="2.5" style="stroke:#181818;stroke-width:0.5;" width="188" x="22" y="364.49"/><text fill="#000000" font-family="sans-serif" font-size="14" lengthAdjust="spacing" textLength="174" x="29" y="386.4559">:DivideAgenciesController</text><rect fill="#E3E3E3" height="33.0679" rx="2.5" ry="2.5" style="stroke:#181818;stroke-width:0.5;" width="101" x="220" y="24.0679"/><text fill="#000000" font-family="sans-serif" font-size="14" lengthAdjust="spacing" textLength="87" x="227" y="46.0339">:Repositories</text><rect fill="#E3E3E3" height="33.0679" rx="2.5" ry="2.5" style="stroke:#181818;stroke-width:0.5;" width="101" x="220" y="364.49"/><text fill="#000000" font-family="sans-serif" font-size="14" lengthAdjust="spacing" textLength="87" x="227" y="386.4559">:Repositories</text><rect fill="#E3E3E3" height="52.1358" rx="2.5" ry="2.5" style="stroke:#181818;stroke-width:0.5;" width="98" x="331" y="5"/><text fill="#000000" font-family="sans-serif" font-size="14" lengthAdjust="spacing" textLength="84" x="338" y="26.9659">repositories:</text><text fill="#000000" font-family="sans-serif" font-size="14" lengthAdjust="spacing" textLength="83" x="338.5" y="46.0339">Repositories</text><rect fill="#E3E3E3" height="52.1358" rx="2.5" ry="2.5" style="stroke:#181818;stroke-width:0.5;" width="98" x="331" y="364.49"/><text fill="#000000" font-family="sans-serif" font-size="14" lengthAdjust="spacing" textLength="84" x="338" y="386.4559">repositories:</text><text fill="#000000" font-family="sans-serif" font-size="14" lengthAdjust="spacing" textLength="83" x="338.5" y="405.5238">Repositories</text><rect fill="#E3E3E3" height="52.1358" rx="2.5" ry="2.5" style="stroke:#181818;stroke-width:0.5;" width="137" x="439" y="5"/><text fill="#000000" font-family="sans-serif" font-size="14" lengthAdjust="spacing" textLength="123" x="446" y="26.9659">agencyRepository:</text><text fill="#000000" font-family="sans-serif" font-size="14" lengthAdjust="spacing" textLength="120" x="447.5" y="46.0339">AgencyRepository</text><rect fill="#E3E3E3" height="52.1358" rx="2.5" ry="2.5" style="stroke:#181818;stroke-width:0.5;" width="137" x="439" y="364.49"/><text fill="#000000" font-family="sans-serif" font-size="14" lengthAdjust="spacing" textLength="123" x="446" y="386.4559">agencyRepository:</text><text fill="#000000" font-family="sans-serif" font-size="14" lengthAdjust="spacing" textLength="120" x="447.5" y="405.5238">AgencyRepository</text><rect fill="#FFFFFF" height="255.6481" style="stroke:#181818;stroke-width:1.0;" width="10" x="111" y="91.8419"/><rect fill="#FFFFFF" height="31.706" style="stroke:#181818;stroke-width:1.0;" width="10" x="265.5" y="150.2539"/><rect fill="#FFFFFF" height="31.706" style="stroke:#181818;stroke-width:1.0;" width="10" x="375" y="213.6659"/><rect fill="#FFFFFF" height="31.706" style="stroke:#181818;stroke-width:1.0;" width="10" x="502.5" y="277.0779"/><polygon fill="#181818" points="99,87.8419,109,91.8419,99,95.8419,103,91.8419" style="stroke:#181818;stroke-width:1.0;"/><line style="stroke:#181818;stroke-width:1.0;" x1="0" x2="105" y1="91.8419" y2="91.8419"/><text fill="#000000" font-family="sans-serif" font-size="13" font-weight="bold" lengthAdjust="spacing" textLength="7" x="7" y="86.0328">3</text><text fill="#000000" font-family="sans-serif" font-size="13" lengthAdjust="spacing" textLength="81" x="18" y="86.0328">getAgencies()</text><path d="M12,106.8419 L157,106.8419 L157,116.5479 L147,126.5479 L12,126.5479 L12,106.8419 " fill="#EEEEEE" style="stroke:#000000;stroke-width:1.5;"/><rect fill="none" height="209.9421" style="stroke:#000000;stroke-width:1.5;" width="574" x="12" y="106.8419"/><text fill="#000000" font-family="sans-serif" font-size="13" font-weight="bold" lengthAdjust="spacing" textLength="100" x="27" y="121.7389">Get Agency List</text><polygon fill="#181818" points="253.5,146.2539,263.5,150.2539,253.5,154.2539,257.5,150.2539" style="stroke:#181818;stroke-width:1.0;"/><line style="stroke:#181818;stroke-width:1.0;" x1="121" x2="259.5" y1="150.2539" y2="150.2539"/><text fill="#000000" font-family="sans-serif" font-size="13" font-weight="bold" lengthAdjust="spacing" textLength="18" x="128" y="144.4449">3.1</text><text fill="#000000" font-family="sans-serif" font-size="13" lengthAdjust="spacing" textLength="79" x="150" y="144.4449">getInstance()</text><polygon fill="#181818" points="132,177.9599,122,181.9599,132,185.9599,128,181.9599" style="stroke:#181818;stroke-width:1.0;"/><line style="stroke:#181818;stroke-width:1.0;stroke-dasharray:2.0,2.0;" x1="126" x2="269.5" y1="181.9599" y2="181.9599"/><text fill="#000000" font-family="sans-serif" font-size="13" font-weight="bold" lengthAdjust="spacing" textLength="18" x="138" y="176.1509">3.2</text><text fill="#000000" font-family="sans-serif" font-size="13" lengthAdjust="spacing" textLength="71" x="160" y="176.1509">repositories</text><polygon fill="#181818" points="363,209.6659,373,213.6659,363,217.6659,367,213.6659" style="stroke:#181818;stroke-width:1.0;"/><line style="stroke:#181818;stroke-width:1.0;" x1="121" x2="369" y1="213.6659" y2="213.6659"/><text fill="#000000" font-family="sans-serif" font-size="13" font-weight="bold" lengthAdjust="spacing" textLength="18" x="128" y="207.8569">3.3</text><text fill="#000000" font-family="sans-serif" font-size="13" lengthAdjust="spacing" textLength="137" x="150" y="207.8569">getAgencyRepository()</text><polygon fill="#181818" points="132,241.3719,122,245.3719,132,249.3719,128,245.3719" style="stroke:#181818;stroke-width:1.0;"/><line style="stroke:#181818;stroke-width:1.0;stroke-dasharray:2.0,2.0;" x1="126" x2="379" y1="245.3719" y2="245.3719"/><text fill="#000000" font-family="sans-serif" font-size="13" font-weight="bold" lengthAdjust="spacing" textLength="18" x="138" y="239.5629">3.4</text><text fill="#000000" font-family="sans-serif" font-size="13" lengthAdjust="spacing" textLength="108" x="160" y="239.5629">agencyRepository</text><polygon fill="#181818" points="490.5,273.0779,500.5,277.0779,490.5,281.0779,494.5,277.0779" style="stroke:#181818;stroke-width:1.0;"/><line style="stroke:#181818;stroke-width:1.0;" x1="121" x2="496.5" y1="277.0779" y2="277.0779"/><text fill="#000000" font-family="sans-serif" font-size="13" font-weight="bold" lengthAdjust="spacing" textLength="18" x="128" y="271.2689">3.5</text><text fill="#000000" font-family="sans-serif" font-size="13" lengthAdjust="spacing" textLength="81" x="150" y="271.2689">getAgencies()</text><polygon fill="#181818" points="132,304.784,122,308.784,132,312.784,128,308.784" style="stroke:#181818;stroke-width:1.0;"/><line style="stroke:#181818;stroke-width:1.0;stroke-dasharray:2.0,2.0;" x1="126" x2="506.5" y1="308.784" y2="308.784"/><text fill="#000000" font-family="sans-serif" font-size="13" font-weight="bold" lengthAdjust="spacing" textLength="18" x="138" y="302.975">3.6</text><text fill="#000000" font-family="sans-serif" font-size="13" lengthAdjust="spacing" textLength="64" x="160" y="302.975">agencyList</text><polygon fill="#181818" points="11,343.49,1,347.49,11,351.49,7,347.49" style="stroke:#181818;stroke-width:1.0;"/><line style="stroke:#181818;stroke-width:1.0;stroke-dasharray:2.0,2.0;" x1="5" x2="115" y1="347.49" y2="347.49"/><text fill="#000000" font-family="sans-serif" font-size="13" font-weight="bold" lengthAdjust="spacing" textLength="7" x="17" y="341.681">4</text><text fill="#000000" font-family="sans-serif" font-size="13" lengthAdjust="spacing" textLength="64" x="28" y="341.681">agencyList</text><!--SRC=[ZL8xQyCm4DxrAuvCxU12QITJ2Y65Kl1GaenTLFdgYDYIaSuf_lULvTYHPGszJQVx7lUmPwbQRdW3ZLPQd8nk4CXqoEpyqt9nvXKUgAyH30hYggh30dlYfVwLge8VNbjapAL92jboHR39t-H5bhYjK0c9TgSL6LtNQ3R0BUoE-oAgtsEhhIHjNBMlcHFzGGxIfDKIOW94_gLM19_5zhX4yC5DVoDsg6sKyiWuoHZZdTFlccyqyCIoLzy1v50XJItUtI-h7XxTMv2ySCAnON1H6Tsry8vq5O52McB-QmnFx0GIxOzw7ygwNGXqUZVKB9IQMb0tH8evkxQKGpZL05ZYVoMc1eRn1nCAnfbsxjSLMVKSsMtSyGBJ1cEcoL7iOxM_XAlrAImThZXNRls2apxJtAZAyKg2QtfcBrcMe0t8_8MnFm00]--></g></svg>