<?xml version="1.0" encoding="us-ascii" standalone="no"?><svg xmlns="http://www.w3.org/2000/svg" xmlns:xlink="http://www.w3.org/1999/xlink" contentStyleType="text/css" height="1810px" preserveAspectRatio="none" style="width:2162px;height:1810px;background:#FFFFFF;" version="1.1" viewBox="0 0 2162 1810" width="2162px" zoomAndPan="magnify"><defs/><g><rect fill="#FFFFFF" height="1615.2584" style="stroke:#181818;stroke-width:1.0;" width="10" x="83" y="94.0679"/><rect fill="#FFFFFF" height="329.4221" style="stroke:#181818;stroke-width:1.0;" width="10" x="468" y="117.7739"/><rect fill="#FFFFFF" height="1230.4243" style="stroke:#181818;stroke-width:1.0;" width="10" x="468" y="478.902"/><rect fill="#FFFFFF" height="221.9421" style="stroke:#181818;stroke-width:1.0;" width="10" x="838" y="193.5479"/><rect fill="#FFFFFF" height="128.8241" style="stroke:#181818;stroke-width:1.0;" width="10" x="838" y="510.608"/><rect fill="#FFFFFF" height="981.4822" style="stroke:#181818;stroke-width:1.0;" width="10" x="838" y="696.1381"/><rect fill="#FFFFFF" height="31.706" style="stroke:#181818;stroke-width:1.0;" width="10" x="992.5" y="225.2539"/><rect fill="#FFFFFF" height="31.706" style="stroke:#181818;stroke-width:1.0;" width="10" x="1102" y="288.6659"/><rect fill="#FFFFFF" height="31.706" style="stroke:#181818;stroke-width:1.0;" width="10" x="1229.5" y="352.0779"/><rect fill="#FFFFFF" height="31.706" style="stroke:#181818;stroke-width:1.0;" width="10" x="1229.5" y="569.0201"/><rect fill="#FFFFFF" height="31.706" style="stroke:#181818;stroke-width:1.0;" width="10" x="1229.5" y="754.5501"/><rect fill="#FFFFFF" height="795.9521" style="stroke:#181818;stroke-width:1.0;" width="10" x="1402" y="849.9622"/><rect fill="#FFFFFF" height="690.8341" style="stroke:#181818;stroke-width:1.0;" width="10" x="1407" y="916.3742"/><rect fill="#FFFFFF" height="296.5301" style="stroke:#181818;stroke-width:1.0;" width="10" x="1412" y="961.0802"/><rect fill="#FFFFFF" height="42.706" style="stroke:#181818;stroke-width:1.0;" width="10" x="1417" y="1030.7862"/><rect fill="#FFFFFF" height="42.706" style="stroke:#181818;stroke-width:1.0;" width="10" x="1417" y="1145.1983"/><rect fill="#FFFFFF" height="42.706" style="stroke:#181818;stroke-width:1.0;" width="10" x="1412" y="1329.3163"/><rect fill="#FFFFFF" height="42.706" style="stroke:#181818;stroke-width:1.0;" width="10" x="1412" y="1450.7284"/><rect fill="none" height="83.118" style="stroke:#000000;stroke-width:1.5;" width="574" x="739" y="525.608"/><rect fill="none" height="83.118" style="stroke:#000000;stroke-width:1.5;" width="574" x="739" y="711.1381"/><rect fill="none" height="522.0602" style="stroke:#000000;stroke-width:1.5;" width="707" x="1303" y="864.9622"/><line style="stroke:#181818;stroke-width:0.5;stroke-dasharray:5.0,5.0;" x1="88" x2="88" y1="84.0679" y2="1727.3264"/><line style="stroke:#181818;stroke-width:0.5;stroke-dasharray:5.0,5.0;" x1="473" x2="473" y1="84.0679" y2="1727.3264"/><line style="stroke:#181818;stroke-width:0.5;stroke-dasharray:5.0,5.0;" x1="843" x2="843" y1="157.8079" y2="1727.3264"/><line style="stroke:#181818;stroke-width:0.5;stroke-dasharray:5.0,5.0;" x1="997" x2="997" y1="84.0679" y2="1727.3264"/><line style="stroke:#181818;stroke-width:0.5;stroke-dasharray:5.0,5.0;" x1="1107" x2="1107" y1="84.0679" y2="1727.3264"/><line style="stroke:#181818;stroke-width:0.5;stroke-dasharray:5.0,5.0;" x1="1234" x2="1234" y1="84.0679" y2="1727.3264"/><line style="stroke:#181818;stroke-width:0.5;stroke-dasharray:5.0,5.0;" x1="1407" x2="1407" y1="84.0679" y2="1727.3264"/><line style="stroke:#181818;stroke-width:0.5;stroke-dasharray:5.0,5.0;" x1="2057" x2="2057" y1="1565.4683" y2="1727.3264"/><text fill="#000000" font-family="sans-serif" font-size="14" lengthAdjust="spacing" textLength="160" x="5" y="79.9659">Store Network Manager</text><ellipse cx="88" cy="13.5" fill="#E3E3E3" rx="8" ry="8" style="stroke:#181818;stroke-width:0.5;"/><path d="M88,21.5 L88,48.5 M75,29.5 L101,29.5 M88,48.5 L75,63.5 M88,48.5 L101,63.5 " fill="none" style="stroke:#181818;stroke-width:0.5;"/><text fill="#000000" font-family="sans-serif" font-size="14" lengthAdjust="spacing" textLength="160" x="5" y="1741.2923">Store Network Manager</text><ellipse cx="88" cy="1753.8943" fill="#E3E3E3" rx="8" ry="8" style="stroke:#181818;stroke-width:0.5;"/><path d="M88,1761.8943 L88,1788.8943 M75,1769.8943 L101,1769.8943 M88,1788.8943 L75,1803.8943 M88,1788.8943 L101,1803.8943 " fill="none" style="stroke:#181818;stroke-width:0.5;"/><rect fill="#E3E3E3" height="33.0679" rx="2.5" ry="2.5" style="stroke:#181818;stroke-width:0.5;" width="136" x="405" y="50"/><text fill="#000000" font-family="sans-serif" font-size="14" lengthAdjust="spacing" textLength="122" x="412" y="71.9659">:DivideAgenciesUI</text><rect fill="#E3E3E3" height="33.0679" rx="2.5" ry="2.5" style="stroke:#181818;stroke-width:0.5;" width="136" x="405" y="1726.3264"/><text fill="#000000" font-family="sans-serif" font-size="14" lengthAdjust="spacing" textLength="122" x="412" y="1748.2923">:DivideAgenciesUI</text><rect fill="#E3E3E3" height="33.0679" rx="2.5" ry="2.5" style="stroke:#181818;stroke-width:0.5;" width="188" x="749" y="1726.3264"/><text fill="#000000" font-family="sans-serif" font-size="14" lengthAdjust="spacing" textLength="174" x="756" y="1748.2923">:DivideAgenciesController</text><rect fill="#E3E3E3" height="33.0679" rx="2.5" ry="2.5" style="stroke:#181818;stroke-width:0.5;" width="101" x="947" y="50"/><text fill="#000000" font-family="sans-serif" font-size="14" lengthAdjust="spacing" textLength="87" x="954" y="71.9659">:Repositories</text><rect fill="#E3E3E3" height="33.0679" rx="2.5" ry="2.5" style="stroke:#181818;stroke-width:0.5;" width="101" x="947" y="1726.3264"/><text fill="#000000" font-family="sans-serif" font-size="14" lengthAdjust="spacing" textLength="87" x="954" y="1748.2923">:Repositories</text><rect fill="#E3E3E3" height="52.1358" rx="2.5" ry="2.5" style="stroke:#181818;stroke-width:0.5;" width="98" x="1058" y="30.9321"/><text fill="#000000" font-family="sans-serif" font-size="14" lengthAdjust="spacing" textLength="84" x="1065" y="52.898">repositories:</text><text fill="#000000" font-family="sans-serif" font-size="14" lengthAdjust="spacing" textLength="83" x="1065.5" y="71.9659">Repositories</text><rect fill="#E3E3E3" height="52.1358" rx="2.5" ry="2.5" style="stroke:#181818;stroke-width:0.5;" width="98" x="1058" y="1726.3264"/><text fill="#000000" font-family="sans-serif" font-size="14" lengthAdjust="spacing" textLength="84" x="1065" y="1748.2923">repositories:</text><text fill="#000000" font-family="sans-serif" font-size="14" lengthAdjust="spacing" textLength="83" x="1065.5" y="1767.3602">Repositories</text><rect fill="#E3E3E3" height="52.1358" rx="2.5" ry="2.5" style="stroke:#181818;stroke-width:0.5;" width="137" x="1166" y="30.9321"/><text fill="#000000" font-family="sans-serif" font-size="14" lengthAdjust="spacing" textLength="123" x="1173" y="52.898">agencyRepository:</text><text fill="#000000" font-family="sans-serif" font-size="14" lengthAdjust="spacing" textLength="120" x="1174.5" y="71.9659">AgencyRepository</text><rect fill="#E3E3E3" height="52.1358" rx="2.5" ry="2.5" style="stroke:#181818;stroke-width:0.5;" width="137" x="1166" y="1726.3264"/><text fill="#000000" font-family="sans-serif" font-size="14" lengthAdjust="spacing" textLength="123" x="1173" y="1748.2923">agencyRepository:</text><text fill="#000000" font-family="sans-serif" font-size="14" lengthAdjust="spacing" textLength="120" x="1174.5" y="1767.3602">AgencyRepository</text><rect fill="#E3E3E3" height="33.0679" rx="2.5" ry="2.5" style="stroke:#181818;stroke-width:0.5;" width="188" x="1313" y="50"/><text fill="#000000" font-family="sans-serif" font-size="14" lengthAdjust="spacing" textLength="174" x="1320" y="71.9659">:DivideAgenciesAlgorithm</text><rect fill="#E3E3E3" height="33.0679" rx="2.5" ry="2.5" style="stroke:#181818;stroke-width:0.5;" width="188" x="1313" y="1726.3264"/><text fill="#000000" font-family="sans-serif" font-size="14" lengthAdjust="spacing" textLength="174" x="1320" y="1748.2923">:DivideAgenciesAlgorithm</text><rect fill="#E3E3E3" height="33.0679" rx="2.5" ry="2.5" style="stroke:#181818;stroke-width:0.5;" width="198" x="1958" y="1726.3264"/><text fill="#000000" font-family="sans-serif" font-size="14" lengthAdjust="spacing" textLength="184" x="1965" y="1748.2923">:SublistsAndSumDifference</text><rect fill="#FFFFFF" height="1615.2584" style="stroke:#181818;stroke-width:1.0;" width="10" x="83" y="94.0679"/><rect fill="#FFFFFF" height="329.4221" style="stroke:#181818;stroke-width:1.0;" width="10" x="468" y="117.7739"/><rect fill="#FFFFFF" height="1230.4243" style="stroke:#181818;stroke-width:1.0;" width="10" x="468" y="478.902"/><rect fill="#FFFFFF" height="221.9421" style="stroke:#181818;stroke-width:1.0;" width="10" x="838" y="193.5479"/><rect fill="#FFFFFF" height="128.8241" style="stroke:#181818;stroke-width:1.0;" width="10" x="838" y="510.608"/><rect fill="#FFFFFF" height="981.4822" style="stroke:#181818;stroke-width:1.0;" width="10" x="838" y="696.1381"/><rect fill="#FFFFFF" height="31.706" style="stroke:#181818;stroke-width:1.0;" width="10" x="992.5" y="225.2539"/><rect fill="#FFFFFF" height="31.706" style="stroke:#181818;stroke-width:1.0;" width="10" x="1102" y="288.6659"/><rect fill="#FFFFFF" height="31.706" style="stroke:#181818;stroke-width:1.0;" width="10" x="1229.5" y="352.0779"/><rect fill="#FFFFFF" height="31.706" style="stroke:#181818;stroke-width:1.0;" width="10" x="1229.5" y="569.0201"/><rect fill="#FFFFFF" height="31.706" style="stroke:#181818;stroke-width:1.0;" width="10" x="1229.5" y="754.5501"/><rect fill="#FFFFFF" height="795.9521" style="stroke:#181818;stroke-width:1.0;" width="10" x="1402" y="849.9622"/><rect fill="#FFFFFF" height="690.8341" style="stroke:#181818;stroke-width:1.0;" width="10" x="1407" y="916.3742"/><rect fill="#FFFFFF" height="296.5301" style="stroke:#181818;stroke-width:1.0;" width="10" x="1412" y="961.0802"/><rect fill="#FFFFFF" height="42.706" style="stroke:#181818;stroke-width:1.0;" width="10" x="1417" y="1030.7862"/><rect fill="#FFFFFF" height="42.706" style="stroke:#181818;stroke-width:1.0;" width="10" x="1417" y="1145.1983"/><rect fill="#FFFFFF" height="42.706" style="stroke:#181818;stroke-width:1.0;" width="10" x="1412" y="1329.3163"/><rect fill="#FFFFFF" height="42.706" style="stroke:#181818;stroke-width:1.0;" width="10" x="1412" y="1450.7284"/><polygon fill="#181818" points="456,113.7739,466,117.7739,456,121.7739,460,117.7739" style="stroke:#181818;stroke-width:1.0;"/><line style="stroke:#181818;stroke-width:1.0;" x1="93" x2="462" y1="117.7739" y2="117.7739"/><text fill="#000000" font-family="sans-serif" font-size="13" font-weight="bold" lengthAdjust="spacing" textLength="7" x="100" y="111.9649">1</text><text fill="#000000" font-family="sans-serif" font-size="13" lengthAdjust="spacing" textLength="195" x="111" y="111.9649">asks to divide the set of agencies</text><polygon fill="#181818" points="737,145.4799,747,149.4799,737,153.4799,741,149.4799" style="stroke:#181818;stroke-width:1.0;"/><line style="stroke:#181818;stroke-width:1.0;" x1="478" x2="743" y1="149.4799" y2="149.4799"/><text fill="#000000" font-family="sans-serif" font-size="13" font-weight="bold" lengthAdjust="spacing" textLength="7" x="485" y="143.6709">2</text><text fill="#000000" font-family="sans-serif" font-size="13" lengthAdjust="spacing" textLength="45" x="496" y="143.6709">create()</text><rect fill="#E3E3E3" height="33.0679" rx="2.5" ry="2.5" style="stroke:#181818;stroke-width:0.5;" width="188" x="749" y="125.7739"/><text fill="#000000" font-family="sans-serif" font-size="14" lengthAdjust="spacing" textLength="174" x="756" y="147.7399">:DivideAgenciesController</text><polygon fill="#181818" points="826,189.5479,836,193.5479,826,197.5479,830,193.5479" style="stroke:#181818;stroke-width:1.0;"/><line style="stroke:#181818;stroke-width:1.0;" x1="478" x2="832" y1="193.5479" y2="193.5479"/><text fill="#000000" font-family="sans-serif" font-size="13" font-weight="bold" lengthAdjust="spacing" textLength="7" x="485" y="187.7389">3</text><text fill="#000000" font-family="sans-serif" font-size="13" lengthAdjust="spacing" textLength="81" x="496" y="187.7389">getAgencies()</text><polygon fill="#181818" points="980.5,221.2539,990.5,225.2539,980.5,229.2539,984.5,225.2539" style="stroke:#181818;stroke-width:1.0;"/><line style="stroke:#181818;stroke-width:1.0;" x1="848" x2="986.5" y1="225.2539" y2="225.2539"/><text fill="#000000" font-family="sans-serif" font-size="13" font-weight="bold" lengthAdjust="spacing" textLength="7" x="855" y="219.4449">4</text><text fill="#000000" font-family="sans-serif" font-size="13" lengthAdjust="spacing" textLength="79" x="866" y="219.4449">getInstance()</text><polygon fill="#181818" points="859,252.9599,849,256.9599,859,260.9599,855,256.9599" style="stroke:#181818;stroke-width:1.0;"/><line style="stroke:#181818;stroke-width:1.0;stroke-dasharray:2.0,2.0;" x1="853" x2="996.5" y1="256.9599" y2="256.9599"/><text fill="#000000" font-family="sans-serif" font-size="13" font-weight="bold" lengthAdjust="spacing" textLength="7" x="865" y="251.1509">5</text><text fill="#000000" font-family="sans-serif" font-size="13" lengthAdjust="spacing" textLength="71" x="876" y="251.1509">repositories</text><polygon fill="#181818" points="1090,284.6659,1100,288.6659,1090,292.6659,1094,288.6659" style="stroke:#181818;stroke-width:1.0;"/><line style="stroke:#181818;stroke-width:1.0;" x1="848" x2="1096" y1="288.6659" y2="288.6659"/><text fill="#000000" font-family="sans-serif" font-size="13" font-weight="bold" lengthAdjust="spacing" textLength="7" x="855" y="282.8569">6</text><text fill="#000000" font-family="sans-serif" font-size="13" lengthAdjust="spacing" textLength="137" x="866" y="282.8569">getAgencyRepository()</text><polygon fill="#181818" points="859,316.3719,849,320.3719,859,324.3719,855,320.3719" style="stroke:#181818;stroke-width:1.0;"/><line style="stroke:#181818;stroke-width:1.0;stroke-dasharray:2.0,2.0;" x1="853" x2="1106" y1="320.3719" y2="320.3719"/><text fill="#000000" font-family="sans-serif" font-size="13" font-weight="bold" lengthAdjust="spacing" textLength="7" x="865" y="314.5629">7</text><text fill="#000000" font-family="sans-serif" font-size="13" lengthAdjust="spacing" textLength="108" x="876" y="314.5629">agencyRepository</text><polygon fill="#181818" points="1217.5,348.0779,1227.5,352.0779,1217.5,356.0779,1221.5,352.0779" style="stroke:#181818;stroke-width:1.0;"/><line style="stroke:#181818;stroke-width:1.0;" x1="848" x2="1223.5" y1="352.0779" y2="352.0779"/><text fill="#000000" font-family="sans-serif" font-size="13" font-weight="bold" lengthAdjust="spacing" textLength="7" x="855" y="346.2689">8</text><text fill="#000000" font-family="sans-serif" font-size="13" lengthAdjust="spacing" textLength="81" x="866" y="346.2689">getAgencies()</text><polygon fill="#181818" points="859,379.784,849,383.784,859,387.784,855,383.784" style="stroke:#181818;stroke-width:1.0;"/><line style="stroke:#181818;stroke-width:1.0;stroke-dasharray:2.0,2.0;" x1="853" x2="1233.5" y1="383.784" y2="383.784"/><text fill="#000000" font-family="sans-serif" font-size="13" font-weight="bold" lengthAdjust="spacing" textLength="7" x="865" y="377.975">9</text><text fill="#000000" font-family="sans-serif" font-size="13" lengthAdjust="spacing" textLength="64" x="876" y="377.975">agencyList</text><polygon fill="#181818" points="489,411.49,479,415.49,489,419.49,485,415.49" style="stroke:#181818;stroke-width:1.0;"/><line style="stroke:#181818;stroke-width:1.0;stroke-dasharray:2.0,2.0;" x1="483" x2="842" y1="415.49" y2="415.49"/><text fill="#000000" font-family="sans-serif" font-size="13" font-weight="bold" lengthAdjust="spacing" textLength="14" x="495" y="409.681">10</text><text fill="#000000" font-family="sans-serif" font-size="13" lengthAdjust="spacing" textLength="64" x="513" y="409.681">agencyList</text><polygon fill="#181818" points="104,443.196,94,447.196,104,451.196,100,447.196" style="stroke:#181818;stroke-width:1.0;"/><line style="stroke:#181818;stroke-width:1.0;stroke-dasharray:2.0,2.0;" x1="98" x2="472" y1="447.196" y2="447.196"/><text fill="#000000" font-family="sans-serif" font-size="13" font-weight="bold" lengthAdjust="spacing" textLength="14" x="110" y="441.387">11</text><text fill="#000000" font-family="sans-serif" font-size="13" lengthAdjust="spacing" textLength="251" x="128" y="441.387">requests the number of agencies to divide</text><polygon fill="#181818" points="456,474.902,466,478.902,456,482.902,460,478.902" style="stroke:#181818;stroke-width:1.0;"/><line style="stroke:#181818;stroke-width:1.0;" x1="93" x2="462" y1="478.902" y2="478.902"/><text fill="#000000" font-family="sans-serif" font-size="13" font-weight="bold" lengthAdjust="spacing" textLength="14" x="100" y="473.093">12</text><text fill="#000000" font-family="sans-serif" font-size="13" lengthAdjust="spacing" textLength="232" x="118" y="473.093">types the number of agencies to divide</text><polygon fill="#181818" points="826,506.608,836,510.608,826,514.608,830,510.608" style="stroke:#181818;stroke-width:1.0;"/><line style="stroke:#181818;stroke-width:1.0;" x1="478" x2="832" y1="510.608" y2="510.608"/><text fill="#000000" font-family="sans-serif" font-size="13" font-weight="bold" lengthAdjust="spacing" textLength="14" x="485" y="504.799">13</text><text fill="#000000" font-family="sans-serif" font-size="13" lengthAdjust="spacing" textLength="323" x="503" y="504.799">getPartitionSublist(agencyList, numAgenciesToDivide)</text><path d="M739,525.608 L812,525.608 L812,535.314 L802,545.314 L739,545.314 L739,525.608 " fill="#EEEEEE" style="stroke:#000000;stroke-width:1.5;"/><rect fill="none" height="83.118" style="stroke:#000000;stroke-width:1.5;" width="574" x="739" y="525.608"/><text fill="#000000" font-family="sans-serif" font-size="13" font-weight="bold" lengthAdjust="spacing" textLength="28" x="754" y="540.505">loop</text><text fill="#000000" font-family="sans-serif" font-size="11" font-weight="bold" lengthAdjust="spacing" textLength="285" x="827" y="539.3669">[for every agency it adds the number of properties]</text><polygon fill="#181818" points="1217.5,565.0201,1227.5,569.0201,1217.5,573.0201,1221.5,569.0201" style="stroke:#181818;stroke-width:1.0;"/><line style="stroke:#181818;stroke-width:1.0;" x1="848" x2="1223.5" y1="569.0201" y2="569.0201"/><text fill="#000000" font-family="sans-serif" font-size="13" font-weight="bold" lengthAdjust="spacing" textLength="14" x="855" y="563.2111">14</text><text fill="#000000" font-family="sans-serif" font-size="13" lengthAdjust="spacing" textLength="323" x="873" y="563.2111">getPartitionSublist(agencyList, numAgenciesToDivide)</text><polygon fill="#181818" points="859,596.7261,849,600.7261,859,604.7261,855,600.7261" style="stroke:#181818;stroke-width:1.0;"/><line style="stroke:#181818;stroke-width:1.0;stroke-dasharray:2.0,2.0;" x1="853" x2="1233.5" y1="600.7261" y2="600.7261"/><text fill="#000000" font-family="sans-serif" font-size="13" font-weight="bold" lengthAdjust="spacing" textLength="14" x="865" y="594.9171">15</text><text fill="#000000" font-family="sans-serif" font-size="13" lengthAdjust="spacing" textLength="92" x="883" y="594.9171">partitionSublist</text><polygon fill="#181818" points="489,635.4321,479,639.4321,489,643.4321,485,639.4321" style="stroke:#181818;stroke-width:1.0;"/><line style="stroke:#181818;stroke-width:1.0;stroke-dasharray:2.0,2.0;" x1="483" x2="842" y1="639.4321" y2="639.4321"/><text fill="#000000" font-family="sans-serif" font-size="13" font-weight="bold" lengthAdjust="spacing" textLength="14" x="495" y="633.6231">16</text><text fill="#000000" font-family="sans-serif" font-size="13" lengthAdjust="spacing" textLength="92" x="513" y="633.6231">partitionSublist</text><polygon fill="#181818" points="826,692.1381,836,696.1381,826,700.1381,830,696.1381" style="stroke:#181818;stroke-width:1.0;"/><line style="stroke:#181818;stroke-width:1.0;" x1="478" x2="832" y1="696.1381" y2="696.1381"/><text fill="#000000" font-family="sans-serif" font-size="13" font-weight="bold" lengthAdjust="spacing" textLength="14" x="485" y="690.3291">17</text><text fill="#000000" font-family="sans-serif" font-size="13" lengthAdjust="spacing" textLength="222" x="503" y="690.3291">divideSetOfAgencies(partitionSublist)</text><path d="M739,711.1381 L812,711.1381 L812,720.8441 L802,730.8441 L739,730.8441 L739,711.1381 " fill="#EEEEEE" style="stroke:#000000;stroke-width:1.5;"/><rect fill="none" height="83.118" style="stroke:#000000;stroke-width:1.5;" width="574" x="739" y="711.1381"/><text fill="#000000" font-family="sans-serif" font-size="13" font-weight="bold" lengthAdjust="spacing" textLength="28" x="754" y="726.0351">loop</text><text fill="#000000" font-family="sans-serif" font-size="11" font-weight="bold" lengthAdjust="spacing" textLength="276" x="827" y="724.897">[for every agency to get its number of properties]</text><polygon fill="#181818" points="1217.5,750.5501,1227.5,754.5501,1217.5,758.5501,1221.5,754.5501" style="stroke:#181818;stroke-width:1.0;"/><line style="stroke:#181818;stroke-width:1.0;" x1="848" x2="1223.5" y1="754.5501" y2="754.5501"/><text fill="#000000" font-family="sans-serif" font-size="13" font-weight="bold" lengthAdjust="spacing" textLength="14" x="855" y="748.7411">18</text><text fill="#000000" font-family="sans-serif" font-size="13" lengthAdjust="spacing" textLength="296" x="873" y="748.7411">getNumberPropertiesPerAgency(partitionSublist)</text><polygon fill="#181818" points="859,782.2562,849,786.2562,859,790.2562,855,786.2562" style="stroke:#181818;stroke-width:1.0;"/><line style="stroke:#181818;stroke-width:1.0;stroke-dasharray:2.0,2.0;" x1="853" x2="1233.5" y1="786.2562" y2="786.2562"/><text fill="#000000" font-family="sans-serif" font-size="13" font-weight="bold" lengthAdjust="spacing" textLength="14" x="865" y="780.4472">19</text><text fill="#000000" font-family="sans-serif" font-size="13" lengthAdjust="spacing" textLength="176" x="883" y="780.4472">numPropertiesInAgenciesList</text><polygon fill="#181818" points="1390,845.9622,1400,849.9622,1390,853.9622,1394,849.9622" style="stroke:#181818;stroke-width:1.0;"/><line style="stroke:#181818;stroke-width:1.0;" x1="848" x2="1396" y1="849.9622" y2="849.9622"/><text fill="#000000" font-family="sans-serif" font-size="13" font-weight="bold" lengthAdjust="spacing" textLength="14" x="855" y="844.1532">20</text><text fill="#000000" font-family="sans-serif" font-size="13" lengthAdjust="spacing" textLength="306" x="873" y="844.1532">divideSetOfAgencies(numPropertiesInAgenciesList)</text><path d="M1303,864.9622 L1376,864.9622 L1376,874.6682 L1366,884.6682 L1303,884.6682 L1303,864.9622 " fill="#EEEEEE" style="stroke:#000000;stroke-width:1.5;"/><rect fill="none" height="522.0602" style="stroke:#000000;stroke-width:1.5;" width="707" x="1303" y="864.9622"/><text fill="#000000" font-family="sans-serif" font-size="13" font-weight="bold" lengthAdjust="spacing" textLength="28" x="1318" y="879.8592">loop</text><text fill="#000000" font-family="sans-serif" font-size="11" font-weight="bold" lengthAdjust="spacing" textLength="231" x="1391" y="878.7211">[until it reaches the number of partitions]</text><line style="stroke:#181818;stroke-width:1.0;" x1="1412" x2="1459" y1="903.3742" y2="903.3742"/><line style="stroke:#181818;stroke-width:1.0;" x1="1459" x2="1459" y1="903.3742" y2="916.3742"/><line style="stroke:#181818;stroke-width:1.0;" x1="1418" x2="1459" y1="916.3742" y2="916.3742"/><polygon fill="#181818" points="1428,912.3742,1418,916.3742,1428,920.3742,1424,916.3742" style="stroke:#181818;stroke-width:1.0;"/><text fill="#000000" font-family="sans-serif" font-size="13" font-weight="bold" lengthAdjust="spacing" textLength="14" x="1424" y="897.5652">21</text><text fill="#000000" font-family="sans-serif" font-size="13" lengthAdjust="spacing" textLength="556" x="1442" y="897.5652">calculateDifferenceOfTheSum(numPropertiesInAgenciesList, binaryString, n, oneList, zeroList)</text><line style="stroke:#181818;stroke-width:1.0;" x1="1417" x2="1464" y1="948.0802" y2="948.0802"/><line style="stroke:#181818;stroke-width:1.0;" x1="1464" x2="1464" y1="948.0802" y2="961.0802"/><line style="stroke:#181818;stroke-width:1.0;" x1="1423" x2="1464" y1="961.0802" y2="961.0802"/><polygon fill="#181818" points="1433,957.0802,1423,961.0802,1433,965.0802,1429,961.0802" style="stroke:#181818;stroke-width:1.0;"/><text fill="#000000" font-family="sans-serif" font-size="13" font-weight="bold" lengthAdjust="spacing" textLength="14" x="1429" y="942.2712">22</text><text fill="#000000" font-family="sans-serif" font-size="13" lengthAdjust="spacing" textLength="464" x="1447" y="942.2712">createSublists(numPropertiesInAgenciesList, binaryString, zeroList, oneList, n)</text><line style="stroke:#181818;stroke-width:1.0;" x1="1422" x2="1469" y1="1017.7862" y2="1017.7862"/><line style="stroke:#181818;stroke-width:1.0;" x1="1469" x2="1469" y1="1017.7862" y2="1030.7862"/><line style="stroke:#181818;stroke-width:1.0;" x1="1428" x2="1469" y1="1030.7862" y2="1030.7862"/><polygon fill="#181818" points="1438,1026.7862,1428,1030.7862,1438,1034.7862,1434,1030.7862" style="stroke:#181818;stroke-width:1.0;"/><text fill="#000000" font-family="sans-serif" font-size="13" font-weight="bold" lengthAdjust="spacing" textLength="14" x="1434" y="1011.9772">23</text><text fill="#000000" font-family="sans-serif" font-size="13" lengthAdjust="spacing" textLength="127" x="1452" y="1011.9772">sublistsSum(zeroList)</text><line style="stroke:#181818;stroke-width:1.0;stroke-dasharray:2.0,2.0;" x1="1427" x2="1469" y1="1072.4923" y2="1072.4923"/><line style="stroke:#181818;stroke-width:1.0;stroke-dasharray:2.0,2.0;" x1="1469" x2="1469" y1="1072.4923" y2="1085.4923"/><line style="stroke:#181818;stroke-width:1.0;stroke-dasharray:2.0,2.0;" x1="1422" x2="1469" y1="1085.4923" y2="1085.4923"/><polygon fill="#181818" points="1432,1081.4923,1422,1085.4923,1432,1089.4923,1428,1085.4923" style="stroke:#181818;stroke-width:1.0;"/><text fill="#000000" font-family="sans-serif" font-size="13" font-weight="bold" lengthAdjust="spacing" textLength="14" x="1434" y="1066.6833">24</text><text fill="#000000" font-family="sans-serif" font-size="13" lengthAdjust="spacing" textLength="74" x="1452" y="1066.6833">zeroListSum</text><line style="stroke:#181818;stroke-width:1.0;" x1="1422" x2="1469" y1="1132.1983" y2="1132.1983"/><line style="stroke:#181818;stroke-width:1.0;" x1="1469" x2="1469" y1="1132.1983" y2="1145.1983"/><line style="stroke:#181818;stroke-width:1.0;" x1="1428" x2="1469" y1="1145.1983" y2="1145.1983"/><polygon fill="#181818" points="1438,1141.1983,1428,1145.1983,1438,1149.1983,1434,1145.1983" style="stroke:#181818;stroke-width:1.0;"/><text fill="#000000" font-family="sans-serif" font-size="13" font-weight="bold" lengthAdjust="spacing" textLength="14" x="1434" y="1126.3893">25</text><text fill="#000000" font-family="sans-serif" font-size="13" lengthAdjust="spacing" textLength="124" x="1452" y="1126.3893">sublistsSum(oneList)</text><line style="stroke:#181818;stroke-width:1.0;stroke-dasharray:2.0,2.0;" x1="1427" x2="1469" y1="1186.9043" y2="1186.9043"/><line style="stroke:#181818;stroke-width:1.0;stroke-dasharray:2.0,2.0;" x1="1469" x2="1469" y1="1186.9043" y2="1199.9043"/><line style="stroke:#181818;stroke-width:1.0;stroke-dasharray:2.0,2.0;" x1="1422" x2="1469" y1="1199.9043" y2="1199.9043"/><polygon fill="#181818" points="1432,1195.9043,1422,1199.9043,1432,1203.9043,1428,1199.9043" style="stroke:#181818;stroke-width:1.0;"/><text fill="#000000" font-family="sans-serif" font-size="13" font-weight="bold" lengthAdjust="spacing" textLength="14" x="1434" y="1181.0953">26</text><text fill="#000000" font-family="sans-serif" font-size="13" lengthAdjust="spacing" textLength="71" x="1452" y="1181.0953">oneListSum</text><line style="stroke:#181818;stroke-width:1.0;stroke-dasharray:2.0,2.0;" x1="1422" x2="1464" y1="1256.6103" y2="1256.6103"/><line style="stroke:#181818;stroke-width:1.0;stroke-dasharray:2.0,2.0;" x1="1464" x2="1464" y1="1256.6103" y2="1269.6103"/><line style="stroke:#181818;stroke-width:1.0;stroke-dasharray:2.0,2.0;" x1="1417" x2="1464" y1="1269.6103" y2="1269.6103"/><polygon fill="#181818" points="1427,1265.6103,1417,1269.6103,1427,1273.6103,1423,1269.6103" style="stroke:#181818;stroke-width:1.0;"/><text fill="#000000" font-family="sans-serif" font-size="13" font-weight="bold" lengthAdjust="spacing" textLength="14" x="1429" y="1250.8013">27</text><text fill="#000000" font-family="sans-serif" font-size="13" lengthAdjust="spacing" textLength="86" x="1447" y="1250.8013">sumDifference</text><line style="stroke:#181818;stroke-width:1.0;" x1="1417" x2="1464" y1="1316.3163" y2="1316.3163"/><line style="stroke:#181818;stroke-width:1.0;" x1="1464" x2="1464" y1="1316.3163" y2="1329.3163"/><line style="stroke:#181818;stroke-width:1.0;" x1="1423" x2="1464" y1="1329.3163" y2="1329.3163"/><polygon fill="#181818" points="1433,1325.3163,1423,1329.3163,1433,1333.3163,1429,1329.3163" style="stroke:#181818;stroke-width:1.0;"/><text fill="#000000" font-family="sans-serif" font-size="13" font-weight="bold" lengthAdjust="spacing" textLength="14" x="1429" y="1310.5073">28</text><text fill="#000000" font-family="sans-serif" font-size="13" lengthAdjust="spacing" textLength="228" x="1447" y="1310.5073">verifyIfDifferenceIsMin(sumDifference)</text><line style="stroke:#181818;stroke-width:1.0;stroke-dasharray:2.0,2.0;" x1="1422" x2="1464" y1="1371.0223" y2="1371.0223"/><line style="stroke:#181818;stroke-width:1.0;stroke-dasharray:2.0,2.0;" x1="1464" x2="1464" y1="1371.0223" y2="1384.0223"/><line style="stroke:#181818;stroke-width:1.0;stroke-dasharray:2.0,2.0;" x1="1417" x2="1464" y1="1384.0223" y2="1384.0223"/><polygon fill="#181818" points="1427,1380.0223,1417,1384.0223,1427,1388.0223,1423,1384.0223" style="stroke:#181818;stroke-width:1.0;"/><text fill="#000000" font-family="sans-serif" font-size="13" font-weight="bold" lengthAdjust="spacing" textLength="14" x="1429" y="1365.2133">29</text><text fill="#000000" font-family="sans-serif" font-size="13" lengthAdjust="spacing" textLength="91" x="1447" y="1365.2133">differenceArray</text><line style="stroke:#181818;stroke-width:1.0;" x1="1417" x2="1464" y1="1437.7284" y2="1437.7284"/><line style="stroke:#181818;stroke-width:1.0;" x1="1464" x2="1464" y1="1437.7284" y2="1450.7284"/><line style="stroke:#181818;stroke-width:1.0;" x1="1423" x2="1464" y1="1450.7284" y2="1450.7284"/><polygon fill="#181818" points="1433,1446.7284,1423,1450.7284,1433,1454.7284,1429,1450.7284" style="stroke:#181818;stroke-width:1.0;"/><text fill="#000000" font-family="sans-serif" font-size="13" font-weight="bold" lengthAdjust="spacing" textLength="14" x="1429" y="1431.9194">30</text><text fill="#000000" font-family="sans-serif" font-size="13" lengthAdjust="spacing" textLength="603" x="1447" y="1431.9194">calculateDifferenceOfTheSum(numPropertiesInAgenciesList, minDifferenceBinary, n, zeroList, oneList)</text><line style="stroke:#181818;stroke-width:1.0;stroke-dasharray:2.0,2.0;" x1="1422" x2="1464" y1="1492.4344" y2="1492.4344"/><line style="stroke:#181818;stroke-width:1.0;stroke-dasharray:2.0,2.0;" x1="1464" x2="1464" y1="1492.4344" y2="1505.4344"/><line style="stroke:#181818;stroke-width:1.0;stroke-dasharray:2.0,2.0;" x1="1417" x2="1464" y1="1505.4344" y2="1505.4344"/><polygon fill="#181818" points="1427,1501.4344,1417,1505.4344,1427,1509.4344,1423,1505.4344" style="stroke:#181818;stroke-width:1.0;"/><text fill="#000000" font-family="sans-serif" font-size="13" font-weight="bold" lengthAdjust="spacing" textLength="14" x="1429" y="1486.6254">31</text><text fill="#000000" font-family="sans-serif" font-size="13" lengthAdjust="spacing" textLength="83" x="1447" y="1486.6254">minDifference</text><polygon fill="#181818" points="1946,1553.1404,1956,1557.1404,1946,1561.1404,1950,1557.1404" style="stroke:#181818;stroke-width:1.0;"/><line style="stroke:#181818;stroke-width:1.0;" x1="1417" x2="1952" y1="1557.1404" y2="1557.1404"/><text fill="#000000" font-family="sans-serif" font-size="13" font-weight="bold" lengthAdjust="spacing" textLength="14" x="1424" y="1551.3314">32</text><text fill="#000000" font-family="sans-serif" font-size="13" lengthAdjust="spacing" textLength="413" x="1442" y="1551.3314">create(numPropertiesInAgenciesList, oneList, zeroList, minDifference)</text><rect fill="#E3E3E3" height="33.0679" rx="2.5" ry="2.5" style="stroke:#181818;stroke-width:0.5;" width="198" x="1958" y="1533.4344"/><text fill="#000000" font-family="sans-serif" font-size="14" lengthAdjust="spacing" textLength="184" x="1965" y="1555.4003">:SublistsAndSumDifference</text><line style="stroke:#181818;stroke-width:1.0;stroke-dasharray:2.0,2.0;" x1="1417" x2="1459" y1="1606.2083" y2="1606.2083"/><line style="stroke:#181818;stroke-width:1.0;stroke-dasharray:2.0,2.0;" x1="1459" x2="1459" y1="1606.2083" y2="1619.2083"/><line style="stroke:#181818;stroke-width:1.0;stroke-dasharray:2.0,2.0;" x1="1412" x2="1459" y1="1619.2083" y2="1619.2083"/><polygon fill="#181818" points="1422,1615.2083,1412,1619.2083,1422,1623.2083,1418,1619.2083" style="stroke:#181818;stroke-width:1.0;"/><text fill="#000000" font-family="sans-serif" font-size="13" font-weight="bold" lengthAdjust="spacing" textLength="14" x="1424" y="1600.3993">33</text><text fill="#000000" font-family="sans-serif" font-size="13" lengthAdjust="spacing" textLength="156" x="1442" y="1600.3993">sublistsAndSumDifference</text><polygon fill="#181818" points="859,1641.9143,849,1645.9143,859,1649.9143,855,1645.9143" style="stroke:#181818;stroke-width:1.0;"/><line style="stroke:#181818;stroke-width:1.0;stroke-dasharray:2.0,2.0;" x1="853" x2="1406" y1="1645.9143" y2="1645.9143"/><text fill="#000000" font-family="sans-serif" font-size="13" font-weight="bold" lengthAdjust="spacing" textLength="14" x="865" y="1640.1053">34</text><text fill="#000000" font-family="sans-serif" font-size="13" lengthAdjust="spacing" textLength="156" x="883" y="1640.1053">sublistsAndSumDifference</text><polygon fill="#181818" points="489,1673.6203,479,1677.6203,489,1681.6203,485,1677.6203" style="stroke:#181818;stroke-width:1.0;"/><line style="stroke:#181818;stroke-width:1.0;stroke-dasharray:2.0,2.0;" x1="483" x2="842" y1="1677.6203" y2="1677.6203"/><text fill="#000000" font-family="sans-serif" font-size="13" font-weight="bold" lengthAdjust="spacing" textLength="14" x="495" y="1671.8113">35</text><text fill="#000000" font-family="sans-serif" font-size="13" lengthAdjust="spacing" textLength="156" x="513" y="1671.8113">sublistsAndSumDifference</text><polygon fill="#181818" points="99,1705.3264,89,1709.3264,99,1713.3264,95,1709.3264" style="stroke:#181818;stroke-width:1.0;"/><line style="stroke:#181818;stroke-width:1.0;stroke-dasharray:2.0,2.0;" x1="93" x2="472" y1="1709.3264" y2="1709.3264"/><text fill="#000000" font-family="sans-serif" font-size="13" font-weight="bold" lengthAdjust="spacing" textLength="14" x="105" y="1703.5174">36</text><text fill="#000000" font-family="sans-serif" font-size="13" lengthAdjust="spacing" textLength="333" x="123" y="1703.5174">shows the sublists and the difference between the sums</text><!--SRC=[pLZBRjim4BphAuXScXJ93-HGm4qk1fp4Y9rRBxIqiWXBf4fISLtauxkYhBT8sx8JL8SW9hd3sPtXGr8RnbCgQK8ImOKVIP40qJ83JrKzAVKtT0qBlOk1IF0rvUkuEK15D11RnjSafB42pwEP5ZnBLY0zxrl40Y2X47eb_dZKrqAIgmN-1V8CUYlaXZnHZlZoYb155izF7g9gvhEKSaskxX_PEo9Cri1z1kfjQeQzJPsZ7WJNKiJn7lHX-JhhZ7-5L2Y6D72q6LCrx1OipmypQ8V8HiJzBzu3cCycotO4pTdiQc2CcdIQJ6ItqPdQ95xZd3fAJAYbhuEmo5OnKrfDUB38aaSMXY0n0egAMpezV50kzaur65ayWW_-G-v-OFt9FGPl5D6218O4qH4G1Pg8aD0z8HDIWQ1efY5_401XSc6-VqSeNmAEkBuPwCVUDUWonSQG2jV8MpNdZud3-05H2xWfLsXZlpbZ2tB83QsH-JE4VbUpRXgc5Hk0Uvx1L79xDKhHi8ij1sF87cc3qs3PDQcDQH-jPDRbOnMinQvd-XxJ7cwFzGnzQ-FhnY-uLqRkepMGslRAZObn-Jh89VwT0QuTu_rYnslQlruSNWUpN0hDvQHtAHo9T6195GhCypr0Cy7tA_owJlCsdw9KQ2cANUIebHKBaU9kBWcy0qfIG1Ac2Gs2BlbKYXIG0zg_9wxRFEEfZ_3P8Q-b7J8zWADT1pnmsT0waTMC7nyV5lqBion0luJLIkpYdo4usX5bGjtLHVH-DXZpAduEiXZeuFm9IcCgDOSfBmitkwpeBT6QjR4SvXOr7MGjMwxjij3BpMYUSStYV6NZqUn7lPsf4aODrzcMZ3DFdyP-5YFN-Xho4YuZm8k9AzzRicASuXcg9PwYk4FS4i6XwFaBKim6ZJEkDkVbPwuvvOthb9JAD1gPyHihkV5fzSnvaRpLFkDSHxSWvsTmaAYJQSaEcJfdQ2p_KGm_lyvxd_oVPTwJ-ymgEoiyZhLglHzTah2Lx2WRu4dDmjqqhCbErHFZrot-NxOX7ZZPIZuJAQdbp1vJrTwnQotprvvK2UDro4-pnvi3gxV1Esuw9sapJfSMJUyIWfnQUzjtYURt0cUbUrU0Jl5ll4lj2fOFAETKp4LbVrizEEynSth3hoAdO3lUZrKajiN5iGGab0UceLxuP0Lw2y3tun8rzBBS-9b_Y_e7]--></g></svg>