<?xml version="1.0" encoding="us-ascii" standalone="no"?><svg xmlns="http://www.w3.org/2000/svg" xmlns:xlink="http://www.w3.org/1999/xlink" contentStyleType="text/css" height="954px" preserveAspectRatio="none" style="width:1503px;height:954px;background:#FFFFFF;" version="1.1" viewBox="0 0 1503 954" width="1503px" zoomAndPan="magnify"><defs/><g><rect fill="#FFFFFF" height="758.8765" style="stroke:#181818;stroke-width:1.0;" width="10" x="83" y="94.0679"/><rect fill="#FFFFFF" height="188.2361" style="stroke:#181818;stroke-width:1.0;" width="10" x="468" y="117.7739"/><rect fill="#FFFFFF" height="515.2283" style="stroke:#181818;stroke-width:1.0;" width="10" x="468" y="337.716"/><rect fill="#FFFFFF" height="80.7561" style="stroke:#181818;stroke-width:1.0;" width="10" x="831" y="193.5479"/><rect fill="#FFFFFF" height="128.8241" style="stroke:#181818;stroke-width:1.0;" width="10" x="831" y="369.4221"/><rect fill="#FFFFFF" height="266.2862" style="stroke:#181818;stroke-width:1.0;" width="10" x="831" y="554.9521"/><rect fill="#FFFFFF" height="31.706" style="stroke:#181818;stroke-width:1.0;" width="10" x="1222.5" y="427.8341"/><rect fill="#FFFFFF" height="31.706" style="stroke:#181818;stroke-width:1.0;" width="10" x="1222.5" y="613.3642"/><rect fill="#FFFFFF" height="80.7561" style="stroke:#181818;stroke-width:1.0;" width="10" x="1395" y="708.7762"/><rect fill="none" height="83.118" style="stroke:#000000;stroke-width:1.5;" width="574" x="732" y="384.4221"/><rect fill="none" height="83.118" style="stroke:#000000;stroke-width:1.5;" width="574" x="732" y="569.9521"/><line style="stroke:#181818;stroke-width:0.5;stroke-dasharray:5.0,5.0;" x1="88" x2="88" y1="84.0679" y2="870.9444"/><line style="stroke:#181818;stroke-width:0.5;stroke-dasharray:5.0,5.0;" x1="473" x2="473" y1="84.0679" y2="870.9444"/><line style="stroke:#181818;stroke-width:0.5;stroke-dasharray:5.0,5.0;" x1="836" x2="836" y1="157.8079" y2="870.9444"/><line style="stroke:#181818;stroke-width:0.5;stroke-dasharray:5.0,5.0;" x1="990" x2="990" y1="84.0679" y2="870.9444"/><line style="stroke:#181818;stroke-width:0.5;stroke-dasharray:5.0,5.0;" x1="1100" x2="1100" y1="84.0679" y2="870.9444"/><line style="stroke:#181818;stroke-width:0.5;stroke-dasharray:5.0,5.0;" x1="1227" x2="1227" y1="84.0679" y2="870.9444"/><line style="stroke:#181818;stroke-width:0.5;stroke-dasharray:5.0,5.0;" x1="1400" x2="1400" y1="84.0679" y2="870.9444"/><text fill="#000000" font-family="sans-serif" font-size="14" lengthAdjust="spacing" textLength="160" x="5" y="79.9659">Store Network Manager</text><ellipse cx="88" cy="13.5" fill="#E3E3E3" rx="8" ry="8" style="stroke:#181818;stroke-width:0.5;"/><path d="M88,21.5 L88,48.5 M75,29.5 L101,29.5 M88,48.5 L75,63.5 M88,48.5 L101,63.5 " fill="none" style="stroke:#181818;stroke-width:0.5;"/><text fill="#000000" font-family="sans-serif" font-size="14" lengthAdjust="spacing" textLength="160" x="5" y="884.9103">Store Network Manager</text><ellipse cx="88" cy="897.5123" fill="#E3E3E3" rx="8" ry="8" style="stroke:#181818;stroke-width:0.5;"/><path d="M88,905.5123 L88,932.5123 M75,913.5123 L101,913.5123 M88,932.5123 L75,947.5123 M88,932.5123 L101,947.5123 " fill="none" style="stroke:#181818;stroke-width:0.5;"/><rect fill="#E3E3E3" height="33.0679" rx="2.5" ry="2.5" style="stroke:#181818;stroke-width:0.5;" width="136" x="405" y="50"/><text fill="#000000" font-family="sans-serif" font-size="14" lengthAdjust="spacing" textLength="122" x="412" y="71.9659">:DivideAgenciesUI</text><rect fill="#E3E3E3" height="33.0679" rx="2.5" ry="2.5" style="stroke:#181818;stroke-width:0.5;" width="136" x="405" y="869.9444"/><text fill="#000000" font-family="sans-serif" font-size="14" lengthAdjust="spacing" textLength="122" x="412" y="891.9103">:DivideAgenciesUI</text><rect fill="#E3E3E3" height="33.0679" rx="2.5" ry="2.5" style="stroke:#181818;stroke-width:0.5;" width="188" x="742" y="869.9444"/><text fill="#000000" font-family="sans-serif" font-size="14" lengthAdjust="spacing" textLength="174" x="749" y="891.9103">:DivideAgenciesController</text><rect fill="#E3E3E3" height="33.0679" rx="2.5" ry="2.5" style="stroke:#181818;stroke-width:0.5;" width="101" x="940" y="50"/><text fill="#000000" font-family="sans-serif" font-size="14" lengthAdjust="spacing" textLength="87" x="947" y="71.9659">:Repositories</text><rect fill="#E3E3E3" height="33.0679" rx="2.5" ry="2.5" style="stroke:#181818;stroke-width:0.5;" width="101" x="940" y="869.9444"/><text fill="#000000" font-family="sans-serif" font-size="14" lengthAdjust="spacing" textLength="87" x="947" y="891.9103">:Repositories</text><rect fill="#E3E3E3" height="52.1358" rx="2.5" ry="2.5" style="stroke:#181818;stroke-width:0.5;" width="98" x="1051" y="30.9321"/><text fill="#000000" font-family="sans-serif" font-size="14" lengthAdjust="spacing" textLength="84" x="1058" y="52.898">repositories:</text><text fill="#000000" font-family="sans-serif" font-size="14" lengthAdjust="spacing" textLength="83" x="1058.5" y="71.9659">Repositories</text><rect fill="#E3E3E3" height="52.1358" rx="2.5" ry="2.5" style="stroke:#181818;stroke-width:0.5;" width="98" x="1051" y="869.9444"/><text fill="#000000" font-family="sans-serif" font-size="14" lengthAdjust="spacing" textLength="84" x="1058" y="891.9103">repositories:</text><text fill="#000000" font-family="sans-serif" font-size="14" lengthAdjust="spacing" textLength="83" x="1058.5" y="910.9782">Repositories</text><rect fill="#E3E3E3" height="52.1358" rx="2.5" ry="2.5" style="stroke:#181818;stroke-width:0.5;" width="137" x="1159" y="30.9321"/><text fill="#000000" font-family="sans-serif" font-size="14" lengthAdjust="spacing" textLength="123" x="1166" y="52.898">agencyRepository:</text><text fill="#000000" font-family="sans-serif" font-size="14" lengthAdjust="spacing" textLength="120" x="1167.5" y="71.9659">AgencyRepository</text><rect fill="#E3E3E3" height="52.1358" rx="2.5" ry="2.5" style="stroke:#181818;stroke-width:0.5;" width="137" x="1159" y="869.9444"/><text fill="#000000" font-family="sans-serif" font-size="14" lengthAdjust="spacing" textLength="123" x="1166" y="891.9103">agencyRepository:</text><text fill="#000000" font-family="sans-serif" font-size="14" lengthAdjust="spacing" textLength="120" x="1167.5" y="910.9782">AgencyRepository</text><rect fill="#E3E3E3" height="33.0679" rx="2.5" ry="2.5" style="stroke:#181818;stroke-width:0.5;" width="188" x="1306" y="50"/><text fill="#000000" font-family="sans-serif" font-size="14" lengthAdjust="spacing" textLength="174" x="1313" y="71.9659">:DivideAgenciesAlgorithm</text><rect fill="#E3E3E3" height="33.0679" rx="2.5" ry="2.5" style="stroke:#181818;stroke-width:0.5;" width="188" x="1306" y="869.9444"/><text fill="#000000" font-family="sans-serif" font-size="14" lengthAdjust="spacing" textLength="174" x="1313" y="891.9103">:DivideAgenciesAlgorithm</text><rect fill="#FFFFFF" height="758.8765" style="stroke:#181818;stroke-width:1.0;" width="10" x="83" y="94.0679"/><rect fill="#FFFFFF" height="188.2361" style="stroke:#181818;stroke-width:1.0;" width="10" x="468" y="117.7739"/><rect fill="#FFFFFF" height="515.2283" style="stroke:#181818;stroke-width:1.0;" width="10" x="468" y="337.716"/><rect fill="#FFFFFF" height="80.7561" style="stroke:#181818;stroke-width:1.0;" width="10" x="831" y="193.5479"/><rect fill="#FFFFFF" height="128.8241" style="stroke:#181818;stroke-width:1.0;" width="10" x="831" y="369.4221"/><rect fill="#FFFFFF" height="266.2862" style="stroke:#181818;stroke-width:1.0;" width="10" x="831" y="554.9521"/><rect fill="#FFFFFF" height="31.706" style="stroke:#181818;stroke-width:1.0;" width="10" x="1222.5" y="427.8341"/><rect fill="#FFFFFF" height="31.706" style="stroke:#181818;stroke-width:1.0;" width="10" x="1222.5" y="613.3642"/><rect fill="#FFFFFF" height="80.7561" style="stroke:#181818;stroke-width:1.0;" width="10" x="1395" y="708.7762"/><polygon fill="#181818" points="456,113.7739,466,117.7739,456,121.7739,460,117.7739" style="stroke:#181818;stroke-width:1.0;"/><line style="stroke:#181818;stroke-width:1.0;" x1="93" x2="462" y1="117.7739" y2="117.7739"/><text fill="#000000" font-family="sans-serif" font-size="13" font-weight="bold" lengthAdjust="spacing" textLength="7" x="100" y="111.9649">1</text><text fill="#000000" font-family="sans-serif" font-size="13" lengthAdjust="spacing" textLength="195" x="111" y="111.9649">asks to divide the set of agencies</text><polygon fill="#181818" points="730,145.4799,740,149.4799,730,153.4799,734,149.4799" style="stroke:#181818;stroke-width:1.0;"/><line style="stroke:#181818;stroke-width:1.0;" x1="478" x2="736" y1="149.4799" y2="149.4799"/><text fill="#000000" font-family="sans-serif" font-size="13" font-weight="bold" lengthAdjust="spacing" textLength="7" x="485" y="143.6709">2</text><text fill="#000000" font-family="sans-serif" font-size="13" lengthAdjust="spacing" textLength="45" x="496" y="143.6709">create()</text><rect fill="#E3E3E3" height="33.0679" rx="2.5" ry="2.5" style="stroke:#181818;stroke-width:0.5;" width="188" x="742" y="125.7739"/><text fill="#000000" font-family="sans-serif" font-size="14" lengthAdjust="spacing" textLength="174" x="749" y="147.7399">:DivideAgenciesController</text><polygon fill="#181818" points="819,189.5479,829,193.5479,819,197.5479,823,193.5479" style="stroke:#181818;stroke-width:1.0;"/><line style="stroke:#181818;stroke-width:1.0;" x1="478" x2="825" y1="193.5479" y2="193.5479"/><text fill="#000000" font-family="sans-serif" font-size="13" font-weight="bold" lengthAdjust="spacing" textLength="7" x="485" y="187.7389">3</text><text fill="#000000" font-family="sans-serif" font-size="13" lengthAdjust="spacing" textLength="81" x="496" y="187.7389">getAgencies()</text><rect fill="none" height="44.0501" style="stroke:#000000;stroke-width:1.5;" width="194" x="739" y="201.5479"/><path d="M739,201.5479 L803,201.5479 L803,210.5479 L793,220.5479 L739,220.5479 L739,201.5479 " fill="#EEEEEE" style="stroke:#000000;stroke-width:2.0;"/><text fill="#000000" font-family="sans-serif" font-size="13" font-weight="bold" lengthAdjust="spacing" textLength="19" x="752" y="217.4449">ref</text><text fill="#000000" font-family="sans-serif" font-size="12" lengthAdjust="spacing" textLength="86" x="793" y="237.376">Get Agency List</text><polygon fill="#181818" points="489,270.304,479,274.304,489,278.304,485,274.304" style="stroke:#181818;stroke-width:1.0;"/><line style="stroke:#181818;stroke-width:1.0;stroke-dasharray:2.0,2.0;" x1="483" x2="835" y1="274.304" y2="274.304"/><text fill="#000000" font-family="sans-serif" font-size="13" font-weight="bold" lengthAdjust="spacing" textLength="7" x="495" y="268.495">4</text><text fill="#000000" font-family="sans-serif" font-size="13" lengthAdjust="spacing" textLength="64" x="506" y="268.495">agencyList</text><polygon fill="#181818" points="104,302.01,94,306.01,104,310.01,100,306.01" style="stroke:#181818;stroke-width:1.0;"/><line style="stroke:#181818;stroke-width:1.0;stroke-dasharray:2.0,2.0;" x1="98" x2="472" y1="306.01" y2="306.01"/><text fill="#000000" font-family="sans-serif" font-size="13" font-weight="bold" lengthAdjust="spacing" textLength="7" x="110" y="300.201">5</text><text fill="#000000" font-family="sans-serif" font-size="13" lengthAdjust="spacing" textLength="251" x="121" y="300.201">requests the number of agencies to divide</text><polygon fill="#181818" points="456,333.716,466,337.716,456,341.716,460,337.716" style="stroke:#181818;stroke-width:1.0;"/><line style="stroke:#181818;stroke-width:1.0;" x1="93" x2="462" y1="337.716" y2="337.716"/><text fill="#000000" font-family="sans-serif" font-size="13" font-weight="bold" lengthAdjust="spacing" textLength="7" x="100" y="331.907">6</text><text fill="#000000" font-family="sans-serif" font-size="13" lengthAdjust="spacing" textLength="232" x="111" y="331.907">types the number of agencies to divide</text><polygon fill="#181818" points="819,365.4221,829,369.4221,819,373.4221,823,369.4221" style="stroke:#181818;stroke-width:1.0;"/><line style="stroke:#181818;stroke-width:1.0;" x1="478" x2="825" y1="369.4221" y2="369.4221"/><text fill="#000000" font-family="sans-serif" font-size="13" font-weight="bold" lengthAdjust="spacing" textLength="7" x="485" y="363.6131">7</text><text fill="#000000" font-family="sans-serif" font-size="13" lengthAdjust="spacing" textLength="323" x="496" y="363.6131">getPartitionSublist(agencyList, numAgenciesToDivide)</text><path d="M732,384.4221 L805,384.4221 L805,394.1281 L795,404.1281 L732,404.1281 L732,384.4221 " fill="#EEEEEE" style="stroke:#000000;stroke-width:1.5;"/><rect fill="none" height="83.118" style="stroke:#000000;stroke-width:1.5;" width="574" x="732" y="384.4221"/><text fill="#000000" font-family="sans-serif" font-size="13" font-weight="bold" lengthAdjust="spacing" textLength="28" x="747" y="399.3191">loop</text><text fill="#000000" font-family="sans-serif" font-size="11" font-weight="bold" lengthAdjust="spacing" textLength="285" x="820" y="398.181">[for every agency it adds the number of properties]</text><polygon fill="#181818" points="1210.5,423.8341,1220.5,427.8341,1210.5,431.8341,1214.5,427.8341" style="stroke:#181818;stroke-width:1.0;"/><line style="stroke:#181818;stroke-width:1.0;" x1="841" x2="1216.5" y1="427.8341" y2="427.8341"/><text fill="#000000" font-family="sans-serif" font-size="13" font-weight="bold" lengthAdjust="spacing" textLength="7" x="848" y="422.0251">8</text><text fill="#000000" font-family="sans-serif" font-size="13" lengthAdjust="spacing" textLength="323" x="859" y="422.0251">getPartitionSublist(agencyList, numAgenciesToDivide)</text><polygon fill="#181818" points="852,455.5401,842,459.5401,852,463.5401,848,459.5401" style="stroke:#181818;stroke-width:1.0;"/><line style="stroke:#181818;stroke-width:1.0;stroke-dasharray:2.0,2.0;" x1="846" x2="1226.5" y1="459.5401" y2="459.5401"/><text fill="#000000" font-family="sans-serif" font-size="13" font-weight="bold" lengthAdjust="spacing" textLength="7" x="858" y="453.7311">9</text><text fill="#000000" font-family="sans-serif" font-size="13" lengthAdjust="spacing" textLength="92" x="869" y="453.7311">partitionSublist</text><polygon fill="#181818" points="489,494.2461,479,498.2461,489,502.2461,485,498.2461" style="stroke:#181818;stroke-width:1.0;"/><line style="stroke:#181818;stroke-width:1.0;stroke-dasharray:2.0,2.0;" x1="483" x2="835" y1="498.2461" y2="498.2461"/><text fill="#000000" font-family="sans-serif" font-size="13" font-weight="bold" lengthAdjust="spacing" textLength="14" x="495" y="492.4371">10</text><text fill="#000000" font-family="sans-serif" font-size="13" lengthAdjust="spacing" textLength="92" x="513" y="492.4371">partitionSublist</text><polygon fill="#181818" points="819,550.9521,829,554.9521,819,558.9521,823,554.9521" style="stroke:#181818;stroke-width:1.0;"/><line style="stroke:#181818;stroke-width:1.0;" x1="478" x2="825" y1="554.9521" y2="554.9521"/><text fill="#000000" font-family="sans-serif" font-size="13" font-weight="bold" lengthAdjust="spacing" textLength="14" x="485" y="549.1431">11</text><text fill="#000000" font-family="sans-serif" font-size="13" lengthAdjust="spacing" textLength="222" x="503" y="549.1431">divideSetOfAgencies(partitionSublist)</text><path d="M732,569.9521 L805,569.9521 L805,579.6582 L795,589.6582 L732,589.6582 L732,569.9521 " fill="#EEEEEE" style="stroke:#000000;stroke-width:1.5;"/><rect fill="none" height="83.118" style="stroke:#000000;stroke-width:1.5;" width="574" x="732" y="569.9521"/><text fill="#000000" font-family="sans-serif" font-size="13" font-weight="bold" lengthAdjust="spacing" textLength="28" x="747" y="584.8492">loop</text><text fill="#000000" font-family="sans-serif" font-size="11" font-weight="bold" lengthAdjust="spacing" textLength="276" x="820" y="583.7111">[for every agency to get its number of properties]</text><polygon fill="#181818" points="1210.5,609.3642,1220.5,613.3642,1210.5,617.3642,1214.5,613.3642" style="stroke:#181818;stroke-width:1.0;"/><line style="stroke:#181818;stroke-width:1.0;" x1="841" x2="1216.5" y1="613.3642" y2="613.3642"/><text fill="#000000" font-family="sans-serif" font-size="13" font-weight="bold" lengthAdjust="spacing" textLength="14" x="848" y="607.5552">12</text><text fill="#000000" font-family="sans-serif" font-size="13" lengthAdjust="spacing" textLength="296" x="866" y="607.5552">getNumberPropertiesPerAgency(partitionSublist)</text><polygon fill="#181818" points="852,641.0702,842,645.0702,852,649.0702,848,645.0702" style="stroke:#181818;stroke-width:1.0;"/><line style="stroke:#181818;stroke-width:1.0;stroke-dasharray:2.0,2.0;" x1="846" x2="1226.5" y1="645.0702" y2="645.0702"/><text fill="#000000" font-family="sans-serif" font-size="13" font-weight="bold" lengthAdjust="spacing" textLength="14" x="858" y="639.2612">13</text><text fill="#000000" font-family="sans-serif" font-size="13" lengthAdjust="spacing" textLength="176" x="876" y="639.2612">numPropertiesInAgenciesList</text><polygon fill="#181818" points="1383,704.7762,1393,708.7762,1383,712.7762,1387,708.7762" style="stroke:#181818;stroke-width:1.0;"/><line style="stroke:#181818;stroke-width:1.0;" x1="841" x2="1389" y1="708.7762" y2="708.7762"/><text fill="#000000" font-family="sans-serif" font-size="13" font-weight="bold" lengthAdjust="spacing" textLength="14" x="848" y="702.9672">14</text><text fill="#000000" font-family="sans-serif" font-size="13" lengthAdjust="spacing" textLength="306" x="866" y="702.9672">divideSetOfAgencies(numPropertiesInAgenciesList)</text><rect fill="none" height="44.0501" style="stroke:#000000;stroke-width:1.5;" width="194" x="1303" y="716.7762"/><path d="M1303,716.7762 L1367,716.7762 L1367,725.7762 L1357,735.7762 L1303,735.7762 L1303,716.7762 " fill="#EEEEEE" style="stroke:#000000;stroke-width:2.0;"/><text fill="#000000" font-family="sans-serif" font-size="13" font-weight="bold" lengthAdjust="spacing" textLength="19" x="1316" y="732.6732">ref</text><text fill="#000000" font-family="sans-serif" font-size="12" lengthAdjust="spacing" textLength="124" x="1338" y="752.6043">Divide Set of Agencies</text><polygon fill="#181818" points="852,785.5324,842,789.5324,852,793.5324,848,789.5324" style="stroke:#181818;stroke-width:1.0;"/><line style="stroke:#181818;stroke-width:1.0;stroke-dasharray:2.0,2.0;" x1="846" x2="1399" y1="789.5324" y2="789.5324"/><text fill="#000000" font-family="sans-serif" font-size="13" font-weight="bold" lengthAdjust="spacing" textLength="14" x="858" y="783.7234">15</text><text fill="#000000" font-family="sans-serif" font-size="13" lengthAdjust="spacing" textLength="156" x="876" y="783.7234">sublistsAndSumDifference</text><polygon fill="#181818" points="489,817.2384,479,821.2384,489,825.2384,485,821.2384" style="stroke:#181818;stroke-width:1.0;"/><line style="stroke:#181818;stroke-width:1.0;stroke-dasharray:2.0,2.0;" x1="483" x2="835" y1="821.2384" y2="821.2384"/><text fill="#000000" font-family="sans-serif" font-size="13" font-weight="bold" lengthAdjust="spacing" textLength="14" x="495" y="815.4294">16</text><text fill="#000000" font-family="sans-serif" font-size="13" lengthAdjust="spacing" textLength="156" x="513" y="815.4294">sublistsAndSumDifference</text><polygon fill="#181818" points="99,848.9444,89,852.9444,99,856.9444,95,852.9444" style="stroke:#181818;stroke-width:1.0;"/><line style="stroke:#181818;stroke-width:1.0;stroke-dasharray:2.0,2.0;" x1="93" x2="472" y1="852.9444" y2="852.9444"/><text fill="#000000" font-family="sans-serif" font-size="13" font-weight="bold" lengthAdjust="spacing" textLength="14" x="105" y="847.1354">17</text><text fill="#000000" font-family="sans-serif" font-size="13" lengthAdjust="spacing" textLength="333" x="123" y="847.1354">shows the sublists and the difference between the sums</text><!--SRC=[jLPDR-8m4BtdLunwsMwr_04EbQ9MMY5H5ZNqjXUJJ1ABnCxQ3YmIFtx73kIJX5Rj-e30ddb-yzxOHk-uA9XYEUHIo31LCaSmgaHFroi52tSimS0SCmI5eM4YoTe1EcMHF72HGCmoZPx7IYD5cMzHUTwtb4S8iPHcA_zwB3HImLr0dmWhD0UfTl321E6hEs0QWjMBHwY6XxnWmi3T_9dl2S5FK8GSzTl2XRqj9gEUf31APjaPz6dpkkp5ls8XDISQ5ErYwebZm6rzL44tHRKovh_5062zz3VT36RP71jWol9xKowpFpbPcfybjAT9SvSwikRH8AdvdXbqadf0Wxx0x96qWpdbxZGO2P4309CYQ3GWOs1dC9TIWv3WRi8E0Y0OA-h30q652YdY_lkLTLfDq5pejK9gN6TDFMs7mXZa7bMr1BtnaqXMUi6IQzDPHn7Px2wSep6hotQfdSm8HyZOCYZFgZOdt3ybQgETKbLljyLgfFHwc1VXskAROu7lHBfXG2NmslQBuL84vJQZskwRCd_OBIu6R6JLB-_o8PEoe7Eh0CcCuravu0PO5FN95qeMI1oeQmQELGOy3hhyizG79GoEqI3KZW6DMIDbqICp06ZvEhqRjU9K6uvkDDgCfzDfnF-gMG8ql-BweFNnFs4ujIFPHBxhB_5xvJ3MTVuQLHKumVa_E4sbD1mMuYBSycjDxvZMrcRasXvnSu9iLwIQv-YpqA-jlcp7Cgu9MyL2KBqNVlkzk7aTD_d3wbl-wAe7j2-YeCoVUHoZed2yTb1k5jizUn-1ddWGT2eFrJLu0GH61Tk9gCQ4BVt5GHJdk5nVUnrQF-rJ_Gy0]--></g></svg>