<?xml version="1.0" encoding="us-ascii" standalone="no"?><svg xmlns="http://www.w3.org/2000/svg" xmlns:xlink="http://www.w3.org/1999/xlink" contentStyleType="text/css" height="958px" preserveAspectRatio="none" style="width:1131px;height:958px;background:#FFFFFF;" version="1.1" viewBox="0 0 1131 958" width="1131px" zoomAndPan="magnify"><defs/><g><rect fill="#FFFFFF" height="829.6582" style="stroke:#181818;stroke-width:1.0;" width="10" x="343" y="72.7739"/><rect fill="#FFFFFF" height="690.8341" style="stroke:#181818;stroke-width:1.0;" width="10" x="348" y="165.892"/><rect fill="#FFFFFF" height="296.5301" style="stroke:#181818;stroke-width:1.0;" width="10" x="353" y="210.598"/><rect fill="#FFFFFF" height="42.706" style="stroke:#181818;stroke-width:1.0;" width="10" x="358" y="280.304"/><rect fill="#FFFFFF" height="42.706" style="stroke:#181818;stroke-width:1.0;" width="10" x="358" y="394.716"/><rect fill="#FFFFFF" height="42.706" style="stroke:#181818;stroke-width:1.0;" width="10" x="353" y="578.8341"/><rect fill="#FFFFFF" height="42.706" style="stroke:#181818;stroke-width:1.0;" width="10" x="353" y="700.2461"/><rect fill="none" height="783.9521" style="stroke:#000000;stroke-width:1.5;" width="891" x="234" y="87.7739"/><rect fill="none" height="522.0602" style="stroke:#000000;stroke-width:1.5;" width="718" x="244" y="114.4799"/><line style="stroke:#181818;stroke-width:0.5;stroke-dasharray:5.0,5.0;" x1="348" x2="348" y1="39.0679" y2="920.4321"/><line style="stroke:#181818;stroke-width:0.5;stroke-dasharray:5.0,5.0;" x1="1016" x2="1016" y1="814.9861" y2="920.4321"/><rect fill="#E3E3E3" height="33.0679" rx="2.5" ry="2.5" style="stroke:#181818;stroke-width:0.5;" width="188" x="254" y="5"/><text fill="#000000" font-family="sans-serif" font-size="14" lengthAdjust="spacing" textLength="174" x="261" y="26.9659">:DivideAgenciesAlgorithm</text><rect fill="#E3E3E3" height="33.0679" rx="2.5" ry="2.5" style="stroke:#181818;stroke-width:0.5;" width="188" x="254" y="919.4321"/><text fill="#000000" font-family="sans-serif" font-size="14" lengthAdjust="spacing" textLength="174" x="261" y="941.398">:DivideAgenciesAlgorithm</text><rect fill="#E3E3E3" height="33.0679" rx="2.5" ry="2.5" style="stroke:#181818;stroke-width:0.5;" width="198" x="917" y="919.4321"/><text fill="#000000" font-family="sans-serif" font-size="14" lengthAdjust="spacing" textLength="184" x="924" y="941.398">:SublistsAndSumDifference</text><rect fill="#FFFFFF" height="829.6582" style="stroke:#181818;stroke-width:1.0;" width="10" x="343" y="72.7739"/><rect fill="#FFFFFF" height="690.8341" style="stroke:#181818;stroke-width:1.0;" width="10" x="348" y="165.892"/><rect fill="#FFFFFF" height="296.5301" style="stroke:#181818;stroke-width:1.0;" width="10" x="353" y="210.598"/><rect fill="#FFFFFF" height="42.706" style="stroke:#181818;stroke-width:1.0;" width="10" x="358" y="280.304"/><rect fill="#FFFFFF" height="42.706" style="stroke:#181818;stroke-width:1.0;" width="10" x="358" y="394.716"/><rect fill="#FFFFFF" height="42.706" style="stroke:#181818;stroke-width:1.0;" width="10" x="353" y="578.8341"/><rect fill="#FFFFFF" height="42.706" style="stroke:#181818;stroke-width:1.0;" width="10" x="353" y="700.2461"/><polygon fill="#181818" points="331,68.7739,341,72.7739,331,76.7739,335,72.7739" style="stroke:#181818;stroke-width:1.0;"/><line style="stroke:#181818;stroke-width:1.0;" x1="0" x2="337" y1="72.7739" y2="72.7739"/><text fill="#000000" font-family="sans-serif" font-size="13" font-weight="bold" lengthAdjust="spacing" textLength="14" x="7" y="66.9649">14</text><text fill="#000000" font-family="sans-serif" font-size="13" lengthAdjust="spacing" textLength="306" x="25" y="66.9649">divideSetOfAgencies(numPropertiesInAgenciesList)</text><path d="M234,87.7739 L424,87.7739 L424,97.4799 L414,107.4799 L234,107.4799 L234,87.7739 " fill="#EEEEEE" style="stroke:#000000;stroke-width:1.5;"/><rect fill="none" height="783.9521" style="stroke:#000000;stroke-width:1.5;" width="891" x="234" y="87.7739"/><text fill="#000000" font-family="sans-serif" font-size="13" font-weight="bold" lengthAdjust="spacing" textLength="145" x="249" y="102.6709">Divide Set Of Agencies</text><path d="M244,114.4799 L317,114.4799 L317,124.186 L307,134.186 L244,134.186 L244,114.4799 " fill="#EEEEEE" style="stroke:#000000;stroke-width:1.5;"/><rect fill="none" height="522.0602" style="stroke:#000000;stroke-width:1.5;" width="718" x="244" y="114.4799"/><text fill="#000000" font-family="sans-serif" font-size="13" font-weight="bold" lengthAdjust="spacing" textLength="28" x="259" y="129.377">loop</text><text fill="#000000" font-family="sans-serif" font-size="11" font-weight="bold" lengthAdjust="spacing" textLength="231" x="332" y="128.2389">[until it reaches the number of partitions]</text><line style="stroke:#181818;stroke-width:1.0;" x1="353" x2="400" y1="152.892" y2="152.892"/><line style="stroke:#181818;stroke-width:1.0;" x1="400" x2="400" y1="152.892" y2="165.892"/><line style="stroke:#181818;stroke-width:1.0;" x1="359" x2="400" y1="165.892" y2="165.892"/><polygon fill="#181818" points="369,161.892,359,165.892,369,169.892,365,165.892" style="stroke:#181818;stroke-width:1.0;"/><text fill="#000000" font-family="sans-serif" font-size="13" font-weight="bold" lengthAdjust="spacing" textLength="25" x="365" y="147.083">14.1</text><text fill="#000000" font-family="sans-serif" font-size="13" lengthAdjust="spacing" textLength="556" x="394" y="147.083">calculateDifferenceOfTheSum(numPropertiesInAgenciesList, binaryString, n, oneList, zeroList)</text><line style="stroke:#181818;stroke-width:1.0;" x1="358" x2="405" y1="197.598" y2="197.598"/><line style="stroke:#181818;stroke-width:1.0;" x1="405" x2="405" y1="197.598" y2="210.598"/><line style="stroke:#181818;stroke-width:1.0;" x1="364" x2="405" y1="210.598" y2="210.598"/><polygon fill="#181818" points="374,206.598,364,210.598,374,214.598,370,210.598" style="stroke:#181818;stroke-width:1.0;"/><text fill="#000000" font-family="sans-serif" font-size="13" font-weight="bold" lengthAdjust="spacing" textLength="25" x="370" y="191.789">14.2</text><text fill="#000000" font-family="sans-serif" font-size="13" lengthAdjust="spacing" textLength="464" x="399" y="191.789">createSublists(numPropertiesInAgenciesList, binaryString, zeroList, oneList, n)</text><line style="stroke:#181818;stroke-width:1.0;" x1="363" x2="410" y1="267.304" y2="267.304"/><line style="stroke:#181818;stroke-width:1.0;" x1="410" x2="410" y1="267.304" y2="280.304"/><line style="stroke:#181818;stroke-width:1.0;" x1="369" x2="410" y1="280.304" y2="280.304"/><polygon fill="#181818" points="379,276.304,369,280.304,379,284.304,375,280.304" style="stroke:#181818;stroke-width:1.0;"/><text fill="#000000" font-family="sans-serif" font-size="13" font-weight="bold" lengthAdjust="spacing" textLength="25" x="375" y="261.495">14.3</text><text fill="#000000" font-family="sans-serif" font-size="13" lengthAdjust="spacing" textLength="127" x="404" y="261.495">sublistsSum(zeroList)</text><line style="stroke:#181818;stroke-width:1.0;stroke-dasharray:2.0,2.0;" x1="368" x2="410" y1="322.01" y2="322.01"/><line style="stroke:#181818;stroke-width:1.0;stroke-dasharray:2.0,2.0;" x1="410" x2="410" y1="322.01" y2="335.01"/><line style="stroke:#181818;stroke-width:1.0;stroke-dasharray:2.0,2.0;" x1="363" x2="410" y1="335.01" y2="335.01"/><polygon fill="#181818" points="373,331.01,363,335.01,373,339.01,369,335.01" style="stroke:#181818;stroke-width:1.0;"/><text fill="#000000" font-family="sans-serif" font-size="13" font-weight="bold" lengthAdjust="spacing" textLength="25" x="375" y="316.201">14.4</text><text fill="#000000" font-family="sans-serif" font-size="13" lengthAdjust="spacing" textLength="74" x="404" y="316.201">zeroListSum</text><line style="stroke:#181818;stroke-width:1.0;" x1="363" x2="410" y1="381.716" y2="381.716"/><line style="stroke:#181818;stroke-width:1.0;" x1="410" x2="410" y1="381.716" y2="394.716"/><line style="stroke:#181818;stroke-width:1.0;" x1="369" x2="410" y1="394.716" y2="394.716"/><polygon fill="#181818" points="379,390.716,369,394.716,379,398.716,375,394.716" style="stroke:#181818;stroke-width:1.0;"/><text fill="#000000" font-family="sans-serif" font-size="13" font-weight="bold" lengthAdjust="spacing" textLength="25" x="375" y="375.907">14.5</text><text fill="#000000" font-family="sans-serif" font-size="13" lengthAdjust="spacing" textLength="124" x="404" y="375.907">sublistsSum(oneList)</text><line style="stroke:#181818;stroke-width:1.0;stroke-dasharray:2.0,2.0;" x1="368" x2="410" y1="436.4221" y2="436.4221"/><line style="stroke:#181818;stroke-width:1.0;stroke-dasharray:2.0,2.0;" x1="410" x2="410" y1="436.4221" y2="449.4221"/><line style="stroke:#181818;stroke-width:1.0;stroke-dasharray:2.0,2.0;" x1="363" x2="410" y1="449.4221" y2="449.4221"/><polygon fill="#181818" points="373,445.4221,363,449.4221,373,453.4221,369,449.4221" style="stroke:#181818;stroke-width:1.0;"/><text fill="#000000" font-family="sans-serif" font-size="13" font-weight="bold" lengthAdjust="spacing" textLength="25" x="375" y="430.6131">14.6</text><text fill="#000000" font-family="sans-serif" font-size="13" lengthAdjust="spacing" textLength="71" x="404" y="430.6131">oneListSum</text><line style="stroke:#181818;stroke-width:1.0;stroke-dasharray:2.0,2.0;" x1="363" x2="405" y1="506.1281" y2="506.1281"/><line style="stroke:#181818;stroke-width:1.0;stroke-dasharray:2.0,2.0;" x1="405" x2="405" y1="506.1281" y2="519.1281"/><line style="stroke:#181818;stroke-width:1.0;stroke-dasharray:2.0,2.0;" x1="358" x2="405" y1="519.1281" y2="519.1281"/><polygon fill="#181818" points="368,515.1281,358,519.1281,368,523.1281,364,519.1281" style="stroke:#181818;stroke-width:1.0;"/><text fill="#000000" font-family="sans-serif" font-size="13" font-weight="bold" lengthAdjust="spacing" textLength="25" x="370" y="500.3191">14.7</text><text fill="#000000" font-family="sans-serif" font-size="13" lengthAdjust="spacing" textLength="86" x="399" y="500.3191">sumDifference</text><line style="stroke:#181818;stroke-width:1.0;" x1="358" x2="405" y1="565.8341" y2="565.8341"/><line style="stroke:#181818;stroke-width:1.0;" x1="405" x2="405" y1="565.8341" y2="578.8341"/><line style="stroke:#181818;stroke-width:1.0;" x1="364" x2="405" y1="578.8341" y2="578.8341"/><polygon fill="#181818" points="374,574.8341,364,578.8341,374,582.8341,370,578.8341" style="stroke:#181818;stroke-width:1.0;"/><text fill="#000000" font-family="sans-serif" font-size="13" font-weight="bold" lengthAdjust="spacing" textLength="25" x="370" y="560.0251">14.8</text><text fill="#000000" font-family="sans-serif" font-size="13" lengthAdjust="spacing" textLength="228" x="399" y="560.0251">verifyIfDifferenceIsMin(sumDifference)</text><line style="stroke:#181818;stroke-width:1.0;stroke-dasharray:2.0,2.0;" x1="363" x2="405" y1="620.5401" y2="620.5401"/><line style="stroke:#181818;stroke-width:1.0;stroke-dasharray:2.0,2.0;" x1="405" x2="405" y1="620.5401" y2="633.5401"/><line style="stroke:#181818;stroke-width:1.0;stroke-dasharray:2.0,2.0;" x1="358" x2="405" y1="633.5401" y2="633.5401"/><polygon fill="#181818" points="368,629.5401,358,633.5401,368,637.5401,364,633.5401" style="stroke:#181818;stroke-width:1.0;"/><text fill="#000000" font-family="sans-serif" font-size="13" font-weight="bold" lengthAdjust="spacing" textLength="25" x="370" y="614.7311">14.9</text><text fill="#000000" font-family="sans-serif" font-size="13" lengthAdjust="spacing" textLength="91" x="399" y="614.7311">differenceArray</text><line style="stroke:#181818;stroke-width:1.0;" x1="358" x2="405" y1="687.2461" y2="687.2461"/><line style="stroke:#181818;stroke-width:1.0;" x1="405" x2="405" y1="687.2461" y2="700.2461"/><line style="stroke:#181818;stroke-width:1.0;" x1="364" x2="405" y1="700.2461" y2="700.2461"/><polygon fill="#181818" points="374,696.2461,364,700.2461,374,704.2461,370,700.2461" style="stroke:#181818;stroke-width:1.0;"/><text fill="#000000" font-family="sans-serif" font-size="13" font-weight="bold" lengthAdjust="spacing" textLength="32" x="370" y="681.4371">14.10</text><text fill="#000000" font-family="sans-serif" font-size="13" lengthAdjust="spacing" textLength="603" x="406" y="681.4371">calculateDifferenceOfTheSum(numPropertiesInAgenciesList, minDifferenceBinary, n, zeroList, oneList)</text><line style="stroke:#181818;stroke-width:1.0;stroke-dasharray:2.0,2.0;" x1="363" x2="405" y1="741.9521" y2="741.9521"/><line style="stroke:#181818;stroke-width:1.0;stroke-dasharray:2.0,2.0;" x1="405" x2="405" y1="741.9521" y2="754.9521"/><line style="stroke:#181818;stroke-width:1.0;stroke-dasharray:2.0,2.0;" x1="358" x2="405" y1="754.9521" y2="754.9521"/><polygon fill="#181818" points="368,750.9521,358,754.9521,368,758.9521,364,754.9521" style="stroke:#181818;stroke-width:1.0;"/><text fill="#000000" font-family="sans-serif" font-size="13" font-weight="bold" lengthAdjust="spacing" textLength="32" x="370" y="736.1431">14.11</text><text fill="#000000" font-family="sans-serif" font-size="13" lengthAdjust="spacing" textLength="83" x="406" y="736.1431">minDifference</text><polygon fill="#181818" points="905,802.6582,915,806.6582,905,810.6582,909,806.6582" style="stroke:#181818;stroke-width:1.0;"/><line style="stroke:#181818;stroke-width:1.0;" x1="358" x2="911" y1="806.6582" y2="806.6582"/><text fill="#000000" font-family="sans-serif" font-size="13" font-weight="bold" lengthAdjust="spacing" textLength="32" x="365" y="800.8492">14.12</text><text fill="#000000" font-family="sans-serif" font-size="13" lengthAdjust="spacing" textLength="413" x="401" y="800.8492">create(numPropertiesInAgenciesList, oneList, zeroList, minDifference)</text><rect fill="#E3E3E3" height="33.0679" rx="2.5" ry="2.5" style="stroke:#181818;stroke-width:0.5;" width="198" x="917" y="782.9521"/><text fill="#000000" font-family="sans-serif" font-size="14" lengthAdjust="spacing" textLength="184" x="924" y="804.9181">:SublistsAndSumDifference</text><line style="stroke:#181818;stroke-width:1.0;stroke-dasharray:2.0,2.0;" x1="358" x2="400" y1="855.7261" y2="855.7261"/><line style="stroke:#181818;stroke-width:1.0;stroke-dasharray:2.0,2.0;" x1="400" x2="400" y1="855.7261" y2="868.7261"/><line style="stroke:#181818;stroke-width:1.0;stroke-dasharray:2.0,2.0;" x1="353" x2="400" y1="868.7261" y2="868.7261"/><polygon fill="#181818" points="363,864.7261,353,868.7261,363,872.7261,359,868.7261" style="stroke:#181818;stroke-width:1.0;"/><text fill="#000000" font-family="sans-serif" font-size="13" font-weight="bold" lengthAdjust="spacing" textLength="32" x="365" y="849.9171">14.13</text><text fill="#000000" font-family="sans-serif" font-size="13" lengthAdjust="spacing" textLength="156" x="401" y="849.9171">sublistsAndSumDifference</text><polygon fill="#181818" points="11,898.4321,1,902.4321,11,906.4321,7,902.4321" style="stroke:#181818;stroke-width:1.0;"/><line style="stroke:#181818;stroke-width:1.0;stroke-dasharray:2.0,2.0;" x1="5" x2="347" y1="902.4321" y2="902.4321"/><text fill="#000000" font-family="sans-serif" font-size="13" font-weight="bold" lengthAdjust="spacing" textLength="14" x="17" y="896.6231">15</text><text fill="#000000" font-family="sans-serif" font-size="13" lengthAdjust="spacing" textLength="156" x="35" y="896.6231">sublistsAndSumDifference</text><!--SRC=[pPR1Zjem48RlVehHNhgieD9AxMLLhKIr5wHML4fVm3ZZPBIE7TaEBHKFNnCI883P9K1LdoBFsFFFDux7xfLqoIqle33QYDoQ0i7R2fdRM4ekNdc6YLye18l2SvsfNGUNyzJy8fs1vCeX2-D3JYc2DCRFp6yMt3m9AhdsSFVqGlDW76Ue1Q4RgynOydbn1zn1nBQtGrBD53dlnZfDgkA5f4GRLc2zHSp86A-yqLKnGmkFdzZeEHODdY2jBGdwgMpDzs7f3sjA34hGJNGx_oq46tJt_lWOWWbFS-uncXA3C39hgh9nWH0EfX9QrxN7QYXZIgYq9mNaGmcuoD61pn6Qa4P2JSYJqMwpRFFHZbY-9r48haIbGYPRb5FvCyS0znII8Sn8Sxj8l0qdOmXw24RZsl87hLbZsrVuFchNoIjmzDYUbdDIQUNlPAG7HuNrIsUvN1utzCxLDLckQXQ7VvdgDmMULDYg2WgZkwVONzbjcJRduFz2seYw1T4epNvANUUUleR8em9xbNcEbkHY8hS29-uxwVkEvfjVP6yqgrR7s5g-O1SJH9rs9mvm_jjEKf3UBlbQtyLrGpcuYBjrEBy6_VXtvB5Bm9_3EVREUNZODBVJL0_QyHxe0Rl6dnrvZ9rBQ7KawvhklBC-hqrVHgC-2juH-Iy0]--></g></svg>