<?xml version="1.0" encoding="us-ascii" standalone="no"?><svg xmlns="http://www.w3.org/2000/svg" xmlns:xlink="http://www.w3.org/1999/xlink" contentStyleType="text/css" height="1079px" preserveAspectRatio="none" style="width:2050px;height:1079px;background:#FFFFFF;" version="1.1" viewBox="0 0 2050 1079" width="2050px" zoomAndPan="magnify"><defs/><g><rect fill="#FFFFFF" height="883.4243" style="stroke:#181818;stroke-width:1.0;" width="10" x="65" y="94.0679"/><rect fill="#FFFFFF" height="202.598" style="stroke:#181818;stroke-width:1.0;" width="10" x="793" y="117.7739"/><rect fill="#FFFFFF" height="31.706" style="stroke:#181818;stroke-width:1.0;" width="10" x="793" y="352.0779"/><rect fill="#FFFFFF" height="562.0023" style="stroke:#181818;stroke-width:1.0;" width="10" x="793" y="415.49"/><rect fill="#FFFFFF" height="129.186" style="stroke:#181818;stroke-width:1.0;" width="10" x="1161" y="159.4799"/><rect fill="#FFFFFF" height="341.0602" style="stroke:#181818;stroke-width:1.0;" width="10" x="1161" y="464.902"/><rect fill="#FFFFFF" height="108.118" style="stroke:#181818;stroke-width:1.0;" width="10" x="1161" y="837.6682"/><rect fill="#FFFFFF" height="31.706" style="stroke:#181818;stroke-width:1.0;" width="10" x="1311.5" y="193.5479"/><rect fill="#FFFFFF" height="31.706" style="stroke:#181818;stroke-width:1.0;" width="10" x="1421" y="256.9599"/><rect fill="#FFFFFF" height="259.9421" style="stroke:#181818;stroke-width:1.0;" width="10" x="1543" y="514.314"/><rect fill="#FFFFFF" height="132.118" style="stroke:#181818;stroke-width:1.0;" width="10" x="1548" y="603.4321"/><rect fill="#FFFFFF" height="42.706" style="stroke:#181818;stroke-width:1.0;" width="10" x="1553" y="648.1381"/><rect fill="#FFFFFF" height="37.706" style="stroke:#181818;stroke-width:1.0;" width="10" x="1939.5" y="869.3742"/><line style="stroke:#181818;stroke-width:0.5;stroke-dasharray:5.0,5.0;" x1="70" x2="70" y1="84.0679" y2="995.4923"/><line style="stroke:#181818;stroke-width:0.5;stroke-dasharray:5.0,5.0;" x1="798" x2="798" y1="84.0679" y2="995.4923"/><line style="stroke:#181818;stroke-width:0.5;stroke-dasharray:5.0,5.0;" x1="1166" x2="1166" y1="157.8079" y2="995.4923"/><line style="stroke:#181818;stroke-width:0.5;stroke-dasharray:5.0,5.0;" x1="1316" x2="1316" y1="84.0679" y2="995.4923"/><line style="stroke:#181818;stroke-width:0.5;stroke-dasharray:5.0,5.0;" x1="1426" x2="1426" y1="84.0679" y2="995.4923"/><line style="stroke:#181818;stroke-width:0.5;stroke-dasharray:5.0,5.0;" x1="1548" x2="1548" y1="84.0679" y2="995.4923"/><line style="stroke:#181818;stroke-width:0.5;stroke-dasharray:5.0,5.0;" x1="1944" x2="1944" y1="557.0201" y2="995.4923"/><text fill="#000000" font-family="sans-serif" font-size="14" lengthAdjust="spacing" textLength="124" x="5" y="79.9659">Unregistered User</text><ellipse cx="70" cy="13.5" fill="#E3E3E3" rx="8" ry="8" style="stroke:#181818;stroke-width:0.5;"/><path d="M70,21.5 L70,48.5 M57,29.5 L83,29.5 M70,48.5 L57,63.5 M70,48.5 L83,63.5 " fill="none" style="stroke:#181818;stroke-width:0.5;"/><text fill="#000000" font-family="sans-serif" font-size="14" lengthAdjust="spacing" textLength="124" x="5" y="1009.4582">Unregistered User</text><ellipse cx="70" cy="1022.0602" fill="#E3E3E3" rx="8" ry="8" style="stroke:#181818;stroke-width:0.5;"/><path d="M70,1030.0602 L70,1057.0602 M57,1038.0602 L83,1038.0602 M70,1057.0602 L57,1072.0602 M70,1057.0602 L83,1072.0602 " fill="none" style="stroke:#181818;stroke-width:0.5;"/><rect fill="#E3E3E3" height="33.0679" rx="2.5" ry="2.5" style="stroke:#181818;stroke-width:0.5;" width="128" x="734" y="50"/><text fill="#000000" font-family="sans-serif" font-size="14" lengthAdjust="spacing" textLength="114" x="741" y="71.9659">:RegisterClientUI</text><rect fill="#E3E3E3" height="33.0679" rx="2.5" ry="2.5" style="stroke:#181818;stroke-width:0.5;" width="128" x="734" y="994.4923"/><text fill="#000000" font-family="sans-serif" font-size="14" lengthAdjust="spacing" textLength="114" x="741" y="1016.4582">:RegisterClientUI</text><rect fill="#E3E3E3" height="33.0679" rx="2.5" ry="2.5" style="stroke:#181818;stroke-width:0.5;" width="180" x="1076" y="994.4923"/><text fill="#000000" font-family="sans-serif" font-size="14" lengthAdjust="spacing" textLength="166" x="1083" y="1016.4582">:RegisterClientController</text><rect fill="#E3E3E3" height="33.0679" rx="2.5" ry="2.5" style="stroke:#181818;stroke-width:0.5;" width="101" x="1266" y="50"/><text fill="#000000" font-family="sans-serif" font-size="14" lengthAdjust="spacing" textLength="87" x="1273" y="71.9659">:Repositories</text><rect fill="#E3E3E3" height="33.0679" rx="2.5" ry="2.5" style="stroke:#181818;stroke-width:0.5;" width="101" x="1266" y="994.4923"/><text fill="#000000" font-family="sans-serif" font-size="14" lengthAdjust="spacing" textLength="87" x="1273" y="1016.4582">:Repositories</text><rect fill="#E3E3E3" height="52.1358" rx="2.5" ry="2.5" style="stroke:#181818;stroke-width:0.5;" width="98" x="1377" y="30.9321"/><text fill="#000000" font-family="sans-serif" font-size="14" lengthAdjust="spacing" textLength="84" x="1384" y="52.898">repositories:</text><text fill="#000000" font-family="sans-serif" font-size="14" lengthAdjust="spacing" textLength="83" x="1384.5" y="71.9659">Repositories</text><rect fill="#E3E3E3" height="52.1358" rx="2.5" ry="2.5" style="stroke:#181818;stroke-width:0.5;" width="98" x="1377" y="994.4923"/><text fill="#000000" font-family="sans-serif" font-size="14" lengthAdjust="spacing" textLength="84" x="1384" y="1016.4582">repositories:</text><text fill="#000000" font-family="sans-serif" font-size="14" lengthAdjust="spacing" textLength="83" x="1384.5" y="1035.5261">Repositories</text><rect fill="#E3E3E3" height="52.1358" rx="2.5" ry="2.5" style="stroke:#181818;stroke-width:0.5;" width="126" x="1485" y="30.9321"/><text fill="#000000" font-family="sans-serif" font-size="14" lengthAdjust="spacing" textLength="112" x="1492" y="52.898">clientRepository:</text><text fill="#000000" font-family="sans-serif" font-size="14" lengthAdjust="spacing" textLength="110" x="1493" y="71.9659">ClientRepository</text><rect fill="#E3E3E3" height="52.1358" rx="2.5" ry="2.5" style="stroke:#181818;stroke-width:0.5;" width="126" x="1485" y="994.4923"/><text fill="#000000" font-family="sans-serif" font-size="14" lengthAdjust="spacing" textLength="112" x="1492" y="1016.4582">clientRepository:</text><text fill="#000000" font-family="sans-serif" font-size="14" lengthAdjust="spacing" textLength="110" x="1493" y="1035.5261">ClientRepository</text><rect fill="#E3E3E3" height="33.0679" rx="2.5" ry="2.5" style="stroke:#181818;stroke-width:0.5;" width="57" x="1916" y="994.4923"/><text fill="#000000" font-family="sans-serif" font-size="14" lengthAdjust="spacing" textLength="43" x="1923" y="1016.4582">:Client</text><rect fill="#FFFFFF" height="883.4243" style="stroke:#181818;stroke-width:1.0;" width="10" x="65" y="94.0679"/><rect fill="#FFFFFF" height="202.598" style="stroke:#181818;stroke-width:1.0;" width="10" x="793" y="117.7739"/><rect fill="#FFFFFF" height="31.706" style="stroke:#181818;stroke-width:1.0;" width="10" x="793" y="352.0779"/><rect fill="#FFFFFF" height="562.0023" style="stroke:#181818;stroke-width:1.0;" width="10" x="793" y="415.49"/><rect fill="#FFFFFF" height="129.186" style="stroke:#181818;stroke-width:1.0;" width="10" x="1161" y="159.4799"/><rect fill="#FFFFFF" height="341.0602" style="stroke:#181818;stroke-width:1.0;" width="10" x="1161" y="464.902"/><rect fill="#FFFFFF" height="108.118" style="stroke:#181818;stroke-width:1.0;" width="10" x="1161" y="837.6682"/><rect fill="#FFFFFF" height="31.706" style="stroke:#181818;stroke-width:1.0;" width="10" x="1311.5" y="193.5479"/><rect fill="#FFFFFF" height="31.706" style="stroke:#181818;stroke-width:1.0;" width="10" x="1421" y="256.9599"/><rect fill="#FFFFFF" height="259.9421" style="stroke:#181818;stroke-width:1.0;" width="10" x="1543" y="514.314"/><rect fill="#FFFFFF" height="132.118" style="stroke:#181818;stroke-width:1.0;" width="10" x="1548" y="603.4321"/><rect fill="#FFFFFF" height="42.706" style="stroke:#181818;stroke-width:1.0;" width="10" x="1553" y="648.1381"/><rect fill="#FFFFFF" height="37.706" style="stroke:#181818;stroke-width:1.0;" width="10" x="1939.5" y="869.3742"/><polygon fill="#181818" points="781,113.7739,791,117.7739,781,121.7739,785,117.7739" style="stroke:#181818;stroke-width:1.0;"/><line style="stroke:#181818;stroke-width:1.0;" x1="75" x2="787" y1="117.7739" y2="117.7739"/><text fill="#000000" font-family="sans-serif" font-size="13" font-weight="bold" lengthAdjust="spacing" textLength="7" x="82" y="111.9649">1</text><text fill="#000000" font-family="sans-serif" font-size="13" lengthAdjust="spacing" textLength="207" x="93" y="111.9649">asks to be registered in the system</text><polygon fill="#181818" points="1064,145.4799,1074,149.4799,1064,153.4799,1068,149.4799" style="stroke:#181818;stroke-width:1.0;"/><line style="stroke:#181818;stroke-width:1.0;" x1="803" x2="1070" y1="149.4799" y2="149.4799"/><text fill="#000000" font-family="sans-serif" font-size="13" font-weight="bold" lengthAdjust="spacing" textLength="7" x="810" y="143.6709">2</text><text fill="#000000" font-family="sans-serif" font-size="13" lengthAdjust="spacing" textLength="37" x="821" y="143.6709">create</text><rect fill="#E3E3E3" height="33.0679" rx="2.5" ry="2.5" style="stroke:#181818;stroke-width:0.5;" width="180" x="1076" y="125.7739"/><text fill="#000000" font-family="sans-serif" font-size="14" lengthAdjust="spacing" textLength="166" x="1083" y="147.7399">:RegisterClientController</text><polygon fill="#181818" points="1299.5,189.5479,1309.5,193.5479,1299.5,197.5479,1303.5,193.5479" style="stroke:#181818;stroke-width:1.0;"/><line style="stroke:#181818;stroke-width:1.0;" x1="1171" x2="1305.5" y1="193.5479" y2="193.5479"/><text fill="#000000" font-family="sans-serif" font-size="13" font-weight="bold" lengthAdjust="spacing" textLength="7" x="1178" y="187.7389">3</text><text fill="#000000" font-family="sans-serif" font-size="13" lengthAdjust="spacing" textLength="79" x="1189" y="187.7389">getInstance()</text><polygon fill="#181818" points="1182,221.2539,1172,225.2539,1182,229.2539,1178,225.2539" style="stroke:#181818;stroke-width:1.0;"/><line style="stroke:#181818;stroke-width:1.0;stroke-dasharray:2.0,2.0;" x1="1176" x2="1315.5" y1="225.2539" y2="225.2539"/><text fill="#000000" font-family="sans-serif" font-size="13" font-weight="bold" lengthAdjust="spacing" textLength="7" x="1188" y="219.4449">4</text><text fill="#000000" font-family="sans-serif" font-size="13" lengthAdjust="spacing" textLength="71" x="1199" y="219.4449">repositories</text><polygon fill="#181818" points="1409,252.9599,1419,256.9599,1409,260.9599,1413,256.9599" style="stroke:#181818;stroke-width:1.0;"/><line style="stroke:#181818;stroke-width:1.0;" x1="1171" x2="1415" y1="256.9599" y2="256.9599"/><text fill="#000000" font-family="sans-serif" font-size="13" font-weight="bold" lengthAdjust="spacing" textLength="7" x="1178" y="251.1509">5</text><text fill="#000000" font-family="sans-serif" font-size="13" lengthAdjust="spacing" textLength="127" x="1189" y="251.1509">getClientRepository()</text><polygon fill="#181818" points="1177,284.6659,1167,288.6659,1177,292.6659,1173,288.6659" style="stroke:#181818;stroke-width:1.0;"/><line style="stroke:#181818;stroke-width:1.0;stroke-dasharray:2.0,2.0;" x1="1171" x2="1425" y1="288.6659" y2="288.6659"/><text fill="#000000" font-family="sans-serif" font-size="13" font-weight="bold" lengthAdjust="spacing" textLength="7" x="1183" y="282.8569">6</text><text fill="#000000" font-family="sans-serif" font-size="13" lengthAdjust="spacing" textLength="97" x="1194" y="282.8569">clientRepository</text><polygon fill="#181818" points="86,316.3719,76,320.3719,86,324.3719,82,320.3719" style="stroke:#181818;stroke-width:1.0;"/><line style="stroke:#181818;stroke-width:1.0;stroke-dasharray:2.0,2.0;" x1="80" x2="797" y1="320.3719" y2="320.3719"/><text fill="#000000" font-family="sans-serif" font-size="13" font-weight="bold" lengthAdjust="spacing" textLength="7" x="92" y="314.5629">7</text><text fill="#000000" font-family="sans-serif" font-size="13" lengthAdjust="spacing" textLength="224" x="103" y="314.5629">requests the required data to register</text><polygon fill="#181818" points="781,348.0779,791,352.0779,781,356.0779,785,352.0779" style="stroke:#181818;stroke-width:1.0;"/><line style="stroke:#181818;stroke-width:1.0;" x1="75" x2="787" y1="352.0779" y2="352.0779"/><text fill="#000000" font-family="sans-serif" font-size="13" font-weight="bold" lengthAdjust="spacing" textLength="7" x="82" y="346.2689">8</text><text fill="#000000" font-family="sans-serif" font-size="13" lengthAdjust="spacing" textLength="688" x="93" y="346.2689">types requested data (name, passport card number, tax number, email address, phone number, address, password)</text><polygon fill="#181818" points="86,379.784,76,383.784,86,387.784,82,383.784" style="stroke:#181818;stroke-width:1.0;"/><line style="stroke:#181818;stroke-width:1.0;stroke-dasharray:2.0,2.0;" x1="80" x2="797" y1="383.784" y2="383.784"/><text fill="#000000" font-family="sans-serif" font-size="13" font-weight="bold" lengthAdjust="spacing" textLength="7" x="92" y="377.975">9</text><text fill="#000000" font-family="sans-serif" font-size="13" lengthAdjust="spacing" textLength="155" x="103" y="377.975">shows the requested data</text><polygon fill="#181818" points="781,411.49,791,415.49,781,419.49,785,415.49" style="stroke:#181818;stroke-width:1.0;"/><line style="stroke:#181818;stroke-width:1.0;" x1="75" x2="787" y1="415.49" y2="415.49"/><text fill="#000000" font-family="sans-serif" font-size="13" font-weight="bold" lengthAdjust="spacing" textLength="14" x="82" y="409.681">10</text><text fill="#000000" font-family="sans-serif" font-size="13" lengthAdjust="spacing" textLength="78" x="100" y="409.681">submits data</text><polygon fill="#181818" points="1149,460.902,1159,464.902,1149,468.902,1153,464.902" style="stroke:#181818;stroke-width:1.0;"/><line style="stroke:#181818;stroke-width:1.0;" x1="803" x2="1155" y1="464.902" y2="464.902"/><text fill="#000000" font-family="sans-serif" font-size="13" font-weight="bold" lengthAdjust="spacing" textLength="14" x="810" y="450.24">11</text><text fill="#000000" font-family="sans-serif" font-size="13" lengthAdjust="spacing" textLength="243" x="828" y="441.387">registerClient(name, citizenCardNumber,</text><text fill="#000000" font-family="sans-serif" font-size="13" lengthAdjust="spacing" textLength="318" x="831" y="459.093">taxNumber, emailAddress, phoneNumber, password)</text><polygon fill="#181818" points="1531,510.314,1541,514.314,1531,518.314,1535,514.314" style="stroke:#181818;stroke-width:1.0;"/><line style="stroke:#181818;stroke-width:1.0;" x1="1171" x2="1537" y1="514.314" y2="514.314"/><text fill="#000000" font-family="sans-serif" font-size="13" font-weight="bold" lengthAdjust="spacing" textLength="14" x="1178" y="499.652">12</text><text fill="#000000" font-family="sans-serif" font-size="13" lengthAdjust="spacing" textLength="243" x="1196" y="490.799">registerClient(name, citizenCardNumber,</text><text fill="#000000" font-family="sans-serif" font-size="13" lengthAdjust="spacing" textLength="318" x="1199" y="508.505">taxNumber, emailAddress, phoneNumber, password)</text><polygon fill="#181818" points="1904,559.7261,1914,563.7261,1904,567.7261,1908,563.7261" style="stroke:#181818;stroke-width:1.0;"/><line style="stroke:#181818;stroke-width:1.0;" x1="1553" x2="1910" y1="563.7261" y2="563.7261"/><text fill="#000000" font-family="sans-serif" font-size="13" font-weight="bold" lengthAdjust="spacing" textLength="14" x="1560" y="549.0641">13</text><text fill="#000000" font-family="sans-serif" font-size="13" lengthAdjust="spacing" textLength="243" x="1578" y="540.2111">registerClient(name, citizenCardNumber,</text><text fill="#000000" font-family="sans-serif" font-size="13" lengthAdjust="spacing" textLength="318" x="1581" y="557.9171">taxNumber, emailAddress, phoneNumber, password)</text><rect fill="#E3E3E3" height="33.0679" rx="2.5" ry="2.5" style="stroke:#181818;stroke-width:0.5;" width="57" x="1916" y="527.6582"/><text fill="#000000" font-family="sans-serif" font-size="14" lengthAdjust="spacing" textLength="43" x="1923" y="549.6241">:Client</text><line style="stroke:#181818;stroke-width:1.0;" x1="1553" x2="1600" y1="590.4321" y2="590.4321"/><line style="stroke:#181818;stroke-width:1.0;" x1="1600" x2="1600" y1="590.4321" y2="603.4321"/><line style="stroke:#181818;stroke-width:1.0;" x1="1559" x2="1600" y1="603.4321" y2="603.4321"/><polygon fill="#181818" points="1569,599.4321,1559,603.4321,1569,607.4321,1565,603.4321" style="stroke:#181818;stroke-width:1.0;"/><text fill="#000000" font-family="sans-serif" font-size="13" font-weight="bold" lengthAdjust="spacing" textLength="14" x="1565" y="584.6231">14</text><text fill="#000000" font-family="sans-serif" font-size="13" lengthAdjust="spacing" textLength="97" x="1583" y="584.6231">addClient(client)</text><line style="stroke:#181818;stroke-width:1.0;" x1="1558" x2="1605" y1="635.1381" y2="635.1381"/><line style="stroke:#181818;stroke-width:1.0;" x1="1605" x2="1605" y1="635.1381" y2="648.1381"/><line style="stroke:#181818;stroke-width:1.0;" x1="1564" x2="1605" y1="648.1381" y2="648.1381"/><polygon fill="#181818" points="1574,644.1381,1564,648.1381,1574,652.1381,1570,648.1381" style="stroke:#181818;stroke-width:1.0;"/><text fill="#000000" font-family="sans-serif" font-size="13" font-weight="bold" lengthAdjust="spacing" textLength="14" x="1570" y="629.3291">15</text><text fill="#000000" font-family="sans-serif" font-size="13" lengthAdjust="spacing" textLength="121" x="1588" y="629.3291">validateClient(client)</text><line style="stroke:#181818;stroke-width:1.0;stroke-dasharray:2.0,2.0;" x1="1563" x2="1605" y1="689.8441" y2="689.8441"/><line style="stroke:#181818;stroke-width:1.0;stroke-dasharray:2.0,2.0;" x1="1605" x2="1605" y1="689.8441" y2="702.8441"/><line style="stroke:#181818;stroke-width:1.0;stroke-dasharray:2.0,2.0;" x1="1558" x2="1605" y1="702.8441" y2="702.8441"/><polygon fill="#181818" points="1568,698.8441,1558,702.8441,1568,706.8441,1564,702.8441" style="stroke:#181818;stroke-width:1.0;"/><text fill="#000000" font-family="sans-serif" font-size="13" font-weight="bold" lengthAdjust="spacing" textLength="14" x="1570" y="684.0351">16</text><text fill="#000000" font-family="sans-serif" font-size="13" lengthAdjust="spacing" textLength="3" x="1588" y="684.0351">&#160;</text><line style="stroke:#181818;stroke-width:1.0;stroke-dasharray:2.0,2.0;" x1="1558" x2="1600" y1="734.5501" y2="734.5501"/><line style="stroke:#181818;stroke-width:1.0;stroke-dasharray:2.0,2.0;" x1="1600" x2="1600" y1="734.5501" y2="747.5501"/><line style="stroke:#181818;stroke-width:1.0;stroke-dasharray:2.0,2.0;" x1="1553" x2="1600" y1="747.5501" y2="747.5501"/><polygon fill="#181818" points="1563,743.5501,1553,747.5501,1563,751.5501,1559,747.5501" style="stroke:#181818;stroke-width:1.0;"/><text fill="#000000" font-family="sans-serif" font-size="13" font-weight="bold" lengthAdjust="spacing" textLength="14" x="1565" y="728.7411">17</text><text fill="#000000" font-family="sans-serif" font-size="13" lengthAdjust="spacing" textLength="3" x="1583" y="728.7411">&#160;</text><polygon fill="#181818" points="1182,770.2562,1172,774.2562,1182,778.2562,1178,774.2562" style="stroke:#181818;stroke-width:1.0;"/><line style="stroke:#181818;stroke-width:1.0;stroke-dasharray:2.0,2.0;" x1="1176" x2="1547" y1="774.2562" y2="774.2562"/><text fill="#000000" font-family="sans-serif" font-size="13" font-weight="bold" lengthAdjust="spacing" textLength="14" x="1188" y="768.4472">18</text><text fill="#000000" font-family="sans-serif" font-size="13" lengthAdjust="spacing" textLength="32" x="1206" y="768.4472">client</text><polygon fill="#181818" points="814,801.9622,804,805.9622,814,809.9622,810,805.9622" style="stroke:#181818;stroke-width:1.0;"/><line style="stroke:#181818;stroke-width:1.0;stroke-dasharray:2.0,2.0;" x1="808" x2="1165" y1="805.9622" y2="805.9622"/><text fill="#000000" font-family="sans-serif" font-size="13" font-weight="bold" lengthAdjust="spacing" textLength="14" x="820" y="800.1532">19</text><text fill="#000000" font-family="sans-serif" font-size="13" lengthAdjust="spacing" textLength="99" x="838" y="800.1532">ClientRepository</text><polygon fill="#181818" points="1149,833.6682,1159,837.6682,1149,841.6682,1153,837.6682" style="stroke:#181818;stroke-width:1.0;"/><line style="stroke:#181818;stroke-width:1.0;" x1="803" x2="1155" y1="837.6682" y2="837.6682"/><text fill="#000000" font-family="sans-serif" font-size="13" font-weight="bold" lengthAdjust="spacing" textLength="14" x="810" y="831.8592">20</text><text fill="#000000" font-family="sans-serif" font-size="13" lengthAdjust="spacing" textLength="101" x="828" y="831.8592">sendEmail(client)</text><polygon fill="#181818" points="1927.5,865.3742,1937.5,869.3742,1927.5,873.3742,1931.5,869.3742" style="stroke:#181818;stroke-width:1.0;"/><line style="stroke:#181818;stroke-width:1.0;" x1="1171" x2="1933.5" y1="869.3742" y2="869.3742"/><text fill="#000000" font-family="sans-serif" font-size="13" font-weight="bold" lengthAdjust="spacing" textLength="14" x="1178" y="863.5652">21</text><text fill="#000000" font-family="sans-serif" font-size="13" lengthAdjust="spacing" textLength="101" x="1196" y="863.5652">sendEmail(client)</text><line style="stroke:#181818;stroke-width:1.0;" x1="1949.5" x2="1991.5" y1="906.0802" y2="906.0802"/><line style="stroke:#181818;stroke-width:1.0;" x1="1991.5" x2="1991.5" y1="906.0802" y2="919.0802"/><line style="stroke:#181818;stroke-width:1.0;" x1="1944.5" x2="1991.5" y1="919.0802" y2="919.0802"/><polygon fill="#181818" points="1954.5,915.0802,1944.5,919.0802,1954.5,923.0802,1950.5,919.0802" style="stroke:#181818;stroke-width:1.0;"/><text fill="#000000" font-family="sans-serif" font-size="13" font-weight="bold" lengthAdjust="spacing" textLength="14" x="1956.5" y="900.2712">22</text><text fill="#000000" font-family="sans-serif" font-size="13" lengthAdjust="spacing" textLength="69" x="1974.5" y="900.2712">sendEmail()</text><polygon fill="#181818" points="814,941.7862,804,945.7862,814,949.7862,810,945.7862" style="stroke:#181818;stroke-width:1.0;"/><line style="stroke:#181818;stroke-width:1.0;stroke-dasharray:2.0,2.0;" x1="808" x2="1165" y1="945.7862" y2="945.7862"/><text fill="#000000" font-family="sans-serif" font-size="13" font-weight="bold" lengthAdjust="spacing" textLength="14" x="820" y="939.9772">23</text><text fill="#000000" font-family="sans-serif" font-size="13" lengthAdjust="spacing" textLength="3" x="838" y="939.9772">&#160;</text><polygon fill="#181818" points="81,973.4923,71,977.4923,81,981.4923,77,977.4923" style="stroke:#181818;stroke-width:1.0;"/><line style="stroke:#181818;stroke-width:1.0;stroke-dasharray:2.0,2.0;" x1="75" x2="797" y1="977.4923" y2="977.4923"/><text fill="#000000" font-family="sans-serif" font-size="13" font-weight="bold" lengthAdjust="spacing" textLength="14" x="87" y="971.6833">24</text><text fill="#000000" font-family="sans-serif" font-size="13" lengthAdjust="spacing" textLength="148" x="105" y="971.6833">shows operation success</text><!--SRC=[nLRBRjim4BppAmXV6WV93_XGe11w453aaDIt00LDRIp24gcIL1ptwxlKan9fMsw1LYU9t9sT7GuNCWSXAwPPIKib5S-rAe5QNGCnmqx5-87juSMU2g0Qk6LoN_W19cUPEWgvfs-iC408gwsITRa3JSYdN6H0tvIoE_L16BTAqzLMQjWBOq53HhS6z8eoGxS_t2j1K2kug9YqTBLvxWAJGe2qsxIDJ2z69KfQhOgYmqs-FtyBuYjb178HO9gOOU7q8bnxsC0qHNiPcrTv7W0NffcyuJGMmEnajjJId2tEABVRNYHnQeftPg5NZj3kQR_fusTKYcumvM2eLNJdpc_GNKXgSw3cXD_bc3k2fkDY0vewG2Vc_Js2SWqODOaOKXl59rlkSQiE8g8rukt1fjAWkJZShOFS0JfsK45qhC9ZHtv3_QCCKZEuhLJG58AstSpFSr5NZjBvTXnstuSxWhbZbZGJLF22mdDpX-vir1hAQVUp1cDDOntt8PoLCcQPCrZlBXB1zkqqywSzLTXO1zt3tKbMmWDE7sCgfItbJ6UqdIeFrBAFuHrA9WhAiao3CPYGAmd3vhYCE4Ubi_Koe_izcrmTnuP7YZTsQUfTAL2vIUg2szQexe-tJXakhFW5Ca5TdjfkNwKJvidNvSj4bduh5EE6wpltzN_WD_Tzo7NESU3TpAv_m_SoaOc0QDEEItkdBuoAvDgblw7iEoi4sX6krBwzVfn3X4Gqsvz8VzPjh5ryoDzK8ilA-gEPBAr5melMZusBlAxExe6G0PbzTGuEJZcAGEAtVY5Gztyo5UeCofgGimgHY2JaQk_R52DdqrjLe9aL-1zWQixn1fyRtiJ_Rd-hVWC0]--></g></svg>