<?xml version="1.0" encoding="us-ascii" standalone="no"?><svg xmlns="http://www.w3.org/2000/svg" xmlns:xlink="http://www.w3.org/1999/xlink" contentStyleType="text/css" height="317px" preserveAspectRatio="none" style="width:787px;height:317px;background:#FFFFFF;" version="1.1" viewBox="0 0 787 317" width="787px" zoomAndPan="magnify"><defs/><g><rect fill="#FFFFFF" height="176.7344" style="stroke:#181818;stroke-width:1.0;" width="10" x="194" y="81.8047"/><rect fill="#FFFFFF" height="70.0469" style="stroke:#181818;stroke-width:1.0;" width="10" x="657.5" y="150.9688"/><line style="stroke:#181818;stroke-width:0.5;stroke-dasharray:5.0,5.0;" x1="198.5" x2="198.5" y1="51.2813" y2="267.5391"/><line style="stroke:#181818;stroke-width:0.5;stroke-dasharray:5.0,5.0;" x1="662" x2="662" y1="120.125" y2="267.5391"/><rect fill="#E3E3E3" height="45.2813" rx="2.5" ry="2.5" style="stroke:#181818;stroke-width:0.5;" width="205" x="96.5" y="5"/><text fill="#000000" font-family="sans-serif" font-size="14" lengthAdjust="spacing" textLength="72" x="163" y="24.6738">Repository:</text><text fill="#000000" font-family="sans-serif" font-size="14" lengthAdjust="spacing" textLength="191" x="103.5" y="40.3145">SaleAnnouncementRepository</text><rect fill="#E3E3E3" height="45.2813" rx="2.5" ry="2.5" style="stroke:#181818;stroke-width:0.5;" width="205" x="96.5" y="266.5391"/><text fill="#000000" font-family="sans-serif" font-size="14" lengthAdjust="spacing" textLength="72" x="163" y="286.2129">Repository:</text><text fill="#000000" font-family="sans-serif" font-size="14" lengthAdjust="spacing" textLength="191" x="103.5" y="301.8535">SaleAnnouncementRepository</text><rect fill="#E3E3E3" height="29.6406" rx="2.5" ry="2.5" style="stroke:#181818;stroke-width:0.5;" width="137" x="594" y="266.5391"/><text fill="#000000" font-family="sans-serif" font-size="14" lengthAdjust="spacing" textLength="123" x="601" y="286.2129">SaleAnnouncement</text><rect fill="#FFFFFF" height="176.7344" style="stroke:#181818;stroke-width:1.0;" width="10" x="194" y="81.8047"/><rect fill="#FFFFFF" height="70.0469" style="stroke:#181818;stroke-width:1.0;" width="10" x="657.5" y="150.9688"/><polygon fill="#181818" points="182,77.8047,192,81.8047,182,85.8047,186,81.8047" style="stroke:#181818;stroke-width:1.0;"/><line style="stroke:#181818;stroke-width:1.0;" x1="0" x2="188" y1="81.8047" y2="81.8047"/><text fill="#000000" font-family="sans-serif" font-size="13" font-weight="bold" lengthAdjust="spacing" textLength="14" x="7" y="77.0498">22</text><text fill="#000000" font-family="sans-serif" font-size="13" lengthAdjust="spacing" textLength="157" x="25" y="77.0498">createSaleAnnouncement()</text><polygon fill="#181818" points="582,106.3281,592,110.3281,582,114.3281,586,110.3281" style="stroke:#181818;stroke-width:1.0;"/><line style="stroke:#181818;stroke-width:1.0;" x1="204" x2="588" y1="110.3281" y2="110.3281"/><text fill="#000000" font-family="sans-serif" font-size="13" font-weight="bold" lengthAdjust="spacing" textLength="14" x="211" y="105.5732">23</text><text fill="#000000" font-family="sans-serif" font-size="13" lengthAdjust="spacing" textLength="348" x="229" y="105.5732">create(property,commission,businessType,contractDuration)</text><rect fill="#E3E3E3" height="29.6406" rx="2.5" ry="2.5" style="stroke:#181818;stroke-width:0.5;" width="137" x="594" y="89.8047"/><text fill="#000000" font-family="sans-serif" font-size="14" lengthAdjust="spacing" textLength="123" x="601" y="109.4785">SaleAnnouncement</text><polygon fill="#181818" points="645.5,146.9688,655.5,150.9688,645.5,154.9688,649.5,150.9688" style="stroke:#181818;stroke-width:1.0;"/><line style="stroke:#181818;stroke-width:1.0;" x1="204" x2="651.5" y1="150.9688" y2="150.9688"/><text fill="#000000" font-family="sans-serif" font-size="13" font-weight="bold" lengthAdjust="spacing" textLength="14" x="211" y="146.2139">24</text><text fill="#000000" font-family="sans-serif" font-size="13" lengthAdjust="spacing" textLength="88" x="229" y="146.2139">setTodayDate()</text><line style="stroke:#181818;stroke-width:1.0;" x1="667.5" x2="709.5" y1="179.4922" y2="179.4922"/><line style="stroke:#181818;stroke-width:1.0;" x1="709.5" x2="709.5" y1="179.4922" y2="192.4922"/><line style="stroke:#181818;stroke-width:1.0;" x1="668.5" x2="709.5" y1="192.4922" y2="192.4922"/><polygon fill="#181818" points="678.5,188.4922,668.5,192.4922,678.5,196.4922,674.5,192.4922" style="stroke:#181818;stroke-width:1.0;"/><text fill="#000000" font-family="sans-serif" font-size="13" font-weight="bold" lengthAdjust="spacing" textLength="14" x="674.5" y="174.7373">25</text><text fill="#000000" font-family="sans-serif" font-size="13" lengthAdjust="spacing" textLength="88" x="692.5" y="174.7373">setTodayDate()</text><polygon fill="#181818" points="215,217.0156,205,221.0156,215,225.0156,211,221.0156" style="stroke:#181818;stroke-width:1.0;"/><line style="stroke:#181818;stroke-width:1.0;stroke-dasharray:2.0,2.0;" x1="209" x2="661.5" y1="221.0156" y2="221.0156"/><text fill="#000000" font-family="sans-serif" font-size="13" font-weight="bold" lengthAdjust="spacing" textLength="14" x="221" y="216.2607">26</text><text fill="#000000" font-family="sans-serif" font-size="13" lengthAdjust="spacing" textLength="111" x="239" y="216.2607">saleAnnouncement</text><polygon fill="#181818" points="11,245.5391,1,249.5391,11,253.5391,7,249.5391" style="stroke:#181818;stroke-width:1.0;"/><line style="stroke:#181818;stroke-width:1.0;stroke-dasharray:2.0,2.0;" x1="5" x2="193" y1="249.5391" y2="249.5391"/><text fill="#000000" font-family="sans-serif" font-size="13" font-weight="bold" lengthAdjust="spacing" textLength="14" x="17" y="244.7842">27</text><text fill="#000000" font-family="sans-serif" font-size="13" lengthAdjust="spacing" textLength="111" x="35" y="244.7842">saleAnnouncement</text><!--SRC=[ZP2nRiCm34HtVGMHAGdY9QDH52YGBsWoTc5arX5YKO98jV3VLq5hfpRg8XhlUEyeojLnn8GUVE1WBobu0asPZ8nEH7l5bexQTmI9h2AttUy1kM0JFXsty8wTa355LcTTH5POlL8CuZIaldxZ8tRqmXmoM_B4UZTNW08tkqXJm3mpJXhC6ZZxCoNOxqtrFEIX1fi8bURHzSQWLVTHhB4B5jx0-i5kjoDr7LE8bBJVsU2z4t61T-SiZadar4SgEcigJOUSK8kxURG5QY4zXGRxmwreEJVvnh_qEneUP7-d9kUKsI4NimqDcosEF5NLI8Q_sCPy0G00]--></g></svg>