<?xml version="1.0" encoding="us-ascii" standalone="no"?><svg xmlns="http://www.w3.org/2000/svg" xmlns:xlink="http://www.w3.org/1999/xlink" contentStyleType="text/css" height="497px" preserveAspectRatio="none" style="width:641px;height:497px;background:#FFFFFF;" version="1.1" viewBox="0 0 641 497" width="641.5px" zoomAndPan="magnify"><defs/><g><!--class PublishSaleAnnouncementUI--><g id="elem_PublishSaleAnnouncementUI"><rect codeLine="14" fill="#F1F1F1" height="24" id="PublishSaleAnnouncementUI" rx="1.25" ry="1.25" style="stroke:#181818;stroke-width:0.25;" width="106.5" x="192.5" y="3.5"/><ellipse cx="200" cy="11.5" fill="#ADD1B2" rx="5.5" ry="5.5" style="stroke:#181818;stroke-width:0.5;"/><path d="M201.3828,9.4375 Q201.4609,9.3281 201.5547,9.2734 Q201.6484,9.2188 201.7578,9.2188 Q201.9453,9.2188 202.0625,9.3516 Q202.1797,9.4766 202.1797,9.7813 L202.1797,10.5078 Q202.1797,10.8125 202.0625,10.9453 Q201.9453,11.0781 201.7578,11.0781 Q201.5859,11.0781 201.4844,10.9766 Q201.3828,10.8828 201.3281,10.625 Q201.3047,10.4453 201.2109,10.3516 Q201.0469,10.1641 200.7422,10.0547 Q200.4375,9.9453 200.125,9.9453 Q199.7422,9.9453 199.4219,10.1094 Q199.1094,10.2734 198.8594,10.6484 Q198.6172,11.0234 198.6172,11.5391 L198.6172,12.0859 Q198.6172,12.7031 199.0625,13.1172 Q199.5078,13.5234 200.3047,13.5234 Q200.7734,13.5234 201.1016,13.3984 Q201.2969,13.3203 201.5078,13.1016 Q201.6406,12.9688 201.7109,12.9297 Q201.7891,12.8906 201.8906,12.8906 Q202.0547,12.8906 202.1797,13.0234 Q202.3125,13.1484 202.3125,13.3203 Q202.3125,13.4922 202.1406,13.6953 Q201.8906,13.9844 201.4922,14.1484 Q200.9531,14.375 200.3047,14.375 Q199.5469,14.375 198.9453,14.0625 Q198.4531,13.8125 198.1094,13.2813 Q197.7656,12.7422 197.7656,12.1016 L197.7656,11.5234 Q197.7656,10.8594 198.0703,10.2891 Q198.3828,9.7109 198.9297,9.4063 Q199.4766,9.0938 200.0938,9.0938 Q200.4609,9.0938 200.7813,9.1797 Q201.1094,9.2578 201.3828,9.4375 Z " fill="#000000"/><text fill="#000000" font-family="sans-serif" font-size="7" lengthAdjust="spacing" textLength="90.5" x="207" y="13.9268">PublishSaleAnnouncementUI</text><line style="stroke:#181818;stroke-width:0.25;" x1="193" x2="298.5" y1="19.5" y2="19.5"/><line style="stroke:#181818;stroke-width:0.25;" x1="193" x2="298.5" y1="23.5" y2="23.5"/></g><!--class PublishSaleAnnouncementController--><g id="elem_PublishSaleAnnouncementController"><rect codeLine="18" fill="#F1F1F1" height="24" id="PublishSaleAnnouncementController" rx="1.25" ry="1.25" style="stroke:#181818;stroke-width:0.25;" width="131.5" x="316.5" y="3.5"/><ellipse cx="324" cy="11.5" fill="#ADD1B2" rx="5.5" ry="5.5" style="stroke:#181818;stroke-width:0.5;"/><path d="M325.3828,9.4375 Q325.4609,9.3281 325.5547,9.2734 Q325.6484,9.2188 325.7578,9.2188 Q325.9453,9.2188 326.0625,9.3516 Q326.1797,9.4766 326.1797,9.7813 L326.1797,10.5078 Q326.1797,10.8125 326.0625,10.9453 Q325.9453,11.0781 325.7578,11.0781 Q325.5859,11.0781 325.4844,10.9766 Q325.3828,10.8828 325.3281,10.625 Q325.3047,10.4453 325.2109,10.3516 Q325.0469,10.1641 324.7422,10.0547 Q324.4375,9.9453 324.125,9.9453 Q323.7422,9.9453 323.4219,10.1094 Q323.1094,10.2734 322.8594,10.6484 Q322.6172,11.0234 322.6172,11.5391 L322.6172,12.0859 Q322.6172,12.7031 323.0625,13.1172 Q323.5078,13.5234 324.3047,13.5234 Q324.7734,13.5234 325.1016,13.3984 Q325.2969,13.3203 325.5078,13.1016 Q325.6406,12.9688 325.7109,12.9297 Q325.7891,12.8906 325.8906,12.8906 Q326.0547,12.8906 326.1797,13.0234 Q326.3125,13.1484 326.3125,13.3203 Q326.3125,13.4922 326.1406,13.6953 Q325.8906,13.9844 325.4922,14.1484 Q324.9531,14.375 324.3047,14.375 Q323.5469,14.375 322.9453,14.0625 Q322.4531,13.8125 322.1094,13.2813 Q321.7656,12.7422 321.7656,12.1016 L321.7656,11.5234 Q321.7656,10.8594 322.0703,10.2891 Q322.3828,9.7109 322.9297,9.4063 Q323.4766,9.0938 324.0938,9.0938 Q324.4609,9.0938 324.7813,9.1797 Q325.1094,9.2578 325.3828,9.4375 Z " fill="#000000"/><text fill="#000000" font-family="sans-serif" font-size="7" lengthAdjust="spacing" textLength="115.5" x="331" y="13.9268">PublishSaleAnnouncementController</text><line style="stroke:#181818;stroke-width:0.25;" x1="317" x2="447.5" y1="19.5" y2="19.5"/><line style="stroke:#181818;stroke-width:0.25;" x1="317" x2="447.5" y1="23.5" y2="23.5"/></g><!--class SaleAnnouncement--><g id="elem_SaleAnnouncement"><rect codeLine="24" fill="#F1F1F1" height="31.8203" id="SaleAnnouncement" rx="1.25" ry="1.25" style="stroke:#181818;stroke-width:0.25;" width="77.5" x="295.5" y="162.75"/><ellipse cx="303" cy="170.75" fill="#ADD1B2" rx="5.5" ry="5.5" style="stroke:#181818;stroke-width:0.5;"/><path d="M304.3828,168.6875 Q304.4609,168.5781 304.5547,168.5234 Q304.6484,168.4688 304.7578,168.4688 Q304.9453,168.4688 305.0625,168.6016 Q305.1797,168.7266 305.1797,169.0313 L305.1797,169.7578 Q305.1797,170.0625 305.0625,170.1953 Q304.9453,170.3281 304.7578,170.3281 Q304.5859,170.3281 304.4844,170.2266 Q304.3828,170.1328 304.3281,169.875 Q304.3047,169.6953 304.2109,169.6016 Q304.0469,169.4141 303.7422,169.3047 Q303.4375,169.1953 303.125,169.1953 Q302.7422,169.1953 302.4219,169.3594 Q302.1094,169.5234 301.8594,169.8984 Q301.6172,170.2734 301.6172,170.7891 L301.6172,171.3359 Q301.6172,171.9531 302.0625,172.3672 Q302.5078,172.7734 303.3047,172.7734 Q303.7734,172.7734 304.1016,172.6484 Q304.2969,172.5703 304.5078,172.3516 Q304.6406,172.2188 304.7109,172.1797 Q304.7891,172.1406 304.8906,172.1406 Q305.0547,172.1406 305.1797,172.2734 Q305.3125,172.3984 305.3125,172.5703 Q305.3125,172.7422 305.1406,172.9453 Q304.8906,173.2344 304.4922,173.3984 Q303.9531,173.625 303.3047,173.625 Q302.5469,173.625 301.9453,173.3125 Q301.4531,173.0625 301.1094,172.5313 Q300.7656,171.9922 300.7656,171.3516 L300.7656,170.7734 Q300.7656,170.1094 301.0703,169.5391 Q301.3828,168.9609 301.9297,168.6563 Q302.4766,168.3438 303.0938,168.3438 Q303.4609,168.3438 303.7813,168.4297 Q304.1094,168.5078 304.3828,168.6875 Z " fill="#000000"/><text fill="#000000" font-family="sans-serif" font-size="7" lengthAdjust="spacing" textLength="61.5" x="310" y="173.1768">SaleAnnouncement</text><line style="stroke:#181818;stroke-width:0.25;" x1="296" x2="372.5" y1="178.75" y2="178.75"/><text fill="#000000" font-family="sans-serif" font-size="7" lengthAdjust="spacing" textLength="37" x="298.5" y="187.0869">-String date</text><line style="stroke:#181818;stroke-width:0.25;" x1="296" x2="372.5" y1="190.5703" y2="190.5703"/></g><!--class Commission--><g id="elem_Commission"><rect codeLine="30" fill="#F1F1F1" height="39.6406" id="Commission" rx="1.25" ry="1.25" style="stroke:#181818;stroke-width:0.25;" width="88.5" x="87.5" y="357.25"/><ellipse cx="110.625" cy="365.25" fill="#ADD1B2" rx="5.5" ry="5.5" style="stroke:#181818;stroke-width:0.5;"/><path d="M112.0078,363.1875 Q112.0859,363.0781 112.1797,363.0234 Q112.2734,362.9688 112.3828,362.9688 Q112.5703,362.9688 112.6875,363.1016 Q112.8047,363.2266 112.8047,363.5313 L112.8047,364.2578 Q112.8047,364.5625 112.6875,364.6953 Q112.5703,364.8281 112.3828,364.8281 Q112.2109,364.8281 112.1094,364.7266 Q112.0078,364.6328 111.9531,364.375 Q111.9297,364.1953 111.8359,364.1016 Q111.6719,363.9141 111.3672,363.8047 Q111.0625,363.6953 110.75,363.6953 Q110.3672,363.6953 110.0469,363.8594 Q109.7344,364.0234 109.4844,364.3984 Q109.2422,364.7734 109.2422,365.2891 L109.2422,365.8359 Q109.2422,366.4531 109.6875,366.8672 Q110.1328,367.2734 110.9297,367.2734 Q111.3984,367.2734 111.7266,367.1484 Q111.9219,367.0703 112.1328,366.8516 Q112.2656,366.7188 112.3359,366.6797 Q112.4141,366.6406 112.5156,366.6406 Q112.6797,366.6406 112.8047,366.7734 Q112.9375,366.8984 112.9375,367.0703 Q112.9375,367.2422 112.7656,367.4453 Q112.5156,367.7344 112.1172,367.8984 Q111.5781,368.125 110.9297,368.125 Q110.1719,368.125 109.5703,367.8125 Q109.0781,367.5625 108.7344,367.0313 Q108.3906,366.4922 108.3906,365.8516 L108.3906,365.2734 Q108.3906,364.6094 108.6953,364.0391 Q109.0078,363.4609 109.5547,363.1563 Q110.1016,362.8438 110.7188,362.8438 Q111.0859,362.8438 111.4063,362.9297 Q111.7344,363.0078 112.0078,363.1875 Z " fill="#000000"/><text fill="#000000" font-family="sans-serif" font-size="7" lengthAdjust="spacing" textLength="38" x="120.875" y="367.6768">Commission</text><line style="stroke:#181818;stroke-width:0.25;" x1="88" x2="175.5" y1="373.25" y2="373.25"/><text fill="#000000" font-family="sans-serif" font-size="7" lengthAdjust="spacing" textLength="80.5" x="90.5" y="381.5869">-double commissionValue</text><text fill="#000000" font-family="sans-serif" font-size="7" lengthAdjust="spacing" textLength="82.5" x="90.5" y="389.4072">-boolean commissionType</text><line style="stroke:#181818;stroke-width:0.25;" x1="88" x2="175.5" y1="392.8906" y2="392.8906"/></g><!--class Employee--><g id="elem_Employee"><rect codeLine="34" fill="#F1F1F1" height="63.1016" id="Employee" rx="1.25" ry="1.25" style="stroke:#181818;stroke-width:0.25;" width="86" x="67.75" y="244.5"/><ellipse cx="93.125" cy="252.5" fill="#ADD1B2" rx="5.5" ry="5.5" style="stroke:#181818;stroke-width:0.5;"/><path d="M94.5078,250.4375 Q94.5859,250.3281 94.6797,250.2734 Q94.7734,250.2188 94.8828,250.2188 Q95.0703,250.2188 95.1875,250.3516 Q95.3047,250.4766 95.3047,250.7813 L95.3047,251.5078 Q95.3047,251.8125 95.1875,251.9453 Q95.0703,252.0781 94.8828,252.0781 Q94.7109,252.0781 94.6094,251.9766 Q94.5078,251.8828 94.4531,251.625 Q94.4297,251.4453 94.3359,251.3516 Q94.1719,251.1641 93.8672,251.0547 Q93.5625,250.9453 93.25,250.9453 Q92.8672,250.9453 92.5469,251.1094 Q92.2344,251.2734 91.9844,251.6484 Q91.7422,252.0234 91.7422,252.5391 L91.7422,253.0859 Q91.7422,253.7031 92.1875,254.1172 Q92.6328,254.5234 93.4297,254.5234 Q93.8984,254.5234 94.2266,254.3984 Q94.4219,254.3203 94.6328,254.1016 Q94.7656,253.9688 94.8359,253.9297 Q94.9141,253.8906 95.0156,253.8906 Q95.1797,253.8906 95.3047,254.0234 Q95.4375,254.1484 95.4375,254.3203 Q95.4375,254.4922 95.2656,254.6953 Q95.0156,254.9844 94.6172,255.1484 Q94.0781,255.375 93.4297,255.375 Q92.6719,255.375 92.0703,255.0625 Q91.5781,254.8125 91.2344,254.2813 Q90.8906,253.7422 90.8906,253.1016 L90.8906,252.5234 Q90.8906,251.8594 91.1953,251.2891 Q91.5078,250.7109 92.0547,250.4063 Q92.6016,250.0938 93.2188,250.0938 Q93.5859,250.0938 93.9063,250.1797 Q94.2344,250.2578 94.5078,250.4375 Z " fill="#000000"/><text fill="#000000" font-family="sans-serif" font-size="7" lengthAdjust="spacing" textLength="31" x="103.375" y="254.9268">Employee</text><line style="stroke:#181818;stroke-width:0.25;" x1="68.25" x2="153.25" y1="260.5" y2="260.5"/><text fill="#000000" font-family="sans-serif" font-size="7" lengthAdjust="spacing" textLength="40.5" x="70.75" y="268.8369">-String name</text><text fill="#000000" font-family="sans-serif" font-size="7" lengthAdjust="spacing" textLength="80" x="70.75" y="276.6572">-String passportCardNum</text><text fill="#000000" font-family="sans-serif" font-size="7" lengthAdjust="spacing" textLength="56.5" x="70.75" y="284.4775">-String taxNumber</text><text fill="#000000" font-family="sans-serif" font-size="7" lengthAdjust="spacing" textLength="67.5" x="70.75" y="292.2979">-String phoneNumber</text><text fill="#000000" font-family="sans-serif" font-size="7" lengthAdjust="spacing" textLength="65.5" x="70.75" y="300.1182">-String emailAddress</text><line style="stroke:#181818;stroke-width:0.25;" x1="68.25" x2="153.25" y1="303.6016" y2="303.6016"/></g><!--class Agency--><g id="elem_Agency"><rect codeLine="41" fill="#F1F1F1" height="55.2813" id="Agency" rx="1.25" ry="1.25" style="stroke:#181818;stroke-width:0.25;" width="75.5" x="129" y="151"/><ellipse cx="152.875" cy="159" fill="#ADD1B2" rx="5.5" ry="5.5" style="stroke:#181818;stroke-width:0.5;"/><path d="M154.2578,156.9375 Q154.3359,156.8281 154.4297,156.7734 Q154.5234,156.7188 154.6328,156.7188 Q154.8203,156.7188 154.9375,156.8516 Q155.0547,156.9766 155.0547,157.2813 L155.0547,158.0078 Q155.0547,158.3125 154.9375,158.4453 Q154.8203,158.5781 154.6328,158.5781 Q154.4609,158.5781 154.3594,158.4766 Q154.2578,158.3828 154.2031,158.125 Q154.1797,157.9453 154.0859,157.8516 Q153.9219,157.6641 153.6172,157.5547 Q153.3125,157.4453 153,157.4453 Q152.6172,157.4453 152.2969,157.6094 Q151.9844,157.7734 151.7344,158.1484 Q151.4922,158.5234 151.4922,159.0391 L151.4922,159.5859 Q151.4922,160.2031 151.9375,160.6172 Q152.3828,161.0234 153.1797,161.0234 Q153.6484,161.0234 153.9766,160.8984 Q154.1719,160.8203 154.3828,160.6016 Q154.5156,160.4688 154.5859,160.4297 Q154.6641,160.3906 154.7656,160.3906 Q154.9297,160.3906 155.0547,160.5234 Q155.1875,160.6484 155.1875,160.8203 Q155.1875,160.9922 155.0156,161.1953 Q154.7656,161.4844 154.3672,161.6484 Q153.8281,161.875 153.1797,161.875 Q152.4219,161.875 151.8203,161.5625 Q151.3281,161.3125 150.9844,160.7813 Q150.6406,160.2422 150.6406,159.6016 L150.6406,159.0234 Q150.6406,158.3594 150.9453,157.7891 Q151.2578,157.2109 151.8047,156.9063 Q152.3516,156.5938 152.9688,156.5938 Q153.3359,156.5938 153.6563,156.6797 Q153.9844,156.7578 154.2578,156.9375 Z " fill="#000000"/><text fill="#000000" font-family="sans-serif" font-size="7" lengthAdjust="spacing" textLength="23.5" x="163.125" y="161.4268">Agency</text><line style="stroke:#181818;stroke-width:0.25;" x1="129.5" x2="204" y1="167" y2="167"/><text fill="#000000" font-family="sans-serif" font-size="7" lengthAdjust="spacing" textLength="34" x="132" y="175.3369">-Integer id;</text><text fill="#000000" font-family="sans-serif" font-size="7" lengthAdjust="spacing" textLength="61.5" x="132" y="183.1572">-String designation;</text><text fill="#000000" font-family="sans-serif" font-size="7" lengthAdjust="spacing" textLength="67.5" x="132" y="190.9775">-String emailAddress;</text><text fill="#000000" font-family="sans-serif" font-size="7" lengthAdjust="spacing" textLength="69.5" x="132" y="198.7979">-String phoneNumber;</text><line style="stroke:#181818;stroke-width:0.25;" x1="129.5" x2="204" y1="202.2813" y2="202.2813"/></g><!--class Role--><g id="elem_Role"><rect codeLine="47" fill="#F1F1F1" height="31.8203" id="Role" rx="1.25" ry="1.25" style="stroke:#181818;stroke-width:0.25;" width="66.5" x="3.5" y="361"/><ellipse cx="27.375" cy="369" fill="#ADD1B2" rx="5.5" ry="5.5" style="stroke:#181818;stroke-width:0.5;"/><path d="M28.7578,366.9375 Q28.8359,366.8281 28.9297,366.7734 Q29.0234,366.7188 29.1328,366.7188 Q29.3203,366.7188 29.4375,366.8516 Q29.5547,366.9766 29.5547,367.2813 L29.5547,368.0078 Q29.5547,368.3125 29.4375,368.4453 Q29.3203,368.5781 29.1328,368.5781 Q28.9609,368.5781 28.8594,368.4766 Q28.7578,368.3828 28.7031,368.125 Q28.6797,367.9453 28.5859,367.8516 Q28.4219,367.6641 28.1172,367.5547 Q27.8125,367.4453 27.5,367.4453 Q27.1172,367.4453 26.7969,367.6094 Q26.4844,367.7734 26.2344,368.1484 Q25.9922,368.5234 25.9922,369.0391 L25.9922,369.5859 Q25.9922,370.2031 26.4375,370.6172 Q26.8828,371.0234 27.6797,371.0234 Q28.1484,371.0234 28.4766,370.8984 Q28.6719,370.8203 28.8828,370.6016 Q29.0156,370.4688 29.0859,370.4297 Q29.1641,370.3906 29.2656,370.3906 Q29.4297,370.3906 29.5547,370.5234 Q29.6875,370.6484 29.6875,370.8203 Q29.6875,370.9922 29.5156,371.1953 Q29.2656,371.4844 28.8672,371.6484 Q28.3281,371.875 27.6797,371.875 Q26.9219,371.875 26.3203,371.5625 Q25.8281,371.3125 25.4844,370.7813 Q25.1406,370.2422 25.1406,369.6016 L25.1406,369.0234 Q25.1406,368.3594 25.4453,367.7891 Q25.7578,367.2109 26.3047,366.9063 Q26.8516,366.5938 27.4688,366.5938 Q27.8359,366.5938 28.1563,366.6797 Q28.4844,366.7578 28.7578,366.9375 Z " fill="#000000"/><text fill="#000000" font-family="sans-serif" font-size="7" lengthAdjust="spacing" textLength="14.5" x="37.625" y="371.4268">Role</text><line style="stroke:#181818;stroke-width:0.25;" x1="4" x2="69.5" y1="377" y2="377"/><text fill="#000000" font-family="sans-serif" font-size="7" lengthAdjust="spacing" textLength="60.5" x="6.5" y="385.3369">-String chosenRole</text><line style="stroke:#181818;stroke-width:0.25;" x1="4" x2="69.5" y1="388.8203" y2="388.8203"/></g><!--class SaleAnnouncementRepository--><g id="elem_SaleAnnouncementRepository"><rect codeLine="51" fill="#F1F1F1" height="31.8203" id="SaleAnnouncementRepository" rx="1.25" ry="1.25" style="stroke:#181818;stroke-width:0.25;" width="111.5" x="189" y="73.25"/><ellipse cx="196.5" cy="81.25" fill="#ADD1B2" rx="5.5" ry="5.5" style="stroke:#181818;stroke-width:0.5;"/><path d="M197.8828,79.1875 Q197.9609,79.0781 198.0547,79.0234 Q198.1484,78.9688 198.2578,78.9688 Q198.4453,78.9688 198.5625,79.1016 Q198.6797,79.2266 198.6797,79.5313 L198.6797,80.2578 Q198.6797,80.5625 198.5625,80.6953 Q198.4453,80.8281 198.2578,80.8281 Q198.0859,80.8281 197.9844,80.7266 Q197.8828,80.6328 197.8281,80.375 Q197.8047,80.1953 197.7109,80.1016 Q197.5469,79.9141 197.2422,79.8047 Q196.9375,79.6953 196.625,79.6953 Q196.2422,79.6953 195.9219,79.8594 Q195.6094,80.0234 195.3594,80.3984 Q195.1172,80.7734 195.1172,81.2891 L195.1172,81.8359 Q195.1172,82.4531 195.5625,82.8672 Q196.0078,83.2734 196.8047,83.2734 Q197.2734,83.2734 197.6016,83.1484 Q197.7969,83.0703 198.0078,82.8516 Q198.1406,82.7188 198.2109,82.6797 Q198.2891,82.6406 198.3906,82.6406 Q198.5547,82.6406 198.6797,82.7734 Q198.8125,82.8984 198.8125,83.0703 Q198.8125,83.2422 198.6406,83.4453 Q198.3906,83.7344 197.9922,83.8984 Q197.4531,84.125 196.8047,84.125 Q196.0469,84.125 195.4453,83.8125 Q194.9531,83.5625 194.6094,83.0313 Q194.2656,82.4922 194.2656,81.8516 L194.2656,81.2734 Q194.2656,80.6094 194.5703,80.0391 Q194.8828,79.4609 195.4297,79.1563 Q195.9766,78.8438 196.5938,78.8438 Q196.9609,78.8438 197.2813,78.9297 Q197.6094,79.0078 197.8828,79.1875 Z " fill="#000000"/><text fill="#000000" font-family="sans-serif" font-size="7" lengthAdjust="spacing" textLength="95.5" x="203.5" y="83.6768">SaleAnnouncementRepository</text><line style="stroke:#181818;stroke-width:0.25;" x1="189.5" x2="300" y1="89.25" y2="89.25"/><text fill="#000000" font-family="sans-serif" font-size="7" lengthAdjust="spacing" textLength="77" x="192" y="97.5869">-List SaleAnnouncement</text><line style="stroke:#181818;stroke-width:0.25;" x1="189.5" x2="300" y1="101.0703" y2="101.0703"/></g><!--class EmployeeRepository--><g id="elem_EmployeeRepository"><rect codeLine="56" fill="#F1F1F1" height="47.4609" id="EmployeeRepository" rx="1.25" ry="1.25" style="stroke:#181818;stroke-width:0.25;" width="88.5" x="451" y="65.5"/><ellipse cx="461.875" cy="73.5" fill="#ADD1B2" rx="5.5" ry="5.5" style="stroke:#181818;stroke-width:0.5;"/><path d="M463.2578,71.4375 Q463.3359,71.3281 463.4297,71.2734 Q463.5234,71.2188 463.6328,71.2188 Q463.8203,71.2188 463.9375,71.3516 Q464.0547,71.4766 464.0547,71.7813 L464.0547,72.5078 Q464.0547,72.8125 463.9375,72.9453 Q463.8203,73.0781 463.6328,73.0781 Q463.4609,73.0781 463.3594,72.9766 Q463.2578,72.8828 463.2031,72.625 Q463.1797,72.4453 463.0859,72.3516 Q462.9219,72.1641 462.6172,72.0547 Q462.3125,71.9453 462,71.9453 Q461.6172,71.9453 461.2969,72.1094 Q460.9844,72.2734 460.7344,72.6484 Q460.4922,73.0234 460.4922,73.5391 L460.4922,74.0859 Q460.4922,74.7031 460.9375,75.1172 Q461.3828,75.5234 462.1797,75.5234 Q462.6484,75.5234 462.9766,75.3984 Q463.1719,75.3203 463.3828,75.1016 Q463.5156,74.9688 463.5859,74.9297 Q463.6641,74.8906 463.7656,74.8906 Q463.9297,74.8906 464.0547,75.0234 Q464.1875,75.1484 464.1875,75.3203 Q464.1875,75.4922 464.0156,75.6953 Q463.7656,75.9844 463.3672,76.1484 Q462.8281,76.375 462.1797,76.375 Q461.4219,76.375 460.8203,76.0625 Q460.3281,75.8125 459.9844,75.2813 Q459.6406,74.7422 459.6406,74.1016 L459.6406,73.5234 Q459.6406,72.8594 459.9453,72.2891 Q460.2578,71.7109 460.8047,71.4063 Q461.3516,71.0938 461.9688,71.0938 Q462.3359,71.0938 462.6563,71.1797 Q462.9844,71.2578 463.2578,71.4375 Z " fill="#000000"/><text fill="#000000" font-family="sans-serif" font-size="7" lengthAdjust="spacing" textLength="65" x="469.625" y="75.9268">EmployeeRepository</text><line style="stroke:#181818;stroke-width:0.25;" x1="451.5" x2="539" y1="81.5" y2="81.5"/><text fill="#000000" font-family="sans-serif" font-size="7" lengthAdjust="spacing" textLength="46.5" x="454" y="89.8369">-List Employee</text><line style="stroke:#181818;stroke-width:0.25;" x1="451.5" x2="539" y1="93.3203" y2="93.3203"/><text fill="#000000" font-family="sans-serif" font-size="7" lengthAdjust="spacing" textLength="82.5" x="454" y="101.6572">+getAgentPhoneNumber()</text><text fill="#000000" font-family="sans-serif" font-size="7" lengthAdjust="spacing" textLength="55.5" x="454" y="109.4775">+getAgentName()</text></g><!--class Property--><g id="elem_Property"><rect codeLine="62" fill="#F1F1F1" height="55.2813" id="Property" rx="1.25" ry="1.25" style="stroke:#181818;stroke-width:0.25;" width="65" x="391.75" y="248.25"/><ellipse cx="409.15" cy="256.25" fill="#ADD1B2" rx="5.5" ry="5.5" style="stroke:#181818;stroke-width:0.5;"/><path d="M410.5328,254.1875 Q410.6109,254.0781 410.7047,254.0234 Q410.7984,253.9688 410.9078,253.9688 Q411.0953,253.9688 411.2125,254.1016 Q411.3297,254.2266 411.3297,254.5313 L411.3297,255.2578 Q411.3297,255.5625 411.2125,255.6953 Q411.0953,255.8281 410.9078,255.8281 Q410.7359,255.8281 410.6344,255.7266 Q410.5328,255.6328 410.4781,255.375 Q410.4547,255.1953 410.3609,255.1016 Q410.1969,254.9141 409.8922,254.8047 Q409.5875,254.6953 409.275,254.6953 Q408.8922,254.6953 408.5719,254.8594 Q408.2594,255.0234 408.0094,255.3984 Q407.7672,255.7734 407.7672,256.2891 L407.7672,256.8359 Q407.7672,257.4531 408.2125,257.8672 Q408.6578,258.2734 409.4547,258.2734 Q409.9234,258.2734 410.2516,258.1484 Q410.4469,258.0703 410.6578,257.8516 Q410.7906,257.7188 410.8609,257.6797 Q410.9391,257.6406 411.0406,257.6406 Q411.2047,257.6406 411.3297,257.7734 Q411.4625,257.8984 411.4625,258.0703 Q411.4625,258.2422 411.2906,258.4453 Q411.0406,258.7344 410.6422,258.8984 Q410.1031,259.125 409.4547,259.125 Q408.6969,259.125 408.0953,258.8125 Q407.6031,258.5625 407.2594,258.0313 Q406.9156,257.4922 406.9156,256.8516 L406.9156,256.2734 Q406.9156,255.6094 407.2203,255.0391 Q407.5328,254.4609 408.0797,254.1563 Q408.6266,253.8438 409.2438,253.8438 Q409.6109,253.8438 409.9313,253.9297 Q410.2594,254.0078 410.5328,254.1875 Z " fill="#000000"/><text fill="#000000" font-family="sans-serif" font-size="7" lengthAdjust="spacing" textLength="27" x="418.35" y="258.6768">Property</text><line style="stroke:#181818;stroke-width:0.25;" x1="392.25" x2="456.25" y1="264.25" y2="264.25"/><text fill="#000000" font-family="sans-serif" font-size="7" lengthAdjust="spacing" textLength="26.5" x="394.75" y="272.5869">-int area</text><text fill="#000000" font-family="sans-serif" font-size="7" lengthAdjust="spacing" textLength="44" x="394.75" y="280.4072">-int cityCenter</text><text fill="#000000" font-family="sans-serif" font-size="7" lengthAdjust="spacing" textLength="27.5" x="394.75" y="288.2275">-int price</text><text fill="#000000" font-family="sans-serif" font-size="7" lengthAdjust="spacing" textLength="59" x="394.75" y="296.0479">-String ownerEmail</text><line style="stroke:#181818;stroke-width:0.25;" x1="392.25" x2="456.25" y1="299.5313" y2="299.5313"/></g><!--class BusinessType--><g id="elem_BusinessType"><rect codeLine="70" fill="#F1F1F1" height="31.8203" id="BusinessType" rx="1.25" ry="1.25" style="stroke:#181818;stroke-width:0.25;" width="80" x="294.25" y="260"/><ellipse cx="310.525" cy="268" fill="#ADD1B2" rx="5.5" ry="5.5" style="stroke:#181818;stroke-width:0.5;"/><path d="M311.9078,265.9375 Q311.9859,265.8281 312.0797,265.7734 Q312.1734,265.7188 312.2828,265.7188 Q312.4703,265.7188 312.5875,265.8516 Q312.7047,265.9766 312.7047,266.2813 L312.7047,267.0078 Q312.7047,267.3125 312.5875,267.4453 Q312.4703,267.5781 312.2828,267.5781 Q312.1109,267.5781 312.0094,267.4766 Q311.9078,267.3828 311.8531,267.125 Q311.8297,266.9453 311.7359,266.8516 Q311.5719,266.6641 311.2672,266.5547 Q310.9625,266.4453 310.65,266.4453 Q310.2672,266.4453 309.9469,266.6094 Q309.6344,266.7734 309.3844,267.1484 Q309.1422,267.5234 309.1422,268.0391 L309.1422,268.5859 Q309.1422,269.2031 309.5875,269.6172 Q310.0328,270.0234 310.8297,270.0234 Q311.2984,270.0234 311.6266,269.8984 Q311.8219,269.8203 312.0328,269.6016 Q312.1656,269.4688 312.2359,269.4297 Q312.3141,269.3906 312.4156,269.3906 Q312.5797,269.3906 312.7047,269.5234 Q312.8375,269.6484 312.8375,269.8203 Q312.8375,269.9922 312.6656,270.1953 Q312.4156,270.4844 312.0172,270.6484 Q311.4781,270.875 310.8297,270.875 Q310.0719,270.875 309.4703,270.5625 Q308.9781,270.3125 308.6344,269.7813 Q308.2906,269.2422 308.2906,268.6016 L308.2906,268.0234 Q308.2906,267.3594 308.5953,266.7891 Q308.9078,266.2109 309.4547,265.9063 Q310.0016,265.5938 310.6188,265.5938 Q310.9859,265.5938 311.3063,265.6797 Q311.6344,265.7578 311.9078,265.9375 Z " fill="#000000"/><text fill="#000000" font-family="sans-serif" font-size="7" lengthAdjust="spacing" textLength="44.5" x="319.475" y="270.4268">BusinessType</text><line style="stroke:#181818;stroke-width:0.25;" x1="294.75" x2="373.75" y1="276" y2="276"/><text fill="#000000" font-family="sans-serif" font-size="7" lengthAdjust="spacing" textLength="74" x="297.25" y="284.3369">-boolean businessType</text><line style="stroke:#181818;stroke-width:0.25;" x1="294.75" x2="373.75" y1="287.8203" y2="287.8203"/></g><!--class Dwelling--><g id="elem_Dwelling"><rect codeLine="75" fill="#F1F1F1" height="47.4609" id="Dwelling" rx="1.25" ry="1.25" style="stroke:#181818;stroke-width:0.25;" width="79" x="384.75" y="353.25"/><ellipse cx="409.125" cy="361.25" fill="#ADD1B2" rx="5.5" ry="5.5" style="stroke:#181818;stroke-width:0.5;"/><path d="M410.5078,359.1875 Q410.5859,359.0781 410.6797,359.0234 Q410.7734,358.9688 410.8828,358.9688 Q411.0703,358.9688 411.1875,359.1016 Q411.3047,359.2266 411.3047,359.5313 L411.3047,360.2578 Q411.3047,360.5625 411.1875,360.6953 Q411.0703,360.8281 410.8828,360.8281 Q410.7109,360.8281 410.6094,360.7266 Q410.5078,360.6328 410.4531,360.375 Q410.4297,360.1953 410.3359,360.1016 Q410.1719,359.9141 409.8672,359.8047 Q409.5625,359.6953 409.25,359.6953 Q408.8672,359.6953 408.5469,359.8594 Q408.2344,360.0234 407.9844,360.3984 Q407.7422,360.7734 407.7422,361.2891 L407.7422,361.8359 Q407.7422,362.4531 408.1875,362.8672 Q408.6328,363.2734 409.4297,363.2734 Q409.8984,363.2734 410.2266,363.1484 Q410.4219,363.0703 410.6328,362.8516 Q410.7656,362.7188 410.8359,362.6797 Q410.9141,362.6406 411.0156,362.6406 Q411.1797,362.6406 411.3047,362.7734 Q411.4375,362.8984 411.4375,363.0703 Q411.4375,363.2422 411.2656,363.4453 Q411.0156,363.7344 410.6172,363.8984 Q410.0781,364.125 409.4297,364.125 Q408.6719,364.125 408.0703,363.8125 Q407.5781,363.5625 407.2344,363.0313 Q406.8906,362.4922 406.8906,361.8516 L406.8906,361.2734 Q406.8906,360.6094 407.1953,360.0391 Q407.5078,359.4609 408.0547,359.1563 Q408.6016,358.8438 409.2188,358.8438 Q409.5859,358.8438 409.9063,358.9297 Q410.2344,359.0078 410.5078,359.1875 Z " fill="#000000"/><text fill="#000000" font-family="sans-serif" font-size="7" lengthAdjust="spacing" textLength="26" x="419.375" y="363.6768">Dwelling</text><line style="stroke:#181818;stroke-width:0.25;" x1="385.25" x2="463.25" y1="369.25" y2="369.25"/><text fill="#000000" font-family="sans-serif" font-size="7" lengthAdjust="spacing" textLength="57.5" x="387.75" y="377.5869">-int numBedrooms</text><text fill="#000000" font-family="sans-serif" font-size="7" lengthAdjust="spacing" textLength="59.5" x="387.75" y="385.4072">-int numBathrooms</text><text fill="#000000" font-family="sans-serif" font-size="7" lengthAdjust="spacing" textLength="73" x="387.75" y="393.2275">-int numParkingSpaces</text><line style="stroke:#181818;stroke-width:0.25;" x1="385.25" x2="463.25" y1="396.7109" y2="396.7109"/></g><!--class House--><g id="elem_House"><rect codeLine="81" fill="#F1F1F1" height="47.4609" id="House" rx="1.25" ry="1.25" style="stroke:#181818;stroke-width:0.25;" width="82.5" x="383" y="446.5"/><ellipse cx="412.125" cy="454.5" fill="#ADD1B2" rx="5.5" ry="5.5" style="stroke:#181818;stroke-width:0.5;"/><path d="M413.5078,452.4375 Q413.5859,452.3281 413.6797,452.2734 Q413.7734,452.2188 413.8828,452.2188 Q414.0703,452.2188 414.1875,452.3516 Q414.3047,452.4766 414.3047,452.7813 L414.3047,453.5078 Q414.3047,453.8125 414.1875,453.9453 Q414.0703,454.0781 413.8828,454.0781 Q413.7109,454.0781 413.6094,453.9766 Q413.5078,453.8828 413.4531,453.625 Q413.4297,453.4453 413.3359,453.3516 Q413.1719,453.1641 412.8672,453.0547 Q412.5625,452.9453 412.25,452.9453 Q411.8672,452.9453 411.5469,453.1094 Q411.2344,453.2734 410.9844,453.6484 Q410.7422,454.0234 410.7422,454.5391 L410.7422,455.0859 Q410.7422,455.7031 411.1875,456.1172 Q411.6328,456.5234 412.4297,456.5234 Q412.8984,456.5234 413.2266,456.3984 Q413.4219,456.3203 413.6328,456.1016 Q413.7656,455.9688 413.8359,455.9297 Q413.9141,455.8906 414.0156,455.8906 Q414.1797,455.8906 414.3047,456.0234 Q414.4375,456.1484 414.4375,456.3203 Q414.4375,456.4922 414.2656,456.6953 Q414.0156,456.9844 413.6172,457.1484 Q413.0781,457.375 412.4297,457.375 Q411.6719,457.375 411.0703,457.0625 Q410.5781,456.8125 410.2344,456.2813 Q409.8906,455.7422 409.8906,455.1016 L409.8906,454.5234 Q409.8906,453.8594 410.1953,453.2891 Q410.5078,452.7109 411.0547,452.4063 Q411.6016,452.0938 412.2188,452.0938 Q412.5859,452.0938 412.9063,452.1797 Q413.2344,452.2578 413.5078,452.4375 Z " fill="#000000"/><text fill="#000000" font-family="sans-serif" font-size="7" lengthAdjust="spacing" textLength="20" x="422.375" y="456.9268">House</text><line style="stroke:#181818;stroke-width:0.25;" x1="383.5" x2="465" y1="462.5" y2="462.5"/><text fill="#000000" font-family="sans-serif" font-size="7" lengthAdjust="spacing" textLength="61" x="386" y="470.8369">-boolean basement</text><text fill="#000000" font-family="sans-serif" font-size="7" lengthAdjust="spacing" textLength="76.5" x="386" y="478.6572">-boolean inhabitableLoft</text><text fill="#000000" font-family="sans-serif" font-size="7" lengthAdjust="spacing" textLength="64" x="386" y="486.4775">-String sunExposure</text><line style="stroke:#181818;stroke-width:0.25;" x1="383.5" x2="465" y1="489.9609" y2="489.9609"/></g><!--class PropertyType--><g id="elem_PropertyType"><rect codeLine="88" fill="#F1F1F1" height="31.8203" id="PropertyType" rx="1.25" ry="1.25" style="stroke:#181818;stroke-width:0.25;" width="60.5" x="481.5" y="361"/><ellipse cx="489.675" cy="369" fill="#ADD1B2" rx="5.5" ry="5.5" style="stroke:#181818;stroke-width:0.5;"/><path d="M491.0578,366.9375 Q491.1359,366.8281 491.2297,366.7734 Q491.3234,366.7188 491.4328,366.7188 Q491.6203,366.7188 491.7375,366.8516 Q491.8547,366.9766 491.8547,367.2813 L491.8547,368.0078 Q491.8547,368.3125 491.7375,368.4453 Q491.6203,368.5781 491.4328,368.5781 Q491.2609,368.5781 491.1594,368.4766 Q491.0578,368.3828 491.0031,368.125 Q490.9797,367.9453 490.8859,367.8516 Q490.7219,367.6641 490.4172,367.5547 Q490.1125,367.4453 489.8,367.4453 Q489.4172,367.4453 489.0969,367.6094 Q488.7844,367.7734 488.5344,368.1484 Q488.2922,368.5234 488.2922,369.0391 L488.2922,369.5859 Q488.2922,370.2031 488.7375,370.6172 Q489.1828,371.0234 489.9797,371.0234 Q490.4484,371.0234 490.7766,370.8984 Q490.9719,370.8203 491.1828,370.6016 Q491.3156,370.4688 491.3859,370.4297 Q491.4641,370.3906 491.5656,370.3906 Q491.7297,370.3906 491.8547,370.5234 Q491.9875,370.6484 491.9875,370.8203 Q491.9875,370.9922 491.8156,371.1953 Q491.5656,371.4844 491.1672,371.6484 Q490.6281,371.875 489.9797,371.875 Q489.2219,371.875 488.6203,371.5625 Q488.1281,371.3125 487.7844,370.7813 Q487.4406,370.2422 487.4406,369.6016 L487.4406,369.0234 Q487.4406,368.3594 487.7453,367.7891 Q488.0578,367.2109 488.6047,366.9063 Q489.1516,366.5938 489.7688,366.5938 Q490.1359,366.5938 490.4563,366.6797 Q490.7844,366.7578 491.0578,366.9375 Z " fill="#000000"/><text fill="#000000" font-family="sans-serif" font-size="7" lengthAdjust="spacing" textLength="43" x="496.825" y="371.4268">PropertyType</text><line style="stroke:#181818;stroke-width:0.25;" x1="482" x2="541.5" y1="377" y2="377"/><text fill="#000000" font-family="sans-serif" font-size="7" lengthAdjust="spacing" textLength="54.5" x="484.5" y="385.3369">-int propertyType</text><line style="stroke:#181818;stroke-width:0.25;" x1="482" x2="541.5" y1="388.8203" y2="388.8203"/></g><!--class Address--><g id="elem_Address"><rect codeLine="92" fill="#F1F1F1" height="63.1016" id="Address" rx="1.25" ry="1.25" style="stroke:#181818;stroke-width:0.25;" width="44.5" x="193.5" y="345.5"/><ellipse cx="202.125" cy="353.5" fill="#ADD1B2" rx="5.5" ry="5.5" style="stroke:#181818;stroke-width:0.5;"/><path d="M203.5078,351.4375 Q203.5859,351.3281 203.6797,351.2734 Q203.7734,351.2188 203.8828,351.2188 Q204.0703,351.2188 204.1875,351.3516 Q204.3047,351.4766 204.3047,351.7813 L204.3047,352.5078 Q204.3047,352.8125 204.1875,352.9453 Q204.0703,353.0781 203.8828,353.0781 Q203.7109,353.0781 203.6094,352.9766 Q203.5078,352.8828 203.4531,352.625 Q203.4297,352.4453 203.3359,352.3516 Q203.1719,352.1641 202.8672,352.0547 Q202.5625,351.9453 202.25,351.9453 Q201.8672,351.9453 201.5469,352.1094 Q201.2344,352.2734 200.9844,352.6484 Q200.7422,353.0234 200.7422,353.5391 L200.7422,354.0859 Q200.7422,354.7031 201.1875,355.1172 Q201.6328,355.5234 202.4297,355.5234 Q202.8984,355.5234 203.2266,355.3984 Q203.4219,355.3203 203.6328,355.1016 Q203.7656,354.9688 203.8359,354.9297 Q203.9141,354.8906 204.0156,354.8906 Q204.1797,354.8906 204.3047,355.0234 Q204.4375,355.1484 204.4375,355.3203 Q204.4375,355.4922 204.2656,355.6953 Q204.0156,355.9844 203.6172,356.1484 Q203.0781,356.375 202.4297,356.375 Q201.6719,356.375 201.0703,356.0625 Q200.5781,355.8125 200.2344,355.2813 Q199.8906,354.7422 199.8906,354.1016 L199.8906,353.5234 Q199.8906,352.8594 200.1953,352.2891 Q200.5078,351.7109 201.0547,351.4063 Q201.6016,351.0938 202.2188,351.0938 Q202.5859,351.0938 202.9063,351.1797 Q203.2344,351.2578 203.5078,351.4375 Z " fill="#000000"/><text fill="#000000" font-family="sans-serif" font-size="7" lengthAdjust="spacing" textLength="26" x="209.375" y="355.9268">Address</text><line style="stroke:#181818;stroke-width:0.25;" x1="194" x2="237.5" y1="361.5" y2="361.5"/><text fill="#000000" font-family="sans-serif" font-size="7" lengthAdjust="spacing" textLength="32.5" x="196.5" y="369.8369">-int district</text><text fill="#000000" font-family="sans-serif" font-size="7" lengthAdjust="spacing" textLength="27.5" x="196.5" y="377.6572">-int state</text><text fill="#000000" font-family="sans-serif" font-size="7" lengthAdjust="spacing" textLength="22.5" x="196.5" y="385.4775">-int city</text><text fill="#000000" font-family="sans-serif" font-size="7" lengthAdjust="spacing" textLength="30" x="196.5" y="393.2979">-int street</text><text fill="#000000" font-family="sans-serif" font-size="7" lengthAdjust="spacing" textLength="38.5" x="196.5" y="401.1182">-int zip-code</text><line style="stroke:#181818;stroke-width:0.25;" x1="194" x2="237.5" y1="404.6016" y2="404.6016"/></g><!--class Photograph--><g id="elem_Photograph"><rect codeLine="100" fill="#F1F1F1" height="31.8203" id="Photograph" rx="1.25" ry="1.25" style="stroke:#181818;stroke-width:0.25;" width="78.5" x="559.5" y="361"/><ellipse cx="578.475" cy="369" fill="#ADD1B2" rx="5.5" ry="5.5" style="stroke:#181818;stroke-width:0.5;"/><path d="M579.8578,366.9375 Q579.9359,366.8281 580.0297,366.7734 Q580.1234,366.7188 580.2328,366.7188 Q580.4203,366.7188 580.5375,366.8516 Q580.6547,366.9766 580.6547,367.2813 L580.6547,368.0078 Q580.6547,368.3125 580.5375,368.4453 Q580.4203,368.5781 580.2328,368.5781 Q580.0609,368.5781 579.9594,368.4766 Q579.8578,368.3828 579.8031,368.125 Q579.7797,367.9453 579.6859,367.8516 Q579.5219,367.6641 579.2172,367.5547 Q578.9125,367.4453 578.6,367.4453 Q578.2172,367.4453 577.8969,367.6094 Q577.5844,367.7734 577.3344,368.1484 Q577.0922,368.5234 577.0922,369.0391 L577.0922,369.5859 Q577.0922,370.2031 577.5375,370.6172 Q577.9828,371.0234 578.7797,371.0234 Q579.2484,371.0234 579.5766,370.8984 Q579.7719,370.8203 579.9828,370.6016 Q580.1156,370.4688 580.1859,370.4297 Q580.2641,370.3906 580.3656,370.3906 Q580.5297,370.3906 580.6547,370.5234 Q580.7875,370.6484 580.7875,370.8203 Q580.7875,370.9922 580.6156,371.1953 Q580.3656,371.4844 579.9672,371.6484 Q579.4281,371.875 578.7797,371.875 Q578.0219,371.875 577.4203,371.5625 Q576.9281,371.3125 576.5844,370.7813 Q576.2406,370.2422 576.2406,369.6016 L576.2406,369.0234 Q576.2406,368.3594 576.5453,367.7891 Q576.8578,367.2109 577.4047,366.9063 Q577.9516,366.5938 578.5688,366.5938 Q578.9359,366.5938 579.2563,366.6797 Q579.5844,366.7578 579.8578,366.9375 Z " fill="#000000"/><text fill="#000000" font-family="sans-serif" font-size="7" lengthAdjust="spacing" textLength="37" x="588.025" y="371.4268">Photograph</text><line style="stroke:#181818;stroke-width:0.25;" x1="560" x2="637.5" y1="377" y2="377"/><text fill="#000000" font-family="sans-serif" font-size="7" lengthAdjust="spacing" textLength="72.5" x="562.5" y="385.3369">-String photographLink</text><line style="stroke:#181818;stroke-width:0.25;" x1="560" x2="637.5" y1="388.8203" y2="388.8203"/></g><!--class Equipment--><g id="elem_Equipment"><rect codeLine="104" fill="#F1F1F1" height="39.6406" id="Equipment" rx="1.25" ry="1.25" style="stroke:#181818;stroke-width:0.25;" width="85" x="282.25" y="357.25"/><ellipse cx="305.875" cy="365.25" fill="#ADD1B2" rx="5.5" ry="5.5" style="stroke:#181818;stroke-width:0.5;"/><path d="M307.2578,363.1875 Q307.3359,363.0781 307.4297,363.0234 Q307.5234,362.9688 307.6328,362.9688 Q307.8203,362.9688 307.9375,363.1016 Q308.0547,363.2266 308.0547,363.5313 L308.0547,364.2578 Q308.0547,364.5625 307.9375,364.6953 Q307.8203,364.8281 307.6328,364.8281 Q307.4609,364.8281 307.3594,364.7266 Q307.2578,364.6328 307.2031,364.375 Q307.1797,364.1953 307.0859,364.1016 Q306.9219,363.9141 306.6172,363.8047 Q306.3125,363.6953 306,363.6953 Q305.6172,363.6953 305.2969,363.8594 Q304.9844,364.0234 304.7344,364.3984 Q304.4922,364.7734 304.4922,365.2891 L304.4922,365.8359 Q304.4922,366.4531 304.9375,366.8672 Q305.3828,367.2734 306.1797,367.2734 Q306.6484,367.2734 306.9766,367.1484 Q307.1719,367.0703 307.3828,366.8516 Q307.5156,366.7188 307.5859,366.6797 Q307.6641,366.6406 307.7656,366.6406 Q307.9297,366.6406 308.0547,366.7734 Q308.1875,366.8984 308.1875,367.0703 Q308.1875,367.2422 308.0156,367.4453 Q307.7656,367.7344 307.3672,367.8984 Q306.8281,368.125 306.1797,368.125 Q305.4219,368.125 304.8203,367.8125 Q304.3281,367.5625 303.9844,367.0313 Q303.6406,366.4922 303.6406,365.8516 L303.6406,365.2734 Q303.6406,364.6094 303.9453,364.0391 Q304.2578,363.4609 304.8047,363.1563 Q305.3516,362.8438 305.9688,362.8438 Q306.3359,362.8438 306.6563,362.9297 Q306.9844,363.0078 307.2578,363.1875 Z " fill="#000000"/><text fill="#000000" font-family="sans-serif" font-size="7" lengthAdjust="spacing" textLength="33.5" x="316.125" y="367.6768">Equipment</text><line style="stroke:#181818;stroke-width:0.25;" x1="282.75" x2="366.75" y1="373.25" y2="373.25"/><text fill="#000000" font-family="sans-serif" font-size="7" lengthAdjust="spacing" textLength="62.5" x="285.25" y="381.5869">-int numEquipments</text><text fill="#000000" font-family="sans-serif" font-size="7" lengthAdjust="spacing" textLength="79" x="285.25" y="389.4072">-List&lt;String&gt; Equipments</text><line style="stroke:#181818;stroke-width:0.25;" x1="282.75" x2="366.75" y1="392.8906" y2="392.8906"/></g><!--link PublishSaleAnnouncementUI to PublishSaleAnnouncementController--><g id="link_PublishSaleAnnouncementUI_PublishSaleAnnouncementController"><path codeLine="109" d="M299.175,15.5 C303.29,15.5 308.55,15.5 313.82,15.5 " fill="none" id="PublishSaleAnnouncementUI-to-PublishSaleAnnouncementController" style="stroke:#181818;stroke-width:0.5;stroke-dasharray:7.0,7.0;"/><polygon fill="#181818" points="316.405,15.5,311.905,13.5,313.905,15.5,311.905,17.5,316.405,15.5" style="stroke:#181818;stroke-width:0.5;"/></g><!--link PublishSaleAnnouncementController to SaleAnnouncement--><g id="link_PublishSaleAnnouncementController_SaleAnnouncement"><path codeLine="110" d="M375.57,27.605 C367.145,42.235 353.75,65.5 353.75,65.5 C353.75,65.5 342.935,128.025 337.415,159.955 " fill="none" id="PublishSaleAnnouncementController-to-SaleAnnouncement" style="stroke:#181818;stroke-width:0.5;stroke-dasharray:7.0,7.0;"/><polygon fill="#181818" points="336.96,162.575,339.7015,158.4842,337.3884,160.112,335.7606,157.7989,336.96,162.575" style="stroke:#181818;stroke-width:0.5;"/><text fill="#000000" font-family="sans-serif" font-size="6.5" lengthAdjust="spacing" textLength="56.5" x="354.25" y="91.6343">SaleAnnouncement</text><text fill="#000000" font-family="sans-serif" font-size="6.5" lengthAdjust="spacing" textLength="2.5" x="334.7611" y="157.4468">*</text></g><!--link PublishSaleAnnouncementController to SaleAnnouncementRepository--><g id="link_PublishSaleAnnouncementController_SaleAnnouncementRepository"><path codeLine="111" d="M319.935,27.51 C281.21,34.66 238.75,42.5 238.75,42.5 C238.75,42.5 238.75,50.5 238.75,50.5 C238.75,50.5 240.365,60.785 241.915,70.69 " fill="none" id="PublishSaleAnnouncementController-to-SaleAnnouncementRepository" style="stroke:#181818;stroke-width:0.5;stroke-dasharray:7.0,7.0;"/><polygon fill="#181818" points="242.31,73.19,243.5766,68.4313,241.9164,70.7212,239.6265,69.061,242.31,73.19" style="stroke:#181818;stroke-width:0.5;"/><text fill="#000000" font-family="sans-serif" font-size="6.5" lengthAdjust="spacing" textLength="87.5" x="239.25" y="48.8843">SaleAnnouncementRepository</text><text fill="#000000" font-family="sans-serif" font-size="6.5" lengthAdjust="spacing" textLength="3.5" x="237.8934" y="67.8438">1</text></g><!--link SaleAnnouncementRepository to SaleAnnouncement--><g id="link_SaleAnnouncementRepository_SaleAnnouncement"><path codeLine="112" d="M260.545,105.37 C276.215,120.865 300.195,144.575 316.51,160.71 " fill="none" id="SaleAnnouncementRepository-to-SaleAnnouncement" style="stroke:#181818;stroke-width:0.5;stroke-dasharray:7.0,7.0;"/><polygon fill="#181818" points="318.465,162.64,316.6694,158.0546,316.6866,160.883,313.8582,160.9001,318.465,162.64" style="stroke:#181818;stroke-width:0.5;"/><text fill="#000000" font-family="sans-serif" font-size="6.5" lengthAdjust="spacing" textLength="21.5" x="290.25" y="134.3843">creates</text><text fill="#000000" font-family="sans-serif" font-size="6.5" lengthAdjust="spacing" textLength="2.5" x="312.2386" y="157.2829">*</text></g><!--link PublishSaleAnnouncementController to Property--><g id="link_PublishSaleAnnouncementController_Property"><path codeLine="113" d="M389.52,27.605 C398.68,42.235 413.25,65.5 413.25,65.5 C413.25,65.5 419.64,187.47 422.68,245.5 " fill="none" id="PublishSaleAnnouncementController-to-Property" style="stroke:#181818;stroke-width:0.5;stroke-dasharray:7.0,7.0;"/><polygon fill="#181818" points="422.81,248.045,424.5762,243.4482,422.6816,245.5483,420.5815,243.6537,422.81,248.045" style="stroke:#181818;stroke-width:0.5;"/><text fill="#000000" font-family="sans-serif" font-size="6.5" lengthAdjust="spacing" textLength="24.5" x="417.25" y="134.3843">Property</text><text fill="#000000" font-family="sans-serif" font-size="6.5" lengthAdjust="spacing" textLength="2.5" x="419.9653" y="242.9299">*</text></g><!--link SaleAnnouncement to Property--><g id="link_SaleAnnouncement_Property"><path codeLine="114" d="M348.91,194.93 C361.885,208.805 381.16,229.42 396.965,246.325 " fill="none" id="SaleAnnouncement-to-Property" style="stroke:#181818;stroke-width:0.5;stroke-dasharray:7.0,7.0;"/><polygon fill="#181818" points="398.68,248.155,397.0619,243.504,396.9704,246.3309,394.1434,246.2394,398.68,248.155" style="stroke:#181818;stroke-width:0.5;"/><text fill="#000000" font-family="sans-serif" font-size="6.5" lengthAdjust="spacing" textLength="21.5" x="379.75" y="227.8843">creates</text></g><!--link SaleAnnouncement to BusinessType--><g id="link_SaleAnnouncement_BusinessType"><path codeLine="115" d="M334.25,194.93 C334.25,212.04 334.25,239.39 334.25,257.4 " fill="none" id="SaleAnnouncement-to-BusinessType" style="stroke:#181818;stroke-width:0.5;stroke-dasharray:7.0,7.0;"/><polygon fill="#181818" points="334.25,259.99,336.25,255.49,334.25,257.49,332.25,255.49,334.25,259.99" style="stroke:#181818;stroke-width:0.5;"/><text fill="#000000" font-family="sans-serif" font-size="6.5" lengthAdjust="spacing" textLength="23.5" x="334.75" y="227.8843">refers to</text><text fill="#000000" font-family="sans-serif" font-size="6.5" lengthAdjust="spacing" textLength="3.5" x="330.3672" y="254.6547">1</text></g><!--link Property to PropertyType--><g id="link_Property_PropertyType"><path codeLine="116" d="M448.16,303.825 C463.51,321.37 482.995,343.64 496.325,358.875 " fill="none" id="Property-to-PropertyType" style="stroke:#181818;stroke-width:0.5;stroke-dasharray:7.0,7.0;"/><polygon fill="#181818" points="498.085,360.88,496.6281,356.176,496.4392,358.9981,493.6171,358.8092,498.085,360.88" style="stroke:#181818;stroke-width:0.5;"/><text fill="#000000" font-family="sans-serif" font-size="6.5" lengthAdjust="spacing" textLength="16" x="470.75" y="328.8843">has a</text><text fill="#000000" font-family="sans-serif" font-size="6.5" lengthAdjust="spacing" textLength="3.5" x="491.213" y="355.5207">1</text></g><!--link Property to Address--><g id="link_Property_Address"><path codeLine="117" d="M391.745,301.075 C386.77,304.84 383.25,307.5 383.25,307.5 C383.25,307.5 337.75,322.5 337.75,322.5 C337.75,322.5 273.25,345.5 273.25,345.5 C273.25,345.5 256.025,354.785 240.43,363.195 " fill="none" id="Property-to-Address" style="stroke:#181818;stroke-width:0.5;stroke-dasharray:7.0,7.0;"/><polygon fill="#181818" points="238.145,364.425,243.0552,364.0506,240.3457,363.2389,241.1574,360.5294,238.145,364.425" style="stroke:#181818;stroke-width:0.5;"/><text fill="#000000" font-family="sans-serif" font-size="6.5" lengthAdjust="spacing" textLength="28.5" x="338.25" y="328.8843">located at</text><text fill="#000000" font-family="sans-serif" font-size="6.5" lengthAdjust="spacing" textLength="3.5" x="241.9931" y="360.7601">1</text></g><!--link Property to Photograph--><g id="link_Property_Photograph"><path codeLine="118" d="M456.825,294.27 C494.31,314.715 550.75,345.5 550.75,345.5 C550.75,345.5 561.215,352.26 572.37,359.465 " fill="none" id="Property-to-Photograph" style="stroke:#181818;stroke-width:0.5;stroke-dasharray:7.0,7.0;"/><polygon fill="#181818" points="574.61,360.91,571.9161,356.7877,572.5103,359.5531,569.745,360.1473,574.61,360.91" style="stroke:#181818;stroke-width:0.5;"/><text fill="#000000" font-family="sans-serif" font-size="6.5" lengthAdjust="spacing" textLength="10.5" x="520.25" y="328.8843">has</text><text fill="#000000" font-family="sans-serif" font-size="6.5" lengthAdjust="spacing" textLength="10" x="558.2356" y="355.5572">1..*</text></g><!--reverse link Property to Dwelling--><g id="link_Property_Dwelling"><path codeLine="119" d="M424.25,310.345 C424.25,324.405 424.25,340.38 424.25,353.11 " fill="none" id="Property-backto-Dwelling" style="stroke:#181818;stroke-width:0.5;stroke-dasharray:7.0,7.0;"/><polygon fill="#181818" points="424.25,303.825,422.25,306.825,424.25,309.825,426.25,306.825,424.25,303.825" style="stroke:#181818;stroke-width:0.5;"/><text fill="#000000" font-family="sans-serif" font-size="6.5" lengthAdjust="spacing" textLength="19.5" x="424.75" y="328.8843">can be</text><text fill="#000000" font-family="sans-serif" font-size="6.5" lengthAdjust="spacing" textLength="3.5" x="420.482" y="347.8232">1</text></g><!--link Property to Equipment--><g id="link_Property_Equipment"><path codeLine="120" d="M397.06,303.825 C380.915,320.05 360.75,340.32 345.815,355.325 " fill="none" id="Property-to-Equipment" style="stroke:#181818;stroke-width:0.5;stroke-dasharray:7.0,7.0;"/><polygon fill="#181818" points="344.025,357.13,348.6176,355.353,345.7892,355.3587,345.7835,352.5302,344.025,357.13" style="stroke:#181818;stroke-width:0.5;"/><text fill="#000000" font-family="sans-serif" font-size="6.5" lengthAdjust="spacing" textLength="25.5" x="377.75" y="328.8843">can have</text><text fill="#000000" font-family="sans-serif" font-size="6.5" lengthAdjust="spacing" textLength="2.5" x="344.7357" y="351.8623">*</text></g><!--reverse link Dwelling to House--><g id="link_Dwelling_House"><path codeLine="121" d="M424.25,407.405 C424.25,420.08 424.25,434.625 424.25,446.48 " fill="none" id="Dwelling-backto-House" style="stroke:#181818;stroke-width:0.5;stroke-dasharray:7.0,7.0;"/><polygon fill="#181818" points="424.25,400.78,422.25,403.78,424.25,406.78,426.25,403.78,424.25,400.78" style="stroke:#181818;stroke-width:0.5;"/><text fill="#000000" font-family="sans-serif" font-size="6.5" lengthAdjust="spacing" textLength="19.5" x="424.75" y="429.8843">can be</text><text fill="#000000" font-family="sans-serif" font-size="6.5" lengthAdjust="spacing" textLength="3.5" x="420.4711" y="441.0421">1</text></g><!--link SaleAnnouncement to Commission--><g id="link_SaleAnnouncement_Commission"><path codeLine="122" d="M318.44,194.88 C298.915,214.185 268.25,244.5 268.25,244.5 C268.25,244.5 232.25,307.5 232.25,307.5 C232.25,307.5 191.585,335.42 161.99,355.74 " fill="none" id="SaleAnnouncement-to-Commission" style="stroke:#181818;stroke-width:0.5;stroke-dasharray:7.0,7.0;"/><polygon fill="#181818" points="159.88,357.19,164.7227,356.2965,161.9424,355.777,162.4619,352.9967,159.88,357.19" style="stroke:#181818;stroke-width:0.5;"/><text fill="#000000" font-family="sans-serif" font-size="6.5" lengthAdjust="spacing" textLength="16" x="268.75" y="278.3843">has a</text><text fill="#000000" font-family="sans-serif" font-size="6.5" lengthAdjust="spacing" textLength="3.5" x="161.0789" y="351.933">1</text></g><!--link Employee to Commission--><g id="link_Employee_Commission"><path codeLine="123" d="M105.345,307.565 C103.91,315.83 102.75,322.5 102.75,322.5 C102.75,322.5 102.75,330.5 102.75,330.5 C102.75,330.5 110.6,342.955 118.135,354.905 " fill="none" id="Employee-to-Commission" style="stroke:#181818;stroke-width:0.5;stroke-dasharray:7.0,7.0;"/><polygon fill="#181818" points="119.535,357.125,118.8342,352.2507,118.2049,355.0082,115.4473,354.3789,119.535,357.125" style="stroke:#181818;stroke-width:0.5;"/><text fill="#000000" font-family="sans-serif" font-size="6.5" lengthAdjust="spacing" textLength="29" x="103.25" y="328.8843">receives a</text><text fill="#000000" font-family="sans-serif" font-size="6.5" lengthAdjust="spacing" textLength="3.5" x="113.5475" y="351.8564">1</text></g><!--link Employee to Address--><g id="link_Employee_Address"><path codeLine="124" d="M134.94,307.6 C144.275,319.605 152.75,330.5 152.75,330.5 C152.75,330.5 184.75,345.5 184.75,345.5 C184.75,345.5 187.62,348.37 191.61,352.36 " fill="none" id="Employee-to-Address" style="stroke:#181818;stroke-width:0.5;stroke-dasharray:7.0,7.0;"/><polygon fill="#181818" points="193.385,354.135,191.6172,349.5388,191.6172,352.3672,188.7888,352.3672,193.385,354.135" style="stroke:#181818;stroke-width:0.5;"/><text fill="#000000" font-family="sans-serif" font-size="6.5" lengthAdjust="spacing" textLength="28.5" x="153.25" y="328.8843">located at</text><text fill="#000000" font-family="sans-serif" font-size="6.5" lengthAdjust="spacing" textLength="3.5" x="186.0417" y="348.8301">1</text></g><!--link Employee to Role--><g id="link_Employee_Role"><path codeLine="125" d="M84.075,307.565 C76.98,315.83 71.25,322.5 71.25,322.5 C71.25,322.5 58.23,342.88 48.185,358.6 " fill="none" id="Employee-to-Role" style="stroke:#181818;stroke-width:0.5;stroke-dasharray:7.0,7.0;"/><polygon fill="#181818" points="46.73,360.88,50.8351,358.16,48.0736,358.7717,47.4618,356.0103,46.73,360.88" style="stroke:#181818;stroke-width:0.5;"/><text fill="#000000" font-family="sans-serif" font-size="6.5" lengthAdjust="spacing" textLength="26.5" x="71.75" y="328.8843">has a list</text><text fill="#000000" font-family="sans-serif" font-size="6.5" lengthAdjust="spacing" textLength="10" x="37.8194" y="355.5207">1..*</text></g><!--link PublishSaleAnnouncementController to EmployeeRepository--><g id="link_PublishSaleAnnouncementController_EmployeeRepository"><path codeLine="126" d="M406.215,27.545 C421.035,34.685 437.25,42.5 437.25,42.5 C437.25,42.5 450.32,52.92 464.05,63.87 " fill="none" id="PublishSaleAnnouncementController-to-EmployeeRepository" style="stroke:#181818;stroke-width:0.5;stroke-dasharray:7.0,7.0;"/><polygon fill="#181818" points="466.08,65.49,463.8038,61.1232,464.1237,63.9335,461.3134,64.2534,466.08,65.49" style="stroke:#181818;stroke-width:0.5;"/><text fill="#000000" font-family="sans-serif" font-size="6.5" lengthAdjust="spacing" textLength="60" x="447.25" y="48.8843">EmployeeRepository</text></g><!--link Agency to Employee--><g id="link_Agency_Employee"><path codeLine="127" d="M150.85,206.575 C144.425,217.62 136.945,230.475 130.2,242.075 " fill="none" id="Agency-to-Employee" style="stroke:#181818;stroke-width:0.5;stroke-dasharray:7.0,7.0;"/><polygon fill="#181818" points="128.86,244.375,132.8496,241.4884,130.1157,242.2132,129.3908,239.4793,128.86,244.375" style="stroke:#181818;stroke-width:0.5;"/><text fill="#000000" font-family="sans-serif" font-size="6.5" lengthAdjust="spacing" textLength="24.5" x="142.75" y="227.8843">employs</text><text fill="#000000" font-family="sans-serif" font-size="6.5" lengthAdjust="spacing" textLength="10" x="120.3758" y="239.2072">1..*</text></g><!--link Agency to Address--><g id="link_Agency_Address"><path codeLine="128" d="M173.565,206.675 C182.415,242.31 197.86,304.49 207.405,342.915 " fill="none" id="Agency-to-Address" style="stroke:#181818;stroke-width:0.5;stroke-dasharray:7.0,7.0;"/><polygon fill="#181818" points="208.025,345.41,208.8739,340.5593,207.4187,342.9846,204.9933,341.5294,208.025,345.41" style="stroke:#181818;stroke-width:0.5;"/><text fill="#000000" font-family="sans-serif" font-size="6.5" lengthAdjust="spacing" textLength="28.5" x="199.25" y="278.3843">located at</text><text fill="#000000" font-family="sans-serif" font-size="6.5" lengthAdjust="spacing" textLength="3.5" x="203.3702" y="340.0274">1</text></g><!--SRC=[ZLLDJnin4BtxLrXSQAaIjLUea48QgKW88TBsxknETYsyzjQU1KBK_zxnVjWckm5oMe_VlF6ylB5FtOFKjR2YufNH9YkjgO2ZRO35dLfa3wA0DUuKS0iP2bse5E1AaPidgGk-5SgbEqfgm5qDl3PgvnViT6BJM3GioSgKS6w1QEMcGRZEZ5xB5-1VsQc2BN8qtCgYH9vBVnffD6j_RHg_QpPAkd8j52oqDetEe0ADlw_tZFrx1xGq6grH2YpVUyQ0FmJksMnDnwEESu7GGJlaqbILT8uEHPZSK1tWMOZz4OgadMsCKI1qil6BT0WSgwfMPWT0XvZnleuM5SHLJR2QP5iAczysLTn0yKph3TW4MneDXq6eX5IBFBVWNAYxA41dkxRgjKOeI0QPNyIa79mijF2ANqnJNKoMlGWLxgdljAkiD0wqZnxN-XvguoGQkwF46-bmXF2v1zADauOTzgK0z9tYNJpXfyynV4jAqpfwnPeQB7eYgP4B2wBxoYJkbfJWTVNhsieCWZ7CamQxyjeaxhXg79dUEVztxwCFDaauSTsF9r0q94LVMJVL5UJMcCh5WC3oTUHEM1gaOarJ2ovo_JIDUrLIk4wx496w51k9WXnxOxOO6d6DNZsJces5HEX1bRwJhlyOYeLxP_IOdFuAaWcxbKC_FK7C8MW1Ui2Bh6UPoHCw-jFG55RKPPp1EiHkf7w8sDNVHjRzkFRgX93hRF6zexZaoGRb7xr4-Fpo_Sk3lN-zp8ddvEnaP6L-FdRt1zc-dRmnEXEySPEzaVV6GJEQ12IFVRpRmJIKF7oEQhVW13XKcSJvfjEP8ho5BLX7ZmGB90CozImXI-6u6ADwmn90cOnAvrpW8Me-zzq4stLa4NGsdxTKmm3xDlpCmG4FaGJVzPXIF08BUGDHExsHvQWMyVK9_ON7P1933oZ8HvW4JWfnW6g5Q6_rlXwzwkwZbXrVriGo3hB-NKegXbESq_FZFzrhq973i_y0]--></g></svg>