<?xml version="1.0" encoding="us-ascii" standalone="no"?><svg xmlns="http://www.w3.org/2000/svg" xmlns:xlink="http://www.w3.org/1999/xlink" contentStyleType="text/css" height="538px" preserveAspectRatio="none" style="width:984px;height:538px;background:#FFFFFF;" version="1.1" viewBox="0 0 984 538" width="984px" zoomAndPan="magnify"><defs/><g><text fill="#000000" font-family="sans-serif" font-size="14" font-weight="bold" lengthAdjust="spacing" textLength="100" x="435.25" y="25.1074">Domain Model</text><!--class Owner--><g id="elem_Owner"><rect codeLine="11" fill="#F1F1F1" height="111.1055" id="Owner" rx="2.5" ry="2.5" style="stroke:#181818;stroke-width:0.5;" width="101" x="7" y="104.8838"/><text fill="#000000" font-family="sans-serif" font-size="14" lengthAdjust="spacing" textLength="41" x="37" y="124.9912">Owner</text><line style="stroke:#181818;stroke-width:0.5;" x1="8" x2="107" y1="133.5049" y2="133.5049"/><text fill="#000000" font-family="sans-serif" font-size="14" lengthAdjust="spacing" textLength="77" x="13" y="152.6123">cardNumber</text><text fill="#000000" font-family="sans-serif" font-size="14" lengthAdjust="spacing" textLength="67" x="13" y="171.2334">taxNumber</text><text fill="#000000" font-family="sans-serif" font-size="14" lengthAdjust="spacing" textLength="33" x="13" y="189.8545">email</text><text fill="#000000" font-family="sans-serif" font-size="14" lengthAdjust="spacing" textLength="89" x="13" y="208.4756">phoneNumber</text></g><!--class Offer--><g id="elem_Offer"><rect codeLine="18" fill="#F1F1F1" height="92.4844" id="Offer" rx="2.5" ry="2.5" style="stroke:#181818;stroke-width:0.5;" width="136" x="192.5" y="114.3838"/><text fill="#000000" font-family="sans-serif" font-size="14" lengthAdjust="spacing" textLength="32" x="244.5" y="134.4912">Offer</text><line style="stroke:#181818;stroke-width:0.5;" x1="193.5" x2="327.5" y1="143.0049" y2="143.0049"/><text fill="#000000" font-family="sans-serif" font-size="14" lengthAdjust="spacing" textLength="98" x="198.5" y="162.1123">publicationDate</text><text fill="#000000" font-family="sans-serif" font-size="14" lengthAdjust="spacing" textLength="31" x="198.5" y="180.7334">price</text><text fill="#000000" font-family="sans-serif" font-size="14" lengthAdjust="spacing" textLength="124" x="198.5" y="199.3545">propertyDescription</text></g><!--class Property--><g id="elem_Property"><rect codeLine="24" fill="#F1F1F1" height="111.1055" id="Property" rx="2.5" ry="2.5" style="stroke:#181818;stroke-width:0.5;" width="131" x="496" y="104.8838"/><text fill="#000000" font-family="sans-serif" font-size="14" lengthAdjust="spacing" textLength="54" x="534.5" y="124.9912">Property</text><line style="stroke:#181818;stroke-width:0.5;" x1="497" x2="626" y1="133.5049" y2="133.5049"/><text fill="#000000" font-family="sans-serif" font-size="14" lengthAdjust="spacing" textLength="29" x="502" y="152.6123">area</text><text fill="#000000" font-family="sans-serif" font-size="14" lengthAdjust="spacing" textLength="119" x="502" y="171.2334">cityCenterDistance</text><text fill="#000000" font-family="sans-serif" font-size="14" lengthAdjust="spacing" textLength="31" x="502" y="189.8545">price</text><text fill="#000000" font-family="sans-serif" font-size="14" lengthAdjust="spacing" textLength="73" x="502" y="208.4756">photograph</text></g><!--class Address--><g id="elem_Address"><rect codeLine="31" fill="#F1F1F1" height="129.7266" id="Address" rx="2.5" ry="2.5" style="stroke:#181818;stroke-width:0.5;" width="98" x="879.5" y="95.3838"/><text fill="#000000" font-family="sans-serif" font-size="14" lengthAdjust="spacing" textLength="52" x="902.5" y="115.4912">Address</text><line style="stroke:#181818;stroke-width:0.5;" x1="880.5" x2="976.5" y1="124.0049" y2="124.0049"/><text fill="#000000" font-family="sans-serif" font-size="14" lengthAdjust="spacing" textLength="36" x="885.5" y="143.1123">street</text><text fill="#000000" font-family="sans-serif" font-size="14" lengthAdjust="spacing" textLength="57" x="885.5" y="161.7334">cityName</text><text fill="#000000" font-family="sans-serif" font-size="14" lengthAdjust="spacing" textLength="77" x="885.5" y="180.3545">districtName</text><text fill="#000000" font-family="sans-serif" font-size="14" lengthAdjust="spacing" textLength="86" x="885.5" y="198.9756">stateAcronym</text><text fill="#000000" font-family="sans-serif" font-size="14" lengthAdjust="spacing" textLength="51" x="885.5" y="217.5967">zipCode</text></g><!--class Property_type--><g id="elem_Property_type"><rect codeLine="39" fill="#F1F1F1" height="36.6211" id="Property_type" rx="2.5" ry="2.5" style="stroke:#181818;stroke-width:0.5;" width="95" x="749" y="141.8838"/><text fill="#000000" font-family="sans-serif" font-size="14" lengthAdjust="spacing" textLength="89" x="752" y="161.9912">Property_type</text><line style="stroke:#181818;stroke-width:0.5;" x1="750" x2="843" y1="170.5049" y2="170.5049"/></g><!--class Apartment_house--><g id="elem_Apartment_house"><rect codeLine="41" fill="#F1F1F1" height="92.4844" id="Apartment_house" rx="2.5" ry="2.5" style="stroke:#181818;stroke-width:0.5;" width="134" x="541.5" y="286.3838"/><text fill="#000000" font-family="sans-serif" font-size="14" lengthAdjust="spacing" textLength="112" x="552.5" y="306.4912">Apartment_house</text><line style="stroke:#181818;stroke-width:0.5;" x1="542.5" x2="674.5" y1="315.0049" y2="315.0049"/><text fill="#000000" font-family="sans-serif" font-size="14" lengthAdjust="spacing" textLength="91" x="547.5" y="334.1123">numBedrooms</text><text fill="#000000" font-family="sans-serif" font-size="14" lengthAdjust="spacing" textLength="95" x="547.5" y="352.7334">numBathrooms</text><text fill="#000000" font-family="sans-serif" font-size="14" lengthAdjust="spacing" textLength="122" x="547.5" y="371.3545">numParkingSpaces</text></g><!--class Apartment--><g id="elem_Apartment"><rect codeLine="47" fill="#F1F1F1" height="36.6211" id="Apartment" rx="2.5" ry="2.5" style="stroke:#181818;stroke-width:0.5;" width="71" x="512" y="466.8838"/><text fill="#000000" font-family="sans-serif" font-size="14" lengthAdjust="spacing" textLength="65" x="515" y="486.9912">Apartment</text><line style="stroke:#181818;stroke-width:0.5;" x1="513" x2="582" y1="495.5049" y2="495.5049"/></g><!--class House--><g id="elem_House"><rect codeLine="49" fill="#F1F1F1" height="92.4844" id="House" rx="2.5" ry="2.5" style="stroke:#181818;stroke-width:0.5;" width="105" x="618" y="439.3838"/><text fill="#000000" font-family="sans-serif" font-size="14" lengthAdjust="spacing" textLength="40" x="650.5" y="459.4912">House</text><line style="stroke:#181818;stroke-width:0.5;" x1="619" x2="722" y1="468.0049" y2="468.0049"/><text fill="#000000" font-family="sans-serif" font-size="14" lengthAdjust="spacing" textLength="62" x="624" y="487.1123">basement</text><text fill="#000000" font-family="sans-serif" font-size="14" lengthAdjust="spacing" textLength="93" x="624" y="505.7334">inhabitableLoft</text><text fill="#000000" font-family="sans-serif" font-size="14" lengthAdjust="spacing" textLength="82" x="624" y="524.3545">sunExposure</text></g><!--class Equipment--><g id="elem_Equipment"><rect codeLine="55" fill="#F1F1F1" height="36.6211" id="Equipment" rx="2.5" ry="2.5" style="stroke:#181818;stroke-width:0.5;" width="73" x="746" y="313.8838"/><text fill="#000000" font-family="sans-serif" font-size="14" lengthAdjust="spacing" textLength="67" x="749" y="333.9912">Equipment</text><line style="stroke:#181818;stroke-width:0.5;" x1="747" x2="818" y1="342.5049" y2="342.5049"/></g><!--class Land--><g id="elem_Land"><rect codeLine="57" fill="#F1F1F1" height="36.6211" id="Land" rx="2.5" ry="2.5" style="stroke:#181818;stroke-width:0.5;" width="38" x="854.5" y="313.8838"/><text fill="#000000" font-family="sans-serif" font-size="14" lengthAdjust="spacing" textLength="32" x="857.5" y="333.9912">Land</text><line style="stroke:#181818;stroke-width:0.5;" x1="855.5" x2="891.5" y1="342.5049" y2="342.5049"/></g><!--class Agent--><g id="elem_Agent"><rect codeLine="59" fill="#F1F1F1" height="36.6211" id="Agent" rx="2.5" ry="2.5" style="stroke:#181818;stroke-width:0.5;" width="43" x="418" y="141.8838"/><text fill="#000000" font-family="sans-serif" font-size="14" lengthAdjust="spacing" textLength="37" x="421" y="161.9912">Agent</text><line style="stroke:#181818;stroke-width:0.5;" x1="419" x2="460" y1="170.5049" y2="170.5049"/></g><!--link Owner to Offer--><g id="link_Owner_Offer"><path codeLine="61" d="M108.2,160.3838 C133.69,160.3838 164.93,160.3838 192.46,160.3838 " fill="none" id="Owner-Offer" style="stroke:#181818;stroke-width:1.0;"/><polygon fill="#000000" points="135.25,148.0293,126.2049,145.0904,126.2049,150.9682,135.25,148.0293" style="stroke:#000000;stroke-width:1.0;"/><text fill="#000000" font-family="sans-serif" font-size="13" lengthAdjust="spacing" textLength="35" x="139.25" y="153.4121">sends</text><text fill="#000000" font-family="sans-serif" font-size="13" lengthAdjust="spacing" textLength="7" x="116.1606" y="156.1773">1</text><text fill="#000000" font-family="sans-serif" font-size="13" lengthAdjust="spacing" textLength="21" x="163.3606" y="175.2787">0&#8230;*</text></g><!--link Offer to Property--><g id="link_Offer_Property"><path codeLine="63" d="M302.63,114.3738 C323.82,94.6338 351.2,73.7438 380.5,63.3838 C407.32,53.9038 417.74,53.7338 444.5,63.3838 C468.58,72.0638 491.2,88.0938 510.03,104.6538 " fill="none" id="Offer-Property" style="stroke:#181818;stroke-width:1.0;"/><polygon fill="#000000" points="390.4945,55.7952,381.3218,53.283,381.5969,59.1544,390.4945,55.7952" style="stroke:#000000;stroke-width:1.0;"/><text fill="#000000" font-family="sans-serif" font-size="13" lengthAdjust="spacing" textLength="49" x="394.5" y="61.4121">contains</text><text fill="#000000" font-family="sans-serif" font-size="13" lengthAdjust="spacing" textLength="7" x="301.5452" y="103.0405">1</text><text fill="#000000" font-family="sans-serif" font-size="13" lengthAdjust="spacing" textLength="7" x="495.987" y="93.4645">1</text></g><!--link Offer to Agent--><g id="link_Offer_Agent"><path codeLine="64" d="M328.68,160.3838 C360.3,160.3838 395.68,160.3838 417.77,160.3838 " fill="none" id="Offer-Agent" style="stroke:#181818;stroke-width:1.0;"/><polygon fill="#000000" points="355.75,148.0293,346.7049,145.0904,346.7049,150.9682,355.75,148.0293" style="stroke:#000000;stroke-width:1.0;"/><text fill="#000000" font-family="sans-serif" font-size="13" lengthAdjust="spacing" textLength="40" x="359.75" y="153.4121">sent to</text><text fill="#000000" font-family="sans-serif" font-size="13" lengthAdjust="spacing" textLength="7" x="336.52" y="156.4718">1</text><text fill="#000000" font-family="sans-serif" font-size="13" lengthAdjust="spacing" textLength="7" x="403.0433" y="154.9116">1</text></g><!--link Property to Address--><g id="link_Property_Address"><path codeLine="66" d="M627.08,113.1138 C658.06,93.6238 696.52,73.3038 734.5,63.3838 C790.82,48.6738 812,64.7538 861.5,95.3838 C867.56,99.1338 873.52,103.5238 879.23,108.2038 " fill="none" id="Property-Address" style="stroke:#181818;stroke-width:1.0;"/><polygon fill="#000000" points="744.4991,55.932,735.3985,53.1697,735.5129,59.0464,744.4991,55.932" style="stroke:#000000;stroke-width:1.0;"/><text fill="#000000" font-family="sans-serif" font-size="13" lengthAdjust="spacing" textLength="21" x="748.5" y="61.4121">has</text><text fill="#000000" font-family="sans-serif" font-size="13" lengthAdjust="spacing" textLength="7" x="635.0674" y="103.7044">1</text><text fill="#000000" font-family="sans-serif" font-size="13" lengthAdjust="spacing" textLength="7" x="864.4794" y="96.3612">1</text></g><!--link Property to Property_type--><g id="link_Property_Property_type"><path codeLine="67" d="M627.27,160.3838 C665.84,160.3838 713.69,160.3838 748.65,160.3838 " fill="none" id="Property-Property_type" style="stroke:#181818;stroke-width:1.0;"/><text fill="#000000" font-family="sans-serif" font-size="13" lengthAdjust="spacing" textLength="85" x="645.5" y="153.4121">categorized by</text><text fill="#000000" font-family="sans-serif" font-size="13" lengthAdjust="spacing" textLength="7" x="634.8464" y="156.4926">1</text><text fill="#000000" font-family="sans-serif" font-size="13" lengthAdjust="spacing" textLength="7" x="734.108" y="156.2129">1</text></g><!--reverse link Property_type to Land--><g id="link_Property_type_Land"><path codeLine="69" d="M812.91,197.6238 C829.08,233.3138 853.1,286.3438 865.48,313.6738 " fill="none" id="Property_type-backto-Land" style="stroke:#181818;stroke-width:1.0;"/><polygon fill="none" points="806.33,200.0438,804.45,178.9338,819.08,194.2638,806.33,200.0438" style="stroke:#181818;stroke-width:1.0;"/></g><!--reverse link Property_type to Apartment_house--><g id="link_Property_type_Apartment_house"><path codeLine="70" d="M762.03,192.5538 C733,218.8038 691.07,256.7138 658.37,286.2838 " fill="none" id="Property_type-backto-Apartment_house" style="stroke:#181818;stroke-width:1.0;"/><polygon fill="none" points="757.56,187.1538,777.09,178.9338,766.95,197.5438,757.56,187.1538" style="stroke:#181818;stroke-width:1.0;"/></g><!--reverse link Apartment_house to Apartment--><g id="link_Apartment_house_Apartment"><path codeLine="72" d="M582.64,397.4138 C572.46,422.5838 561.59,449.5038 554.68,466.6138 " fill="none" id="Apartment_house-backto-Apartment" style="stroke:#181818;stroke-width:1.0;"/><polygon fill="none" points="576.22,394.6138,590.2,378.6838,589.2,399.8538,576.22,394.6138" style="stroke:#181818;stroke-width:1.0;"/></g><!--reverse link Apartment_house to House--><g id="link_Apartment_house_House"><path codeLine="73" d="M634.79,397.4138 C640.59,411.5238 646.61,426.1938 652.02,439.3738 " fill="none" id="Apartment_house-backto-House" style="stroke:#181818;stroke-width:1.0;"/><polygon fill="none" points="628.22,399.8438,627.1,378.6838,641.17,394.5338,628.22,399.8438" style="stroke:#181818;stroke-width:1.0;"/></g><!--link Apartment_house to Equipment--><g id="link_Apartment_house_Equipment"><path codeLine="74" d="M675.77,332.3838 C699.49,332.3838 725.27,332.3838 745.55,332.3838 " fill="none" id="Apartment_house-Equipment" style="stroke:#181818;stroke-width:1.0;"/><polygon fill="#000000" points="702.75,320.0293,693.7049,317.0904,693.7049,322.9682,702.75,320.0293" style="stroke:#000000;stroke-width:1.0;"/><text fill="#000000" font-family="sans-serif" font-size="13" lengthAdjust="spacing" textLength="21" x="706.75" y="325.4121">has</text><text fill="#000000" font-family="sans-serif" font-size="13" lengthAdjust="spacing" textLength="7" x="683.5105" y="328.4718">1</text><text fill="#000000" font-family="sans-serif" font-size="13" lengthAdjust="spacing" textLength="24" x="714.0545" y="347.765">1...*</text></g><!--SRC=[RPBRRjim38RlzHH2BWSaw6w3OK3M5EY0hYkG1oXeYR64MeTHD5ft6x2dsOFjIIRBiUCSSX68vEzF57-c5-iZ43ZfWW_AK70ecLeKQQf4K2zGuuwx1YMXOl1rCnSa0pgyMb_BFJHfNb4DfBHX9bkrZ5zLy3lxZl9626CrIcL9PL8vEsGJT1A2BUTxji61zV9RqDW8KJZo-wj7-Yba_YaW_TYw2gc436-p2FEdJJb54pmUAhydp7u_Oc9RDLO1s-2tm3ZaoAhn528ITrjCYcpiLKVAqw4e1n8Gmj2PvUuMFIDjRSgZKXTK4pZK1D4SOHkj2LCQK8a9aIVO8xZXGvrvcS9J8kCPDug2xrn9lDjucmTssUGpTn6dox8tx7ABpoQq2GyFyAtxWff2S6cAWSr9uWaeMrllyaPWcdK_0iV4VSyTi1KaBAK-iDv0PHcg1X_2ViYbrj-znP1QclLzzwErSKvy0A-dw-fIADiW5nyNSYaND__-_Fsm6AnTouHU9_avQ_furEJ_SHvhcLUHyuBrgdDHuHS8ImuzPl9w9XeSMqi3FUEAucJs-SBiLHqehx-MLNTabhByz6kv71vv9Nzcc13d3fwghfUB9nUbiTtLQfN7DurzVDP_]--></g></svg>
