<?xml version="1.0" encoding="us-ascii" standalone="no"?><svg xmlns="http://www.w3.org/2000/svg" xmlns:xlink="http://www.w3.org/1999/xlink" contentStyleType="text/css" height="1209px" preserveAspectRatio="none" style="width:1270px;height:1209px;background:#FFFFFF;" version="1.1" viewBox="0 0 1270 1209" width="1270px" zoomAndPan="magnify"><defs/><g><rect fill="#FFFFFF" height="1014.3613" style="stroke:#181818;stroke-width:1.0;" width="10" x="21.5" y="93.6211"/><rect fill="#FFFFFF" height="200.7461" style="stroke:#181818;stroke-width:1.0;" width="10" x="459.5" y="116.9121"/><rect fill="#FFFFFF" height="200.7461" style="stroke:#181818;stroke-width:1.0;" width="10" x="459.5" y="348.9492"/><rect fill="#FFFFFF" height="526.9961" style="stroke:#181818;stroke-width:1.0;" width="10" x="459.5" y="580.9863"/><rect fill="#FFFFFF" height="138.1641" style="stroke:#181818;stroke-width:1.0;" width="10" x="618.5" y="148.2031"/><rect fill="#FFFFFF" height="138.1641" style="stroke:#181818;stroke-width:1.0;" width="10" x="618.5" y="380.2402"/><rect fill="#FFFFFF" height="245.0371" style="stroke:#181818;stroke-width:1.0;" width="10" x="618.5" y="638.5684"/><rect fill="#FFFFFF" height="138.1641" style="stroke:#181818;stroke-width:1.0;" width="10" x="618.5" y="931.5273"/><rect fill="#FFFFFF" height="31.291" style="stroke:#181818;stroke-width:1.0;" width="10" x="796.5" y="179.4941"/><rect fill="#FFFFFF" height="31.291" style="stroke:#181818;stroke-width:1.0;" width="10" x="939.5" y="411.5313"/><rect fill="#FFFFFF" height="182.4551" style="stroke:#181818;stroke-width:1.0;" width="10" x="939.5" y="669.8594"/><rect fill="#FFFFFF" height="75.582" style="stroke:#181818;stroke-width:1.0;" width="10" x="939.5" y="962.8184"/><rect fill="#FFFFFF" height="31.291" style="stroke:#181818;stroke-width:1.0;" width="10" x="1160.5" y="789.7324"/><rect fill="none" height="481.7051" style="stroke:#000000;stroke-width:1.5;" width="845.5" x="417.5" y="595.9863"/><line style="stroke:#181818;stroke-width:0.5;stroke-dasharray:5.0,5.0;" x1="26" x2="26" y1="83.6211" y2="1125.9824"/><line style="stroke:#181818;stroke-width:0.5;stroke-dasharray:5.0,5.0;" x1="464.5" x2="464.5" y1="83.6211" y2="1125.9824"/><line style="stroke:#181818;stroke-width:0.5;stroke-dasharray:5.0,5.0;" x1="623.5" x2="623.5" y1="83.6211" y2="1125.9824"/><line style="stroke:#181818;stroke-width:0.5;stroke-dasharray:5.0,5.0;" x1="801" x2="801" y1="83.6211" y2="1125.9824"/><line style="stroke:#181818;stroke-width:0.5;stroke-dasharray:5.0,5.0;" x1="944" x2="944" y1="83.6211" y2="1125.9824"/><line style="stroke:#181818;stroke-width:0.5;stroke-dasharray:5.0,5.0;" x1="1165" x2="1165" y1="83.6211" y2="1125.9824"/><text fill="#000000" font-family="sans-serif" font-size="14" lengthAdjust="spacing" textLength="37" x="5" y="80.1074">Agent</text><ellipse cx="26.5" cy="13.5" fill="#E3E3E3" rx="8" ry="8" style="stroke:#181818;stroke-width:0.5;"/><path d="M26.5,21.5 L26.5,48.5 M13.5,29.5 L39.5,29.5 M26.5,48.5 L13.5,63.5 M26.5,48.5 L39.5,63.5 " fill="none" style="stroke:#181818;stroke-width:0.5;"/><text fill="#000000" font-family="sans-serif" font-size="14" lengthAdjust="spacing" textLength="37" x="5" y="1140.0898">Agent</text><ellipse cx="26.5" cy="1152.1035" fill="#E3E3E3" rx="8" ry="8" style="stroke:#181818;stroke-width:0.5;"/><path d="M26.5,1160.1035 L26.5,1187.1035 M13.5,1168.1035 L39.5,1168.1035 M26.5,1187.1035 L13.5,1202.1035 M26.5,1187.1035 L39.5,1202.1035 " fill="none" style="stroke:#181818;stroke-width:0.5;"/><rect fill="#E3E3E3" height="32.6211" rx="2.5" ry="2.5" style="stroke:#181818;stroke-width:0.5;" width="74" x="427.5" y="50"/><text fill="#000000" font-family="sans-serif" font-size="14" lengthAdjust="spacing" textLength="60" x="434.5" y="72.1074">:OrdersUI</text><rect fill="#E3E3E3" height="32.6211" rx="2.5" ry="2.5" style="stroke:#181818;stroke-width:0.5;" width="74" x="427.5" y="1124.9824"/><text fill="#000000" font-family="sans-serif" font-size="14" lengthAdjust="spacing" textLength="60" x="434.5" y="1147.0898">:OrdersUI</text><rect fill="#E3E3E3" height="32.6211" rx="2.5" ry="2.5" style="stroke:#181818;stroke-width:0.5;" width="124" x="561.5" y="50"/><text fill="#000000" font-family="sans-serif" font-size="14" lengthAdjust="spacing" textLength="110" x="568.5" y="72.1074">:OrdersController</text><rect fill="#E3E3E3" height="32.6211" rx="2.5" ry="2.5" style="stroke:#181818;stroke-width:0.5;" width="124" x="561.5" y="1124.9824"/><text fill="#000000" font-family="sans-serif" font-size="14" lengthAdjust="spacing" textLength="110" x="568.5" y="1147.0898">:OrdersController</text><rect fill="#E3E3E3" height="51.2422" rx="2.5" ry="2.5" style="stroke:#181818;stroke-width:0.5;" width="139" x="732" y="31.3789"/><text fill="#000000" font-family="sans-serif" font-size="14" lengthAdjust="spacing" textLength="125" x="739" y="53.4863">propertyRepository:</text><text fill="#000000" font-family="sans-serif" font-size="14" lengthAdjust="spacing" textLength="122" x="740.5" y="72.1074">PropertyRepository</text><rect fill="#E3E3E3" height="51.2422" rx="2.5" ry="2.5" style="stroke:#181818;stroke-width:0.5;" width="139" x="732" y="1124.9824"/><text fill="#000000" font-family="sans-serif" font-size="14" lengthAdjust="spacing" textLength="125" x="739" y="1147.0898">propertyRepository:</text><text fill="#000000" font-family="sans-serif" font-size="14" lengthAdjust="spacing" textLength="122" x="740.5" y="1165.7109">PropertyRepository</text><rect fill="#E3E3E3" height="51.2422" rx="2.5" ry="2.5" style="stroke:#181818;stroke-width:0.5;" width="127" x="881" y="31.3789"/><text fill="#000000" font-family="sans-serif" font-size="14" lengthAdjust="spacing" textLength="113" x="888" y="53.4863">ordersRepository:</text><text fill="#000000" font-family="sans-serif" font-size="14" lengthAdjust="spacing" textLength="112" x="888.5" y="72.1074">OrdersRepository</text><rect fill="#E3E3E3" height="51.2422" rx="2.5" ry="2.5" style="stroke:#181818;stroke-width:0.5;" width="127" x="881" y="1124.9824"/><text fill="#000000" font-family="sans-serif" font-size="14" lengthAdjust="spacing" textLength="113" x="888" y="1147.0898">ordersRepository:</text><text fill="#000000" font-family="sans-serif" font-size="14" lengthAdjust="spacing" textLength="112" x="888.5" y="1165.7109">OrdersRepository</text><rect fill="#E3E3E3" height="51.2422" rx="2.5" ry="2.5" style="stroke:#181818;stroke-width:0.5;" width="175" x="1078" y="31.3789"/><text fill="#000000" font-family="sans-serif" font-size="14" lengthAdjust="spacing" textLength="161" x="1085" y="53.4863">advertisementRepository:</text><text fill="#000000" font-family="sans-serif" font-size="14" lengthAdjust="spacing" textLength="158" x="1086.5" y="72.1074">AdvertisementRepository</text><rect fill="#E3E3E3" height="51.2422" rx="2.5" ry="2.5" style="stroke:#181818;stroke-width:0.5;" width="175" x="1078" y="1124.9824"/><text fill="#000000" font-family="sans-serif" font-size="14" lengthAdjust="spacing" textLength="161" x="1085" y="1147.0898">advertisementRepository:</text><text fill="#000000" font-family="sans-serif" font-size="14" lengthAdjust="spacing" textLength="158" x="1086.5" y="1165.7109">AdvertisementRepository</text><rect fill="#FFFFFF" height="1014.3613" style="stroke:#181818;stroke-width:1.0;" width="10" x="21.5" y="93.6211"/><rect fill="#FFFFFF" height="200.7461" style="stroke:#181818;stroke-width:1.0;" width="10" x="459.5" y="116.9121"/><rect fill="#FFFFFF" height="200.7461" style="stroke:#181818;stroke-width:1.0;" width="10" x="459.5" y="348.9492"/><rect fill="#FFFFFF" height="526.9961" style="stroke:#181818;stroke-width:1.0;" width="10" x="459.5" y="580.9863"/><rect fill="#FFFFFF" height="138.1641" style="stroke:#181818;stroke-width:1.0;" width="10" x="618.5" y="148.2031"/><rect fill="#FFFFFF" height="138.1641" style="stroke:#181818;stroke-width:1.0;" width="10" x="618.5" y="380.2402"/><rect fill="#FFFFFF" height="245.0371" style="stroke:#181818;stroke-width:1.0;" width="10" x="618.5" y="638.5684"/><rect fill="#FFFFFF" height="138.1641" style="stroke:#181818;stroke-width:1.0;" width="10" x="618.5" y="931.5273"/><rect fill="#FFFFFF" height="31.291" style="stroke:#181818;stroke-width:1.0;" width="10" x="796.5" y="179.4941"/><rect fill="#FFFFFF" height="31.291" style="stroke:#181818;stroke-width:1.0;" width="10" x="939.5" y="411.5313"/><rect fill="#FFFFFF" height="182.4551" style="stroke:#181818;stroke-width:1.0;" width="10" x="939.5" y="669.8594"/><rect fill="#FFFFFF" height="75.582" style="stroke:#181818;stroke-width:1.0;" width="10" x="939.5" y="962.8184"/><rect fill="#FFFFFF" height="31.291" style="stroke:#181818;stroke-width:1.0;" width="10" x="1160.5" y="789.7324"/><polygon fill="#181818" points="447.5,112.9121,457.5,116.9121,447.5,120.9121,451.5,116.9121" style="stroke:#181818;stroke-width:1.0;"/><line style="stroke:#181818;stroke-width:1.0;" x1="31.5" x2="453.5" y1="116.9121" y2="116.9121"/><text fill="#000000" font-family="sans-serif" font-size="13" font-weight="bold" lengthAdjust="spacing" textLength="7" x="38.5" y="111.6494">1</text><text fill="#000000" font-family="sans-serif" font-size="13" lengthAdjust="spacing" textLength="261" x="49.5" y="111.6494">asks to display orders made to his properties</text><polygon fill="#181818" points="606.5,144.2031,616.5,148.2031,606.5,152.2031,610.5,148.2031" style="stroke:#181818;stroke-width:1.0;"/><line style="stroke:#181818;stroke-width:1.0;" x1="469.5" x2="612.5" y1="148.2031" y2="148.2031"/><text fill="#000000" font-family="sans-serif" font-size="13" font-weight="bold" lengthAdjust="spacing" textLength="7" x="476.5" y="142.9404">2</text><text fill="#000000" font-family="sans-serif" font-size="13" lengthAdjust="spacing" textLength="119" x="487.5" y="142.9404">getAgentProperties()</text><polygon fill="#181818" points="784.5,175.4941,794.5,179.4941,784.5,183.4941,788.5,179.4941" style="stroke:#181818;stroke-width:1.0;"/><line style="stroke:#181818;stroke-width:1.0;" x1="628.5" x2="790.5" y1="179.4941" y2="179.4941"/><text fill="#000000" font-family="sans-serif" font-size="13" font-weight="bold" lengthAdjust="spacing" textLength="7" x="635.5" y="174.2314">3</text><text fill="#000000" font-family="sans-serif" font-size="13" lengthAdjust="spacing" textLength="119" x="646.5" y="174.2314">getAgentProperties()</text><polygon fill="#181818" points="639.5,206.7852,629.5,210.7852,639.5,214.7852,635.5,210.7852" style="stroke:#181818;stroke-width:1.0;"/><line style="stroke:#181818;stroke-width:1.0;" x1="633.5" x2="800.5" y1="210.7852" y2="210.7852"/><text fill="#000000" font-family="sans-serif" font-size="13" font-weight="bold" lengthAdjust="spacing" textLength="7" x="645.5" y="205.5225">4</text><text fill="#000000" font-family="sans-serif" font-size="13" lengthAdjust="spacing" textLength="104" x="656.5" y="205.5225">AgentPropertyList</text><line style="stroke:#181818;stroke-width:1.0;" x1="628.5" x2="670.5" y1="242.0762" y2="242.0762"/><line style="stroke:#181818;stroke-width:1.0;" x1="670.5" x2="670.5" y1="242.0762" y2="255.0762"/><line style="stroke:#181818;stroke-width:1.0;" x1="629.5" x2="670.5" y1="255.0762" y2="255.0762"/><polygon fill="#181818" points="639.5,251.0762,629.5,255.0762,639.5,259.0762,635.5,255.0762" style="stroke:#181818;stroke-width:1.0;"/><text fill="#000000" font-family="sans-serif" font-size="13" font-weight="bold" lengthAdjust="spacing" textLength="7" x="635.5" y="236.8135">5</text><text fill="#000000" font-family="sans-serif" font-size="13" lengthAdjust="spacing" textLength="143" x="646.5" y="236.8135">sortPropertiesByOldest()</text><polygon fill="#181818" points="480.5,282.3672,470.5,286.3672,480.5,290.3672,476.5,286.3672" style="stroke:#181818;stroke-width:1.0;"/><line style="stroke:#181818;stroke-width:1.0;" x1="474.5" x2="622.5" y1="286.3672" y2="286.3672"/><text fill="#000000" font-family="sans-serif" font-size="13" font-weight="bold" lengthAdjust="spacing" textLength="7" x="486.5" y="281.1045">6</text><text fill="#000000" font-family="sans-serif" font-size="13" lengthAdjust="spacing" textLength="104" x="497.5" y="281.1045">AgentPropertyList</text><polygon fill="#181818" points="42.5,313.6582,32.5,317.6582,42.5,321.6582,38.5,317.6582" style="stroke:#181818;stroke-width:1.0;"/><line style="stroke:#181818;stroke-width:1.0;stroke-dasharray:2.0,2.0;" x1="36.5" x2="463.5" y1="317.6582" y2="317.6582"/><text fill="#000000" font-family="sans-serif" font-size="13" font-weight="bold" lengthAdjust="spacing" textLength="7" x="48.5" y="312.3955">7</text><text fill="#000000" font-family="sans-serif" font-size="13" lengthAdjust="spacing" textLength="393" x="59.5" y="312.3955">shows the list of properties his responsible for and asks to selet one</text><polygon fill="#181818" points="447.5,344.9492,457.5,348.9492,447.5,352.9492,451.5,348.9492" style="stroke:#181818;stroke-width:1.0;"/><line style="stroke:#181818;stroke-width:1.0;" x1="31.5" x2="453.5" y1="348.9492" y2="348.9492"/><text fill="#000000" font-family="sans-serif" font-size="13" font-weight="bold" lengthAdjust="spacing" textLength="7" x="38.5" y="343.6865">8</text><text fill="#000000" font-family="sans-serif" font-size="13" lengthAdjust="spacing" textLength="270" x="49.5" y="343.6865">selects the property to see the orders available</text><polygon fill="#181818" points="606.5,376.2402,616.5,380.2402,606.5,384.2402,610.5,380.2402" style="stroke:#181818;stroke-width:1.0;"/><line style="stroke:#181818;stroke-width:1.0;" x1="469.5" x2="612.5" y1="380.2402" y2="380.2402"/><text fill="#000000" font-family="sans-serif" font-size="13" font-weight="bold" lengthAdjust="spacing" textLength="7" x="476.5" y="374.9775">9</text><text fill="#000000" font-family="sans-serif" font-size="13" lengthAdjust="spacing" textLength="114" x="487.5" y="374.9775">getPropertyOrders()</text><polygon fill="#181818" points="927.5,407.5313,937.5,411.5313,927.5,415.5313,931.5,411.5313" style="stroke:#181818;stroke-width:1.0;"/><line style="stroke:#181818;stroke-width:1.0;" x1="628.5" x2="933.5" y1="411.5313" y2="411.5313"/><text fill="#000000" font-family="sans-serif" font-size="13" font-weight="bold" lengthAdjust="spacing" textLength="14" x="635.5" y="406.2686">10</text><text fill="#000000" font-family="sans-serif" font-size="13" lengthAdjust="spacing" textLength="114" x="653.5" y="406.2686">getPropertyOrders()</text><polygon fill="#181818" points="639.5,438.8223,629.5,442.8223,639.5,446.8223,635.5,442.8223" style="stroke:#181818;stroke-width:1.0;"/><line style="stroke:#181818;stroke-width:1.0;" x1="633.5" x2="943.5" y1="442.8223" y2="442.8223"/><text fill="#000000" font-family="sans-serif" font-size="13" font-weight="bold" lengthAdjust="spacing" textLength="14" x="645.5" y="437.5596">11</text><text fill="#000000" font-family="sans-serif" font-size="13" lengthAdjust="spacing" textLength="109" x="663.5" y="437.5596">PropertyOrdersList</text><line style="stroke:#181818;stroke-width:1.0;" x1="628.5" x2="670.5" y1="474.1133" y2="474.1133"/><line style="stroke:#181818;stroke-width:1.0;" x1="670.5" x2="670.5" y1="474.1133" y2="487.1133"/><line style="stroke:#181818;stroke-width:1.0;" x1="629.5" x2="670.5" y1="487.1133" y2="487.1133"/><polygon fill="#181818" points="639.5,483.1133,629.5,487.1133,639.5,491.1133,635.5,487.1133" style="stroke:#181818;stroke-width:1.0;"/><text fill="#000000" font-family="sans-serif" font-size="13" font-weight="bold" lengthAdjust="spacing" textLength="14" x="635.5" y="468.8506">12</text><text fill="#000000" font-family="sans-serif" font-size="13" lengthAdjust="spacing" textLength="130" x="653.5" y="468.8506">sortOrdersByAmount()</text><polygon fill="#181818" points="480.5,514.4043,470.5,518.4043,480.5,522.4043,476.5,518.4043" style="stroke:#181818;stroke-width:1.0;"/><line style="stroke:#181818;stroke-width:1.0;" x1="474.5" x2="622.5" y1="518.4043" y2="518.4043"/><text fill="#000000" font-family="sans-serif" font-size="13" font-weight="bold" lengthAdjust="spacing" textLength="14" x="486.5" y="513.1416">13</text><text fill="#000000" font-family="sans-serif" font-size="13" lengthAdjust="spacing" textLength="60" x="504.5" y="513.1416">OrdersList</text><polygon fill="#181818" points="42.5,545.6953,32.5,549.6953,42.5,553.6953,38.5,549.6953" style="stroke:#181818;stroke-width:1.0;"/><line style="stroke:#181818;stroke-width:1.0;stroke-dasharray:2.0,2.0;" x1="36.5" x2="463.5" y1="549.6953" y2="549.6953"/><text fill="#000000" font-family="sans-serif" font-size="13" font-weight="bold" lengthAdjust="spacing" textLength="14" x="48.5" y="544.4326">14</text><text fill="#000000" font-family="sans-serif" font-size="13" lengthAdjust="spacing" textLength="286" x="66.5" y="544.4326">show a list of orders made to the chosen property</text><polygon fill="#181818" points="447.5,576.9863,457.5,580.9863,447.5,584.9863,451.5,580.9863" style="stroke:#181818;stroke-width:1.0;"/><line style="stroke:#181818;stroke-width:1.0;" x1="31.5" x2="453.5" y1="580.9863" y2="580.9863"/><text fill="#000000" font-family="sans-serif" font-size="13" font-weight="bold" lengthAdjust="spacing" textLength="14" x="38.5" y="575.7236">15</text><text fill="#000000" font-family="sans-serif" font-size="13" lengthAdjust="spacing" textLength="241" x="56.5" y="575.7236">selects the order and accepts or rejects it</text><path d="M417.5,595.9863 L478.5,595.9863 L478.5,605.2773 L468.5,615.2773 L417.5,615.2773 L417.5,595.9863 " fill="#EEEEEE" style="stroke:#000000;stroke-width:1.5;"/><rect fill="none" height="481.7051" style="stroke:#000000;stroke-width:1.5;" width="845.5" x="417.5" y="595.9863"/><text fill="#000000" font-family="sans-serif" font-size="13" font-weight="bold" lengthAdjust="spacing" textLength="16" x="432.5" y="611.0146">alt</text><text fill="#000000" font-family="sans-serif" font-size="11" font-weight="bold" lengthAdjust="spacing" textLength="44" x="493.5" y="609.8564">[accept]</text><polygon fill="#181818" points="606.5,634.5684,616.5,638.5684,606.5,642.5684,610.5,638.5684" style="stroke:#181818;stroke-width:1.0;"/><line style="stroke:#181818;stroke-width:1.0;" x1="469.5" x2="612.5" y1="638.5684" y2="638.5684"/><text fill="#000000" font-family="sans-serif" font-size="13" font-weight="bold" lengthAdjust="spacing" textLength="14" x="476.5" y="633.3057">16</text><text fill="#000000" font-family="sans-serif" font-size="13" lengthAdjust="spacing" textLength="79" x="494.5" y="633.3057">acceptOrder()</text><polygon fill="#181818" points="927.5,665.8594,937.5,669.8594,927.5,673.8594,931.5,669.8594" style="stroke:#181818;stroke-width:1.0;"/><line style="stroke:#181818;stroke-width:1.0;" x1="628.5" x2="933.5" y1="669.8594" y2="669.8594"/><text fill="#000000" font-family="sans-serif" font-size="13" font-weight="bold" lengthAdjust="spacing" textLength="14" x="635.5" y="664.5967">17</text><text fill="#000000" font-family="sans-serif" font-size="13" lengthAdjust="spacing" textLength="79" x="653.5" y="664.5967">acceptOrder()</text><line style="stroke:#181818;stroke-width:1.0;" x1="949.5" x2="991.5" y1="701.1504" y2="701.1504"/><line style="stroke:#181818;stroke-width:1.0;" x1="991.5" x2="991.5" y1="701.1504" y2="714.1504"/><line style="stroke:#181818;stroke-width:1.0;" x1="950.5" x2="991.5" y1="714.1504" y2="714.1504"/><polygon fill="#181818" points="960.5,710.1504,950.5,714.1504,960.5,718.1504,956.5,714.1504" style="stroke:#181818;stroke-width:1.0;"/><text fill="#000000" font-family="sans-serif" font-size="13" font-weight="bold" lengthAdjust="spacing" textLength="14" x="956.5" y="695.8877">18</text><text fill="#000000" font-family="sans-serif" font-size="13" lengthAdjust="spacing" textLength="79" x="974.5" y="695.8877">rejectOthers()</text><line style="stroke:#181818;stroke-width:1.0;" x1="949.5" x2="991.5" y1="745.4414" y2="745.4414"/><line style="stroke:#181818;stroke-width:1.0;" x1="991.5" x2="991.5" y1="745.4414" y2="758.4414"/><line style="stroke:#181818;stroke-width:1.0;" x1="950.5" x2="991.5" y1="758.4414" y2="758.4414"/><polygon fill="#181818" points="960.5,754.4414,950.5,758.4414,960.5,762.4414,956.5,758.4414" style="stroke:#181818;stroke-width:1.0;"/><text fill="#000000" font-family="sans-serif" font-size="13" font-weight="bold" lengthAdjust="spacing" textLength="14" x="956.5" y="740.1787">19</text><text fill="#000000" font-family="sans-serif" font-size="13" lengthAdjust="spacing" textLength="157" x="974.5" y="740.1787">sendAcceptEmailToClient()</text><polygon fill="#181818" points="1148.5,785.7324,1158.5,789.7324,1148.5,793.7324,1152.5,789.7324" style="stroke:#181818;stroke-width:1.0;"/><line style="stroke:#181818;stroke-width:1.0;" x1="949.5" x2="1154.5" y1="789.7324" y2="789.7324"/><text fill="#000000" font-family="sans-serif" font-size="13" font-weight="bold" lengthAdjust="spacing" textLength="14" x="956.5" y="784.4697">20</text><text fill="#000000" font-family="sans-serif" font-size="13" lengthAdjust="spacing" textLength="174" x="974.5" y="784.4697">deletePropertyAdvertisement()</text><polygon fill="#181818" points="960.5,817.0234,950.5,821.0234,960.5,825.0234,956.5,821.0234" style="stroke:#181818;stroke-width:1.0;"/><line style="stroke:#181818;stroke-width:1.0;" x1="954.5" x2="1164.5" y1="821.0234" y2="821.0234"/><text fill="#000000" font-family="sans-serif" font-size="13" font-weight="bold" lengthAdjust="spacing" textLength="14" x="966.5" y="815.7607">21</text><text fill="#000000" font-family="sans-serif" font-size="13" lengthAdjust="spacing" textLength="49" x="984.5" y="815.7607">success</text><polygon fill="#181818" points="639.5,848.3145,629.5,852.3145,639.5,856.3145,635.5,852.3145" style="stroke:#181818;stroke-width:1.0;"/><line style="stroke:#181818;stroke-width:1.0;" x1="633.5" x2="943.5" y1="852.3145" y2="852.3145"/><text fill="#000000" font-family="sans-serif" font-size="13" font-weight="bold" lengthAdjust="spacing" textLength="14" x="645.5" y="847.0518">22</text><text fill="#000000" font-family="sans-serif" font-size="13" lengthAdjust="spacing" textLength="32" x="663.5" y="847.0518">Order</text><polygon fill="#181818" points="480.5,879.6055,470.5,883.6055,480.5,887.6055,476.5,883.6055" style="stroke:#181818;stroke-width:1.0;"/><line style="stroke:#181818;stroke-width:1.0;" x1="474.5" x2="622.5" y1="883.6055" y2="883.6055"/><text fill="#000000" font-family="sans-serif" font-size="13" font-weight="bold" lengthAdjust="spacing" textLength="14" x="486.5" y="878.3428">23</text><text fill="#000000" font-family="sans-serif" font-size="13" lengthAdjust="spacing" textLength="32" x="504.5" y="878.3428">Order</text><line style="stroke:#000000;stroke-width:1.0;stroke-dasharray:2.0,2.0;" x1="417.5" x2="1263" y1="892.6055" y2="892.6055"/><text fill="#000000" font-family="sans-serif" font-size="11" font-weight="bold" lengthAdjust="spacing" textLength="40" x="422.5" y="904.4756">[reject]</text><polygon fill="#181818" points="606.5,927.5273,616.5,931.5273,606.5,935.5273,610.5,931.5273" style="stroke:#181818;stroke-width:1.0;"/><line style="stroke:#181818;stroke-width:1.0;" x1="469.5" x2="612.5" y1="931.5273" y2="931.5273"/><text fill="#000000" font-family="sans-serif" font-size="13" font-weight="bold" lengthAdjust="spacing" textLength="14" x="476.5" y="926.2646">24</text><text fill="#000000" font-family="sans-serif" font-size="13" lengthAdjust="spacing" textLength="72" x="494.5" y="926.2646">rejectOrder()</text><polygon fill="#181818" points="927.5,958.8184,937.5,962.8184,927.5,966.8184,931.5,962.8184" style="stroke:#181818;stroke-width:1.0;"/><line style="stroke:#181818;stroke-width:1.0;" x1="628.5" x2="933.5" y1="962.8184" y2="962.8184"/><text fill="#000000" font-family="sans-serif" font-size="13" font-weight="bold" lengthAdjust="spacing" textLength="14" x="635.5" y="957.5557">25</text><text fill="#000000" font-family="sans-serif" font-size="13" lengthAdjust="spacing" textLength="72" x="653.5" y="957.5557">rejectOrder()</text><line style="stroke:#181818;stroke-width:1.0;" x1="949.5" x2="991.5" y1="994.1094" y2="994.1094"/><line style="stroke:#181818;stroke-width:1.0;" x1="991.5" x2="991.5" y1="994.1094" y2="1007.1094"/><line style="stroke:#181818;stroke-width:1.0;" x1="950.5" x2="991.5" y1="1007.1094" y2="1007.1094"/><polygon fill="#181818" points="960.5,1003.1094,950.5,1007.1094,960.5,1011.1094,956.5,1007.1094" style="stroke:#181818;stroke-width:1.0;"/><text fill="#000000" font-family="sans-serif" font-size="13" font-weight="bold" lengthAdjust="spacing" textLength="14" x="956.5" y="988.8467">26</text><text fill="#000000" font-family="sans-serif" font-size="13" lengthAdjust="spacing" textLength="153" x="974.5" y="988.8467">sendRejectEmailToClient()</text><polygon fill="#181818" points="639.5,1034.4004,629.5,1038.4004,639.5,1042.4004,635.5,1038.4004" style="stroke:#181818;stroke-width:1.0;"/><line style="stroke:#181818;stroke-width:1.0;" x1="633.5" x2="943.5" y1="1038.4004" y2="1038.4004"/><text fill="#000000" font-family="sans-serif" font-size="13" font-weight="bold" lengthAdjust="spacing" textLength="14" x="645.5" y="1033.1377">27</text><text fill="#000000" font-family="sans-serif" font-size="13" lengthAdjust="spacing" textLength="32" x="663.5" y="1033.1377">Order</text><polygon fill="#181818" points="480.5,1065.6914,470.5,1069.6914,480.5,1073.6914,476.5,1069.6914" style="stroke:#181818;stroke-width:1.0;"/><line style="stroke:#181818;stroke-width:1.0;" x1="474.5" x2="622.5" y1="1069.6914" y2="1069.6914"/><text fill="#000000" font-family="sans-serif" font-size="13" font-weight="bold" lengthAdjust="spacing" textLength="14" x="486.5" y="1064.4287">28</text><text fill="#000000" font-family="sans-serif" font-size="13" lengthAdjust="spacing" textLength="32" x="504.5" y="1064.4287">Order</text><polygon fill="#181818" points="37.5,1103.9824,27.5,1107.9824,37.5,1111.9824,33.5,1107.9824" style="stroke:#181818;stroke-width:1.0;"/><line style="stroke:#181818;stroke-width:1.0;stroke-dasharray:2.0,2.0;" x1="31.5" x2="463.5" y1="1107.9824" y2="1107.9824"/><text fill="#000000" font-family="sans-serif" font-size="13" font-weight="bold" lengthAdjust="spacing" textLength="14" x="43.5" y="1102.7197">29</text><text fill="#000000" font-family="sans-serif" font-size="13" lengthAdjust="spacing" textLength="147" x="61.5" y="1102.7197">shows operation success</text><!--SRC=[pLPDRzim3BtxLmYvR3li3-Gm8CrsAD0XHTRUTb5i9jOYYuQafFE_7oL_n79apsaxO3eb4lcUI3vIDaUXIgvvmGfKcEOQ2s1Mdo0ntKd9qoC_m0zRIM0QKilLGVODJCupV17gmFPS6aWIVhAeJiKET99yo4K6R8zeT_WxuQb5pHQh0oYxODomrTVl2Q5OaOgIAyiMoutEG9ldUt_yV1yzNQEo6gK4xQtMJzk7qAxKM8AsrHPAD88ug-LFzNYrwRslRKCiz9G1qcQmvN66TY4Apyv48WmK57e0jegVUCmHhyGbKfov1P_0XD6Y7-pp5yeOMvBdqJ2BB1EcbBnghiOAJgMWxLnqKGimthl3eupxZNOH7g6w31Fk0QmltMFd_F5JODt1-984Hsvv68AxJlaSy80WKhKhOxSYL9Tu-dpLWp0s2f71pQnje0sFGTqBwwxQo0oCfV0cdNqfRxxY9VEkT0JZX45NoF65D943amJ2SDzJW1U41bEYCc8dNRjgnbNMwSY01F9Ha0p8MhNqnUUCKrjpjVcgGS3lDMBaPoua9xRRzDUcecx1ryblsAapa0FqgqwFrkIAvH97I3MdglCe8xAhAUwgLO4dDKzoysyreJN6Ew4Dfe_JG9gZ0TN9urPPUSHQeMaAfNN3bmJyoni8EwqeBctZDg6qsi1dujqqDexvJkgASDP9sL3IlAJV0aK5orO-X6y5jUuJhgM0SKd5K4UUCmBFt8I1jY-29p6Igo1Veszar6la1YCXdoXUO_xM1ZVTO68iU6cyxoIuDFJyNcuNqCTS8w29JcaKDgBgjtVDDFw_wHedzQtdVRNK_zEIkf4fU-MCV2Eu5kHMe0haFvZElR_k2_GF]--></g></svg>