<?xml version="1.0" encoding="us-ascii" standalone="no"?><svg xmlns="http://www.w3.org/2000/svg" xmlns:xlink="http://www.w3.org/1999/xlink" contentStyleType="text/css" height="725px" preserveAspectRatio="none" style="width:884px;height:725px;background:#FFFFFF;" version="1.1" viewBox="0 0 884 725" width="884px" zoomAndPan="magnify"><defs/><g><rect fill="#FFFFFF" height="560.2871" style="stroke:#181818;stroke-width:1.0;" width="10" x="271" y="90.5332"/><rect fill="#FFFFFF" height="560.2871" style="stroke:#181818;stroke-width:1.0;" width="10" x="406" y="90.5332"/><rect fill="#FFFFFF" height="245.0371" style="stroke:#181818;stroke-width:1.0;" width="10" x="411" y="174.4063"/><rect fill="#FFFFFF" height="138.1641" style="stroke:#181818;stroke-width:1.0;" width="10" x="411" y="467.3652"/><rect fill="#FFFFFF" height="182.4551" style="stroke:#181818;stroke-width:1.0;" width="10" x="541" y="205.6973"/><rect fill="#FFFFFF" height="75.582" style="stroke:#181818;stroke-width:1.0;" width="10" x="541" y="498.6563"/><rect fill="#FFFFFF" height="31.291" style="stroke:#181818;stroke-width:1.0;" width="10" x="766" y="325.5703"/><rect fill="none" height="514.9961" style="stroke:#000000;stroke-width:1.5;" width="659.5" x="219" y="105.5332"/><rect fill="none" height="481.7051" style="stroke:#000000;stroke-width:1.5;" width="639.5" x="229" y="131.8242"/><line style="stroke:#181818;stroke-width:0.5;stroke-dasharray:5.0,5.0;" x1="276" x2="276" y1="57.2422" y2="668.8203"/><line style="stroke:#181818;stroke-width:0.5;stroke-dasharray:5.0,5.0;" x1="411" x2="411" y1="57.2422" y2="668.8203"/><line style="stroke:#181818;stroke-width:0.5;stroke-dasharray:5.0,5.0;" x1="546" x2="546" y1="57.2422" y2="668.8203"/><line style="stroke:#181818;stroke-width:0.5;stroke-dasharray:5.0,5.0;" x1="770.5" x2="770.5" y1="57.2422" y2="668.8203"/><rect fill="#E3E3E3" height="32.6211" rx="2.5" ry="2.5" style="stroke:#181818;stroke-width:0.5;" width="74" x="239" y="23.6211"/><text fill="#000000" font-family="sans-serif" font-size="14" lengthAdjust="spacing" textLength="60" x="246" y="45.7285">:OrdersUI</text><rect fill="#E3E3E3" height="32.6211" rx="2.5" ry="2.5" style="stroke:#181818;stroke-width:0.5;" width="74" x="239" y="667.8203"/><text fill="#000000" font-family="sans-serif" font-size="14" lengthAdjust="spacing" textLength="60" x="246" y="689.9277">:OrdersUI</text><rect fill="#E3E3E3" height="32.6211" rx="2.5" ry="2.5" style="stroke:#181818;stroke-width:0.5;" width="124" x="349" y="23.6211"/><text fill="#000000" font-family="sans-serif" font-size="14" lengthAdjust="spacing" textLength="110" x="356" y="45.7285">:OrdersController</text><rect fill="#E3E3E3" height="32.6211" rx="2.5" ry="2.5" style="stroke:#181818;stroke-width:0.5;" width="124" x="349" y="667.8203"/><text fill="#000000" font-family="sans-serif" font-size="14" lengthAdjust="spacing" textLength="110" x="356" y="689.9277">:OrdersController</text><rect fill="#E3E3E3" height="51.2422" rx="2.5" ry="2.5" style="stroke:#181818;stroke-width:0.5;" width="120" x="486" y="5"/><text fill="#000000" font-family="sans-serif" font-size="14" lengthAdjust="spacing" textLength="106" x="493" y="27.1074">orderRepository:</text><text fill="#000000" font-family="sans-serif" font-size="14" lengthAdjust="spacing" textLength="105" x="493.5" y="45.7285">OrderRepository</text><rect fill="#E3E3E3" height="51.2422" rx="2.5" ry="2.5" style="stroke:#181818;stroke-width:0.5;" width="120" x="486" y="667.8203"/><text fill="#000000" font-family="sans-serif" font-size="14" lengthAdjust="spacing" textLength="106" x="493" y="689.9277">orderRepository:</text><text fill="#000000" font-family="sans-serif" font-size="14" lengthAdjust="spacing" textLength="105" x="493.5" y="708.5488">OrderRepository</text><rect fill="#E3E3E3" height="51.2422" rx="2.5" ry="2.5" style="stroke:#181818;stroke-width:0.5;" width="175" x="683.5" y="5"/><text fill="#000000" font-family="sans-serif" font-size="14" lengthAdjust="spacing" textLength="161" x="690.5" y="27.1074">advertisementRepository:</text><text fill="#000000" font-family="sans-serif" font-size="14" lengthAdjust="spacing" textLength="158" x="692" y="45.7285">AdvertisementRepository</text><rect fill="#E3E3E3" height="51.2422" rx="2.5" ry="2.5" style="stroke:#181818;stroke-width:0.5;" width="175" x="683.5" y="667.8203"/><text fill="#000000" font-family="sans-serif" font-size="14" lengthAdjust="spacing" textLength="161" x="690.5" y="689.9277">advertisementRepository:</text><text fill="#000000" font-family="sans-serif" font-size="14" lengthAdjust="spacing" textLength="158" x="692" y="708.5488">AdvertisementRepository</text><rect fill="#FFFFFF" height="560.2871" style="stroke:#181818;stroke-width:1.0;" width="10" x="271" y="90.5332"/><rect fill="#FFFFFF" height="560.2871" style="stroke:#181818;stroke-width:1.0;" width="10" x="406" y="90.5332"/><rect fill="#FFFFFF" height="245.0371" style="stroke:#181818;stroke-width:1.0;" width="10" x="411" y="174.4063"/><rect fill="#FFFFFF" height="138.1641" style="stroke:#181818;stroke-width:1.0;" width="10" x="411" y="467.3652"/><rect fill="#FFFFFF" height="182.4551" style="stroke:#181818;stroke-width:1.0;" width="10" x="541" y="205.6973"/><rect fill="#FFFFFF" height="75.582" style="stroke:#181818;stroke-width:1.0;" width="10" x="541" y="498.6563"/><rect fill="#FFFFFF" height="31.291" style="stroke:#181818;stroke-width:1.0;" width="10" x="766" y="325.5703"/><polygon fill="#181818" points="259,86.5332,269,90.5332,259,94.5332,263,90.5332" style="stroke:#181818;stroke-width:1.0;"/><line style="stroke:#181818;stroke-width:1.0;" x1="0" x2="265" y1="90.5332" y2="90.5332"/><text fill="#000000" font-family="sans-serif" font-size="13" font-weight="bold" lengthAdjust="spacing" textLength="7" x="7" y="85.2705">3</text><text fill="#000000" font-family="sans-serif" font-size="13" lengthAdjust="spacing" textLength="241" x="18" y="85.2705">selects the order and accepts or rejects it</text><path d="M219,105.5332 L361,105.5332 L361,114.8242 L351,124.8242 L219,124.8242 L219,105.5332 " fill="#EEEEEE" style="stroke:#000000;stroke-width:1.5;"/><rect fill="none" height="514.9961" style="stroke:#000000;stroke-width:1.5;" width="659.5" x="219" y="105.5332"/><text fill="#000000" font-family="sans-serif" font-size="13" font-weight="bold" lengthAdjust="spacing" textLength="97" x="234" y="120.5615">Manage Orders</text><path d="M229,131.8242 L290,131.8242 L290,141.1152 L280,151.1152 L229,151.1152 L229,131.8242 " fill="#EEEEEE" style="stroke:#000000;stroke-width:1.5;"/><rect fill="none" height="481.7051" style="stroke:#000000;stroke-width:1.5;" width="639.5" x="229" y="131.8242"/><text fill="#000000" font-family="sans-serif" font-size="13" font-weight="bold" lengthAdjust="spacing" textLength="16" x="244" y="146.8525">alt</text><text fill="#000000" font-family="sans-serif" font-size="11" font-weight="bold" lengthAdjust="spacing" textLength="44" x="305" y="145.6943">[accept]</text><polygon fill="#181818" points="399,170.4063,409,174.4063,399,178.4063,403,174.4063" style="stroke:#181818;stroke-width:1.0;"/><line style="stroke:#181818;stroke-width:1.0;" x1="281" x2="405" y1="174.4063" y2="174.4063"/><text fill="#000000" font-family="sans-serif" font-size="13" font-weight="bold" lengthAdjust="spacing" textLength="18" x="288" y="169.1436">3.1</text><text fill="#000000" font-family="sans-serif" font-size="13" lengthAdjust="spacing" textLength="79" x="310" y="169.1436">acceptOrder()</text><polygon fill="#181818" points="529,201.6973,539,205.6973,529,209.6973,533,205.6973" style="stroke:#181818;stroke-width:1.0;"/><line style="stroke:#181818;stroke-width:1.0;" x1="421" x2="535" y1="205.6973" y2="205.6973"/><text fill="#000000" font-family="sans-serif" font-size="13" font-weight="bold" lengthAdjust="spacing" textLength="18" x="428" y="200.4346">3.2</text><text fill="#000000" font-family="sans-serif" font-size="13" lengthAdjust="spacing" textLength="79" x="450" y="200.4346">acceptOrder()</text><line style="stroke:#181818;stroke-width:1.0;" x1="551" x2="593" y1="236.9883" y2="236.9883"/><line style="stroke:#181818;stroke-width:1.0;" x1="593" x2="593" y1="236.9883" y2="249.9883"/><line style="stroke:#181818;stroke-width:1.0;" x1="552" x2="593" y1="249.9883" y2="249.9883"/><polygon fill="#181818" points="562,245.9883,552,249.9883,562,253.9883,558,249.9883" style="stroke:#181818;stroke-width:1.0;"/><text fill="#000000" font-family="sans-serif" font-size="13" font-weight="bold" lengthAdjust="spacing" textLength="18" x="558" y="231.7256">3.3</text><text fill="#000000" font-family="sans-serif" font-size="13" lengthAdjust="spacing" textLength="79" x="580" y="231.7256">rejectOthers()</text><line style="stroke:#181818;stroke-width:1.0;" x1="551" x2="593" y1="281.2793" y2="281.2793"/><line style="stroke:#181818;stroke-width:1.0;" x1="593" x2="593" y1="281.2793" y2="294.2793"/><line style="stroke:#181818;stroke-width:1.0;" x1="552" x2="593" y1="294.2793" y2="294.2793"/><polygon fill="#181818" points="562,290.2793,552,294.2793,562,298.2793,558,294.2793" style="stroke:#181818;stroke-width:1.0;"/><text fill="#000000" font-family="sans-serif" font-size="13" font-weight="bold" lengthAdjust="spacing" textLength="18" x="558" y="276.0166">3.4</text><text fill="#000000" font-family="sans-serif" font-size="13" lengthAdjust="spacing" textLength="157" x="580" y="276.0166">sendAcceptEmailToClient()</text><polygon fill="#181818" points="754,321.5703,764,325.5703,754,329.5703,758,325.5703" style="stroke:#181818;stroke-width:1.0;"/><line style="stroke:#181818;stroke-width:1.0;" x1="551" x2="760" y1="325.5703" y2="325.5703"/><text fill="#000000" font-family="sans-serif" font-size="13" font-weight="bold" lengthAdjust="spacing" textLength="18" x="558" y="320.3076">3.5</text><text fill="#000000" font-family="sans-serif" font-size="13" lengthAdjust="spacing" textLength="174" x="580" y="320.3076">deletePropertyAdvertisement()</text><polygon fill="#181818" points="562,352.8613,552,356.8613,562,360.8613,558,356.8613" style="stroke:#181818;stroke-width:1.0;"/><line style="stroke:#181818;stroke-width:1.0;" x1="556" x2="770" y1="356.8613" y2="356.8613"/><text fill="#000000" font-family="sans-serif" font-size="13" font-weight="bold" lengthAdjust="spacing" textLength="18" x="568" y="351.5986">3.6</text><text fill="#000000" font-family="sans-serif" font-size="13" lengthAdjust="spacing" textLength="49" x="590" y="351.5986">success</text><polygon fill="#181818" points="432,384.1523,422,388.1523,432,392.1523,428,388.1523" style="stroke:#181818;stroke-width:1.0;"/><line style="stroke:#181818;stroke-width:1.0;" x1="426" x2="545" y1="388.1523" y2="388.1523"/><text fill="#000000" font-family="sans-serif" font-size="13" font-weight="bold" lengthAdjust="spacing" textLength="18" x="438" y="382.8896">3.7</text><text fill="#000000" font-family="sans-serif" font-size="13" lengthAdjust="spacing" textLength="32" x="460" y="382.8896">Order</text><polygon fill="#181818" points="292,415.4434,282,419.4434,292,423.4434,288,419.4434" style="stroke:#181818;stroke-width:1.0;"/><line style="stroke:#181818;stroke-width:1.0;" x1="286" x2="405" y1="419.4434" y2="419.4434"/><text fill="#000000" font-family="sans-serif" font-size="13" font-weight="bold" lengthAdjust="spacing" textLength="18" x="298" y="414.1807">3.8</text><text fill="#000000" font-family="sans-serif" font-size="13" lengthAdjust="spacing" textLength="32" x="320" y="414.1807">Order</text><line style="stroke:#000000;stroke-width:1.0;stroke-dasharray:2.0,2.0;" x1="229" x2="868.5" y1="428.4434" y2="428.4434"/><text fill="#000000" font-family="sans-serif" font-size="11" font-weight="bold" lengthAdjust="spacing" textLength="40" x="234" y="440.3135">[reject]</text><polygon fill="#181818" points="399,463.3652,409,467.3652,399,471.3652,403,467.3652" style="stroke:#181818;stroke-width:1.0;"/><line style="stroke:#181818;stroke-width:1.0;" x1="281" x2="405" y1="467.3652" y2="467.3652"/><text fill="#000000" font-family="sans-serif" font-size="13" font-weight="bold" lengthAdjust="spacing" textLength="18" x="288" y="462.1025">3.9</text><text fill="#000000" font-family="sans-serif" font-size="13" lengthAdjust="spacing" textLength="72" x="310" y="462.1025">rejectOrder()</text><polygon fill="#181818" points="529,494.6563,539,498.6563,529,502.6563,533,498.6563" style="stroke:#181818;stroke-width:1.0;"/><line style="stroke:#181818;stroke-width:1.0;" x1="421" x2="535" y1="498.6563" y2="498.6563"/><text fill="#000000" font-family="sans-serif" font-size="13" font-weight="bold" lengthAdjust="spacing" textLength="25" x="428" y="493.3936">3.10</text><text fill="#000000" font-family="sans-serif" font-size="13" lengthAdjust="spacing" textLength="72" x="457" y="493.3936">rejectOrder()</text><line style="stroke:#181818;stroke-width:1.0;" x1="551" x2="593" y1="529.9473" y2="529.9473"/><line style="stroke:#181818;stroke-width:1.0;" x1="593" x2="593" y1="529.9473" y2="542.9473"/><line style="stroke:#181818;stroke-width:1.0;" x1="552" x2="593" y1="542.9473" y2="542.9473"/><polygon fill="#181818" points="562,538.9473,552,542.9473,562,546.9473,558,542.9473" style="stroke:#181818;stroke-width:1.0;"/><text fill="#000000" font-family="sans-serif" font-size="13" font-weight="bold" lengthAdjust="spacing" textLength="25" x="558" y="524.6846">3.11</text><text fill="#000000" font-family="sans-serif" font-size="13" lengthAdjust="spacing" textLength="153" x="587" y="524.6846">sendRejectEmailToClient()</text><polygon fill="#181818" points="432,570.2383,422,574.2383,432,578.2383,428,574.2383" style="stroke:#181818;stroke-width:1.0;"/><line style="stroke:#181818;stroke-width:1.0;" x1="426" x2="545" y1="574.2383" y2="574.2383"/><text fill="#000000" font-family="sans-serif" font-size="13" font-weight="bold" lengthAdjust="spacing" textLength="25" x="438" y="568.9756">3.12</text><text fill="#000000" font-family="sans-serif" font-size="13" lengthAdjust="spacing" textLength="32" x="467" y="568.9756">Order</text><polygon fill="#181818" points="292,601.5293,282,605.5293,292,609.5293,288,605.5293" style="stroke:#181818;stroke-width:1.0;"/><line style="stroke:#181818;stroke-width:1.0;" x1="286" x2="405" y1="605.5293" y2="605.5293"/><text fill="#000000" font-family="sans-serif" font-size="13" font-weight="bold" lengthAdjust="spacing" textLength="25" x="298" y="600.2666">3.13</text><text fill="#000000" font-family="sans-serif" font-size="13" lengthAdjust="spacing" textLength="32" x="327" y="600.2666">Order</text><polygon fill="#181818" points="11,646.8203,1,650.8203,11,654.8203,7,650.8203" style="stroke:#181818;stroke-width:1.0;"/><line style="stroke:#181818;stroke-width:1.0;stroke-dasharray:2.0,2.0;" x1="5" x2="275" y1="650.8203" y2="650.8203"/><text fill="#000000" font-family="sans-serif" font-size="13" font-weight="bold" lengthAdjust="spacing" textLength="7" x="17" y="645.5576">4</text><text fill="#000000" font-family="sans-serif" font-size="13" lengthAdjust="spacing" textLength="147" x="28" y="645.5576">shows operation success</text><!--SRC=[rLMnJiCm4Dtz5HOJ34L2C5K82LKCIA2YKZQM8pbQKyUEx4kh_Zrd9rHrcxI5me0t-yxlNfxVvVnCcH8S5BAmncPJPmkKv2eKVXKf8Pl119zfgL4wp0ZCHAyd-2daTg7CHBw3zYW47vFAL0c6v4b_w79q_kN-H8ANB_UjqO4rvApMw6BMO3nwIFDiI1jXQRqYwvRzLpDCJ-AzZQmK0l8vyjPZWOOIgDlsI8Jik2M4W8gigOetTF9IYDuDVvliIu-Q9VAIfbZJaM1o2Lc69GM2hE17J50a92_8ICs1C2YJG9vVY5KiwX6o9yvMfNm4mmyYQ-b43DGBD3Mbra_N5tDafW6FkTQf4URqhED2og4ZAQo8oTWRRt1WcQJKvZFkk1FMPiLM4hNiGtuMvvd5Rq1wDFbj_BQx0fGUsu5MR98VeNVOZAlaR2Z29sTBJbWcLjsfPg9efulttEzWrIv7nLfulmSonsD9jQZN-3bQxF3wtxJPby5Zct-prAxcGVvdDlOyg6iR9-zjfr_iu4DB_ca7XtORHIB7jzl_DamOABenIzZ4gL1FazK0kOhxwrwl6KjJk-3nm_yG86NDLhEkbUP1j4Na4m00]--></g></svg>