<?xml version="1.0" encoding="us-ascii" standalone="no"?><svg xmlns="http://www.w3.org/2000/svg" xmlns:xlink="http://www.w3.org/1999/xlink" contentStyleType="text/css" height="378px" preserveAspectRatio="none" style="width:694px;height:378px;background:#FFFFFF;" version="1.1" viewBox="0 0 694 378" width="694px" zoomAndPan="magnify"><defs/><g><!--class OrdersUI--><g id="elem_OrdersUI"><rect codeLine="11" fill="#F1F1F1" height="48" id="OrdersUI" rx="2.5" ry="2.5" style="stroke:#181818;stroke-width:0.5;" width="88" x="7" y="165.5"/><ellipse cx="22" cy="181.5" fill="#ADD1B2" rx="11" ry="11" style="stroke:#181818;stroke-width:1.0;"/><path d="M24.7656,177.375 Q24.9219,177.1563 25.1094,177.0469 Q25.2969,176.9375 25.5156,176.9375 Q25.8906,176.9375 26.125,177.2031 Q26.3594,177.4531 26.3594,178.0625 L26.3594,179.5156 Q26.3594,180.125 26.125,180.3906 Q25.8906,180.6563 25.5156,180.6563 Q25.1719,180.6563 24.9688,180.4531 Q24.7656,180.2656 24.6563,179.75 Q24.6094,179.3906 24.4219,179.2031 Q24.0938,178.8281 23.4844,178.6094 Q22.875,178.3906 22.25,178.3906 Q21.4844,178.3906 20.8438,178.7188 Q20.2188,179.0469 19.7188,179.7969 Q19.2344,180.5469 19.2344,181.5781 L19.2344,182.6719 Q19.2344,183.9063 20.125,184.7344 Q21.0156,185.5469 22.6094,185.5469 Q23.5469,185.5469 24.2031,185.2969 Q24.5938,185.1406 25.0156,184.7031 Q25.2813,184.4375 25.4219,184.3594 Q25.5781,184.2813 25.7813,184.2813 Q26.1094,184.2813 26.3594,184.5469 Q26.625,184.7969 26.625,185.1406 Q26.625,185.4844 26.2813,185.8906 Q25.7813,186.4688 24.9844,186.7969 Q23.9063,187.25 22.6094,187.25 Q21.0938,187.25 19.8906,186.625 Q18.9063,186.125 18.2188,185.0625 Q17.5313,183.9844 17.5313,182.7031 L17.5313,181.5469 Q17.5313,180.2188 18.1406,179.0781 Q18.7656,177.9219 19.8594,177.3125 Q20.9531,176.6875 22.1875,176.6875 Q22.9219,176.6875 23.5625,176.8594 Q24.2188,177.0156 24.7656,177.375 Z " fill="#000000"/><text fill="#000000" font-family="sans-serif" font-size="14" lengthAdjust="spacing" textLength="56" x="36" y="187.2969">OrdersUI</text><line style="stroke:#181818;stroke-width:0.5;" x1="8" x2="94" y1="197.5" y2="197.5"/><line style="stroke:#181818;stroke-width:0.5;" x1="8" x2="94" y1="205.5" y2="205.5"/></g><!--class OrdersController--><g id="elem_OrdersController"><rect codeLine="13" fill="#F1F1F1" height="159.7266" id="OrdersController" rx="2.5" ry="2.5" style="stroke:#181818;stroke-width:0.5;" width="176" x="156" y="109.5"/><ellipse cx="188.1" cy="125.5" fill="#ADD1B2" rx="11" ry="11" style="stroke:#181818;stroke-width:1.0;"/><path d="M190.8656,121.375 Q191.0219,121.1563 191.2094,121.0469 Q191.3969,120.9375 191.6156,120.9375 Q191.9906,120.9375 192.225,121.2031 Q192.4594,121.4531 192.4594,122.0625 L192.4594,123.5156 Q192.4594,124.125 192.225,124.3906 Q191.9906,124.6563 191.6156,124.6563 Q191.2719,124.6563 191.0688,124.4531 Q190.8656,124.2656 190.7563,123.75 Q190.7094,123.3906 190.5219,123.2031 Q190.1938,122.8281 189.5844,122.6094 Q188.975,122.3906 188.35,122.3906 Q187.5844,122.3906 186.9438,122.7188 Q186.3188,123.0469 185.8188,123.7969 Q185.3344,124.5469 185.3344,125.5781 L185.3344,126.6719 Q185.3344,127.9063 186.225,128.7344 Q187.1156,129.5469 188.7094,129.5469 Q189.6469,129.5469 190.3031,129.2969 Q190.6938,129.1406 191.1156,128.7031 Q191.3813,128.4375 191.5219,128.3594 Q191.6781,128.2813 191.8813,128.2813 Q192.2094,128.2813 192.4594,128.5469 Q192.725,128.7969 192.725,129.1406 Q192.725,129.4844 192.3813,129.8906 Q191.8813,130.4688 191.0844,130.7969 Q190.0063,131.25 188.7094,131.25 Q187.1938,131.25 185.9906,130.625 Q185.0063,130.125 184.3188,129.0625 Q183.6313,127.9844 183.6313,126.7031 L183.6313,125.5469 Q183.6313,124.2188 184.2406,123.0781 Q184.8656,121.9219 185.9594,121.3125 Q187.0531,120.6875 188.2875,120.6875 Q189.0219,120.6875 189.6625,120.8594 Q190.3188,121.0156 190.8656,121.375 Z " fill="#000000"/><text fill="#000000" font-family="sans-serif" font-size="14" lengthAdjust="spacing" textLength="106" x="205.9" y="131.2969">OrdersController</text><line style="stroke:#181818;stroke-width:0.5;" x1="157" x2="331" y1="141.5" y2="141.5"/><line style="stroke:#181818;stroke-width:0.5;" x1="157" x2="331" y1="149.5" y2="149.5"/><text fill="#000000" font-family="sans-serif" font-size="14" lengthAdjust="spacing" textLength="140" x="162" y="168.6074">+getAgentProperties()</text><text fill="#000000" font-family="sans-serif" font-size="14" lengthAdjust="spacing" textLength="136" x="162" y="187.2285">+getPropertyOrders()</text><text fill="#000000" font-family="sans-serif" font-size="14" lengthAdjust="spacing" textLength="97" x="162" y="205.8496">+acceptOrder()</text><text fill="#000000" font-family="sans-serif" font-size="14" lengthAdjust="spacing" textLength="90" x="162" y="224.4707">+rejectOrder()</text><text fill="#000000" font-family="sans-serif" font-size="14" lengthAdjust="spacing" textLength="164" x="162" y="243.0918">+sortPropertiesByOldest()</text><text fill="#000000" font-family="sans-serif" font-size="14" lengthAdjust="spacing" textLength="150" x="162" y="261.7129">+sortOrdersByAmount()</text></g><!--class PropertyRepository--><g id="elem_PropertyRepository"><rect codeLine="22" fill="#F1F1F1" height="66.6211" id="PropertyRepository" rx="2.5" ry="2.5" style="stroke:#181818;stroke-width:0.5;" width="154" x="503.5" y="7"/><ellipse cx="518.5" cy="23" fill="#ADD1B2" rx="11" ry="11" style="stroke:#181818;stroke-width:1.0;"/><path d="M521.2656,18.875 Q521.4219,18.6563 521.6094,18.5469 Q521.7969,18.4375 522.0156,18.4375 Q522.3906,18.4375 522.625,18.7031 Q522.8594,18.9531 522.8594,19.5625 L522.8594,21.0156 Q522.8594,21.625 522.625,21.8906 Q522.3906,22.1563 522.0156,22.1563 Q521.6719,22.1563 521.4688,21.9531 Q521.2656,21.7656 521.1563,21.25 Q521.1094,20.8906 520.9219,20.7031 Q520.5938,20.3281 519.9844,20.1094 Q519.375,19.8906 518.75,19.8906 Q517.9844,19.8906 517.3438,20.2188 Q516.7188,20.5469 516.2188,21.2969 Q515.7344,22.0469 515.7344,23.0781 L515.7344,24.1719 Q515.7344,25.4063 516.625,26.2344 Q517.5156,27.0469 519.1094,27.0469 Q520.0469,27.0469 520.7031,26.7969 Q521.0938,26.6406 521.5156,26.2031 Q521.7813,25.9375 521.9219,25.8594 Q522.0781,25.7813 522.2813,25.7813 Q522.6094,25.7813 522.8594,26.0469 Q523.125,26.2969 523.125,26.6406 Q523.125,26.9844 522.7813,27.3906 Q522.2813,27.9688 521.4844,28.2969 Q520.4063,28.75 519.1094,28.75 Q517.5938,28.75 516.3906,28.125 Q515.4063,27.625 514.7188,26.5625 Q514.0313,25.4844 514.0313,24.2031 L514.0313,23.0469 Q514.0313,21.7188 514.6406,20.5781 Q515.2656,19.4219 516.3594,18.8125 Q517.4531,18.1875 518.6875,18.1875 Q519.4219,18.1875 520.0625,18.3594 Q520.7188,18.5156 521.2656,18.875 Z " fill="#000000"/><text fill="#000000" font-family="sans-serif" font-size="14" lengthAdjust="spacing" textLength="122" x="532.5" y="28.7969">PropertyRepository</text><line style="stroke:#181818;stroke-width:0.5;" x1="504.5" x2="656.5" y1="39" y2="39"/><line style="stroke:#181818;stroke-width:0.5;" x1="504.5" x2="656.5" y1="47" y2="47"/><text fill="#000000" font-family="sans-serif" font-size="14" lengthAdjust="spacing" textLength="140" x="509.5" y="66.1074">+getAgentProperties()</text></g><!--class OrdersRepositorie--><g id="elem_OrdersRepositorie"><rect codeLine="26" fill="#F1F1F1" height="159.7266" id="OrdersRepositorie" rx="2.5" ry="2.5" style="stroke:#181818;stroke-width:0.5;" width="191" x="485" y="109.5"/><ellipse cx="519.35" cy="125.5" fill="#ADD1B2" rx="11" ry="11" style="stroke:#181818;stroke-width:1.0;"/><path d="M522.1156,121.375 Q522.2719,121.1563 522.4594,121.0469 Q522.6469,120.9375 522.8656,120.9375 Q523.2406,120.9375 523.475,121.2031 Q523.7094,121.4531 523.7094,122.0625 L523.7094,123.5156 Q523.7094,124.125 523.475,124.3906 Q523.2406,124.6563 522.8656,124.6563 Q522.5219,124.6563 522.3188,124.4531 Q522.1156,124.2656 522.0063,123.75 Q521.9594,123.3906 521.7719,123.2031 Q521.4438,122.8281 520.8344,122.6094 Q520.225,122.3906 519.6,122.3906 Q518.8344,122.3906 518.1938,122.7188 Q517.5688,123.0469 517.0688,123.7969 Q516.5844,124.5469 516.5844,125.5781 L516.5844,126.6719 Q516.5844,127.9063 517.475,128.7344 Q518.3656,129.5469 519.9594,129.5469 Q520.8969,129.5469 521.5531,129.2969 Q521.9438,129.1406 522.3656,128.7031 Q522.6313,128.4375 522.7719,128.3594 Q522.9281,128.2813 523.1313,128.2813 Q523.4594,128.2813 523.7094,128.5469 Q523.975,128.7969 523.975,129.1406 Q523.975,129.4844 523.6313,129.8906 Q523.1313,130.4688 522.3344,130.7969 Q521.2563,131.25 519.9594,131.25 Q518.4438,131.25 517.2406,130.625 Q516.2563,130.125 515.5688,129.0625 Q514.8813,127.9844 514.8813,126.7031 L514.8813,125.5469 Q514.8813,124.2188 515.4906,123.0781 Q516.1156,121.9219 517.2094,121.3125 Q518.3031,120.6875 519.5375,120.6875 Q520.2719,120.6875 520.9125,120.8594 Q521.5688,121.0156 522.1156,121.375 Z " fill="#000000"/><text fill="#000000" font-family="sans-serif" font-size="14" lengthAdjust="spacing" textLength="116" x="537.65" y="131.2969">OrdersRepositorie</text><line style="stroke:#181818;stroke-width:0.5;" x1="486" x2="675" y1="141.5" y2="141.5"/><line style="stroke:#181818;stroke-width:0.5;" x1="486" x2="675" y1="149.5" y2="149.5"/><text fill="#000000" font-family="sans-serif" font-size="14" lengthAdjust="spacing" textLength="136" x="491" y="168.6074">+getPropertyOrders()</text><text fill="#000000" font-family="sans-serif" font-size="14" lengthAdjust="spacing" textLength="96" x="491" y="187.2285">+rejectOthers()</text><text fill="#000000" font-family="sans-serif" font-size="14" lengthAdjust="spacing" textLength="179" x="491" y="205.8496">+sendAcceptEmailToClient()</text><text fill="#000000" font-family="sans-serif" font-size="14" lengthAdjust="spacing" textLength="140" x="491" y="224.4707">+getAgentProperties()</text><text fill="#000000" font-family="sans-serif" font-size="14" lengthAdjust="spacing" textLength="90" x="491" y="243.0918">+rejectOrder()</text><text fill="#000000" font-family="sans-serif" font-size="14" lengthAdjust="spacing" textLength="176" x="491" y="261.7129">+sendRejectEmailToClient()</text></g><!--class AdvertisementRepository--><g id="elem_AdvertisementRepository"><rect codeLine="35" fill="#F1F1F1" height="66.6211" id="AdvertisementRepository" rx="2.5" ry="2.5" style="stroke:#181818;stroke-width:0.5;" width="213" x="474" y="305"/><ellipse cx="499.35" cy="321" fill="#ADD1B2" rx="11" ry="11" style="stroke:#181818;stroke-width:1.0;"/><path d="M502.1156,316.875 Q502.2719,316.6563 502.4594,316.5469 Q502.6469,316.4375 502.8656,316.4375 Q503.2406,316.4375 503.475,316.7031 Q503.7094,316.9531 503.7094,317.5625 L503.7094,319.0156 Q503.7094,319.625 503.475,319.8906 Q503.2406,320.1563 502.8656,320.1563 Q502.5219,320.1563 502.3188,319.9531 Q502.1156,319.7656 502.0063,319.25 Q501.9594,318.8906 501.7719,318.7031 Q501.4438,318.3281 500.8344,318.1094 Q500.225,317.8906 499.6,317.8906 Q498.8344,317.8906 498.1938,318.2188 Q497.5688,318.5469 497.0688,319.2969 Q496.5844,320.0469 496.5844,321.0781 L496.5844,322.1719 Q496.5844,323.4063 497.475,324.2344 Q498.3656,325.0469 499.9594,325.0469 Q500.8969,325.0469 501.5531,324.7969 Q501.9438,324.6406 502.3656,324.2031 Q502.6313,323.9375 502.7719,323.8594 Q502.9281,323.7813 503.1313,323.7813 Q503.4594,323.7813 503.7094,324.0469 Q503.975,324.2969 503.975,324.6406 Q503.975,324.9844 503.6313,325.3906 Q503.1313,325.9688 502.3344,326.2969 Q501.2563,326.75 499.9594,326.75 Q498.4438,326.75 497.2406,326.125 Q496.2563,325.625 495.5688,324.5625 Q494.8813,323.4844 494.8813,322.2031 L494.8813,321.0469 Q494.8813,319.7188 495.4906,318.5781 Q496.1156,317.4219 497.2094,316.8125 Q498.3031,316.1875 499.5375,316.1875 Q500.2719,316.1875 500.9125,316.3594 Q501.5688,316.5156 502.1156,316.875 Z " fill="#000000"/><text fill="#000000" font-family="sans-serif" font-size="14" lengthAdjust="spacing" textLength="158" x="515.65" y="326.7969">AdvertisementRepository</text><line style="stroke:#181818;stroke-width:0.5;" x1="475" x2="686" y1="337" y2="337"/><line style="stroke:#181818;stroke-width:0.5;" x1="475" x2="686" y1="345" y2="345"/><text fill="#000000" font-family="sans-serif" font-size="14" lengthAdjust="spacing" textLength="201" x="480" y="364.1074">+deletePropertyAdvertisement()</text></g><!--link OrdersUI to OrdersController--><g id="link_OrdersUI_OrdersController"><path codeLine="39" d="M95.34,189.5 C111.74,189.5 131.1,189.5 150.31,189.5 " fill="none" id="OrdersUI-to-OrdersController" style="stroke:#181818;stroke-width:1.0;stroke-dasharray:7.0,7.0;"/><polygon fill="#181818" points="155.72,189.5,146.72,185.5,150.72,189.5,146.72,193.5,155.72,189.5" style="stroke:#181818;stroke-width:1.0;"/></g><!--link OrdersController to PropertyRepository--><g id="link_OrdersController_PropertyRepository"><path codeLine="41" d="M332.01,150.74 C383.77,127.69 448.96,98.65 499.44,76.16 " fill="none" id="OrdersController-to-PropertyRepository" style="stroke:#181818;stroke-width:1.0;stroke-dasharray:7.0,7.0;"/><polygon fill="#181818" points="504.28,74.01,494.4312,74.03,499.7151,76.05,497.6951,81.3339,504.28,74.01" style="stroke:#181818;stroke-width:1.0;"/><text fill="#000000" font-family="sans-serif" font-size="13" lengthAdjust="spacing" textLength="47" x="379.5" y="98.5283">property</text></g><!--link OrdersController to OrdersRepositorie--><g id="link_OrdersController_OrdersRepositorie"><path codeLine="42" d="M332.01,189.5 C377.3,189.5 432.88,189.5 479.89,189.5 " fill="none" id="OrdersController-to-OrdersRepositorie" style="stroke:#181818;stroke-width:1.0;stroke-dasharray:7.0,7.0;"/><polygon fill="#181818" points="484.99,189.5,475.99,185.5,479.99,189.5,475.99,193.5,484.99,189.5" style="stroke:#181818;stroke-width:1.0;"/><text fill="#000000" font-family="sans-serif" font-size="13" lengthAdjust="spacing" textLength="29" x="388.5" y="185.5283">order</text></g><!--link OrdersController to AdvertisementRepository--><g id="link_OrdersController_AdvertisementRepository"><path codeLine="43" d="M332.01,228.26 C383.77,251.31 448.96,280.35 499.44,302.84 " fill="none" id="OrdersController-to-AdvertisementRepository" style="stroke:#181818;stroke-width:1.0;stroke-dasharray:7.0,7.0;"/><polygon fill="#181818" points="504.28,304.99,497.6951,297.6661,499.7151,302.95,494.4312,304.97,504.28,304.99" style="stroke:#181818;stroke-width:1.0;"/><text fill="#000000" font-family="sans-serif" font-size="13" lengthAdjust="spacing" textLength="80" x="363" y="238.5283">advertisement</text></g><!--SRC=[VLBBJiCm4BpxA_PM45B5kGUajEBGKr4B7s3YRMBgUAtr5XHG_vqaRLub9JVFx8ndrfd5W_L1iowW84zfpbGW21zHzKpGwK5dk9FI8J2cedtcXWCnruQ-hCzWhrqSCivwb38W179bVL2p2P9OI0rKgTCn9Y9itu-2wvJypduZF2hbS2yW16opNC3OEeqbhrGZWGqRvFYs7fzNv8N9EUGV1TNt01bAag6N5wQ0B1RZtNrFNT3ohEuOdQOOf04xZF6ZIZ36ObMdDrwM6sSmoeW-Eo_BfA2ZhwbJcxYzUuk1eXNY4luDVHfNxMGMXxeRZIxf9H-24Rr9cghFXRRkbLREefVXWcxjRd8RbTssmQ_jkkY9-QoD8XOLCL7Se4F1jiDe-cpJFZlCvq_NJzwoFL9FJUrv0U42Jal-RdXH_RaLDZr-gzK2z91HIlq2]--></g></svg>