<?xml version="1.0" encoding="us-ascii" standalone="no"?><svg xmlns="http://www.w3.org/2000/svg" xmlns:xlink="http://www.w3.org/1999/xlink" contentStyleType="text/css" height="1225px" preserveAspectRatio="none" style="width:1437px;height:1225px;background:#FFFFFF;" version="1.1" viewBox="0 0 1437 1225" width="1437px" zoomAndPan="magnify"><defs/><g><rect fill="#FFFFFF" height="1031.1563" style="stroke:#181818;stroke-width:1.0;" width="10" x="38.5" y="93.6211"/><rect fill="#FFFFFF" height="74.9121" style="stroke:#181818;stroke-width:1.0;" width="10" x="675.5" y="116.9121"/><rect fill="#FFFFFF" height="31.291" style="stroke:#181818;stroke-width:1.0;" width="10" x="675.5" y="223.1152"/><rect fill="#FFFFFF" height="222.5898" style="stroke:#181818;stroke-width:1.0;" width="10" x="675.5" y="285.6973"/><rect fill="#FFFFFF" height="31.291" style="stroke:#181818;stroke-width:1.0;" width="10" x="675.5" y="546.5781"/><rect fill="#FFFFFF" height="156.4551" style="stroke:#181818;stroke-width:1.0;" width="10" x="675.5" y="609.1602"/><rect fill="#FFFFFF" height="327.8711" style="stroke:#181818;stroke-width:1.0;" width="10" x="675.5" y="796.9063"/><rect fill="#FFFFFF" height="93.873" style="stroke:#181818;stroke-width:1.0;" width="10" x="919.5" y="640.4512"/><rect fill="#FFFFFF" height="265.2891" style="stroke:#181818;stroke-width:1.0;" width="10" x="919.5" y="828.1973"/><rect fill="#FFFFFF" height="202.707" style="stroke:#181818;stroke-width:1.0;" width="10" x="1111.5" y="859.4883"/><rect fill="#FFFFFF" height="31.291" style="stroke:#181818;stroke-width:1.0;" width="10" x="1271" y="671.7422"/><rect fill="#FFFFFF" height="81.873" style="stroke:#181818;stroke-width:1.0;" width="10" x="1376.5" y="949.0313"/><rect fill="none" height="215.5898" style="stroke:#000000;stroke-width:1.5;" width="743.5" x="10" y="300.6973"/><line style="stroke:#181818;stroke-width:0.5;stroke-dasharray:5.0,5.0;" x1="43" x2="43" y1="83.6211" y2="1142.7773"/><line style="stroke:#181818;stroke-width:0.5;stroke-dasharray:5.0,5.0;" x1="680.5" x2="680.5" y1="83.6211" y2="1142.7773"/><line style="stroke:#181818;stroke-width:0.5;stroke-dasharray:5.0,5.0;" x1="924.5" x2="924.5" y1="156.7227" y2="1142.7773"/><line style="stroke:#181818;stroke-width:0.5;stroke-dasharray:5.0,5.0;" x1="1116.5" x2="1116.5" y1="83.6211" y2="1142.7773"/><line style="stroke:#181818;stroke-width:0.5;stroke-dasharray:5.0,5.0;" x1="1275.5" x2="1275.5" y1="83.6211" y2="1142.7773"/><line style="stroke:#181818;stroke-width:0.5;stroke-dasharray:5.0,5.0;" x1="1381.5" x2="1381.5" y1="947.5508" y2="1142.7773"/><text fill="#000000" font-family="sans-serif" font-size="14" lengthAdjust="spacing" textLength="41" x="20" y="80.1074">Owner</text><ellipse cx="43.5" cy="13.5" fill="#E3E3E3" rx="8" ry="8" style="stroke:#181818;stroke-width:0.5;"/><path d="M43.5,21.5 L43.5,48.5 M30.5,29.5 L56.5,29.5 M43.5,48.5 L30.5,63.5 M43.5,48.5 L56.5,63.5 " fill="none" style="stroke:#181818;stroke-width:0.5;"/><text fill="#000000" font-family="sans-serif" font-size="14" lengthAdjust="spacing" textLength="41" x="20" y="1156.8848">Owner</text><ellipse cx="43.5" cy="1168.8984" fill="#E3E3E3" rx="8" ry="8" style="stroke:#181818;stroke-width:0.5;"/><path d="M43.5,1176.8984 L43.5,1203.8984 M30.5,1184.8984 L56.5,1184.8984 M43.5,1203.8984 L30.5,1218.8984 M43.5,1203.8984 L56.5,1218.8984 " fill="none" style="stroke:#181818;stroke-width:0.5;"/><rect fill="#E3E3E3" height="32.6211" rx="2.5" ry="2.5" style="stroke:#181818;stroke-width:0.5;" width="126" x="617.5" y="50"/><text fill="#000000" font-family="sans-serif" font-size="14" lengthAdjust="spacing" textLength="112" x="624.5" y="72.1074">:CreateRequestUI</text><rect fill="#E3E3E3" height="32.6211" rx="2.5" ry="2.5" style="stroke:#181818;stroke-width:0.5;" width="126" x="617.5" y="1141.7773"/><text fill="#000000" font-family="sans-serif" font-size="14" lengthAdjust="spacing" textLength="112" x="624.5" y="1163.8848">:CreateRequestUI</text><rect fill="#E3E3E3" height="32.6211" rx="2.5" ry="2.5" style="stroke:#181818;stroke-width:0.5;" width="176" x="836.5" y="1141.7773"/><text fill="#000000" font-family="sans-serif" font-size="14" lengthAdjust="spacing" textLength="162" x="843.5" y="1163.8848">:CreateRequestController</text><rect fill="#E3E3E3" height="51.2422" rx="2.5" ry="2.5" style="stroke:#181818;stroke-width:0.5;" width="176" x="1028.5" y="31.3789"/><text fill="#000000" font-family="sans-serif" font-size="14" lengthAdjust="spacing" textLength="162" x="1035.5" y="53.4863">AdvertisementRepository:</text><text fill="#000000" font-family="sans-serif" font-size="14" lengthAdjust="spacing" textLength="158" x="1037.5" y="72.1074">AdvertisementRepository</text><rect fill="#E3E3E3" height="51.2422" rx="2.5" ry="2.5" style="stroke:#181818;stroke-width:0.5;" width="176" x="1028.5" y="1141.7773"/><text fill="#000000" font-family="sans-serif" font-size="14" lengthAdjust="spacing" textLength="162" x="1035.5" y="1163.8848">AdvertisementRepository:</text><text fill="#000000" font-family="sans-serif" font-size="14" lengthAdjust="spacing" textLength="158" x="1037.5" y="1182.5059">AdvertisementRepository</text><rect fill="#E3E3E3" height="51.2422" rx="2.5" ry="2.5" style="stroke:#181818;stroke-width:0.5;" width="123" x="1214.5" y="31.3789"/><text fill="#000000" font-family="sans-serif" font-size="14" lengthAdjust="spacing" textLength="109" x="1221.5" y="53.4863">AgentRepository:</text><text fill="#000000" font-family="sans-serif" font-size="14" lengthAdjust="spacing" textLength="105" x="1223.5" y="72.1074">AgentRepository</text><rect fill="#E3E3E3" height="51.2422" rx="2.5" ry="2.5" style="stroke:#181818;stroke-width:0.5;" width="123" x="1214.5" y="1141.7773"/><text fill="#000000" font-family="sans-serif" font-size="14" lengthAdjust="spacing" textLength="109" x="1221.5" y="1163.8848">AgentRepository:</text><text fill="#000000" font-family="sans-serif" font-size="14" lengthAdjust="spacing" textLength="105" x="1223.5" y="1182.5059">AgentRepository</text><rect fill="#E3E3E3" height="32.6211" rx="2.5" ry="2.5" style="stroke:#181818;stroke-width:0.5;" width="68" x="1347.5" y="1141.7773"/><text fill="#000000" font-family="sans-serif" font-size="14" lengthAdjust="spacing" textLength="54" x="1354.5" y="1163.8848">Property</text><rect fill="#FFFFFF" height="1031.1563" style="stroke:#181818;stroke-width:1.0;" width="10" x="38.5" y="93.6211"/><rect fill="#FFFFFF" height="74.9121" style="stroke:#181818;stroke-width:1.0;" width="10" x="675.5" y="116.9121"/><rect fill="#FFFFFF" height="31.291" style="stroke:#181818;stroke-width:1.0;" width="10" x="675.5" y="223.1152"/><rect fill="#FFFFFF" height="222.5898" style="stroke:#181818;stroke-width:1.0;" width="10" x="675.5" y="285.6973"/><rect fill="#FFFFFF" height="31.291" style="stroke:#181818;stroke-width:1.0;" width="10" x="675.5" y="546.5781"/><rect fill="#FFFFFF" height="156.4551" style="stroke:#181818;stroke-width:1.0;" width="10" x="675.5" y="609.1602"/><rect fill="#FFFFFF" height="327.8711" style="stroke:#181818;stroke-width:1.0;" width="10" x="675.5" y="796.9063"/><rect fill="#FFFFFF" height="93.873" style="stroke:#181818;stroke-width:1.0;" width="10" x="919.5" y="640.4512"/><rect fill="#FFFFFF" height="265.2891" style="stroke:#181818;stroke-width:1.0;" width="10" x="919.5" y="828.1973"/><rect fill="#FFFFFF" height="202.707" style="stroke:#181818;stroke-width:1.0;" width="10" x="1111.5" y="859.4883"/><rect fill="#FFFFFF" height="31.291" style="stroke:#181818;stroke-width:1.0;" width="10" x="1271" y="671.7422"/><rect fill="#FFFFFF" height="81.873" style="stroke:#181818;stroke-width:1.0;" width="10" x="1376.5" y="949.0313"/><polygon fill="#181818" points="663.5,112.9121,673.5,116.9121,663.5,120.9121,667.5,116.9121" style="stroke:#181818;stroke-width:1.0;"/><line style="stroke:#181818;stroke-width:1.0;" x1="48.5" x2="669.5" y1="116.9121" y2="116.9121"/><text fill="#000000" font-family="sans-serif" font-size="13" font-weight="bold" lengthAdjust="spacing" textLength="7" x="55.5" y="111.6494">1</text><text fill="#000000" font-family="sans-serif" font-size="13" lengthAdjust="spacing" textLength="141" x="66.5" y="111.6494">asks to create a request</text><polygon fill="#181818" points="824.5,144.2031,834.5,148.2031,824.5,152.2031,828.5,148.2031" style="stroke:#181818;stroke-width:1.0;"/><line style="stroke:#181818;stroke-width:1.0;" x1="685.5" x2="830.5" y1="148.2031" y2="148.2031"/><text fill="#000000" font-family="sans-serif" font-size="13" font-weight="bold" lengthAdjust="spacing" textLength="7" x="692.5" y="142.9404">2</text><text fill="#000000" font-family="sans-serif" font-size="13" lengthAdjust="spacing" textLength="36" x="703.5" y="142.9404">create</text><rect fill="#E3E3E3" height="32.6211" rx="2.5" ry="2.5" style="stroke:#181818;stroke-width:0.5;" width="176" x="836.5" y="124.9121"/><text fill="#000000" font-family="sans-serif" font-size="14" lengthAdjust="spacing" textLength="162" x="843.5" y="147.0195">:CreateRequestController</text><polygon fill="#181818" points="59.5,187.8242,49.5,191.8242,59.5,195.8242,55.5,191.8242" style="stroke:#181818;stroke-width:1.0;"/><line style="stroke:#181818;stroke-width:1.0;stroke-dasharray:2.0,2.0;" x1="53.5" x2="679.5" y1="191.8242" y2="191.8242"/><text fill="#000000" font-family="sans-serif" font-size="13" font-weight="bold" lengthAdjust="spacing" textLength="7" x="65.5" y="186.5615">3</text><text fill="#000000" font-family="sans-serif" font-size="13" lengthAdjust="spacing" textLength="72" x="76.5" y="186.5615">sale or rent?</text><polygon fill="#181818" points="663.5,219.1152,673.5,223.1152,663.5,227.1152,667.5,223.1152" style="stroke:#181818;stroke-width:1.0;"/><line style="stroke:#181818;stroke-width:1.0;" x1="48.5" x2="669.5" y1="223.1152" y2="223.1152"/><text fill="#000000" font-family="sans-serif" font-size="13" font-weight="bold" lengthAdjust="spacing" textLength="7" x="55.5" y="217.8525">4</text><text fill="#000000" font-family="sans-serif" font-size="13" lengthAdjust="spacing" textLength="126" x="66.5" y="217.8525">selects wanted option</text><polygon fill="#181818" points="59.5,250.4063,49.5,254.4063,59.5,258.4063,55.5,254.4063" style="stroke:#181818;stroke-width:1.0;"/><line style="stroke:#181818;stroke-width:1.0;" x1="53.5" x2="679.5" y1="254.4063" y2="254.4063"/><text fill="#000000" font-family="sans-serif" font-size="13" font-weight="bold" lengthAdjust="spacing" textLength="7" x="65.5" y="249.1436">5</text><text fill="#000000" font-family="sans-serif" font-size="13" lengthAdjust="spacing" textLength="130" x="76.5" y="249.1436">asks the property type</text><polygon fill="#181818" points="663.5,281.6973,673.5,285.6973,663.5,289.6973,667.5,285.6973" style="stroke:#181818;stroke-width:1.0;"/><line style="stroke:#181818;stroke-width:1.0;" x1="48.5" x2="669.5" y1="285.6973" y2="285.6973"/><text fill="#000000" font-family="sans-serif" font-size="13" font-weight="bold" lengthAdjust="spacing" textLength="7" x="55.5" y="280.4346">6</text><text fill="#000000" font-family="sans-serif" font-size="13" lengthAdjust="spacing" textLength="122" x="66.5" y="280.4346">selects property type</text><path d="M10,300.6973 L71,300.6973 L71,309.9883 L61,319.9883 L10,319.9883 L10,300.6973 " fill="#EEEEEE" style="stroke:#000000;stroke-width:1.5;"/><rect fill="none" height="215.5898" style="stroke:#000000;stroke-width:1.5;" width="743.5" x="10" y="300.6973"/><text fill="#000000" font-family="sans-serif" font-size="13" font-weight="bold" lengthAdjust="spacing" textLength="16" x="25" y="315.7256">alt</text><text fill="#000000" font-family="sans-serif" font-size="11" font-weight="bold" lengthAdjust="spacing" textLength="101" x="86" y="314.5674">[type = apartment]</text><polygon fill="#181818" points="59.5,356.5703,49.5,360.5703,59.5,364.5703,55.5,360.5703" style="stroke:#181818;stroke-width:1.0;"/><line style="stroke:#181818;stroke-width:1.0;stroke-dasharray:2.0,2.0;" x1="53.5" x2="674.5" y1="360.5703" y2="360.5703"/><text fill="#000000" font-family="sans-serif" font-size="13" font-weight="bold" lengthAdjust="spacing" textLength="7" x="65.5" y="346.6621">7</text><text fill="#000000" font-family="sans-serif" font-size="13" lengthAdjust="spacing" textLength="478" x="76.5" y="338.0166">requests the apartment characteristics(area, cityCenterDistance, street, cityName,</text><text fill="#000000" font-family="sans-serif" font-size="13" lengthAdjust="spacing" textLength="592" x="76.5" y="355.3076">districtName, stateAcronym, zip-code, numBedrooms,numBathrooms,numParkingSpaces, equipment)</text><line style="stroke:#000000;stroke-width:1.0;stroke-dasharray:2.0,2.0;" x1="10" x2="753.5" y1="369.5703" y2="369.5703"/><text fill="#000000" font-family="sans-serif" font-size="11" font-weight="bold" lengthAdjust="spacing" textLength="79" x="15" y="381.4404">[type = house]</text><polygon fill="#181818" points="59.5,439.0742,49.5,443.0742,59.5,447.0742,55.5,443.0742" style="stroke:#181818;stroke-width:1.0;"/><line style="stroke:#181818;stroke-width:1.0;stroke-dasharray:2.0,2.0;" x1="53.5" x2="674.5" y1="443.0742" y2="443.0742"/><text fill="#000000" font-family="sans-serif" font-size="13" font-weight="bold" lengthAdjust="spacing" textLength="7" x="65.5" y="420.5205">8</text><text fill="#000000" font-family="sans-serif" font-size="13" lengthAdjust="spacing" textLength="455" x="76.5" y="403.2295">requests the house characteristics(area, cityCenterDistance, street, cityName,</text><text fill="#000000" font-family="sans-serif" font-size="13" lengthAdjust="spacing" textLength="524" x="76.5" y="420.5205">districtName, stateAcronym, zip-code, numBedrooms,numBathrooms,numParkingSpaces,</text><text fill="#000000" font-family="sans-serif" font-size="13" lengthAdjust="spacing" textLength="300" x="76.5" y="437.8115">basement,inhabitableLoft, sunExposure, equipment)</text><line style="stroke:#000000;stroke-width:1.0;stroke-dasharray:2.0,2.0;" x1="10" x2="753.5" y1="452.0742" y2="452.0742"/><text fill="#000000" font-family="sans-serif" font-size="11" font-weight="bold" lengthAdjust="spacing" textLength="67" x="15" y="463.9443">[type = land]</text><polygon fill="#181818" points="59.5,504.2871,49.5,508.2871,59.5,512.2871,55.5,508.2871" style="stroke:#181818;stroke-width:1.0;"/><line style="stroke:#181818;stroke-width:1.0;stroke-dasharray:2.0,2.0;" x1="53.5" x2="679.5" y1="508.2871" y2="508.2871"/><text fill="#000000" font-family="sans-serif" font-size="13" font-weight="bold" lengthAdjust="spacing" textLength="7" x="65.5" y="494.3789">9</text><text fill="#000000" font-family="sans-serif" font-size="13" lengthAdjust="spacing" textLength="448" x="76.5" y="485.7334">requests the land characteristics(area, cityCenterDistance , street, cityName,</text><text fill="#000000" font-family="sans-serif" font-size="13" lengthAdjust="spacing" textLength="223" x="76.5" y="503.0244">districtName, stateAcronym, zip-code)</text><polygon fill="#181818" points="663.5,542.5781,673.5,546.5781,663.5,550.5781,667.5,546.5781" style="stroke:#181818;stroke-width:1.0;"/><line style="stroke:#181818;stroke-width:1.0;stroke-dasharray:2.0,2.0;" x1="48.5" x2="669.5" y1="546.5781" y2="546.5781"/><text fill="#000000" font-family="sans-serif" font-size="13" font-weight="bold" lengthAdjust="spacing" textLength="14" x="55.5" y="541.3154">10</text><text fill="#000000" font-family="sans-serif" font-size="13" lengthAdjust="spacing" textLength="181" x="73.5" y="541.3154">fills the property characteristics</text><polygon fill="#181818" points="59.5,573.8691,49.5,577.8691,59.5,581.8691,55.5,577.8691" style="stroke:#181818;stroke-width:1.0;"/><line style="stroke:#181818;stroke-width:1.0;stroke-dasharray:2.0,2.0;" x1="53.5" x2="679.5" y1="577.8691" y2="577.8691"/><text fill="#000000" font-family="sans-serif" font-size="13" font-weight="bold" lengthAdjust="spacing" textLength="14" x="65.5" y="572.6064">11</text><text fill="#000000" font-family="sans-serif" font-size="13" lengthAdjust="spacing" textLength="115" x="83.5" y="572.6064">aks to insert photos</text><polygon fill="#181818" points="663.5,605.1602,673.5,609.1602,663.5,613.1602,667.5,609.1602" style="stroke:#181818;stroke-width:1.0;"/><line style="stroke:#181818;stroke-width:1.0;" x1="48.5" x2="669.5" y1="609.1602" y2="609.1602"/><text fill="#000000" font-family="sans-serif" font-size="13" font-weight="bold" lengthAdjust="spacing" textLength="14" x="55.5" y="603.8975">12</text><text fill="#000000" font-family="sans-serif" font-size="13" lengthAdjust="spacing" textLength="158" x="73.5" y="603.8975">inserts photos(at least one)</text><polygon fill="#181818" points="907.5,636.4512,917.5,640.4512,907.5,644.4512,911.5,640.4512" style="stroke:#181818;stroke-width:1.0;"/><line style="stroke:#181818;stroke-width:1.0;" x1="685.5" x2="913.5" y1="640.4512" y2="640.4512"/><text fill="#000000" font-family="sans-serif" font-size="13" font-weight="bold" lengthAdjust="spacing" textLength="14" x="692.5" y="635.1885">13</text><text fill="#000000" font-family="sans-serif" font-size="13" lengthAdjust="spacing" textLength="67" x="710.5" y="635.1885">getAgents()</text><polygon fill="#181818" points="1259,667.7422,1269,671.7422,1259,675.7422,1263,671.7422" style="stroke:#181818;stroke-width:1.0;"/><line style="stroke:#181818;stroke-width:1.0;" x1="929.5" x2="1265" y1="671.7422" y2="671.7422"/><text fill="#000000" font-family="sans-serif" font-size="13" font-weight="bold" lengthAdjust="spacing" textLength="14" x="936.5" y="666.4795">14</text><text fill="#000000" font-family="sans-serif" font-size="13" lengthAdjust="spacing" textLength="67" x="954.5" y="666.4795">getAgents()</text><polygon fill="#181818" points="940.5,699.0332,930.5,703.0332,940.5,707.0332,936.5,703.0332" style="stroke:#181818;stroke-width:1.0;"/><line style="stroke:#181818;stroke-width:1.0;" x1="934.5" x2="1275" y1="703.0332" y2="703.0332"/><text fill="#000000" font-family="sans-serif" font-size="13" font-weight="bold" lengthAdjust="spacing" textLength="14" x="946.5" y="697.7705">15</text><text fill="#000000" font-family="sans-serif" font-size="13" lengthAdjust="spacing" textLength="55" x="964.5" y="697.7705">AgentList</text><polygon fill="#181818" points="696.5,730.3242,686.5,734.3242,696.5,738.3242,692.5,734.3242" style="stroke:#181818;stroke-width:1.0;"/><line style="stroke:#181818;stroke-width:1.0;" x1="690.5" x2="923.5" y1="734.3242" y2="734.3242"/><text fill="#000000" font-family="sans-serif" font-size="13" font-weight="bold" lengthAdjust="spacing" textLength="14" x="702.5" y="729.0615">16</text><text fill="#000000" font-family="sans-serif" font-size="13" lengthAdjust="spacing" textLength="55" x="720.5" y="729.0615">AgentList</text><polygon fill="#181818" points="59.5,761.6152,49.5,765.6152,59.5,769.6152,55.5,765.6152" style="stroke:#181818;stroke-width:1.0;"/><line style="stroke:#181818;stroke-width:1.0;stroke-dasharray:2.0,2.0;" x1="53.5" x2="679.5" y1="765.6152" y2="765.6152"/><text fill="#000000" font-family="sans-serif" font-size="13" font-weight="bold" lengthAdjust="spacing" textLength="14" x="65.5" y="760.3525">17</text><text fill="#000000" font-family="sans-serif" font-size="13" lengthAdjust="spacing" textLength="248" x="83.5" y="760.3525">displays agents list and asks to select one</text><polygon fill="#181818" points="663.5,792.9063,673.5,796.9063,663.5,800.9063,667.5,796.9063" style="stroke:#181818;stroke-width:1.0;"/><line style="stroke:#181818;stroke-width:1.0;" x1="48.5" x2="669.5" y1="796.9063" y2="796.9063"/><text fill="#000000" font-family="sans-serif" font-size="13" font-weight="bold" lengthAdjust="spacing" textLength="14" x="55.5" y="791.6436">18</text><text fill="#000000" font-family="sans-serif" font-size="13" lengthAdjust="spacing" textLength="78" x="73.5" y="791.6436">selects agent</text><polygon fill="#181818" points="907.5,824.1973,917.5,828.1973,907.5,832.1973,911.5,828.1973" style="stroke:#181818;stroke-width:1.0;"/><line style="stroke:#181818;stroke-width:1.0;" x1="685.5" x2="913.5" y1="828.1973" y2="828.1973"/><text fill="#000000" font-family="sans-serif" font-size="13" font-weight="bold" lengthAdjust="spacing" textLength="14" x="692.5" y="822.9346">19</text><text fill="#000000" font-family="sans-serif" font-size="13" lengthAdjust="spacing" textLength="197" x="710.5" y="822.9346">createRequest(anouncementDate)</text><polygon fill="#181818" points="1099.5,855.4883,1109.5,859.4883,1099.5,863.4883,1103.5,859.4883" style="stroke:#181818;stroke-width:1.0;"/><line style="stroke:#181818;stroke-width:1.0;" x1="929.5" x2="1105.5" y1="859.4883" y2="859.4883"/><text fill="#000000" font-family="sans-serif" font-size="13" font-weight="bold" lengthAdjust="spacing" textLength="14" x="936.5" y="854.2256">20</text><text fill="#000000" font-family="sans-serif" font-size="13" lengthAdjust="spacing" textLength="4" x="954.5" y="854.2256">&#160;</text><rect fill="none" height="43.252" style="stroke:#000000;stroke-width:1.5;" width="182" x="1025.5" y="867.4883"/><path d="M1025.5,867.4883 L1087.5,867.4883 L1087.5,876.4883 L1077.5,886.4883 L1025.5,886.4883 L1025.5,867.4883 " fill="#EEEEEE" style="stroke:#000000;stroke-width:2.0;"/><text fill="#000000" font-family="sans-serif" font-size="13" font-weight="bold" lengthAdjust="spacing" textLength="17" x="1038.5" y="883.5166">ref</text><text fill="#000000" font-family="sans-serif" font-size="12" lengthAdjust="spacing" textLength="81" x="1076" y="903.4375">createRequest</text><polygon fill="#181818" points="1335.5,935.0313,1345.5,939.0313,1335.5,943.0313,1339.5,939.0313" style="stroke:#181818;stroke-width:1.0;"/><line style="stroke:#181818;stroke-width:1.0;" x1="929.5" x2="1341.5" y1="939.0313" y2="939.0313"/><text fill="#000000" font-family="sans-serif" font-size="13" font-weight="bold" lengthAdjust="spacing" textLength="14" x="936.5" y="933.7686">21</text><text fill="#000000" font-family="sans-serif" font-size="13" lengthAdjust="spacing" textLength="4" x="954.5" y="933.7686">&#160;</text><rect fill="#E3E3E3" height="32.6211" rx="2.5" ry="2.5" style="stroke:#181818;stroke-width:0.5;" width="68" x="1347.5" y="915.7402"/><text fill="#000000" font-family="sans-serif" font-size="14" lengthAdjust="spacing" textLength="54" x="1354.5" y="937.8477">Property</text><rect fill="none" height="43.252" style="stroke:#000000;stroke-width:1.5;" width="87" x="1344.5" y="959.3613"/><path d="M1344.5,959.3613 L1406.5,959.3613 L1406.5,968.3613 L1396.5,978.3613 L1344.5,978.3613 L1344.5,959.3613 " fill="#EEEEEE" style="stroke:#000000;stroke-width:2.0;"/><text fill="#000000" font-family="sans-serif" font-size="13" font-weight="bold" lengthAdjust="spacing" textLength="17" x="1357.5" y="975.3896">ref</text><text fill="#000000" font-family="sans-serif" font-size="12" lengthAdjust="spacing" textLength="79" x="1348.5" y="995.3105">createProperty</text><polygon fill="#181818" points="1132.5,1026.9043,1122.5,1030.9043,1132.5,1034.9043,1128.5,1030.9043" style="stroke:#181818;stroke-width:1.0;"/><line style="stroke:#181818;stroke-width:1.0;stroke-dasharray:2.0,2.0;" x1="1126.5" x2="1380.5" y1="1030.9043" y2="1030.9043"/><text fill="#000000" font-family="sans-serif" font-size="13" font-weight="bold" lengthAdjust="spacing" textLength="14" x="1138.5" y="1025.6416">22</text><text fill="#000000" font-family="sans-serif" font-size="13" lengthAdjust="spacing" textLength="140" x="1156.5" y="1025.6416">show operation success</text><polygon fill="#181818" points="940.5,1058.1953,930.5,1062.1953,940.5,1066.1953,936.5,1062.1953" style="stroke:#181818;stroke-width:1.0;"/><line style="stroke:#181818;stroke-width:1.0;stroke-dasharray:2.0,2.0;" x1="934.5" x2="1115.5" y1="1062.1953" y2="1062.1953"/><text fill="#000000" font-family="sans-serif" font-size="13" font-weight="bold" lengthAdjust="spacing" textLength="14" x="946.5" y="1056.9326">23</text><text fill="#000000" font-family="sans-serif" font-size="13" lengthAdjust="spacing" textLength="140" x="964.5" y="1056.9326">show operation success</text><polygon fill="#181818" points="696.5,1089.4863,686.5,1093.4863,696.5,1097.4863,692.5,1093.4863" style="stroke:#181818;stroke-width:1.0;"/><line style="stroke:#181818;stroke-width:1.0;" x1="690.5" x2="923.5" y1="1093.4863" y2="1093.4863"/><text fill="#000000" font-family="sans-serif" font-size="13" font-weight="bold" lengthAdjust="spacing" textLength="14" x="702.5" y="1088.2236">24</text><text fill="#000000" font-family="sans-serif" font-size="13" lengthAdjust="spacing" textLength="140" x="720.5" y="1088.2236">show operation success</text><polygon fill="#181818" points="54.5,1120.7773,44.5,1124.7773,54.5,1128.7773,50.5,1124.7773" style="stroke:#181818;stroke-width:1.0;"/><line style="stroke:#181818;stroke-width:1.0;stroke-dasharray:2.0,2.0;" x1="48.5" x2="679.5" y1="1124.7773" y2="1124.7773"/><text fill="#000000" font-family="sans-serif" font-size="13" font-weight="bold" lengthAdjust="spacing" textLength="14" x="60.5" y="1119.5146">25</text><text fill="#000000" font-family="sans-serif" font-size="13" lengthAdjust="spacing" textLength="158" x="78.5" y="1119.5146">displays operation success</text><!--SRC=[pLPDSzem4BtxL-pa4iB07s2cwQIaXyoaRIPfRrmMUS6Qs98hoI7qrtSbOOE_Gj9JVSAxgwVtzilOPwbAD5X0ePKMcT45WJCL9RRnb2YUSKjFRfyJ618ErJO_3R0PfdedrHOsc5jA4goSLbMn9fCabvbC2JPQkxL-JL0uRU3YnqwHkG2qS7FxBM4K9uKiKJcuM2mDeQD7-bsHTR_kGjIlkxU2bbeve_Fy0Bdy-NZV3hz9NuXVBHMat2ELsagciL-ir8WdKXlsTQ2tFSZj05JRblWyo1TM4FGdS7Zu1URNh1OMVEhPWjCWWb90pdmGUunkC3WxoIMSF0mmPnmFjwZFMKZH8KmCRSYG4ZI3bAmmidHIgnc0L1jj2inXfTeUHo9JKh2dPKuhW_6NqDPT9QS4BW-iGocwpAw3UJfbRZ4iIKR9M-IUuuvXnkvp4vPII_jG-YpbtAaMTbmbIa47qiEfQtEBzyRiPmIbqILtmHxSlgIt20nTtZ_SEuQv2rxu1EWRo_TQz0mNqNDg0a5aF832aP6MMz9EaFF9zP1klsGtcLksOwYrTOR8HTztBDYoKYbxZHGkldEaenjXjDeNC_WZoxdGATjvaBzGQhGkxCp_HfSrBmzeU0jidtX5a9q1avIb9tOL9H1lWrfTfYjBvvI5eFzDrKgjCIw1cLGPhgN3TKxtUiCNsqfzVUMnhWozBJz7bPvJxsFUBHx-NNsSrO4U9hwV6_AaeUkEtiWyxmn4X-XmUxV4OjneKba6W3BJJjla7UCK3zZ3YGawo0cj0wqEKWQlZMk6Zs_9XVrh9rVz1H0sL6l_-2USzBpRUti4h0VQM_VTo2xkaMpmt7DAUsTEadGMl-OVqlSko7OUZcLR07TKcUFU0WRTa3CI-4wjlr1ns_bgV7G_1iJnfTogeZZzuazGwOg7m0_RBPlF5hOfwCWtlL_2aS0cah-Ze3dcB6IBU6FreyOG4Qzczt2OhUcqtTQrlL_eXaKJqes8ru-wMppgfuwEJJ2ipvSnqplmaU5_0Ez2mVlI9YCTDYnY37r-hFp7hZbRkDvyV0p_s5U3GpACqvc7Kxhy_-yl]--></g></svg>