<?xml version="1.0" encoding="us-ascii" standalone="no"?><svg xmlns="http://www.w3.org/2000/svg" xmlns:xlink="http://www.w3.org/1999/xlink" contentStyleType="text/css" height="1063.8px" preserveAspectRatio="none" style="width:1043px;height:1063px;background:#FFFFFF;" version="1.1" viewBox="0 0 1043 1063" width="1043.1px" zoomAndPan="magnify"><defs/><g><text fill="#000000" font-family="sans-serif" font-size="12.6" font-weight="bold" lengthAdjust="spacing" textLength="117.9" x="456.525" y="20.4064">Domain Model US8</text><!--class Request--><g id="elem_Request"><rect codeLine="15" fill="#F1F1F1" height="44.3531" id="Request" rx="2.25" ry="2.25" style="stroke:#181818;stroke-width:0.45;" width="99" x="603.45" y="562.1766"/><text fill="#000000" font-family="sans-serif" font-size="12.6" lengthAdjust="spacing" textLength="47.7" x="629.1" y="578.083">Request</text><line style="stroke:#181818;stroke-width:0.45;" x1="604.35" x2="701.55" y1="585.2531" y2="585.2531"/><text fill="#000000" font-family="sans-serif" font-size="12.6" lengthAdjust="spacing" textLength="88.2" x="608.85" y="600.2596">publicationDate</text></g><!--class Property--><g id="elem_Property"><rect codeLine="18" fill="#F1F1F1" height="72.5063" id="Property" rx="2.25" ry="2.25" style="stroke:#181818;stroke-width:0.45;" width="117.9" x="674.1" y="674.6766"/><text fill="#000000" font-family="sans-serif" font-size="12.6" lengthAdjust="spacing" textLength="48.6" x="708.75" y="690.583">Property</text><line style="stroke:#181818;stroke-width:0.45;" x1="675" x2="791.1" y1="697.7531" y2="697.7531"/><text fill="#000000" font-family="sans-serif" font-size="12.6" lengthAdjust="spacing" textLength="26.1" x="679.5" y="712.7596">area</text><text fill="#000000" font-family="sans-serif" font-size="12.6" lengthAdjust="spacing" textLength="107.1" x="679.5" y="726.8361">cityCenterDistance</text><text fill="#000000" font-family="sans-serif" font-size="12.6" lengthAdjust="spacing" textLength="27.9" x="679.5" y="740.9127">price</text></g><!--class PropertyType--><g id="elem_PropertyType"><rect codeLine="24" fill="#F1F1F1" height="44.3531" id="PropertyType" rx="2.25" ry="2.25" style="stroke:#181818;stroke-width:0.45;" width="87.3" x="315" y="562.1766"/><text fill="#000000" font-family="sans-serif" font-size="12.6" lengthAdjust="spacing" textLength="77.4" x="319.95" y="578.083">PropertyType</text><line style="stroke:#181818;stroke-width:0.45;" x1="315.9" x2="401.4" y1="585.2531" y2="585.2531"/><text fill="#000000" font-family="sans-serif" font-size="12.6" lengthAdjust="spacing" textLength="76.5" x="320.4" y="600.2596">propertyType</text></g><!--class BusinessType--><g id="elem_BusinessType"><rect codeLine="27" fill="#F1F1F1" height="44.3531" id="BusinessType" rx="2.25" ry="2.25" style="stroke:#181818;stroke-width:0.45;" width="90" x="551.25" y="844.3266"/><text fill="#000000" font-family="sans-serif" font-size="12.6" lengthAdjust="spacing" textLength="80.1" x="556.2" y="860.233">BusinessType</text><line style="stroke:#181818;stroke-width:0.45;" x1="552.15" x2="640.35" y1="867.4031" y2="867.4031"/><text fill="#000000" font-family="sans-serif" font-size="12.6" lengthAdjust="spacing" textLength="79.2" x="556.65" y="882.4096">businessType</text></g><!--class Lease--><g id="elem_Lease"><rect codeLine="31" fill="#F1F1F1" height="58.4297" id="Lease" rx="2.25" ry="2.25" style="stroke:#181818;stroke-width:0.45;" width="105.3" x="423.9" y="992.3766"/><text fill="#000000" font-family="sans-serif" font-size="12.6" lengthAdjust="spacing" textLength="35.1" x="459" y="1008.283">Lease</text><line style="stroke:#181818;stroke-width:0.45;" x1="424.8" x2="528.3" y1="1015.4531" y2="1015.4531"/><text fill="#000000" font-family="sans-serif" font-size="12.6" lengthAdjust="spacing" textLength="63" x="429.3" y="1030.4596">leaseValue</text><text fill="#000000" font-family="sans-serif" font-size="12.6" lengthAdjust="spacing" textLength="94.5" x="429.3" y="1044.5361">contractDuration</text></g><!--class Sale--><g id="elem_Sale"><rect codeLine="36" fill="#F1F1F1" height="44.3531" id="Sale" rx="2.25" ry="2.25" style="stroke:#181818;stroke-width:0.45;" width="66.6" x="569.25" y="999.5766"/><text fill="#000000" font-family="sans-serif" font-size="12.6" lengthAdjust="spacing" textLength="25.2" x="589.95" y="1015.483">Sale</text><line style="stroke:#181818;stroke-width:0.45;" x1="570.15" x2="634.95" y1="1022.6531" y2="1022.6531"/><text fill="#000000" font-family="sans-serif" font-size="12.6" lengthAdjust="spacing" textLength="55.8" x="574.65" y="1037.6596">saleValue</text></g><!--class Agency--><g id="elem_Agency"><rect codeLine="40" fill="#F1F1F1" height="86.5828" id="Agency" rx="2.25" ry="2.25" style="stroke:#181818;stroke-width:0.45;" width="90.9" x="185.4" y="287.6766"/><text fill="#000000" font-family="sans-serif" font-size="12.6" lengthAdjust="spacing" textLength="42.3" x="209.7" y="303.583">Agency</text><line style="stroke:#181818;stroke-width:0.45;" x1="186.3" x2="275.4" y1="310.7531" y2="310.7531"/><text fill="#000000" font-family="sans-serif" font-size="12.6" lengthAdjust="spacing" textLength="9.9" x="190.8" y="325.7596">id</text><text fill="#000000" font-family="sans-serif" font-size="12.6" lengthAdjust="spacing" textLength="65.7" x="190.8" y="339.8361">designation</text><text fill="#000000" font-family="sans-serif" font-size="12.6" lengthAdjust="spacing" textLength="76.5" x="190.8" y="353.9127">emailAddress</text><text fill="#000000" font-family="sans-serif" font-size="12.6" lengthAdjust="spacing" textLength="80.1" x="190.8" y="367.9893">phoneNumber</text></g><!--class Commission--><g id="elem_Commission"><rect codeLine="46" fill="#F1F1F1" height="44.3531" id="Commission" rx="2.25" ry="2.25" style="stroke:#181818;stroke-width:0.45;" width="108.9" x="653.4" y="39.2766"/><text fill="#000000" font-family="sans-serif" font-size="12.6" lengthAdjust="spacing" textLength="68.4" x="673.65" y="55.183">Commission</text><line style="stroke:#181818;stroke-width:0.45;" x1="654.3" x2="761.4" y1="62.3531" y2="62.3531"/><text fill="#000000" font-family="sans-serif" font-size="12.6" lengthAdjust="spacing" textLength="98.1" x="658.8" y="77.3596">commissionValue</text></g><!--class CommissionType--><g id="elem_CommissionType"><rect codeLine="49" fill="#F1F1F1" height="44.3531" id="CommissionType" rx="2.25" ry="2.25" style="stroke:#181818;stroke-width:0.45;" width="105.3" x="699.3" y="151.7766"/><text fill="#000000" font-family="sans-serif" font-size="12.6" lengthAdjust="spacing" textLength="97.2" x="703.35" y="167.683">CommissionType</text><line style="stroke:#181818;stroke-width:0.45;" x1="700.2" x2="803.7" y1="174.8531" y2="174.8531"/><text fill="#000000" font-family="sans-serif" font-size="12.6" lengthAdjust="spacing" textLength="94.5" x="704.7" y="189.8596">commissionType</text></g><!--class Person--><g id="elem_Person"><rect codeLine="53" fill="#F1F1F1" height="100.6594" id="Person" rx="2.25" ry="2.25" style="stroke:#181818;stroke-width:0.45;" width="113.4" x="308.25" y="280.4766"/><text fill="#000000" font-family="sans-serif" font-size="12.6" lengthAdjust="spacing" textLength="40.5" x="344.7" y="296.383">Person</text><line style="stroke:#181818;stroke-width:0.45;" x1="309.15" x2="420.75" y1="303.5531" y2="303.5531"/><text fill="#000000" font-family="sans-serif" font-size="12.6" lengthAdjust="spacing" textLength="31.5" x="313.65" y="318.5596">name</text><text fill="#000000" font-family="sans-serif" font-size="12.6" lengthAdjust="spacing" textLength="102.6" x="313.65" y="332.6361">passportCardNum</text><text fill="#000000" font-family="sans-serif" font-size="12.6" lengthAdjust="spacing" textLength="60.3" x="313.65" y="346.7127">taxNumber</text><text fill="#000000" font-family="sans-serif" font-size="12.6" lengthAdjust="spacing" textLength="76.5" x="313.65" y="360.7893">emailAddress</text><text fill="#000000" font-family="sans-serif" font-size="12.6" lengthAdjust="spacing" textLength="80.1" x="313.65" y="374.8658">phoneNumber</text></g><!--class Owner--><g id="elem_Owner"><rect codeLine="61" fill="#F1F1F1" height="30.2766" id="Owner" rx="2.25" ry="2.25" style="stroke:#181818;stroke-width:0.45;" width="42.3" x="448.2" y="158.5266"/><text fill="#000000" font-family="sans-serif" font-size="12.6" lengthAdjust="spacing" textLength="36.9" x="450.9" y="174.433">Owner</text><line style="stroke:#181818;stroke-width:0.45;" x1="449.1" x2="489.6" y1="181.6031" y2="181.6031"/></g><!--class House--><g id="elem_House"><rect codeLine="63" fill="#F1F1F1" height="72.5063" id="House" rx="2.25" ry="2.25" style="stroke:#181818;stroke-width:0.45;" width="94.5" x="679.5" y="985.1766"/><text fill="#000000" font-family="sans-serif" font-size="12.6" lengthAdjust="spacing" textLength="36" x="708.75" y="1001.083">House</text><line style="stroke:#181818;stroke-width:0.45;" x1="680.4" x2="773.1" y1="1008.2531" y2="1008.2531"/><text fill="#000000" font-family="sans-serif" font-size="12.6" lengthAdjust="spacing" textLength="55.8" x="684.9" y="1023.2596">basement</text><text fill="#000000" font-family="sans-serif" font-size="12.6" lengthAdjust="spacing" textLength="83.7" x="684.9" y="1037.3361">inhabitableLoft</text><text fill="#000000" font-family="sans-serif" font-size="12.6" lengthAdjust="spacing" textLength="73.8" x="684.9" y="1051.4127">sunExposure</text></g><!--class Dwelling--><g id="elem_Dwelling"><rect codeLine="71" fill="#F1F1F1" height="72.5063" id="Dwelling" rx="2.25" ry="2.25" style="stroke:#181818;stroke-width:0.45;" width="120.6" x="672.75" y="829.9266"/><text fill="#000000" font-family="sans-serif" font-size="12.6" lengthAdjust="spacing" textLength="46.8" x="709.65" y="845.833">Dwelling</text><line style="stroke:#181818;stroke-width:0.45;" x1="673.65" x2="792.45" y1="853.0031" y2="853.0031"/><text fill="#000000" font-family="sans-serif" font-size="12.6" lengthAdjust="spacing" textLength="81.9" x="678.15" y="868.0096">numBedrooms</text><text fill="#000000" font-family="sans-serif" font-size="12.6" lengthAdjust="spacing" textLength="85.5" x="678.15" y="882.0861">numBathrooms</text><text fill="#000000" font-family="sans-serif" font-size="12.6" lengthAdjust="spacing" textLength="109.8" x="678.15" y="896.1627">numParkingSpaces</text></g><!--class Equipment--><g id="elem_Equipment"><rect codeLine="79" fill="#F1F1F1" height="58.4297" id="Equipment" rx="2.25" ry="2.25" style="stroke:#181818;stroke-width:0.45;" width="96.3" x="805.5" y="992.3766"/><text fill="#000000" font-family="sans-serif" font-size="12.6" lengthAdjust="spacing" textLength="60.3" x="823.5" y="1008.283">Equipment</text><line style="stroke:#181818;stroke-width:0.45;" x1="806.4" x2="900.9" y1="1015.4531" y2="1015.4531"/><text fill="#000000" font-family="sans-serif" font-size="12.6" lengthAdjust="spacing" textLength="81.9" x="810.9" y="1030.4596">centralHeating</text><text fill="#000000" font-family="sans-serif" font-size="12.6" lengthAdjust="spacing" textLength="85.5" x="810.9" y="1044.5361">airConditioning</text></g><!--class Photograph--><g id="elem_Photograph"><rect codeLine="83" fill="#F1F1F1" height="44.3531" id="Photograph" rx="2.25" ry="2.25" style="stroke:#181818;stroke-width:0.45;" width="111.6" x="925.65" y="562.1766"/><text fill="#000000" font-family="sans-serif" font-size="12.6" lengthAdjust="spacing" textLength="66.6" x="948.15" y="578.083">Photograph</text><line style="stroke:#181818;stroke-width:0.45;" x1="926.55" x2="1036.35" y1="585.2531" y2="585.2531"/><text fill="#000000" font-family="sans-serif" font-size="12.6" lengthAdjust="spacing" textLength="100.8" x="931.05" y="600.2596">linkToPhotograph</text></g><!--class Employee--><g id="elem_Employee"><rect codeLine="87" fill="#F1F1F1" height="30.2766" id="Employee" rx="2.25" ry="2.25" style="stroke:#181818;stroke-width:0.45;" width="61.2" x="153.45" y="456.4266"/><text fill="#000000" font-family="sans-serif" font-size="12.6" lengthAdjust="spacing" textLength="55.8" x="156.15" y="472.333">Employee</text><line style="stroke:#181818;stroke-width:0.45;" x1="154.35" x2="213.75" y1="479.5031" y2="479.5031"/></g><!--class OrganizationRole--><g id="elem_OrganizationRole"><rect codeLine="91" fill="#F1F1F1" height="44.3531" id="OrganizationRole" rx="2.25" ry="2.25" style="stroke:#181818;stroke-width:0.45;" width="103.5" x="85.5" y="39.2766"/><text fill="#000000" font-family="sans-serif" font-size="12.6" lengthAdjust="spacing" textLength="98.1" x="88.2" y="55.183">OrganizationRole</text><line style="stroke:#181818;stroke-width:0.45;" x1="86.4" x2="188.1" y1="62.3531" y2="62.3531"/><text fill="#000000" font-family="sans-serif" font-size="12.6" lengthAdjust="spacing" textLength="54" x="90.9" y="77.3596">roleName</text></g><!--class Agent--><g id="elem_Agent"><rect codeLine="96" fill="#F1F1F1" height="30.2766" id="Agent" rx="2.25" ry="2.25" style="stroke:#181818;stroke-width:0.45;" width="38.7" x="629.1" y="158.5266"/><text fill="#000000" font-family="sans-serif" font-size="12.6" lengthAdjust="spacing" textLength="33.3" x="631.8" y="174.433">Agent</text><line style="stroke:#181818;stroke-width:0.45;" x1="630" x2="666.9" y1="181.6031" y2="181.6031"/></g><!--class Announcement--><g id="elem_Announcement"><rect codeLine="101" fill="#F1F1F1" height="44.3531" id="Announcement" rx="2.25" ry="2.25" style="stroke:#181818;stroke-width:0.45;" width="118.8" x="696.15" y="449.6766"/><text fill="#000000" font-family="sans-serif" font-size="12.6" lengthAdjust="spacing" textLength="85.5" x="712.8" y="465.583">Announcement</text><line style="stroke:#181818;stroke-width:0.45;" x1="697.05" x2="814.05" y1="472.7531" y2="472.7531"/><text fill="#000000" font-family="sans-serif" font-size="12.6" lengthAdjust="spacing" textLength="108" x="701.55" y="487.7596">AdvertisementDate</text></g><!--class Address--><g id="elem_Address"><rect codeLine="106" fill="#F1F1F1" height="100.6594" id="Address" rx="2.25" ry="2.25" style="stroke:#181818;stroke-width:0.45;" width="88.2" x="824.85" y="815.9766"/><text fill="#000000" font-family="sans-serif" font-size="12.6" lengthAdjust="spacing" textLength="46.8" x="845.55" y="831.883">Address</text><line style="stroke:#181818;stroke-width:0.45;" x1="825.75" x2="912.15" y1="839.0531" y2="839.0531"/><text fill="#000000" font-family="sans-serif" font-size="12.6" lengthAdjust="spacing" textLength="32.4" x="830.25" y="854.0596">street</text><text fill="#000000" font-family="sans-serif" font-size="12.6" lengthAdjust="spacing" textLength="51.3" x="830.25" y="868.1361">cityName</text><text fill="#000000" font-family="sans-serif" font-size="12.6" lengthAdjust="spacing" textLength="69.3" x="830.25" y="882.2127">districtName</text><text fill="#000000" font-family="sans-serif" font-size="12.6" lengthAdjust="spacing" textLength="77.4" x="830.25" y="896.2893">stateAcronym</text><text fill="#000000" font-family="sans-serif" font-size="12.6" lengthAdjust="spacing" textLength="45.9" x="830.25" y="910.3658">zipCode</text></g><!--class Administrator--><g id="elem_Administrator"><rect fill="#F1F1F1" height="30.2766" id="Administrator" rx="2.25" ry="2.25" style="stroke:#181818;stroke-width:0.45;" width="80.1" x="6.3" y="222.8766"/><text fill="#000000" font-family="sans-serif" font-size="12.6" lengthAdjust="spacing" textLength="74.7" x="9" y="238.783">Administrator</text><line style="stroke:#181818;stroke-width:0.45;" x1="7.2" x2="85.5" y1="245.9531" y2="245.9531"/></g><!--link Agent to Announcement--><g id="link_Agent_Announcement"><path codeLine="117" d="M656.109,189.2616 C660.933,198.7026 667.125,211.3566 671.85,222.8766 C705.537,305.0646 736.587,406.3236 749.376,449.5956 " fill="none" id="Agent-Announcement" style="stroke:#181818;stroke-width:0.9;"/><polygon fill="#000000" points="733.6677,335.3484,733.4122,326.7928,728.4321,328.5769,733.6677,335.3484" style="stroke:#000000;stroke-width:0.9;"/><text fill="#000000" font-family="sans-serif" font-size="11.7" lengthAdjust="spacing" textLength="49.5" x="740.25" y="335.1683">publishes</text><text fill="#000000" font-family="sans-serif" font-size="11.7" lengthAdjust="spacing" textLength="6.3" x="651.1899" y="206.6313">1</text><text fill="#000000" font-family="sans-serif" font-size="11.7" lengthAdjust="spacing" textLength="18" x="727.298" y="439.9757">1..*</text></g><!--link Agent to Request--><g id="link_Agent_Request"><path codeLine="118" d="M648.612,189.2706 C649.287,250.6866 651.915,488.9976 652.716,561.9696 " fill="none" id="Agent-Request" style="stroke:#181818;stroke-width:0.9;"/><polygon fill="#000000" points="656.5995,420.2118,659.1548,412.0426,653.865,412.1009,656.5995,420.2118" style="stroke:#000000;stroke-width:0.9;"/><text fill="#000000" font-family="sans-serif" font-size="11.7" lengthAdjust="spacing" textLength="37.8" x="664.65" y="419.7683">reviews</text><text fill="#000000" font-family="sans-serif" font-size="11.7" lengthAdjust="spacing" textLength="6.3" x="641.3969" y="206.643">1</text><text fill="#000000" font-family="sans-serif" font-size="11.7" lengthAdjust="spacing" textLength="18" x="654.9623" y="552.6715">1..*</text></g><!--link Announcement to Request--><g id="link_Announcement_Request"><path codeLine="119" d="M727.335,493.8396 C717.552,501.7956 706.824,511.2276 697.95,520.7766 C686.106,533.5116 674.685,549.4416 666.315,562.0416 " fill="none" id="Announcement-Request" style="stroke:#181818;stroke-width:0.9;"/><polygon fill="#000000" points="705.4505,524.8585,698.0513,529.1616,701.9938,532.6889,705.4505,524.8585" style="stroke:#000000;stroke-width:0.9;"/><text fill="#000000" font-family="sans-serif" font-size="11.7" lengthAdjust="spacing" textLength="35.1" x="710.55" y="532.2683">can be</text><text fill="#000000" font-family="sans-serif" font-size="11.7" lengthAdjust="spacing" textLength="6.3" x="712.9977" y="511.74">1</text><text fill="#000000" font-family="sans-serif" font-size="11.7" lengthAdjust="spacing" textLength="6.3" x="670.7534" y="552.4072">1</text></g><!--link Request to Property--><g id="link_Request_Property"><path codeLine="120" d="M665.46,606.4296 C672.696,618.6066 682.065,634.1046 690.75,647.6766 C696.33,656.3976 702.495,665.6946 708.354,674.3796 " fill="none" id="Request-Property" style="stroke:#181818;stroke-width:0.9;"/><polygon fill="#000000" points="697.6521,644.5174,695.5433,636.2217,691.07,639.0455,697.6521,644.5174" style="stroke:#000000;stroke-width:0.9;"/><text fill="#000000" font-family="sans-serif" font-size="11.7" lengthAdjust="spacing" textLength="42.3" x="703.35" y="644.7683">refers to</text><text fill="#000000" font-family="sans-serif" font-size="11.7" lengthAdjust="spacing" textLength="6.3" x="661.5585" y="624.3531">1</text><text fill="#000000" font-family="sans-serif" font-size="11.7" lengthAdjust="spacing" textLength="6.3" x="697.268" y="665.0469">1</text></g><!--link Agent to Property--><g id="link_Agent_Property"><path codeLine="121" d="M668.016,186.7416 C723.519,220.9686 877.95,317.3496 877.95,329.9766 C877.95,329.9766 877.95,329.9766 877.95,585.1266 C877.95,632.8176 832.419,666.3516 792.405,686.6106 " fill="none" id="Agent-Property" style="stroke:#181818;stroke-width:0.9;"/><polygon fill="#000000" points="883.5367,476.3289,884.1376,467.7906,879.0041,469.068,883.5367,476.3289" style="stroke:#000000;stroke-width:0.9;"/><text fill="#000000" font-family="sans-serif" font-size="11.7" lengthAdjust="spacing" textLength="75.6" x="890.55" y="476.0183">responsible for</text><text fill="#000000" font-family="sans-serif" font-size="11.7" lengthAdjust="spacing" textLength="6.3" x="674.9728" y="186.8808">1</text><text fill="#000000" font-family="sans-serif" font-size="11.7" lengthAdjust="spacing" textLength="18" x="799.1337" y="681.6114">1..*</text></g><!--link Announcement to Property--><g id="link_Announcement_Property"><path codeLine="122" d="M756.495,493.7856 C757.611,526.8426 758.403,592.6506 750.15,647.6766 C748.827,656.4696 746.694,665.7936 744.381,674.4876 " fill="none" id="Announcement-Property" style="stroke:#181818;stroke-width:0.9;"/><polygon fill="#000000" points="760.649,588.952,763.8326,581.0066,758.5544,580.6528,760.649,588.952" style="stroke:#000000;stroke-width:0.9;"/><text fill="#000000" font-family="sans-serif" font-size="11.7" lengthAdjust="spacing" textLength="44.1" x="769.05" y="588.5183">contains</text><text fill="#000000" font-family="sans-serif" font-size="11.7" lengthAdjust="spacing" textLength="6.3" x="749.63" y="511.6722">1</text><text fill="#000000" font-family="sans-serif" font-size="11.7" lengthAdjust="spacing" textLength="6.3" x="739.5382" y="664.9078">1</text></g><!--link Property to Address--><g id="link_Property_Address"><path codeLine="123" d="M764.568,747.6126 C782.523,767.8896 805.302,793.6116 824.994,815.8416 " fill="none" id="Property-Address" style="stroke:#181818;stroke-width:0.9;"/><polygon fill="#000000" points="808.0335,785.3809,804.6164,777.533,800.6562,781.0404,808.0335,785.3809" style="stroke:#000000;stroke-width:0.9;"/><text fill="#000000" font-family="sans-serif" font-size="11.7" lengthAdjust="spacing" textLength="51.3" x="813.15" y="786.0683">located at</text><text fill="#000000" font-family="sans-serif" font-size="11.7" lengthAdjust="spacing" textLength="6.3" x="762.7892" y="765.0922">1</text><text fill="#000000" font-family="sans-serif" font-size="11.7" lengthAdjust="spacing" textLength="6.3" x="812.3641" y="806.2372">1</text></g><!--reverse link Property to Dwelling--><g id="link_Property_Dwelling"><path codeLine="124" d="M733.05,765.7836 C733.05,786.9966 733.05,810.7926 733.05,829.8096 " fill="none" id="Property-backto-Dwelling" style="stroke:#181818;stroke-width:0.9;"/><polygon fill="none" points="726.75,765.6126,733.05,747.6126,739.35,765.6126,726.75,765.6126" style="stroke:#181818;stroke-width:0.9;"/></g><!--link Photograph to Property--><g id="link_Photograph_Property"><path codeLine="125" d="M958.275,606.3486 C942.966,619.5516 921.987,636.1476 901.35,647.6766 C866.925,666.9096 825.426,682.4076 792.252,693.1626 " fill="none" id="Photograph-Property" style="stroke:#181818;stroke-width:0.9;"/><polygon fill="#000000" points="930.5377,638.6269,922.0982,640.0551,924.5495,644.743,930.5377,638.6269" style="stroke:#000000;stroke-width:0.9;"/><text fill="#000000" font-family="sans-serif" font-size="11.7" lengthAdjust="spacing" textLength="18.9" x="934.65" y="644.7683">has</text><text fill="#000000" font-family="sans-serif" font-size="11.7" lengthAdjust="spacing" textLength="18" x="932.0302" y="624.2513">1..*</text><text fill="#000000" font-family="sans-serif" font-size="11.7" lengthAdjust="spacing" textLength="6.3" x="799.0718" y="702.5258">1</text></g><!--link Dwelling to Equipment--><g id="link_Dwelling_Equipment"><path codeLine="126" d="M761.022,902.8626 C782.379,930.0516 811.431,967.0056 831.267,992.2416 " fill="none" id="Dwelling-Equipment" style="stroke:#181818;stroke-width:0.9;"/><polygon fill="#000000" points="811.4307,954.7502,808.48,946.7153,804.3208,949.9842,811.4307,954.7502" style="stroke:#000000;stroke-width:0.9;"/><text fill="#000000" font-family="sans-serif" font-size="11.7" lengthAdjust="spacing" textLength="18.9" x="816.75" y="955.2683">has</text><text fill="#000000" font-family="sans-serif" font-size="11.7" lengthAdjust="spacing" textLength="6.3" x="758.678" y="920.3422">1</text><text fill="#000000" font-family="sans-serif" font-size="11.7" lengthAdjust="spacing" textLength="18" x="806.402" y="982.4864">1..*</text></g><!--reverse link Dwelling to House--><g id="link_Dwelling_House"><path codeLine="127" d="M730.845,921.0336 C729.972,942.2466 728.991,966.0426 728.217,985.0596 " fill="none" id="Dwelling-backto-House" style="stroke:#181818;stroke-width:0.9;"/><polygon fill="none" points="724.554,920.5926,731.592,902.8626,737.145,921.1146,724.554,920.5926" style="stroke:#181818;stroke-width:0.9;"/></g><!--link Agent to Person--><g id="link_Agent_Person"><path codeLine="128" d="M628.965,185.4006 C590.238,206.6046 501.831,255.0156 437.976,289.9896 " fill="none" id="Agent-to-Person" style="stroke:#181818;stroke-width:0.9;"/><polygon fill="none" points="440.721,295.6686,421.902,298.7826,434.664,284.6166,440.721,295.6686" style="stroke:#181818;stroke-width:0.9;"/></g><!--link Owner to Property--><g id="link_Owner_Property"><path codeLine="129" d="M469.35,189.2796 C469.35,216.7746 469.35,278.2266 469.35,329.9766 C469.35,329.9766 469.35,329.9766 469.35,585.1266 C469.35,675.0726 596.124,700.4256 673.875,707.5266 " fill="none" id="Owner-Property" style="stroke:#181818;stroke-width:0.9;"/><polygon fill="#000000" points="475.5019,476.1479,474.9739,467.6047,470.0532,469.5467,475.5019,476.1479" style="stroke:#000000;stroke-width:0.9;"/><text fill="#000000" font-family="sans-serif" font-size="11.7" lengthAdjust="spacing" textLength="54" x="481.95" y="476.0183">sells/rents</text><text fill="#000000" font-family="sans-serif" font-size="11.7" lengthAdjust="spacing" textLength="6.3" x="462.0853" y="206.6548">1</text><text fill="#000000" font-family="sans-serif" font-size="11.7" lengthAdjust="spacing" textLength="18" x="648.8445" y="704.5419">1..*</text></g><!--link Owner to Person--><g id="link_Owner_Person"><path codeLine="130" d="M459.531,189.3336 C447.795,206.7846 427.374,237.1506 408.501,265.2126 " fill="none" id="Owner-to-Person" style="stroke:#181818;stroke-width:0.9;"/><polygon fill="none" points="413.514,269.0466,398.241,280.4676,403.065,262.0176,413.514,269.0466" style="stroke:#181818;stroke-width:0.9;"/></g><!--link Owner to Request--><g id="link_Owner_Request"><path codeLine="131" d="M476.649,189.4146 C481.329,198.9186 487.494,211.5816 492.75,222.8766 C552.24,350.7936 619.722,506.2416 643.815,562.0866 " fill="none" id="Owner-Request" style="stroke:#181818;stroke-width:0.9;"/><polygon fill="#000000" points="589.0917,419.818,588.1734,411.3079,583.3467,413.4729,589.0917,419.818" style="stroke:#000000;stroke-width:0.9;"/><text fill="#000000" font-family="sans-serif" font-size="11.7" lengthAdjust="spacing" textLength="35.1" x="595.35" y="419.7683">makes</text><text fill="#000000" font-family="sans-serif" font-size="11.7" lengthAdjust="spacing" textLength="6.3" x="471.5678" y="206.5526">1</text><text fill="#000000" font-family="sans-serif" font-size="11.7" lengthAdjust="spacing" textLength="18" x="620.9412" y="552.4643">1..*</text></g><!--link Property to BusinessType--><g id="link_Property_BusinessType"><path codeLine="132" d="M676.773,747.8646 C666.369,755.9196 656.1,764.9556 647.55,774.5766 C628.893,795.5736 614.025,824.4636 605.196,844.0026 " fill="none" id="Property-BusinessType" style="stroke:#181818;stroke-width:0.9;"/><polygon fill="#000000" points="649.3627,785.6216,656.3457,780.6716,652.1025,777.5124,649.3627,785.6216" style="stroke:#000000;stroke-width:0.9;"/><text fill="#000000" font-family="sans-serif" font-size="11.7" lengthAdjust="spacing" textLength="64.8" x="660.15" y="786.0683">classified as</text><text fill="#000000" font-family="sans-serif" font-size="11.7" lengthAdjust="spacing" textLength="6.3" x="661.7447" y="764.841">1</text><text fill="#000000" font-family="sans-serif" font-size="11.7" lengthAdjust="spacing" textLength="6.3" x="600.3812" y="834.6745">1</text></g><!--link BusinessType to Lease--><g id="link_BusinessType_Lease"><path codeLine="134" d="M561.618,888.4896 C541.908,902.1246 518.139,921.4386 502.65,943.7766 C492.606,958.2666 486.144,976.9506 482.166,992.2866 " fill="none" id="BusinessType-Lease" style="stroke:#181818;stroke-width:0.9;"/><polygon fill="#000000" points="504.4148,954.7854,511.4632,949.929,507.2625,946.7135,504.4148,954.7854" style="stroke:#000000;stroke-width:0.9;"/><text fill="#000000" font-family="sans-serif" font-size="11.7" lengthAdjust="spacing" textLength="76.5" x="515.25" y="955.2683">categorized as</text><text fill="#000000" font-family="sans-serif" font-size="11.7" lengthAdjust="spacing" textLength="6.3" x="545.6364" y="906.39">1</text><text fill="#000000" font-family="sans-serif" font-size="11.7" lengthAdjust="spacing" textLength="6.3" x="476.4054" y="982.5412">1</text></g><!--link BusinessType to Sale--><g id="link_BusinessType_Sale"><path codeLine="135" d="M597.123,888.6156 C598.329,917.9286 600.48,970.3536 601.677,999.5676 " fill="none" id="BusinessType-Sale" style="stroke:#181818;stroke-width:0.9;"/><polygon fill="#000000" points="605.4345,955.7083,607.7435,947.4661,602.4579,947.6831,605.4345,955.7083" style="stroke:#000000;stroke-width:0.9;"/><text fill="#000000" font-family="sans-serif" font-size="11.7" lengthAdjust="spacing" textLength="76.5" x="613.35" y="955.2683">categorized as</text><text fill="#000000" font-family="sans-serif" font-size="11.7" lengthAdjust="spacing" textLength="6.3" x="590.2395" y="906.5483">1</text><text fill="#000000" font-family="sans-serif" font-size="11.7" lengthAdjust="spacing" textLength="6.3" x="594.2958" y="989.9671">1</text></g><!--link Commission to Agent--><g id="link_Commission_Agent"><path codeLine="136" d="M687.96,83.5836 C681.3,91.5486 674.28,100.9536 669.15,110.3766 C660.735,125.8476 654.948,145.3416 651.681,158.4186 " fill="none" id="Commission-Agent" style="stroke:#181818;stroke-width:0.9;"/><polygon fill="#000000" points="675.613,113.7628,669.6818,119.9342,674.442,122.2419,675.613,113.7628" style="stroke:#000000;stroke-width:0.9;"/><text fill="#000000" font-family="sans-serif" font-size="11.7" lengthAdjust="spacing" textLength="36.9" x="681.75" y="121.8683">defines</text><text fill="#000000" font-family="sans-serif" font-size="11.7" lengthAdjust="spacing" textLength="6.3" x="675.756" y="101.5209">1</text><text fill="#000000" font-family="sans-serif" font-size="11.7" lengthAdjust="spacing" textLength="6.3" x="645.4099" y="148.8183">1</text></g><!--link Commission to CommissionType--><g id="link_Commission_CommissionType"><path codeLine="137" d="M716.355,83.5746 C724.158,103.1766 735.669,132.0666 743.472,151.6506 " fill="none" id="Commission-CommissionType" style="stroke:#181818;stroke-width:0.9;"/><polygon fill="#000000" points="738.3153,121.9927,737.76,113.4512,732.8455,115.4088,738.3153,121.9927" style="stroke:#000000;stroke-width:0.9;"/><text fill="#000000" font-family="sans-serif" font-size="11.7" lengthAdjust="spacing" textLength="76.5" x="744.75" y="121.8683">categorized by</text><text fill="#000000" font-family="sans-serif" font-size="11.7" lengthAdjust="spacing" textLength="6.3" x="711.4272" y="101.5096">1</text><text fill="#000000" font-family="sans-serif" font-size="11.7" lengthAdjust="spacing" textLength="6.3" x="734.047" y="142.0186">1</text></g><!--reverse link Person to Employee--><g id="link_Person_Employee"><path codeLine="138" d="M293.607,390.5916 C280.071,401.4186 265.914,412.5156 252.45,422.6766 C237.033,434.3136 219.177,446.8506 205.569,456.2196 " fill="none" id="Person-backto-Employee" style="stroke:#181818;stroke-width:0.9;"/><polygon fill="none" points="290.043,385.3806,308.007,378.9996,297.945,395.1906,290.043,385.3806" style="stroke:#181818;stroke-width:0.9;"/></g><!--link OrganizationRole to Employee--><g id="link_OrganizationRole_Employee"><path codeLine="139" d="M138.987,83.5566 C143.253,134.9196 154.998,269.4876 169.65,381.2766 C173.133,407.8176 178.335,438.5976 181.44,456.2826 " fill="none" id="OrganizationRole-Employee" style="stroke:#181818;stroke-width:0.9;"/><polygon fill="#000000" points="159.2407,233.941,157.534,242.3286,162.79,241.73,159.2407,233.941" style="stroke:#000000;stroke-width:0.9;"/><text fill="#000000" font-family="sans-serif" font-size="11.7" lengthAdjust="spacing" textLength="27.9" x="167.85" y="242.4683">plays</text><text fill="#000000" font-family="sans-serif" font-size="11.7" lengthAdjust="spacing" textLength="18" x="119.1259" y="101.487">1..*</text><text fill="#000000" font-family="sans-serif" font-size="11.7" lengthAdjust="spacing" textLength="6.3" x="173.088" y="446.6695">1</text></g><!--link Agency to Employee--><g id="link_Agency_Employee"><path codeLine="140" d="M216.558,374.2476 C207.144,402.2016 195.408,437.0676 188.928,456.3366 " fill="none" id="Agency-Employee" style="stroke:#181818;stroke-width:0.9;"/><polygon fill="#000000" points="207.8145,419.977,212.9182,413.1055,207.9045,411.418,207.8145,419.977" style="stroke:#000000;stroke-width:0.9;"/><text fill="#000000" font-family="sans-serif" font-size="11.7" lengthAdjust="spacing" textLength="27" x="217.35" y="419.7683">owns</text><text fill="#000000" font-family="sans-serif" font-size="11.7" lengthAdjust="spacing" textLength="6.3" x="207.6962" y="392.1559">1</text><text fill="#000000" font-family="sans-serif" font-size="11.7" lengthAdjust="spacing" textLength="18" x="193.872" y="446.7427">1..*</text></g><!--link Administrator to Employee--><g id="link_Administrator_Employee"><path codeLine="141" d="M43.416,253.5216 C38.718,280.5486 32.202,339.8046 55.35,381.2766 C76.842,419.7786 122.67,445.4106 153.432,459.0456 " fill="none" id="Administrator-Employee" style="stroke:#181818;stroke-width:0.9;"/><polygon fill="#000000" points="61.9737,335.0795,60.4638,326.6542,55.7999,329.1507,61.9737,335.0795" style="stroke:#000000;stroke-width:0.9;"/><text fill="#000000" font-family="sans-serif" font-size="11.7" lengthAdjust="spacing" textLength="45" x="67.95" y="335.1683">registers</text><text fill="#000000" font-family="sans-serif" font-size="11.7" lengthAdjust="spacing" textLength="6.3" x="35.2528" y="270.8637">1</text><text fill="#000000" font-family="sans-serif" font-size="11.7" lengthAdjust="spacing" textLength="18" x="128.1274" y="453.6109">1..*</text></g><!--reverse link OrganizationRole to Administrator--><g id="link_OrganizationRole_Administrator"><path codeLine="142" d="M117.729,99.8196 C97.767,138.2676 67.761,196.0386 53.883,222.7686 " fill="none" id="OrganizationRole-backto-Administrator" style="stroke:#181818;stroke-width:0.9;"/><polygon fill="none" points="112.221,96.7596,126.108,83.6916,123.399,102.5736,112.221,96.7596" style="stroke:#181818;stroke-width:0.9;"/></g><!--reverse link OrganizationRole to Agent--><g id="link_OrganizationRole_Agent"><path codeLine="143" d="M206.694,77.2656 C325.071,102.8976 559.845,153.7386 628.911,168.6966 " fill="none" id="OrganizationRole-backto-Agent" style="stroke:#181818;stroke-width:0.9;"/><polygon fill="none" points="205.335,83.4216,189.081,73.4496,208.008,71.1006,205.335,83.4216" style="stroke:#181818;stroke-width:0.9;"/></g><!--link PropertyType to Property--><g id="link_PropertyType_Property"><path codeLine="144" d="M351.054,606.3396 C347.733,619.7046 346.464,636.4806 355.95,647.6766 C396.018,694.9446 578.304,706.5366 673.992,709.3446 " fill="none" id="PropertyType-Property" style="stroke:#181818;stroke-width:0.9;"/><polygon fill="#000000" points="356.1628,639.3447,363.1146,644.3384,364.7222,639.2985,356.1628,639.3447" style="stroke:#000000;stroke-width:0.9;"/><text fill="#000000" font-family="sans-serif" font-size="11.7" lengthAdjust="spacing" textLength="76.5" x="368.55" y="644.7683">categorized by</text><text fill="#000000" font-family="sans-serif" font-size="11.7" lengthAdjust="spacing" textLength="6.3" x="342.0003" y="624.24">1</text><text fill="#000000" font-family="sans-serif" font-size="11.7" lengthAdjust="spacing" textLength="18" x="648.9735" y="720.4468">1..*</text></g><!--SRC=[XLLRRzCm57xthx3wWeHKBczecYQLTX98Oo0Al3lnQMBDiRDZXz8D_Zl7iPsutGfvYNtodTjtBd5tolG2HSSxQspTeks0Uno0kUbBB-exqS3M7pHmXDeBq-WIu5eXxLwPXk-4Ti3O2mqxpxtbg9hMSwc2bhA65Kgr5iwjl4TL3Hu-rjPirGFmDuorIWAl5TRaP3ntu5ih7MDUUGfXOpkX3Fza9MZ-VVkECJOQur_XVW3d7ncdfnyghMeHt6w41_OdWRwWxG7z8Q84WXWFjVA7DHWFk56ECgmXMa5L1zqJvM-77fARGZBvU3yuPS2v6LOLajdS3GYN03eSVmWzHBz4XqTH-ys0OmgppbRefEBe53McZwi6J9rIKt9yIN2gCT58k0EHfrTI8aKJCsYjWTkXgm2d1DQswvHpfFEOmidtxF0K5nBZZwm-4XJ40RfiB3n6T31TUaBq5lrQeAH09haNlr9SMV8a-AS998UVzuQkwVB13fddYcZkgCwH8jEAIdbHQRYnkoXpWxd-rLitu1X-Dh7PWzRKuj6A6Rht8D7QpartuTiZmHU1rEpDbiO7N6dg-dvGVOWXSGkXrFe3K8rC4xjIuTeQgKBHWcpgtTPwsw3eszGqojnzixDqJl-wwxKz02LTK8ADCEfXR8MlDdSHqkasLECFAxl8Kp4BtPKnTg2XcCDUoP_KzogocIPiGiSAfJRr2E2d8RlDbPSqPpHTVXBGs7bOrMZD8VR0W-hNDEIHEnQZMhnTyELoIUzNhrukZkAwY3FlMd2SNntXCpnj27v1U-odWhqBkCB432-njJ2y0dx9igX0vOqmcjnHbuUrzxpp8oWrl76A6e_lBFuZYa8fx0HQV27cILeW4-a4r9Rs7aWkV0cz_4t0tCPiRfeSNZApo0eBijGAHsbdfPDyfZvEmAiPEFeQfouniLp-lafBW8sZUOQR2-x8X7kDf1GiHkp_jETITU8EpX5KRkL0PsXLjLE1gA32ZhuNUkEM7jl0GsEH_b99uvn2MD7FuUTjULIt9b8eOHUi4T_FuqvsxKLflZg4d4U28lTv_jdfq9zKE-F8Vw_58NYF_v3JMiyuknzRS2KxPS882s_nF1gX8L2OYwkdiOoX7XawXmaSiVBlUtwsJdYvPEdv2m00]--></g></svg>