<?xml version="1.0" encoding="us-ascii" standalone="no"?><svg xmlns="http://www.w3.org/2000/svg" xmlns:xlink="http://www.w3.org/1999/xlink" contentStyleType="text/css" height="1949px" preserveAspectRatio="none" style="width:1550px;height:1949px;background:#FFFFFF;" version="1.1" viewBox="0 0 1550 1949" width="1550px" zoomAndPan="magnify"><defs/><g><rect fill="#FFFFFF" height="1760.8516" style="stroke:#181818;stroke-width:1.0;" width="10" x="78.5" y="90.6406"/><rect fill="#FFFFFF" height="83.6875" style="stroke:#181818;stroke-width:1.0;" width="10" x="406.5" y="111.1641"/><rect fill="#FFFFFF" height="43.0469" style="stroke:#181818;stroke-width:1.0;" width="10" x="406.5" y="223.375"/><rect fill="#FFFFFF" height="43.0469" style="stroke:#181818;stroke-width:1.0;" width="10" x="406.5" y="294.9453"/><rect fill="#FFFFFF" height="239.8125" style="stroke:#181818;stroke-width:1.0;" width="10" x="406.5" y="366.5156"/><rect fill="#FFFFFF" height="28.5234" style="stroke:#181818;stroke-width:1.0;" width="10" x="406.5" y="626.8516"/><rect fill="#FFFFFF" height="28.5234" style="stroke:#181818;stroke-width:1.0;" width="10" x="406.5" y="683.8984"/><rect fill="#FFFFFF" height="28.5234" style="stroke:#181818;stroke-width:1.0;" width="10" x="406.5" y="740.9453"/><rect fill="#FFFFFF" height="1053.5" style="stroke:#181818;stroke-width:1.0;" width="10" x="406.5" y="797.9922"/><rect fill="#FFFFFF" height="900.3125" style="stroke:#181818;stroke-width:1.0;" width="10" x="790" y="922.6563"/><rect fill="#FFFFFF" height="509.2656" style="stroke:#181818;stroke-width:1.0;" width="10" x="1118" y="1285.1797"/><rect fill="#FFFFFF" height="171.4297" style="stroke:#181818;stroke-width:1.0;" width="10" x="1310" y="1594.4922"/><rect fill="#FFFFFF" height="71.4531" style="stroke:#181818;stroke-width:1.0;" width="10" x="1502" y="1665.9453"/><rect fill="none" height="217.8125" style="stroke:#000000;stroke-width:1.5;" width="511" x="10" y="381.5156"/><rect fill="none" height="348.5234" style="stroke:#000000;stroke-width:1.5;" width="627.5" x="302" y="812.9922"/><rect fill="none" height="348.5234" style="stroke:#000000;stroke-width:1.5;" width="575" x="660.5" y="1175.5156"/><line style="stroke:#181818;stroke-width:0.5;stroke-dasharray:5.0,5.0;" x1="83" x2="83" y1="80.6406" y2="1869.4922"/><line style="stroke:#181818;stroke-width:0.5;stroke-dasharray:5.0,5.0;" x1="411" x2="411" y1="80.6406" y2="1869.4922"/><line style="stroke:#181818;stroke-width:0.5;stroke-dasharray:5.0,5.0;" x1="794.5" x2="794.5" y1="149.4844" y2="1869.4922"/><line style="stroke:#181818;stroke-width:0.5;stroke-dasharray:5.0,5.0;" x1="1122.5" x2="1122.5" y1="80.6406" y2="1869.4922"/><line style="stroke:#181818;stroke-width:0.5;stroke-dasharray:5.0,5.0;" x1="1314.5" x2="1314.5" y1="80.6406" y2="1869.4922"/><line style="stroke:#181818;stroke-width:0.5;stroke-dasharray:5.0,5.0;" x1="1507" x2="1507" y1="80.6406" y2="1869.4922"/><text fill="#000000" font-family="sans-serif" font-size="14" lengthAdjust="spacing" textLength="121" x="20" y="77.6738">Organization Agent</text><ellipse cx="83.5" cy="13.5" fill="#E3E3E3" rx="8" ry="8" style="stroke:#181818;stroke-width:0.5;"/><path d="M83.5,21.5 L83.5,48.5 M70.5,29.5 L96.5,29.5 M83.5,48.5 L70.5,63.5 M83.5,48.5 L96.5,63.5 " fill="none" style="stroke:#181818;stroke-width:0.5;"/><text fill="#000000" font-family="sans-serif" font-size="14" lengthAdjust="spacing" textLength="121" x="20" y="1881.166">Organization Agent</text><ellipse cx="83.5" cy="1892.6328" fill="#E3E3E3" rx="8" ry="8" style="stroke:#181818;stroke-width:0.5;"/><path d="M83.5,1900.6328 L83.5,1927.6328 M70.5,1908.6328 L96.5,1908.6328 M83.5,1927.6328 L70.5,1942.6328 M83.5,1927.6328 L96.5,1942.6328 " fill="none" style="stroke:#181818;stroke-width:0.5;"/><rect fill="#E3E3E3" height="29.6406" rx="2.5" ry="2.5" style="stroke:#181818;stroke-width:0.5;" width="199" x="312" y="50"/><text fill="#000000" font-family="sans-serif" font-size="14" lengthAdjust="spacing" textLength="185" x="319" y="69.6738">:PublishSaleAnnouncementUI</text><rect fill="#E3E3E3" height="29.6406" rx="2.5" ry="2.5" style="stroke:#181818;stroke-width:0.5;" width="199" x="312" y="1868.4922"/><text fill="#000000" font-family="sans-serif" font-size="14" lengthAdjust="spacing" textLength="185" x="319" y="1888.166">:PublishSaleAnnouncementUI</text><rect fill="#E3E3E3" height="29.6406" rx="2.5" ry="2.5" style="stroke:#181818;stroke-width:0.5;" width="249" x="670.5" y="1868.4922"/><text fill="#000000" font-family="sans-serif" font-size="14" lengthAdjust="spacing" textLength="235" x="677.5" y="1888.166">:PublishSaleAnnouncementController</text><rect fill="#E3E3E3" height="45.2813" rx="2.5" ry="2.5" style="stroke:#181818;stroke-width:0.5;" width="205" x="1020.5" y="34.3594"/><text fill="#000000" font-family="sans-serif" font-size="14" lengthAdjust="spacing" textLength="72" x="1087" y="54.0332">Repository:</text><text fill="#000000" font-family="sans-serif" font-size="14" lengthAdjust="spacing" textLength="191" x="1027.5" y="69.6738">SaleAnnouncementRepository</text><rect fill="#E3E3E3" height="45.2813" rx="2.5" ry="2.5" style="stroke:#181818;stroke-width:0.5;" width="205" x="1020.5" y="1868.4922"/><text fill="#000000" font-family="sans-serif" font-size="14" lengthAdjust="spacing" textLength="72" x="1087" y="1888.166">Repository:</text><text fill="#000000" font-family="sans-serif" font-size="14" lengthAdjust="spacing" textLength="191" x="1027.5" y="1903.8066">SaleAnnouncementRepository</text><rect fill="#E3E3E3" height="29.6406" rx="2.5" ry="2.5" style="stroke:#181818;stroke-width:0.5;" width="141" x="1244.5" y="50"/><text fill="#000000" font-family="sans-serif" font-size="14" lengthAdjust="spacing" textLength="127" x="1251.5" y="69.6738">:SaleAnnouncement</text><rect fill="#E3E3E3" height="29.6406" rx="2.5" ry="2.5" style="stroke:#181818;stroke-width:0.5;" width="141" x="1244.5" y="1868.4922"/><text fill="#000000" font-family="sans-serif" font-size="14" lengthAdjust="spacing" textLength="127" x="1251.5" y="1888.166">:SaleAnnouncement</text><rect fill="#E3E3E3" height="29.6406" rx="2.5" ry="2.5" style="stroke:#181818;stroke-width:0.5;" width="68" x="1473" y="50"/><text fill="#000000" font-family="sans-serif" font-size="14" lengthAdjust="spacing" textLength="54" x="1480" y="69.6738">Property</text><rect fill="#E3E3E3" height="29.6406" rx="2.5" ry="2.5" style="stroke:#181818;stroke-width:0.5;" width="68" x="1473" y="1868.4922"/><text fill="#000000" font-family="sans-serif" font-size="14" lengthAdjust="spacing" textLength="54" x="1480" y="1888.166">Property</text><rect fill="#FFFFFF" height="1760.8516" style="stroke:#181818;stroke-width:1.0;" width="10" x="78.5" y="90.6406"/><rect fill="#FFFFFF" height="83.6875" style="stroke:#181818;stroke-width:1.0;" width="10" x="406.5" y="111.1641"/><rect fill="#FFFFFF" height="43.0469" style="stroke:#181818;stroke-width:1.0;" width="10" x="406.5" y="223.375"/><rect fill="#FFFFFF" height="43.0469" style="stroke:#181818;stroke-width:1.0;" width="10" x="406.5" y="294.9453"/><rect fill="#FFFFFF" height="239.8125" style="stroke:#181818;stroke-width:1.0;" width="10" x="406.5" y="366.5156"/><rect fill="#FFFFFF" height="28.5234" style="stroke:#181818;stroke-width:1.0;" width="10" x="406.5" y="626.8516"/><rect fill="#FFFFFF" height="28.5234" style="stroke:#181818;stroke-width:1.0;" width="10" x="406.5" y="683.8984"/><rect fill="#FFFFFF" height="28.5234" style="stroke:#181818;stroke-width:1.0;" width="10" x="406.5" y="740.9453"/><rect fill="#FFFFFF" height="1053.5" style="stroke:#181818;stroke-width:1.0;" width="10" x="406.5" y="797.9922"/><rect fill="#FFFFFF" height="900.3125" style="stroke:#181818;stroke-width:1.0;" width="10" x="790" y="922.6563"/><rect fill="#FFFFFF" height="509.2656" style="stroke:#181818;stroke-width:1.0;" width="10" x="1118" y="1285.1797"/><rect fill="#FFFFFF" height="171.4297" style="stroke:#181818;stroke-width:1.0;" width="10" x="1310" y="1594.4922"/><rect fill="#FFFFFF" height="71.4531" style="stroke:#181818;stroke-width:1.0;" width="10" x="1502" y="1665.9453"/><polygon fill="#181818" points="394.5,107.1641,404.5,111.1641,394.5,115.1641,398.5,111.1641" style="stroke:#181818;stroke-width:1.0;"/><line style="stroke:#181818;stroke-width:1.0;" x1="88.5" x2="400.5" y1="111.1641" y2="111.1641"/><text fill="#000000" font-family="sans-serif" font-size="13" font-weight="bold" lengthAdjust="spacing" textLength="7" x="95.5" y="106.4092">1</text><text fill="#000000" font-family="sans-serif" font-size="13" lengthAdjust="spacing" textLength="216" x="106.5" y="106.4092">asks to publish a sale announcement</text><polygon fill="#181818" points="658.5,135.6875,668.5,139.6875,658.5,143.6875,662.5,139.6875" style="stroke:#181818;stroke-width:1.0;"/><line style="stroke:#181818;stroke-width:1.0;" x1="416.5" x2="664.5" y1="139.6875" y2="139.6875"/><text fill="#000000" font-family="sans-serif" font-size="13" font-weight="bold" lengthAdjust="spacing" textLength="7" x="423.5" y="134.9326">2</text><text fill="#000000" font-family="sans-serif" font-size="13" lengthAdjust="spacing" textLength="219" x="434.5" y="134.9326">PublishSaleAnnouncementController()</text><rect fill="#E3E3E3" height="29.6406" rx="2.5" ry="2.5" style="stroke:#181818;stroke-width:0.5;" width="249" x="670.5" y="119.1641"/><text fill="#000000" font-family="sans-serif" font-size="14" lengthAdjust="spacing" textLength="235" x="677.5" y="138.8379">:PublishSaleAnnouncementController</text><polygon fill="#181818" points="99.5,190.8516,89.5,194.8516,99.5,198.8516,95.5,194.8516" style="stroke:#181818;stroke-width:1.0;"/><line style="stroke:#181818;stroke-width:1.0;stroke-dasharray:2.0,2.0;" x1="93.5" x2="410.5" y1="194.8516" y2="194.8516"/><text fill="#000000" font-family="sans-serif" font-size="13" font-weight="bold" lengthAdjust="spacing" textLength="7" x="105.5" y="182.835">3</text><text fill="#000000" font-family="sans-serif" font-size="13" lengthAdjust="spacing" textLength="235" x="116.5" y="175.5732">Asks to write the district (optional), state</text><text fill="#000000" font-family="sans-serif" font-size="13" lengthAdjust="spacing" textLength="140" x="116.5" y="190.0967">city, street and zip-code</text><polygon fill="#181818" points="394.5,219.375,404.5,223.375,394.5,227.375,398.5,223.375" style="stroke:#181818;stroke-width:1.0;"/><line style="stroke:#181818;stroke-width:1.0;" x1="88.5" x2="400.5" y1="223.375" y2="223.375"/><text fill="#000000" font-family="sans-serif" font-size="13" font-weight="bold" lengthAdjust="spacing" textLength="7" x="95.5" y="218.6201">4</text><text fill="#000000" font-family="sans-serif" font-size="13" lengthAdjust="spacing" textLength="68" x="106.5" y="218.6201">inserts data</text><polygon fill="#181818" points="99.5,262.4219,89.5,266.4219,99.5,270.4219,95.5,266.4219" style="stroke:#181818;stroke-width:1.0;"/><line style="stroke:#181818;stroke-width:1.0;stroke-dasharray:2.0,2.0;" x1="93.5" x2="410.5" y1="266.4219" y2="266.4219"/><text fill="#000000" font-family="sans-serif" font-size="13" font-weight="bold" lengthAdjust="spacing" textLength="7" x="105.5" y="254.4053">5</text><text fill="#000000" font-family="sans-serif" font-size="13" lengthAdjust="spacing" textLength="149" x="116.5" y="247.1436">shows property types and</text><text fill="#000000" font-family="sans-serif" font-size="13" lengthAdjust="spacing" textLength="107" x="120.5" y="261.667">asks to select one</text><polygon fill="#181818" points="394.5,290.9453,404.5,294.9453,394.5,298.9453,398.5,294.9453" style="stroke:#181818;stroke-width:1.0;"/><line style="stroke:#181818;stroke-width:1.0;" x1="88.5" x2="400.5" y1="294.9453" y2="294.9453"/><text fill="#000000" font-family="sans-serif" font-size="13" font-weight="bold" lengthAdjust="spacing" textLength="7" x="95.5" y="290.1904">6</text><text fill="#000000" font-family="sans-serif" font-size="13" lengthAdjust="spacing" textLength="133" x="106.5" y="290.1904">selects a property type</text><polygon fill="#181818" points="99.5,333.9922,89.5,337.9922,99.5,341.9922,95.5,337.9922" style="stroke:#181818;stroke-width:1.0;"/><line style="stroke:#181818;stroke-width:1.0;stroke-dasharray:2.0,2.0;" x1="93.5" x2="410.5" y1="337.9922" y2="337.9922"/><text fill="#000000" font-family="sans-serif" font-size="13" font-weight="bold" lengthAdjust="spacing" textLength="7" x="105.5" y="325.9756">7</text><text fill="#000000" font-family="sans-serif" font-size="13" lengthAdjust="spacing" textLength="222" x="116.5" y="318.7139">shows type of transaction (rent or buy)</text><text fill="#000000" font-family="sans-serif" font-size="13" lengthAdjust="spacing" textLength="132" x="120.5" y="333.2373">and asks to select one</text><polygon fill="#181818" points="394.5,362.5156,404.5,366.5156,394.5,370.5156,398.5,366.5156" style="stroke:#181818;stroke-width:1.0;"/><line style="stroke:#181818;stroke-width:1.0;" x1="88.5" x2="400.5" y1="366.5156" y2="366.5156"/><text fill="#000000" font-family="sans-serif" font-size="13" font-weight="bold" lengthAdjust="spacing" textLength="7" x="95.5" y="361.7607">8</text><text fill="#000000" font-family="sans-serif" font-size="13" lengthAdjust="spacing" textLength="153" x="106.5" y="361.7607">selects type of transaction</text><path d="M10,381.5156 L71,381.5156 L71,388.0391 L61,398.0391 L10,398.0391 L10,381.5156 " fill="#EEEEEE" style="stroke:#000000;stroke-width:1.5;"/><rect fill="none" height="217.8125" style="stroke:#000000;stroke-width:1.5;" width="511" x="10" y="381.5156"/><text fill="#000000" font-family="sans-serif" font-size="13" font-weight="bold" lengthAdjust="spacing" textLength="16" x="25" y="394.2842">alt</text><text fill="#000000" font-family="sans-serif" font-size="11" font-weight="bold" lengthAdjust="spacing" textLength="101" x="86" y="393.4736">[type = apartment]</text><polygon fill="#181818" points="99.5,458.1328,89.5,462.1328,99.5,466.1328,95.5,462.1328" style="stroke:#181818;stroke-width:1.0;"/><line style="stroke:#181818;stroke-width:1.0;stroke-dasharray:2.0,2.0;" x1="93.5" x2="405.5" y1="462.1328" y2="462.1328"/><text fill="#000000" font-family="sans-serif" font-size="13" font-weight="bold" lengthAdjust="spacing" textLength="7" x="105.5" y="435.5928">9</text><text fill="#000000" font-family="sans-serif" font-size="13" lengthAdjust="spacing" textLength="260" x="116.5" y="413.8076">requests the apartment characteristics (area,</text><text fill="#000000" font-family="sans-serif" font-size="13" lengthAdjust="spacing" textLength="242" x="116.5" y="428.3311">cityCenterDistance, price, numBedrooms,</text><text fill="#000000" font-family="sans-serif" font-size="13" lengthAdjust="spacing" textLength="278" x="116.5" y="442.8545">numBathrooms, numParkingSpaces, basement,</text><text fill="#000000" font-family="sans-serif" font-size="13" lengthAdjust="spacing" textLength="234" x="116.5" y="457.3779">inhabitableLoft, sunExposure,todayDate)</text><line style="stroke:#000000;stroke-width:1.0;stroke-dasharray:2.0,2.0;" x1="10" x2="521" y1="471.1328" y2="471.1328"/><text fill="#000000" font-family="sans-serif" font-size="11" font-weight="bold" lengthAdjust="spacing" textLength="79" x="15" y="481.0908">[type = house]</text><polygon fill="#181818" points="99.5,529.9922,89.5,533.9922,99.5,537.9922,95.5,533.9922" style="stroke:#181818;stroke-width:1.0;"/><line style="stroke:#181818;stroke-width:1.0;stroke-dasharray:2.0,2.0;" x1="93.5" x2="405.5" y1="533.9922" y2="533.9922"/><text fill="#000000" font-family="sans-serif" font-size="13" font-weight="bold" lengthAdjust="spacing" textLength="14" x="105.5" y="514.7139">10</text><text fill="#000000" font-family="sans-serif" font-size="13" lengthAdjust="spacing" textLength="237" x="123.5" y="500.1904">requests the house characteristics (area,</text><text fill="#000000" font-family="sans-serif" font-size="13" lengthAdjust="spacing" textLength="242" x="123.5" y="514.7139">cityCenterDistance, price, numBedrooms,</text><text fill="#000000" font-family="sans-serif" font-size="13" lengthAdjust="spacing" textLength="276" x="123.5" y="529.2373">numBathrooms, numParkingSpaces,todayDate)</text><line style="stroke:#000000;stroke-width:1.0;stroke-dasharray:2.0,2.0;" x1="10" x2="521" y1="542.9922" y2="542.9922"/><text fill="#000000" font-family="sans-serif" font-size="11" font-weight="bold" lengthAdjust="spacing" textLength="67" x="15" y="552.9502">[type = land]</text><polygon fill="#181818" points="99.5,587.3281,89.5,591.3281,99.5,595.3281,95.5,591.3281" style="stroke:#181818;stroke-width:1.0;"/><line style="stroke:#181818;stroke-width:1.0;stroke-dasharray:2.0,2.0;" x1="93.5" x2="405.5" y1="591.3281" y2="591.3281"/><text fill="#000000" font-family="sans-serif" font-size="13" font-weight="bold" lengthAdjust="spacing" textLength="14" x="105.5" y="579.3115">11</text><text fill="#000000" font-family="sans-serif" font-size="13" lengthAdjust="spacing" textLength="226" x="123.5" y="572.0498">requests the land characteristics (area,</text><text fill="#000000" font-family="sans-serif" font-size="13" lengthAdjust="spacing" textLength="209" x="123.5" y="586.5732">cityCenterDistance,price,todayDate)</text><polygon fill="#181818" points="394.5,622.8516,404.5,626.8516,394.5,630.8516,398.5,626.8516" style="stroke:#181818;stroke-width:1.0;"/><line style="stroke:#181818;stroke-width:1.0;" x1="88.5" x2="400.5" y1="626.8516" y2="626.8516"/><text fill="#000000" font-family="sans-serif" font-size="13" font-weight="bold" lengthAdjust="spacing" textLength="14" x="95.5" y="622.0967">12</text><text fill="#000000" font-family="sans-serif" font-size="13" lengthAdjust="spacing" textLength="153" x="113.5" y="622.0967">confirms and submits data</text><polygon fill="#181818" points="99.5,651.375,89.5,655.375,99.5,659.375,95.5,655.375" style="stroke:#181818;stroke-width:1.0;"/><line style="stroke:#181818;stroke-width:1.0;stroke-dasharray:2.0,2.0;" x1="93.5" x2="410.5" y1="655.375" y2="655.375"/><text fill="#000000" font-family="sans-serif" font-size="13" font-weight="bold" lengthAdjust="spacing" textLength="14" x="105.5" y="650.6201">13</text><text fill="#000000" font-family="sans-serif" font-size="13" lengthAdjust="spacing" textLength="115" x="123.5" y="650.6201">aks to insert photos</text><polygon fill="#181818" points="394.5,679.8984,404.5,683.8984,394.5,687.8984,398.5,683.8984" style="stroke:#181818;stroke-width:1.0;"/><line style="stroke:#181818;stroke-width:1.0;" x1="88.5" x2="400.5" y1="683.8984" y2="683.8984"/><text fill="#000000" font-family="sans-serif" font-size="13" font-weight="bold" lengthAdjust="spacing" textLength="14" x="95.5" y="679.1436">14</text><text fill="#000000" font-family="sans-serif" font-size="13" lengthAdjust="spacing" textLength="158" x="113.5" y="679.1436">inserts photos(at least one)</text><polygon fill="#181818" points="99.5,708.4219,89.5,712.4219,99.5,716.4219,95.5,712.4219" style="stroke:#181818;stroke-width:1.0;"/><line style="stroke:#181818;stroke-width:1.0;stroke-dasharray:2.0,2.0;" x1="93.5" x2="410.5" y1="712.4219" y2="712.4219"/><text fill="#000000" font-family="sans-serif" font-size="13" font-weight="bold" lengthAdjust="spacing" textLength="14" x="105.5" y="707.667">15</text><text fill="#000000" font-family="sans-serif" font-size="13" lengthAdjust="spacing" textLength="129" x="123.5" y="707.667">asks who is the owner</text><polygon fill="#181818" points="394.5,736.9453,404.5,740.9453,394.5,744.9453,398.5,740.9453" style="stroke:#181818;stroke-width:1.0;"/><line style="stroke:#181818;stroke-width:1.0;" x1="88.5" x2="400.5" y1="740.9453" y2="740.9453"/><text fill="#000000" font-family="sans-serif" font-size="13" font-weight="bold" lengthAdjust="spacing" textLength="14" x="95.5" y="736.1904">16</text><text fill="#000000" font-family="sans-serif" font-size="13" lengthAdjust="spacing" textLength="134" x="113.5" y="736.1904">inserts the owner email</text><polygon fill="#181818" points="99.5,765.4688,89.5,769.4688,99.5,773.4688,95.5,769.4688" style="stroke:#181818;stroke-width:1.0;"/><line style="stroke:#181818;stroke-width:1.0;stroke-dasharray:2.0,2.0;" x1="93.5" x2="410.5" y1="769.4688" y2="769.4688"/><text fill="#000000" font-family="sans-serif" font-size="13" font-weight="bold" lengthAdjust="spacing" textLength="14" x="105.5" y="764.7139">17</text><text fill="#000000" font-family="sans-serif" font-size="13" lengthAdjust="spacing" textLength="82" x="123.5" y="764.7139">asks the price</text><polygon fill="#181818" points="394.5,793.9922,404.5,797.9922,394.5,801.9922,398.5,797.9922" style="stroke:#181818;stroke-width:1.0;"/><line style="stroke:#181818;stroke-width:1.0;" x1="88.5" x2="400.5" y1="797.9922" y2="797.9922"/><text fill="#000000" font-family="sans-serif" font-size="13" font-weight="bold" lengthAdjust="spacing" textLength="14" x="95.5" y="793.2373">18</text><text fill="#000000" font-family="sans-serif" font-size="13" lengthAdjust="spacing" textLength="93" x="113.5" y="793.2373">inserts the price</text><path d="M302,812.9922 L363,812.9922 L363,819.5156 L353,829.5156 L302,829.5156 L302,812.9922 " fill="#EEEEEE" style="stroke:#000000;stroke-width:1.5;"/><rect fill="none" height="348.5234" style="stroke:#000000;stroke-width:1.5;" width="627.5" x="302" y="812.9922"/><text fill="#000000" font-family="sans-serif" font-size="13" font-weight="bold" lengthAdjust="spacing" textLength="16" x="317" y="825.7607">alt</text><text fill="#000000" font-family="sans-serif" font-size="11" font-weight="bold" lengthAdjust="spacing" textLength="101" x="378" y="824.9502">[type = apartment]</text><polygon fill="#181818" points="778,918.6563,788,922.6563,778,926.6563,782,922.6563" style="stroke:#181818;stroke-width:1.0;"/><line style="stroke:#181818;stroke-width:1.0;" x1="416.5" x2="784" y1="922.6563" y2="922.6563"/><text fill="#000000" font-family="sans-serif" font-size="13" font-weight="bold" lengthAdjust="spacing" textLength="14" x="423.5" y="881.5928">19</text><text fill="#000000" font-family="sans-serif" font-size="13" lengthAdjust="spacing" textLength="229" x="441.5" y="845.2842">createSaleAnnouncement(district,state,</text><text fill="#000000" font-family="sans-serif" font-size="13" lengthAdjust="spacing" textLength="194" x="441.5" y="859.8076">city,street,zip-code,propertyType,</text><text fill="#000000" font-family="sans-serif" font-size="13" lengthAdjust="spacing" textLength="196" x="441.5" y="874.3311">transactionType, area, cityCenter,</text><text fill="#000000" font-family="sans-serif" font-size="13" lengthAdjust="spacing" textLength="216" x="441.5" y="888.8545">price, numBedrooms,numBathrooms,</text><text fill="#000000" font-family="sans-serif" font-size="13" lengthAdjust="spacing" textLength="222" x="441.5" y="903.3779">numParkingSpaces, todayDate,owner,</text><text fill="#000000" font-family="sans-serif" font-size="13" lengthAdjust="spacing" textLength="75" x="445.5" y="917.9014">photographs)</text><line style="stroke:#000000;stroke-width:1.0;stroke-dasharray:2.0,2.0;" x1="302" x2="929.5" y1="931.6563" y2="931.6563"/><text fill="#000000" font-family="sans-serif" font-size="11" font-weight="bold" lengthAdjust="spacing" textLength="79" x="307" y="941.6143">[type = house]</text><polygon fill="#181818" points="778,1048.6094,788,1052.6094,778,1056.6094,782,1052.6094" style="stroke:#181818;stroke-width:1.0;"/><line style="stroke:#181818;stroke-width:1.0;" x1="416.5" x2="784" y1="1052.6094" y2="1052.6094"/><text fill="#000000" font-family="sans-serif" font-size="13" font-weight="bold" lengthAdjust="spacing" textLength="14" x="423.5" y="1004.2842">20</text><text fill="#000000" font-family="sans-serif" font-size="13" lengthAdjust="spacing" textLength="229" x="441.5" y="960.7139">createSaleAnnouncement(district,state,</text><text fill="#000000" font-family="sans-serif" font-size="13" lengthAdjust="spacing" textLength="194" x="441.5" y="975.2373">city,street,zip-code,propertyType,</text><text fill="#000000" font-family="sans-serif" font-size="13" lengthAdjust="spacing" textLength="196" x="441.5" y="989.7607">transactionType, area, cityCenter,</text><text fill="#000000" font-family="sans-serif" font-size="13" lengthAdjust="spacing" textLength="216" x="441.5" y="1004.2842">price, numBedrooms,numBathrooms,</text><text fill="#000000" font-family="sans-serif" font-size="13" lengthAdjust="spacing" textLength="182" x="441.5" y="1018.8076">numParkingSpaces, basement,</text><text fill="#000000" font-family="sans-serif" font-size="13" lengthAdjust="spacing" textLength="276" x="441.5" y="1033.3311">inhabitableLoft, sunExposure, todayDate,owner,</text><text fill="#000000" font-family="sans-serif" font-size="13" lengthAdjust="spacing" textLength="75" x="445.5" y="1047.8545">photographs)</text><line style="stroke:#000000;stroke-width:1.0;stroke-dasharray:2.0,2.0;" x1="302" x2="929.5" y1="1061.6094" y2="1061.6094"/><text fill="#000000" font-family="sans-serif" font-size="11" font-weight="bold" lengthAdjust="spacing" textLength="67" x="307" y="1071.5674">[type = land]</text><polygon fill="#181818" points="778,1149.5156,788,1153.5156,778,1157.5156,782,1153.5156" style="stroke:#181818;stroke-width:1.0;"/><line style="stroke:#181818;stroke-width:1.0;" x1="416.5" x2="784" y1="1153.5156" y2="1153.5156"/><text fill="#000000" font-family="sans-serif" font-size="13" font-weight="bold" lengthAdjust="spacing" textLength="14" x="423.5" y="1119.7139">21</text><text fill="#000000" font-family="sans-serif" font-size="13" lengthAdjust="spacing" textLength="229" x="441.5" y="1090.667">createSaleAnnouncement(district,state,</text><text fill="#000000" font-family="sans-serif" font-size="13" lengthAdjust="spacing" textLength="194" x="441.5" y="1105.1904">city,street,zip-code,propertyType,</text><text fill="#000000" font-family="sans-serif" font-size="13" lengthAdjust="spacing" textLength="196" x="441.5" y="1119.7139">transactionType, area, cityCenter,</text><text fill="#000000" font-family="sans-serif" font-size="13" lengthAdjust="spacing" textLength="137" x="441.5" y="1134.2373">price, todayDate,owner,</text><text fill="#000000" font-family="sans-serif" font-size="13" lengthAdjust="spacing" textLength="75" x="445.5" y="1148.7607">photographs)</text><path d="M660.5,1175.5156 L721.5,1175.5156 L721.5,1182.0391 L711.5,1192.0391 L660.5,1192.0391 L660.5,1175.5156 " fill="#EEEEEE" style="stroke:#000000;stroke-width:1.5;"/><rect fill="none" height="348.5234" style="stroke:#000000;stroke-width:1.5;" width="575" x="660.5" y="1175.5156"/><text fill="#000000" font-family="sans-serif" font-size="13" font-weight="bold" lengthAdjust="spacing" textLength="16" x="675.5" y="1188.2842">alt</text><text fill="#000000" font-family="sans-serif" font-size="11" font-weight="bold" lengthAdjust="spacing" textLength="101" x="736.5" y="1187.4736">[type = apartment]</text><polygon fill="#181818" points="1106,1281.1797,1116,1285.1797,1106,1289.1797,1110,1285.1797" style="stroke:#181818;stroke-width:1.0;"/><line style="stroke:#181818;stroke-width:1.0;" x1="800" x2="1112" y1="1285.1797" y2="1285.1797"/><text fill="#000000" font-family="sans-serif" font-size="13" font-weight="bold" lengthAdjust="spacing" textLength="14" x="807" y="1244.1162">22</text><text fill="#000000" font-family="sans-serif" font-size="13" lengthAdjust="spacing" textLength="229" x="825" y="1207.8076">createSaleAnnouncement(district,state,</text><text fill="#000000" font-family="sans-serif" font-size="13" lengthAdjust="spacing" textLength="194" x="825" y="1222.3311">city,street,zip-code,propertyType,</text><text fill="#000000" font-family="sans-serif" font-size="13" lengthAdjust="spacing" textLength="196" x="825" y="1236.8545">transactionType, area, cityCenter,</text><text fill="#000000" font-family="sans-serif" font-size="13" lengthAdjust="spacing" textLength="216" x="825" y="1251.3779">price, numBedrooms,numBathrooms,</text><text fill="#000000" font-family="sans-serif" font-size="13" lengthAdjust="spacing" textLength="222" x="825" y="1265.9014">numParkingSpaces, todayDate,owner,</text><text fill="#000000" font-family="sans-serif" font-size="13" lengthAdjust="spacing" textLength="75" x="829" y="1280.4248">photographs)</text><line style="stroke:#000000;stroke-width:1.0;stroke-dasharray:2.0,2.0;" x1="660.5" x2="1235.5" y1="1294.1797" y2="1294.1797"/><text fill="#000000" font-family="sans-serif" font-size="11" font-weight="bold" lengthAdjust="spacing" textLength="79" x="665.5" y="1304.1377">[type = house]</text><polygon fill="#181818" points="1106,1411.1328,1116,1415.1328,1106,1419.1328,1110,1415.1328" style="stroke:#181818;stroke-width:1.0;"/><line style="stroke:#181818;stroke-width:1.0;" x1="800" x2="1112" y1="1415.1328" y2="1415.1328"/><text fill="#000000" font-family="sans-serif" font-size="13" font-weight="bold" lengthAdjust="spacing" textLength="14" x="807" y="1366.8076">23</text><text fill="#000000" font-family="sans-serif" font-size="13" lengthAdjust="spacing" textLength="229" x="825" y="1323.2373">createSaleAnnouncement(district,state,</text><text fill="#000000" font-family="sans-serif" font-size="13" lengthAdjust="spacing" textLength="194" x="825" y="1337.7607">city,street,zip-code,propertyType,</text><text fill="#000000" font-family="sans-serif" font-size="13" lengthAdjust="spacing" textLength="196" x="825" y="1352.2842">transactionType, area, cityCenter,</text><text fill="#000000" font-family="sans-serif" font-size="13" lengthAdjust="spacing" textLength="216" x="825" y="1366.8076">price, numBedrooms,numBathrooms,</text><text fill="#000000" font-family="sans-serif" font-size="13" lengthAdjust="spacing" textLength="182" x="825" y="1381.3311">numParkingSpaces, basement,</text><text fill="#000000" font-family="sans-serif" font-size="13" lengthAdjust="spacing" textLength="276" x="825" y="1395.8545">inhabitableLoft, sunExposure, todayDate,owner,</text><text fill="#000000" font-family="sans-serif" font-size="13" lengthAdjust="spacing" textLength="75" x="829" y="1410.3779">photographs)</text><line style="stroke:#000000;stroke-width:1.0;stroke-dasharray:2.0,2.0;" x1="660.5" x2="1235.5" y1="1424.1328" y2="1424.1328"/><text fill="#000000" font-family="sans-serif" font-size="11" font-weight="bold" lengthAdjust="spacing" textLength="67" x="665.5" y="1434.0908">[type = land]</text><polygon fill="#181818" points="1106,1512.0391,1116,1516.0391,1106,1520.0391,1110,1516.0391" style="stroke:#181818;stroke-width:1.0;"/><line style="stroke:#181818;stroke-width:1.0;" x1="800" x2="1112" y1="1516.0391" y2="1516.0391"/><text fill="#000000" font-family="sans-serif" font-size="13" font-weight="bold" lengthAdjust="spacing" textLength="14" x="807" y="1482.2373">24</text><text fill="#000000" font-family="sans-serif" font-size="13" lengthAdjust="spacing" textLength="229" x="825" y="1453.1904">createSaleAnnouncement(district,state,</text><text fill="#000000" font-family="sans-serif" font-size="13" lengthAdjust="spacing" textLength="194" x="825" y="1467.7139">city,street,zip-code,propertyType,</text><text fill="#000000" font-family="sans-serif" font-size="13" lengthAdjust="spacing" textLength="196" x="825" y="1482.2373">transactionType, area, cityCenter,</text><text fill="#000000" font-family="sans-serif" font-size="13" lengthAdjust="spacing" textLength="137" x="825" y="1496.7607">price, todayDate,owner,</text><text fill="#000000" font-family="sans-serif" font-size="13" lengthAdjust="spacing" textLength="75" x="829" y="1511.2842">photographs)</text><rect fill="none" height="37.9297" style="stroke:#000000;stroke-width:1.5;" width="211" x="1017.5" y="1531.0391"/><path d="M1017.5,1531.0391 L1079.5,1531.0391 L1079.5,1537.0391 L1069.5,1547.0391 L1017.5,1547.0391 L1017.5,1531.0391 " fill="#EEEEEE" style="stroke:#000000;stroke-width:2.0;"/><text fill="#000000" font-family="sans-serif" font-size="13" font-weight="bold" lengthAdjust="spacing" textLength="17" x="1030.5" y="1544.8076">ref</text><text fill="#000000" font-family="sans-serif" font-size="12" lengthAdjust="spacing" textLength="142" x="1052" y="1561.9023">createSaleAnnouncement</text><polygon fill="#181818" points="1298,1590.4922,1308,1594.4922,1298,1598.4922,1302,1594.4922" style="stroke:#181818;stroke-width:1.0;"/><line style="stroke:#181818;stroke-width:1.0;" x1="1128" x2="1304" y1="1594.4922" y2="1594.4922"/><text fill="#000000" font-family="sans-serif" font-size="13" font-weight="bold" lengthAdjust="spacing" textLength="14" x="1135" y="1589.7373">25</text><text fill="#000000" font-family="sans-serif" font-size="13" lengthAdjust="spacing" textLength="4" x="1153" y="1589.7373">&#160;</text><rect fill="none" height="37.9297" style="stroke:#000000;stroke-width:1.5;" width="147" x="1241.5" y="1602.4922"/><path d="M1241.5,1602.4922 L1303.5,1602.4922 L1303.5,1608.4922 L1293.5,1618.4922 L1241.5,1618.4922 L1241.5,1602.4922 " fill="#EEEEEE" style="stroke:#000000;stroke-width:2.0;"/><text fill="#000000" font-family="sans-serif" font-size="13" font-weight="bold" lengthAdjust="spacing" textLength="17" x="1254.5" y="1616.2607">ref</text><text fill="#000000" font-family="sans-serif" font-size="12" lengthAdjust="spacing" textLength="120" x="1255" y="1633.3555">fillSaleAnnouncement</text><polygon fill="#181818" points="1490,1661.9453,1500,1665.9453,1490,1669.9453,1494,1665.9453" style="stroke:#181818;stroke-width:1.0;"/><line style="stroke:#181818;stroke-width:1.0;" x1="1320" x2="1496" y1="1665.9453" y2="1665.9453"/><text fill="#000000" font-family="sans-serif" font-size="13" font-weight="bold" lengthAdjust="spacing" textLength="14" x="1327" y="1661.1904">26</text><text fill="#000000" font-family="sans-serif" font-size="13" lengthAdjust="spacing" textLength="4" x="1345" y="1661.1904">&#160;</text><rect fill="none" height="37.9297" style="stroke:#000000;stroke-width:1.5;" width="74" x="1470" y="1673.9453"/><path d="M1470,1673.9453 L1532,1673.9453 L1532,1679.9453 L1522,1689.9453 L1470,1689.9453 L1470,1673.9453 " fill="#EEEEEE" style="stroke:#000000;stroke-width:2.0;"/><text fill="#000000" font-family="sans-serif" font-size="13" font-weight="bold" lengthAdjust="spacing" textLength="17" x="1483" y="1687.7139">ref</text><text fill="#000000" font-family="sans-serif" font-size="12" lengthAdjust="spacing" textLength="61" x="1476.5" y="1704.8086">FillProperty</text><polygon fill="#181818" points="1331,1733.3984,1321,1737.3984,1331,1741.3984,1327,1737.3984" style="stroke:#181818;stroke-width:1.0;"/><line style="stroke:#181818;stroke-width:1.0;stroke-dasharray:2.0,2.0;" x1="1325" x2="1506" y1="1737.3984" y2="1737.3984"/><text fill="#000000" font-family="sans-serif" font-size="13" font-weight="bold" lengthAdjust="spacing" textLength="14" x="1337" y="1732.6436">27</text><text fill="#000000" font-family="sans-serif" font-size="13" lengthAdjust="spacing" textLength="140" x="1355" y="1732.6436">show operation success</text><polygon fill="#181818" points="1139,1761.9219,1129,1765.9219,1139,1769.9219,1135,1765.9219" style="stroke:#181818;stroke-width:1.0;"/><line style="stroke:#181818;stroke-width:1.0;stroke-dasharray:2.0,2.0;" x1="1133" x2="1314" y1="1765.9219" y2="1765.9219"/><text fill="#000000" font-family="sans-serif" font-size="13" font-weight="bold" lengthAdjust="spacing" textLength="14" x="1145" y="1761.167">28</text><text fill="#000000" font-family="sans-serif" font-size="13" lengthAdjust="spacing" textLength="140" x="1163" y="1761.167">show operation success</text><polygon fill="#181818" points="811,1790.4453,801,1794.4453,811,1798.4453,807,1794.4453" style="stroke:#181818;stroke-width:1.0;"/><line style="stroke:#181818;stroke-width:1.0;stroke-dasharray:2.0,2.0;" x1="805" x2="1122" y1="1794.4453" y2="1794.4453"/><text fill="#000000" font-family="sans-serif" font-size="13" font-weight="bold" lengthAdjust="spacing" textLength="14" x="817" y="1789.6904">29</text><text fill="#000000" font-family="sans-serif" font-size="13" lengthAdjust="spacing" textLength="140" x="835" y="1789.6904">show operation success</text><polygon fill="#181818" points="427.5,1818.9688,417.5,1822.9688,427.5,1826.9688,423.5,1822.9688" style="stroke:#181818;stroke-width:1.0;"/><line style="stroke:#181818;stroke-width:1.0;stroke-dasharray:2.0,2.0;" x1="421.5" x2="794" y1="1822.9688" y2="1822.9688"/><text fill="#000000" font-family="sans-serif" font-size="13" font-weight="bold" lengthAdjust="spacing" textLength="14" x="433.5" y="1818.2139">30</text><text fill="#000000" font-family="sans-serif" font-size="13" lengthAdjust="spacing" textLength="140" x="451.5" y="1818.2139">show operation success</text><polygon fill="#181818" points="94.5,1847.4922,84.5,1851.4922,94.5,1855.4922,90.5,1851.4922" style="stroke:#181818;stroke-width:1.0;"/><line style="stroke:#181818;stroke-width:1.0;stroke-dasharray:2.0,2.0;" x1="88.5" x2="410.5" y1="1851.4922" y2="1851.4922"/><text fill="#000000" font-family="sans-serif" font-size="13" font-weight="bold" lengthAdjust="spacing" textLength="14" x="100.5" y="1846.7373">31</text><text fill="#000000" font-family="sans-serif" font-size="13" lengthAdjust="spacing" textLength="140" x="118.5" y="1846.7373">show operation success</text><!--SRC=[tLVRJjmm47tFLunuwIuAFu1K90gjX4HLnEMDbzbaTcFXsAdji2nVtx6poUR6Nb0hGVCIsPxBcV6PiMsVX2hGO0wvLZh9ZCu9d2afiirAWSaJBkZEhII1eSIXMiYsWCqmrKkX5Z17QIcAi7HQbVcCJ1HzoKHACDVQpVHBX8dJ1ev-cGKgyOfEQ0Nd2rBk2D32-UNFY4qwaOW2bOEZqvjo9eNDxb3IkLAwL0dbBFrm5UGVhlOJlz3A6IqbcQ1sSNzxtLMyfK9RmT1Mfu-ghxrP3Df-cQTwdljAZMZ47qSjdj5H2322zSS3E3dZ8E2KXPyiE0r55G0WMDO5R5dSA3RcEFvwZgsmBH_PyJ7Rsvc8oTG3WzRdBR09Z-eKpjTubaQm7vSHfC8w8n874rtuRKCvZS4wXl6e4k5MVc2876DEuLKK9ubEgN6GKXjqr0zVA4l6MKZHuMYOsx3QJ2yj54ONR6C5RbMGzIWULPDMIv9v2rhjZQZIO3jTmz4Gs1PCNWFqd0iAbVLQpFQ9uNq0Be9PkPfwY9okDs3k2N74onQOOKMwIkiheATnbrwZ0HdwNPBrtfWBZH8a6NU0n95XTeZ4mWGDOLmnue85o5po2ZBzOaway3zk3DyeDLhdbWNz25rM3VtQ3HfkB8ixxZh4CpEqWRaiAbI6C-5m9kbQpnqJhbJVNxWsIqEnqockBZdQQJSGuePKnvhfqj81OGRvVnxYFiWbi-IG3VBoXm2lSBUHTA5uZaet0D0Zw82XYLPpOV9GZRnRiroqQtn0xauyM9L4rHcWoBJJDeeEw2MLoWGTI48RgcgTuHsEVJ4kCtPTvL8lbJ_73l3SQ07bAEJGwRXFhnOsekThkwEDHgzVjiwBiN8V7Xn-mvWXZlgdngJk_N7ezsiAnLM_Z-jU7zUDyfvTiKoh7OKP2FI33VjYU5GZ1TCfbr0zlPRGq3GEIMQPQgyN1elCJeVdHpZlTpU4pvU9VPlZtYaRz9mFbPkzerYtgpqheFv2T1pb-eBtlvN3e2pgYsnVOFUH-KapzTVBPMVPVBo47HnQKqkT9KDpqCzymesHQ3osmOs2RNJcrgPEpiApwKtARW7IMPaBAT-5mM_KpJh3up2QrJUmZ6h_O3oZ2pMEbhLQBbmH0gRgIG5-kdersp9XKjkHzyp6J1LDXtVljEALJpOdm05MecuDX2lC0GQwX_VcqhJLHE-UrXhw1_WV]--></g></svg>