<?xml version="1.0" encoding="us-ascii" standalone="no"?><svg xmlns="http://www.w3.org/2000/svg" xmlns:xlink="http://www.w3.org/1999/xlink" contentStyleType="text/css" height="453px" preserveAspectRatio="none" style="width:371px;height:453px;background:#FFFFFF;" version="1.1" viewBox="0 0 371 453" width="371px" zoomAndPan="magnify"><defs/><g><text fill="#000000" font-family="sans-serif" font-size="14" font-weight="bold" lengthAdjust="spacing" textLength="224" x="72.75" y="29.9659">System Sequence Diagram (SSD)</text><rect fill="#FFFFFF" height="226.6481" style="stroke:#181818;stroke-width:1.0;" width="10" x="22.5" y="134.1358"/><rect fill="#FFFFFF" height="49.412" style="stroke:#181818;stroke-width:1.0;" width="10" x="327.5" y="157.8419"/><rect fill="#FFFFFF" height="31.706" style="stroke:#181818;stroke-width:1.0;" width="10" x="327.5" y="238.9599"/><rect fill="#FFFFFF" height="49.412" style="stroke:#181818;stroke-width:1.0;" width="10" x="327.5" y="302.3719"/><line style="stroke:#181818;stroke-width:0.5;stroke-dasharray:5.0,5.0;" x1="27" x2="27" y1="124.1358" y2="369.784"/><line style="stroke:#181818;stroke-width:0.5;stroke-dasharray:5.0,5.0;" x1="332.5" x2="332.5" y1="124.1358" y2="369.784"/><text fill="#000000" font-family="sans-serif" font-size="14" lengthAdjust="spacing" textLength="39" x="5" y="120.0339">Client</text><ellipse cx="27.5" cy="53.5679" fill="#E3E3E3" rx="8" ry="8" style="stroke:#181818;stroke-width:0.5;"/><path d="M27.5,61.5679 L27.5,88.5679 M14.5,69.5679 L40.5,69.5679 M27.5,88.5679 L14.5,103.5679 M27.5,88.5679 L40.5,103.5679 " fill="none" style="stroke:#181818;stroke-width:0.5;"/><text fill="#000000" font-family="sans-serif" font-size="14" lengthAdjust="spacing" textLength="39" x="5" y="383.7499">Client</text><ellipse cx="27.5" cy="396.3519" fill="#E3E3E3" rx="8" ry="8" style="stroke:#181818;stroke-width:0.5;"/><path d="M27.5,404.3519 L27.5,431.3519 M14.5,412.3519 L40.5,412.3519 M27.5,431.3519 L14.5,446.3519 M27.5,431.3519 L40.5,446.3519 " fill="none" style="stroke:#181818;stroke-width:0.5;"/><rect fill="#E3E3E3" height="33.0679" rx="2.5" ry="2.5" style="stroke:#181818;stroke-width:0.5;" width="66" x="299.5" y="90.0679"/><text fill="#000000" font-family="sans-serif" font-size="14" lengthAdjust="spacing" textLength="52" x="306.5" y="112.0339">:System</text><rect fill="#E3E3E3" height="33.0679" rx="2.5" ry="2.5" style="stroke:#181818;stroke-width:0.5;" width="66" x="299.5" y="368.784"/><text fill="#000000" font-family="sans-serif" font-size="14" lengthAdjust="spacing" textLength="52" x="306.5" y="390.7499">:System</text><rect fill="#FFFFFF" height="226.6481" style="stroke:#181818;stroke-width:1.0;" width="10" x="22.5" y="134.1358"/><rect fill="#FFFFFF" height="49.412" style="stroke:#181818;stroke-width:1.0;" width="10" x="327.5" y="157.8419"/><rect fill="#FFFFFF" height="31.706" style="stroke:#181818;stroke-width:1.0;" width="10" x="327.5" y="238.9599"/><rect fill="#FFFFFF" height="49.412" style="stroke:#181818;stroke-width:1.0;" width="10" x="327.5" y="302.3719"/><polygon fill="#181818" points="315.5,153.8419,325.5,157.8419,315.5,161.8419,319.5,157.8419" style="stroke:#181818;stroke-width:1.0;"/><line style="stroke:#181818;stroke-width:1.0;stroke-dasharray:2.0,2.0;" x1="32.5" x2="321.5" y1="157.8419" y2="157.8419"/><text fill="#000000" font-family="sans-serif" font-size="13" font-weight="bold" lengthAdjust="spacing" textLength="7" x="39.5" y="152.0328">1</text><text fill="#000000" font-family="sans-serif" font-size="13" lengthAdjust="spacing" textLength="240" x="50.5" y="152.0328">Ask to send a message scheduling a visit</text><polygon fill="#181818" points="43.5,203.2539,33.5,207.2539,43.5,211.2539,39.5,207.2539" style="stroke:#181818;stroke-width:1.0;"/><line style="stroke:#181818;stroke-width:1.0;stroke-dasharray:2.0,2.0;" x1="37.5" x2="331.5" y1="207.2539" y2="207.2539"/><text fill="#000000" font-family="sans-serif" font-size="13" font-weight="bold" lengthAdjust="spacing" textLength="7" x="49.5" y="192.5919">2</text><text fill="#000000" font-family="sans-serif" font-size="13" lengthAdjust="spacing" textLength="185" x="60.5" y="183.7389">Show a list of properties sorted</text><text fill="#000000" font-family="sans-serif" font-size="13" lengthAdjust="spacing" textLength="250" x="63.5" y="201.4449">from the most recent entries to the oldest</text><polygon fill="#181818" points="315.5,234.9599,325.5,238.9599,315.5,242.9599,319.5,238.9599" style="stroke:#181818;stroke-width:1.0;"/><line style="stroke:#181818;stroke-width:1.0;stroke-dasharray:2.0,2.0;" x1="32.5" x2="321.5" y1="238.9599" y2="238.9599"/><text fill="#000000" font-family="sans-serif" font-size="13" font-weight="bold" lengthAdjust="spacing" textLength="7" x="39.5" y="233.1509">3</text><text fill="#000000" font-family="sans-serif" font-size="13" lengthAdjust="spacing" textLength="122" x="50.5" y="233.1509">choose the property</text><polygon fill="#181818" points="43.5,266.6659,33.5,270.6659,43.5,274.6659,39.5,270.6659" style="stroke:#181818;stroke-width:1.0;"/><line style="stroke:#181818;stroke-width:1.0;stroke-dasharray:2.0,2.0;" x1="37.5" x2="331.5" y1="270.6659" y2="270.6659"/><text fill="#000000" font-family="sans-serif" font-size="13" font-weight="bold" lengthAdjust="spacing" textLength="7" x="49.5" y="264.8569">4</text><text fill="#000000" font-family="sans-serif" font-size="13" lengthAdjust="spacing" textLength="202" x="60.5" y="264.8569">Ask the date and hour for the visit</text><polygon fill="#181818" points="315.5,298.3719,325.5,302.3719,315.5,306.3719,319.5,302.3719" style="stroke:#181818;stroke-width:1.0;"/><line style="stroke:#181818;stroke-width:1.0;stroke-dasharray:2.0,2.0;" x1="32.5" x2="321.5" y1="302.3719" y2="302.3719"/><text fill="#000000" font-family="sans-serif" font-size="13" font-weight="bold" lengthAdjust="spacing" textLength="7" x="39.5" y="296.5629">5</text><text fill="#000000" font-family="sans-serif" font-size="13" lengthAdjust="spacing" textLength="210" x="50.5" y="296.5629">Select the requested date and hour</text><polygon fill="#181818" points="43.5,347.784,33.5,351.784,43.5,355.784,39.5,351.784" style="stroke:#181818;stroke-width:1.0;"/><line style="stroke:#181818;stroke-width:1.0;stroke-dasharray:2.0,2.0;" x1="37.5" x2="331.5" y1="351.784" y2="351.784"/><text fill="#000000" font-family="sans-serif" font-size="13" font-weight="bold" lengthAdjust="spacing" textLength="7" x="49.5" y="337.122">6</text><text fill="#000000" font-family="sans-serif" font-size="13" lengthAdjust="spacing" textLength="257" x="60.5" y="328.2689">Send the message to the agent and show a</text><text fill="#000000" font-family="sans-serif" font-size="13" lengthAdjust="spacing" textLength="207" x="63.5" y="345.975">confirmation message to the client</text><!--SRC=[bL8nRiCm3Dpz2Y9JE-G36GeKpG-yTc4bsXOYYwv89yZlIybEsWR940C62F7kU3fA3Y5Dc764aHEx8VD8e7ccHgwT2Tq1Ushr70aoESNKnxy06T3pAQGUEen2JQD13TgUHMc4bhvdIevW7x0ly9UstRys3SxAQHw_A5ljb3DiFcAWf1j0WQLiR8065oPC2flTebZxIrcPuOXA5q83zYqrRBTl5nCxU9S3A8DGye0maeZT2SGDvETOl2CSWmIj0bVLTKmvMvMAwAg_WtRWan5Z40NkOCeyaHac0U6ivE4pGMUPWWva2HlAyYjK-tE1cQFIukX9bj6UReS_l98Rc8Mgm3hv_9Jx6ecHVS6YvJBmdA6pJPJJtpIUiDHIj0TI-RdiNKe8__Gh5UuAtasuxAkcjsviJSnAwnTHMNPWIJjENSWZQk1qYtVBytXmdHy0]--></g></svg>