<?xml version="1.0" encoding="us-ascii" standalone="no"?><svg xmlns="http://www.w3.org/2000/svg" xmlns:xlink="http://www.w3.org/1999/xlink" contentStyleType="text/css" height="549px" preserveAspectRatio="none" style="width:637px;height:549px;background:#FFFFFF;" version="1.1" viewBox="0 0 637 549" width="637px" zoomAndPan="magnify"><defs/><g><text fill="#000000" font-family="sans-serif" font-size="14" font-weight="bold" lengthAdjust="spacing" textLength="224" x="207.75" y="29.9659">System Sequence Diagram (SSD)</text><rect fill="#FFFFFF" height="322.3179" style="stroke:#181818;stroke-width:1.0;" width="10" x="40.5" y="134.1358"/><rect fill="#FFFFFF" height="31.706" style="stroke:#181818;stroke-width:1.0;" width="10" x="582.5" y="157.8419"/><rect fill="#FFFFFF" height="155.7878" style="stroke:#181818;stroke-width:1.0;" width="10" x="582.5" y="221.2539"/><rect fill="#FFFFFF" height="31.706" style="stroke:#181818;stroke-width:1.0;" width="10" x="582.5" y="415.7477"/><rect fill="none" height="148.7878" style="stroke:#000000;stroke-width:1.5;" width="620.5" x="10" y="236.2539"/><line style="stroke:#181818;stroke-width:0.5;stroke-dasharray:5.0,5.0;" x1="45" x2="45" y1="124.1358" y2="465.4538"/><line style="stroke:#181818;stroke-width:0.5;stroke-dasharray:5.0,5.0;" x1="587.5" x2="587.5" y1="124.1358" y2="465.4538"/><text fill="#000000" font-family="sans-serif" font-size="14" lengthAdjust="spacing" textLength="45" x="20" y="120.0339">Owner</text><ellipse cx="45.5" cy="53.5679" fill="#E3E3E3" rx="8" ry="8" style="stroke:#181818;stroke-width:0.5;"/><path d="M45.5,61.5679 L45.5,88.5679 M32.5,69.5679 L58.5,69.5679 M45.5,88.5679 L32.5,103.5679 M45.5,88.5679 L58.5,103.5679 " fill="none" style="stroke:#181818;stroke-width:0.5;"/><text fill="#000000" font-family="sans-serif" font-size="14" lengthAdjust="spacing" textLength="45" x="20" y="479.4197">Owner</text><ellipse cx="45.5" cy="492.0217" fill="#E3E3E3" rx="8" ry="8" style="stroke:#181818;stroke-width:0.5;"/><path d="M45.5,500.0217 L45.5,527.0217 M32.5,508.0217 L58.5,508.0217 M45.5,527.0217 L32.5,542.0217 M45.5,527.0217 L58.5,542.0217 " fill="none" style="stroke:#181818;stroke-width:0.5;"/><rect fill="#E3E3E3" height="33.0679" rx="2.5" ry="2.5" style="stroke:#181818;stroke-width:0.5;" width="66" x="554.5" y="90.0679"/><text fill="#000000" font-family="sans-serif" font-size="14" lengthAdjust="spacing" textLength="52" x="561.5" y="112.0339">:System</text><rect fill="#E3E3E3" height="33.0679" rx="2.5" ry="2.5" style="stroke:#181818;stroke-width:0.5;" width="66" x="554.5" y="464.4538"/><text fill="#000000" font-family="sans-serif" font-size="14" lengthAdjust="spacing" textLength="52" x="561.5" y="486.4197">:System</text><rect fill="#FFFFFF" height="322.3179" style="stroke:#181818;stroke-width:1.0;" width="10" x="40.5" y="134.1358"/><rect fill="#FFFFFF" height="31.706" style="stroke:#181818;stroke-width:1.0;" width="10" x="582.5" y="157.8419"/><rect fill="#FFFFFF" height="155.7878" style="stroke:#181818;stroke-width:1.0;" width="10" x="582.5" y="221.2539"/><rect fill="#FFFFFF" height="31.706" style="stroke:#181818;stroke-width:1.0;" width="10" x="582.5" y="415.7477"/><polygon fill="#181818" points="570.5,153.8419,580.5,157.8419,570.5,161.8419,574.5,157.8419" style="stroke:#181818;stroke-width:1.0;"/><line style="stroke:#181818;stroke-width:1.0;" x1="50.5" x2="576.5" y1="157.8419" y2="157.8419"/><text fill="#000000" font-family="sans-serif" font-size="13" font-weight="bold" lengthAdjust="spacing" textLength="7" x="57.5" y="152.0328">1</text><text fill="#000000" font-family="sans-serif" font-size="13" lengthAdjust="spacing" textLength="185" x="68.5" y="152.0328">asks to register a new property</text><polygon fill="#181818" points="61.5,185.5479,51.5,189.5479,61.5,193.5479,57.5,189.5479" style="stroke:#181818;stroke-width:1.0;"/><line style="stroke:#181818;stroke-width:1.0;stroke-dasharray:2.0,2.0;" x1="55.5" x2="586.5" y1="189.5479" y2="189.5479"/><text fill="#000000" font-family="sans-serif" font-size="13" font-weight="bold" lengthAdjust="spacing" textLength="7" x="67.5" y="183.7389">2</text><text fill="#000000" font-family="sans-serif" font-size="13" lengthAdjust="spacing" textLength="138" x="78.5" y="183.7389">requests property type</text><polygon fill="#181818" points="570.5,217.2539,580.5,221.2539,570.5,225.2539,574.5,221.2539" style="stroke:#181818;stroke-width:1.0;"/><line style="stroke:#181818;stroke-width:1.0;" x1="50.5" x2="576.5" y1="221.2539" y2="221.2539"/><text fill="#000000" font-family="sans-serif" font-size="13" font-weight="bold" lengthAdjust="spacing" textLength="7" x="57.5" y="215.4449">3</text><text fill="#000000" font-family="sans-serif" font-size="13" lengthAdjust="spacing" textLength="126" x="68.5" y="215.4449">selects property type</text><path d="M10,236.2539 L73,236.2539 L73,245.9599 L63,255.9599 L10,255.9599 L10,236.2539 " fill="#EEEEEE" style="stroke:#000000;stroke-width:1.5;"/><rect fill="none" height="148.7878" style="stroke:#000000;stroke-width:1.5;" width="620.5" x="10" y="236.2539"/><text fill="#000000" font-family="sans-serif" font-size="13" font-weight="bold" lengthAdjust="spacing" textLength="18" x="25" y="251.1509">alt</text><text fill="#000000" font-family="sans-serif" font-size="11" font-weight="bold" lengthAdjust="spacing" textLength="106" x="88" y="250.0128">[type = apartment]</text><polygon fill="#181818" points="61.5,275.6659,51.5,279.6659,61.5,283.6659,57.5,279.6659" style="stroke:#181818;stroke-width:1.0;"/><line style="stroke:#181818;stroke-width:1.0;stroke-dasharray:2.0,2.0;" x1="55.5" x2="581.5" y1="279.6659" y2="279.6659"/><text fill="#000000" font-family="sans-serif" font-size="13" font-weight="bold" lengthAdjust="spacing" textLength="7" x="67.5" y="273.8569">4</text><text fill="#000000" font-family="sans-serif" font-size="13" lengthAdjust="spacing" textLength="230" x="78.5" y="273.8569">requests the apartment characteristics</text><line style="stroke:#000000;stroke-width:1.0;stroke-dasharray:2.0,2.0;" x1="10" x2="630.5" y1="288.6659" y2="288.6659"/><text fill="#000000" font-family="sans-serif" font-size="11" font-weight="bold" lengthAdjust="spacing" textLength="78" x="15" y="300.4248">[type = house]</text><polygon fill="#181818" points="61.5,324.3538,51.5,328.3538,61.5,332.3538,57.5,328.3538" style="stroke:#181818;stroke-width:1.0;"/><line style="stroke:#181818;stroke-width:1.0;stroke-dasharray:2.0,2.0;" x1="55.5" x2="581.5" y1="328.3538" y2="328.3538"/><text fill="#000000" font-family="sans-serif" font-size="13" font-weight="bold" lengthAdjust="spacing" textLength="7" x="67.5" y="322.5448">5</text><text fill="#000000" font-family="sans-serif" font-size="13" lengthAdjust="spacing" textLength="203" x="78.5" y="322.5448">requests the house characteristics</text><line style="stroke:#000000;stroke-width:1.0;stroke-dasharray:2.0,2.0;" x1="10" x2="630.5" y1="337.3538" y2="337.3538"/><text fill="#000000" font-family="sans-serif" font-size="11" font-weight="bold" lengthAdjust="spacing" textLength="69" x="15" y="349.1127">[type = land]</text><polygon fill="#181818" points="61.5,373.0417,51.5,377.0417,61.5,381.0417,57.5,377.0417" style="stroke:#181818;stroke-width:1.0;"/><line style="stroke:#181818;stroke-width:1.0;stroke-dasharray:2.0,2.0;" x1="55.5" x2="586.5" y1="377.0417" y2="377.0417"/><text fill="#000000" font-family="sans-serif" font-size="13" font-weight="bold" lengthAdjust="spacing" textLength="7" x="67.5" y="371.2327">6</text><text fill="#000000" font-family="sans-serif" font-size="13" lengthAdjust="spacing" textLength="192" x="78.5" y="371.2327">requests the land characteristics</text><polygon fill="#181818" points="570.5,411.7477,580.5,415.7477,570.5,419.7477,574.5,415.7477" style="stroke:#181818;stroke-width:1.0;"/><line style="stroke:#181818;stroke-width:1.0;" x1="50.5" x2="576.5" y1="415.7477" y2="415.7477"/><text fill="#000000" font-family="sans-serif" font-size="13" font-weight="bold" lengthAdjust="spacing" textLength="7" x="57.5" y="409.9387">7</text><text fill="#000000" font-family="sans-serif" font-size="13" lengthAdjust="spacing" textLength="502" x="68.5" y="409.9387">fills in the property characteristics, selects a responsible agent and sends the request</text><polygon fill="#181818" points="61.5,443.4538,51.5,447.4538,61.5,451.4538,57.5,447.4538" style="stroke:#181818;stroke-width:1.0;"/><line style="stroke:#181818;stroke-width:1.0;stroke-dasharray:2.0,2.0;" x1="55.5" x2="586.5" y1="447.4538" y2="447.4538"/><text fill="#000000" font-family="sans-serif" font-size="13" font-weight="bold" lengthAdjust="spacing" textLength="7" x="67.5" y="441.6448">8</text><text fill="#000000" font-family="sans-serif" font-size="13" lengthAdjust="spacing" textLength="148" x="78.5" y="441.6448">shows operation success</text><!--SRC=[bPB1JiCm38RlUGfh9v3O2qo2q-uS-WGcyzfeQH9YbwflZvEk1R5D6pbPoU_Fpc_poOM46NleOuYsox4da3oGuVKbeJrXIurCdY2J5Goj_otW3WznTA658tecOyI9Ifk9XNfew7EWO0ds3jiYVsgQ_RCnE4WCG_z1MMChCSFcVGoKDu0CDJAA5sTTmY2msSsy-Zo7DSzzeT1PRq1F3M7xjjJVQSA9GQBstZgzoe0GQ8IKOw8iKyrQIGkwN9u9MuNDr9qoz3Sil6Q3J8cg-a1N8PVzC7bryHhYAW2zL0My0XP7UWeolzphKJhwIG7RwRIi_bzDS9Pd1Ed05deNXpAzHybLVf_gCHmUXnRr1ND9lk4mQOgQTClke_EUmONANpt_K-DbdGfgGvnYOFUXIwoBhzQLfbZBp3sU6_xNtd0NHuPI6yN503nOIymt5kSR]--></g></svg>