<?xml version="1.0" encoding="us-ascii" standalone="no"?><svg xmlns="http://www.w3.org/2000/svg" xmlns:xlink="http://www.w3.org/1999/xlink" contentStyleType="text/css" height="2060px" preserveAspectRatio="none" style="width:684px;height:2060px;background:#FFFFFF;" version="1.1" viewBox="0 0 684 2060" width="684px" zoomAndPan="magnify"><defs/><g><!--cluster System--><g id="cluster_System"><rect fill="none" height="2047" rx="2.5" ry="2.5" style="stroke:#181818;stroke-width:1.0;" width="415" x="263" y="7"/><text fill="#000000" font-family="sans-serif" font-size="14" font-weight="bold" lengthAdjust="spacing" textLength="51" x="445" y="23.9659">System</text></g><g id="elem_UC1 - Display listed properties"><ellipse cx="470.668" cy="72.1336" fill="#F1F1F1" rx="121.168" ry="26.6336" style="stroke:#181818;stroke-width:0.5;"/><text fill="#000000" font-family="sans-serif" font-size="14" lengthAdjust="spacing" textLength="204" x="366.5593" y="76.5211">UC1 - Display listed properties</text></g><g id="elem_UC7 - Register as a client"><ellipse cx="470.4886" cy="156.9977" fill="#F1F1F1" rx="105.4886" ry="23.4977" style="stroke:#181818;stroke-width:0.5;"/><text fill="#000000" font-family="sans-serif" font-size="14" lengthAdjust="spacing" textLength="168" x="383.4886" y="161.7307">UC7 - Register as a client</text></g><g id="elem_UC2 - Publish sale announcement"><ellipse cx="470.6578" cy="244.2316" fill="#F1F1F1" rx="131.6578" ry="28.7316" style="stroke:#181818;stroke-width:0.5;"/><text fill="#000000" font-family="sans-serif" font-size="14" lengthAdjust="spacing" textLength="227" x="357.0073" y="247.739">UC2 - Publish sale announcement</text></g><g id="elem_UC8 - See list of property announcement requests"><ellipse cx="470.4118" cy="347.0824" fill="#F1F1F1" rx="183.4118" ry="39.0824" style="stroke:#181818;stroke-width:0.5;"/><text fill="#000000" font-family="sans-serif" font-size="14" lengthAdjust="spacing" textLength="336" x="302.4118" y="350.5143">UC8 - See list of property announcement requests</text></g><g id="elem_UC11 - List real estate purchase orders"><ellipse cx="470.5844" cy="452.9169" fill="#F1F1F1" rx="147.5844" ry="31.9169" style="stroke:#181818;stroke-width:0.5;"/><text fill="#000000" font-family="sans-serif" font-size="14" lengthAdjust="spacing" textLength="261" x="340.0844" y="456.3489">UC11 - List real estate purchase orders</text></g><g id="elem_UC15 - List all booking requests by agent"><ellipse cx="470.7106" cy="553.2421" fill="#F1F1F1" rx="154.2106" ry="33.2421" style="stroke:#181818;stroke-width:0.5;"/><text fill="#000000" font-family="sans-serif" font-size="14" lengthAdjust="spacing" textLength="275" x="333.2106" y="556.6741">UC15 - List all booking requests by agent</text></g><g id="elem_UC16 - Respond to the user that schedule visit"><ellipse cx="470.3884" cy="658.1777" fill="#F1F1F1" rx="171.3884" ry="36.6777" style="stroke:#181818;stroke-width:0.5;"/><text fill="#000000" font-family="sans-serif" font-size="14" lengthAdjust="spacing" textLength="311" x="314.8884" y="661.6097">UC16 - Respond to the user that schedule visit</text></g><g id="elem_UC21 - Register visit and opinion about the business"><ellipse cx="470.6231" cy="770.2246" fill="#F1F1F1" rx="191.6231" ry="40.7246" style="stroke:#181818;stroke-width:0.5;"/><text fill="#000000" font-family="sans-serif" font-size="14" lengthAdjust="spacing" textLength="353" x="294.1231" y="773.6566">UC21 - Register visit and opinion about the business</text></g><g id="elem_UC3 - Register employee"><ellipse cx="470.7183" cy="869.2437" fill="#F1F1F1" rx="104.2183" ry="23.2437" style="stroke:#181818;stroke-width:0.5;"/><text fill="#000000" font-family="sans-serif" font-size="14" lengthAdjust="spacing" textLength="165" x="385.2183" y="873.9766">UC3 - Register employee</text></g><g id="elem_UC12 - Import information from legacy system"><ellipse cx="470.3884" cy="964.1777" fill="#F1F1F1" rx="171.3884" ry="36.6777" style="stroke:#181818;stroke-width:0.5;"/><text fill="#000000" font-family="sans-serif" font-size="14" lengthAdjust="spacing" textLength="311" x="314.8884" y="967.6097">UC12 - Import information from legacy system</text></g><g id="elem_UC4 - Requests listing a property"><ellipse cx="470.3468" cy="1217.7694" fill="#F1F1F1" rx="129.3468" ry="28.2694" style="stroke:#181818;stroke-width:0.5;"/><text fill="#000000" font-family="sans-serif" font-size="14" lengthAdjust="spacing" textLength="222" x="358.7982" y="1221.4706">UC4 - Requests listing a property</text></g><g id="elem_UC5 - Register store"><ellipse cx="470.515" cy="1056.203" fill="#F1F1F1" rx="91.515" ry="20.703" style="stroke:#181818;stroke-width:0.5;"/><text fill="#000000" font-family="sans-serif" font-size="14" lengthAdjust="spacing" textLength="134" x="400.515" y="1060.936">UC5 - Register store</text></g><g id="elem_UC6 - Specify address"><ellipse cx="470.3322" cy="1133.1664" fill="#F1F1F1" rx="96.3322" ry="21.6664" style="stroke:#181818;stroke-width:0.5;"/><text fill="#000000" font-family="sans-serif" font-size="14" lengthAdjust="spacing" textLength="146" x="394.3322" y="1137.8994">UC6 - Specify address</text></g><g id="elem_UC9 - Leave message to agent"><ellipse cx="470.2742" cy="1307.9548" fill="#F1F1F1" rx="120.2742" ry="26.4548" style="stroke:#181818;stroke-width:0.5;"/><text fill="#000000" font-family="sans-serif" font-size="14" lengthAdjust="spacing" textLength="202" x="366.9786" y="1312.4173">UC9 - Leave message to agent</text></g><g id="elem_UC10 - Place order to purchase property"><ellipse cx="470.3402" cy="1402.768" fill="#F1F1F1" rx="151.8402" ry="32.768" style="stroke:#181818;stroke-width:0.5;"/><text fill="#000000" font-family="sans-serif" font-size="14" lengthAdjust="spacing" textLength="270" x="335.3402" y="1406.2">UC10 - Place order to purchase property</text></g><g id="elem_UC14 - Read response for appointment requests"><ellipse cx="470.6133" cy="1509.0227" fill="#F1F1F1" rx="178.1133" ry="38.0227" style="stroke:#181818;stroke-width:0.5;"/><text fill="#000000" font-family="sans-serif" font-size="14" lengthAdjust="spacing" textLength="325" x="308.1133" y="1512.4546">UC14 - Read response for appointment requests</text></g><g id="elem_UC20 - Read response for appointment requests"><ellipse cx="470.6133" cy="1620.0227" fill="#F1F1F1" rx="178.1133" ry="38.0227" style="stroke:#181818;stroke-width:0.5;"/><text fill="#000000" font-family="sans-serif" font-size="14" lengthAdjust="spacing" textLength="325" x="308.1133" y="1623.4546">UC20 - Read response for appointment requests</text></g><g id="elem_UC13 - List all employees in every store"><ellipse cx="470.5566" cy="1725.0113" fill="#F1F1F1" rx="148.0566" ry="32.0113" style="stroke:#181818;stroke-width:0.5;"/><text fill="#000000" font-family="sans-serif" font-size="14" lengthAdjust="spacing" textLength="262" x="339.5566" y="1728.4433">UC13 - List all employees in every store</text></g><g id="elem_UC17 - List all deals made"><ellipse cx="470.6191" cy="1815.9238" fill="#F1F1F1" rx="107.6191" ry="23.9238" style="stroke:#181818;stroke-width:0.5;"/><text fill="#000000" font-family="sans-serif" font-size="14" lengthAdjust="spacing" textLength="173" x="381.1191" y="1820.6568">UC17 - List all deals made</text></g><g id="elem_UC19 - Divide the set of store into two subsets"><ellipse cx="470.4296" cy="1911.9859" fill="#F1F1F1" rx="170.4296" ry="36.4859" style="stroke:#181818;stroke-width:0.5;"/><text fill="#000000" font-family="sans-serif" font-size="14" lengthAdjust="spacing" textLength="309" x="315.9296" y="1915.4179">UC19 - Divide the set of store into two subsets</text></g><g id="elem_UC18 - Analyse the deals made"><ellipse cx="470.4652" cy="2010.993" fill="#F1F1F1" rx="122.9652" ry="26.993" style="stroke:#181818;stroke-width:0.5;"/><text fill="#000000" font-family="sans-serif" font-size="14" lengthAdjust="spacing" textLength="208" x="364.7215" y="2015.2297">UC18 - Analyse the deals made</text></g><!--entity UnregisteredUser--><g id="elem_UnregisteredUser"><ellipse cx="82" cy="84" fill="#F1F1F1" rx="8" ry="8" style="stroke:#181818;stroke-width:0.5;"/><path d="M82,92 L82,119 M69,100 L95,100 M82,119 L69,134 M82,119 L95,134 " fill="none" style="stroke:#181818;stroke-width:0.5;"/><text fill="#000000" font-family="sans-serif" font-size="14" lengthAdjust="spacing" textLength="120" x="22" y="150.4659">UnregisteredUser</text></g><!--entity Agent--><g id="elem_Agent"><ellipse cx="82" cy="472" fill="#F1F1F1" rx="8" ry="8" style="stroke:#181818;stroke-width:0.5;"/><path d="M82,480 L82,507 M69,488 L95,488 M82,507 L69,522 M82,507 L95,522 " fill="none" style="stroke:#181818;stroke-width:0.5;"/><text fill="#000000" font-family="sans-serif" font-size="14" lengthAdjust="spacing" textLength="40" x="62" y="538.4659">Agent</text></g><!--entity Administrator--><g id="elem_Administrator"><ellipse cx="82" cy="979" fill="#F1F1F1" rx="8" ry="8" style="stroke:#181818;stroke-width:0.5;"/><path d="M82,987 L82,1014 M69,995 L95,995 M82,1014 L69,1029 M82,1014 L95,1029 " fill="none" style="stroke:#181818;stroke-width:0.5;"/><text fill="#000000" font-family="sans-serif" font-size="14" lengthAdjust="spacing" textLength="93" x="35.5" y="1045.4659">Administrator</text></g><!--entity Owner--><g id="elem_Owner"><ellipse cx="82" cy="1187" fill="#F1F1F1" rx="8" ry="8" style="stroke:#181818;stroke-width:0.5;"/><path d="M82,1195 L82,1222 M69,1203 L95,1203 M82,1222 L69,1237 M82,1222 L95,1237 " fill="none" style="stroke:#181818;stroke-width:0.5;"/><text fill="#000000" font-family="sans-serif" font-size="14" lengthAdjust="spacing" textLength="45" x="59.5" y="1253.4659">Owner</text></g><!--entity Client--><g id="elem_Client"><ellipse cx="82" cy="1425" fill="#F1F1F1" rx="8" ry="8" style="stroke:#181818;stroke-width:0.5;"/><path d="M82,1433 L82,1460 M69,1441 L95,1441 M82,1460 L69,1475 M82,1460 L95,1475 " fill="none" style="stroke:#181818;stroke-width:0.5;"/><text fill="#000000" font-family="sans-serif" font-size="14" lengthAdjust="spacing" textLength="39" x="62.5" y="1491.4659">Client</text></g><!--entity StoreNetworkManager--><g id="elem_StoreNetworkManager"><ellipse cx="82" cy="1785" fill="#F1F1F1" rx="8" ry="8" style="stroke:#181818;stroke-width:0.5;"/><path d="M82,1793 L82,1820 M69,1801 L95,1801 M82,1820 L69,1835 M82,1820 L95,1835 " fill="none" style="stroke:#181818;stroke-width:0.5;"/><text fill="#000000" font-family="sans-serif" font-size="14" lengthAdjust="spacing" textLength="152" x="6" y="1851.4659">StoreNetworkManager</text></g><!--entity StoreManager--><g id="elem_StoreManager"><ellipse cx="82" cy="1980" fill="#F1F1F1" rx="8" ry="8" style="stroke:#181818;stroke-width:0.5;"/><path d="M82,1988 L82,2015 M69,1996 L95,1996 M82,2015 L69,2030 M82,2015 L95,2030 " fill="none" style="stroke:#181818;stroke-width:0.5;"/><text fill="#000000" font-family="sans-serif" font-size="14" lengthAdjust="spacing" textLength="96" x="34" y="2046.4659">StoreManager</text></g><!--link UnregisteredUser to UC1 - Display listed properties--><g id="link_UnregisteredUser_UC1 - Display listed properties"><path d="M142.12,108.42 C200.38,101.94 290.73,91.89 361.77,83.99 " fill="none" id="UnregisteredUser-UC1 - Display listed properties" style="stroke:#181818;stroke-width:1.0;"/></g><!--link UnregisteredUser to UC7 - Register as a client--><g id="link_UnregisteredUser_UC7 - Register as a client"><path d="M142.12,121.42 C204.08,128.16 302.34,138.83 375.06,146.74 " fill="none" id="UnregisteredUser-UC7 - Register as a client" style="stroke:#181818;stroke-width:1.0;"/></g><!--link Agent to UC2 - Publish sale announcement--><g id="link_Agent_UC2 - Publish sale announcement"><path d="M102.48,465.61 C129.79,417.11 184.15,333.57 255,290 C283.06,272.74 316.65,261.89 348.83,255.1 " fill="none" id="Agent-UC2 - Publish sale announcement" style="stroke:#181818;stroke-width:1.0;"/></g><!--link Agent to UC8 - See list of property announcement requests--><g id="link_Agent_UC8 - See list of property announcement requests"><path d="M102.47,489.29 C133.44,468.06 196.4,427.16 255,403 C281.87,391.93 311.54,382.51 340.03,374.74 " fill="none" id="Agent-UC8 - See list of property announcement requests" style="stroke:#181818;stroke-width:1.0;"/></g><!--link Agent to UC11 - List real estate purchase orders--><g id="link_Agent_UC11 - List real estate purchase orders"><path d="M102.43,500.49 C146.06,494.84 254.85,480.77 342.75,469.4 " fill="none" id="Agent-UC11 - List real estate purchase orders" style="stroke:#181818;stroke-width:1.0;"/></g><!--link Agent to UC15 - List all booking requests by agent--><g id="link_Agent_UC15 - List all booking requests by agent"><path d="M102.43,505.51 C145.22,511.05 250.68,524.69 337.63,535.94 " fill="none" id="Agent-UC15 - List all booking requests by agent" style="stroke:#181818;stroke-width:1.0;"/></g><!--link Agent to UC16 - Respond to the user that schedule visit--><g id="link_Agent_UC16 - Respond to the user that schedule visit"><path d="M102.46,516.74 C133.41,538.01 196.35,578.97 255,603 C283.73,614.77 315.67,624.58 345.95,632.51 " fill="none" id="Agent-UC16 - Respond to the user that schedule visit" style="stroke:#181818;stroke-width:1.0;"/></g><!--link Agent to UC21 - Register visit and opinion about the business--><g id="link_Agent_UC21 - Register visit and opinion about the business"><path d="M102.3,537.94 C129.96,584.72 185.31,667.02 255,712 C275.74,725.39 299.52,735.71 323.52,743.66 " fill="none" id="Agent-UC21 - Register visit and opinion about the business" style="stroke:#181818;stroke-width:1.0;"/></g><!--link Administrator to UC3 - Register employee--><g id="link_Administrator_UC3 - Register employee"><path d="M128.68,977.68 C162.17,955.46 209.54,926.99 255,910 C293.89,895.46 338.75,885.86 377.37,879.63 " fill="none" id="Administrator-UC3 - Register employee" style="stroke:#181818;stroke-width:1.0;"/></g><!--link Administrator to UC12 - Import information from legacy system--><g id="link_Administrator_UC12 - Import information from legacy system"><path d="M128.85,1004.54 C175.95,998.94 251.78,989.91 319.96,981.8 " fill="none" id="Administrator-UC12 - Import information from legacy system" style="stroke:#181818;stroke-width:1.0;"/></g><!--link Owner to UC4 - Requests listing a property--><g id="link_Owner_UC4 - Requests listing a property"><path d="M104.89,1218 C149.68,1218 254.83,1218 340.76,1218 " fill="none" id="Owner-UC4 - Requests listing a property" style="stroke:#181818;stroke-width:1.0;"/></g><!--link Administrator to UC5 - Register store--><g id="link_Administrator_UC5 - Register store"><path d="M128.85,1015.46 C192.84,1023.07 309.91,1037.01 388.71,1046.38 " fill="none" id="Administrator-UC5 - Register store" style="stroke:#181818;stroke-width:1.0;"/></g><!--link Administrator to UC6 - Specify address--><g id="link_Administrator_UC6 - Specify address"><path d="M128.99,1036.78 C162.82,1055.39 210.48,1079.39 255,1094 C296.63,1107.66 344.46,1116.94 384.38,1123.01 " fill="none" id="Administrator-UC6 - Specify address" style="stroke:#181818;stroke-width:1.0;"/></g><!--link Client to UC9 - Leave message to agent--><g id="link_Client_UC9 - Leave message to agent"><path d="M101.97,1441.5 C132.51,1418.89 195.21,1375.4 255,1352 C290.22,1338.21 330.47,1328.5 366.51,1321.77 " fill="none" id="Client-UC9 - Leave message to agent" style="stroke:#181818;stroke-width:1.0;"/></g><!--link Client to UC10 - Place order to purchase property--><g id="link_Client_UC10 - Place order to purchase property"><path d="M101.9,1453.41 C144.87,1447.52 252.96,1432.69 340.88,1420.64 " fill="none" id="Client-UC10 - Place order to purchase property" style="stroke:#181818;stroke-width:1.0;"/></g><!--link Client to UC14 - Read response for appointment requests--><g id="link_Client_UC14 - Read response for appointment requests"><path d="M101.9,1458.59 C141.46,1464.02 236.21,1477.01 319.61,1488.45 " fill="none" id="Client-UC14 - Read response for appointment requests" style="stroke:#181818;stroke-width:1.0;"/></g><!--link Client to UC20 - Read response for appointment requests--><g id="link_Client_UC20 - Read response for appointment requests"><path d="M101.54,1470.34 C131.96,1493.24 195.12,1538.12 255,1564 C282.29,1575.8 312.64,1585.57 341.72,1593.48 " fill="none" id="Client-UC20 - Read response for appointment requests" style="stroke:#181818;stroke-width:1.0;"/></g><!--link StoreNetworkManager to UC13 - List all employees in every store--><g id="link_StoreNetworkManager_UC13 - List all employees in every store"><path d="M158.29,1797.36 C188.35,1789.98 223.29,1781.49 255,1774 C291.34,1765.41 331.2,1756.24 366.6,1748.18 " fill="none" id="StoreNetworkManager-UC13 - List all employees in every store" style="stroke:#181818;stroke-width:1.0;"/></g><!--link StoreNetworkManager to UC17 - List all deals made--><g id="link_StoreNetworkManager_UC17 - List all deals made"><path d="M158.44,1816 C216.66,1816 297.94,1816 362.81,1816 " fill="none" id="StoreNetworkManager-UC17 - List all deals made" style="stroke:#181818;stroke-width:1.0;"/></g><!--link StoreNetworkManager to UC19 - Divide the set of store into two subsets--><g id="link_StoreNetworkManager_UC19 - Divide the set of store into two subsets"><path d="M158.44,1834.74 C215.12,1848.82 293.66,1868.32 357.64,1884.22 " fill="none" id="StoreNetworkManager-UC19 - Divide the set of store into two subsets" style="stroke:#181818;stroke-width:1.0;"/></g><!--link StoreManager to UC18 - Analyse the deals made--><g id="link_StoreManager_UC18 - Analyse the deals made"><path d="M130.39,2011 C184.01,2011 273.45,2011 347.01,2011 " fill="none" id="StoreManager-UC18 - Analyse the deals made" style="stroke:#181818;stroke-width:1.0;"/></g><!--SRC=[bLJBRjim4BphA_RO7Wn4ITCqno2z5EWBDVm1At4j4QP8balP48h-UvUqfCY6OwG-6BOuipkxCvIXROJe8EYcZQ1qe3fgPmlUQUinO0SUwnqsj8w38KZ7HL5W7Ls0ZGtKQ8uKI6sOmlZugI4Rfz-gqrOW0UNV-Ep7mSxOPwDVm6lvekyK3oxilg6Lfc5vCZqgaWYqZSXP3zAz-rCK89zpER1QhU3Tvhc45NpMx0qEODAv0X-Sfn0ryVlht0VX_XfF01aGwgnufELH9-ojO7_sbRHeWL7KeRMkjpLrhn0-2M5Db4M1sqwgXXEYhFntJnpvKeKopVOrqGEX0O5X9F1zg5ja0XSKXSl4-uc8na3bdDZTpAsW4WtDAwhBZtadx9rLAJcn9UZJocAB4RXkIVKo_5wplhocShdJ39E15JWlIN4Mi79zp5MhdhKbdWTOPccgThSiHfqtRY2wHYYJJLywxq84RRSkT9W23zlWEZ3KO3q0vrYDLN9S9_Q7t6xSKl8jhGrdvwurlbygvHJeQ-YqvBMdMc_52gN2ongELsR2FIOV2VS4dK34j6J9qhjJU7cJGcgm7iEHq7DSpgOuOnv7HoKfITuBNfO7wBtJDbvAwYd_zkP_-HTU1xEOksLy9zjP30NQKnXEzdkjpiEoZf8xnD2XUWlpCRzLzbfHpYfJliAvhyX8z-BWWFjA3au6Eg-JNW9F5it0nq8d8eg_nJy0]--></g></svg>