<?xml version="1.0" encoding="us-ascii" standalone="no"?><svg xmlns="http://www.w3.org/2000/svg" xmlns:xlink="http://www.w3.org/1999/xlink" contentStyleType="text/css" height="646px" preserveAspectRatio="none" style="width:889px;height:646px;background:#FFFFFF;" version="1.1" viewBox="0 0 889 646" width="889px" zoomAndPan="magnify"><defs/><g><rect fill="#FFFFFF" height="527.6074" style="stroke:#181818;stroke-width:1.0;" width="10" x="159" y="71.9121"/><rect fill="none" height="473.3164" style="stroke:#000000;stroke-width:1.5;" width="775" x="108" y="86.9121"/><rect fill="none" height="198.959" style="stroke:#000000;stroke-width:1.5;" width="485" x="118" y="156.8242"/><rect fill="none" height="62.9121" style="stroke:#000000;stroke-width:1.5;" width="664" x="118" y="413.4043"/><rect fill="none" height="62.9121" style="stroke:#000000;stroke-width:1.5;" width="755" x="118" y="490.3164"/><line style="stroke:#181818;stroke-width:0.5;stroke-dasharray:5.0,5.0;" x1="164" x2="164" y1="38.6211" y2="608.5195"/><line style="stroke:#181818;stroke-width:0.5;stroke-dasharray:5.0,5.0;" x1="403" x2="403" y1="138.0137" y2="608.5195"/><line style="stroke:#181818;stroke-width:0.5;stroke-dasharray:5.0,5.0;" x1="496" x2="496" y1="210.4063" y2="608.5195"/><line style="stroke:#181818;stroke-width:0.5;stroke-dasharray:5.0,5.0;" x1="566" x2="566" y1="341.4922" y2="608.5195"/><line style="stroke:#181818;stroke-width:0.5;stroke-dasharray:5.0,5.0;" x1="641" x2="641" y1="394.5938" y2="608.5195"/><line style="stroke:#181818;stroke-width:0.5;stroke-dasharray:5.0,5.0;" x1="728" x2="728" y1="464.5059" y2="608.5195"/><line style="stroke:#181818;stroke-width:0.5;stroke-dasharray:5.0,5.0;" x1="822" x2="822" y1="541.418" y2="608.5195"/><rect fill="#E3E3E3" height="32.6211" rx="2.5" ry="2.5" style="stroke:#181818;stroke-width:0.5;" width="72" x="128" y="5"/><text fill="#000000" font-family="sans-serif" font-size="14" lengthAdjust="spacing" textLength="58" x="135" y="27.1074">:Property</text><rect fill="#E3E3E3" height="32.6211" rx="2.5" ry="2.5" style="stroke:#181818;stroke-width:0.5;" width="72" x="128" y="607.5195"/><text fill="#000000" font-family="sans-serif" font-size="14" lengthAdjust="spacing" textLength="58" x="135" y="629.627">:Property</text><rect fill="#E3E3E3" height="32.6211" rx="2.5" ry="2.5" style="stroke:#181818;stroke-width:0.5;" width="100" x="353" y="607.5195"/><text fill="#000000" font-family="sans-serif" font-size="14" lengthAdjust="spacing" textLength="86" x="360" y="629.627">PropertyType</text><rect fill="#E3E3E3" height="32.6211" rx="2.5" ry="2.5" style="stroke:#181818;stroke-width:0.5;" width="66" x="463" y="607.5195"/><text fill="#000000" font-family="sans-serif" font-size="14" lengthAdjust="spacing" textLength="52" x="470" y="629.627">Dwelling</text><rect fill="#E3E3E3" height="32.6211" rx="2.5" ry="2.5" style="stroke:#181818;stroke-width:0.5;" width="54" x="539" y="607.5195"/><text fill="#000000" font-family="sans-serif" font-size="14" lengthAdjust="spacing" textLength="40" x="546" y="629.627">House</text><rect fill="#E3E3E3" height="32.6211" rx="2.5" ry="2.5" style="stroke:#181818;stroke-width:0.5;" width="66" x="608" y="607.5195"/><text fill="#000000" font-family="sans-serif" font-size="14" lengthAdjust="spacing" textLength="52" x="615" y="629.627">Address</text><rect fill="#E3E3E3" height="32.6211" rx="2.5" ry="2.5" style="stroke:#181818;stroke-width:0.5;" width="88" x="684" y="607.5195"/><text fill="#000000" font-family="sans-serif" font-size="14" lengthAdjust="spacing" textLength="74" x="691" y="629.627">Photograph</text><rect fill="#E3E3E3" height="32.6211" rx="2.5" ry="2.5" style="stroke:#181818;stroke-width:0.5;" width="81" x="782" y="607.5195"/><text fill="#000000" font-family="sans-serif" font-size="14" lengthAdjust="spacing" textLength="67" x="789" y="629.627">Equipment</text><rect fill="#FFFFFF" height="527.6074" style="stroke:#181818;stroke-width:1.0;" width="10" x="159" y="71.9121"/><polygon fill="#181818" points="147,67.9121,157,71.9121,147,75.9121,151,71.9121" style="stroke:#181818;stroke-width:1.0;"/><line style="stroke:#181818;stroke-width:1.0;" x1="0" x2="153" y1="71.9121" y2="71.9121"/><text fill="#000000" font-family="sans-serif" font-size="13" lengthAdjust="spacing" textLength="93" x="7" y="66.6494">createProperty()</text><path d="M108,86.9121 L247,86.9121 L247,96.2031 L237,106.2031 L108,106.2031 L108,86.9121 " fill="#EEEEEE" style="stroke:#000000;stroke-width:1.5;"/><rect fill="none" height="473.3164" style="stroke:#000000;stroke-width:1.5;" width="775" x="108" y="86.9121"/><text fill="#000000" font-family="sans-serif" font-size="13" font-weight="bold" lengthAdjust="spacing" textLength="94" x="123" y="101.9404">createProperty</text><polygon fill="#181818" points="341,125.4941,351,129.4941,341,133.4941,345,129.4941" style="stroke:#181818;stroke-width:1.0;"/><line style="stroke:#181818;stroke-width:1.0;" x1="169" x2="347" y1="129.4941" y2="129.4941"/><text fill="#000000" font-family="sans-serif" font-size="13" lengthAdjust="spacing" textLength="160" x="176" y="124.2314">PropertyType(propertyType)</text><rect fill="#E3E3E3" height="32.6211" rx="2.5" ry="2.5" style="stroke:#181818;stroke-width:0.5;" width="100" x="353" y="106.2031"/><text fill="#000000" font-family="sans-serif" font-size="14" lengthAdjust="spacing" textLength="86" x="360" y="128.3105">PropertyType</text><path d="M118,156.8242 L179,156.8242 L179,166.1152 L169,176.1152 L118,176.1152 L118,156.8242 " fill="#EEEEEE" style="stroke:#000000;stroke-width:1.5;"/><rect fill="none" height="198.959" style="stroke:#000000;stroke-width:1.5;" width="485" x="118" y="156.8242"/><text fill="#000000" font-family="sans-serif" font-size="13" font-weight="bold" lengthAdjust="spacing" textLength="16" x="133" y="171.8525">alt</text><text fill="#000000" font-family="sans-serif" font-size="11" font-weight="bold" lengthAdjust="spacing" textLength="101" x="194" y="170.6943">[type = apartment]</text><polygon fill="#181818" points="451,212.6973,461,216.6973,451,220.6973,455,216.6973" style="stroke:#181818;stroke-width:1.0;"/><line style="stroke:#181818;stroke-width:1.0;" x1="169" x2="457" y1="216.6973" y2="216.6973"/><text fill="#000000" font-family="sans-serif" font-size="13" lengthAdjust="spacing" textLength="268" x="176" y="194.1436">createDwelling(numBedrooms,numBathrooms,</text><text fill="#000000" font-family="sans-serif" font-size="13" lengthAdjust="spacing" textLength="117" x="176" y="211.4346">numParkingSpaces)</text><rect fill="#E3E3E3" height="32.6211" rx="2.5" ry="2.5" style="stroke:#181818;stroke-width:0.5;" width="66" x="463" y="181.0762"/><text fill="#000000" font-family="sans-serif" font-size="14" lengthAdjust="spacing" textLength="52" x="470" y="203.1836">Dwelling</text><line style="stroke:#000000;stroke-width:1.0;stroke-dasharray:2.0,2.0;" x1="118" x2="603" y1="225.6973" y2="225.6973"/><text fill="#000000" font-family="sans-serif" font-size="11" font-weight="bold" lengthAdjust="spacing" textLength="79" x="123" y="237.5674">[type = house]</text><polygon fill="#181818" points="484,295.2012,494,299.2012,484,303.2012,488,299.2012" style="stroke:#181818;stroke-width:1.0;"/><line style="stroke:#181818;stroke-width:1.0;" x1="169" x2="490" y1="299.2012" y2="299.2012"/><text fill="#000000" font-family="sans-serif" font-size="13" lengthAdjust="spacing" textLength="268" x="176" y="259.3564">createDwelling(numBedrooms,numBathrooms,</text><text fill="#000000" font-family="sans-serif" font-size="13" lengthAdjust="spacing" textLength="178" x="176" y="276.6475">numParkingSpaces,basement,</text><text fill="#000000" font-family="sans-serif" font-size="13" lengthAdjust="spacing" textLength="167" x="176" y="293.9385">inhabitableLoft,sunExposure)</text><polygon fill="#181818" points="527,343.7832,537,347.7832,527,351.7832,531,347.7832" style="stroke:#181818;stroke-width:1.0;"/><line style="stroke:#181818;stroke-width:1.0;" x1="169" x2="533" y1="347.7832" y2="347.7832"/><text fill="#000000" font-family="sans-serif" font-size="13" lengthAdjust="spacing" textLength="225" x="176" y="325.2295">createHouse(basement,inhabitableLoft,</text><text fill="#000000" font-family="sans-serif" font-size="13" lengthAdjust="spacing" textLength="80" x="176" y="342.5205">sunExposure)</text><rect fill="#E3E3E3" height="32.6211" rx="2.5" ry="2.5" style="stroke:#181818;stroke-width:0.5;" width="54" x="539" y="312.1621"/><text fill="#000000" font-family="sans-serif" font-size="14" lengthAdjust="spacing" textLength="40" x="546" y="334.2695">House</text><polygon fill="#181818" points="596,382.0742,606,386.0742,596,390.0742,600,386.0742" style="stroke:#181818;stroke-width:1.0;"/><line style="stroke:#181818;stroke-width:1.0;" x1="169" x2="602" y1="386.0742" y2="386.0742"/><text fill="#000000" font-family="sans-serif" font-size="13" lengthAdjust="spacing" textLength="415" x="176" y="380.8115">createAddress(street, cityName, districtName, stateAcronym, zip-code)</text><rect fill="#E3E3E3" height="32.6211" rx="2.5" ry="2.5" style="stroke:#181818;stroke-width:0.5;" width="66" x="608" y="362.7832"/><text fill="#000000" font-family="sans-serif" font-size="14" lengthAdjust="spacing" textLength="52" x="615" y="384.8906">Address</text><path d="M118,413.4043 L191,413.4043 L191,422.6953 L181,432.6953 L118,432.6953 L118,413.4043 " fill="#EEEEEE" style="stroke:#000000;stroke-width:1.5;"/><rect fill="none" height="62.9121" style="stroke:#000000;stroke-width:1.5;" width="664" x="118" y="413.4043"/><text fill="#000000" font-family="sans-serif" font-size="13" font-weight="bold" lengthAdjust="spacing" textLength="28" x="133" y="428.4326">loop</text><text fill="#000000" font-family="sans-serif" font-size="11" font-weight="bold" lengthAdjust="spacing" textLength="120" x="206" y="427.2744">[for each photograph]</text><polygon fill="#181818" points="672,451.9863,682,455.9863,672,459.9863,676,455.9863" style="stroke:#181818;stroke-width:1.0;"/><line style="stroke:#181818;stroke-width:1.0;" x1="169" x2="678" y1="455.9863" y2="455.9863"/><text fill="#000000" font-family="sans-serif" font-size="13" lengthAdjust="spacing" textLength="210" x="176" y="450.7236">createPhotograph(linkToPhotograph)</text><rect fill="#E3E3E3" height="32.6211" rx="2.5" ry="2.5" style="stroke:#181818;stroke-width:0.5;" width="88" x="684" y="432.6953"/><text fill="#000000" font-family="sans-serif" font-size="14" lengthAdjust="spacing" textLength="74" x="691" y="454.8027">Photograph</text><path d="M118,490.3164 L191,490.3164 L191,499.6074 L181,509.6074 L118,509.6074 L118,490.3164 " fill="#EEEEEE" style="stroke:#000000;stroke-width:1.5;"/><rect fill="none" height="62.9121" style="stroke:#000000;stroke-width:1.5;" width="755" x="118" y="490.3164"/><text fill="#000000" font-family="sans-serif" font-size="13" font-weight="bold" lengthAdjust="spacing" textLength="28" x="133" y="505.3447">loop</text><text fill="#000000" font-family="sans-serif" font-size="11" font-weight="bold" lengthAdjust="spacing" textLength="116" x="206" y="504.1865">[for each equipment]</text><polygon fill="#181818" points="770,528.8984,780,532.8984,770,536.8984,774,532.8984" style="stroke:#181818;stroke-width:1.0;"/><line style="stroke:#181818;stroke-width:1.0;" x1="169" x2="776" y1="532.8984" y2="532.8984"/><text fill="#000000" font-family="sans-serif" font-size="13" lengthAdjust="spacing" textLength="169" x="176" y="527.6357">createEquipment(description)</text><rect fill="#E3E3E3" height="32.6211" rx="2.5" ry="2.5" style="stroke:#181818;stroke-width:0.5;" width="81" x="782" y="509.6074"/><text fill="#000000" font-family="sans-serif" font-size="14" lengthAdjust="spacing" textLength="67" x="789" y="531.7148">Equipment</text><polygon fill="#181818" points="11,586.5195,1,590.5195,11,594.5195,7,590.5195" style="stroke:#181818;stroke-width:1.0;"/><line style="stroke:#181818;stroke-width:1.0;stroke-dasharray:2.0,2.0;" x1="5" x2="158" y1="590.5195" y2="590.5195"/><text fill="#000000" font-family="sans-serif" font-size="13" lengthAdjust="spacing" textLength="140" x="17" y="585.2568">show operation success</text><!--SRC=[fPJ1Rjim38RlUWgY9wTmNg1O1snOWHs68K1xx8MH6Kk8BMeIlTHz-ahDx6Y-r45rql-B8ZzHjkBHEey1U-ZPiJQ1Um890wauhtZKHspfKSQE890MT6rN1aI33P-iQ-60NIIbaYrMMuzEuEPk5zXJaF46CC8abDf-dGNSWGw4GfDHRHHgiN-JTTdH1Xxy8b3DAOfqJwEdszkKj3GgNuYDKb0Cx0GasN0FcDbxSl9Vm7AKLN-SgElIuTyhdkacgt93_vsQmDp7EizHp5aykoHt658FsyVKO8eBfEMWrDY9qV2GktmjuAVmwZr6odr9QzOPt5l1VKU_-21r7Dp3Y-Su1Dgin_gPJr4qxLrNSvbbaMUtlWov9j_fUfPlJHCeneBcdrD52KHIWxOo_iQUQcXiygoMiugIWtLWD_Orl5g_rTnynDSnUpXm049jm1iMRWDwivftDsyfa2zcbMxt-CGNO_DXkpBIDT3qPx3-gl_aOTfH8CzUrL3KmNgnx5R2fiaS-6MxBHwJQFW4MM1E1t7GwGEEIhq1]--></g></svg>