<?xml version="1.0" encoding="us-ascii" standalone="no"?><svg xmlns="http://www.w3.org/2000/svg" xmlns:xlink="http://www.w3.org/1999/xlink" contentStyleType="text/css" height="639px" preserveAspectRatio="none" style="width:576px;height:639px;background:#FFFFFF;" version="1.1" viewBox="0 0 576 639" width="576px" zoomAndPan="magnify"><defs/><g><text fill="#000000" font-family="sans-serif" font-size="14" font-weight="bold" lengthAdjust="spacing" textLength="228" x="173" y="30.1074">System Sequence Diagram (SSD)</text><rect fill="#FFFFFF" height="413.7539" style="stroke:#181818;stroke-width:1.0;" width="10" x="46" y="133.2422"/><rect fill="#FFFFFF" height="31.291" style="stroke:#181818;stroke-width:1.0;" width="10" x="465" y="156.5332"/><rect fill="#FFFFFF" height="301.5898" style="stroke:#181818;stroke-width:1.0;" width="10" x="465" y="245.4063"/><rect fill="none" height="336.1719" style="stroke:#000000;stroke-width:1.5;" width="512" x="10" y="202.8242"/><rect fill="none" height="161.0859" style="stroke:#000000;stroke-width:1.5;" width="492" x="20" y="291.6973"/><line style="stroke:#181818;stroke-width:0.5;stroke-dasharray:5.0,5.0;" x1="51" x2="51" y1="123.2422" y2="555.9961"/><line style="stroke:#181818;stroke-width:0.5;stroke-dasharray:5.0,5.0;" x1="470" x2="470" y1="123.2422" y2="555.9961"/><line style="stroke:#181818;stroke-width:0.5;stroke-dasharray:5.0,5.0;" x1="541" x2="541" y1="123.2422" y2="555.9961"/><text fill="#000000" font-family="sans-serif" font-size="14" lengthAdjust="spacing" textLength="36" x="30" y="119.7285">agent</text><ellipse cx="51" cy="53.1211" fill="#E3E3E3" rx="8" ry="8" style="stroke:#181818;stroke-width:0.5;"/><path d="M51,61.1211 L51,88.1211 M38,69.1211 L64,69.1211 M51,88.1211 L38,103.1211 M51,88.1211 L64,103.1211 " fill="none" style="stroke:#181818;stroke-width:0.5;"/><text fill="#000000" font-family="sans-serif" font-size="14" lengthAdjust="spacing" textLength="36" x="30" y="570.1035">agent</text><ellipse cx="51" cy="582.1172" fill="#E3E3E3" rx="8" ry="8" style="stroke:#181818;stroke-width:0.5;"/><path d="M51,590.1172 L51,617.1172 M38,598.1172 L64,598.1172 M51,617.1172 L38,632.1172 M51,617.1172 L64,632.1172 " fill="none" style="stroke:#181818;stroke-width:0.5;"/><rect fill="#E3E3E3" height="32.6211" rx="2.5" ry="2.5" style="stroke:#181818;stroke-width:0.5;" width="64" x="438" y="89.6211"/><text fill="#000000" font-family="sans-serif" font-size="14" lengthAdjust="spacing" textLength="50" x="445" y="111.7285">:System</text><rect fill="#E3E3E3" height="32.6211" rx="2.5" ry="2.5" style="stroke:#181818;stroke-width:0.5;" width="64" x="438" y="554.9961"/><text fill="#000000" font-family="sans-serif" font-size="14" lengthAdjust="spacing" textLength="50" x="445" y="577.1035">:System</text><rect fill="#E3E3E3" height="32.6211" rx="2.5" ry="2.5" style="stroke:#181818;stroke-width:0.5;" width="58" x="512" y="89.6211"/><text fill="#000000" font-family="sans-serif" font-size="14" lengthAdjust="spacing" textLength="44" x="519" y="111.7285">system</text><rect fill="#E3E3E3" height="32.6211" rx="2.5" ry="2.5" style="stroke:#181818;stroke-width:0.5;" width="58" x="512" y="554.9961"/><text fill="#000000" font-family="sans-serif" font-size="14" lengthAdjust="spacing" textLength="44" x="519" y="577.1035">system</text><rect fill="#FFFFFF" height="413.7539" style="stroke:#181818;stroke-width:1.0;" width="10" x="46" y="133.2422"/><rect fill="#FFFFFF" height="31.291" style="stroke:#181818;stroke-width:1.0;" width="10" x="465" y="156.5332"/><rect fill="#FFFFFF" height="301.5898" style="stroke:#181818;stroke-width:1.0;" width="10" x="465" y="245.4063"/><polygon fill="#181818" points="453,152.5332,463,156.5332,453,160.5332,457,156.5332" style="stroke:#181818;stroke-width:1.0;"/><line style="stroke:#181818;stroke-width:1.0;" x1="56" x2="459" y1="156.5332" y2="156.5332"/><text fill="#000000" font-family="sans-serif" font-size="13" font-weight="bold" lengthAdjust="spacing" textLength="7" x="63" y="151.2705">1</text><text fill="#000000" font-family="sans-serif" font-size="13" lengthAdjust="spacing" textLength="160" x="74" y="151.2705">selects the booking request</text><polygon fill="#181818" points="67,183.8242,57,187.8242,67,191.8242,63,187.8242" style="stroke:#181818;stroke-width:1.0;"/><line style="stroke:#181818;stroke-width:1.0;stroke-dasharray:2.0,2.0;" x1="61" x2="469" y1="187.8242" y2="187.8242"/><text fill="#000000" font-family="sans-serif" font-size="13" font-weight="bold" lengthAdjust="spacing" textLength="7" x="73" y="182.5615">2</text><text fill="#000000" font-family="sans-serif" font-size="13" lengthAdjust="spacing" textLength="365" x="84" y="182.5615">displays booking request information and asks for the response</text><path d="M10,202.8242 L75,202.8242 L75,212.1152 L65,222.1152 L10,222.1152 L10,202.8242 " fill="#EEEEEE" style="stroke:#000000;stroke-width:1.5;"/><rect fill="none" height="336.1719" style="stroke:#000000;stroke-width:1.5;" width="512" x="10" y="202.8242"/><text fill="#000000" font-family="sans-serif" font-size="13" font-weight="bold" lengthAdjust="spacing" textLength="20" x="25" y="217.8525">opt</text><text fill="#000000" font-family="sans-serif" font-size="11" font-weight="bold" lengthAdjust="spacing" textLength="55" x="90" y="216.6943">[respond]</text><polygon fill="#181818" points="453,241.4063,463,245.4063,453,249.4063,457,245.4063" style="stroke:#181818;stroke-width:1.0;"/><line style="stroke:#181818;stroke-width:1.0;" x1="56" x2="459" y1="245.4063" y2="245.4063"/><text fill="#000000" font-family="sans-serif" font-size="13" font-weight="bold" lengthAdjust="spacing" textLength="7" x="63" y="240.1436">3</text><text fill="#000000" font-family="sans-serif" font-size="13" lengthAdjust="spacing" textLength="125" x="74" y="240.1436">submits the response</text><polygon fill="#181818" points="67,272.6973,57,276.6973,67,280.6973,63,276.6973" style="stroke:#181818;stroke-width:1.0;"/><line style="stroke:#181818;stroke-width:1.0;stroke-dasharray:2.0,2.0;" x1="61" x2="464" y1="276.6973" y2="276.6973"/><text fill="#000000" font-family="sans-serif" font-size="13" font-weight="bold" lengthAdjust="spacing" textLength="7" x="73" y="271.4346">4</text><text fill="#000000" font-family="sans-serif" font-size="13" lengthAdjust="spacing" textLength="374" x="84" y="271.4346">shows data (response, propertyLocation) and asks for verification</text><path d="M20,291.6973 L85,291.6973 L85,300.9883 L75,310.9883 L20,310.9883 L20,291.6973 " fill="#EEEEEE" style="stroke:#000000;stroke-width:1.5;"/><rect fill="none" height="161.0859" style="stroke:#000000;stroke-width:1.5;" width="492" x="20" y="291.6973"/><text fill="#000000" font-family="sans-serif" font-size="13" font-weight="bold" lengthAdjust="spacing" textLength="20" x="35" y="306.7256">opt</text><text fill="#000000" font-family="sans-serif" font-size="11" font-weight="bold" lengthAdjust="spacing" textLength="50" x="100" y="305.5674">[verifies]</text><polygon fill="#181818" points="453,330.2793,463,334.2793,453,338.2793,457,334.2793" style="stroke:#181818;stroke-width:1.0;"/><line style="stroke:#181818;stroke-width:1.0;" x1="56" x2="459" y1="334.2793" y2="334.2793"/><text fill="#000000" font-family="sans-serif" font-size="13" font-weight="bold" lengthAdjust="spacing" textLength="7" x="63" y="329.0166">5</text><text fill="#000000" font-family="sans-serif" font-size="13" lengthAdjust="spacing" textLength="39" x="74" y="329.0166">verifies</text><polygon fill="#181818" points="67,361.5703,57,365.5703,67,369.5703,63,365.5703" style="stroke:#181818;stroke-width:1.0;"/><line style="stroke:#181818;stroke-width:1.0;stroke-dasharray:2.0,2.0;" x1="61" x2="464" y1="365.5703" y2="365.5703"/><text fill="#000000" font-family="sans-serif" font-size="13" font-weight="bold" lengthAdjust="spacing" textLength="7" x="73" y="360.3076">6</text><text fill="#000000" font-family="sans-serif" font-size="13" lengthAdjust="spacing" textLength="147" x="84" y="360.3076">shows operation success</text><line style="stroke:#000000;stroke-width:1.0;stroke-dasharray:2.0,2.0;" x1="20" x2="512" y1="374.5703" y2="374.5703"/><text fill="#000000" font-family="sans-serif" font-size="11" font-weight="bold" lengthAdjust="spacing" textLength="50" x="25" y="386.4404">[cancels]</text><polygon fill="#181818" points="453,409.4922,463,413.4922,453,417.4922,457,413.4922" style="stroke:#181818;stroke-width:1.0;"/><line style="stroke:#181818;stroke-width:1.0;" x1="56" x2="459" y1="413.4922" y2="413.4922"/><text fill="#000000" font-family="sans-serif" font-size="13" font-weight="bold" lengthAdjust="spacing" textLength="7" x="63" y="408.2295">7</text><text fill="#000000" font-family="sans-serif" font-size="13" lengthAdjust="spacing" textLength="45" x="74" y="408.2295">cancels</text><polygon fill="#181818" points="67,440.7832,57,444.7832,67,448.7832,63,444.7832" style="stroke:#181818;stroke-width:1.0;"/><line style="stroke:#181818;stroke-width:1.0;stroke-dasharray:2.0,2.0;" x1="61" x2="464" y1="444.7832" y2="444.7832"/><text fill="#000000" font-family="sans-serif" font-size="13" font-weight="bold" lengthAdjust="spacing" textLength="7" x="73" y="439.5205">8</text><text fill="#000000" font-family="sans-serif" font-size="13" lengthAdjust="spacing" textLength="199" x="84" y="439.5205">goes back to booking requests list</text><line style="stroke:#000000;stroke-width:1.0;stroke-dasharray:2.0,2.0;" x1="10" x2="522" y1="460.7832" y2="460.7832"/><text fill="#000000" font-family="sans-serif" font-size="11" font-weight="bold" lengthAdjust="spacing" textLength="51" x="15" y="472.6533">[go back]</text><polygon fill="#181818" points="453,495.7051,463,499.7051,453,503.7051,457,499.7051" style="stroke:#181818;stroke-width:1.0;"/><line style="stroke:#181818;stroke-width:1.0;" x1="56" x2="459" y1="499.7051" y2="499.7051"/><text fill="#000000" font-family="sans-serif" font-size="13" font-weight="bold" lengthAdjust="spacing" textLength="7" x="63" y="494.4424">9</text><text fill="#000000" font-family="sans-serif" font-size="13" lengthAdjust="spacing" textLength="46" x="74" y="494.4424">go back</text><polygon fill="#181818" points="67,526.9961,57,530.9961,67,534.9961,63,530.9961" style="stroke:#181818;stroke-width:1.0;"/><line style="stroke:#181818;stroke-width:1.0;stroke-dasharray:2.0,2.0;" x1="61" x2="464" y1="530.9961" y2="530.9961"/><text fill="#000000" font-family="sans-serif" font-size="13" font-weight="bold" lengthAdjust="spacing" textLength="14" x="73" y="525.7334">10</text><text fill="#000000" font-family="sans-serif" font-size="13" lengthAdjust="spacing" textLength="199" x="91" y="525.7334">goes back to booking requests list</text><!--SRC=[fL8xRiCm3Drz2Y9J0hGNoD0fOpUVW94PMx0jgYATmBSl_Mlj81wAQYBqgFUXABKF4HEsq79WLoLk2JHrbCaF4j7LM5AkVKEGo2c6ibatI8K5FtmeuOQDK9QfLslDUr5g8QUlZe8Zk7WiX_PZdbzEMOQTSkZQAoMhdNA2Wwa4FG0AZ5LczEgTZnWK3kU9RuIdSdpdxwWqzsTWPopX_MFHFuDGOwu5j2AuCjU3qpIu4frUB2mBBSndPdWtiedr38MNs60lpqJWmurJY-ev08R2NDO2TZMg9fB8mKOpi1RqKf2Zpdt5Rf3kslevo8RoBmcaueT0WOfmN4ZU82QEbBJ_P3TcE6r3t2dvcv-WNxlJBScUtos-wsLGdWOddNCaSp_PBe53MvrcLs43ln0ecUohR851-VdB11elyzAi_aHM8oIRWGLT-IbvfDlpiu7_uMSH_WO0]--></g></svg>