<?xml version="1.0" encoding="us-ascii" standalone="no"?><svg xmlns="http://www.w3.org/2000/svg" xmlns:xlink="http://www.w3.org/1999/xlink" contentStyleType="text/css" height="492.3px" preserveAspectRatio="none" style="width:408px;height:492px;background:#FFFFFF;" version="1.1" viewBox="0 0 408 492" width="408.6px" zoomAndPan="magnify"><defs/><g><text fill="#000000" font-family="sans-serif" font-size="12.6" font-weight="bold" lengthAdjust="spacing" textLength="205.2" x="102.825" y="24.9064">System Sequence Diagram (SSD)</text><rect fill="#FFFFFF" height="298.2023" style="stroke:#181818;stroke-width:0.9;" width="9" x="32.85" y="114.5531"/><rect fill="#FFFFFF" height="25.6711" style="stroke:#181818;stroke-width:0.9;" width="9" x="360.45" y="133.0242"/><rect fill="#FFFFFF" height="123.9047" style="stroke:#181818;stroke-width:0.9;" width="9" x="360.45" y="184.3664"/><rect fill="#FFFFFF" height="25.6711" style="stroke:#181818;stroke-width:0.9;" width="9" x="360.45" y="378.9844"/><rect fill="none" height="117.6047" style="stroke:#000000;stroke-width:1.35;" width="393.75" x="9" y="197.8664"/><line style="stroke:#181818;stroke-width:0.45;stroke-dasharray:5.0,5.0;" x1="36.9" x2="36.9" y1="105.5531" y2="420.8555"/><line style="stroke:#181818;stroke-width:0.45;stroke-dasharray:5.0,5.0;" x1="364.95" x2="364.95" y1="105.5531" y2="420.8555"/><text fill="#000000" font-family="sans-serif" font-size="12.6" lengthAdjust="spacing" textLength="33.3" x="18" y="102.883">Agent</text><ellipse cx="37.35" cy="45.1266" fill="#E3E3E3" rx="7.2" ry="7.2" style="stroke:#181818;stroke-width:0.45;"/><path d="M37.35,52.3266 L37.35,76.6266 M25.65,59.5266 L49.05,59.5266 M37.35,76.6266 L25.65,90.1266 M37.35,76.6266 L49.05,90.1266 " fill="none" style="stroke:#181818;stroke-width:0.45;"/><text fill="#000000" font-family="sans-serif" font-size="12.6" lengthAdjust="spacing" textLength="33.3" x="18" y="431.3619">Agent</text><ellipse cx="37.35" cy="441.682" fill="#E3E3E3" rx="7.2" ry="7.2" style="stroke:#181818;stroke-width:0.45;"/><path d="M37.35,448.882 L37.35,473.182 M25.65,456.082 L49.05,456.082 M37.35,473.182 L25.65,486.682 M37.35,473.182 L49.05,486.682 " fill="none" style="stroke:#181818;stroke-width:0.45;"/><rect fill="#E3E3E3" height="26.6766" rx="2.25" ry="2.25" style="stroke:#181818;stroke-width:0.45;" width="57.6" x="336.15" y="77.9766"/><text fill="#000000" font-family="sans-serif" font-size="12.6" lengthAdjust="spacing" textLength="45" x="342.45" y="95.683">:System</text><rect fill="#E3E3E3" height="26.6766" rx="2.25" ry="2.25" style="stroke:#181818;stroke-width:0.45;" width="57.6" x="336.15" y="419.9555"/><text fill="#000000" font-family="sans-serif" font-size="12.6" lengthAdjust="spacing" textLength="45" x="342.45" y="437.6619">:System</text><rect fill="#FFFFFF" height="298.2023" style="stroke:#181818;stroke-width:0.9;" width="9" x="32.85" y="114.5531"/><rect fill="#FFFFFF" height="25.6711" style="stroke:#181818;stroke-width:0.9;" width="9" x="360.45" y="133.0242"/><rect fill="#FFFFFF" height="123.9047" style="stroke:#181818;stroke-width:0.9;" width="9" x="360.45" y="184.3664"/><rect fill="#FFFFFF" height="25.6711" style="stroke:#181818;stroke-width:0.9;" width="9" x="360.45" y="378.9844"/><polygon fill="#181818" points="349.65,129.4242,358.65,133.0242,349.65,136.6242,353.25,133.0242" style="stroke:#181818;stroke-width:0.9;"/><line style="stroke:#181818;stroke-width:0.9;" x1="41.85" x2="355.05" y1="133.0242" y2="133.0242"/><text fill="#000000" font-family="sans-serif" font-size="11.7" font-weight="bold" lengthAdjust="spacing" textLength="6.3" x="48.15" y="128.7448">1</text><text fill="#000000" font-family="sans-serif" font-size="11.7" lengthAdjust="spacing" textLength="259.2" x="58.05" y="128.7448">asks to register the information about the property</text><polygon fill="#181818" points="51.75,155.0953,42.75,158.6953,51.75,162.2953,48.15,158.6953" style="stroke:#181818;stroke-width:0.9;"/><line style="stroke:#181818;stroke-width:0.9;stroke-dasharray:2.0,2.0;" x1="46.35" x2="364.05" y1="158.6953" y2="158.6953"/><text fill="#000000" font-family="sans-serif" font-size="11.7" font-weight="bold" lengthAdjust="spacing" textLength="6.3" x="57.15" y="154.4159">2</text><text fill="#000000" font-family="sans-serif" font-size="11.7" lengthAdjust="spacing" textLength="226.8" x="67.05" y="154.4159">requests property type and transaction type</text><polygon fill="#181818" points="349.65,180.7664,358.65,184.3664,349.65,187.9664,353.25,184.3664" style="stroke:#181818;stroke-width:0.9;"/><line style="stroke:#181818;stroke-width:0.9;" x1="41.85" x2="355.05" y1="184.3664" y2="184.3664"/><text fill="#000000" font-family="sans-serif" font-size="11.7" font-weight="bold" lengthAdjust="spacing" textLength="6.3" x="48.15" y="180.087">3</text><text fill="#000000" font-family="sans-serif" font-size="11.7" lengthAdjust="spacing" textLength="219.6" x="58.05" y="180.087">selects property type and transaction type</text><path d="M9,197.8664 L63.9,197.8664 L63.9,203.7375 L54.9,212.7375 L9,212.7375 L9,197.8664 " fill="#EEEEEE" style="stroke:#000000;stroke-width:1.35;"/><rect fill="none" height="117.6047" style="stroke:#000000;stroke-width:1.35;" width="393.75" x="9" y="197.8664"/><text fill="#000000" font-family="sans-serif" font-size="11.7" font-weight="bold" lengthAdjust="spacing" textLength="14.4" x="22.5" y="209.3581">alt</text><text fill="#000000" font-family="sans-serif" font-size="9.9" font-weight="bold" lengthAdjust="spacing" textLength="90.9" x="77.4" y="208.6286">[type = apartment]</text><polygon fill="#181818" points="51.75,227.6086,42.75,231.2086,51.75,234.8086,48.15,231.2086" style="stroke:#181818;stroke-width:0.9;"/><line style="stroke:#181818;stroke-width:0.9;stroke-dasharray:2.0,2.0;" x1="46.35" x2="359.55" y1="231.2086" y2="231.2086"/><text fill="#000000" font-family="sans-serif" font-size="11.7" font-weight="bold" lengthAdjust="spacing" textLength="6.3" x="57.15" y="226.9292">4</text><text fill="#000000" font-family="sans-serif" font-size="11.7" lengthAdjust="spacing" textLength="200.7" x="67.05" y="226.9292">requests the apartment characteristics</text><line style="stroke:#000000;stroke-width:0.9;stroke-dasharray:2.0,2.0;" x1="9" x2="402.75" y1="239.3086" y2="239.3086"/><text fill="#000000" font-family="sans-serif" font-size="9.9" font-weight="bold" lengthAdjust="spacing" textLength="71.1" x="13.5" y="248.2708">[type = house]</text><polygon fill="#181818" points="51.75,266.1398,42.75,269.7398,51.75,273.3398,48.15,269.7398" style="stroke:#181818;stroke-width:0.9;"/><line style="stroke:#181818;stroke-width:0.9;stroke-dasharray:2.0,2.0;" x1="46.35" x2="359.55" y1="269.7398" y2="269.7398"/><text fill="#000000" font-family="sans-serif" font-size="11.7" font-weight="bold" lengthAdjust="spacing" textLength="6.3" x="57.15" y="265.4604">5</text><text fill="#000000" font-family="sans-serif" font-size="11.7" lengthAdjust="spacing" textLength="180" x="67.05" y="265.4604">requests the house characteristics</text><line style="stroke:#000000;stroke-width:0.9;stroke-dasharray:2.0,2.0;" x1="9" x2="402.75" y1="277.8398" y2="277.8398"/><text fill="#000000" font-family="sans-serif" font-size="9.9" font-weight="bold" lengthAdjust="spacing" textLength="60.3" x="13.5" y="286.8021">[type = land]</text><polygon fill="#181818" points="51.75,304.6711,42.75,308.2711,51.75,311.8711,48.15,308.2711" style="stroke:#181818;stroke-width:0.9;"/><line style="stroke:#181818;stroke-width:0.9;stroke-dasharray:2.0,2.0;" x1="46.35" x2="364.05" y1="308.2711" y2="308.2711"/><text fill="#000000" font-family="sans-serif" font-size="11.7" font-weight="bold" lengthAdjust="spacing" textLength="6.3" x="57.15" y="303.9917">6</text><text fill="#000000" font-family="sans-serif" font-size="11.7" lengthAdjust="spacing" textLength="170.1" x="67.05" y="303.9917">requests the land characteristics</text><polygon fill="#181818" points="51.75,336.6422,42.75,340.2422,51.75,343.8422,48.15,340.2422" style="stroke:#181818;stroke-width:0.9;"/><line style="stroke:#181818;stroke-width:0.9;stroke-dasharray:2.0,2.0;" x1="46.35" x2="364.05" y1="340.2422" y2="340.2422"/><text fill="#000000" font-family="sans-serif" font-size="11.7" font-weight="bold" lengthAdjust="spacing" textLength="6.3" x="57.15" y="335.9628">7</text><text fill="#000000" font-family="sans-serif" font-size="11.7" lengthAdjust="spacing" textLength="131.4" x="67.05" y="335.9628">requests the commission</text><polygon fill="#181818" points="349.65,375.3844,358.65,378.9844,349.65,382.5844,353.25,378.9844" style="stroke:#181818;stroke-width:0.9;"/><line style="stroke:#181818;stroke-width:0.9;" x1="41.85" x2="355.05" y1="378.9844" y2="378.9844"/><text fill="#000000" font-family="sans-serif" font-size="11.7" font-weight="bold" lengthAdjust="spacing" textLength="6.3" x="48.15" y="368.1694">8</text><text fill="#000000" font-family="sans-serif" font-size="11.7" lengthAdjust="spacing" textLength="288" x="58.05" y="361.6339">fills in the property characteristics and the commission,</text><text fill="#000000" font-family="sans-serif" font-size="11.7" lengthAdjust="spacing" textLength="113.4" x="58.05" y="374.705">publishing the sale ad</text><polygon fill="#181818" points="51.75,401.0555,42.75,404.6555,51.75,408.2555,48.15,404.6555" style="stroke:#181818;stroke-width:0.9;"/><line style="stroke:#181818;stroke-width:0.9;stroke-dasharray:2.0,2.0;" x1="46.35" x2="364.05" y1="404.6555" y2="404.6555"/><text fill="#000000" font-family="sans-serif" font-size="11.7" font-weight="bold" lengthAdjust="spacing" textLength="6.3" x="57.15" y="400.3761">9</text><text fill="#000000" font-family="sans-serif" font-size="11.7" lengthAdjust="spacing" textLength="132.3" x="67.05" y="400.3761">shows operation success</text><!--SRC=[bLD9RiCm3Bpx5KHEBT1y840B54XVu6ilZCpOGhIu8jt0lozbrqxIf5bqaaZE33VnpeOM4thmCKJJfEW997LKyEnfqUomfb9wHv3828RQ7GTmWrNSsr335XrJKOWL3Irx5l9GqbT7mH2iBTOv_Aairyz5WPt4qFaD9RqRYGaMxpK5MG0oVFZMnPweK0MnnhOO11QhaNA86Ay3r7wZq05IW9xf1SktAP6LmdOC4hM8sgefWJG4DcnZyYWs1i1Dx6ImjYcsbAGVo6QDINIm_j8kLM5MMoctbil2CmD8tn9WgBIl63XpgL8s3YpvL7IcCBakri7aT0mFIVmhW4v6-2jWRhRN4HoyTzIPkpKZmJIw4aPxgmssXWzCf9in2JMnOtfOP43T9-2q5m_pPz0P_J77bJ6HGhMJ1yCTUYPwRvbrL3V6lRNEiUxfoMB-pNGS_mdj2to6jjiuoqt-dDd9g1yJgzjhSJb_RkAU8ISm_XVkZ27cQujS_000]--></g></svg>