<?xml version="1.0" encoding="us-ascii" standalone="no"?><svg xmlns="http://www.w3.org/2000/svg" xmlns:xlink="http://www.w3.org/1999/xlink" contentStyleType="text/css" height="1515px" preserveAspectRatio="none" style="width:3047px;height:1515px;background:#FFFFFF;" version="1.1" viewBox="0 0 3047 1515" width="3047px" zoomAndPan="magnify"><defs/><g><rect fill="#FFFFFF" height="1320.1404" style="stroke:#181818;stroke-width:1.0;" width="10" x="68" y="94.0679"/><rect fill="#FFFFFF" height="75.7739" style="stroke:#181818;stroke-width:1.0;" width="10" x="491" y="117.7739"/><rect fill="#FFFFFF" height="58.412" style="stroke:#181818;stroke-width:1.0;" width="10" x="491" y="225.2539"/><rect fill="#FFFFFF" height="38.706" style="stroke:#181818;stroke-width:1.0;" width="10" x="491" y="315.3719"/><rect fill="#FFFFFF" height="1028.4243" style="stroke:#181818;stroke-width:1.0;" width="10" x="491" y="385.784"/><rect fill="#FFFFFF" height="965.0123" style="stroke:#181818;stroke-width:1.0;" width="10" x="985" y="417.49"/><rect fill="#FFFFFF" height="221.9421" style="stroke:#181818;stroke-width:1.0;" width="10" x="1511" y="449.196"/><rect fill="#FFFFFF" height="385.6481" style="stroke:#181818;stroke-width:1.0;" width="10" x="1511" y="727.8441"/><rect fill="#FFFFFF" height="42.706" style="stroke:#181818;stroke-width:1.0;" width="10" x="1516" y="794.2562"/><rect fill="#FFFFFF" height="42.706" style="stroke:#181818;stroke-width:1.0;" width="10" x="1516" y="908.6682"/><rect fill="#FFFFFF" height="42.706" style="stroke:#181818;stroke-width:1.0;" width="10" x="1516" y="1025.0802"/><rect fill="#FFFFFF" height="31.706" style="stroke:#181818;stroke-width:1.0;" width="10" x="2051" y="480.902"/><rect fill="#FFFFFF" height="31.706" style="stroke:#181818;stroke-width:1.0;" width="10" x="2160.5" y="544.314"/><rect fill="#FFFFFF" height="31.706" style="stroke:#181818;stroke-width:1.0;" width="10" x="2282.5" y="607.7261"/><rect fill="#FFFFFF" height="52.412" style="stroke:#181818;stroke-width:1.0;" width="10" x="2421.5" y="1170.1983"/><rect fill="#FFFFFF" height="75.7739" style="stroke:#181818;stroke-width:1.0;" width="10" x="2591.5" y="1275.0223"/><rect fill="none" height="83.118" style="stroke:#000000;stroke-width:1.5;" width="557" x="10" y="240.2539"/><rect fill="none" height="339.9421" style="stroke:#000000;stroke-width:1.5;" width="606.5" x="1454.5" y="742.8441"/><line style="stroke:#181818;stroke-width:0.5;stroke-dasharray:5.0,5.0;" x1="73" x2="73" y1="84.0679" y2="1432.2083"/><line style="stroke:#181818;stroke-width:0.5;stroke-dasharray:5.0,5.0;" x1="496" x2="496" y1="84.0679" y2="1432.2083"/><line style="stroke:#181818;stroke-width:0.5;stroke-dasharray:5.0,5.0;" x1="990" x2="990" y1="157.8079" y2="1432.2083"/><line style="stroke:#181818;stroke-width:0.5;stroke-dasharray:5.0,5.0;" x1="1515.5" x2="1515.5" y1="84.0679" y2="1432.2083"/><line style="stroke:#181818;stroke-width:0.5;stroke-dasharray:5.0,5.0;" x1="2055.5" x2="2055.5" y1="84.0679" y2="1432.2083"/><line style="stroke:#181818;stroke-width:0.5;stroke-dasharray:5.0,5.0;" x1="2165.5" x2="2165.5" y1="84.0679" y2="1432.2083"/><line style="stroke:#181818;stroke-width:0.5;stroke-dasharray:5.0,5.0;" x1="2287.5" x2="2287.5" y1="84.0679" y2="1432.2083"/><line style="stroke:#181818;stroke-width:0.5;stroke-dasharray:5.0,5.0;" x1="2426.5" x2="2426.5" y1="84.0679" y2="1432.2083"/><line style="stroke:#181818;stroke-width:0.5;stroke-dasharray:5.0,5.0;" x1="2596.5" x2="2596.5" y1="84.0679" y2="1432.2083"/><line style="stroke:#181818;stroke-width:0.5;stroke-dasharray:5.0,5.0;" x1="2962.5" x2="2962.5" y1="1315.0563" y2="1432.2083"/><text fill="#000000" font-family="sans-serif" font-size="14" lengthAdjust="spacing" textLength="100" x="20" y="79.9659">Store Manager</text><ellipse cx="73" cy="13.5" fill="#E3E3E3" rx="8" ry="8" style="stroke:#181818;stroke-width:0.5;"/><path d="M73,21.5 L73,48.5 M60,29.5 L86,29.5 M73,48.5 L60,63.5 M73,48.5 L86,63.5 " fill="none" style="stroke:#181818;stroke-width:0.5;"/><text fill="#000000" font-family="sans-serif" font-size="14" lengthAdjust="spacing" textLength="100" x="20" y="1446.1742">Store Manager</text><ellipse cx="73" cy="1458.7762" fill="#E3E3E3" rx="8" ry="8" style="stroke:#181818;stroke-width:0.5;"/><path d="M73,1466.7762 L73,1493.7762 M60,1474.7762 L86,1474.7762 M73,1493.7762 L60,1508.7762 M73,1493.7762 L86,1508.7762 " fill="none" style="stroke:#181818;stroke-width:0.5;"/><rect fill="#E3E3E3" height="33.0679" rx="2.5" ry="2.5" style="stroke:#181818;stroke-width:0.5;" width="122" x="435" y="50"/><text fill="#000000" font-family="sans-serif" font-size="14" lengthAdjust="spacing" textLength="108" x="442" y="71.9659">:AnalyseDealsUI</text><rect fill="#E3E3E3" height="33.0679" rx="2.5" ry="2.5" style="stroke:#181818;stroke-width:0.5;" width="122" x="435" y="1431.2083"/><text fill="#000000" font-family="sans-serif" font-size="14" lengthAdjust="spacing" textLength="108" x="442" y="1453.1742">:AnalyseDealsUI</text><rect fill="#E3E3E3" height="33.0679" rx="2.5" ry="2.5" style="stroke:#181818;stroke-width:0.5;" width="174" x="903" y="1431.2083"/><text fill="#000000" font-family="sans-serif" font-size="14" lengthAdjust="spacing" textLength="160" x="910" y="1453.1742">:AnalyseDealsController</text><rect fill="#E3E3E3" height="33.0679" rx="2.5" ry="2.5" style="stroke:#181818;stroke-width:0.5;" width="103" x="1464.5" y="50"/><text fill="#000000" font-family="sans-serif" font-size="14" lengthAdjust="spacing" textLength="89" x="1471.5" y="71.9659">:DealAnalysis</text><rect fill="#E3E3E3" height="33.0679" rx="2.5" ry="2.5" style="stroke:#181818;stroke-width:0.5;" width="103" x="1464.5" y="1431.2083"/><text fill="#000000" font-family="sans-serif" font-size="14" lengthAdjust="spacing" textLength="89" x="1471.5" y="1453.1742">:DealAnalysis</text><rect fill="#E3E3E3" height="33.0679" rx="2.5" ry="2.5" style="stroke:#181818;stroke-width:0.5;" width="101" x="2005.5" y="50"/><text fill="#000000" font-family="sans-serif" font-size="14" lengthAdjust="spacing" textLength="87" x="2012.5" y="71.9659">:Repositories</text><rect fill="#E3E3E3" height="33.0679" rx="2.5" ry="2.5" style="stroke:#181818;stroke-width:0.5;" width="101" x="2005.5" y="1431.2083"/><text fill="#000000" font-family="sans-serif" font-size="14" lengthAdjust="spacing" textLength="87" x="2012.5" y="1453.1742">:Repositories</text><rect fill="#E3E3E3" height="52.1358" rx="2.5" ry="2.5" style="stroke:#181818;stroke-width:0.5;" width="98" x="2116.5" y="30.9321"/><text fill="#000000" font-family="sans-serif" font-size="14" lengthAdjust="spacing" textLength="84" x="2123.5" y="52.898">repositories:</text><text fill="#000000" font-family="sans-serif" font-size="14" lengthAdjust="spacing" textLength="83" x="2124" y="71.9659">Repositories</text><rect fill="#E3E3E3" height="52.1358" rx="2.5" ry="2.5" style="stroke:#181818;stroke-width:0.5;" width="98" x="2116.5" y="1431.2083"/><text fill="#000000" font-family="sans-serif" font-size="14" lengthAdjust="spacing" textLength="84" x="2123.5" y="1453.1742">repositories:</text><text fill="#000000" font-family="sans-serif" font-size="14" lengthAdjust="spacing" textLength="83" x="2124" y="1472.2422">Repositories</text><rect fill="#E3E3E3" height="52.1358" rx="2.5" ry="2.5" style="stroke:#181818;stroke-width:0.5;" width="126" x="2224.5" y="30.9321"/><text fill="#000000" font-family="sans-serif" font-size="14" lengthAdjust="spacing" textLength="112" x="2231.5" y="52.898">orderRepository:</text><text fill="#000000" font-family="sans-serif" font-size="14" lengthAdjust="spacing" textLength="111" x="2232" y="71.9659">OrderRepository</text><rect fill="#E3E3E3" height="52.1358" rx="2.5" ry="2.5" style="stroke:#181818;stroke-width:0.5;" width="126" x="2224.5" y="1431.2083"/><text fill="#000000" font-family="sans-serif" font-size="14" lengthAdjust="spacing" textLength="112" x="2231.5" y="1453.1742">orderRepository:</text><text fill="#000000" font-family="sans-serif" font-size="14" lengthAdjust="spacing" textLength="111" x="2232" y="1472.2422">OrderRepository</text><rect fill="#E3E3E3" height="52.1358" rx="2.5" ry="2.5" style="stroke:#181818;stroke-width:0.5;" width="132" x="2360.5" y="30.9321"/><text fill="#000000" font-family="sans-serif" font-size="14" lengthAdjust="spacing" textLength="118" x="2367.5" y="52.898">regressionModel:</text><text fill="#000000" font-family="sans-serif" font-size="14" lengthAdjust="spacing" textLength="117" x="2368" y="71.9659">RegressionModel</text><rect fill="#E3E3E3" height="52.1358" rx="2.5" ry="2.5" style="stroke:#181818;stroke-width:0.5;" width="132" x="2360.5" y="1431.2083"/><text fill="#000000" font-family="sans-serif" font-size="14" lengthAdjust="spacing" textLength="118" x="2367.5" y="1453.1742">regressionModel:</text><text fill="#000000" font-family="sans-serif" font-size="14" lengthAdjust="spacing" textLength="117" x="2368" y="1472.2422">RegressionModel</text><rect fill="#E3E3E3" height="33.0679" rx="2.5" ry="2.5" style="stroke:#181818;stroke-width:0.5;" width="188" x="2502.5" y="50"/><text fill="#000000" font-family="sans-serif" font-size="14" lengthAdjust="spacing" textLength="174" x="2509.5" y="71.9659">:RegressionModelMapper</text><rect fill="#E3E3E3" height="33.0679" rx="2.5" ry="2.5" style="stroke:#181818;stroke-width:0.5;" width="188" x="2502.5" y="1431.2083"/><text fill="#000000" font-family="sans-serif" font-size="14" lengthAdjust="spacing" textLength="174" x="2509.5" y="1453.1742">:RegressionModelMapper</text><rect fill="#E3E3E3" height="33.0679" rx="2.5" ry="2.5" style="stroke:#181818;stroke-width:0.5;" width="158" x="2883.5" y="1431.2083"/><text fill="#000000" font-family="sans-serif" font-size="14" lengthAdjust="spacing" textLength="144" x="2890.5" y="1453.1742">:RegressionModelDto</text><rect fill="#FFFFFF" height="1320.1404" style="stroke:#181818;stroke-width:1.0;" width="10" x="68" y="94.0679"/><rect fill="#FFFFFF" height="75.7739" style="stroke:#181818;stroke-width:1.0;" width="10" x="491" y="117.7739"/><rect fill="#FFFFFF" height="58.412" style="stroke:#181818;stroke-width:1.0;" width="10" x="491" y="225.2539"/><rect fill="#FFFFFF" height="38.706" style="stroke:#181818;stroke-width:1.0;" width="10" x="491" y="315.3719"/><rect fill="#FFFFFF" height="1028.4243" style="stroke:#181818;stroke-width:1.0;" width="10" x="491" y="385.784"/><rect fill="#FFFFFF" height="965.0123" style="stroke:#181818;stroke-width:1.0;" width="10" x="985" y="417.49"/><rect fill="#FFFFFF" height="221.9421" style="stroke:#181818;stroke-width:1.0;" width="10" x="1511" y="449.196"/><rect fill="#FFFFFF" height="385.6481" style="stroke:#181818;stroke-width:1.0;" width="10" x="1511" y="727.8441"/><rect fill="#FFFFFF" height="42.706" style="stroke:#181818;stroke-width:1.0;" width="10" x="1516" y="794.2562"/><rect fill="#FFFFFF" height="42.706" style="stroke:#181818;stroke-width:1.0;" width="10" x="1516" y="908.6682"/><rect fill="#FFFFFF" height="42.706" style="stroke:#181818;stroke-width:1.0;" width="10" x="1516" y="1025.0802"/><rect fill="#FFFFFF" height="31.706" style="stroke:#181818;stroke-width:1.0;" width="10" x="2051" y="480.902"/><rect fill="#FFFFFF" height="31.706" style="stroke:#181818;stroke-width:1.0;" width="10" x="2160.5" y="544.314"/><rect fill="#FFFFFF" height="31.706" style="stroke:#181818;stroke-width:1.0;" width="10" x="2282.5" y="607.7261"/><rect fill="#FFFFFF" height="52.412" style="stroke:#181818;stroke-width:1.0;" width="10" x="2421.5" y="1170.1983"/><rect fill="#FFFFFF" height="75.7739" style="stroke:#181818;stroke-width:1.0;" width="10" x="2591.5" y="1275.0223"/><polygon fill="#181818" points="479,113.7739,489,117.7739,479,121.7739,483,117.7739" style="stroke:#181818;stroke-width:1.0;"/><line style="stroke:#181818;stroke-width:1.0;" x1="78" x2="485" y1="117.7739" y2="117.7739"/><text fill="#000000" font-family="sans-serif" font-size="13" font-weight="bold" lengthAdjust="spacing" textLength="7" x="85" y="111.9649">1</text><text fill="#000000" font-family="sans-serif" font-size="13" lengthAdjust="spacing" textLength="184" x="96" y="111.9649">asks to analyse the deals made</text><polygon fill="#181818" points="891,145.4799,901,149.4799,891,153.4799,895,149.4799" style="stroke:#181818;stroke-width:1.0;"/><line style="stroke:#181818;stroke-width:1.0;" x1="501" x2="897" y1="149.4799" y2="149.4799"/><text fill="#000000" font-family="sans-serif" font-size="13" font-weight="bold" lengthAdjust="spacing" textLength="7" x="508" y="143.6709">2</text><text fill="#000000" font-family="sans-serif" font-size="13" lengthAdjust="spacing" textLength="37" x="519" y="143.6709">create</text><rect fill="#E3E3E3" height="33.0679" rx="2.5" ry="2.5" style="stroke:#181818;stroke-width:0.5;" width="174" x="903" y="125.7739"/><text fill="#000000" font-family="sans-serif" font-size="14" lengthAdjust="spacing" textLength="160" x="910" y="147.7399">:AnalyseDealsController</text><polygon fill="#181818" points="89,189.5479,79,193.5479,89,197.5479,85,193.5479" style="stroke:#181818;stroke-width:1.0;"/><line style="stroke:#181818;stroke-width:1.0;stroke-dasharray:2.0,2.0;" x1="83" x2="495" y1="193.5479" y2="193.5479"/><text fill="#000000" font-family="sans-serif" font-size="13" font-weight="bold" lengthAdjust="spacing" textLength="7" x="95" y="187.7389">3</text><text fill="#000000" font-family="sans-serif" font-size="13" lengthAdjust="spacing" textLength="362" x="106" y="187.7389">shows the different regression models and asks to select one</text><polygon fill="#181818" points="479,221.2539,489,225.2539,479,229.2539,483,225.2539" style="stroke:#181818;stroke-width:1.0;"/><line style="stroke:#181818;stroke-width:1.0;" x1="78" x2="485" y1="225.2539" y2="225.2539"/><text fill="#000000" font-family="sans-serif" font-size="13" font-weight="bold" lengthAdjust="spacing" textLength="7" x="85" y="219.4449">4</text><text fill="#000000" font-family="sans-serif" font-size="13" lengthAdjust="spacing" textLength="157" x="96" y="219.4449">selects a regression model</text><path d="M10,240.2539 L73,240.2539 L73,249.9599 L63,259.9599 L10,259.9599 L10,240.2539 " fill="#EEEEEE" style="stroke:#000000;stroke-width:1.5;"/><rect fill="none" height="83.118" style="stroke:#000000;stroke-width:1.5;" width="557" x="10" y="240.2539"/><text fill="#000000" font-family="sans-serif" font-size="13" font-weight="bold" lengthAdjust="spacing" textLength="18" x="25" y="255.1509">alt</text><text fill="#000000" font-family="sans-serif" font-size="11" font-weight="bold" lengthAdjust="spacing" textLength="172" x="88" y="254.0128">[if it is simple linear regression]</text><polygon fill="#181818" points="89,279.6659,79,283.6659,89,287.6659,85,283.6659" style="stroke:#181818;stroke-width:1.0;"/><line style="stroke:#181818;stroke-width:1.0;stroke-dasharray:2.0,2.0;" x1="83" x2="495" y1="283.6659" y2="283.6659"/><text fill="#000000" font-family="sans-serif" font-size="13" font-weight="bold" lengthAdjust="spacing" textLength="7" x="95" y="277.8569">5</text><text fill="#000000" font-family="sans-serif" font-size="13" lengthAdjust="spacing" textLength="310" x="106" y="277.8569">shows regression parameters and asks to select one</text><polygon fill="#181818" points="479,311.3719,489,315.3719,479,319.3719,483,315.3719" style="stroke:#181818;stroke-width:1.0;"/><line style="stroke:#181818;stroke-width:1.0;" x1="78" x2="485" y1="315.3719" y2="315.3719"/><text fill="#000000" font-family="sans-serif" font-size="13" font-weight="bold" lengthAdjust="spacing" textLength="7" x="85" y="309.5629">6</text><text fill="#000000" font-family="sans-serif" font-size="13" lengthAdjust="spacing" textLength="195" x="96" y="309.5629">selects the regression parameter</text><polygon fill="#181818" points="89,350.0779,79,354.0779,89,358.0779,85,354.0779" style="stroke:#181818;stroke-width:1.0;"/><line style="stroke:#181818;stroke-width:1.0;stroke-dasharray:2.0,2.0;" x1="83" x2="495" y1="354.0779" y2="354.0779"/><text fill="#000000" font-family="sans-serif" font-size="13" font-weight="bold" lengthAdjust="spacing" textLength="7" x="95" y="348.2689">7</text><text fill="#000000" font-family="sans-serif" font-size="13" lengthAdjust="spacing" textLength="226" x="106" y="348.2689">asks the significance value to consider</text><polygon fill="#181818" points="479,381.784,489,385.784,479,389.784,483,385.784" style="stroke:#181818;stroke-width:1.0;"/><line style="stroke:#181818;stroke-width:1.0;" x1="78" x2="485" y1="385.784" y2="385.784"/><text fill="#000000" font-family="sans-serif" font-size="13" font-weight="bold" lengthAdjust="spacing" textLength="7" x="85" y="379.975">8</text><text fill="#000000" font-family="sans-serif" font-size="13" lengthAdjust="spacing" textLength="168" x="96" y="379.975">enters the significance value</text><polygon fill="#181818" points="973,413.49,983,417.49,973,421.49,977,417.49" style="stroke:#181818;stroke-width:1.0;"/><line style="stroke:#181818;stroke-width:1.0;" x1="501" x2="979" y1="417.49" y2="417.49"/><text fill="#000000" font-family="sans-serif" font-size="13" font-weight="bold" lengthAdjust="spacing" textLength="7" x="508" y="411.681">9</text><text fill="#000000" font-family="sans-serif" font-size="13" lengthAdjust="spacing" textLength="454" x="519" y="411.681">getAnalysisStatistics(chosenRegressionModel, chosenRegressionParameter)</text><polygon fill="#181818" points="1499,445.196,1509,449.196,1499,453.196,1503,449.196" style="stroke:#181818;stroke-width:1.0;"/><line style="stroke:#181818;stroke-width:1.0;" x1="995" x2="1505" y1="449.196" y2="449.196"/><text fill="#000000" font-family="sans-serif" font-size="13" font-weight="bold" lengthAdjust="spacing" textLength="14" x="1002" y="443.387">10</text><text fill="#000000" font-family="sans-serif" font-size="13" lengthAdjust="spacing" textLength="335" x="1020" y="443.387">getRegressionParameters(chosenRegressionParameter)</text><polygon fill="#181818" points="2039,476.902,2049,480.902,2039,484.902,2043,480.902" style="stroke:#181818;stroke-width:1.0;"/><line style="stroke:#181818;stroke-width:1.0;" x1="1521" x2="2045" y1="480.902" y2="480.902"/><text fill="#000000" font-family="sans-serif" font-size="13" font-weight="bold" lengthAdjust="spacing" textLength="14" x="1528" y="475.093">11</text><text fill="#000000" font-family="sans-serif" font-size="13" lengthAdjust="spacing" textLength="79" x="1546" y="475.093">getInstance()</text><polygon fill="#181818" points="1532,508.608,1522,512.608,1532,516.608,1528,512.608" style="stroke:#181818;stroke-width:1.0;"/><line style="stroke:#181818;stroke-width:1.0;stroke-dasharray:2.0,2.0;" x1="1526" x2="2055" y1="512.608" y2="512.608"/><text fill="#000000" font-family="sans-serif" font-size="13" font-weight="bold" lengthAdjust="spacing" textLength="14" x="1538" y="506.799">12</text><text fill="#000000" font-family="sans-serif" font-size="13" lengthAdjust="spacing" textLength="71" x="1556" y="506.799">repositories</text><polygon fill="#181818" points="2148.5,540.314,2158.5,544.314,2148.5,548.314,2152.5,544.314" style="stroke:#181818;stroke-width:1.0;"/><line style="stroke:#181818;stroke-width:1.0;" x1="1521" x2="2154.5" y1="544.314" y2="544.314"/><text fill="#000000" font-family="sans-serif" font-size="13" font-weight="bold" lengthAdjust="spacing" textLength="14" x="1528" y="538.505">13</text><text fill="#000000" font-family="sans-serif" font-size="13" lengthAdjust="spacing" textLength="128" x="1546" y="538.505">getOrderRepository()</text><polygon fill="#181818" points="1532,572.0201,1522,576.0201,1532,580.0201,1528,576.0201" style="stroke:#181818;stroke-width:1.0;"/><line style="stroke:#181818;stroke-width:1.0;stroke-dasharray:2.0,2.0;" x1="1526" x2="2164.5" y1="576.0201" y2="576.0201"/><text fill="#000000" font-family="sans-serif" font-size="13" font-weight="bold" lengthAdjust="spacing" textLength="14" x="1538" y="570.2111">14</text><text fill="#000000" font-family="sans-serif" font-size="13" lengthAdjust="spacing" textLength="98" x="1556" y="570.2111">orderRepository</text><polygon fill="#181818" points="2270.5,603.7261,2280.5,607.7261,2270.5,611.7261,2274.5,607.7261" style="stroke:#181818;stroke-width:1.0;"/><line style="stroke:#181818;stroke-width:1.0;" x1="1521" x2="2276.5" y1="607.7261" y2="607.7261"/><text fill="#000000" font-family="sans-serif" font-size="13" font-weight="bold" lengthAdjust="spacing" textLength="14" x="1528" y="601.9171">15</text><text fill="#000000" font-family="sans-serif" font-size="13" lengthAdjust="spacing" textLength="335" x="1546" y="601.9171">getRegressionParameters(chosenRegressionParameter)</text><polygon fill="#181818" points="1532,635.4321,1522,639.4321,1532,643.4321,1528,639.4321" style="stroke:#181818;stroke-width:1.0;"/><line style="stroke:#181818;stroke-width:1.0;stroke-dasharray:2.0,2.0;" x1="1526" x2="2286.5" y1="639.4321" y2="639.4321"/><text fill="#000000" font-family="sans-serif" font-size="13" font-weight="bold" lengthAdjust="spacing" textLength="14" x="1538" y="633.6231">16</text><text fill="#000000" font-family="sans-serif" font-size="13" lengthAdjust="spacing" textLength="132" x="1556" y="633.6231">regressionParameters</text><polygon fill="#181818" points="1006,667.1381,996,671.1381,1006,675.1381,1002,671.1381" style="stroke:#181818;stroke-width:1.0;"/><line style="stroke:#181818;stroke-width:1.0;stroke-dasharray:2.0,2.0;" x1="1000" x2="1515" y1="671.1381" y2="671.1381"/><text fill="#000000" font-family="sans-serif" font-size="13" font-weight="bold" lengthAdjust="spacing" textLength="14" x="1012" y="665.3291">17</text><text fill="#000000" font-family="sans-serif" font-size="13" lengthAdjust="spacing" textLength="132" x="1030" y="665.3291">regressionParameters</text><polygon fill="#181818" points="1499,723.8441,1509,727.8441,1499,731.8441,1503,727.8441" style="stroke:#181818;stroke-width:1.0;"/><line style="stroke:#181818;stroke-width:1.0;" x1="995" x2="1505" y1="727.8441" y2="727.8441"/><text fill="#000000" font-family="sans-serif" font-size="13" font-weight="bold" lengthAdjust="spacing" textLength="14" x="1002" y="722.0351">18</text><text fill="#000000" font-family="sans-serif" font-size="13" lengthAdjust="spacing" textLength="479" x="1020" y="722.0351">getRegressionModel(regressionParameters, significanceValue, isRegressionSLM)</text><path d="M1454.5,742.8441 L1517.5,742.8441 L1517.5,752.5501 L1507.5,762.5501 L1454.5,762.5501 L1454.5,742.8441 " fill="#EEEEEE" style="stroke:#000000;stroke-width:1.5;"/><rect fill="none" height="339.9421" style="stroke:#000000;stroke-width:1.5;" width="606.5" x="1454.5" y="742.8441"/><text fill="#000000" font-family="sans-serif" font-size="13" font-weight="bold" lengthAdjust="spacing" textLength="18" x="1469.5" y="757.7411">alt</text><text fill="#000000" font-family="sans-serif" font-size="11" font-weight="bold" lengthAdjust="spacing" textLength="135" x="1532.5" y="756.603">[if isRegressionSLM true]</text><line style="stroke:#181818;stroke-width:1.0;" x1="1521" x2="1568" y1="781.2562" y2="781.2562"/><line style="stroke:#181818;stroke-width:1.0;" x1="1568" x2="1568" y1="781.2562" y2="794.2562"/><line style="stroke:#181818;stroke-width:1.0;" x1="1527" x2="1568" y1="794.2562" y2="794.2562"/><polygon fill="#181818" points="1537,790.2562,1527,794.2562,1537,798.2562,1533,794.2562" style="stroke:#181818;stroke-width:1.0;"/><text fill="#000000" font-family="sans-serif" font-size="13" font-weight="bold" lengthAdjust="spacing" textLength="14" x="1533" y="775.4472">19</text><text fill="#000000" font-family="sans-serif" font-size="13" lengthAdjust="spacing" textLength="312" x="1551" y="775.4472">addDataToSimpleRegression(regressionParameters)</text><line style="stroke:#181818;stroke-width:1.0;stroke-dasharray:2.0,2.0;" x1="1526" x2="1568" y1="835.9622" y2="835.9622"/><line style="stroke:#181818;stroke-width:1.0;stroke-dasharray:2.0,2.0;" x1="1568" x2="1568" y1="835.9622" y2="848.9622"/><line style="stroke:#181818;stroke-width:1.0;stroke-dasharray:2.0,2.0;" x1="1521" x2="1568" y1="848.9622" y2="848.9622"/><polygon fill="#181818" points="1531,844.9622,1521,848.9622,1531,852.9622,1527,848.9622" style="stroke:#181818;stroke-width:1.0;"/><text fill="#000000" font-family="sans-serif" font-size="13" font-weight="bold" lengthAdjust="spacing" textLength="14" x="1533" y="830.1532">20</text><text fill="#000000" font-family="sans-serif" font-size="13" lengthAdjust="spacing" textLength="63" x="1551" y="830.1532">regression</text><line style="stroke:#181818;stroke-width:1.0;" x1="1521" x2="1568" y1="895.6682" y2="895.6682"/><line style="stroke:#181818;stroke-width:1.0;" x1="1568" x2="1568" y1="895.6682" y2="908.6682"/><line style="stroke:#181818;stroke-width:1.0;" x1="1527" x2="1568" y1="908.6682" y2="908.6682"/><polygon fill="#181818" points="1537,904.6682,1527,908.6682,1537,912.6682,1533,908.6682" style="stroke:#181818;stroke-width:1.0;"/><text fill="#000000" font-family="sans-serif" font-size="13" font-weight="bold" lengthAdjust="spacing" textLength="14" x="1533" y="889.8592">21</text><text fill="#000000" font-family="sans-serif" font-size="13" lengthAdjust="spacing" textLength="498" x="1551" y="889.8592">createSimpleRegressionModel(regressionParameters, significanceValue, regression)</text><line style="stroke:#181818;stroke-width:1.0;stroke-dasharray:2.0,2.0;" x1="1526" x2="1568" y1="950.3742" y2="950.3742"/><line style="stroke:#181818;stroke-width:1.0;stroke-dasharray:2.0,2.0;" x1="1568" x2="1568" y1="950.3742" y2="963.3742"/><line style="stroke:#181818;stroke-width:1.0;stroke-dasharray:2.0,2.0;" x1="1521" x2="1568" y1="963.3742" y2="963.3742"/><polygon fill="#181818" points="1531,959.3742,1521,963.3742,1531,967.3742,1527,963.3742" style="stroke:#181818;stroke-width:1.0;"/><text fill="#000000" font-family="sans-serif" font-size="13" font-weight="bold" lengthAdjust="spacing" textLength="14" x="1533" y="944.5652">22</text><text fill="#000000" font-family="sans-serif" font-size="13" lengthAdjust="spacing" textLength="101" x="1551" y="944.5652">regressionModel</text><line style="stroke:#000000;stroke-width:1.0;stroke-dasharray:2.0,2.0;" x1="1454.5" x2="2061" y1="967.3742" y2="967.3742"/><line style="stroke:#181818;stroke-width:1.0;" x1="1521" x2="1568" y1="1012.0802" y2="1012.0802"/><line style="stroke:#181818;stroke-width:1.0;" x1="1568" x2="1568" y1="1012.0802" y2="1025.0802"/><line style="stroke:#181818;stroke-width:1.0;" x1="1527" x2="1568" y1="1025.0802" y2="1025.0802"/><polygon fill="#181818" points="1537,1021.0802,1527,1025.0802,1537,1029.0802,1533,1025.0802" style="stroke:#181818;stroke-width:1.0;"/><text fill="#000000" font-family="sans-serif" font-size="13" font-weight="bold" lengthAdjust="spacing" textLength="14" x="1533" y="1006.2712">23</text><text fill="#000000" font-family="sans-serif" font-size="13" lengthAdjust="spacing" textLength="438" x="1551" y="1006.2712">createMultipleRegressionModel(regressionParameters, significanceValue)</text><line style="stroke:#181818;stroke-width:1.0;stroke-dasharray:2.0,2.0;" x1="1526" x2="1568" y1="1066.7862" y2="1066.7862"/><line style="stroke:#181818;stroke-width:1.0;stroke-dasharray:2.0,2.0;" x1="1568" x2="1568" y1="1066.7862" y2="1079.7862"/><line style="stroke:#181818;stroke-width:1.0;stroke-dasharray:2.0,2.0;" x1="1521" x2="1568" y1="1079.7862" y2="1079.7862"/><polygon fill="#181818" points="1531,1075.7862,1521,1079.7862,1531,1083.7862,1527,1079.7862" style="stroke:#181818;stroke-width:1.0;"/><text fill="#000000" font-family="sans-serif" font-size="13" font-weight="bold" lengthAdjust="spacing" textLength="14" x="1533" y="1060.9772">24</text><text fill="#000000" font-family="sans-serif" font-size="13" lengthAdjust="spacing" textLength="101" x="1551" y="1060.9772">regressionModel</text><polygon fill="#181818" points="1006,1109.4923,996,1113.4923,1006,1117.4923,1002,1113.4923" style="stroke:#181818;stroke-width:1.0;"/><line style="stroke:#181818;stroke-width:1.0;stroke-dasharray:2.0,2.0;" x1="1000" x2="1515" y1="1113.4923" y2="1113.4923"/><text fill="#000000" font-family="sans-serif" font-size="13" font-weight="bold" lengthAdjust="spacing" textLength="14" x="1012" y="1107.6833">25</text><text fill="#000000" font-family="sans-serif" font-size="13" lengthAdjust="spacing" textLength="101" x="1030" y="1107.6833">regressionModel</text><polygon fill="#181818" points="2409.5,1166.1983,2419.5,1170.1983,2409.5,1174.1983,2413.5,1170.1983" style="stroke:#181818;stroke-width:1.0;"/><line style="stroke:#181818;stroke-width:1.0;" x1="995" x2="2415.5" y1="1170.1983" y2="1170.1983"/><text fill="#000000" font-family="sans-serif" font-size="13" font-weight="bold" lengthAdjust="spacing" textLength="14" x="1002" y="1164.3893">26</text><text fill="#000000" font-family="sans-serif" font-size="13" lengthAdjust="spacing" textLength="151" x="1020" y="1164.3893">generateAnalysisReport()</text><polygon fill="#181818" points="1006,1218.6103,996,1222.6103,1006,1226.6103,1002,1222.6103" style="stroke:#181818;stroke-width:1.0;"/><line style="stroke:#181818;stroke-width:1.0;stroke-dasharray:2.0,2.0;" x1="1000" x2="2425.5" y1="1222.6103" y2="1222.6103"/><text fill="#000000" font-family="sans-serif" font-size="13" font-weight="bold" lengthAdjust="spacing" textLength="14" x="1012" y="1216.8013">27</text><text fill="#000000" font-family="sans-serif" font-size="13" lengthAdjust="spacing" textLength="88" x="1030" y="1216.8013">analysisReport</text><path d="M2436,1183.1983 L2436,1246.1983 L2671,1246.1983 L2671,1193.1983 L2661,1183.1983 L2436,1183.1983 " fill="#FAFAFA" style="stroke:#181818;stroke-width:0.5;"/><path d="M2661,1183.1983 L2661,1193.1983 L2671,1193.1983 L2661,1183.1983 " fill="#FAFAFA" style="stroke:#181818;stroke-width:0.5;"/><text fill="#000000" font-family="sans-serif" font-size="13" lengthAdjust="spacing" textLength="207" x="2442" y="1202.0953">The analysis report will be different</text><text fill="#000000" font-family="sans-serif" font-size="13" lengthAdjust="spacing" textLength="214" x="2442" y="1219.8013">depending on the regression model</text><text fill="#000000" font-family="sans-serif" font-size="13" lengthAdjust="spacing" textLength="196" x="2442" y="1237.5073">(Simple Linear or Multiple Linear)</text><polygon fill="#181818" points="2579.5,1271.0223,2589.5,1275.0223,2579.5,1279.0223,2583.5,1275.0223" style="stroke:#181818;stroke-width:1.0;"/><line style="stroke:#181818;stroke-width:1.0;" x1="995" x2="2585.5" y1="1275.0223" y2="1275.0223"/><text fill="#000000" font-family="sans-serif" font-size="13" font-weight="bold" lengthAdjust="spacing" textLength="14" x="1002" y="1269.2133">28</text><text fill="#000000" font-family="sans-serif" font-size="13" lengthAdjust="spacing" textLength="242" x="1020" y="1269.2133">toDTO(regressionModel, analysisReport)</text><polygon fill="#181818" points="2871.5,1302.7284,2881.5,1306.7284,2871.5,1310.7284,2875.5,1306.7284" style="stroke:#181818;stroke-width:1.0;"/><line style="stroke:#181818;stroke-width:1.0;" x1="2601.5" x2="2877.5" y1="1306.7284" y2="1306.7284"/><text fill="#000000" font-family="sans-serif" font-size="13" font-weight="bold" lengthAdjust="spacing" textLength="14" x="2608.5" y="1300.9194">29</text><text fill="#000000" font-family="sans-serif" font-size="13" lengthAdjust="spacing" textLength="240" x="2626.5" y="1300.9194">create(regressionModel, analysisReport)</text><rect fill="#E3E3E3" height="33.0679" rx="2.5" ry="2.5" style="stroke:#181818;stroke-width:0.5;" width="158" x="2883.5" y="1283.0223"/><text fill="#000000" font-family="sans-serif" font-size="14" lengthAdjust="spacing" textLength="144" x="2890.5" y="1304.9883">:RegressionModelDto</text><polygon fill="#181818" points="1006,1346.7963,996,1350.7963,1006,1354.7963,1002,1350.7963" style="stroke:#181818;stroke-width:1.0;"/><line style="stroke:#181818;stroke-width:1.0;stroke-dasharray:2.0,2.0;" x1="1000" x2="2595.5" y1="1350.7963" y2="1350.7963"/><text fill="#000000" font-family="sans-serif" font-size="13" font-weight="bold" lengthAdjust="spacing" textLength="14" x="1012" y="1344.9873">30</text><text fill="#000000" font-family="sans-serif" font-size="13" lengthAdjust="spacing" textLength="123" x="1030" y="1344.9873">regressionModelDto</text><polygon fill="#181818" points="512,1378.5023,502,1382.5023,512,1386.5023,508,1382.5023" style="stroke:#181818;stroke-width:1.0;"/><line style="stroke:#181818;stroke-width:1.0;stroke-dasharray:2.0,2.0;" x1="506" x2="989" y1="1382.5023" y2="1382.5023"/><text fill="#000000" font-family="sans-serif" font-size="13" font-weight="bold" lengthAdjust="spacing" textLength="14" x="518" y="1376.6933">31</text><text fill="#000000" font-family="sans-serif" font-size="13" lengthAdjust="spacing" textLength="123" x="536" y="1376.6933">regressionModelDto</text><polygon fill="#181818" points="84,1410.2083,74,1414.2083,84,1418.2083,80,1414.2083" style="stroke:#181818;stroke-width:1.0;"/><line style="stroke:#181818;stroke-width:1.0;stroke-dasharray:2.0,2.0;" x1="78" x2="495" y1="1414.2083" y2="1414.2083"/><text fill="#000000" font-family="sans-serif" font-size="13" font-weight="bold" lengthAdjust="spacing" textLength="14" x="90" y="1408.3993">32</text><text fill="#000000" font-family="sans-serif" font-size="13" lengthAdjust="spacing" textLength="371" x="108" y="1408.3993">shows selected regression model and all the required statistics</text><!--SRC=[rLVDRjim3BxxAOHUbXJj2-Gme6Wk1HAqgDET1WogpIH27ScJb7O5-l2Z9DknPFcdFnWm7O9MfZwI7ocAL4-CbrJI0pa8BhAz50SWMXuXKSsNacPFT0UfVYs0ICWqvRkYBQ3sD1SlZE_8bXOAaeGUjU37moF89FcsPpcGhH3wKVn9QAQ596Sf_W9PKuwuyenGHT9rWc2QPQoaN9EpnHMdnQk29I3amusLURWPaBaMN4jH51NUzUP-5KWRCNU2AIkp_7KLYDn3AHH3unWuaMRZDMN6Q_JBFo9R9nO_UGVWRdMryKy8cOCyuUAXMt_7dWlsGgKx2KenmTSYXyBgzNOgsxszZglUrpKjouewz-Um-58BH-7cDi65OMNFL8C9Oq9mfMjo-Hq3HXOezQI85eIwO16z1vARY943pS5ADySnmdR3B3oC42QEv-S8aqb02UyhVaOz2ym_yQ8SBjjkGG9QVA88CniDLgW_RsnHK60U4y4T89eJMj1om0aZG0UqttXQQCAsXE6l8eeTIhmw1UD0PGla91xtgANENZJG80Vzg5V4dtf5_3B4nLHvvwA0m7CVtVEZ3Zt2AxRZRCiooZCWpxGuWh4-4rnXSP0Vi1r3RBY8OuyRtiqnnDo1hij3ggbc2jDVpRAzK13UhmiIRj_LhCqxIXeBR4tgV3RBMe2MO4LoXaI0kwOCwFJqcZeNbJ3Bg4JDaKBdBBdXIXjgP_DUY4PHh5hsdZ8hflNIyR0WxTBQYz9AbtTfhzmsvTdv6HJSAUxQsZxeduM_R08RbFufJWthgBm8RF-w5FBS3P-aGSz3aquao8XTKvYOhDwIShhMa_MrTFNUcBUtjtVVO5inPZ4pBhpYzSFKhWjyC4v7qzNwCtUxVeLyHDVV3KQloYld3Ctp9TLq8rBxZfsmeZxD1u6dsHr6CaoSmODJmZWQpYWHhWK9MNXdU4-2_uAfTTEcV9Oki9tzLvEvFXQQVPpE_up2MBiqMhNwzNz9mGgOjyMBWqJGkXaoDLVgsKWX2gUDfF_DznMsdAQUndu8Bb2XPBkz7epB1hl36j9s4rAJ5rOKvB4rAOn4jiIWcSaM6vEWJpwCviNCbGgoSeq_3hvrkbTRyw5KiLucoMZJCu7sEjPkiaEYjS31RIR3fjRdVoJWrPZOwqAbpDoepMrhXFkOsZPYxot1gNICho6h7KtrY341kuKRx-sxCvqRkY3lP9ARwp0vNPhzFZA9KgePH9BuWDJw3sVllm00]--></g></svg>