<?xml version="1.0" encoding="us-ascii" standalone="no"?><svg xmlns="http://www.w3.org/2000/svg" xmlns:xlink="http://www.w3.org/1999/xlink" contentStyleType="text/css" height="1069px" preserveAspectRatio="none" style="width:2619px;height:1069px;background:#FFFFFF;" version="1.1" viewBox="0 0 2619 1069" width="2619px" zoomAndPan="magnify"><defs/><g><rect fill="#FFFFFF" height="874.0624" style="stroke:#181818;stroke-width:1.0;" width="10" x="68" y="94.0679"/><rect fill="#FFFFFF" height="75.7739" style="stroke:#181818;stroke-width:1.0;" width="10" x="491" y="117.7739"/><rect fill="#FFFFFF" height="58.412" style="stroke:#181818;stroke-width:1.0;" width="10" x="491" y="225.2539"/><rect fill="#FFFFFF" height="38.706" style="stroke:#181818;stroke-width:1.0;" width="10" x="491" y="315.3719"/><rect fill="#FFFFFF" height="582.3464" style="stroke:#181818;stroke-width:1.0;" width="10" x="491" y="385.784"/><rect fill="#FFFFFF" height="518.9344" style="stroke:#181818;stroke-width:1.0;" width="10" x="985" y="417.49"/><rect fill="#FFFFFF" height="80.7561" style="stroke:#181818;stroke-width:1.0;" width="10" x="1511" y="449.196"/><rect fill="#FFFFFF" height="80.7561" style="stroke:#181818;stroke-width:1.0;" width="10" x="1511" y="586.6582"/><rect fill="#FFFFFF" height="52.412" style="stroke:#181818;stroke-width:1.0;" width="10" x="1993.5" y="724.1203"/><rect fill="#FFFFFF" height="75.7739" style="stroke:#181818;stroke-width:1.0;" width="10" x="2163.5" y="828.9444"/><rect fill="none" height="83.118" style="stroke:#000000;stroke-width:1.5;" width="557" x="10" y="240.2539"/><line style="stroke:#181818;stroke-width:0.5;stroke-dasharray:5.0,5.0;" x1="73" x2="73" y1="84.0679" y2="986.1304"/><line style="stroke:#181818;stroke-width:0.5;stroke-dasharray:5.0,5.0;" x1="496" x2="496" y1="84.0679" y2="986.1304"/><line style="stroke:#181818;stroke-width:0.5;stroke-dasharray:5.0,5.0;" x1="990" x2="990" y1="157.8079" y2="986.1304"/><line style="stroke:#181818;stroke-width:0.5;stroke-dasharray:5.0,5.0;" x1="1515.5" x2="1515.5" y1="84.0679" y2="986.1304"/><line style="stroke:#181818;stroke-width:0.5;stroke-dasharray:5.0,5.0;" x1="1627.5" x2="1627.5" y1="84.0679" y2="986.1304"/><line style="stroke:#181818;stroke-width:0.5;stroke-dasharray:5.0,5.0;" x1="1737.5" x2="1737.5" y1="84.0679" y2="986.1304"/><line style="stroke:#181818;stroke-width:0.5;stroke-dasharray:5.0,5.0;" x1="1859.5" x2="1859.5" y1="84.0679" y2="986.1304"/><line style="stroke:#181818;stroke-width:0.5;stroke-dasharray:5.0,5.0;" x1="1998.5" x2="1998.5" y1="84.0679" y2="986.1304"/><line style="stroke:#181818;stroke-width:0.5;stroke-dasharray:5.0,5.0;" x1="2168.5" x2="2168.5" y1="84.0679" y2="986.1304"/><line style="stroke:#181818;stroke-width:0.5;stroke-dasharray:5.0,5.0;" x1="2534.5" x2="2534.5" y1="868.9784" y2="986.1304"/><text fill="#000000" font-family="sans-serif" font-size="14" lengthAdjust="spacing" textLength="100" x="20" y="79.9659">Store Manager</text><ellipse cx="73" cy="13.5" fill="#E3E3E3" rx="8" ry="8" style="stroke:#181818;stroke-width:0.5;"/><path d="M73,21.5 L73,48.5 M60,29.5 L86,29.5 M73,48.5 L60,63.5 M73,48.5 L86,63.5 " fill="none" style="stroke:#181818;stroke-width:0.5;"/><text fill="#000000" font-family="sans-serif" font-size="14" lengthAdjust="spacing" textLength="100" x="20" y="1000.0963">Store Manager</text><ellipse cx="73" cy="1012.6983" fill="#E3E3E3" rx="8" ry="8" style="stroke:#181818;stroke-width:0.5;"/><path d="M73,1020.6983 L73,1047.6983 M60,1028.6983 L86,1028.6983 M73,1047.6983 L60,1062.6983 M73,1047.6983 L86,1062.6983 " fill="none" style="stroke:#181818;stroke-width:0.5;"/><rect fill="#E3E3E3" height="33.0679" rx="2.5" ry="2.5" style="stroke:#181818;stroke-width:0.5;" width="122" x="435" y="50"/><text fill="#000000" font-family="sans-serif" font-size="14" lengthAdjust="spacing" textLength="108" x="442" y="71.9659">:AnalyseDealsUI</text><rect fill="#E3E3E3" height="33.0679" rx="2.5" ry="2.5" style="stroke:#181818;stroke-width:0.5;" width="122" x="435" y="985.1304"/><text fill="#000000" font-family="sans-serif" font-size="14" lengthAdjust="spacing" textLength="108" x="442" y="1007.0963">:AnalyseDealsUI</text><rect fill="#E3E3E3" height="33.0679" rx="2.5" ry="2.5" style="stroke:#181818;stroke-width:0.5;" width="174" x="903" y="985.1304"/><text fill="#000000" font-family="sans-serif" font-size="14" lengthAdjust="spacing" textLength="160" x="910" y="1007.0963">:AnalyseDealsController</text><rect fill="#E3E3E3" height="33.0679" rx="2.5" ry="2.5" style="stroke:#181818;stroke-width:0.5;" width="103" x="1464.5" y="50"/><text fill="#000000" font-family="sans-serif" font-size="14" lengthAdjust="spacing" textLength="89" x="1471.5" y="71.9659">:DealAnalysis</text><rect fill="#E3E3E3" height="33.0679" rx="2.5" ry="2.5" style="stroke:#181818;stroke-width:0.5;" width="103" x="1464.5" y="985.1304"/><text fill="#000000" font-family="sans-serif" font-size="14" lengthAdjust="spacing" textLength="89" x="1471.5" y="1007.0963">:DealAnalysis</text><rect fill="#E3E3E3" height="33.0679" rx="2.5" ry="2.5" style="stroke:#181818;stroke-width:0.5;" width="101" x="1577.5" y="50"/><text fill="#000000" font-family="sans-serif" font-size="14" lengthAdjust="spacing" textLength="87" x="1584.5" y="71.9659">:Repositories</text><rect fill="#E3E3E3" height="33.0679" rx="2.5" ry="2.5" style="stroke:#181818;stroke-width:0.5;" width="101" x="1577.5" y="985.1304"/><text fill="#000000" font-family="sans-serif" font-size="14" lengthAdjust="spacing" textLength="87" x="1584.5" y="1007.0963">:Repositories</text><rect fill="#E3E3E3" height="52.1358" rx="2.5" ry="2.5" style="stroke:#181818;stroke-width:0.5;" width="98" x="1688.5" y="30.9321"/><text fill="#000000" font-family="sans-serif" font-size="14" lengthAdjust="spacing" textLength="84" x="1695.5" y="52.898">repositories:</text><text fill="#000000" font-family="sans-serif" font-size="14" lengthAdjust="spacing" textLength="83" x="1696" y="71.9659">Repositories</text><rect fill="#E3E3E3" height="52.1358" rx="2.5" ry="2.5" style="stroke:#181818;stroke-width:0.5;" width="98" x="1688.5" y="985.1304"/><text fill="#000000" font-family="sans-serif" font-size="14" lengthAdjust="spacing" textLength="84" x="1695.5" y="1007.0963">repositories:</text><text fill="#000000" font-family="sans-serif" font-size="14" lengthAdjust="spacing" textLength="83" x="1696" y="1026.1642">Repositories</text><rect fill="#E3E3E3" height="52.1358" rx="2.5" ry="2.5" style="stroke:#181818;stroke-width:0.5;" width="126" x="1796.5" y="30.9321"/><text fill="#000000" font-family="sans-serif" font-size="14" lengthAdjust="spacing" textLength="112" x="1803.5" y="52.898">orderRepository:</text><text fill="#000000" font-family="sans-serif" font-size="14" lengthAdjust="spacing" textLength="111" x="1804" y="71.9659">OrderRepository</text><rect fill="#E3E3E3" height="52.1358" rx="2.5" ry="2.5" style="stroke:#181818;stroke-width:0.5;" width="126" x="1796.5" y="985.1304"/><text fill="#000000" font-family="sans-serif" font-size="14" lengthAdjust="spacing" textLength="112" x="1803.5" y="1007.0963">orderRepository:</text><text fill="#000000" font-family="sans-serif" font-size="14" lengthAdjust="spacing" textLength="111" x="1804" y="1026.1642">OrderRepository</text><rect fill="#E3E3E3" height="52.1358" rx="2.5" ry="2.5" style="stroke:#181818;stroke-width:0.5;" width="132" x="1932.5" y="30.9321"/><text fill="#000000" font-family="sans-serif" font-size="14" lengthAdjust="spacing" textLength="118" x="1939.5" y="52.898">regressionModel:</text><text fill="#000000" font-family="sans-serif" font-size="14" lengthAdjust="spacing" textLength="117" x="1940" y="71.9659">RegressionModel</text><rect fill="#E3E3E3" height="52.1358" rx="2.5" ry="2.5" style="stroke:#181818;stroke-width:0.5;" width="132" x="1932.5" y="985.1304"/><text fill="#000000" font-family="sans-serif" font-size="14" lengthAdjust="spacing" textLength="118" x="1939.5" y="1007.0963">regressionModel:</text><text fill="#000000" font-family="sans-serif" font-size="14" lengthAdjust="spacing" textLength="117" x="1940" y="1026.1642">RegressionModel</text><rect fill="#E3E3E3" height="33.0679" rx="2.5" ry="2.5" style="stroke:#181818;stroke-width:0.5;" width="188" x="2074.5" y="50"/><text fill="#000000" font-family="sans-serif" font-size="14" lengthAdjust="spacing" textLength="174" x="2081.5" y="71.9659">:RegressionModelMapper</text><rect fill="#E3E3E3" height="33.0679" rx="2.5" ry="2.5" style="stroke:#181818;stroke-width:0.5;" width="188" x="2074.5" y="985.1304"/><text fill="#000000" font-family="sans-serif" font-size="14" lengthAdjust="spacing" textLength="174" x="2081.5" y="1007.0963">:RegressionModelMapper</text><rect fill="#E3E3E3" height="33.0679" rx="2.5" ry="2.5" style="stroke:#181818;stroke-width:0.5;" width="158" x="2455.5" y="985.1304"/><text fill="#000000" font-family="sans-serif" font-size="14" lengthAdjust="spacing" textLength="144" x="2462.5" y="1007.0963">:RegressionModelDto</text><rect fill="#FFFFFF" height="874.0624" style="stroke:#181818;stroke-width:1.0;" width="10" x="68" y="94.0679"/><rect fill="#FFFFFF" height="75.7739" style="stroke:#181818;stroke-width:1.0;" width="10" x="491" y="117.7739"/><rect fill="#FFFFFF" height="58.412" style="stroke:#181818;stroke-width:1.0;" width="10" x="491" y="225.2539"/><rect fill="#FFFFFF" height="38.706" style="stroke:#181818;stroke-width:1.0;" width="10" x="491" y="315.3719"/><rect fill="#FFFFFF" height="582.3464" style="stroke:#181818;stroke-width:1.0;" width="10" x="491" y="385.784"/><rect fill="#FFFFFF" height="518.9344" style="stroke:#181818;stroke-width:1.0;" width="10" x="985" y="417.49"/><rect fill="#FFFFFF" height="80.7561" style="stroke:#181818;stroke-width:1.0;" width="10" x="1511" y="449.196"/><rect fill="#FFFFFF" height="80.7561" style="stroke:#181818;stroke-width:1.0;" width="10" x="1511" y="586.6582"/><rect fill="#FFFFFF" height="52.412" style="stroke:#181818;stroke-width:1.0;" width="10" x="1993.5" y="724.1203"/><rect fill="#FFFFFF" height="75.7739" style="stroke:#181818;stroke-width:1.0;" width="10" x="2163.5" y="828.9444"/><polygon fill="#181818" points="479,113.7739,489,117.7739,479,121.7739,483,117.7739" style="stroke:#181818;stroke-width:1.0;"/><line style="stroke:#181818;stroke-width:1.0;" x1="78" x2="485" y1="117.7739" y2="117.7739"/><text fill="#000000" font-family="sans-serif" font-size="13" font-weight="bold" lengthAdjust="spacing" textLength="7" x="85" y="111.9649">1</text><text fill="#000000" font-family="sans-serif" font-size="13" lengthAdjust="spacing" textLength="184" x="96" y="111.9649">asks to analyse the deals made</text><polygon fill="#181818" points="891,145.4799,901,149.4799,891,153.4799,895,149.4799" style="stroke:#181818;stroke-width:1.0;"/><line style="stroke:#181818;stroke-width:1.0;" x1="501" x2="897" y1="149.4799" y2="149.4799"/><text fill="#000000" font-family="sans-serif" font-size="13" font-weight="bold" lengthAdjust="spacing" textLength="7" x="508" y="143.6709">2</text><text fill="#000000" font-family="sans-serif" font-size="13" lengthAdjust="spacing" textLength="37" x="519" y="143.6709">create</text><rect fill="#E3E3E3" height="33.0679" rx="2.5" ry="2.5" style="stroke:#181818;stroke-width:0.5;" width="174" x="903" y="125.7739"/><text fill="#000000" font-family="sans-serif" font-size="14" lengthAdjust="spacing" textLength="160" x="910" y="147.7399">:AnalyseDealsController</text><polygon fill="#181818" points="89,189.5479,79,193.5479,89,197.5479,85,193.5479" style="stroke:#181818;stroke-width:1.0;"/><line style="stroke:#181818;stroke-width:1.0;stroke-dasharray:2.0,2.0;" x1="83" x2="495" y1="193.5479" y2="193.5479"/><text fill="#000000" font-family="sans-serif" font-size="13" font-weight="bold" lengthAdjust="spacing" textLength="7" x="95" y="187.7389">3</text><text fill="#000000" font-family="sans-serif" font-size="13" lengthAdjust="spacing" textLength="362" x="106" y="187.7389">shows the different regression models and asks to select one</text><polygon fill="#181818" points="479,221.2539,489,225.2539,479,229.2539,483,225.2539" style="stroke:#181818;stroke-width:1.0;"/><line style="stroke:#181818;stroke-width:1.0;" x1="78" x2="485" y1="225.2539" y2="225.2539"/><text fill="#000000" font-family="sans-serif" font-size="13" font-weight="bold" lengthAdjust="spacing" textLength="7" x="85" y="219.4449">4</text><text fill="#000000" font-family="sans-serif" font-size="13" lengthAdjust="spacing" textLength="157" x="96" y="219.4449">selects a regression model</text><path d="M10,240.2539 L73,240.2539 L73,249.9599 L63,259.9599 L10,259.9599 L10,240.2539 " fill="#EEEEEE" style="stroke:#000000;stroke-width:1.5;"/><rect fill="none" height="83.118" style="stroke:#000000;stroke-width:1.5;" width="557" x="10" y="240.2539"/><text fill="#000000" font-family="sans-serif" font-size="13" font-weight="bold" lengthAdjust="spacing" textLength="18" x="25" y="255.1509">alt</text><text fill="#000000" font-family="sans-serif" font-size="11" font-weight="bold" lengthAdjust="spacing" textLength="172" x="88" y="254.0128">[if it is simple linear regression]</text><polygon fill="#181818" points="89,279.6659,79,283.6659,89,287.6659,85,283.6659" style="stroke:#181818;stroke-width:1.0;"/><line style="stroke:#181818;stroke-width:1.0;stroke-dasharray:2.0,2.0;" x1="83" x2="495" y1="283.6659" y2="283.6659"/><text fill="#000000" font-family="sans-serif" font-size="13" font-weight="bold" lengthAdjust="spacing" textLength="7" x="95" y="277.8569">5</text><text fill="#000000" font-family="sans-serif" font-size="13" lengthAdjust="spacing" textLength="310" x="106" y="277.8569">shows regression parameters and asks to select one</text><polygon fill="#181818" points="479,311.3719,489,315.3719,479,319.3719,483,315.3719" style="stroke:#181818;stroke-width:1.0;"/><line style="stroke:#181818;stroke-width:1.0;" x1="78" x2="485" y1="315.3719" y2="315.3719"/><text fill="#000000" font-family="sans-serif" font-size="13" font-weight="bold" lengthAdjust="spacing" textLength="7" x="85" y="309.5629">6</text><text fill="#000000" font-family="sans-serif" font-size="13" lengthAdjust="spacing" textLength="195" x="96" y="309.5629">selects the regression parameter</text><polygon fill="#181818" points="89,350.0779,79,354.0779,89,358.0779,85,354.0779" style="stroke:#181818;stroke-width:1.0;"/><line style="stroke:#181818;stroke-width:1.0;stroke-dasharray:2.0,2.0;" x1="83" x2="495" y1="354.0779" y2="354.0779"/><text fill="#000000" font-family="sans-serif" font-size="13" font-weight="bold" lengthAdjust="spacing" textLength="7" x="95" y="348.2689">7</text><text fill="#000000" font-family="sans-serif" font-size="13" lengthAdjust="spacing" textLength="226" x="106" y="348.2689">asks the significance value to consider</text><polygon fill="#181818" points="479,381.784,489,385.784,479,389.784,483,385.784" style="stroke:#181818;stroke-width:1.0;"/><line style="stroke:#181818;stroke-width:1.0;" x1="78" x2="485" y1="385.784" y2="385.784"/><text fill="#000000" font-family="sans-serif" font-size="13" font-weight="bold" lengthAdjust="spacing" textLength="7" x="85" y="379.975">8</text><text fill="#000000" font-family="sans-serif" font-size="13" lengthAdjust="spacing" textLength="168" x="96" y="379.975">enters the significance value</text><polygon fill="#181818" points="973,413.49,983,417.49,973,421.49,977,417.49" style="stroke:#181818;stroke-width:1.0;"/><line style="stroke:#181818;stroke-width:1.0;" x1="501" x2="979" y1="417.49" y2="417.49"/><text fill="#000000" font-family="sans-serif" font-size="13" font-weight="bold" lengthAdjust="spacing" textLength="7" x="508" y="411.681">9</text><text fill="#000000" font-family="sans-serif" font-size="13" lengthAdjust="spacing" textLength="454" x="519" y="411.681">getAnalysisStatistics(chosenRegressionModel, chosenRegressionParameter)</text><polygon fill="#181818" points="1499,445.196,1509,449.196,1499,453.196,1503,449.196" style="stroke:#181818;stroke-width:1.0;"/><line style="stroke:#181818;stroke-width:1.0;" x1="995" x2="1505" y1="449.196" y2="449.196"/><text fill="#000000" font-family="sans-serif" font-size="13" font-weight="bold" lengthAdjust="spacing" textLength="14" x="1002" y="443.387">10</text><text fill="#000000" font-family="sans-serif" font-size="13" lengthAdjust="spacing" textLength="335" x="1020" y="443.387">getRegressionParameters(chosenRegressionParameter)</text><rect fill="none" height="44.0501" style="stroke:#000000;stroke-width:1.5;" width="162" x="1461.5" y="457.196"/><path d="M1461.5,457.196 L1525.5,457.196 L1525.5,466.196 L1515.5,476.196 L1461.5,476.196 L1461.5,457.196 " fill="#EEEEEE" style="stroke:#000000;stroke-width:2.0;"/><text fill="#000000" font-family="sans-serif" font-size="13" font-weight="bold" lengthAdjust="spacing" textLength="19" x="1474.5" y="473.093">ref</text><text fill="#000000" font-family="sans-serif" font-size="12" lengthAdjust="spacing" textLength="154" x="1465.5" y="493.0241">Get Regression Parameters</text><polygon fill="#181818" points="1006,525.9521,996,529.9521,1006,533.9521,1002,529.9521" style="stroke:#181818;stroke-width:1.0;"/><line style="stroke:#181818;stroke-width:1.0;stroke-dasharray:2.0,2.0;" x1="1000" x2="1515" y1="529.9521" y2="529.9521"/><text fill="#000000" font-family="sans-serif" font-size="13" font-weight="bold" lengthAdjust="spacing" textLength="14" x="1012" y="524.1431">11</text><text fill="#000000" font-family="sans-serif" font-size="13" lengthAdjust="spacing" textLength="132" x="1030" y="524.1431">regressionParameters</text><polygon fill="#181818" points="1499,582.6582,1509,586.6582,1499,590.6582,1503,586.6582" style="stroke:#181818;stroke-width:1.0;"/><line style="stroke:#181818;stroke-width:1.0;" x1="995" x2="1505" y1="586.6582" y2="586.6582"/><text fill="#000000" font-family="sans-serif" font-size="13" font-weight="bold" lengthAdjust="spacing" textLength="14" x="1002" y="580.8492">12</text><text fill="#000000" font-family="sans-serif" font-size="13" lengthAdjust="spacing" textLength="479" x="1020" y="580.8492">getRegressionModel(regressionParameters, significanceValue, isRegressionSLM)</text><rect fill="none" height="44.0501" style="stroke:#000000;stroke-width:1.5;" width="131" x="1461.5" y="594.6582"/><path d="M1461.5,594.6582 L1525.5,594.6582 L1525.5,603.6582 L1515.5,613.6582 L1461.5,613.6582 L1461.5,594.6582 " fill="#EEEEEE" style="stroke:#000000;stroke-width:2.0;"/><text fill="#000000" font-family="sans-serif" font-size="13" font-weight="bold" lengthAdjust="spacing" textLength="19" x="1474.5" y="610.5552">ref</text><text fill="#000000" font-family="sans-serif" font-size="12" lengthAdjust="spacing" textLength="123" x="1465.5" y="630.4863">Get Regression Model</text><polygon fill="#181818" points="1006,663.4143,996,667.4143,1006,671.4143,1002,667.4143" style="stroke:#181818;stroke-width:1.0;"/><line style="stroke:#181818;stroke-width:1.0;stroke-dasharray:2.0,2.0;" x1="1000" x2="1515" y1="667.4143" y2="667.4143"/><text fill="#000000" font-family="sans-serif" font-size="13" font-weight="bold" lengthAdjust="spacing" textLength="14" x="1012" y="661.6053">13</text><text fill="#000000" font-family="sans-serif" font-size="13" lengthAdjust="spacing" textLength="101" x="1030" y="661.6053">regressionModel</text><polygon fill="#181818" points="1981.5,720.1203,1991.5,724.1203,1981.5,728.1203,1985.5,724.1203" style="stroke:#181818;stroke-width:1.0;"/><line style="stroke:#181818;stroke-width:1.0;" x1="995" x2="1987.5" y1="724.1203" y2="724.1203"/><text fill="#000000" font-family="sans-serif" font-size="13" font-weight="bold" lengthAdjust="spacing" textLength="14" x="1002" y="718.3113">14</text><text fill="#000000" font-family="sans-serif" font-size="13" lengthAdjust="spacing" textLength="151" x="1020" y="718.3113">generateAnalysisReport()</text><polygon fill="#181818" points="1006,772.5324,996,776.5324,1006,780.5324,1002,776.5324" style="stroke:#181818;stroke-width:1.0;"/><line style="stroke:#181818;stroke-width:1.0;stroke-dasharray:2.0,2.0;" x1="1000" x2="1997.5" y1="776.5324" y2="776.5324"/><text fill="#000000" font-family="sans-serif" font-size="13" font-weight="bold" lengthAdjust="spacing" textLength="14" x="1012" y="770.7234">15</text><text fill="#000000" font-family="sans-serif" font-size="13" lengthAdjust="spacing" textLength="88" x="1030" y="770.7234">analysisReport</text><path d="M2008,737.1203 L2008,800.1203 L2243,800.1203 L2243,747.1203 L2233,737.1203 L2008,737.1203 " fill="#FAFAFA" style="stroke:#181818;stroke-width:0.5;"/><path d="M2233,737.1203 L2233,747.1203 L2243,747.1203 L2233,737.1203 " fill="#FAFAFA" style="stroke:#181818;stroke-width:0.5;"/><text fill="#000000" font-family="sans-serif" font-size="13" lengthAdjust="spacing" textLength="207" x="2014" y="756.0173">The analysis report will be different</text><text fill="#000000" font-family="sans-serif" font-size="13" lengthAdjust="spacing" textLength="214" x="2014" y="773.7234">depending on the regression model</text><text fill="#000000" font-family="sans-serif" font-size="13" lengthAdjust="spacing" textLength="196" x="2014" y="791.4294">(Simple Linear or Multiple Linear)</text><polygon fill="#181818" points="2151.5,824.9444,2161.5,828.9444,2151.5,832.9444,2155.5,828.9444" style="stroke:#181818;stroke-width:1.0;"/><line style="stroke:#181818;stroke-width:1.0;" x1="995" x2="2157.5" y1="828.9444" y2="828.9444"/><text fill="#000000" font-family="sans-serif" font-size="13" font-weight="bold" lengthAdjust="spacing" textLength="14" x="1002" y="823.1354">16</text><text fill="#000000" font-family="sans-serif" font-size="13" lengthAdjust="spacing" textLength="242" x="1020" y="823.1354">toDTO(regressionModel, analysisReport)</text><polygon fill="#181818" points="2443.5,856.6504,2453.5,860.6504,2443.5,864.6504,2447.5,860.6504" style="stroke:#181818;stroke-width:1.0;"/><line style="stroke:#181818;stroke-width:1.0;" x1="2173.5" x2="2449.5" y1="860.6504" y2="860.6504"/><text fill="#000000" font-family="sans-serif" font-size="13" font-weight="bold" lengthAdjust="spacing" textLength="14" x="2180.5" y="854.8414">17</text><text fill="#000000" font-family="sans-serif" font-size="13" lengthAdjust="spacing" textLength="240" x="2198.5" y="854.8414">create(regressionModel, analysisReport)</text><rect fill="#E3E3E3" height="33.0679" rx="2.5" ry="2.5" style="stroke:#181818;stroke-width:0.5;" width="158" x="2455.5" y="836.9444"/><text fill="#000000" font-family="sans-serif" font-size="14" lengthAdjust="spacing" textLength="144" x="2462.5" y="858.9103">:RegressionModelDto</text><polygon fill="#181818" points="1006,900.7183,996,904.7183,1006,908.7183,1002,904.7183" style="stroke:#181818;stroke-width:1.0;"/><line style="stroke:#181818;stroke-width:1.0;stroke-dasharray:2.0,2.0;" x1="1000" x2="2167.5" y1="904.7183" y2="904.7183"/><text fill="#000000" font-family="sans-serif" font-size="13" font-weight="bold" lengthAdjust="spacing" textLength="14" x="1012" y="898.9093">18</text><text fill="#000000" font-family="sans-serif" font-size="13" lengthAdjust="spacing" textLength="123" x="1030" y="898.9093">regressionModelDto</text><polygon fill="#181818" points="512,932.4243,502,936.4243,512,940.4243,508,936.4243" style="stroke:#181818;stroke-width:1.0;"/><line style="stroke:#181818;stroke-width:1.0;stroke-dasharray:2.0,2.0;" x1="506" x2="989" y1="936.4243" y2="936.4243"/><text fill="#000000" font-family="sans-serif" font-size="13" font-weight="bold" lengthAdjust="spacing" textLength="14" x="518" y="930.6153">19</text><text fill="#000000" font-family="sans-serif" font-size="13" lengthAdjust="spacing" textLength="123" x="536" y="930.6153">regressionModelDto</text><polygon fill="#181818" points="84,964.1304,74,968.1304,84,972.1304,80,968.1304" style="stroke:#181818;stroke-width:1.0;"/><line style="stroke:#181818;stroke-width:1.0;stroke-dasharray:2.0,2.0;" x1="78" x2="495" y1="968.1304" y2="968.1304"/><text fill="#000000" font-family="sans-serif" font-size="13" font-weight="bold" lengthAdjust="spacing" textLength="14" x="90" y="962.3214">20</text><text fill="#000000" font-family="sans-serif" font-size="13" lengthAdjust="spacing" textLength="371" x="108" y="962.3214">shows selected regression model and all the required statistics</text><!--SRC=[nLRRJjmm47tFLunuwOBW1_QX4WAfGje8H9O-LQfCCibQE7PgUw58V7p7yURYt1OGKlsm0cVcpEMCPyOySLanpKeebLJfJgiImUezHgRzKh7qYHMOs5U1e36rJ1QYBs1sB5ClN1QGCs4mYjZUAhal7r57qRSTpn1ofUoZ-Xknr2eD9mdz8iHC4gu-0MOWYIC2ippb5PCMJjQNaebNWzT8a0ytjSp3pOBCbP9MAo4EU5VR-yr0sebv3MvgcUlVbmEHUwoKuUGSHo_INhmct4LDSOKgkgUn_YL707URosseeNI6kiCbfTlmfjORt0sD5XgDuKh6AaDHsmrk3hu7TwDGWwyngwf3wloVo-BNLlaKRcyZEaGhVsOM7OqHq4bYkFXEXC6Qf9uCM0NCamLsXv0vng1a6TRIhJenN5-uGye4uNWyEoEOL2D915_fCzbPK_sf5-DnUPwZHlAuIn5LDZbio7xM-c9GK1s3aXwGt1bwq0l02nF027JUUIOiy1mu_HemlApewGWkaUaUI2S-7L7FNFtGqA9UZACv4_4qPo8kbxWfKu7U923AB4GFucYe9tZ32ybpdZAP8ZmpiKVdVQgaeUQWF-4xKUnoCOrztF5nZH5cWRPf3ubbbXigVxDATyhWy7sTm_3whidQwSX8wq7TaqQVtQaz84-e8tb79e37hYpO3EowFZSfuOx67DGpwbeA5iuFjBsM0frVirfK7Wv-thOBzw8ZG4y4FQdRgv7PsDxUtZwSwvhRrPGRvq6P_NHLTavFkrDDDl7_O25ksz3N4Z2F-oMv7wIyva6Y9j3c1RhHf-tgI4w78susqA71Nj0ii3WF8HKPrBpOsKM2jjII6aZGDIQyS27WiJUU5X4oh8WujquHmOFcN2xoxSugyTDcuwSDRLlnNbZUNPqkbekBCZf6_BlItd3jrmbAj5MqBQpqi9E6-Jz2-64tcGtXOCmzx-rjRs_udDa-ukmheLNeMBwMlFPfQkRQEx1xkDC3PRn8-4cFsQYI_391nUdBxC-UQv8oxVIBfgToxpzQ-Fu1]--></g></svg>