<?xml version="1.0" encoding="us-ascii" standalone="no"?><svg xmlns="http://www.w3.org/2000/svg" xmlns:xlink="http://www.w3.org/1999/xlink" contentStyleType="text/css" height="548px" preserveAspectRatio="none" style="width:746px;height:548px;background:#FFFFFF;" version="1.1" viewBox="0 0 746 548" width="746px" zoomAndPan="magnify"><defs/><g><rect fill="#FFFFFF" height="419.3541" style="stroke:#181818;stroke-width:1.0;" width="10" x="169" y="72.7739"/><rect fill="#FFFFFF" height="42.706" style="stroke:#181818;stroke-width:1.0;" width="10" x="174" y="165.892"/><rect fill="#FFFFFF" height="42.706" style="stroke:#181818;stroke-width:1.0;" width="10" x="174" y="280.304"/><rect fill="#FFFFFF" height="42.706" style="stroke:#181818;stroke-width:1.0;" width="10" x="174" y="396.716"/><rect fill="none" height="373.6481" style="stroke:#000000;stroke-width:1.5;" width="637.5" x="102.5" y="87.7739"/><rect fill="none" height="339.9421" style="stroke:#000000;stroke-width:1.5;" width="617.5" x="112.5" y="114.4799"/><line style="stroke:#181818;stroke-width:0.5;stroke-dasharray:5.0,5.0;" x1="173.5" x2="173.5" y1="39.0679" y2="510.1281"/><rect fill="#E3E3E3" height="33.0679" rx="2.5" ry="2.5" style="stroke:#181818;stroke-width:0.5;" width="103" x="122.5" y="5"/><text fill="#000000" font-family="sans-serif" font-size="14" lengthAdjust="spacing" textLength="89" x="129.5" y="26.9659">:DealAnalysis</text><rect fill="#E3E3E3" height="33.0679" rx="2.5" ry="2.5" style="stroke:#181818;stroke-width:0.5;" width="103" x="122.5" y="509.1281"/><text fill="#000000" font-family="sans-serif" font-size="14" lengthAdjust="spacing" textLength="89" x="129.5" y="531.094">:DealAnalysis</text><rect fill="#FFFFFF" height="419.3541" style="stroke:#181818;stroke-width:1.0;" width="10" x="169" y="72.7739"/><rect fill="#FFFFFF" height="42.706" style="stroke:#181818;stroke-width:1.0;" width="10" x="174" y="165.892"/><rect fill="#FFFFFF" height="42.706" style="stroke:#181818;stroke-width:1.0;" width="10" x="174" y="280.304"/><rect fill="#FFFFFF" height="42.706" style="stroke:#181818;stroke-width:1.0;" width="10" x="174" y="396.716"/><polygon fill="#181818" points="157,68.7739,167,72.7739,157,76.7739,161,72.7739" style="stroke:#181818;stroke-width:1.0;"/><line style="stroke:#181818;stroke-width:1.0;" x1="0" x2="163" y1="72.7739" y2="72.7739"/><text fill="#000000" font-family="sans-serif" font-size="13" font-weight="bold" lengthAdjust="spacing" textLength="14" x="7" y="66.9649">12</text><text fill="#000000" font-family="sans-serif" font-size="13" lengthAdjust="spacing" textLength="132" x="25" y="66.9649">getRegressionModel()</text><path d="M102.5,87.7739 L288.5,87.7739 L288.5,97.4799 L278.5,107.4799 L102.5,107.4799 L102.5,87.7739 " fill="#EEEEEE" style="stroke:#000000;stroke-width:1.5;"/><rect fill="none" height="373.6481" style="stroke:#000000;stroke-width:1.5;" width="637.5" x="102.5" y="87.7739"/><text fill="#000000" font-family="sans-serif" font-size="13" font-weight="bold" lengthAdjust="spacing" textLength="141" x="117.5" y="102.6709">Get Regression Model</text><path d="M112.5,114.4799 L175.5,114.4799 L175.5,124.186 L165.5,134.186 L112.5,134.186 L112.5,114.4799 " fill="#EEEEEE" style="stroke:#000000;stroke-width:1.5;"/><rect fill="none" height="339.9421" style="stroke:#000000;stroke-width:1.5;" width="617.5" x="112.5" y="114.4799"/><text fill="#000000" font-family="sans-serif" font-size="13" font-weight="bold" lengthAdjust="spacing" textLength="18" x="127.5" y="129.377">alt</text><text fill="#000000" font-family="sans-serif" font-size="11" font-weight="bold" lengthAdjust="spacing" textLength="135" x="190.5" y="128.2389">[if isRegressionSLM true]</text><line style="stroke:#181818;stroke-width:1.0;" x1="179" x2="226" y1="152.892" y2="152.892"/><line style="stroke:#181818;stroke-width:1.0;" x1="226" x2="226" y1="152.892" y2="165.892"/><line style="stroke:#181818;stroke-width:1.0;" x1="185" x2="226" y1="165.892" y2="165.892"/><polygon fill="#181818" points="195,161.892,185,165.892,195,169.892,191,165.892" style="stroke:#181818;stroke-width:1.0;"/><text fill="#000000" font-family="sans-serif" font-size="13" font-weight="bold" lengthAdjust="spacing" textLength="25" x="191" y="147.083">12.1</text><text fill="#000000" font-family="sans-serif" font-size="13" lengthAdjust="spacing" textLength="312" x="220" y="147.083">addDataToSimpleRegression(regressionParameters)</text><line style="stroke:#181818;stroke-width:1.0;stroke-dasharray:2.0,2.0;" x1="184" x2="226" y1="207.598" y2="207.598"/><line style="stroke:#181818;stroke-width:1.0;stroke-dasharray:2.0,2.0;" x1="226" x2="226" y1="207.598" y2="220.598"/><line style="stroke:#181818;stroke-width:1.0;stroke-dasharray:2.0,2.0;" x1="179" x2="226" y1="220.598" y2="220.598"/><polygon fill="#181818" points="189,216.598,179,220.598,189,224.598,185,220.598" style="stroke:#181818;stroke-width:1.0;"/><text fill="#000000" font-family="sans-serif" font-size="13" font-weight="bold" lengthAdjust="spacing" textLength="25" x="191" y="201.789">12.2</text><text fill="#000000" font-family="sans-serif" font-size="13" lengthAdjust="spacing" textLength="63" x="220" y="201.789">regression</text><line style="stroke:#181818;stroke-width:1.0;" x1="179" x2="226" y1="267.304" y2="267.304"/><line style="stroke:#181818;stroke-width:1.0;" x1="226" x2="226" y1="267.304" y2="280.304"/><line style="stroke:#181818;stroke-width:1.0;" x1="185" x2="226" y1="280.304" y2="280.304"/><polygon fill="#181818" points="195,276.304,185,280.304,195,284.304,191,280.304" style="stroke:#181818;stroke-width:1.0;"/><text fill="#000000" font-family="sans-serif" font-size="13" font-weight="bold" lengthAdjust="spacing" textLength="25" x="191" y="261.495">12.3</text><text fill="#000000" font-family="sans-serif" font-size="13" lengthAdjust="spacing" textLength="498" x="220" y="261.495">createSimpleRegressionModel(regressionParameters, significanceValue, regression)</text><line style="stroke:#181818;stroke-width:1.0;stroke-dasharray:2.0,2.0;" x1="184" x2="226" y1="322.01" y2="322.01"/><line style="stroke:#181818;stroke-width:1.0;stroke-dasharray:2.0,2.0;" x1="226" x2="226" y1="322.01" y2="335.01"/><line style="stroke:#181818;stroke-width:1.0;stroke-dasharray:2.0,2.0;" x1="179" x2="226" y1="335.01" y2="335.01"/><polygon fill="#181818" points="189,331.01,179,335.01,189,339.01,185,335.01" style="stroke:#181818;stroke-width:1.0;"/><text fill="#000000" font-family="sans-serif" font-size="13" font-weight="bold" lengthAdjust="spacing" textLength="25" x="191" y="316.201">12.4</text><text fill="#000000" font-family="sans-serif" font-size="13" lengthAdjust="spacing" textLength="101" x="220" y="316.201">regressionModel</text><line style="stroke:#000000;stroke-width:1.0;stroke-dasharray:2.0,2.0;" x1="112.5" x2="730" y1="339.01" y2="339.01"/><line style="stroke:#181818;stroke-width:1.0;" x1="179" x2="226" y1="383.716" y2="383.716"/><line style="stroke:#181818;stroke-width:1.0;" x1="226" x2="226" y1="383.716" y2="396.716"/><line style="stroke:#181818;stroke-width:1.0;" x1="185" x2="226" y1="396.716" y2="396.716"/><polygon fill="#181818" points="195,392.716,185,396.716,195,400.716,191,396.716" style="stroke:#181818;stroke-width:1.0;"/><text fill="#000000" font-family="sans-serif" font-size="13" font-weight="bold" lengthAdjust="spacing" textLength="25" x="191" y="377.907">12.5</text><text fill="#000000" font-family="sans-serif" font-size="13" lengthAdjust="spacing" textLength="438" x="220" y="377.907">createMultipleRegressionModel(regressionParameters, significanceValue)</text><line style="stroke:#181818;stroke-width:1.0;stroke-dasharray:2.0,2.0;" x1="184" x2="226" y1="438.4221" y2="438.4221"/><line style="stroke:#181818;stroke-width:1.0;stroke-dasharray:2.0,2.0;" x1="226" x2="226" y1="438.4221" y2="451.4221"/><line style="stroke:#181818;stroke-width:1.0;stroke-dasharray:2.0,2.0;" x1="179" x2="226" y1="451.4221" y2="451.4221"/><polygon fill="#181818" points="189,447.4221,179,451.4221,189,455.4221,185,451.4221" style="stroke:#181818;stroke-width:1.0;"/><text fill="#000000" font-family="sans-serif" font-size="13" font-weight="bold" lengthAdjust="spacing" textLength="25" x="191" y="432.6131">12.6</text><text fill="#000000" font-family="sans-serif" font-size="13" lengthAdjust="spacing" textLength="101" x="220" y="432.6131">regressionModel</text><polygon fill="#181818" points="11,488.1281,1,492.1281,11,496.1281,7,492.1281" style="stroke:#181818;stroke-width:1.0;"/><line style="stroke:#181818;stroke-width:1.0;stroke-dasharray:2.0,2.0;" x1="5" x2="173" y1="492.1281" y2="492.1281"/><text fill="#000000" font-family="sans-serif" font-size="13" font-weight="bold" lengthAdjust="spacing" textLength="14" x="17" y="486.3191">13</text><text fill="#000000" font-family="sans-serif" font-size="13" lengthAdjust="spacing" textLength="101" x="35" y="486.3191">regressionModel</text><!--SRC=[lLB1IWCn4BtlLmozs48hL6z5X4B1YmMnubMcoUnsQ3PPabcrq8yts-3kMYsYWdCQCk-zUIz9sBAjq6C9fRDERRmh2SJNb8LsKg7QOa4hsHa2JqhG5gOF21lKxeLj0JcQG5ciimrhWjmvMRlNBCA45LTe1GQp1Q6PMpIxm640663nD8yKhCNPkboJX-b5DhbkZc461Saz5Pv2O6UNJfCPZZvYpwUHh8IVKIXfGQp2kxg26nBew73WftaiD0AS0uSEiRfTflZlcAOQ8wqVr7g1WWzknMLbgACEVTlUDTT2GZwC-ZgVJHulQRTqMdsSffCI-_t-j6VbANAE3QVB_Chr608NbdDMQ1KzegbftBFqzr3f7RvFHeVlzBEOoze8_pxeFuQpElLDSzZM-zMNQNGrcPpGFn9z0m00]--></g></svg>