<?xml version="1.0" encoding="us-ascii" standalone="no"?><svg xmlns="http://www.w3.org/2000/svg" xmlns:xlink="http://www.w3.org/1999/xlink" contentStyleType="text/css" height="1238px" preserveAspectRatio="none" style="width:1855px;height:1238px;background:#FFFFFF;" version="1.1" viewBox="0 0 1855 1238" width="1855px" zoomAndPan="magnify"><defs/><g><!--class AnalyseDealsUI--><g id="elem_AnalyseDealsUI"><rect codeLine="11" fill="#F1F1F1" height="48" id="AnalyseDealsUI" rx="2.5" ry="2.5" style="stroke:#181818;stroke-width:0.5;" width="136" x="1571.5" y="7"/><ellipse cx="1586.5" cy="23" fill="#ADD1B2" rx="11" ry="11" style="stroke:#181818;stroke-width:1.0;"/><path d="M1585.9688,29.6719 Q1584.2188,29.6719 1583.0781,28.9375 Q1581.9531,28.1875 1581.3906,26.8438 Q1580.8438,25.4844 1580.8438,23.6875 Q1580.8438,21.6563 1581.5,20.2031 Q1582.1563,18.75 1583.4375,17.9688 Q1584.7188,17.1875 1586.5938,17.1875 Q1587.4844,17.1875 1588.1563,17.375 Q1588.8281,17.5469 1589.5156,17.8906 L1588.7031,19.9063 Q1588.0781,19.5938 1587.5313,19.4688 Q1587,19.3438 1586.5156,19.3438 Q1585.3438,19.3438 1584.6406,19.875 Q1583.9375,20.4063 1583.6406,21.3594 Q1583.3438,22.3125 1583.3438,23.5781 Q1583.3438,25.5938 1584.0625,26.5625 Q1584.7813,27.5156 1586.375,27.5156 Q1586.9688,27.5156 1587.5938,27.3594 Q1588.2188,27.2031 1589.0469,26.8281 L1589.0469,29.0469 Q1588.3125,29.3594 1587.5156,29.5156 Q1586.7344,29.6719 1585.9688,29.6719 Z " fill="#000000"/><text fill="#000000" font-family="sans-serif" font-size="14" lengthAdjust="spacing" textLength="104" x="1600.5" y="28.432">AnalyseDealsUI</text><line style="stroke:#181818;stroke-width:0.5;" x1="1572.5" x2="1706.5" y1="39" y2="39"/><line style="stroke:#181818;stroke-width:0.5;" x1="1572.5" x2="1706.5" y1="47" y2="47"/></g><!--class AnalyseDealsController--><g id="elem_AnalyseDealsController"><rect codeLine="13" fill="#F1F1F1" height="105.2038" id="AnalyseDealsController" rx="2.5" ry="2.5" style="stroke:#181818;stroke-width:0.5;" width="657" x="930" y="116"/><ellipse cx="1176.25" cy="132" fill="#ADD1B2" rx="11" ry="11" style="stroke:#181818;stroke-width:1.0;"/><path d="M1175.7188,138.6719 Q1173.9688,138.6719 1172.8281,137.9375 Q1171.7031,137.1875 1171.1406,135.8438 Q1170.5938,134.4844 1170.5938,132.6875 Q1170.5938,130.6563 1171.25,129.2031 Q1171.9063,127.75 1173.1875,126.9688 Q1174.4688,126.1875 1176.3438,126.1875 Q1177.2344,126.1875 1177.9063,126.375 Q1178.5781,126.5469 1179.2656,126.8906 L1178.4531,128.9063 Q1177.8281,128.5938 1177.2813,128.4688 Q1176.75,128.3438 1176.2656,128.3438 Q1175.0938,128.3438 1174.3906,128.875 Q1173.6875,129.4063 1173.3906,130.3594 Q1173.0938,131.3125 1173.0938,132.5781 Q1173.0938,134.5938 1173.8125,135.5625 Q1174.5313,136.5156 1176.125,136.5156 Q1176.7188,136.5156 1177.3438,136.3594 Q1177.9688,136.2031 1178.7969,135.8281 L1178.7969,138.0469 Q1178.0625,138.3594 1177.2656,138.5156 Q1176.4844,138.6719 1175.7188,138.6719 Z " fill="#000000"/><text fill="#000000" font-family="sans-serif" font-size="14" lengthAdjust="spacing" textLength="156" x="1196.75" y="137.432">AnalyseDealsController</text><line style="stroke:#181818;stroke-width:0.5;" x1="931" x2="1586" y1="148" y2="148"/><line style="stroke:#181818;stroke-width:0.5;" x1="931" x2="1586" y1="156" y2="156"/><text fill="#000000" font-family="sans-serif" font-size="14" lengthAdjust="spacing" textLength="280" x="936" y="174.9659">+AnalyseDealsController(orderRepository)</text><text fill="#000000" font-family="sans-serif" font-size="14" lengthAdjust="spacing" textLength="645" x="936" y="194.0339">+getAnalysisStatistics(chosenRegressionModel, chosenRegressionParameter, significanceValue)</text><text fill="#000000" font-family="sans-serif" font-size="14" lengthAdjust="spacing" textLength="383" x="936" y="213.1018">+getRegressionParameters(chosenRegressionParameter)</text></g><!--class DealAnalysis--><g id="elem_DealAnalysis"><rect codeLine="19" fill="#F1F1F1" height="143.3396" id="DealAnalysis" rx="2.5" ry="2.5" style="stroke:#181818;stroke-width:0.5;" width="625" x="755" y="319"/><ellipse cx="1020.75" cy="335" fill="#ADD1B2" rx="11" ry="11" style="stroke:#181818;stroke-width:1.0;"/><path d="M1020.2188,341.6719 Q1018.4688,341.6719 1017.3281,340.9375 Q1016.2031,340.1875 1015.6406,338.8438 Q1015.0938,337.4844 1015.0938,335.6875 Q1015.0938,333.6563 1015.75,332.2031 Q1016.4063,330.75 1017.6875,329.9688 Q1018.9688,329.1875 1020.8438,329.1875 Q1021.7344,329.1875 1022.4063,329.375 Q1023.0781,329.5469 1023.7656,329.8906 L1022.9531,331.9063 Q1022.3281,331.5938 1021.7813,331.4688 Q1021.25,331.3438 1020.7656,331.3438 Q1019.5938,331.3438 1018.8906,331.875 Q1018.1875,332.4063 1017.8906,333.3594 Q1017.5938,334.3125 1017.5938,335.5781 Q1017.5938,337.5938 1018.3125,338.5625 Q1019.0313,339.5156 1020.625,339.5156 Q1021.2188,339.5156 1021.8438,339.3594 Q1022.4688,339.2031 1023.2969,338.8281 L1023.2969,341.0469 Q1022.5625,341.3594 1021.7656,341.5156 Q1020.9844,341.6719 1020.2188,341.6719 Z " fill="#000000"/><text fill="#000000" font-family="sans-serif" font-size="14" lengthAdjust="spacing" textLength="85" x="1041.25" y="340.432">DealAnalysis</text><line style="stroke:#181818;stroke-width:0.5;" x1="756" x2="1379" y1="351" y2="351"/><line style="stroke:#181818;stroke-width:0.5;" x1="756" x2="1379" y1="359" y2="359"/><text fill="#000000" font-family="sans-serif" font-size="14" lengthAdjust="spacing" textLength="423" x="761" y="377.9659">+static getRegressionParameters(chosenRegressionParameter)</text><text fill="#000000" font-family="sans-serif" font-size="14" lengthAdjust="spacing" textLength="592" x="761" y="397.0339">+static getRegressionModel(regressionParameters, significanceValue, isRegressionSLM)</text><text fill="#000000" font-family="sans-serif" font-size="14" lengthAdjust="spacing" textLength="396" x="761" y="416.1018">-static addDataToSimpleRegression(regressionParameters)</text><text fill="#000000" font-family="sans-serif" font-size="14" lengthAdjust="spacing" textLength="613" x="761" y="435.1697">-static createSimpleRegressionModel(regressionParameters, significanceValue, regression)</text><text fill="#000000" font-family="sans-serif" font-size="14" lengthAdjust="spacing" textLength="543" x="761" y="454.2376">-static createMultipleRegressionModel(regressionParameters, significanceValue)</text></g><!--class SimpleLinearModel--><g id="elem_SimpleLinearModel"><rect codeLine="27" fill="#F1F1F1" height="448.4263" id="SimpleLinearModel" rx="2.5" ry="2.5" style="stroke:#181818;stroke-width:0.5;" width="415" x="994" y="755"/><ellipse cx="1132.25" cy="771" fill="#ADD1B2" rx="11" ry="11" style="stroke:#181818;stroke-width:1.0;"/><path d="M1131.7188,777.6719 Q1129.9688,777.6719 1128.8281,776.9375 Q1127.7031,776.1875 1127.1406,774.8438 Q1126.5938,773.4844 1126.5938,771.6875 Q1126.5938,769.6563 1127.25,768.2031 Q1127.9063,766.75 1129.1875,765.9688 Q1130.4688,765.1875 1132.3438,765.1875 Q1133.2344,765.1875 1133.9063,765.375 Q1134.5781,765.5469 1135.2656,765.8906 L1134.4531,767.9063 Q1133.8281,767.5938 1133.2813,767.4688 Q1132.75,767.3438 1132.2656,767.3438 Q1131.0938,767.3438 1130.3906,767.875 Q1129.6875,768.4063 1129.3906,769.3594 Q1129.0938,770.3125 1129.0938,771.5781 Q1129.0938,773.5938 1129.8125,774.5625 Q1130.5313,775.5156 1132.125,775.5156 Q1132.7188,775.5156 1133.3438,775.3594 Q1133.9688,775.2031 1134.7969,774.8281 L1134.7969,777.0469 Q1134.0625,777.3594 1133.2656,777.5156 Q1132.4844,777.6719 1131.7188,777.6719 Z " fill="#000000"/><text fill="#000000" font-family="sans-serif" font-size="14" lengthAdjust="spacing" textLength="130" x="1152.75" y="776.432">SimpleLinearModel</text><line style="stroke:#181818;stroke-width:0.5;" x1="995" x2="1408" y1="787" y2="787"/><text fill="#000000" font-family="sans-serif" font-size="14" lengthAdjust="spacing" textLength="307" x="1000" y="805.9659">-final int SELECTED_REGRESSION_PARAMETER</text><text fill="#000000" font-family="sans-serif" font-size="14" lengthAdjust="spacing" textLength="175" x="1000" y="825.0339">-final int PROPERTY_PRICE</text><text fill="#000000" font-family="sans-serif" font-size="14" lengthAdjust="spacing" textLength="225" x="1000" y="844.1018">-double[][] regressionParameters</text><text fill="#000000" font-family="sans-serif" font-size="14" lengthAdjust="spacing" textLength="36" x="1000" y="863.1697">-int n</text><text fill="#000000" font-family="sans-serif" font-size="14" lengthAdjust="spacing" textLength="78" x="1000" y="882.2376">-double Sxy</text><text fill="#000000" font-family="sans-serif" font-size="14" lengthAdjust="spacing" textLength="78" x="1000" y="901.3055">-double Sxx</text><text fill="#000000" font-family="sans-serif" font-size="14" lengthAdjust="spacing" textLength="78" x="1000" y="920.3734">-double Syy</text><text fill="#000000" font-family="sans-serif" font-size="14" lengthAdjust="spacing" textLength="72" x="1000" y="939.4414">-double SE</text><text fill="#000000" font-family="sans-serif" font-size="14" lengthAdjust="spacing" textLength="73" x="1000" y="958.5093">-double SR</text><text fill="#000000" font-family="sans-serif" font-size="14" lengthAdjust="spacing" textLength="102" x="1000" y="977.5772">-double meanX</text><text fill="#000000" font-family="sans-serif" font-size="14" lengthAdjust="spacing" textLength="102" x="1000" y="996.6451">-double meanY</text><text fill="#000000" font-family="sans-serif" font-size="14" lengthAdjust="spacing" textLength="92" x="1000" y="1015.713">-double slope</text><text fill="#000000" font-family="sans-serif" font-size="14" lengthAdjust="spacing" textLength="117" x="1000" y="1034.7809">-double intercept</text><text fill="#000000" font-family="sans-serif" font-size="14" lengthAdjust="spacing" textLength="121" x="1000" y="1053.8489">-double squaredR</text><text fill="#000000" font-family="sans-serif" font-size="14" lengthAdjust="spacing" textLength="174" x="1000" y="1072.9168">-double significanceValue</text><text fill="#000000" font-family="sans-serif" font-size="14" lengthAdjust="spacing" textLength="202" x="1000" y="1091.9847">-SimpleRegression regression</text><line style="stroke:#181818;stroke-width:0.5;" x1="995" x2="1408" y1="1100.0867" y2="1100.0867"/><text fill="#000000" font-family="sans-serif" font-size="14" lengthAdjust="spacing" textLength="155" x="1000" y="1119.0526">+generateAnovaTable()</text><text fill="#000000" font-family="sans-serif" font-size="14" lengthAdjust="spacing" textLength="403" x="1000" y="1138.1205">+calculateCoefficientConfidenceIntervals(isCoefficientSlope)</text><text fill="#000000" font-family="sans-serif" font-size="14" lengthAdjust="spacing" textLength="377" x="1000" y="1157.1884">+calculateCoefficientHypothesisTests(isCoefficientSlope)</text><text fill="#000000" font-family="sans-serif" font-size="14" lengthAdjust="spacing" textLength="150" x="1000" y="1176.2564">+getForecastPriceList()</text><text fill="#000000" font-family="sans-serif" font-size="14" lengthAdjust="spacing" textLength="158" x="1000" y="1195.3243">+createAnalysisReport()</text></g><!--class MultipleLinearModel--><g id="elem_MultipleLinearModel"><rect codeLine="51" fill="#F1F1F1" height="505.63" id="MultipleLinearModel" rx="2.5" ry="2.5" style="stroke:#181818;stroke-width:0.5;" width="292" x="1444.5" y="726"/><ellipse cx="1516.25" cy="742" fill="#ADD1B2" rx="11" ry="11" style="stroke:#181818;stroke-width:1.0;"/><path d="M1515.7188,748.6719 Q1513.9688,748.6719 1512.8281,747.9375 Q1511.7031,747.1875 1511.1406,745.8438 Q1510.5938,744.4844 1510.5938,742.6875 Q1510.5938,740.6563 1511.25,739.2031 Q1511.9063,737.75 1513.1875,736.9688 Q1514.4688,736.1875 1516.3438,736.1875 Q1517.2344,736.1875 1517.9063,736.375 Q1518.5781,736.5469 1519.2656,736.8906 L1518.4531,738.9063 Q1517.8281,738.5938 1517.2813,738.4688 Q1516.75,738.3438 1516.2656,738.3438 Q1515.0938,738.3438 1514.3906,738.875 Q1513.6875,739.4063 1513.3906,740.3594 Q1513.0938,741.3125 1513.0938,742.5781 Q1513.0938,744.5938 1513.8125,745.5625 Q1514.5313,746.5156 1516.125,746.5156 Q1516.7188,746.5156 1517.3438,746.3594 Q1517.9688,746.2031 1518.7969,745.8281 L1518.7969,748.0469 Q1518.0625,748.3594 1517.2656,748.5156 Q1516.4844,748.6719 1515.7188,748.6719 Z " fill="#000000"/><text fill="#000000" font-family="sans-serif" font-size="14" lengthAdjust="spacing" textLength="140" x="1536.75" y="747.432">MultipleLinearModel</text><line style="stroke:#181818;stroke-width:0.5;" x1="1445.5" x2="1735.5" y1="758" y2="758"/><text fill="#000000" font-family="sans-serif" font-size="14" lengthAdjust="spacing" textLength="171" x="1450.5" y="776.9659">-final int PROPERTY_AREA</text><text fill="#000000" font-family="sans-serif" font-size="14" lengthAdjust="spacing" textLength="188" x="1450.5" y="796.0339">-final int DISTANCE_CENTRE</text><text fill="#000000" font-family="sans-serif" font-size="14" lengthAdjust="spacing" textLength="180" x="1450.5" y="815.1018">-final int NUM_BEDROOMS</text><text fill="#000000" font-family="sans-serif" font-size="14" lengthAdjust="spacing" textLength="189" x="1450.5" y="834.1697">-final int NUM_BATHROOMS</text><text fill="#000000" font-family="sans-serif" font-size="14" lengthAdjust="spacing" textLength="193" x="1450.5" y="853.2376">-final int NUM_PARKING_SPC</text><text fill="#000000" font-family="sans-serif" font-size="14" lengthAdjust="spacing" textLength="175" x="1450.5" y="872.3055">-final int PROPERTY_PRICE</text><text fill="#000000" font-family="sans-serif" font-size="14" lengthAdjust="spacing" textLength="225" x="1450.5" y="891.3734">-double[][] regressionParameters</text><text fill="#000000" font-family="sans-serif" font-size="14" lengthAdjust="spacing" textLength="36" x="1450.5" y="910.4414">-int n</text><text fill="#000000" font-family="sans-serif" font-size="14" lengthAdjust="spacing" textLength="72" x="1450.5" y="929.5093">-double SE</text><text fill="#000000" font-family="sans-serif" font-size="14" lengthAdjust="spacing" textLength="72" x="1450.5" y="948.5772">-double ST</text><text fill="#000000" font-family="sans-serif" font-size="14" lengthAdjust="spacing" textLength="73" x="1450.5" y="967.6451">-double SR</text><text fill="#000000" font-family="sans-serif" font-size="14" lengthAdjust="spacing" textLength="72" x="1450.5" y="986.713">-double SE</text><text fill="#000000" font-family="sans-serif" font-size="14" lengthAdjust="spacing" textLength="73" x="1450.5" y="1005.7809">-double SR</text><text fill="#000000" font-family="sans-serif" font-size="14" lengthAdjust="spacing" textLength="121" x="1450.5" y="1024.8489">-double squaredR</text><text fill="#000000" font-family="sans-serif" font-size="14" lengthAdjust="spacing" textLength="181" x="1450.5" y="1043.9168">-double squaredRAdjusted</text><text fill="#000000" font-family="sans-serif" font-size="14" lengthAdjust="spacing" textLength="245" x="1450.5" y="1062.9847">-double[] standardErrorsParameters</text><text fill="#000000" font-family="sans-serif" font-size="14" lengthAdjust="spacing" textLength="174" x="1450.5" y="1082.0526">-double significanceValue</text><text fill="#000000" font-family="sans-serif" font-size="14" lengthAdjust="spacing" textLength="280" x="1450.5" y="1101.1205">-OLSMultipleLinearRegression regression</text><line style="stroke:#181818;stroke-width:0.5;" x1="1445.5" x2="1735.5" y1="1109.2225" y2="1109.2225"/><text fill="#000000" font-family="sans-serif" font-size="14" lengthAdjust="spacing" textLength="47" x="1450.5" y="1128.1884">+getB()</text><text fill="#000000" font-family="sans-serif" font-size="14" lengthAdjust="spacing" textLength="155" x="1450.5" y="1147.2564">+generateAnovaTable()</text><text fill="#000000" font-family="sans-serif" font-size="14" lengthAdjust="spacing" textLength="211" x="1450.5" y="1166.3243">+calculateConfidenceIntervals()</text><text fill="#000000" font-family="sans-serif" font-size="14" lengthAdjust="spacing" textLength="185" x="1450.5" y="1185.3922">+calculateHypothesisTests()</text><text fill="#000000" font-family="sans-serif" font-size="14" lengthAdjust="spacing" textLength="150" x="1450.5" y="1204.4601">+getForecastPriceList()</text><text fill="#000000" font-family="sans-serif" font-size="14" lengthAdjust="spacing" textLength="158" x="1450.5" y="1223.528">+createAnalysisReport()</text></g><!--class RegressionModel--><g id="elem_RegressionModel"><rect codeLine="78" fill="#F1F1F1" height="86.1358" id="RegressionModel" rx="2.5" ry="2.5" style="stroke:#181818;stroke-width:0.5;" width="167" x="1312" y="569.5"/><ellipse cx="1339.6" cy="585.5" fill="#B4A7E5" rx="11" ry="11" style="stroke:#181818;stroke-width:1.0;"/><path d="M1335.6313,592 L1335.6313,590.2969 L1337.9906,590.0313 L1337.9906,581.8281 L1335.6313,581.5625 L1335.6313,579.8594 L1342.7719,579.8594 L1342.7719,581.5625 L1340.35,581.8281 L1340.35,590.0313 L1342.7719,590.2969 L1342.7719,592 L1335.6313,592 Z " fill="#000000"/><text fill="#000000" font-family="sans-serif" font-size="14" font-style="italic" lengthAdjust="spacing" textLength="107" x="1356.4" y="590.932">RegressionModel</text><line style="stroke:#181818;stroke-width:0.5;" x1="1313" x2="1478" y1="601.5" y2="601.5"/><line style="stroke:#181818;stroke-width:0.5;" x1="1313" x2="1478" y1="609.5" y2="609.5"/><text fill="#000000" font-family="sans-serif" font-size="14" lengthAdjust="spacing" textLength="155" x="1318" y="628.4659">+generateAnovaTable()</text><text fill="#000000" font-family="sans-serif" font-size="14" lengthAdjust="spacing" textLength="150" x="1318" y="647.5339">+getForecastPriceList()</text></g><!--class OrderRepository--><g id="elem_OrderRepository"><rect codeLine="83" fill="#F1F1F1" height="181.4754" id="OrderRepository" rx="2.5" ry="2.5" style="stroke:#181818;stroke-width:0.5;" width="395" x="7" y="300"/><ellipse cx="144.75" cy="316" fill="#ADD1B2" rx="11" ry="11" style="stroke:#181818;stroke-width:1.0;"/><path d="M144.2188,322.6719 Q142.4688,322.6719 141.3281,321.9375 Q140.2031,321.1875 139.6406,319.8438 Q139.0938,318.4844 139.0938,316.6875 Q139.0938,314.6563 139.75,313.2031 Q140.4063,311.75 141.6875,310.9688 Q142.9688,310.1875 144.8438,310.1875 Q145.7344,310.1875 146.4063,310.375 Q147.0781,310.5469 147.7656,310.8906 L146.9531,312.9063 Q146.3281,312.5938 145.7813,312.4688 Q145.25,312.3438 144.7656,312.3438 Q143.5938,312.3438 142.8906,312.875 Q142.1875,313.4063 141.8906,314.3594 Q141.5938,315.3125 141.5938,316.5781 Q141.5938,318.5938 142.3125,319.5625 Q143.0313,320.5156 144.625,320.5156 Q145.2188,320.5156 145.8438,320.3594 Q146.4688,320.2031 147.2969,319.8281 L147.2969,322.0469 Q146.5625,322.3594 145.7656,322.5156 Q144.9844,322.6719 144.2188,322.6719 Z " fill="#000000"/><text fill="#000000" font-family="sans-serif" font-size="14" lengthAdjust="spacing" textLength="111" x="165.25" y="321.432">OrderRepository</text><line style="stroke:#181818;stroke-width:0.5;" x1="8" x2="401" y1="332" y2="332"/><line style="stroke:#181818;stroke-width:0.5;" x1="8" x2="401" y1="340" y2="340"/><text fill="#000000" font-family="sans-serif" font-size="14" lengthAdjust="spacing" textLength="383" x="13" y="358.9659">+getRegressionParameters(chosenRegressionParameter)</text><text fill="#000000" font-family="sans-serif" font-size="14" lengthAdjust="spacing" textLength="91" x="13" y="378.0339">-getPriceList()</text><text fill="#000000" font-family="sans-serif" font-size="14" lengthAdjust="spacing" textLength="146" x="13" y="397.1018">-getPropertyAreaList()</text><text fill="#000000" font-family="sans-serif" font-size="14" lengthAdjust="spacing" textLength="161" x="13" y="416.1697">-getDistanceCentreList()</text><text fill="#000000" font-family="sans-serif" font-size="14" lengthAdjust="spacing" textLength="159" x="13" y="435.2376">-getNumBedroomsList()</text><text fill="#000000" font-family="sans-serif" font-size="14" lengthAdjust="spacing" textLength="164" x="13" y="454.3055">-getNumBathroomsList()</text><text fill="#000000" font-family="sans-serif" font-size="14" lengthAdjust="spacing" textLength="189" x="13" y="473.3734">-getNumParkingSpacesList()</text></g><!--class Repositories--><g id="elem_Repositories"><rect codeLine="93" fill="#F1F1F1" height="105.2038" id="Repositories" rx="2.5" ry="2.5" style="stroke:#181818;stroke-width:0.5;" width="203" x="437" y="338"/><ellipse cx="492.75" cy="354" fill="#ADD1B2" rx="11" ry="11" style="stroke:#181818;stroke-width:1.0;"/><path d="M492.2188,360.6719 Q490.4688,360.6719 489.3281,359.9375 Q488.2031,359.1875 487.6406,357.8438 Q487.0938,356.4844 487.0938,354.6875 Q487.0938,352.6563 487.75,351.2031 Q488.4063,349.75 489.6875,348.9688 Q490.9688,348.1875 492.8438,348.1875 Q493.7344,348.1875 494.4063,348.375 Q495.0781,348.5469 495.7656,348.8906 L494.9531,350.9063 Q494.3281,350.5938 493.7813,350.4688 Q493.25,350.3438 492.7656,350.3438 Q491.5938,350.3438 490.8906,350.875 Q490.1875,351.4063 489.8906,352.3594 Q489.5938,353.3125 489.5938,354.5781 Q489.5938,356.5938 490.3125,357.5625 Q491.0313,358.5156 492.625,358.5156 Q493.2188,358.5156 493.8438,358.3594 Q494.4688,358.2031 495.2969,357.8281 L495.2969,360.0469 Q494.5625,360.3594 493.7656,360.5156 Q492.9844,360.6719 492.2188,360.6719 Z " fill="#000000"/><text fill="#000000" font-family="sans-serif" font-size="14" lengthAdjust="spacing" textLength="83" x="513.25" y="359.432">Repositories</text><line style="stroke:#181818;stroke-width:0.5;" x1="438" x2="639" y1="370" y2="370"/><line style="stroke:#181818;stroke-width:0.5;" x1="438" x2="639" y1="378" y2="378"/><text fill="#000000" font-family="sans-serif" font-size="14" lengthAdjust="spacing" textLength="96" x="443" y="396.9659">-Repositories()</text><text fill="#000000" font-family="sans-serif" font-size="14" lengthAdjust="spacing" textLength="191" x="443" y="416.0339">+getInstance() : Repositories</text><text fill="#000000" font-family="sans-serif" font-size="14" lengthAdjust="spacing" textLength="149" x="443" y="435.1018">+getOrderRepository()</text></g><!--class RegressionModelDTO--><g id="elem_RegressionModelDTO"><rect codeLine="99" fill="#F1F1F1" height="105.2038" id="RegressionModelDTO" rx="2.5" ry="2.5" style="stroke:#181818;stroke-width:0.5;" width="178" x="1670.5" y="560"/><ellipse cx="1685.5" cy="576" fill="#ADD1B2" rx="11" ry="11" style="stroke:#181818;stroke-width:1.0;"/><path d="M1684.9688,582.6719 Q1683.2188,582.6719 1682.0781,581.9375 Q1680.9531,581.1875 1680.3906,579.8438 Q1679.8438,578.4844 1679.8438,576.6875 Q1679.8438,574.6563 1680.5,573.2031 Q1681.1563,571.75 1682.4375,570.9688 Q1683.7188,570.1875 1685.5938,570.1875 Q1686.4844,570.1875 1687.1563,570.375 Q1687.8281,570.5469 1688.5156,570.8906 L1687.7031,572.9063 Q1687.0781,572.5938 1686.5313,572.4688 Q1686,572.3438 1685.5156,572.3438 Q1684.3438,572.3438 1683.6406,572.875 Q1682.9375,573.4063 1682.6406,574.3594 Q1682.3438,575.3125 1682.3438,576.5781 Q1682.3438,578.5938 1683.0625,579.5625 Q1683.7813,580.5156 1685.375,580.5156 Q1685.9688,580.5156 1686.5938,580.3594 Q1687.2188,580.2031 1688.0469,579.8281 L1688.0469,582.0469 Q1687.3125,582.3594 1686.5156,582.5156 Q1685.7344,582.6719 1684.9688,582.6719 Z " fill="#000000"/><text fill="#000000" font-family="sans-serif" font-size="14" lengthAdjust="spacing" textLength="146" x="1699.5" y="581.432">RegressionModelDTO</text><line style="stroke:#181818;stroke-width:0.5;" x1="1671.5" x2="1847.5" y1="592" y2="592"/><text fill="#000000" font-family="sans-serif" font-size="14" lengthAdjust="spacing" textLength="149" x="1676.5" y="610.9659">-String analysisReport</text><line style="stroke:#181818;stroke-width:0.5;" x1="1671.5" x2="1847.5" y1="619.0679" y2="619.0679"/><text fill="#000000" font-family="sans-serif" font-size="14" lengthAdjust="spacing" textLength="155" x="1676.5" y="638.0339">+getRegressionModel()</text><text fill="#000000" font-family="sans-serif" font-size="14" lengthAdjust="spacing" textLength="138" x="1676.5" y="657.1018">+getAnalysisReport()</text></g><!--class RegressionModelMapper--><g id="elem_RegressionModelMapper"><rect codeLine="105" fill="#F1F1F1" height="67.0679" id="RegressionModelMapper" rx="2.5" ry="2.5" style="stroke:#181818;stroke-width:0.5;" width="291" x="1415" y="357"/><ellipse cx="1471.25" cy="373" fill="#ADD1B2" rx="11" ry="11" style="stroke:#181818;stroke-width:1.0;"/><path d="M1470.7188,379.6719 Q1468.9688,379.6719 1467.8281,378.9375 Q1466.7031,378.1875 1466.1406,376.8438 Q1465.5938,375.4844 1465.5938,373.6875 Q1465.5938,371.6563 1466.25,370.2031 Q1466.9063,368.75 1468.1875,367.9688 Q1469.4688,367.1875 1471.3438,367.1875 Q1472.2344,367.1875 1472.9063,367.375 Q1473.5781,367.5469 1474.2656,367.8906 L1473.4531,369.9063 Q1472.8281,369.5938 1472.2813,369.4688 Q1471.75,369.3438 1471.2656,369.3438 Q1470.0938,369.3438 1469.3906,369.875 Q1468.6875,370.4063 1468.3906,371.3594 Q1468.0938,372.3125 1468.0938,373.5781 Q1468.0938,375.5938 1468.8125,376.5625 Q1469.5313,377.5156 1471.125,377.5156 Q1471.7188,377.5156 1472.3438,377.3594 Q1472.9688,377.2031 1473.7969,376.8281 L1473.7969,379.0469 Q1473.0625,379.3594 1472.2656,379.5156 Q1471.4844,379.6719 1470.7188,379.6719 Z " fill="#000000"/><text fill="#000000" font-family="sans-serif" font-size="14" lengthAdjust="spacing" textLength="170" x="1491.75" y="378.432">RegressionModelMapper</text><line style="stroke:#181818;stroke-width:0.5;" x1="1416" x2="1705" y1="389" y2="389"/><line style="stroke:#181818;stroke-width:0.5;" x1="1416" x2="1705" y1="397" y2="397"/><text fill="#000000" font-family="sans-serif" font-size="14" lengthAdjust="spacing" textLength="279" x="1421" y="415.9659">+toDTO(regressionModel, analysisReport)</text></g><!--link AnalyseDealsUI to AnalyseDealsController--><g id="link_AnalyseDealsUI_AnalyseDealsController"><path codeLine="109" d="M1573.57,55.45 C1528.58,71.45 1467.08,93.32 1410.35,113.49 " fill="none" id="AnalyseDealsUI-to-AnalyseDealsController" style="stroke:#181818;stroke-width:1.0;stroke-dasharray:7.0,7.0;"/><polygon fill="#181818" points="1405.95,115.06,1415.77,115.8132,1410.661,113.3847,1413.0895,108.2756,1405.95,115.06" style="stroke:#181818;stroke-width:1.0;"/></g><!--link AnalyseDealsUI to RegressionModelDTO--><g id="link_AnalyseDealsUI_RegressionModelDTO"><path codeLine="110" d="M1649.94,55.31 C1679.13,120.52 1759.5,300 1759.5,300 C1759.5,300 1774.5,511 1774.5,511 C1774.5,511 1774.5,530 1774.5,530 C1774.5,530 1772.6,540.31 1770.16,553.6 " fill="none" id="AnalyseDealsUI-to-RegressionModelDTO" style="stroke:#181818;stroke-width:1.0;stroke-dasharray:7.0,7.0;"/><polygon fill="#181818" points="1769.27,558.4,1774.8487,550.2835,1770.1845,553.4843,1766.9837,548.8202,1769.27,558.4" style="stroke:#181818;stroke-width:1.0;"/></g><!--link AnalyseDealsController to Repositories--><g id="link_AnalyseDealsController_Repositories"><path codeLine="112" d="M1051.09,221.45 C905.8,257.84 737.5,300 737.5,300 C737.5,300 692.99,320.02 646.06,341.12 " fill="none" id="AnalyseDealsController-to-Repositories" style="stroke:#181818;stroke-width:1.0;stroke-dasharray:7.0,7.0;"/><polygon fill="#181818" points="641.71,343.08,651.5588,343.0344,646.2696,341.0282,648.2758,335.739,641.71,343.08" style="stroke:#181818;stroke-width:1.0;"/><text fill="#000000" font-family="sans-serif" font-size="13" lengthAdjust="spacing" textLength="71" x="921.5" y="265.897">repositories</text></g><!--link AnalyseDealsController to OrderRepository--><g id="link_AnalyseDealsController_OrderRepository"><path codeLine="113" d="M929.61,220.66 C694.5,257.23 419.5,300 419.5,300 C419.5,300 415.37,301.72 408.27,304.68 " fill="none" id="AnalyseDealsController-to-OrderRepository" style="stroke:#181818;stroke-width:1.0;stroke-dasharray:7.0,7.0;"/><polygon fill="#181818" points="403.67,306.59,413.5155,306.8467,408.2904,304.6791,410.458,299.454,403.67,306.59" style="stroke:#181818;stroke-width:1.0;"/><text fill="#000000" font-family="sans-serif" font-size="13" lengthAdjust="spacing" textLength="98" x="715.5" y="265.897">orderRepository</text></g><!--link AnalyseDealsController to DealAnalysis--><g id="link_AnalyseDealsController_DealAnalysis"><path codeLine="114" d="M1213.48,221.36 C1189.5,248.97 1159.57,283.45 1133.07,313.98 " fill="none" id="AnalyseDealsController-to-DealAnalysis" style="stroke:#181818;stroke-width:1.0;stroke-dasharray:7.0,7.0;"/><polygon fill="#181818" points="1129.84,317.7,1138.7511,313.5057,1133.1092,313.9168,1132.6981,308.275,1129.84,317.7" style="stroke:#181818;stroke-width:1.0;"/><text fill="#000000" font-family="sans-serif" font-size="13" lengthAdjust="spacing" textLength="73" x="1186.5" y="265.897">dealAnalysis</text></g><!--link AnalyseDealsController to RegressionModelMapper--><g id="link_AnalyseDealsController_RegressionModelMapper"><path codeLine="115" d="M1329.69,221.36 C1385.32,261.89 1461.24,317.19 1510.57,353.13 " fill="none" id="AnalyseDealsController-to-RegressionModelMapper" style="stroke:#181818;stroke-width:1.0;stroke-dasharray:7.0,7.0;"/><polygon fill="#181818" points="1514.33,355.87,1509.4076,347.3394,1510.2876,352.9274,1504.6996,353.8074,1514.33,355.87" style="stroke:#181818;stroke-width:1.0;"/></g><!--link AnalyseDealsController to RegressionModelDTO--><g id="link_AnalyseDealsController_RegressionModelDTO"><path codeLine="116" d="M1443.62,221.45 C1573.29,257.84 1723.5,300 1723.5,300 C1723.5,300 1742.36,463.21 1752.78,553.35 " fill="none" id="AnalyseDealsController-to-RegressionModelDTO" style="stroke:#181818;stroke-width:1.0;stroke-dasharray:7.0,7.0;"/><polygon fill="#181818" points="1753.34,558.21,1756.2861,548.8121,1752.769,553.2427,1748.3384,549.7256,1753.34,558.21" style="stroke:#181818;stroke-width:1.0;"/></g><!--link RegressionModelMapper to RegressionModelDTO--><g id="link_RegressionModelMapper_RegressionModelDTO"><path codeLine="118" d="M1590.29,424.44 C1621.4,458.83 1670.79,513.43 1708.19,554.78 " fill="none" id="RegressionModelMapper-to-RegressionModelDTO" style="stroke:#181818;stroke-width:1.0;stroke-dasharray:7.0,7.0;"/><polygon fill="#181818" points="1711.45,558.38,1708.3846,549.0204,1708.0981,554.6699,1702.4485,554.3835,1711.45,558.38" style="stroke:#181818;stroke-width:1.0;"/></g><!--link RegressionModelMapper to RegressionModel--><g id="link_RegressionModelMapper_RegressionModel"><path codeLine="119" d="M1535.8,424.44 C1507.98,461.53 1462.54,522.11 1430.95,564.24 " fill="none" id="RegressionModelMapper-to-RegressionModel" style="stroke:#181818;stroke-width:1.0;stroke-dasharray:7.0,7.0;"/><polygon fill="#181818" points="1428.07,568.07,1436.67,563.27,1431.07,564.07,1430.27,558.47,1428.07,568.07" style="stroke:#181818;stroke-width:1.0;"/></g><!--link Repositories to Repositories--><g id="link_Repositories_Repositories"><path codeLine="121" d="M640.29,367.13 C660.55,369.76 675,377.55 675,390.5 C675,402.03 663.54,409.47 646.72,412.82 " fill="none" id="Repositories-to-Repositories" style="stroke:#181818;stroke-width:1.0;"/><polygon fill="#181818" points="641.79,413.63,651.3135,416.1407,646.7258,412.8311,650.0353,408.2434,641.79,413.63" style="stroke:#181818;stroke-width:1.0;"/><text fill="#000000" font-family="sans-serif" font-size="13" lengthAdjust="spacing" textLength="50" x="681" y="395.897">instance</text></g><!--link DealAnalysis to RegressionModel--><g id="link_DealAnalysis_RegressionModel"><path codeLine="123" d="M1173.09,462.32 C1223.48,496.12 1282.33,535.59 1326.83,565.44 " fill="none" id="DealAnalysis-to-RegressionModel" style="stroke:#181818;stroke-width:1.0;"/><polygon fill="#181818" points="1330.93,568.19,1325.6801,559.857,1326.7763,565.4066,1321.2267,566.5028,1330.93,568.19" style="stroke:#181818;stroke-width:1.0;"/><text fill="#000000" font-family="sans-serif" font-size="13" lengthAdjust="spacing" textLength="101" x="1271.5" y="525.897">regressionModel</text></g><!--reverse link RegressionModel to SimpleLinearModel--><g id="link_RegressionModel_SimpleLinearModel"><path codeLine="125" d="M1362.97,674.62 C1350.7,697.67 1335.92,725.44 1320.35,754.69 " fill="none" id="RegressionModel-backto-SimpleLinearModel" style="stroke:#181818;stroke-width:1.0;stroke-dasharray:7.0,7.0;"/><polygon fill="none" points="1356.77,671.37,1372.35,657,1369.13,677.95,1356.77,671.37" style="stroke:#181818;stroke-width:1.0;"/></g><!--reverse link RegressionModel to MultipleLinearModel--><g id="link_RegressionModel_MultipleLinearModel"><path codeLine="126" d="M1428.14,674.5 C1436.32,689.8 1445.62,707.19 1455.54,725.72 " fill="none" id="RegressionModel-backto-MultipleLinearModel" style="stroke:#181818;stroke-width:1.0;stroke-dasharray:7.0,7.0;"/><polygon fill="none" points="1422.04,677.94,1418.77,657,1434.38,671.34,1422.04,677.94" style="stroke:#181818;stroke-width:1.0;"/></g><!--SRC=[jLRRRjiu47tNL_0j3ZO9-bmi2YYssXgDBv2KHOkYC5XgR7DBaoevwbPD- -zBsP8bKRJJPB5wqyoSkHwISs6-S9bJJNTafwHYMwrsG50N4BIQdB8lT0C9bWA81ePKRaJNm6nfflxXSaFML9YkHd09MEP0SYNAwYUuy2YLHXLqK4nGOq94pJyN25EcPC9_07aH11S2raXG4SqtMoGPhzBXIWR17aD2IKLfO08sZ_kfJpfM4hKI0lH3GEptnmdjIEaCT0ovCXoLBYzhwmtW0S1DWXIvGSxCY6sL0Hd3HeCnDf-Poa1S4LUyhCe317r53Dz8lkQCIWP_KL509u07C0nnL5q6lvf2gngQx9hoJ9KbUuxRq_XzUIFjyUSfx8fmqqAJkzd1ytNZcMRPX29DLS9tkO3Mr1l00JCD5C55FZ6_rj3hVLO8vC_ttvdF8SyxotkgzpuUwdXhRgT6k4IIH7VHE8qcgpXw4qT9CbtCLyim3cTH6iK3wsMyM4Pn-c6rZAVZg5PdglWiuEEdZv-8ByNQgeBB7e8atqjNyDqHbAv5vFp7_VyTKFb-AFhG5ncXSkYBR7gW6UJeM7ujg8RCYJBeUQrsUT7fn_6qIT1sng5KtsXAhRDHGtn61Ik4rOqLhArp3XBj_R3c6TWmqog_R_RA677JCKYgIivvU5lc2hTW3sWA1i-XxObxhUpzHWqkDMUMDWRRvFRCRCvwTKtfIdbaMiFPirmxiYUCet2WdKoJD9oFezKucgTnDD3FxsUhssWIBnQpnAyCqxUdjPRKxwRpDwjaEVw_QUroD3tFsSSuVOA3jJJC_YuCGkPaNLqfCgCwYxHMsWpoVeJ9YxkaFzBpfCRRqUMJ63wazS38PUv_vEd-WAyf0-BSgm-F9tuYv97zY_xR_V3yf_NGVGjqIwk5zhngB4DRfQkRy6hY3CRsNEi1SbxiRY7JIksCJqLnUqfdaxEBqYQnMnaOj_1ZpHnCSzwxicu7f_AGuEYIlEmPjIPE7_kHUaERf0lI14piucPtGTeRkcy4XsVKiraDxpC7DADvtcvmg6pupdDSRr_z1FRE-liXkRbvTMBzyraEI-uxRD6rUTjIss7TxV0PcDDpYtGsqNFWxW9eaLddztogdku-0R1lXTV9AUlVDgxyTlfuVJreBAzv70IzwW-MFL_xAGoyzqt-_7bpCzpJ_6QUHpRu5m00]--></g></svg>