<?xml version="1.0" encoding="us-ascii" standalone="no"?><svg xmlns="http://www.w3.org/2000/svg" xmlns:xlink="http://www.w3.org/1999/xlink" contentStyleType="text/css" height="821px" preserveAspectRatio="none" style="width:1050px;height:821px;background:#FFFFFF;" version="1.1" viewBox="0 0 1050 821" width="1050px" zoomAndPan="magnify"><defs/><g><text fill="#000000" font-family="sans-serif" font-size="14" font-weight="bold" lengthAdjust="spacing" textLength="132" x="452.25" y="24.9659">Domain Model US1</text><!--class Administrator--><g id="elem_Administrator"><rect codeLine="13" fill="#F1F1F1" height="37.0679" id="Administrator" rx="2.5" ry="2.5" style="stroke:#181818;stroke-width:0.5;" width="99" x="200" y="47.0679"/><text fill="#000000" font-family="sans-serif" font-size="14" lengthAdjust="spacing" textLength="93" x="203" y="67.0339">Administrator</text><line style="stroke:#181818;stroke-width:0.5;" x1="201" x2="298" y1="76.1358" y2="76.1358"/></g><!--class LegacySystem--><g id="elem_LegacySystem"><rect codeLine="15" fill="#F1F1F1" height="37.0679" id="LegacySystem" rx="2.5" ry="2.5" style="stroke:#181818;stroke-width:0.5;" width="100" x="199.5" y="182.0679"/><text fill="#000000" font-family="sans-serif" font-size="14" lengthAdjust="spacing" textLength="94" x="202.5" y="202.0339">LegacySystem</text><line style="stroke:#181818;stroke-width:0.5;" x1="200.5" x2="298.5" y1="211.1358" y2="211.1358"/></g><!--class Dwelling--><g id="elem_Dwelling"><rect codeLine="17" fill="#F1F1F1" height="94.2717" id="Dwelling" rx="2.5" ry="2.5" style="stroke:#181818;stroke-width:0.5;" width="141" x="734" y="528.0679"/><text fill="#000000" font-family="sans-serif" font-size="14" lengthAdjust="spacing" textLength="59" x="775" y="548.0339">Dwelling</text><line style="stroke:#181818;stroke-width:0.5;" x1="735" x2="874" y1="557.1358" y2="557.1358"/><text fill="#000000" font-family="sans-serif" font-size="14" lengthAdjust="spacing" textLength="99" x="740" y="576.1018">numBedrooms</text><text fill="#000000" font-family="sans-serif" font-size="14" lengthAdjust="spacing" textLength="104" x="740" y="595.1697">numBathrooms</text><text fill="#000000" font-family="sans-serif" font-size="14" lengthAdjust="spacing" textLength="129" x="740" y="614.2376">numParkingSpaces</text></g><!--class House--><g id="elem_House"><rect codeLine="23" fill="#F1F1F1" height="94.2717" id="House" rx="2.5" ry="2.5" style="stroke:#181818;stroke-width:0.5;" width="114" x="681.5" y="720.0679"/><text fill="#000000" font-family="sans-serif" font-size="14" lengthAdjust="spacing" textLength="42" x="717.5" y="740.0339">House</text><line style="stroke:#181818;stroke-width:0.5;" x1="682.5" x2="794.5" y1="749.1358" y2="749.1358"/><text fill="#000000" font-family="sans-serif" font-size="14" lengthAdjust="spacing" textLength="67" x="687.5" y="768.1018">basement</text><text fill="#000000" font-family="sans-serif" font-size="14" lengthAdjust="spacing" textLength="102" x="687.5" y="787.1697">inhabitableLoft</text><text fill="#000000" font-family="sans-serif" font-size="14" lengthAdjust="spacing" textLength="87" x="687.5" y="806.2376">sunExposure</text></g><!--class Commission--><g id="elem_Commission"><rect codeLine="29" fill="#F1F1F1" height="75.2038" id="Commission" rx="2.5" ry="2.5" style="stroke:#181818;stroke-width:0.5;" width="139" x="239" y="336.0679"/><text fill="#000000" font-family="sans-serif" font-size="14" lengthAdjust="spacing" textLength="82" x="267.5" y="356.0339">Commission</text><line style="stroke:#181818;stroke-width:0.5;" x1="240" x2="377" y1="365.1358" y2="365.1358"/><text fill="#000000" font-family="sans-serif" font-size="14" lengthAdjust="spacing" textLength="127" x="245" y="384.1018">typeOfCommission</text><text fill="#000000" font-family="sans-serif" font-size="14" lengthAdjust="spacing" textLength="117" x="245" y="403.1697">commissionValue</text></g><!--class Agency--><g id="elem_Agency"><rect codeLine="34" fill="#F1F1F1" height="113.3396" id="Agency" rx="2.5" ry="2.5" style="stroke:#181818;stroke-width:0.5;" width="111" x="7" y="317.0679"/><text fill="#000000" font-family="sans-serif" font-size="14" lengthAdjust="spacing" textLength="49" x="38" y="337.0339">Agency</text><line style="stroke:#181818;stroke-width:0.5;" x1="8" x2="117" y1="346.1358" y2="346.1358"/><text fill="#000000" font-family="sans-serif" font-size="14" lengthAdjust="spacing" textLength="13" x="13" y="365.1018">id</text><text fill="#000000" font-family="sans-serif" font-size="14" lengthAdjust="spacing" textLength="80" x="13" y="384.1697">designation</text><text fill="#000000" font-family="sans-serif" font-size="14" lengthAdjust="spacing" textLength="92" x="13" y="403.2376">emailAddress</text><text fill="#000000" font-family="sans-serif" font-size="14" lengthAdjust="spacing" textLength="99" x="13" y="422.3055">phoneNumber</text></g><!--class Address--><g id="elem_Address"><rect codeLine="41" fill="#F1F1F1" height="132.4075" id="Address" rx="2.5" ry="2.5" style="stroke:#181818;stroke-width:0.5;" width="104" x="594.5" y="509.0679"/><text fill="#000000" font-family="sans-serif" font-size="14" lengthAdjust="spacing" textLength="55" x="619" y="529.0339">Address</text><line style="stroke:#181818;stroke-width:0.5;" x1="595.5" x2="697.5" y1="538.1358" y2="538.1358"/><text fill="#000000" font-family="sans-serif" font-size="14" lengthAdjust="spacing" textLength="39" x="600.5" y="557.1018">street</text><text fill="#000000" font-family="sans-serif" font-size="14" lengthAdjust="spacing" textLength="63" x="600.5" y="576.1697">cityName</text><text fill="#000000" font-family="sans-serif" font-size="14" lengthAdjust="spacing" textLength="87" x="600.5" y="595.2376">districtName</text><text fill="#000000" font-family="sans-serif" font-size="14" lengthAdjust="spacing" textLength="92" x="600.5" y="614.3055">stateAcronym</text><text fill="#000000" font-family="sans-serif" font-size="14" lengthAdjust="spacing" textLength="54" x="600.5" y="633.3734">zipCode</text></g><!--class PropertyType--><g id="elem_PropertyType"><rect codeLine="49" fill="#F1F1F1" height="56.1358" id="PropertyType" rx="2.5" ry="2.5" style="stroke:#181818;stroke-width:0.5;" width="102" x="463.5" y="172.5679"/><text fill="#000000" font-family="sans-serif" font-size="14" lengthAdjust="spacing" textLength="89" x="470" y="192.5339">PropertyType</text><line style="stroke:#181818;stroke-width:0.5;" x1="464.5" x2="564.5" y1="201.6358" y2="201.6358"/><text fill="#000000" font-family="sans-serif" font-size="14" lengthAdjust="spacing" textLength="90" x="469.5" y="220.6018">propertyType</text></g><!--class Lease--><g id="elem_Lease"><rect codeLine="53" fill="#F1F1F1" height="75.2038" id="Lease" rx="2.5" ry="2.5" style="stroke:#181818;stroke-width:0.5;" width="126" x="672.5" y="163.0679"/><text fill="#000000" font-family="sans-serif" font-size="14" lengthAdjust="spacing" textLength="38" x="716.5" y="183.0339">Lease</text><line style="stroke:#181818;stroke-width:0.5;" x1="673.5" x2="797.5" y1="192.1358" y2="192.1358"/><text fill="#000000" font-family="sans-serif" font-size="14" lengthAdjust="spacing" textLength="72" x="678.5" y="211.1018">leaseValue</text><text fill="#000000" font-family="sans-serif" font-size="14" lengthAdjust="spacing" textLength="114" x="678.5" y="230.1697">contractDuration</text></g><!--class Sale--><g id="elem_Sale"><rect codeLine="58" fill="#F1F1F1" height="56.1358" id="Sale" rx="2.5" ry="2.5" style="stroke:#181818;stroke-width:0.5;" width="76" x="877.5" y="172.5679"/><text fill="#000000" font-family="sans-serif" font-size="14" lengthAdjust="spacing" textLength="28" x="901.5" y="192.5339">Sale</text><line style="stroke:#181818;stroke-width:0.5;" x1="878.5" x2="952.5" y1="201.6358" y2="201.6358"/><text fill="#000000" font-family="sans-serif" font-size="14" lengthAdjust="spacing" textLength="64" x="883.5" y="220.6018">saleValue</text></g><!--class Property--><g id="elem_Property"><rect codeLine="62" fill="#F1F1F1" height="94.2717" id="Property" rx="2.5" ry="2.5" style="stroke:#181818;stroke-width:0.5;" width="138" x="641.5" y="326.5679"/><text fill="#000000" font-family="sans-serif" font-size="14" lengthAdjust="spacing" textLength="57" x="682" y="346.5339">Property</text><line style="stroke:#181818;stroke-width:0.5;" x1="642.5" x2="778.5" y1="355.6358" y2="355.6358"/><text fill="#000000" font-family="sans-serif" font-size="14" lengthAdjust="spacing" textLength="30" x="647.5" y="374.6018">area</text><text fill="#000000" font-family="sans-serif" font-size="14" lengthAdjust="spacing" textLength="126" x="647.5" y="393.6697">cityCenterDistance</text><text fill="#000000" font-family="sans-serif" font-size="14" lengthAdjust="spacing" textLength="34" x="647.5" y="412.7376">price</text></g><!--class Person--><g id="elem_Person"><rect codeLine="68" fill="#F1F1F1" height="132.4075" id="Person" rx="2.5" ry="2.5" style="stroke:#181818;stroke-width:0.5;" width="136" x="110.5" y="509.0679"/><text fill="#000000" font-family="sans-serif" font-size="14" lengthAdjust="spacing" textLength="46" x="155.5" y="529.0339">Person</text><line style="stroke:#181818;stroke-width:0.5;" x1="111.5" x2="245.5" y1="538.1358" y2="538.1358"/><text fill="#000000" font-family="sans-serif" font-size="14" lengthAdjust="spacing" textLength="38" x="116.5" y="557.1018">name</text><text fill="#000000" font-family="sans-serif" font-size="14" lengthAdjust="spacing" textLength="124" x="116.5" y="576.1697">passportCardNum</text><text fill="#000000" font-family="sans-serif" font-size="14" lengthAdjust="spacing" textLength="76" x="116.5" y="595.2376">taxNumber</text><text fill="#000000" font-family="sans-serif" font-size="14" lengthAdjust="spacing" textLength="92" x="116.5" y="614.3055">emailAddress</text><text fill="#000000" font-family="sans-serif" font-size="14" lengthAdjust="spacing" textLength="99" x="116.5" y="633.3734">phoneNumber</text></g><!--class Owner--><g id="elem_Owner"><rect codeLine="76" fill="#F1F1F1" height="37.0679" id="Owner" rx="2.5" ry="2.5" style="stroke:#181818;stroke-width:0.5;" width="51" x="153" y="355.0679"/><text fill="#000000" font-family="sans-serif" font-size="14" lengthAdjust="spacing" textLength="45" x="156" y="375.0339">Owner</text><line style="stroke:#181818;stroke-width:0.5;" x1="154" x2="203" y1="384.1358" y2="384.1358"/></g><!--class Equipment--><g id="elem_Equipment"><rect codeLine="78" fill="#F1F1F1" height="37.0679" id="Equipment" rx="2.5" ry="2.5" style="stroke:#181818;stroke-width:0.5;" width="80" x="830.5" y="748.5679"/><text fill="#000000" font-family="sans-serif" font-size="14" lengthAdjust="spacing" textLength="74" x="833.5" y="768.5339">Equipment</text><line style="stroke:#181818;stroke-width:0.5;" x1="831.5" x2="909.5" y1="777.6358" y2="777.6358"/></g><!--link LegacySystem to Property--><g id="link_LegacySystem_Property"><path codeLine="80" d="M288.55,219.4679 C328.57,237.5179 392.78,265.6979 449.5,287.0679 C513.75,311.2779 588.3,335.2979 641.24,351.6879 " fill="none" id="LegacySystem-Property" style="stroke:#181818;stroke-width:1.0;"/><polygon fill="#000000" points="459.1818,279.6761,451.744,273.7491,449.6807,279.2529,459.1818,279.6761" style="stroke:#000000;stroke-width:1.0;"/><text fill="#000000" font-family="sans-serif" font-size="13" lengthAdjust="spacing" textLength="51" x="463.5" y="282.9649">contains</text><text fill="#000000" font-family="sans-serif" font-size="13" lengthAdjust="spacing" textLength="7" x="291.5484" y="241.1609">1</text><text fill="#000000" font-family="sans-serif" font-size="13" lengthAdjust="spacing" textLength="7" x="626.2819" y="345.2859">1</text></g><!--link LegacySystem to Owner--><g id="link_LegacySystem_Owner"><path codeLine="81" d="M232.62,219.3379 C221.55,231.9779 207.66,249.8779 199.5,268.0679 C186.63,296.7779 181.59,333.4379 179.66,354.8279 " fill="none" id="LegacySystem-Owner" style="stroke:#181818;stroke-width:1.0;"/><polygon fill="#000000" points="202.6797,282.5778,208.7099,275.2234,203.2354,273.0835,202.6797,282.5778" style="stroke:#000000;stroke-width:1.0;"/><text fill="#000000" font-family="sans-serif" font-size="13" lengthAdjust="spacing" textLength="51" x="213.5" y="282.9649">contains</text><text fill="#000000" font-family="sans-serif" font-size="13" lengthAdjust="spacing" textLength="7" x="219.8881" y="240.9944">1</text><text fill="#000000" font-family="sans-serif" font-size="13" lengthAdjust="spacing" textLength="7" x="171.9141" y="343.1439">1</text></g><!--link LegacySystem to Agency--><g id="link_LegacySystem_Agency"><path codeLine="82" d="M199.16,218.3279 C172.39,229.2079 140.38,245.5879 117.5,268.0679 C103.61,281.7179 92.45,299.6279 83.91,316.7579 " fill="none" id="LegacySystem-Agency" style="stroke:#181818;stroke-width:1.0;"/><polygon fill="#000000" points="118.6979,281.1681,127.4846,277.5287,123.6673,273.0591,118.6979,281.1681" style="stroke:#000000;stroke-width:1.0;"/><text fill="#000000" font-family="sans-serif" font-size="13" lengthAdjust="spacing" textLength="51" x="131.5" y="282.9649">contains</text><text fill="#000000" font-family="sans-serif" font-size="13" lengthAdjust="spacing" textLength="7" x="184.5888" y="216.572">1</text><text fill="#000000" font-family="sans-serif" font-size="13" lengthAdjust="spacing" textLength="7" x="79.2047" y="305.3106">1</text></g><!--link LegacySystem to Commission--><g id="link_LegacySystem_Commission"><path codeLine="83" d="M255.7,219.5479 C265.17,246.9879 283.43,299.8979 295.79,335.7279 " fill="none" id="LegacySystem-Commission" style="stroke:#181818;stroke-width:1.0;"/><polygon fill="#000000" points="285.131,282.6474,284.9587,273.1384,279.4023,275.0558,285.131,282.6474" style="stroke:#000000;stroke-width:1.0;"/><text fill="#000000" font-family="sans-serif" font-size="13" lengthAdjust="spacing" textLength="51" x="292.5" y="282.9649">contains</text><text fill="#000000" font-family="sans-serif" font-size="13" lengthAdjust="spacing" textLength="7" x="249.4256" y="240.9159">1</text><text fill="#000000" font-family="sans-serif" font-size="13" lengthAdjust="spacing" textLength="7" x="285.8013" y="324.1273">1</text></g><!--link Administrator to LegacySystem--><g id="link_Administrator_LegacySystem"><path codeLine="85" d="M249.5,84.5079 C249.5,110.0279 249.5,156.5479 249.5,181.9179 " fill="none" id="Administrator-LegacySystem" style="stroke:#181818;stroke-width:1.0;"/><polygon fill="#000000" points="254.5,128.9209,257.4389,119.8758,251.5611,119.8758,254.5,128.9209" style="stroke:#000000;stroke-width:1.0;"/><text fill="#000000" font-family="sans-serif" font-size="13" lengthAdjust="spacing" textLength="47" x="263.5" y="128.9649">imports</text><text fill="#000000" font-family="sans-serif" font-size="13" lengthAdjust="spacing" textLength="7" x="241.5594" y="105.8652">1</text><text fill="#000000" font-family="sans-serif" font-size="13" lengthAdjust="spacing" textLength="7" x="241.3844" y="170.2626">1</text></g><!--link Property to Address--><g id="link_Property_Address"><path codeLine="87" d="M689.53,420.6579 C684.22,433.2779 678.8,447.0679 674.5,460.0679 C669.34,475.6379 664.66,492.6979 660.67,508.7579 " fill="none" id="Property-Address" style="stroke:#181818;stroke-width:1.0;"/><polygon fill="#000000" points="677.9435,474.6725,683.5521,466.9917,677.9664,465.1619,677.9435,474.6725" style="stroke:#000000;stroke-width:1.0;"/><text fill="#000000" font-family="sans-serif" font-size="13" lengthAdjust="spacing" textLength="59" x="688.5" y="474.9649">located at</text><text fill="#000000" font-family="sans-serif" font-size="13" lengthAdjust="spacing" textLength="7" x="678.936" y="442.7516">1</text><text fill="#000000" font-family="sans-serif" font-size="13" lengthAdjust="spacing" textLength="7" x="654.837" y="497.4889">1</text></g><!--reverse link Property to Dwelling--><g id="link_Property_Dwelling"><path codeLine="88" d="M742.99,440.2179 C746.23,446.9079 749.44,453.6179 752.5,460.0679 C762.97,482.1879 774.28,506.8779 783.67,527.6179 " fill="none" id="Property-backto-Dwelling" style="stroke:#181818;stroke-width:1.0;"/><polygon fill="none" points="736.77,443.4479,734.29,422.4079,749.36,437.3079,736.77,443.4479" style="stroke:#181818;stroke-width:1.0;"/></g><!--link PropertyType to Property--><g id="link_PropertyType_Property"><path codeLine="90" d="M514.96,228.8479 C516.58,247.0679 521.37,270.6379 534.5,287.0679 C561.22,320.5079 604.27,341.7379 641.11,354.6879 " fill="none" id="PropertyType-Property" style="stroke:#181818;stroke-width:1.0;"/><polygon fill="#000000" points="535.9601,274.3897,540.2882,282.8584,544.4394,278.697,535.9601,274.3897" style="stroke:#000000;stroke-width:1.0;"/><text fill="#000000" font-family="sans-serif" font-size="13" lengthAdjust="spacing" textLength="88" x="548.5" y="282.9649">categorized by</text><text fill="#000000" font-family="sans-serif" font-size="13" lengthAdjust="spacing" textLength="7" x="507.333" y="250.3896">1</text><text fill="#000000" font-family="sans-serif" font-size="13" lengthAdjust="spacing" textLength="20" x="613.5431" y="367.6163">1..*</text></g><!--link Lease to Property--><g id="link_Lease_Property"><path codeLine="92" d="M731.07,238.2179 C729.16,253.3579 726.84,271.0779 724.5,287.0679 C722.63,299.8679 720.44,313.7179 718.35,326.4679 " fill="none" id="Lease-Property" style="stroke:#181818;stroke-width:1.0;"/><polygon fill="#000000" points="732.2133,272.9721,728.0141,281.5054,733.8318,282.3439,732.2133,272.9721" style="stroke:#000000;stroke-width:1.0;"/><text fill="#000000" font-family="sans-serif" font-size="13" lengthAdjust="spacing" textLength="69" x="740.5" y="282.9649">classified as</text><text fill="#000000" font-family="sans-serif" font-size="13" lengthAdjust="spacing" textLength="20" x="708.5898" y="260.0901">0..*</text><text fill="#000000" font-family="sans-serif" font-size="13" lengthAdjust="spacing" textLength="7" x="712.0161" y="314.8844">1</text></g><!--link Lease to Property--><g id="link_Lease_Property"><path codeLine="93" d="M673.91,238.3379 C664.44,246.8479 656,256.7879 650.5,268.0679 C641.01,287.5279 649.01,308.3379 661.89,326.2179 " fill="none" id="Lease-Property-1" style="stroke:#181818;stroke-width:1.0;"/><polygon fill="#000000" points="654.8224,282.8748,658.96,274.3114,653.1364,273.5149,654.8224,282.8748" style="stroke:#000000;stroke-width:1.0;"/><text fill="#000000" font-family="sans-serif" font-size="13" lengthAdjust="spacing" textLength="51" x="664.5" y="282.9649">classifies</text><text fill="#000000" font-family="sans-serif" font-size="13" lengthAdjust="spacing" textLength="7" x="657.3499" y="259.0677">1</text><text fill="#000000" font-family="sans-serif" font-size="13" lengthAdjust="spacing" textLength="20" x="632.9153" y="314.5962">1..*</text></g><!--link Sale to Property--><g id="link_Sale_Property"><path codeLine="95" d="M941.94,228.7779 C955.7,246.3079 967.24,269.0979 954.5,287.0679 C915.23,342.4479 837.19,362.2279 779.9,369.1479 " fill="none" id="Sale-Property" style="stroke:#181818;stroke-width:1.0;"/><polygon fill="#000000" points="968.2792,274.6471,959.5183,278.3481,963.3669,282.7908,968.2792,274.6471" style="stroke:#000000;stroke-width:1.0;"/><text fill="#000000" font-family="sans-serif" font-size="13" lengthAdjust="spacing" textLength="69" x="973.5" y="282.9649">classified as</text><text fill="#000000" font-family="sans-serif" font-size="13" lengthAdjust="spacing" textLength="20" x="925.5363" y="250.7676">0..*</text><text fill="#000000" font-family="sans-serif" font-size="13" lengthAdjust="spacing" textLength="7" x="787.4178" y="364.735">1</text></g><!--link Sale to Property--><g id="link_Sale_Property"><path codeLine="96" d="M885.28,228.9379 C866.32,245.9279 841.24,268.0679 818.5,287.0679 C803.08,299.9479 786.16,313.5779 770.37,326.0879 " fill="none" id="Sale-Property-1" style="stroke:#181818;stroke-width:1.0;"/><polygon fill="#000000" points="840.6817,281.1491,849.4865,277.5536,845.6916,273.065,840.6817,281.1491" style="stroke:#000000;stroke-width:1.0;"/><text fill="#000000" font-family="sans-serif" font-size="13" lengthAdjust="spacing" textLength="51" x="853.5" y="282.9649">classifies</text><text fill="#000000" font-family="sans-serif" font-size="13" lengthAdjust="spacing" textLength="7" x="871.3253" y="250.4982">1</text><text fill="#000000" font-family="sans-serif" font-size="13" lengthAdjust="spacing" textLength="20" x="757.6947" y="314.7948">1..*</text></g><!--link Owner to Person--><g id="link_Owner_Person"><path codeLine="98" d="M178.5,392.2679 C178.5,413.8079 178.5,451.6979 178.5,487.3379 " fill="none" id="Owner-to-Person" style="stroke:#181818;stroke-width:1.0;"/><polygon fill="none" points="185.5,487.2679,178.5,507.2679,171.5,487.2679,185.5,487.2679" style="stroke:#181818;stroke-width:1.0;"/></g><!--link Dwelling to Equipment--><g id="link_Dwelling_Equipment"><path codeLine="100" d="M820.65,622.5479 C834.77,663.1979 854.51,720.0479 864.38,748.4479 " fill="none" id="Dwelling-Equipment" style="stroke:#181818;stroke-width:1.0;"/><polygon fill="#000000" points="849.1406,685.6441,848.949,676.1355,843.3965,678.0641,849.1406,685.6441" style="stroke:#000000;stroke-width:1.0;"/><text fill="#000000" font-family="sans-serif" font-size="13" lengthAdjust="spacing" textLength="21" x="856.5" y="685.9649">has</text><text fill="#000000" font-family="sans-serif" font-size="13" lengthAdjust="spacing" textLength="7" x="815.4289" y="644.3477">1</text><text fill="#000000" font-family="sans-serif" font-size="13" lengthAdjust="spacing" textLength="20" x="839.2418" y="736.8021">1..*</text></g><!--reverse link Dwelling to House--><g id="link_Dwelling_House"><path codeLine="101" d="M781.39,642.6079 C772.54,668.0779 762.65,696.5579 754.59,719.7379 " fill="none" id="Dwelling-backto-House" style="stroke:#181818;stroke-width:1.0;"/><polygon fill="none" points="774.68,640.5679,787.86,623.9779,787.91,645.1679,774.68,640.5679" style="stroke:#181818;stroke-width:1.0;"/></g><!--SRC=[ZLHDRzim3BthLmWv3aZHNekXG9OKs82kBP1jTqPYRA7wy2GQhRlklu-Mue-q2n1VBD6FJtoFbDEJyGr4SD857rGTWqD9iKMHnYyDg2UeS4kTHHbH4VZApW6f1XsUZQ_a7cn2CVkaBAIq8efcrn9-Ky5lpIlAIo5ger4g4nLJvRL3geDEGf0XFcWJ71WllmUDLlxSNWaXCfbSQMUyIHI1GXo2TrY1whPT8dH3RFECrd9LVuJanxVk2-eOWalZ7gW-2Zn2vCghBIl69FuEH5z3cx2mx22XGqzvOtmDEqEmitWNzYMMMd_xqeJKHfm8ri4vav89lh1Gr-33Vehce1gtly2si-nLXLvr9TFe_DAOJEM1Xbnah-nAwuYfY6dguF6-TJkCCw82A4ni86AfMHdgxi5XeUwjDOh6G28WNAaOVETouDKqQ-xAnFiOGuEHkXyigv0tiyY4kqCOVBJzikWisZttKz6cZKNKcBC5UqX9l7hdp71m0K146FMikKaODom6lC93KKRDap6ceI6v_uFWZ6L44oAj8MgsSOmJl1nS7I8Vh3zf_yEpnt5WRt-tficJ9EQpAnTN2xbSvjUWJbvdV_Ws97bp4ftPpuEMWJeFEmtfCLuSNSDvnX7JjJIkzp6dZ8BcjHJd66Y3ua7J4eYn8_Jp6mE7cpnHz8CrqLnSV3gsYucg4FbFe-MEENgFUTxauZ8Z_-DltnEpD_tnYV47-4d-0PvbzIDwFdL1dyTSUhfSljqSfbM8mOft5ECuCKSDVV88p0xcNvWG_m00]--></g></svg>