<?xml version="1.0" encoding="us-ascii" standalone="no"?><svg xmlns="http://www.w3.org/2000/svg" xmlns:xlink="http://www.w3.org/1999/xlink" contentStyleType="text/css" height="1800px" preserveAspectRatio="none" style="width:2125px;height:1800px;background:#FFFFFF;" version="1.1" viewBox="0 0 2125 1800" width="2125px" zoomAndPan="magnify"><defs/><g><rect fill="#FFFFFF" height="1612.7704" style="stroke:#181818;stroke-width:1.0;" width="10" x="37.5" y="94.0679"/><rect fill="#FFFFFF" height="448.8341" style="stroke:#181818;stroke-width:1.0;" width="10" x="360.5" y="117.7739"/><rect fill="#FFFFFF" height="31.706" style="stroke:#181818;stroke-width:1.0;" width="10" x="360.5" y="598.314"/><rect fill="#FFFFFF" height="165.5301" style="stroke:#181818;stroke-width:1.0;" width="10" x="360.5" y="688.4321"/><rect fill="#FFFFFF" height="821.1701" style="stroke:#181818;stroke-width:1.0;" width="10" x="360.5" y="885.6682"/><rect fill="#FFFFFF" height="275.01" style="stroke:#181818;stroke-width:1.0;" width="10" x="713.5" y="159.4799"/><rect fill="#FFFFFF" height="232.9421" style="stroke:#181818;stroke-width:1.0;" width="10" x="718.5" y="201.5479"/><rect fill="#FFFFFF" height="61.706" style="stroke:#181818;stroke-width:1.0;" width="10" x="713.5" y="473.196"/><rect fill="#FFFFFF" height="95.118" style="stroke:#181818;stroke-width:1.0;" width="10" x="713.5" y="720.1381"/><rect fill="#FFFFFF" height="667.3642" style="stroke:#181818;stroke-width:1.0;" width="10" x="713.5" y="917.3742"/><rect fill="#FFFFFF" height="195.2361" style="stroke:#181818;stroke-width:1.0;" width="10" x="718.5" y="957.0802"/><rect fill="#FFFFFF" height="31.706" style="stroke:#181818;stroke-width:1.0;" width="10" x="926.5" y="238.2539"/><rect fill="#FFFFFF" height="31.706" style="stroke:#181818;stroke-width:1.0;" width="10" x="1036" y="301.6659"/><rect fill="#FFFFFF" height="31.706" style="stroke:#181818;stroke-width:1.0;" width="10" x="1158" y="365.0779"/><rect fill="#FFFFFF" height="31.706" style="stroke:#181818;stroke-width:1.0;" width="10" x="1158" y="751.8441"/><rect fill="#FFFFFF" height="369.01" style="stroke:#181818;stroke-width:1.0;" width="10" x="1158" y="1184.0223"/><rect fill="#FFFFFF" height="246.5301" style="stroke:#181818;stroke-width:1.0;" width="10" x="1163" y="1267.7963"/><rect fill="#FFFFFF" height="42.706" style="stroke:#181818;stroke-width:1.0;" width="10" x="1168" y="1312.5023"/><rect fill="#FFFFFF" height="42.706" style="stroke:#181818;stroke-width:1.0;" width="10" x="1168" y="1426.9143"/><rect fill="#FFFFFF" height="31.706" style="stroke:#181818;stroke-width:1.0;" width="10" x="1559" y="993.7862"/><rect fill="#FFFFFF" height="31.706" style="stroke:#181818;stroke-width:1.0;" width="10" x="1714" y="1057.1983"/><rect fill="#FFFFFF" height="31.706" style="stroke:#181818;stroke-width:1.0;" width="10" x="1854" y="1120.6103"/><rect fill="#FFFFFF" height="30" style="stroke:#181818;stroke-width:1.0;" width="10" x="1984" y="504.902"/><rect fill="none" height="178.2361" style="stroke:#000000;stroke-width:1.5;" width="1226" x="10" y="645.0201"/><rect fill="none" height="100.0999" style="stroke:#000000;stroke-width:1.5;" width="419.5" x="10" y="1599.7384"/><line style="stroke:#181818;stroke-width:0.5;stroke-dasharray:5.0,5.0;" x1="42" x2="42" y1="84.0679" y2="1716.8383"/><line style="stroke:#181818;stroke-width:0.5;stroke-dasharray:5.0,5.0;" x1="365.5" x2="365.5" y1="84.0679" y2="1716.8383"/><line style="stroke:#181818;stroke-width:0.5;stroke-dasharray:5.0,5.0;" x1="718.5" x2="718.5" y1="157.8079" y2="1716.8383"/><line style="stroke:#181818;stroke-width:0.5;stroke-dasharray:5.0,5.0;" x1="931" x2="931" y1="84.0679" y2="1716.8383"/><line style="stroke:#181818;stroke-width:0.5;stroke-dasharray:5.0,5.0;" x1="1041" x2="1041" y1="84.0679" y2="1716.8383"/><line style="stroke:#181818;stroke-width:0.5;stroke-dasharray:5.0,5.0;" x1="1163" x2="1163" y1="84.0679" y2="1716.8383"/><line style="stroke:#181818;stroke-width:0.5;stroke-dasharray:5.0,5.0;" x1="1563.5" x2="1563.5" y1="84.0679" y2="1716.8383"/><line style="stroke:#181818;stroke-width:0.5;stroke-dasharray:5.0,5.0;" x1="1718.5" x2="1718.5" y1="84.0679" y2="1716.8383"/><line style="stroke:#181818;stroke-width:0.5;stroke-dasharray:5.0,5.0;" x1="1858.5" x2="1858.5" y1="84.0679" y2="1716.8383"/><line style="stroke:#181818;stroke-width:0.5;stroke-dasharray:5.0,5.0;" x1="1988.5" x2="1988.5" y1="84.0679" y2="1716.8383"/><line style="stroke:#181818;stroke-width:0.5;stroke-dasharray:5.0,5.0;" x1="2090.5" x2="2090.5" y1="1224.0563" y2="1716.8383"/><text fill="#000000" font-family="sans-serif" font-size="14" lengthAdjust="spacing" textLength="39" x="20" y="79.9659">Client</text><ellipse cx="42.5" cy="13.5" fill="#E3E3E3" rx="8" ry="8" style="stroke:#181818;stroke-width:0.5;"/><path d="M42.5,21.5 L42.5,48.5 M29.5,29.5 L55.5,29.5 M42.5,48.5 L29.5,63.5 M42.5,48.5 L55.5,63.5 " fill="none" style="stroke:#181818;stroke-width:0.5;"/><text fill="#000000" font-family="sans-serif" font-size="14" lengthAdjust="spacing" textLength="39" x="20" y="1730.8043">Client</text><ellipse cx="42.5" cy="1743.4063" fill="#E3E3E3" rx="8" ry="8" style="stroke:#181818;stroke-width:0.5;"/><path d="M42.5,1751.4063 L42.5,1778.4063 M29.5,1759.4063 L55.5,1759.4063 M42.5,1778.4063 L29.5,1793.4063 M42.5,1778.4063 L55.5,1793.4063 " fill="none" style="stroke:#181818;stroke-width:0.5;"/><rect fill="#E3E3E3" height="33.0679" rx="2.5" ry="2.5" style="stroke:#181818;stroke-width:0.5;" width="108" x="311.5" y="50"/><text fill="#000000" font-family="sans-serif" font-size="14" lengthAdjust="spacing" textLength="94" x="318.5" y="71.9659">:PlaceOrderUI</text><rect fill="#E3E3E3" height="33.0679" rx="2.5" ry="2.5" style="stroke:#181818;stroke-width:0.5;" width="108" x="311.5" y="1715.8383"/><text fill="#000000" font-family="sans-serif" font-size="14" lengthAdjust="spacing" textLength="94" x="318.5" y="1737.8043">:PlaceOrderUI</text><rect fill="#E3E3E3" height="33.0679" rx="2.5" ry="2.5" style="stroke:#181818;stroke-width:0.5;" width="160" x="638.5" y="1715.8383"/><text fill="#000000" font-family="sans-serif" font-size="14" lengthAdjust="spacing" textLength="146" x="645.5" y="1737.8043">:PlaceOrderController</text><rect fill="#E3E3E3" height="33.0679" rx="2.5" ry="2.5" style="stroke:#181818;stroke-width:0.5;" width="101" x="881" y="50"/><text fill="#000000" font-family="sans-serif" font-size="14" lengthAdjust="spacing" textLength="87" x="888" y="71.9659">:Repositories</text><rect fill="#E3E3E3" height="33.0679" rx="2.5" ry="2.5" style="stroke:#181818;stroke-width:0.5;" width="101" x="881" y="1715.8383"/><text fill="#000000" font-family="sans-serif" font-size="14" lengthAdjust="spacing" textLength="87" x="888" y="1737.8043">:Repositories</text><rect fill="#E3E3E3" height="52.1358" rx="2.5" ry="2.5" style="stroke:#181818;stroke-width:0.5;" width="98" x="992" y="30.9321"/><text fill="#000000" font-family="sans-serif" font-size="14" lengthAdjust="spacing" textLength="84" x="999" y="52.898">repositories:</text><text fill="#000000" font-family="sans-serif" font-size="14" lengthAdjust="spacing" textLength="83" x="999.5" y="71.9659">Repositories</text><rect fill="#E3E3E3" height="52.1358" rx="2.5" ry="2.5" style="stroke:#181818;stroke-width:0.5;" width="98" x="992" y="1715.8383"/><text fill="#000000" font-family="sans-serif" font-size="14" lengthAdjust="spacing" textLength="84" x="999" y="1737.8043">repositories:</text><text fill="#000000" font-family="sans-serif" font-size="14" lengthAdjust="spacing" textLength="83" x="999.5" y="1756.8722">Repositories</text><rect fill="#E3E3E3" height="52.1358" rx="2.5" ry="2.5" style="stroke:#181818;stroke-width:0.5;" width="126" x="1100" y="30.9321"/><text fill="#000000" font-family="sans-serif" font-size="14" lengthAdjust="spacing" textLength="112" x="1107" y="52.898">orderRepository:</text><text fill="#000000" font-family="sans-serif" font-size="14" lengthAdjust="spacing" textLength="111" x="1107.5" y="71.9659">OrderRepository</text><rect fill="#E3E3E3" height="52.1358" rx="2.5" ry="2.5" style="stroke:#181818;stroke-width:0.5;" width="126" x="1100" y="1715.8383"/><text fill="#000000" font-family="sans-serif" font-size="14" lengthAdjust="spacing" textLength="112" x="1107" y="1737.8043">orderRepository:</text><text fill="#000000" font-family="sans-serif" font-size="14" lengthAdjust="spacing" textLength="111" x="1107.5" y="1756.8722">OrderRepository</text><rect fill="#E3E3E3" height="33.0679" rx="2.5" ry="2.5" style="stroke:#181818;stroke-width:0.5;" width="145" x="1491.5" y="50"/><text fill="#000000" font-family="sans-serif" font-size="14" lengthAdjust="spacing" textLength="131" x="1498.5" y="71.9659">:ApplicationSession</text><rect fill="#E3E3E3" height="33.0679" rx="2.5" ry="2.5" style="stroke:#181818;stroke-width:0.5;" width="145" x="1491.5" y="1715.8383"/><text fill="#000000" font-family="sans-serif" font-size="14" lengthAdjust="spacing" textLength="131" x="1498.5" y="1737.8043">:ApplicationSession</text><rect fill="#E3E3E3" height="52.1358" rx="2.5" ry="2.5" style="stroke:#181818;stroke-width:0.5;" width="145" x="1646.5" y="30.9321"/><text fill="#000000" font-family="sans-serif" font-size="14" lengthAdjust="spacing" textLength="77" x="1680.5" y="52.898">appSession</text><text fill="#000000" font-family="sans-serif" font-size="14" lengthAdjust="spacing" textLength="131" x="1653.5" y="71.9659">:ApplicationSession</text><rect fill="#E3E3E3" height="52.1358" rx="2.5" ry="2.5" style="stroke:#181818;stroke-width:0.5;" width="145" x="1646.5" y="1715.8383"/><text fill="#000000" font-family="sans-serif" font-size="14" lengthAdjust="spacing" textLength="77" x="1680.5" y="1737.8043">appSession</text><text fill="#000000" font-family="sans-serif" font-size="14" lengthAdjust="spacing" textLength="131" x="1653.5" y="1756.8722">:ApplicationSession</text><rect fill="#E3E3E3" height="52.1358" rx="2.5" ry="2.5" style="stroke:#181818;stroke-width:0.5;" width="115" x="1801.5" y="30.9321"/><text fill="#000000" font-family="sans-serif" font-size="14" lengthAdjust="spacing" textLength="101" x="1808.5" y="52.898">currentSession</text><text fill="#000000" font-family="sans-serif" font-size="14" lengthAdjust="spacing" textLength="86" x="1816" y="71.9659">:UserSession</text><rect fill="#E3E3E3" height="52.1358" rx="2.5" ry="2.5" style="stroke:#181818;stroke-width:0.5;" width="115" x="1801.5" y="1715.8383"/><text fill="#000000" font-family="sans-serif" font-size="14" lengthAdjust="spacing" textLength="101" x="1808.5" y="1737.8043">currentSession</text><text fill="#000000" font-family="sans-serif" font-size="14" lengthAdjust="spacing" textLength="86" x="1816" y="1756.8722">:UserSession</text><rect fill="#E3E3E3" height="33.0679" rx="2.5" ry="2.5" style="stroke:#181818;stroke-width:0.5;" width="125" x="1926.5" y="50"/><text fill="#000000" font-family="sans-serif" font-size="14" lengthAdjust="spacing" textLength="111" x="1933.5" y="71.9659">:ListPropertiesUI</text><rect fill="#E3E3E3" height="33.0679" rx="2.5" ry="2.5" style="stroke:#181818;stroke-width:0.5;" width="125" x="1926.5" y="1715.8383"/><text fill="#000000" font-family="sans-serif" font-size="14" lengthAdjust="spacing" textLength="111" x="1933.5" y="1737.8043">:ListPropertiesUI</text><rect fill="#E3E3E3" height="33.0679" rx="2.5" ry="2.5" style="stroke:#181818;stroke-width:0.5;" width="58" x="2061.5" y="1715.8383"/><text fill="#000000" font-family="sans-serif" font-size="14" lengthAdjust="spacing" textLength="44" x="2068.5" y="1737.8043">:Order</text><rect fill="#FFFFFF" height="1612.7704" style="stroke:#181818;stroke-width:1.0;" width="10" x="37.5" y="94.0679"/><rect fill="#FFFFFF" height="448.8341" style="stroke:#181818;stroke-width:1.0;" width="10" x="360.5" y="117.7739"/><rect fill="#FFFFFF" height="31.706" style="stroke:#181818;stroke-width:1.0;" width="10" x="360.5" y="598.314"/><rect fill="#FFFFFF" height="165.5301" style="stroke:#181818;stroke-width:1.0;" width="10" x="360.5" y="688.4321"/><rect fill="#FFFFFF" height="821.1701" style="stroke:#181818;stroke-width:1.0;" width="10" x="360.5" y="885.6682"/><rect fill="#FFFFFF" height="275.01" style="stroke:#181818;stroke-width:1.0;" width="10" x="713.5" y="159.4799"/><rect fill="#FFFFFF" height="232.9421" style="stroke:#181818;stroke-width:1.0;" width="10" x="718.5" y="201.5479"/><rect fill="#FFFFFF" height="61.706" style="stroke:#181818;stroke-width:1.0;" width="10" x="713.5" y="473.196"/><rect fill="#FFFFFF" height="95.118" style="stroke:#181818;stroke-width:1.0;" width="10" x="713.5" y="720.1381"/><rect fill="#FFFFFF" height="667.3642" style="stroke:#181818;stroke-width:1.0;" width="10" x="713.5" y="917.3742"/><rect fill="#FFFFFF" height="195.2361" style="stroke:#181818;stroke-width:1.0;" width="10" x="718.5" y="957.0802"/><rect fill="#FFFFFF" height="31.706" style="stroke:#181818;stroke-width:1.0;" width="10" x="926.5" y="238.2539"/><rect fill="#FFFFFF" height="31.706" style="stroke:#181818;stroke-width:1.0;" width="10" x="1036" y="301.6659"/><rect fill="#FFFFFF" height="31.706" style="stroke:#181818;stroke-width:1.0;" width="10" x="1158" y="365.0779"/><rect fill="#FFFFFF" height="31.706" style="stroke:#181818;stroke-width:1.0;" width="10" x="1158" y="751.8441"/><rect fill="#FFFFFF" height="369.01" style="stroke:#181818;stroke-width:1.0;" width="10" x="1158" y="1184.0223"/><rect fill="#FFFFFF" height="246.5301" style="stroke:#181818;stroke-width:1.0;" width="10" x="1163" y="1267.7963"/><rect fill="#FFFFFF" height="42.706" style="stroke:#181818;stroke-width:1.0;" width="10" x="1168" y="1312.5023"/><rect fill="#FFFFFF" height="42.706" style="stroke:#181818;stroke-width:1.0;" width="10" x="1168" y="1426.9143"/><rect fill="#FFFFFF" height="31.706" style="stroke:#181818;stroke-width:1.0;" width="10" x="1559" y="993.7862"/><rect fill="#FFFFFF" height="31.706" style="stroke:#181818;stroke-width:1.0;" width="10" x="1714" y="1057.1983"/><rect fill="#FFFFFF" height="31.706" style="stroke:#181818;stroke-width:1.0;" width="10" x="1854" y="1120.6103"/><rect fill="#FFFFFF" height="30" style="stroke:#181818;stroke-width:1.0;" width="10" x="1984" y="504.902"/><polygon fill="#181818" points="348.5,113.7739,358.5,117.7739,348.5,121.7739,352.5,117.7739" style="stroke:#181818;stroke-width:1.0;"/><line style="stroke:#181818;stroke-width:1.0;" x1="47.5" x2="354.5" y1="117.7739" y2="117.7739"/><text fill="#000000" font-family="sans-serif" font-size="13" font-weight="bold" lengthAdjust="spacing" textLength="7" x="54.5" y="111.9649">1</text><text fill="#000000" font-family="sans-serif" font-size="13" lengthAdjust="spacing" textLength="260" x="65.5" y="111.9649">asks to place an order to purchase property</text><polygon fill="#181818" points="626.5,145.4799,636.5,149.4799,626.5,153.4799,630.5,149.4799" style="stroke:#181818;stroke-width:1.0;"/><line style="stroke:#181818;stroke-width:1.0;" x1="370.5" x2="632.5" y1="149.4799" y2="149.4799"/><text fill="#000000" font-family="sans-serif" font-size="13" font-weight="bold" lengthAdjust="spacing" textLength="7" x="377.5" y="143.6709">2</text><text fill="#000000" font-family="sans-serif" font-size="13" lengthAdjust="spacing" textLength="37" x="388.5" y="143.6709">create</text><rect fill="#E3E3E3" height="33.0679" rx="2.5" ry="2.5" style="stroke:#181818;stroke-width:0.5;" width="160" x="638.5" y="125.7739"/><text fill="#000000" font-family="sans-serif" font-size="14" lengthAdjust="spacing" textLength="146" x="645.5" y="147.7399">:PlaceOrderController</text><line style="stroke:#181818;stroke-width:1.0;" x1="723.5" x2="770.5" y1="188.5479" y2="188.5479"/><line style="stroke:#181818;stroke-width:1.0;" x1="770.5" x2="770.5" y1="188.5479" y2="201.5479"/><line style="stroke:#181818;stroke-width:1.0;" x1="729.5" x2="770.5" y1="201.5479" y2="201.5479"/><polygon fill="#181818" points="739.5,197.5479,729.5,201.5479,739.5,205.5479,735.5,201.5479" style="stroke:#181818;stroke-width:1.0;"/><text fill="#000000" font-family="sans-serif" font-size="13" font-weight="bold" lengthAdjust="spacing" textLength="7" x="735.5" y="182.7389">3</text><text fill="#000000" font-family="sans-serif" font-size="13" lengthAdjust="spacing" textLength="69" x="746.5" y="182.7389">getOrders()</text><polygon fill="#181818" points="914.5,234.2539,924.5,238.2539,914.5,242.2539,918.5,238.2539" style="stroke:#181818;stroke-width:1.0;"/><line style="stroke:#181818;stroke-width:1.0;" x1="728.5" x2="920.5" y1="238.2539" y2="238.2539"/><text fill="#000000" font-family="sans-serif" font-size="13" font-weight="bold" lengthAdjust="spacing" textLength="7" x="735.5" y="232.4449">4</text><text fill="#000000" font-family="sans-serif" font-size="13" lengthAdjust="spacing" textLength="79" x="746.5" y="232.4449">getInstance()</text><polygon fill="#181818" points="739.5,265.9599,729.5,269.9599,739.5,273.9599,735.5,269.9599" style="stroke:#181818;stroke-width:1.0;"/><line style="stroke:#181818;stroke-width:1.0;stroke-dasharray:2.0,2.0;" x1="733.5" x2="930.5" y1="269.9599" y2="269.9599"/><text fill="#000000" font-family="sans-serif" font-size="13" font-weight="bold" lengthAdjust="spacing" textLength="7" x="745.5" y="264.1509">5</text><text fill="#000000" font-family="sans-serif" font-size="13" lengthAdjust="spacing" textLength="71" x="756.5" y="264.1509">repositories</text><polygon fill="#181818" points="1024,297.6659,1034,301.6659,1024,305.6659,1028,301.6659" style="stroke:#181818;stroke-width:1.0;"/><line style="stroke:#181818;stroke-width:1.0;" x1="728.5" x2="1030" y1="301.6659" y2="301.6659"/><text fill="#000000" font-family="sans-serif" font-size="13" font-weight="bold" lengthAdjust="spacing" textLength="7" x="735.5" y="295.8569">6</text><text fill="#000000" font-family="sans-serif" font-size="13" lengthAdjust="spacing" textLength="128" x="746.5" y="295.8569">getOrderRepository()</text><polygon fill="#181818" points="739.5,329.3719,729.5,333.3719,739.5,337.3719,735.5,333.3719" style="stroke:#181818;stroke-width:1.0;"/><line style="stroke:#181818;stroke-width:1.0;stroke-dasharray:2.0,2.0;" x1="733.5" x2="1040" y1="333.3719" y2="333.3719"/><text fill="#000000" font-family="sans-serif" font-size="13" font-weight="bold" lengthAdjust="spacing" textLength="7" x="745.5" y="327.5629">7</text><text fill="#000000" font-family="sans-serif" font-size="13" lengthAdjust="spacing" textLength="98" x="756.5" y="327.5629">orderRepository</text><polygon fill="#181818" points="1146,361.0779,1156,365.0779,1146,369.0779,1150,365.0779" style="stroke:#181818;stroke-width:1.0;"/><line style="stroke:#181818;stroke-width:1.0;" x1="728.5" x2="1152" y1="365.0779" y2="365.0779"/><text fill="#000000" font-family="sans-serif" font-size="13" font-weight="bold" lengthAdjust="spacing" textLength="7" x="735.5" y="359.2689">8</text><text fill="#000000" font-family="sans-serif" font-size="13" lengthAdjust="spacing" textLength="69" x="746.5" y="359.2689">getOrders()</text><polygon fill="#181818" points="739.5,392.784,729.5,396.784,739.5,400.784,735.5,396.784" style="stroke:#181818;stroke-width:1.0;"/><line style="stroke:#181818;stroke-width:1.0;stroke-dasharray:2.0,2.0;" x1="733.5" x2="1162" y1="396.784" y2="396.784"/><text fill="#000000" font-family="sans-serif" font-size="13" font-weight="bold" lengthAdjust="spacing" textLength="7" x="745.5" y="390.975">9</text><text fill="#000000" font-family="sans-serif" font-size="13" lengthAdjust="spacing" textLength="54" x="756.5" y="390.975">orderList</text><line style="stroke:#181818;stroke-width:1.0;stroke-dasharray:2.0,2.0;" x1="728.5" x2="770.5" y1="433.49" y2="433.49"/><line style="stroke:#181818;stroke-width:1.0;stroke-dasharray:2.0,2.0;" x1="770.5" x2="770.5" y1="433.49" y2="446.49"/><line style="stroke:#181818;stroke-width:1.0;stroke-dasharray:2.0,2.0;" x1="723.5" x2="770.5" y1="446.49" y2="446.49"/><polygon fill="#181818" points="733.5,442.49,723.5,446.49,733.5,450.49,729.5,446.49" style="stroke:#181818;stroke-width:1.0;"/><text fill="#000000" font-family="sans-serif" font-size="13" font-weight="bold" lengthAdjust="spacing" textLength="14" x="735.5" y="427.681">10</text><text fill="#000000" font-family="sans-serif" font-size="13" lengthAdjust="spacing" textLength="54" x="753.5" y="427.681">orderList</text><polygon fill="#181818" points="701.5,469.196,711.5,473.196,701.5,477.196,705.5,473.196" style="stroke:#181818;stroke-width:1.0;"/><line style="stroke:#181818;stroke-width:1.0;" x1="370.5" x2="707.5" y1="473.196" y2="473.196"/><text fill="#000000" font-family="sans-serif" font-size="13" font-weight="bold" lengthAdjust="spacing" textLength="14" x="377.5" y="467.387">11</text><text fill="#000000" font-family="sans-serif" font-size="13" lengthAdjust="spacing" textLength="112" x="395.5" y="467.387">displayProperties()</text><polygon fill="#181818" points="1972,500.902,1982,504.902,1972,508.902,1976,504.902" style="stroke:#181818;stroke-width:1.0;"/><line style="stroke:#181818;stroke-width:1.0;" x1="723.5" x2="1978" y1="504.902" y2="504.902"/><text fill="#000000" font-family="sans-serif" font-size="13" font-weight="bold" lengthAdjust="spacing" textLength="14" x="730.5" y="499.093">12</text><text fill="#000000" font-family="sans-serif" font-size="13" lengthAdjust="spacing" textLength="21" x="748.5" y="499.093">run</text><polygon fill="#181818" points="58.5,562.608,48.5,566.608,58.5,570.608,54.5,566.608" style="stroke:#181818;stroke-width:1.0;"/><line style="stroke:#181818;stroke-width:1.0;stroke-dasharray:2.0,2.0;" x1="52.5" x2="364.5" y1="566.608" y2="566.608"/><text fill="#000000" font-family="sans-serif" font-size="13" font-weight="bold" lengthAdjust="spacing" textLength="14" x="64.5" y="560.799">13</text><text fill="#000000" font-family="sans-serif" font-size="13" lengthAdjust="spacing" textLength="168" x="82.5" y="560.799">displays available properties</text><polygon fill="#181818" points="348.5,594.314,358.5,598.314,348.5,602.314,352.5,598.314" style="stroke:#181818;stroke-width:1.0;"/><line style="stroke:#181818;stroke-width:1.0;" x1="47.5" x2="354.5" y1="598.314" y2="598.314"/><text fill="#000000" font-family="sans-serif" font-size="13" font-weight="bold" lengthAdjust="spacing" textLength="14" x="54.5" y="592.505">14</text><text fill="#000000" font-family="sans-serif" font-size="13" lengthAdjust="spacing" textLength="96" x="72.5" y="592.505">selects property</text><polygon fill="#181818" points="58.5,626.0201,48.5,630.0201,58.5,634.0201,54.5,630.0201" style="stroke:#181818;stroke-width:1.0;"/><line style="stroke:#181818;stroke-width:1.0;stroke-dasharray:2.0,2.0;" x1="52.5" x2="364.5" y1="630.0201" y2="630.0201"/><text fill="#000000" font-family="sans-serif" font-size="13" font-weight="bold" lengthAdjust="spacing" textLength="14" x="64.5" y="624.2111">15</text><text fill="#000000" font-family="sans-serif" font-size="13" lengthAdjust="spacing" textLength="175" x="82.5" y="624.2111">requests data (orderAmount)</text><path d="M10,645.0201 L83,645.0201 L83,654.7261 L73,664.7261 L10,664.7261 L10,645.0201 " fill="#EEEEEE" style="stroke:#000000;stroke-width:1.5;"/><rect fill="none" height="178.2361" style="stroke:#000000;stroke-width:1.5;" width="1226" x="10" y="645.0201"/><text fill="#000000" font-family="sans-serif" font-size="13" font-weight="bold" lengthAdjust="spacing" textLength="28" x="25" y="659.9171">loop</text><text fill="#000000" font-family="sans-serif" font-size="11" font-weight="bold" lengthAdjust="spacing" textLength="226" x="98" y="658.779">[until orderAmount is "equal" or "lower"]</text><polygon fill="#181818" points="348.5,684.4321,358.5,688.4321,348.5,692.4321,352.5,688.4321" style="stroke:#181818;stroke-width:1.0;"/><line style="stroke:#181818;stroke-width:1.0;" x1="47.5" x2="354.5" y1="688.4321" y2="688.4321"/><text fill="#000000" font-family="sans-serif" font-size="13" font-weight="bold" lengthAdjust="spacing" textLength="14" x="54.5" y="682.6231">16</text><text fill="#000000" font-family="sans-serif" font-size="13" lengthAdjust="spacing" textLength="127" x="72.5" y="682.6231">types requested data</text><polygon fill="#181818" points="701.5,716.1381,711.5,720.1381,701.5,724.1381,705.5,720.1381" style="stroke:#181818;stroke-width:1.0;"/><line style="stroke:#181818;stroke-width:1.0;" x1="370.5" x2="707.5" y1="720.1381" y2="720.1381"/><text fill="#000000" font-family="sans-serif" font-size="13" font-weight="bold" lengthAdjust="spacing" textLength="14" x="377.5" y="714.3291">17</text><text fill="#000000" font-family="sans-serif" font-size="13" lengthAdjust="spacing" textLength="306" x="395.5" y="714.3291">checkOrderAmountIsValid(property, orderAmount)</text><polygon fill="#181818" points="1146,747.8441,1156,751.8441,1146,755.8441,1150,751.8441" style="stroke:#181818;stroke-width:1.0;"/><line style="stroke:#181818;stroke-width:1.0;" x1="723.5" x2="1152" y1="751.8441" y2="751.8441"/><text fill="#000000" font-family="sans-serif" font-size="13" font-weight="bold" lengthAdjust="spacing" textLength="14" x="730.5" y="746.0351">18</text><text fill="#000000" font-family="sans-serif" font-size="13" lengthAdjust="spacing" textLength="306" x="748.5" y="746.0351">checkOrderAmountIsValid(property, orderAmount)</text><polygon fill="#181818" points="734.5,779.5501,724.5,783.5501,734.5,787.5501,730.5,783.5501" style="stroke:#181818;stroke-width:1.0;"/><line style="stroke:#181818;stroke-width:1.0;stroke-dasharray:2.0,2.0;" x1="728.5" x2="1162" y1="783.5501" y2="783.5501"/><text fill="#000000" font-family="sans-serif" font-size="13" font-weight="bold" lengthAdjust="spacing" textLength="14" x="740.5" y="777.7411">19</text><text fill="#000000" font-family="sans-serif" font-size="13" lengthAdjust="spacing" textLength="25" x="758.5" y="777.7411">true</text><polygon fill="#181818" points="381.5,811.2562,371.5,815.2562,381.5,819.2562,377.5,815.2562" style="stroke:#181818;stroke-width:1.0;"/><line style="stroke:#181818;stroke-width:1.0;stroke-dasharray:2.0,2.0;" x1="375.5" x2="717.5" y1="815.2562" y2="815.2562"/><text fill="#000000" font-family="sans-serif" font-size="13" font-weight="bold" lengthAdjust="spacing" textLength="14" x="387.5" y="809.4472">20</text><text fill="#000000" font-family="sans-serif" font-size="13" lengthAdjust="spacing" textLength="25" x="405.5" y="809.4472">true</text><polygon fill="#181818" points="58.5,849.9622,48.5,853.9622,58.5,857.9622,54.5,853.9622" style="stroke:#181818;stroke-width:1.0;"/><line style="stroke:#181818;stroke-width:1.0;stroke-dasharray:2.0,2.0;" x1="52.5" x2="364.5" y1="853.9622" y2="853.9622"/><text fill="#000000" font-family="sans-serif" font-size="13" font-weight="bold" lengthAdjust="spacing" textLength="14" x="64.5" y="848.1532">21</text><text fill="#000000" font-family="sans-serif" font-size="13" lengthAdjust="spacing" textLength="132" x="82.5" y="848.1532">shows requested data</text><polygon fill="#181818" points="348.5,881.6682,358.5,885.6682,348.5,889.6682,352.5,885.6682" style="stroke:#181818;stroke-width:1.0;"/><line style="stroke:#181818;stroke-width:1.0;" x1="47.5" x2="354.5" y1="885.6682" y2="885.6682"/><text fill="#000000" font-family="sans-serif" font-size="13" font-weight="bold" lengthAdjust="spacing" textLength="14" x="54.5" y="879.8592">22</text><text fill="#000000" font-family="sans-serif" font-size="13" lengthAdjust="spacing" textLength="78" x="72.5" y="879.8592">submits data</text><polygon fill="#181818" points="701.5,913.3742,711.5,917.3742,701.5,921.3742,705.5,917.3742" style="stroke:#181818;stroke-width:1.0;"/><line style="stroke:#181818;stroke-width:1.0;" x1="370.5" x2="707.5" y1="917.3742" y2="917.3742"/><text fill="#000000" font-family="sans-serif" font-size="13" font-weight="bold" lengthAdjust="spacing" textLength="14" x="377.5" y="911.5652">23</text><text fill="#000000" font-family="sans-serif" font-size="13" lengthAdjust="spacing" textLength="218" x="395.5" y="911.5652">placeOrder (property, orderAmount)</text><line style="stroke:#181818;stroke-width:1.0;" x1="723.5" x2="770.5" y1="944.0802" y2="944.0802"/><line style="stroke:#181818;stroke-width:1.0;" x1="770.5" x2="770.5" y1="944.0802" y2="957.0802"/><line style="stroke:#181818;stroke-width:1.0;" x1="729.5" x2="770.5" y1="957.0802" y2="957.0802"/><polygon fill="#181818" points="739.5,953.0802,729.5,957.0802,739.5,961.0802,735.5,957.0802" style="stroke:#181818;stroke-width:1.0;"/><text fill="#000000" font-family="sans-serif" font-size="13" font-weight="bold" lengthAdjust="spacing" textLength="14" x="735.5" y="938.2712">24</text><text fill="#000000" font-family="sans-serif" font-size="13" lengthAdjust="spacing" textLength="171" x="753.5" y="938.2712">getClientEmailFromSession()</text><polygon fill="#181818" points="1547,989.7862,1557,993.7862,1547,997.7862,1551,993.7862" style="stroke:#181818;stroke-width:1.0;"/><line style="stroke:#181818;stroke-width:1.0;" x1="728.5" x2="1553" y1="993.7862" y2="993.7862"/><text fill="#000000" font-family="sans-serif" font-size="13" font-weight="bold" lengthAdjust="spacing" textLength="14" x="735.5" y="987.9772">25</text><text fill="#000000" font-family="sans-serif" font-size="13" lengthAdjust="spacing" textLength="79" x="753.5" y="987.9772">getInstance()</text><polygon fill="#181818" points="739.5,1021.4923,729.5,1025.4923,739.5,1029.4923,735.5,1025.4923" style="stroke:#181818;stroke-width:1.0;"/><line style="stroke:#181818;stroke-width:1.0;" x1="733.5" x2="1563" y1="1025.4923" y2="1025.4923"/><text fill="#000000" font-family="sans-serif" font-size="13" font-weight="bold" lengthAdjust="spacing" textLength="14" x="745.5" y="1019.6833">26</text><text fill="#000000" font-family="sans-serif" font-size="13" lengthAdjust="spacing" textLength="68" x="763.5" y="1019.6833">appSession</text><polygon fill="#181818" points="1702,1053.1983,1712,1057.1983,1702,1061.1983,1706,1057.1983" style="stroke:#181818;stroke-width:1.0;"/><line style="stroke:#181818;stroke-width:1.0;" x1="728.5" x2="1708" y1="1057.1983" y2="1057.1983"/><text fill="#000000" font-family="sans-serif" font-size="13" font-weight="bold" lengthAdjust="spacing" textLength="14" x="735.5" y="1051.3893">27</text><text fill="#000000" font-family="sans-serif" font-size="13" lengthAdjust="spacing" textLength="119" x="753.5" y="1051.3893">getCurrentSession()</text><polygon fill="#181818" points="739.5,1084.9043,729.5,1088.9043,739.5,1092.9043,735.5,1088.9043" style="stroke:#181818;stroke-width:1.0;"/><line style="stroke:#181818;stroke-width:1.0;stroke-dasharray:2.0,2.0;" x1="733.5" x2="1718" y1="1088.9043" y2="1088.9043"/><text fill="#000000" font-family="sans-serif" font-size="13" font-weight="bold" lengthAdjust="spacing" textLength="14" x="745.5" y="1083.0953">28</text><text fill="#000000" font-family="sans-serif" font-size="13" lengthAdjust="spacing" textLength="89" x="763.5" y="1083.0953">currentSession</text><polygon fill="#181818" points="1842,1116.6103,1852,1120.6103,1842,1124.6103,1846,1120.6103" style="stroke:#181818;stroke-width:1.0;"/><line style="stroke:#181818;stroke-width:1.0;" x1="728.5" x2="1848" y1="1120.6103" y2="1120.6103"/><text fill="#000000" font-family="sans-serif" font-size="13" font-weight="bold" lengthAdjust="spacing" textLength="14" x="735.5" y="1114.8013">29</text><text fill="#000000" font-family="sans-serif" font-size="13" lengthAdjust="spacing" textLength="165" x="753.5" y="1114.8013">clientEmail = getUserEmail()</text><polygon fill="#181818" points="734.5,1148.3163,724.5,1152.3163,734.5,1156.3163,730.5,1152.3163" style="stroke:#181818;stroke-width:1.0;"/><line style="stroke:#181818;stroke-width:1.0;stroke-dasharray:2.0,2.0;" x1="728.5" x2="1858" y1="1152.3163" y2="1152.3163"/><text fill="#000000" font-family="sans-serif" font-size="13" font-weight="bold" lengthAdjust="spacing" textLength="14" x="740.5" y="1146.5073">30</text><text fill="#000000" font-family="sans-serif" font-size="13" lengthAdjust="spacing" textLength="64" x="758.5" y="1146.5073">clientEmail</text><polygon fill="#181818" points="1146,1180.0223,1156,1184.0223,1146,1188.0223,1150,1184.0223" style="stroke:#181818;stroke-width:1.0;"/><line style="stroke:#181818;stroke-width:1.0;" x1="723.5" x2="1152" y1="1184.0223" y2="1184.0223"/><text fill="#000000" font-family="sans-serif" font-size="13" font-weight="bold" lengthAdjust="spacing" textLength="14" x="730.5" y="1178.2133">31</text><text fill="#000000" font-family="sans-serif" font-size="13" lengthAdjust="spacing" textLength="288" x="748.5" y="1178.2133">placeOrder (property, orderAmount, clientEmail)</text><polygon fill="#181818" points="2049.5,1211.7284,2059.5,1215.7284,2049.5,1219.7284,2053.5,1215.7284" style="stroke:#181818;stroke-width:1.0;"/><line style="stroke:#181818;stroke-width:1.0;" x1="1168" x2="2055.5" y1="1215.7284" y2="1215.7284"/><text fill="#000000" font-family="sans-serif" font-size="13" font-weight="bold" lengthAdjust="spacing" textLength="14" x="1175" y="1209.9194">32</text><text fill="#000000" font-family="sans-serif" font-size="13" lengthAdjust="spacing" textLength="288" x="1193" y="1209.9194">placeOrder (property, orderAmount, clientEmail)</text><rect fill="#E3E3E3" height="33.0679" rx="2.5" ry="2.5" style="stroke:#181818;stroke-width:0.5;" width="58" x="2061.5" y="1192.0223"/><text fill="#000000" font-family="sans-serif" font-size="14" lengthAdjust="spacing" textLength="44" x="2068.5" y="1213.9883">:Order</text><line style="stroke:#181818;stroke-width:1.0;" x1="1168" x2="1215" y1="1254.7963" y2="1254.7963"/><line style="stroke:#181818;stroke-width:1.0;" x1="1215" x2="1215" y1="1254.7963" y2="1267.7963"/><line style="stroke:#181818;stroke-width:1.0;" x1="1174" x2="1215" y1="1267.7963" y2="1267.7963"/><polygon fill="#181818" points="1184,1263.7963,1174,1267.7963,1184,1271.7963,1180,1267.7963" style="stroke:#181818;stroke-width:1.0;"/><text fill="#000000" font-family="sans-serif" font-size="13" font-weight="bold" lengthAdjust="spacing" textLength="14" x="1180" y="1248.9873">33</text><text fill="#000000" font-family="sans-serif" font-size="13" lengthAdjust="spacing" textLength="99" x="1198" y="1248.9873">addOrder(order)</text><line style="stroke:#181818;stroke-width:1.0;" x1="1173" x2="1220" y1="1299.5023" y2="1299.5023"/><line style="stroke:#181818;stroke-width:1.0;" x1="1220" x2="1220" y1="1299.5023" y2="1312.5023"/><line style="stroke:#181818;stroke-width:1.0;" x1="1179" x2="1220" y1="1312.5023" y2="1312.5023"/><polygon fill="#181818" points="1189,1308.5023,1179,1312.5023,1189,1316.5023,1185,1312.5023" style="stroke:#181818;stroke-width:1.0;"/><text fill="#000000" font-family="sans-serif" font-size="13" font-weight="bold" lengthAdjust="spacing" textLength="14" x="1185" y="1293.6933">34</text><text fill="#000000" font-family="sans-serif" font-size="13" lengthAdjust="spacing" textLength="354" x="1203" y="1293.6933">checkClientMadeOrderSameProperty(clientEmail, property)</text><line style="stroke:#181818;stroke-width:1.0;stroke-dasharray:2.0,2.0;" x1="1178" x2="1220" y1="1354.2083" y2="1354.2083"/><line style="stroke:#181818;stroke-width:1.0;stroke-dasharray:2.0,2.0;" x1="1220" x2="1220" y1="1354.2083" y2="1367.2083"/><line style="stroke:#181818;stroke-width:1.0;stroke-dasharray:2.0,2.0;" x1="1173" x2="1220" y1="1367.2083" y2="1367.2083"/><polygon fill="#181818" points="1183,1363.2083,1173,1367.2083,1183,1371.2083,1179,1367.2083" style="stroke:#181818;stroke-width:1.0;"/><text fill="#000000" font-family="sans-serif" font-size="13" font-weight="bold" lengthAdjust="spacing" textLength="14" x="1185" y="1348.3993">35</text><text fill="#000000" font-family="sans-serif" font-size="13" lengthAdjust="spacing" textLength="3" x="1203" y="1348.3993">&#160;</text><line style="stroke:#181818;stroke-width:1.0;" x1="1173" x2="1220" y1="1413.9143" y2="1413.9143"/><line style="stroke:#181818;stroke-width:1.0;" x1="1220" x2="1220" y1="1413.9143" y2="1426.9143"/><line style="stroke:#181818;stroke-width:1.0;" x1="1179" x2="1220" y1="1426.9143" y2="1426.9143"/><polygon fill="#181818" points="1189,1422.9143,1179,1426.9143,1189,1430.9143,1185,1426.9143" style="stroke:#181818;stroke-width:1.0;"/><text fill="#000000" font-family="sans-serif" font-size="13" font-weight="bold" lengthAdjust="spacing" textLength="14" x="1185" y="1408.1053">36</text><text fill="#000000" font-family="sans-serif" font-size="13" lengthAdjust="spacing" textLength="123" x="1203" y="1408.1053">validateOrder(order)</text><line style="stroke:#181818;stroke-width:1.0;stroke-dasharray:2.0,2.0;" x1="1178" x2="1220" y1="1468.6203" y2="1468.6203"/><line style="stroke:#181818;stroke-width:1.0;stroke-dasharray:2.0,2.0;" x1="1220" x2="1220" y1="1468.6203" y2="1481.6203"/><line style="stroke:#181818;stroke-width:1.0;stroke-dasharray:2.0,2.0;" x1="1173" x2="1220" y1="1481.6203" y2="1481.6203"/><polygon fill="#181818" points="1183,1477.6203,1173,1481.6203,1183,1485.6203,1179,1481.6203" style="stroke:#181818;stroke-width:1.0;"/><text fill="#000000" font-family="sans-serif" font-size="13" font-weight="bold" lengthAdjust="spacing" textLength="14" x="1185" y="1462.8113">37</text><text fill="#000000" font-family="sans-serif" font-size="13" lengthAdjust="spacing" textLength="3" x="1203" y="1462.8113">&#160;</text><line style="stroke:#181818;stroke-width:1.0;stroke-dasharray:2.0,2.0;" x1="1173" x2="1215" y1="1513.3264" y2="1513.3264"/><line style="stroke:#181818;stroke-width:1.0;stroke-dasharray:2.0,2.0;" x1="1215" x2="1215" y1="1513.3264" y2="1526.3264"/><line style="stroke:#181818;stroke-width:1.0;stroke-dasharray:2.0,2.0;" x1="1168" x2="1215" y1="1526.3264" y2="1526.3264"/><polygon fill="#181818" points="1178,1522.3264,1168,1526.3264,1178,1530.3264,1174,1526.3264" style="stroke:#181818;stroke-width:1.0;"/><text fill="#000000" font-family="sans-serif" font-size="13" font-weight="bold" lengthAdjust="spacing" textLength="14" x="1180" y="1507.5174">38</text><text fill="#000000" font-family="sans-serif" font-size="13" lengthAdjust="spacing" textLength="3" x="1198" y="1507.5174">&#160;</text><polygon fill="#181818" points="734.5,1549.0324,724.5,1553.0324,734.5,1557.0324,730.5,1553.0324" style="stroke:#181818;stroke-width:1.0;"/><line style="stroke:#181818;stroke-width:1.0;stroke-dasharray:2.0,2.0;" x1="728.5" x2="1162" y1="1553.0324" y2="1553.0324"/><text fill="#000000" font-family="sans-serif" font-size="13" font-weight="bold" lengthAdjust="spacing" textLength="14" x="740.5" y="1547.2234">39</text><text fill="#000000" font-family="sans-serif" font-size="13" lengthAdjust="spacing" textLength="33" x="758.5" y="1547.2234">order</text><polygon fill="#181818" points="381.5,1580.7384,371.5,1584.7384,381.5,1588.7384,377.5,1584.7384" style="stroke:#181818;stroke-width:1.0;"/><line style="stroke:#181818;stroke-width:1.0;stroke-dasharray:2.0,2.0;" x1="375.5" x2="717.5" y1="1584.7384" y2="1584.7384"/><text fill="#000000" font-family="sans-serif" font-size="13" font-weight="bold" lengthAdjust="spacing" textLength="14" x="387.5" y="1578.9294">40</text><text fill="#000000" font-family="sans-serif" font-size="13" lengthAdjust="spacing" textLength="33" x="405.5" y="1578.9294">order</text><path d="M10,1599.7384 L73,1599.7384 L73,1609.4444 L63,1619.4444 L10,1619.4444 L10,1599.7384 " fill="#EEEEEE" style="stroke:#000000;stroke-width:1.5;"/><rect fill="none" height="100.0999" style="stroke:#000000;stroke-width:1.5;" width="419.5" x="10" y="1599.7384"/><text fill="#000000" font-family="sans-serif" font-size="13" font-weight="bold" lengthAdjust="spacing" textLength="18" x="25" y="1614.6354">alt</text><text fill="#000000" font-family="sans-serif" font-size="11" font-weight="bold" lengthAdjust="spacing" textLength="139" x="88" y="1613.4973">[orderAmount is "equal"]</text><polygon fill="#181818" points="58.5,1639.1504,48.5,1643.1504,58.5,1647.1504,54.5,1643.1504" style="stroke:#181818;stroke-width:1.0;"/><line style="stroke:#181818;stroke-width:1.0;stroke-dasharray:2.0,2.0;" x1="52.5" x2="359.5" y1="1643.1504" y2="1643.1504"/><text fill="#000000" font-family="sans-serif" font-size="13" font-weight="bold" lengthAdjust="spacing" textLength="14" x="64.5" y="1637.3414">41</text><text fill="#000000" font-family="sans-serif" font-size="13" lengthAdjust="spacing" textLength="271" x="82.5" y="1637.3414">shows message and shows operation success</text><line style="stroke:#000000;stroke-width:1.0;stroke-dasharray:2.0,2.0;" x1="10" x2="429.5" y1="1652.1504" y2="1652.1504"/><text fill="#000000" font-family="sans-serif" font-size="11" font-weight="bold" lengthAdjust="spacing" textLength="139" x="15" y="1663.9093">[orderAmount is "lower"]</text><polygon fill="#181818" points="58.5,1687.8383,48.5,1691.8383,58.5,1695.8383,54.5,1691.8383" style="stroke:#181818;stroke-width:1.0;"/><line style="stroke:#181818;stroke-width:1.0;stroke-dasharray:2.0,2.0;" x1="52.5" x2="359.5" y1="1691.8383" y2="1691.8383"/><text fill="#000000" font-family="sans-serif" font-size="13" font-weight="bold" lengthAdjust="spacing" textLength="14" x="64.5" y="1686.0293">42</text><text fill="#000000" font-family="sans-serif" font-size="13" lengthAdjust="spacing" textLength="148" x="82.5" y="1686.0293">shows operation success</text><!--SRC=[pLXTQzim57tthn1vMLhQFn3O89GE0jqIcdPFXQ7Qjuc8R7cIt2xG7xyh-KkMxTXUEfXVsiYwvvuZtQz47LYIKabZ4ej4X7ifOY1QPX2ewarAmmFTmLOVEH09eQR9ZhiRr9v6ueqbE_92kO8We9aMIHO_Wmo2JtiM0NaHGZ-Btm4DjP1aTiCP97f6g2Bvlm4YQHQob2QQp1ORJaDOomZauyhkUbprxhWHYPQ2Sv0vtiFzdRVt7bAX63fceEoUQk6uPKOBicsQICTYyPIq03PtouUcXJ1KQbmqMZTNh9stvl5SfYbd8TLC95jG2lzOev_BpQQvawPfiU4fwRDg6OMPb7ZIjU6Z0kbQR6-tszNwkqVgZYczaI85N0HLN8U_wDbOcRNW833tpbwfXlAw0r8y-MTo_GMlc2pGvA285YGrrqjeGkovsfLCXdkgWAIvtsC5KM4ZZshHF8Y8k2OWBYyHEvI0knexQbecQXglB3bSBI4GO0VQwb7pYzRM0IGNhIFwSl1LeZ2tGkY0RxZe2jzE2_DqURikD2s86-YT415CTriADLdY75jjFoJGfbUl8WjxNL-Bbtf3Clh1IzuUsu6RRp3t4xnNXE_3rsCoR4Z9A6Uvg37e3d8xY4- -h1CD7KHCOVOUw_BWdTd8dFDB32BBBEdFkrP9EY6ljNUQLACrBrkLMaNeAsMSFlEgGBaPvK2wthpYfu1ZTrKJAvpBHiAl31H2H5HJChTtlOn5bkYB8IvSY9JWHiQ9OqQO8ZC4fNn6JEFcuWqhUvE4fq8VKr0b4uWibUu0yDMqGYdSGtXOrsnMwWVbB9gN1tH5EXN-HKrkf_oPlZ-yAjYXx4CBGdvR1dPyAO0aEXs1QY_UUcz_P1fapp4hOdXAaqVJj9eAoPYBcjp-SwQtCQRwLnoLY-dfl770Z7UJsh-T1_iYoBmaLNkl1yMXqB6W9tcMD6yQS-GGsLvOyrYk5TdcW3f4U91lCSuYRdrfvBDHO0PV-t68V3aHzmeeDhWYQcT32ahqINtuTD4QZFyhb-29i1rLILhLgg1af-rpgPnoqD1CeyWkvjtkdrNYtXwHruHlDChLRcaCnMnnd3iAhwgsVj7hT3hDlgQn7Z4J3pIFFfFtz_SpZ-tLD59qENXj_zsP11_jRwgleQyDmJaEcfD16w-tC56kUuR6CSD2Z0MVxiot_QXOCNbYVz30MI0CyRKpW705BLzTKscthpPovsJZ3IgkyFptYpy0]--></g></svg>