<?xml version="1.0" encoding="us-ascii" standalone="no"?><svg xmlns="http://www.w3.org/2000/svg" xmlns:xlink="http://www.w3.org/1999/xlink" contentStyleType="text/css" height="569px" preserveAspectRatio="none" style="width:784px;height:569px;background:#FFFFFF;" version="1.1" viewBox="0 0 784 569" width="784px" zoomAndPan="magnify"><defs/><g><rect fill="#FFFFFF" height="402.716" style="stroke:#181818;stroke-width:1.0;" width="10" x="322" y="91.8419"/><rect fill="#FFFFFF" height="221.5301" style="stroke:#181818;stroke-width:1.0;" width="10" x="327" y="227.3218"/><rect fill="#FFFFFF" height="42.706" style="stroke:#181818;stroke-width:1.0;" width="10" x="332" y="272.0278"/><rect fill="#FFFFFF" height="42.706" style="stroke:#181818;stroke-width:1.0;" width="10" x="332" y="361.4398"/><rect fill="none" height="357.01" style="stroke:#000000;stroke-width:1.5;" width="524" x="254" y="106.8419"/><line style="stroke:#181818;stroke-width:0.5;stroke-dasharray:5.0,5.0;" x1="327" x2="327" y1="58.1358" y2="512.5579"/><line style="stroke:#181818;stroke-width:0.5;stroke-dasharray:5.0,5.0;" x1="739" x2="739" y1="158.5818" y2="512.5579"/><rect fill="#E3E3E3" height="52.1358" rx="2.5" ry="2.5" style="stroke:#181818;stroke-width:0.5;" width="126" x="264" y="5"/><text fill="#000000" font-family="sans-serif" font-size="14" lengthAdjust="spacing" textLength="112" x="271" y="26.9659">orderRepository:</text><text fill="#000000" font-family="sans-serif" font-size="14" lengthAdjust="spacing" textLength="111" x="271.5" y="46.0339">OrderRepository</text><rect fill="#E3E3E3" height="52.1358" rx="2.5" ry="2.5" style="stroke:#181818;stroke-width:0.5;" width="126" x="264" y="511.5579"/><text fill="#000000" font-family="sans-serif" font-size="14" lengthAdjust="spacing" textLength="112" x="271" y="533.5238">orderRepository:</text><text fill="#000000" font-family="sans-serif" font-size="14" lengthAdjust="spacing" textLength="111" x="271.5" y="552.5918">OrderRepository</text><rect fill="#E3E3E3" height="33.0679" rx="2.5" ry="2.5" style="stroke:#181818;stroke-width:0.5;" width="58" x="710" y="511.5579"/><text fill="#000000" font-family="sans-serif" font-size="14" lengthAdjust="spacing" textLength="44" x="717" y="533.5238">:Order</text><rect fill="#FFFFFF" height="402.716" style="stroke:#181818;stroke-width:1.0;" width="10" x="322" y="91.8419"/><rect fill="#FFFFFF" height="221.5301" style="stroke:#181818;stroke-width:1.0;" width="10" x="327" y="227.3218"/><rect fill="#FFFFFF" height="42.706" style="stroke:#181818;stroke-width:1.0;" width="10" x="332" y="272.0278"/><rect fill="#FFFFFF" height="42.706" style="stroke:#181818;stroke-width:1.0;" width="10" x="332" y="361.4398"/><polygon fill="#181818" points="310,87.8419,320,91.8419,310,95.8419,314,91.8419" style="stroke:#181818;stroke-width:1.0;"/><line style="stroke:#181818;stroke-width:1.0;" x1="0" x2="316" y1="91.8419" y2="91.8419"/><text fill="#000000" font-family="sans-serif" font-size="13" font-weight="bold" lengthAdjust="spacing" textLength="14" x="7" y="86.0328">20</text><text fill="#000000" font-family="sans-serif" font-size="13" lengthAdjust="spacing" textLength="285" x="25" y="86.0328">placeOrder(property, orderAmount, clientEmail)</text><path d="M254,106.8419 L375,106.8419 L375,116.5479 L365,126.5479 L254,126.5479 L254,106.8419 " fill="#EEEEEE" style="stroke:#000000;stroke-width:1.5;"/><rect fill="none" height="357.01" style="stroke:#000000;stroke-width:1.5;" width="524" x="254" y="106.8419"/><text fill="#000000" font-family="sans-serif" font-size="13" font-weight="bold" lengthAdjust="spacing" textLength="76" x="269" y="121.7389">Place Order</text><polygon fill="#181818" points="698,146.2539,708,150.2539,698,154.2539,702,150.2539" style="stroke:#181818;stroke-width:1.0;"/><line style="stroke:#181818;stroke-width:1.0;" x1="332" x2="704" y1="150.2539" y2="150.2539"/><text fill="#000000" font-family="sans-serif" font-size="13" font-weight="bold" lengthAdjust="spacing" textLength="25" x="339" y="144.4449">20.1</text><text fill="#000000" font-family="sans-serif" font-size="13" lengthAdjust="spacing" textLength="288" x="368" y="144.4449">placeOrder (property, orderAmount, clientEmail)</text><rect fill="#E3E3E3" height="33.0679" rx="2.5" ry="2.5" style="stroke:#181818;stroke-width:0.5;" width="58" x="710" y="126.5479"/><text fill="#000000" font-family="sans-serif" font-size="14" lengthAdjust="spacing" textLength="44" x="717" y="148.5138">:Order</text><line style="stroke:#181818;stroke-width:1.0;" x1="332" x2="379" y1="214.3218" y2="214.3218"/><line style="stroke:#181818;stroke-width:1.0;" x1="379" x2="379" y1="214.3218" y2="227.3218"/><line style="stroke:#181818;stroke-width:1.0;" x1="338" x2="379" y1="227.3218" y2="227.3218"/><polygon fill="#181818" points="348,223.3218,338,227.3218,348,231.3218,344,227.3218" style="stroke:#181818;stroke-width:1.0;"/><text fill="#000000" font-family="sans-serif" font-size="13" font-weight="bold" lengthAdjust="spacing" textLength="25" x="344" y="208.5128">20.2</text><text fill="#000000" font-family="sans-serif" font-size="13" lengthAdjust="spacing" textLength="99" x="373" y="208.5128">addOrder(order)</text><line style="stroke:#181818;stroke-width:1.0;" x1="337" x2="384" y1="259.0278" y2="259.0278"/><line style="stroke:#181818;stroke-width:1.0;" x1="384" x2="384" y1="259.0278" y2="272.0278"/><line style="stroke:#181818;stroke-width:1.0;" x1="343" x2="384" y1="272.0278" y2="272.0278"/><polygon fill="#181818" points="353,268.0278,343,272.0278,353,276.0278,349,272.0278" style="stroke:#181818;stroke-width:1.0;"/><text fill="#000000" font-family="sans-serif" font-size="13" font-weight="bold" lengthAdjust="spacing" textLength="25" x="349" y="253.2188">20.3</text><text fill="#000000" font-family="sans-serif" font-size="13" lengthAdjust="spacing" textLength="354" x="378" y="253.2188">checkClientMadeOrderSameProperty(clientEmail, property)</text><line style="stroke:#181818;stroke-width:1.0;stroke-dasharray:2.0,2.0;" x1="342" x2="384" y1="313.7338" y2="313.7338"/><line style="stroke:#181818;stroke-width:1.0;stroke-dasharray:2.0,2.0;" x1="384" x2="384" y1="313.7338" y2="326.7338"/><line style="stroke:#181818;stroke-width:1.0;stroke-dasharray:2.0,2.0;" x1="337" x2="384" y1="326.7338" y2="326.7338"/><polygon fill="#181818" points="347,322.7338,337,326.7338,347,330.7338,343,326.7338" style="stroke:#181818;stroke-width:1.0;"/><text fill="#000000" font-family="sans-serif" font-size="13" font-weight="bold" lengthAdjust="spacing" textLength="25" x="349" y="307.9248">20.4</text><text fill="#000000" font-family="sans-serif" font-size="13" lengthAdjust="spacing" textLength="3" x="378" y="307.9248">&#160;</text><line style="stroke:#181818;stroke-width:1.0;" x1="337" x2="384" y1="348.4398" y2="348.4398"/><line style="stroke:#181818;stroke-width:1.0;" x1="384" x2="384" y1="348.4398" y2="361.4398"/><line style="stroke:#181818;stroke-width:1.0;" x1="343" x2="384" y1="361.4398" y2="361.4398"/><polygon fill="#181818" points="353,357.4398,343,361.4398,353,365.4398,349,361.4398" style="stroke:#181818;stroke-width:1.0;"/><text fill="#000000" font-family="sans-serif" font-size="13" font-weight="bold" lengthAdjust="spacing" textLength="25" x="349" y="342.6308">20.5</text><text fill="#000000" font-family="sans-serif" font-size="13" lengthAdjust="spacing" textLength="123" x="378" y="342.6308">validateOrder(order)</text><line style="stroke:#181818;stroke-width:1.0;stroke-dasharray:2.0,2.0;" x1="342" x2="384" y1="403.1459" y2="403.1459"/><line style="stroke:#181818;stroke-width:1.0;stroke-dasharray:2.0,2.0;" x1="384" x2="384" y1="403.1459" y2="416.1459"/><line style="stroke:#181818;stroke-width:1.0;stroke-dasharray:2.0,2.0;" x1="337" x2="384" y1="416.1459" y2="416.1459"/><polygon fill="#181818" points="347,412.1459,337,416.1459,347,420.1459,343,416.1459" style="stroke:#181818;stroke-width:1.0;"/><text fill="#000000" font-family="sans-serif" font-size="13" font-weight="bold" lengthAdjust="spacing" textLength="25" x="349" y="397.3369">20.6</text><text fill="#000000" font-family="sans-serif" font-size="13" lengthAdjust="spacing" textLength="3" x="378" y="397.3369">&#160;</text><line style="stroke:#181818;stroke-width:1.0;stroke-dasharray:2.0,2.0;" x1="337" x2="379" y1="447.8519" y2="447.8519"/><line style="stroke:#181818;stroke-width:1.0;stroke-dasharray:2.0,2.0;" x1="379" x2="379" y1="447.8519" y2="460.8519"/><line style="stroke:#181818;stroke-width:1.0;stroke-dasharray:2.0,2.0;" x1="332" x2="379" y1="460.8519" y2="460.8519"/><polygon fill="#181818" points="342,456.8519,332,460.8519,342,464.8519,338,460.8519" style="stroke:#181818;stroke-width:1.0;"/><text fill="#000000" font-family="sans-serif" font-size="13" font-weight="bold" lengthAdjust="spacing" textLength="25" x="344" y="442.0429">20.7</text><text fill="#000000" font-family="sans-serif" font-size="13" lengthAdjust="spacing" textLength="3" x="373" y="442.0429">&#160;</text><polygon fill="#181818" points="11,490.5579,1,494.5579,11,498.5579,7,494.5579" style="stroke:#181818;stroke-width:1.0;"/><line style="stroke:#181818;stroke-width:1.0;stroke-dasharray:2.0,2.0;" x1="5" x2="326" y1="494.5579" y2="494.5579"/><text fill="#000000" font-family="sans-serif" font-size="13" font-weight="bold" lengthAdjust="spacing" textLength="25" x="17" y="488.7489">20.8</text><text fill="#000000" font-family="sans-serif" font-size="13" lengthAdjust="spacing" textLength="33" x="46" y="488.7489">order</text><!--SRC=[rPDDIyD048Rl-ok6dfhIY7ei8eXu58kzUXbtnsJ9Vh7PL0BvyQORQ_DHQOLUdEFCxZlF-yAKXJGEFMhGrbYUUwi9Wg-8bJyJXxp0Z3QXLWIUU42JgVw3CaTXFwN9u0DLIOorxI2vT6W2pAmNv5_9sL86w-lLctaPTcQ09OnwGubLd1xUCSQm2jPK-fqyt5wpz7ui02jm2Zd5zjnvwyY7UWcHva7RoeGbS2N9X2UDKYKZoQiRng0jv45kCT04C4vtbNbRELZlbktfe5TZhZtgOZ50XFCO-yfDqvorQH0A2j554fSa0u7JNl-qYkV4YyU8_uoYixb1JUjle_EUjINixIUJPUTZ7KMRiat-2RgmzIqgALgvNwF-1xukf4z6T2ToQDsbwP7COahib6p_IDiJRUiB]--></g></svg>