<?xml version="1.0" encoding="us-ascii" standalone="no"?><svg xmlns="http://www.w3.org/2000/svg" xmlns:xlink="http://www.w3.org/1999/xlink" contentStyleType="text/css" height="1055px" preserveAspectRatio="none" style="width:1430px;height:1055px;background:#FFFFFF;" version="1.1" viewBox="0 0 1430 1055" width="1430px" zoomAndPan="magnify"><defs/><g><!--class CreateRequestUI--><g id="elem_CreateRequestUI"><rect codeLine="11" fill="#F1F1F1" height="48" id="CreateRequestUI" rx="2.5" ry="2.5" style="stroke:#181818;stroke-width:0.5;" width="140" x="287.5" y="7"/><ellipse cx="302.5" cy="23" fill="#ADD1B2" rx="11" ry="11" style="stroke:#181818;stroke-width:1.0;"/><path d="M305.2656,18.875 Q305.4219,18.6563 305.6094,18.5469 Q305.7969,18.4375 306.0156,18.4375 Q306.3906,18.4375 306.625,18.7031 Q306.8594,18.9531 306.8594,19.5625 L306.8594,21.0156 Q306.8594,21.625 306.625,21.8906 Q306.3906,22.1563 306.0156,22.1563 Q305.6719,22.1563 305.4688,21.9531 Q305.2656,21.7656 305.1563,21.25 Q305.1094,20.8906 304.9219,20.7031 Q304.5938,20.3281 303.9844,20.1094 Q303.375,19.8906 302.75,19.8906 Q301.9844,19.8906 301.3438,20.2188 Q300.7188,20.5469 300.2188,21.2969 Q299.7344,22.0469 299.7344,23.0781 L299.7344,24.1719 Q299.7344,25.4063 300.625,26.2344 Q301.5156,27.0469 303.1094,27.0469 Q304.0469,27.0469 304.7031,26.7969 Q305.0938,26.6406 305.5156,26.2031 Q305.7813,25.9375 305.9219,25.8594 Q306.0781,25.7813 306.2813,25.7813 Q306.6094,25.7813 306.8594,26.0469 Q307.125,26.2969 307.125,26.6406 Q307.125,26.9844 306.7813,27.3906 Q306.2813,27.9688 305.4844,28.2969 Q304.4063,28.75 303.1094,28.75 Q301.5938,28.75 300.3906,28.125 Q299.4063,27.625 298.7188,26.5625 Q298.0313,25.4844 298.0313,24.2031 L298.0313,23.0469 Q298.0313,21.7188 298.6406,20.5781 Q299.2656,19.4219 300.3594,18.8125 Q301.4531,18.1875 302.6875,18.1875 Q303.4219,18.1875 304.0625,18.3594 Q304.7188,18.5156 305.2656,18.875 Z " fill="#000000"/><text fill="#000000" font-family="sans-serif" font-size="14" lengthAdjust="spacing" textLength="108" x="316.5" y="28.7969">CreateRequestUI</text><line style="stroke:#181818;stroke-width:0.5;" x1="288.5" x2="426.5" y1="39" y2="39"/><line style="stroke:#181818;stroke-width:0.5;" x1="288.5" x2="426.5" y1="47" y2="47"/></g><!--class CreateRequestController--><g id="elem_CreateRequestController"><rect codeLine="13" fill="#F1F1F1" height="103.8633" id="CreateRequestController" rx="2.5" ry="2.5" style="stroke:#181818;stroke-width:0.5;" width="346" x="184.5" y="116"/><ellipse cx="274.25" cy="132" fill="#ADD1B2" rx="11" ry="11" style="stroke:#181818;stroke-width:1.0;"/><path d="M277.0156,127.875 Q277.1719,127.6563 277.3594,127.5469 Q277.5469,127.4375 277.7656,127.4375 Q278.1406,127.4375 278.375,127.7031 Q278.6094,127.9531 278.6094,128.5625 L278.6094,130.0156 Q278.6094,130.625 278.375,130.8906 Q278.1406,131.1563 277.7656,131.1563 Q277.4219,131.1563 277.2188,130.9531 Q277.0156,130.7656 276.9063,130.25 Q276.8594,129.8906 276.6719,129.7031 Q276.3438,129.3281 275.7344,129.1094 Q275.125,128.8906 274.5,128.8906 Q273.7344,128.8906 273.0938,129.2188 Q272.4688,129.5469 271.9688,130.2969 Q271.4844,131.0469 271.4844,132.0781 L271.4844,133.1719 Q271.4844,134.4063 272.375,135.2344 Q273.2656,136.0469 274.8594,136.0469 Q275.7969,136.0469 276.4531,135.7969 Q276.8438,135.6406 277.2656,135.2031 Q277.5313,134.9375 277.6719,134.8594 Q277.8281,134.7813 278.0313,134.7813 Q278.3594,134.7813 278.6094,135.0469 Q278.875,135.2969 278.875,135.6406 Q278.875,135.9844 278.5313,136.3906 Q278.0313,136.9688 277.2344,137.2969 Q276.1563,137.75 274.8594,137.75 Q273.3438,137.75 272.1406,137.125 Q271.1563,136.625 270.4688,135.5625 Q269.7813,134.4844 269.7813,133.2031 L269.7813,132.0469 Q269.7813,130.7188 270.3906,129.5781 Q271.0156,128.4219 272.1094,127.8125 Q273.2031,127.1875 274.4375,127.1875 Q275.1719,127.1875 275.8125,127.3594 Q276.4688,127.5156 277.0156,127.875 Z " fill="#000000"/><text fill="#000000" font-family="sans-serif" font-size="14" lengthAdjust="spacing" textLength="158" x="294.75" y="137.7969">CreateRequestController</text><line style="stroke:#181818;stroke-width:0.5;" x1="185.5" x2="529.5" y1="148" y2="148"/><line style="stroke:#181818;stroke-width:0.5;" x1="185.5" x2="529.5" y1="156" y2="156"/><text fill="#000000" font-family="sans-serif" font-size="14" lengthAdjust="spacing" textLength="334" x="190.5" y="175.1074">+CreateRequestController(AdvertisementRepository)</text><text fill="#000000" font-family="sans-serif" font-size="14" lengthAdjust="spacing" textLength="135" x="190.5" y="193.7285">+getAgentsRequest()</text><text fill="#000000" font-family="sans-serif" font-size="14" lengthAdjust="spacing" textLength="208" x="190.5" y="212.3496">+createRequest(property, agent)</text></g><!--class AdvertisementRepository--><g id="elem_AdvertisementRepository"><rect codeLine="19" fill="#F1F1F1" height="66.6211" id="AdvertisementRepository" rx="2.5" ry="2.5" style="stroke:#181818;stroke-width:0.5;" width="247" x="7" y="392"/><ellipse cx="47.65" cy="408" fill="#ADD1B2" rx="11" ry="11" style="stroke:#181818;stroke-width:1.0;"/><path d="M50.4156,403.875 Q50.5719,403.6563 50.7594,403.5469 Q50.9469,403.4375 51.1656,403.4375 Q51.5406,403.4375 51.775,403.7031 Q52.0094,403.9531 52.0094,404.5625 L52.0094,406.0156 Q52.0094,406.625 51.775,406.8906 Q51.5406,407.1563 51.1656,407.1563 Q50.8219,407.1563 50.6188,406.9531 Q50.4156,406.7656 50.3063,406.25 Q50.2594,405.8906 50.0719,405.7031 Q49.7438,405.3281 49.1344,405.1094 Q48.525,404.8906 47.9,404.8906 Q47.1344,404.8906 46.4938,405.2188 Q45.8688,405.5469 45.3688,406.2969 Q44.8844,407.0469 44.8844,408.0781 L44.8844,409.1719 Q44.8844,410.4063 45.775,411.2344 Q46.6656,412.0469 48.2594,412.0469 Q49.1969,412.0469 49.8531,411.7969 Q50.2438,411.6406 50.6656,411.2031 Q50.9313,410.9375 51.0719,410.8594 Q51.2281,410.7813 51.4313,410.7813 Q51.7594,410.7813 52.0094,411.0469 Q52.275,411.2969 52.275,411.6406 Q52.275,411.9844 51.9313,412.3906 Q51.4313,412.9688 50.6344,413.2969 Q49.5563,413.75 48.2594,413.75 Q46.7438,413.75 45.5406,413.125 Q44.5563,412.625 43.8688,411.5625 Q43.1813,410.4844 43.1813,409.2031 L43.1813,408.0469 Q43.1813,406.7188 43.7906,405.5781 Q44.4156,404.4219 45.5094,403.8125 Q46.6031,403.1875 47.8375,403.1875 Q48.5719,403.1875 49.2125,403.3594 Q49.8688,403.5156 50.4156,403.875 Z " fill="#000000"/><text fill="#000000" font-family="sans-serif" font-size="14" lengthAdjust="spacing" textLength="158" x="67.35" y="413.7969">AdvertisementRepository</text><line style="stroke:#181818;stroke-width:0.5;" x1="8" x2="253" y1="424" y2="424"/><line style="stroke:#181818;stroke-width:0.5;" x1="8" x2="253" y1="432" y2="432"/><text fill="#000000" font-family="sans-serif" font-size="14" lengthAdjust="spacing" textLength="235" x="13" y="451.1074">+createRequest(announcementDate)</text></g><!--class AgentRepository--><g id="elem_AgentRepository"><rect codeLine="24" fill="#F1F1F1" height="66.6211" id="AgentRepository" rx="2.5" ry="2.5" style="stroke:#181818;stroke-width:0.5;" width="137" x="289" y="392"/><ellipse cx="304" cy="408" fill="#ADD1B2" rx="11" ry="11" style="stroke:#181818;stroke-width:1.0;"/><path d="M306.7656,403.875 Q306.9219,403.6563 307.1094,403.5469 Q307.2969,403.4375 307.5156,403.4375 Q307.8906,403.4375 308.125,403.7031 Q308.3594,403.9531 308.3594,404.5625 L308.3594,406.0156 Q308.3594,406.625 308.125,406.8906 Q307.8906,407.1563 307.5156,407.1563 Q307.1719,407.1563 306.9688,406.9531 Q306.7656,406.7656 306.6563,406.25 Q306.6094,405.8906 306.4219,405.7031 Q306.0938,405.3281 305.4844,405.1094 Q304.875,404.8906 304.25,404.8906 Q303.4844,404.8906 302.8438,405.2188 Q302.2188,405.5469 301.7188,406.2969 Q301.2344,407.0469 301.2344,408.0781 L301.2344,409.1719 Q301.2344,410.4063 302.125,411.2344 Q303.0156,412.0469 304.6094,412.0469 Q305.5469,412.0469 306.2031,411.7969 Q306.5938,411.6406 307.0156,411.2031 Q307.2813,410.9375 307.4219,410.8594 Q307.5781,410.7813 307.7813,410.7813 Q308.1094,410.7813 308.3594,411.0469 Q308.625,411.2969 308.625,411.6406 Q308.625,411.9844 308.2813,412.3906 Q307.7813,412.9688 306.9844,413.2969 Q305.9063,413.75 304.6094,413.75 Q303.0938,413.75 301.8906,413.125 Q300.9063,412.625 300.2188,411.5625 Q299.5313,410.4844 299.5313,409.2031 L299.5313,408.0469 Q299.5313,406.7188 300.1406,405.5781 Q300.7656,404.4219 301.8594,403.8125 Q302.9531,403.1875 304.1875,403.1875 Q304.9219,403.1875 305.5625,403.3594 Q306.2188,403.5156 306.7656,403.875 Z " fill="#000000"/><text fill="#000000" font-family="sans-serif" font-size="14" lengthAdjust="spacing" textLength="105" x="318" y="413.7969">AgentRepository</text><line style="stroke:#181818;stroke-width:0.5;" x1="290" x2="425" y1="424" y2="424"/><line style="stroke:#181818;stroke-width:0.5;" x1="290" x2="425" y1="432" y2="432"/><text fill="#000000" font-family="sans-serif" font-size="14" lengthAdjust="spacing" textLength="82" x="295" y="451.1074">+getAgents()</text></g><!--class Property--><g id="elem_Property"><rect codeLine="29" fill="#F1F1F1" height="252.832" id="Property" rx="2.5" ry="2.5" style="stroke:#181818;stroke-width:0.5;" width="510" x="461.5" y="299"/><ellipse cx="685.25" cy="315" fill="#ADD1B2" rx="11" ry="11" style="stroke:#181818;stroke-width:1.0;"/><path d="M688.0156,310.875 Q688.1719,310.6563 688.3594,310.5469 Q688.5469,310.4375 688.7656,310.4375 Q689.1406,310.4375 689.375,310.7031 Q689.6094,310.9531 689.6094,311.5625 L689.6094,313.0156 Q689.6094,313.625 689.375,313.8906 Q689.1406,314.1563 688.7656,314.1563 Q688.4219,314.1563 688.2188,313.9531 Q688.0156,313.7656 687.9063,313.25 Q687.8594,312.8906 687.6719,312.7031 Q687.3438,312.3281 686.7344,312.1094 Q686.125,311.8906 685.5,311.8906 Q684.7344,311.8906 684.0938,312.2188 Q683.4688,312.5469 682.9688,313.2969 Q682.4844,314.0469 682.4844,315.0781 L682.4844,316.1719 Q682.4844,317.4063 683.375,318.2344 Q684.2656,319.0469 685.8594,319.0469 Q686.7969,319.0469 687.4531,318.7969 Q687.8438,318.6406 688.2656,318.2031 Q688.5313,317.9375 688.6719,317.8594 Q688.8281,317.7813 689.0313,317.7813 Q689.3594,317.7813 689.6094,318.0469 Q689.875,318.2969 689.875,318.6406 Q689.875,318.9844 689.5313,319.3906 Q689.0313,319.9688 688.2344,320.2969 Q687.1563,320.75 685.8594,320.75 Q684.3438,320.75 683.1406,320.125 Q682.1563,319.625 681.4688,318.5625 Q680.7813,317.4844 680.7813,316.2031 L680.7813,315.0469 Q680.7813,313.7188 681.3906,312.5781 Q682.0156,311.4219 683.1094,310.8125 Q684.2031,310.1875 685.4375,310.1875 Q686.1719,310.1875 686.8125,310.3594 Q687.4688,310.5156 688.0156,310.875 Z " fill="#000000"/><text fill="#000000" font-family="sans-serif" font-size="14" lengthAdjust="spacing" textLength="54" x="705.75" y="320.7969">Property</text><line style="stroke:#181818;stroke-width:0.5;" x1="462.5" x2="970.5" y1="331" y2="331"/><text fill="#000000" font-family="sans-serif" font-size="14" lengthAdjust="spacing" textLength="53" x="467.5" y="350.1074">-int area</text><text fill="#000000" font-family="sans-serif" font-size="14" lengthAdjust="spacing" textLength="88" x="467.5" y="368.7285">-int cityCenter</text><text fill="#000000" font-family="sans-serif" font-size="14" lengthAdjust="spacing" textLength="55" x="467.5" y="387.3496">-int price</text><line style="stroke:#181818;stroke-width:0.5;" x1="462.5" x2="970.5" y1="394.8633" y2="394.8633"/><text fill="#000000" font-family="sans-serif" font-size="14" lengthAdjust="spacing" textLength="189" x="467.5" y="413.9707">+PropertyType(propertyType)</text><text fill="#000000" font-family="sans-serif" font-size="14" lengthAdjust="spacing" textLength="463" x="467.5" y="432.5918">+createApartment(street, cityName, districtName, stateAcronym, zip-code,</text><text fill="#000000" font-family="sans-serif" font-size="14" lengthAdjust="spacing" textLength="498" x="467.5" y="451.2129">numBedrooms,numBathrooms,numParkingSpaces,photographs, propertyType)</text><text fill="#000000" font-family="sans-serif" font-size="14" lengthAdjust="spacing" textLength="438" x="467.5" y="469.834">+createHouse(street, cityName, districtName, stateAcronym, zip-code,</text><text fill="#000000" font-family="sans-serif" font-size="14" lengthAdjust="spacing" textLength="390" x="467.5" y="488.4551">numBedrooms,numBathrooms,numParkingSpaces, basement,</text><text fill="#000000" font-family="sans-serif" font-size="14" lengthAdjust="spacing" textLength="369" x="467.5" y="507.0762">inhabitableLoft, sunExposure, photographs, propertyType)</text><text fill="#000000" font-family="sans-serif" font-size="14" lengthAdjust="spacing" textLength="430" x="467.5" y="525.6973">+createLand(street, cityName, districtName, stateAcronym, zip-code,</text><text fill="#000000" font-family="sans-serif" font-size="14" lengthAdjust="spacing" textLength="178" x="467.5" y="544.3184">photographs, propertyType)</text></g><!--class Dwelling--><g id="elem_Dwelling"><rect codeLine="40" fill="#F1F1F1" height="196.9688" id="Dwelling" rx="2.5" ry="2.5" style="stroke:#181818;stroke-width:0.5;" width="311" x="87" y="631"/><ellipse cx="212.25" cy="647" fill="#ADD1B2" rx="11" ry="11" style="stroke:#181818;stroke-width:1.0;"/><path d="M215.0156,642.875 Q215.1719,642.6563 215.3594,642.5469 Q215.5469,642.4375 215.7656,642.4375 Q216.1406,642.4375 216.375,642.7031 Q216.6094,642.9531 216.6094,643.5625 L216.6094,645.0156 Q216.6094,645.625 216.375,645.8906 Q216.1406,646.1563 215.7656,646.1563 Q215.4219,646.1563 215.2188,645.9531 Q215.0156,645.7656 214.9063,645.25 Q214.8594,644.8906 214.6719,644.7031 Q214.3438,644.3281 213.7344,644.1094 Q213.125,643.8906 212.5,643.8906 Q211.7344,643.8906 211.0938,644.2188 Q210.4688,644.5469 209.9688,645.2969 Q209.4844,646.0469 209.4844,647.0781 L209.4844,648.1719 Q209.4844,649.4063 210.375,650.2344 Q211.2656,651.0469 212.8594,651.0469 Q213.7969,651.0469 214.4531,650.7969 Q214.8438,650.6406 215.2656,650.2031 Q215.5313,649.9375 215.6719,649.8594 Q215.8281,649.7813 216.0313,649.7813 Q216.3594,649.7813 216.6094,650.0469 Q216.875,650.2969 216.875,650.6406 Q216.875,650.9844 216.5313,651.3906 Q216.0313,651.9688 215.2344,652.2969 Q214.1563,652.75 212.8594,652.75 Q211.3438,652.75 210.1406,652.125 Q209.1563,651.625 208.4688,650.5625 Q207.7813,649.4844 207.7813,648.2031 L207.7813,647.0469 Q207.7813,645.7188 208.3906,644.5781 Q209.0156,643.4219 210.1094,642.8125 Q211.2031,642.1875 212.4375,642.1875 Q213.1719,642.1875 213.8125,642.3594 Q214.4688,642.5156 215.0156,642.875 Z " fill="#000000"/><text fill="#000000" font-family="sans-serif" font-size="14" lengthAdjust="spacing" textLength="52" x="232.75" y="652.7969">Dwelling</text><line style="stroke:#181818;stroke-width:0.5;" x1="88" x2="397" y1="663" y2="663"/><text fill="#000000" font-family="sans-serif" font-size="14" lengthAdjust="spacing" textLength="115" x="93" y="682.1074">-int numBedrooms</text><text fill="#000000" font-family="sans-serif" font-size="14" lengthAdjust="spacing" textLength="119" x="93" y="700.7285">-int numBathrooms</text><text fill="#000000" font-family="sans-serif" font-size="14" lengthAdjust="spacing" textLength="146" x="93" y="719.3496">-int numParkingSpaces</text><line style="stroke:#181818;stroke-width:0.5;" x1="88" x2="397" y1="726.8633" y2="726.8633"/><text fill="#000000" font-family="sans-serif" font-size="14" lengthAdjust="spacing" textLength="299" x="93" y="745.9707">+createDwelling(numBedrooms,numBathrooms,</text><text fill="#000000" font-family="sans-serif" font-size="14" lengthAdjust="spacing" textLength="127" x="93" y="764.5918">numParkingSpaces)</text><text fill="#000000" font-family="sans-serif" font-size="14" lengthAdjust="spacing" textLength="299" x="93" y="783.2129">+createDwelling(numBedrooms,numBathrooms,</text><text fill="#000000" font-family="sans-serif" font-size="14" lengthAdjust="spacing" textLength="192" x="93" y="801.834">numParkingSpaces,basement,</text><text fill="#000000" font-family="sans-serif" font-size="14" lengthAdjust="spacing" textLength="184" x="93" y="820.4551">inhabitableLoft,sunExposure)</text></g><!--class House--><g id="elem_House"><rect codeLine="49" fill="#F1F1F1" height="141.1055" id="House" rx="2.5" ry="2.5" style="stroke:#181818;stroke-width:0.5;" width="268" x="108.5" y="907"/><ellipse cx="218.25" cy="923" fill="#ADD1B2" rx="11" ry="11" style="stroke:#181818;stroke-width:1.0;"/><path d="M221.0156,918.875 Q221.1719,918.6563 221.3594,918.5469 Q221.5469,918.4375 221.7656,918.4375 Q222.1406,918.4375 222.375,918.7031 Q222.6094,918.9531 222.6094,919.5625 L222.6094,921.0156 Q222.6094,921.625 222.375,921.8906 Q222.1406,922.1563 221.7656,922.1563 Q221.4219,922.1563 221.2188,921.9531 Q221.0156,921.7656 220.9063,921.25 Q220.8594,920.8906 220.6719,920.7031 Q220.3438,920.3281 219.7344,920.1094 Q219.125,919.8906 218.5,919.8906 Q217.7344,919.8906 217.0938,920.2188 Q216.4688,920.5469 215.9688,921.2969 Q215.4844,922.0469 215.4844,923.0781 L215.4844,924.1719 Q215.4844,925.4063 216.375,926.2344 Q217.2656,927.0469 218.8594,927.0469 Q219.7969,927.0469 220.4531,926.7969 Q220.8438,926.6406 221.2656,926.2031 Q221.5313,925.9375 221.6719,925.8594 Q221.8281,925.7813 222.0313,925.7813 Q222.3594,925.7813 222.6094,926.0469 Q222.875,926.2969 222.875,926.6406 Q222.875,926.9844 222.5313,927.3906 Q222.0313,927.9688 221.2344,928.2969 Q220.1563,928.75 218.8594,928.75 Q217.3438,928.75 216.1406,928.125 Q215.1563,927.625 214.4688,926.5625 Q213.7813,925.4844 213.7813,924.2031 L213.7813,923.0469 Q213.7813,921.7188 214.3906,920.5781 Q215.0156,919.4219 216.1094,918.8125 Q217.2031,918.1875 218.4375,918.1875 Q219.1719,918.1875 219.8125,918.3594 Q220.4688,918.5156 221.0156,918.875 Z " fill="#000000"/><text fill="#000000" font-family="sans-serif" font-size="14" lengthAdjust="spacing" textLength="40" x="238.75" y="928.7969">House</text><line style="stroke:#181818;stroke-width:0.5;" x1="109.5" x2="375.5" y1="939" y2="939"/><text fill="#000000" font-family="sans-serif" font-size="14" lengthAdjust="spacing" textLength="122" x="114.5" y="958.1074">-boolean basement</text><text fill="#000000" font-family="sans-serif" font-size="14" lengthAdjust="spacing" textLength="153" x="114.5" y="976.7285">-boolean inhabitableLoft</text><text fill="#000000" font-family="sans-serif" font-size="14" lengthAdjust="spacing" textLength="106" x="114.5" y="995.3496">-int sunExposure</text><line style="stroke:#181818;stroke-width:0.5;" x1="109.5" x2="375.5" y1="1002.8633" y2="1002.8633"/><text fill="#000000" font-family="sans-serif" font-size="14" lengthAdjust="spacing" textLength="256" x="114.5" y="1021.9707">+createHouse(basement,inhabitableLoft,</text><text fill="#000000" font-family="sans-serif" font-size="14" lengthAdjust="spacing" textLength="87" x="114.5" y="1040.5918">sunExposure)</text></g><!--class PropertyType--><g id="elem_PropertyType"><rect codeLine="57" fill="#F1F1F1" height="85.2422" id="PropertyType" rx="2.5" ry="2.5" style="stroke:#181818;stroke-width:0.5;" width="201" x="433" y="687"/><ellipse cx="486.25" cy="703" fill="#ADD1B2" rx="11" ry="11" style="stroke:#181818;stroke-width:1.0;"/><path d="M489.0156,698.875 Q489.1719,698.6563 489.3594,698.5469 Q489.5469,698.4375 489.7656,698.4375 Q490.1406,698.4375 490.375,698.7031 Q490.6094,698.9531 490.6094,699.5625 L490.6094,701.0156 Q490.6094,701.625 490.375,701.8906 Q490.1406,702.1563 489.7656,702.1563 Q489.4219,702.1563 489.2188,701.9531 Q489.0156,701.7656 488.9063,701.25 Q488.8594,700.8906 488.6719,700.7031 Q488.3438,700.3281 487.7344,700.1094 Q487.125,699.8906 486.5,699.8906 Q485.7344,699.8906 485.0938,700.2188 Q484.4688,700.5469 483.9688,701.2969 Q483.4844,702.0469 483.4844,703.0781 L483.4844,704.1719 Q483.4844,705.4063 484.375,706.2344 Q485.2656,707.0469 486.8594,707.0469 Q487.7969,707.0469 488.4531,706.7969 Q488.8438,706.6406 489.2656,706.2031 Q489.5313,705.9375 489.6719,705.8594 Q489.8281,705.7813 490.0313,705.7813 Q490.3594,705.7813 490.6094,706.0469 Q490.875,706.2969 490.875,706.6406 Q490.875,706.9844 490.5313,707.3906 Q490.0313,707.9688 489.2344,708.2969 Q488.1563,708.75 486.8594,708.75 Q485.3438,708.75 484.1406,708.125 Q483.1563,707.625 482.4688,706.5625 Q481.7813,705.4844 481.7813,704.2031 L481.7813,703.0469 Q481.7813,701.7188 482.3906,700.5781 Q483.0156,699.4219 484.1094,698.8125 Q485.2031,698.1875 486.4375,698.1875 Q487.1719,698.1875 487.8125,698.3594 Q488.4688,698.5156 489.0156,698.875 Z " fill="#000000"/><text fill="#000000" font-family="sans-serif" font-size="14" lengthAdjust="spacing" textLength="86" x="506.75" y="708.7969">PropertyType</text><line style="stroke:#181818;stroke-width:0.5;" x1="434" x2="633" y1="719" y2="719"/><text fill="#000000" font-family="sans-serif" font-size="14" lengthAdjust="spacing" textLength="109" x="439" y="738.1074">-int propertyType</text><line style="stroke:#181818;stroke-width:0.5;" x1="434" x2="633" y1="745.6211" y2="745.6211"/><text fill="#000000" font-family="sans-serif" font-size="14" lengthAdjust="spacing" textLength="189" x="439" y="764.7285">+PropertyType(propertyType)</text></g><!--class Address--><g id="elem_Address"><rect codeLine="63" fill="#F1F1F1" height="159.7266" id="Address" rx="2.5" ry="2.5" style="stroke:#181818;stroke-width:0.5;" width="463" x="669" y="649.5"/><ellipse cx="870.25" cy="665.5" fill="#ADD1B2" rx="11" ry="11" style="stroke:#181818;stroke-width:1.0;"/><path d="M873.0156,661.375 Q873.1719,661.1563 873.3594,661.0469 Q873.5469,660.9375 873.7656,660.9375 Q874.1406,660.9375 874.375,661.2031 Q874.6094,661.4531 874.6094,662.0625 L874.6094,663.5156 Q874.6094,664.125 874.375,664.3906 Q874.1406,664.6563 873.7656,664.6563 Q873.4219,664.6563 873.2188,664.4531 Q873.0156,664.2656 872.9063,663.75 Q872.8594,663.3906 872.6719,663.2031 Q872.3438,662.8281 871.7344,662.6094 Q871.125,662.3906 870.5,662.3906 Q869.7344,662.3906 869.0938,662.7188 Q868.4688,663.0469 867.9688,663.7969 Q867.4844,664.5469 867.4844,665.5781 L867.4844,666.6719 Q867.4844,667.9063 868.375,668.7344 Q869.2656,669.5469 870.8594,669.5469 Q871.7969,669.5469 872.4531,669.2969 Q872.8438,669.1406 873.2656,668.7031 Q873.5313,668.4375 873.6719,668.3594 Q873.8281,668.2813 874.0313,668.2813 Q874.3594,668.2813 874.6094,668.5469 Q874.875,668.7969 874.875,669.1406 Q874.875,669.4844 874.5313,669.8906 Q874.0313,670.4688 873.2344,670.7969 Q872.1563,671.25 870.8594,671.25 Q869.3438,671.25 868.1406,670.625 Q867.1563,670.125 866.4688,669.0625 Q865.7813,667.9844 865.7813,666.7031 L865.7813,665.5469 Q865.7813,664.2188 866.3906,663.0781 Q867.0156,661.9219 868.1094,661.3125 Q869.2031,660.6875 870.4375,660.6875 Q871.1719,660.6875 871.8125,660.8594 Q872.4688,661.0156 873.0156,661.375 Z " fill="#000000"/><text fill="#000000" font-family="sans-serif" font-size="14" lengthAdjust="spacing" textLength="52" x="890.75" y="671.2969">Address</text><line style="stroke:#181818;stroke-width:0.5;" x1="670" x2="1131" y1="681.5" y2="681.5"/><text fill="#000000" font-family="sans-serif" font-size="14" lengthAdjust="spacing" textLength="82" x="675" y="700.6074">-String street</text><text fill="#000000" font-family="sans-serif" font-size="14" lengthAdjust="spacing" textLength="103" x="675" y="719.2285">-String cityName</text><text fill="#000000" font-family="sans-serif" font-size="14" lengthAdjust="spacing" textLength="123" x="675" y="737.8496">-String districtName</text><text fill="#000000" font-family="sans-serif" font-size="14" lengthAdjust="spacing" textLength="132" x="675" y="756.4707">-String stateAcronym</text><text fill="#000000" font-family="sans-serif" font-size="14" lengthAdjust="spacing" textLength="75" x="675" y="775.0918">-int zipCode</text><line style="stroke:#181818;stroke-width:0.5;" x1="670" x2="1131" y1="782.6055" y2="782.6055"/><text fill="#000000" font-family="sans-serif" font-size="14" lengthAdjust="spacing" textLength="451" x="675" y="801.7129">+createAddress(street, cityName, districtName, stateAcronym, zip-code)</text></g><!--class Photograph--><g id="elem_Photograph"><rect codeLine="72" fill="#F1F1F1" height="85.2422" id="Photograph" rx="2.5" ry="2.5" style="stroke:#181818;stroke-width:0.5;" width="256" x="1167.5" y="687"/><ellipse cx="1254.25" cy="703" fill="#ADD1B2" rx="11" ry="11" style="stroke:#181818;stroke-width:1.0;"/><path d="M1257.0156,698.875 Q1257.1719,698.6563 1257.3594,698.5469 Q1257.5469,698.4375 1257.7656,698.4375 Q1258.1406,698.4375 1258.375,698.7031 Q1258.6094,698.9531 1258.6094,699.5625 L1258.6094,701.0156 Q1258.6094,701.625 1258.375,701.8906 Q1258.1406,702.1563 1257.7656,702.1563 Q1257.4219,702.1563 1257.2188,701.9531 Q1257.0156,701.7656 1256.9063,701.25 Q1256.8594,700.8906 1256.6719,700.7031 Q1256.3438,700.3281 1255.7344,700.1094 Q1255.125,699.8906 1254.5,699.8906 Q1253.7344,699.8906 1253.0938,700.2188 Q1252.4688,700.5469 1251.9688,701.2969 Q1251.4844,702.0469 1251.4844,703.0781 L1251.4844,704.1719 Q1251.4844,705.4063 1252.375,706.2344 Q1253.2656,707.0469 1254.8594,707.0469 Q1255.7969,707.0469 1256.4531,706.7969 Q1256.8438,706.6406 1257.2656,706.2031 Q1257.5313,705.9375 1257.6719,705.8594 Q1257.8281,705.7813 1258.0313,705.7813 Q1258.3594,705.7813 1258.6094,706.0469 Q1258.875,706.2969 1258.875,706.6406 Q1258.875,706.9844 1258.5313,707.3906 Q1258.0313,707.9688 1257.2344,708.2969 Q1256.1563,708.75 1254.8594,708.75 Q1253.3438,708.75 1252.1406,708.125 Q1251.1563,707.625 1250.4688,706.5625 Q1249.7813,705.4844 1249.7813,704.2031 L1249.7813,703.0469 Q1249.7813,701.7188 1250.3906,700.5781 Q1251.0156,699.4219 1252.1094,698.8125 Q1253.2031,698.1875 1254.4375,698.1875 Q1255.1719,698.1875 1255.8125,698.3594 Q1256.4688,698.5156 1257.0156,698.875 Z " fill="#000000"/><text fill="#000000" font-family="sans-serif" font-size="14" lengthAdjust="spacing" textLength="74" x="1274.75" y="708.7969">Photograph</text><line style="stroke:#181818;stroke-width:0.5;" x1="1168.5" x2="1422.5" y1="719" y2="719"/><text fill="#000000" font-family="sans-serif" font-size="14" lengthAdjust="spacing" textLength="158" x="1173.5" y="738.1074">-String linkToPhotograph</text><line style="stroke:#181818;stroke-width:0.5;" x1="1168.5" x2="1422.5" y1="745.6211" y2="745.6211"/><text fill="#000000" font-family="sans-serif" font-size="14" lengthAdjust="spacing" textLength="244" x="1173.5" y="764.7285">+createPhotograph(linkToPhotograph)</text></g><!--link CreateRequestUI to CreateRequestController--><g id="link_CreateRequestUI_CreateRequestController"><path codeLine="77" d="M357.5,55.21 C357.5,70.44 357.5,91.05 357.5,110.43 " fill="none" id="CreateRequestUI-to-CreateRequestController" style="stroke:#181818;stroke-width:1.0;stroke-dasharray:7.0,7.0;"/><polygon fill="#181818" points="357.5,115.86,361.5,106.86,357.5,110.86,353.5,106.86,357.5,115.86" style="stroke:#181818;stroke-width:1.0;"/></g><!--link CreateRequestController to Property--><g id="link_CreateRequestController_Property"><path codeLine="79" d="M429.29,220.09 C460.28,242.15 498.08,269.05 535.94,295.99 " fill="none" id="CreateRequestController-to-Property" style="stroke:#181818;stroke-width:1.0;stroke-dasharray:7.0,7.0;"/><polygon fill="#181818" points="540.08,298.94,535.0561,290.4689,536.0027,296.046,530.4256,296.9926,540.08,298.94" style="stroke:#181818;stroke-width:1.0;"/></g><!--link CreateRequestController to AdvertisementRepository--><g id="link_CreateRequestController_AdvertisementRepository"><path codeLine="80" d="M312.11,220.09 C268.03,269.71 202.19,343.81 163.07,387.84 " fill="none" id="CreateRequestController-to-AdvertisementRepository" style="stroke:#181818;stroke-width:1.0;stroke-dasharray:7.0,7.0;"/><polygon fill="#181818" points="159.61,391.74,168.5712,387.6538,162.9247,387.9967,162.5818,382.3502,159.61,391.74" style="stroke:#181818;stroke-width:1.0;"/><text fill="#000000" font-family="sans-serif" font-size="13" lengthAdjust="spacing" textLength="43" x="285.5" y="265.0283">request</text></g><!--link CreateRequestController to AgentRepository--><g id="link_CreateRequestController_AgentRepository"><path codeLine="81" d="M357.5,220.09 C357.5,269.21 357.5,342.32 357.5,386.5 " fill="none" id="CreateRequestController-to-AgentRepository" style="stroke:#181818;stroke-width:1.0;stroke-dasharray:7.0,7.0;"/><polygon fill="#181818" points="357.5,391.74,361.5,382.74,357.5,386.74,353.5,382.74,357.5,391.74" style="stroke:#181818;stroke-width:1.0;"/><text fill="#000000" font-family="sans-serif" font-size="13" lengthAdjust="spacing" textLength="32" x="358.5" y="265.0283">agent</text></g><!--link Property to PropertyType--><g id="link_Property_PropertyType"><path codeLine="83" d="M640.22,552.39 C612.34,598.39 582.53,647.59 561.52,682.27 " fill="none" id="Property-to-PropertyType" style="stroke:#181818;stroke-width:1.0;stroke-dasharray:7.0,7.0;"/><polygon fill="#181818" points="558.74,686.85,566.8363,681.242,561.3397,682.579,560.0027,677.0824,558.74,686.85" style="stroke:#181818;stroke-width:1.0;"/><text fill="#000000" font-family="sans-serif" font-size="13" lengthAdjust="spacing" textLength="32" x="621.5" y="597.0283">has a</text><text fill="#000000" font-family="sans-serif" font-size="13" lengthAdjust="spacing" textLength="7" x="555.2048" y="675.7302">1</text></g><!--link Property to Address--><g id="link_Property_Address"><path codeLine="84" d="M793.2,552.39 C812.2,583.57 832.1,616.23 849.53,644.83 " fill="none" id="Property-to-Address" style="stroke:#181818;stroke-width:1.0;stroke-dasharray:7.0,7.0;"/><polygon fill="#181818" points="852.3,649.39,851.0373,639.6224,849.7003,645.119,844.2037,643.782,852.3,649.39" style="stroke:#181818;stroke-width:1.0;"/><text fill="#000000" font-family="sans-serif" font-size="13" lengthAdjust="spacing" textLength="57" x="821.5" y="597.0283">located at</text><text fill="#000000" font-family="sans-serif" font-size="13" lengthAdjust="spacing" textLength="7" x="840.5339" y="638.2756">1</text></g><!--link Property to Photograph--><g id="link_Property_Photograph"><path codeLine="85" d="M971.51,546.94 C1065.51,591.33 1149.5,631 1149.5,631 C1149.5,631 1190.44,658.34 1228.96,684.06 " fill="none" id="Property-to-Photograph" style="stroke:#181818;stroke-width:1.0;stroke-dasharray:7.0,7.0;"/><polygon fill="#181818" points="1233.16,686.87,1227.8903,678.5495,1228.9997,684.0965,1223.4527,685.2059,1233.16,686.87" style="stroke:#181818;stroke-width:1.0;"/><text fill="#000000" font-family="sans-serif" font-size="13" lengthAdjust="spacing" textLength="21" x="1078.5" y="597.0283">has</text><text fill="#000000" font-family="sans-serif" font-size="13" lengthAdjust="spacing" textLength="20" x="1201.6308" y="675.7534">1..*</text></g><!--link Property to Dwelling--><g id="link_Property_Dwelling"><path codeLine="86" d="M519.26,552.17 C479.56,577.46 438.34,603.72 400.21,628.02 " fill="none" id="Property-to-Dwelling" style="stroke:#181818;stroke-width:1.0;stroke-dasharray:7.0,7.0;"/><polygon fill="#181818" points="395.58,630.97,405.3195,629.5064,399.7965,628.2828,401.0201,622.7599,395.58,630.97" style="stroke:#181818;stroke-width:1.0;"/><text fill="#000000" font-family="sans-serif" font-size="13" lengthAdjust="spacing" textLength="39" x="466.5" y="597.0283">can be</text><text fill="#000000" font-family="sans-serif" font-size="13" lengthAdjust="spacing" textLength="7" x="400.0322" y="619.8162">1</text></g><!--link Dwelling to House--><g id="link_Dwelling_House"><path codeLine="87" d="M242.5,828.08 C242.5,852.52 242.5,878.37 242.5,901.52 " fill="none" id="Dwelling-to-House" style="stroke:#181818;stroke-width:1.0;stroke-dasharray:7.0,7.0;"/><polygon fill="#181818" points="242.5,906.72,246.5,897.72,242.5,901.72,238.5,897.72,242.5,906.72" style="stroke:#181818;stroke-width:1.0;"/><text fill="#000000" font-family="sans-serif" font-size="13" lengthAdjust="spacing" textLength="39" x="243.5" y="873.0283">can be</text><text fill="#000000" font-family="sans-serif" font-size="13" lengthAdjust="spacing" textLength="7" x="235.1391" y="895.5821">1</text></g><!--SRC=[lLLDRzim3BthLmYzr5dTOBlkC21B1wn0CHHDT-j5aHbRg2rw4htEBVRVHtyhRf81Ax2SBFAHV1IVc7F_Q6ofd2faWHPrvh00IQu2CNbAfHzL2XkgSv0ED2cRvY70Poh19sDJkLEv3psviK1r2RB4l6uEulo04nsX2A9qhhnV4JcphGYkDTgDUGRvNeZp77Oa2QKpQKOoCGqTWrQ8DaQk7IY2E_XHWQVlrmVDQxJaCC_1lGZ9lujZxcYL_0H7naC1bkwWH6y8NRtemrAWLSeUtqT6WqE7-QBIOSbfwbYg1hqGlmTQH_BtjFQpA6knihg5Nh5z8O8ywQ7uaLuKOczxDY_YqbYIYejqNzfGlMOukEvSEgD1N0puUnxKs4fpM8YUuOg7HWsjo9C3eBXDzKqL4FE0s6OqTITF3Lmxj7KHosTJNcfCsFvWRLLyXiGX5ZvklXLbu-5MELP6kc4PWe_B30bJfyhCn_8WdwzOUVWlNEHMTREB7woncTeQKjiSRd37XNrbl_pYaLIEi_wTzOsooHj8doWmpVxg2N9-T6a_-w3HoJ1qErhsMXxO3fcYevVLtkDUxE8jmV69gmvkEkosrG6tkaNCGTbnM9DbbgXhESYshwYHmRp-WzrZm0HcRwsPmylmgYRJoSSLRed4WVUSOCDIu2NRgMGy3c8P3Q5cWg19EXqLbi-QrJC-uwxCFsems6gtenGdoZpkntkSF4FHoHBD8Mt6sJwNo-MdOzjw1fuSRT1mqoT1H_Qn_CZ_UYt-T7GwZshtlH13xHPrzk5iJnSCovINwZMg7mW3SjHSDP6AvgZbyjrPSE5TijUfXXV7Vjsy112ZPO2q6f_yVm00]--></g></svg>