<?xml version="1.0" encoding="us-ascii" standalone="no"?><svg xmlns="http://www.w3.org/2000/svg" xmlns:xlink="http://www.w3.org/1999/xlink" contentStyleType="text/css" height="1602.9px" preserveAspectRatio="none" style="width:2098px;height:1602px;background:#FFFFFF;" version="1.1" viewBox="0 0 2098 1602" width="2098.8px" zoomAndPan="magnify"><defs/><g><rect fill="#FFFFFF" height="1428.2789" style="stroke:#181818;stroke-width:0.9;" width="9" x="34.65" y="84.259"/><rect fill="#FFFFFF" height="67.4209" style="stroke:#181818;stroke-width:0.9;" width="9" x="635.85" y="105.2209"/><rect fill="#FFFFFF" height="28.1619" style="stroke:#181818;stroke-width:0.9;" width="9" x="635.85" y="200.8037"/><rect fill="#FFFFFF" height="200.3309" style="stroke:#181818;stroke-width:0.9;" width="9" x="635.85" y="257.1275"/><rect fill="#FFFFFF" height="28.1619" style="stroke:#181818;stroke-width:0.9;" width="9" x="635.85" y="491.9203"/><rect fill="#FFFFFF" height="140.8096" style="stroke:#181818;stroke-width:0.9;" width="9" x="635.85" y="548.2441"/><rect fill="#FFFFFF" height="795.3223" style="stroke:#181818;stroke-width:0.9;" width="9" x="635.85" y="717.2156"/><rect fill="#FFFFFF" height="84.4857" style="stroke:#181818;stroke-width:0.9;" width="9" x="855.45" y="576.4061"/><rect fill="#FFFFFF" height="738.9984" style="stroke:#181818;stroke-width:0.9;" width="9" x="855.45" y="745.3775"/><rect fill="#FFFFFF" height="28.1619" style="stroke:#181818;stroke-width:0.9;" width="9" x="1218.6" y="604.568"/><rect fill="#FFFFFF" height="640.4537" style="stroke:#181818;stroke-width:0.9;" width="9" x="1435.05" y="880.1842"/><rect fill="none" height="194.0309" style="stroke:#000000;stroke-width:1.35;" width="697.05" x="9" y="270.6275"/><rect fill="none" height="194.0309" style="stroke:#000000;stroke-width:1.35;" width="707.4" x="771.75" y="826.2984"/><rect fill="none" height="179.0631" style="stroke:#000000;stroke-width:1.35;" width="450.9" x="1399.95" y="1072.1883"/><rect fill="none" height="56.6209" style="stroke:#000000;stroke-width:1.35;" width="612" x="1399.95" y="1303.1104"/><rect fill="none" height="56.6209" style="stroke:#000000;stroke-width:1.35;" width="693.9" x="1399.95" y="1372.3313"/><line style="stroke:#181818;stroke-width:0.45;stroke-dasharray:5.0,5.0;" x1="38.7" x2="38.7" y1="75.259" y2="1528.7379"/><line style="stroke:#181818;stroke-width:0.45;stroke-dasharray:5.0,5.0;" x1="640.35" x2="640.35" y1="75.259" y2="1528.7379"/><line style="stroke:#181818;stroke-width:0.45;stroke-dasharray:5.0,5.0;" x1="859.95" x2="859.95" y1="141.0504" y2="1528.7379"/><line style="stroke:#181818;stroke-width:0.45;stroke-dasharray:5.0,5.0;" x1="1079.55" x2="1079.55" y1="75.259" y2="1528.7379"/><line style="stroke:#181818;stroke-width:0.45;stroke-dasharray:5.0,5.0;" x1="1222.65" x2="1222.65" y1="75.259" y2="1528.7379"/><line style="stroke:#181818;stroke-width:0.45;stroke-dasharray:5.0,5.0;" x1="1439.55" x2="1439.55" y1="809.3689" y2="1528.7379"/><line style="stroke:#181818;stroke-width:0.45;stroke-dasharray:5.0,5.0;" x1="1670.85" x2="1670.85" y1="1055.2588" y2="1528.7379"/><line style="stroke:#181818;stroke-width:0.45;stroke-dasharray:5.0,5.0;" x1="1754.55" x2="1754.55" y1="1120.4121" y2="1528.7379"/><line style="stroke:#181818;stroke-width:0.45;stroke-dasharray:5.0,5.0;" x1="1817.55" x2="1817.55" y1="1238.3895" y2="1528.7379"/><line style="stroke:#181818;stroke-width:0.45;stroke-dasharray:5.0,5.0;" x1="1885.05" x2="1885.05" y1="1286.1809" y2="1528.7379"/><line style="stroke:#181818;stroke-width:0.45;stroke-dasharray:5.0,5.0;" x1="1963.35" x2="1963.35" y1="1349.1018" y2="1528.7379"/><line style="stroke:#181818;stroke-width:0.45;stroke-dasharray:5.0,5.0;" x1="2047.95" x2="2047.95" y1="1418.3227" y2="1528.7379"/><text fill="#000000" font-family="sans-serif" font-size="12.6" lengthAdjust="spacing" textLength="36.9" x="18" y="72.0967">Owner</text><ellipse cx="39.15" cy="12.15" fill="#E3E3E3" rx="7.2" ry="7.2" style="stroke:#181818;stroke-width:0.45;"/><path d="M39.15,19.35 L39.15,43.65 M27.45,26.55 L50.85,26.55 M39.15,43.65 L27.45,57.15 M39.15,43.65 L50.85,57.15 " fill="none" style="stroke:#181818;stroke-width:0.45;"/><text fill="#000000" font-family="sans-serif" font-size="12.6" lengthAdjust="spacing" textLength="36.9" x="18" y="1541.4346">Owner</text><ellipse cx="39.15" cy="1552.2469" fill="#E3E3E3" rx="7.2" ry="7.2" style="stroke:#181818;stroke-width:0.45;"/><path d="M39.15,1559.4469 L39.15,1583.7469 M27.45,1566.6469 L50.85,1566.6469 M39.15,1583.7469 L27.45,1597.2469 M39.15,1583.7469 L50.85,1597.2469 " fill="none" style="stroke:#181818;stroke-width:0.45;"/><rect fill="#E3E3E3" height="29.359" rx="2.25" ry="2.25" style="stroke:#181818;stroke-width:0.45;" width="113.4" x="583.65" y="45"/><text fill="#000000" font-family="sans-serif" font-size="12.6" lengthAdjust="spacing" textLength="100.8" x="589.95" y="64.8967">:CreateRequestUI</text><rect fill="#E3E3E3" height="29.359" rx="2.25" ry="2.25" style="stroke:#181818;stroke-width:0.45;" width="113.4" x="583.65" y="1527.8379"/><text fill="#000000" font-family="sans-serif" font-size="12.6" lengthAdjust="spacing" textLength="100.8" x="589.95" y="1547.7346">:CreateRequestUI</text><rect fill="#E3E3E3" height="29.359" rx="2.25" ry="2.25" style="stroke:#181818;stroke-width:0.45;" width="158.4" x="780.75" y="1527.8379"/><text fill="#000000" font-family="sans-serif" font-size="12.6" lengthAdjust="spacing" textLength="145.8" x="787.05" y="1547.7346">:CreateRequestController</text><rect fill="#E3E3E3" height="46.118" rx="2.25" ry="2.25" style="stroke:#181818;stroke-width:0.45;" width="158.4" x="1000.35" y="28.241"/><text fill="#000000" font-family="sans-serif" font-size="12.6" lengthAdjust="spacing" textLength="145.8" x="1006.65" y="48.1377">AdvertisementRepository:</text><text fill="#000000" font-family="sans-serif" font-size="12.6" lengthAdjust="spacing" textLength="142.2" x="1008.45" y="64.8967">AdvertisementRepository</text><rect fill="#E3E3E3" height="46.118" rx="2.25" ry="2.25" style="stroke:#181818;stroke-width:0.45;" width="158.4" x="1000.35" y="1527.8379"/><text fill="#000000" font-family="sans-serif" font-size="12.6" lengthAdjust="spacing" textLength="145.8" x="1006.65" y="1547.7346">AdvertisementRepository:</text><text fill="#000000" font-family="sans-serif" font-size="12.6" lengthAdjust="spacing" textLength="142.2" x="1008.45" y="1564.4936">AdvertisementRepository</text><rect fill="#E3E3E3" height="46.118" rx="2.25" ry="2.25" style="stroke:#181818;stroke-width:0.45;" width="110.7" x="1167.75" y="28.241"/><text fill="#000000" font-family="sans-serif" font-size="12.6" lengthAdjust="spacing" textLength="98.1" x="1174.05" y="48.1377">AgentRepository:</text><text fill="#000000" font-family="sans-serif" font-size="12.6" lengthAdjust="spacing" textLength="94.5" x="1175.85" y="64.8967">AgentRepository</text><rect fill="#E3E3E3" height="46.118" rx="2.25" ry="2.25" style="stroke:#181818;stroke-width:0.45;" width="110.7" x="1167.75" y="1527.8379"/><text fill="#000000" font-family="sans-serif" font-size="12.6" lengthAdjust="spacing" textLength="98.1" x="1174.05" y="1547.7346">AgentRepository:</text><text fill="#000000" font-family="sans-serif" font-size="12.6" lengthAdjust="spacing" textLength="94.5" x="1175.85" y="1564.4936">AgentRepository</text><rect fill="#E3E3E3" height="29.359" rx="2.25" ry="2.25" style="stroke:#181818;stroke-width:0.45;" width="61.2" x="1408.95" y="1527.8379"/><text fill="#000000" font-family="sans-serif" font-size="12.6" lengthAdjust="spacing" textLength="48.6" x="1415.25" y="1547.7346">Property</text><rect fill="#E3E3E3" height="29.359" rx="2.25" ry="2.25" style="stroke:#181818;stroke-width:0.45;" width="90" x="1625.85" y="1527.8379"/><text fill="#000000" font-family="sans-serif" font-size="12.6" lengthAdjust="spacing" textLength="77.4" x="1632.15" y="1547.7346">PropertyType</text><rect fill="#E3E3E3" height="29.359" rx="2.25" ry="2.25" style="stroke:#181818;stroke-width:0.45;" width="59.4" x="1724.85" y="1527.8379"/><text fill="#000000" font-family="sans-serif" font-size="12.6" lengthAdjust="spacing" textLength="46.8" x="1731.15" y="1547.7346">Dwelling</text><rect fill="#E3E3E3" height="29.359" rx="2.25" ry="2.25" style="stroke:#181818;stroke-width:0.45;" width="48.6" x="1793.25" y="1527.8379"/><text fill="#000000" font-family="sans-serif" font-size="12.6" lengthAdjust="spacing" textLength="36" x="1799.55" y="1547.7346">House</text><rect fill="#E3E3E3" height="29.359" rx="2.25" ry="2.25" style="stroke:#181818;stroke-width:0.45;" width="59.4" x="1855.35" y="1527.8379"/><text fill="#000000" font-family="sans-serif" font-size="12.6" lengthAdjust="spacing" textLength="46.8" x="1861.65" y="1547.7346">Address</text><rect fill="#E3E3E3" height="29.359" rx="2.25" ry="2.25" style="stroke:#181818;stroke-width:0.45;" width="79.2" x="1923.75" y="1527.8379"/><text fill="#000000" font-family="sans-serif" font-size="12.6" lengthAdjust="spacing" textLength="66.6" x="1930.05" y="1547.7346">Photograph</text><rect fill="#E3E3E3" height="29.359" rx="2.25" ry="2.25" style="stroke:#181818;stroke-width:0.45;" width="72.9" x="2011.95" y="1527.8379"/><text fill="#000000" font-family="sans-serif" font-size="12.6" lengthAdjust="spacing" textLength="60.3" x="2018.25" y="1547.7346">Equipment</text><rect fill="#FFFFFF" height="1428.2789" style="stroke:#181818;stroke-width:0.9;" width="9" x="34.65" y="84.259"/><rect fill="#FFFFFF" height="67.4209" style="stroke:#181818;stroke-width:0.9;" width="9" x="635.85" y="105.2209"/><rect fill="#FFFFFF" height="28.1619" style="stroke:#181818;stroke-width:0.9;" width="9" x="635.85" y="200.8037"/><rect fill="#FFFFFF" height="200.3309" style="stroke:#181818;stroke-width:0.9;" width="9" x="635.85" y="257.1275"/><rect fill="#FFFFFF" height="28.1619" style="stroke:#181818;stroke-width:0.9;" width="9" x="635.85" y="491.9203"/><rect fill="#FFFFFF" height="140.8096" style="stroke:#181818;stroke-width:0.9;" width="9" x="635.85" y="548.2441"/><rect fill="#FFFFFF" height="795.3223" style="stroke:#181818;stroke-width:0.9;" width="9" x="635.85" y="717.2156"/><rect fill="#FFFFFF" height="84.4857" style="stroke:#181818;stroke-width:0.9;" width="9" x="855.45" y="576.4061"/><rect fill="#FFFFFF" height="738.9984" style="stroke:#181818;stroke-width:0.9;" width="9" x="855.45" y="745.3775"/><rect fill="#FFFFFF" height="28.1619" style="stroke:#181818;stroke-width:0.9;" width="9" x="1218.6" y="604.568"/><rect fill="#FFFFFF" height="640.4537" style="stroke:#181818;stroke-width:0.9;" width="9" x="1435.05" y="880.1842"/><polygon fill="#181818" points="625.05,101.6209,634.05,105.2209,625.05,108.8209,628.65,105.2209" style="stroke:#181818;stroke-width:0.9;"/><line style="stroke:#181818;stroke-width:0.9;" x1="43.65" x2="630.45" y1="105.2209" y2="105.2209"/><text fill="#000000" font-family="sans-serif" font-size="11.7" font-weight="bold" lengthAdjust="spacing" textLength="6.3" x="49.95" y="100.4845">1</text><text fill="#000000" font-family="sans-serif" font-size="11.7" lengthAdjust="spacing" textLength="126.9" x="59.85" y="100.4845">asks to create a request</text><polygon fill="#181818" points="769.95,129.7828,778.95,133.3828,769.95,136.9828,773.55,133.3828" style="stroke:#181818;stroke-width:0.9;"/><line style="stroke:#181818;stroke-width:0.9;" x1="644.85" x2="775.35" y1="133.3828" y2="133.3828"/><text fill="#000000" font-family="sans-serif" font-size="11.7" font-weight="bold" lengthAdjust="spacing" textLength="6.3" x="651.15" y="128.6464">2</text><text fill="#000000" font-family="sans-serif" font-size="11.7" lengthAdjust="spacing" textLength="32.4" x="661.05" y="128.6464">create</text><rect fill="#E3E3E3" height="29.359" rx="2.25" ry="2.25" style="stroke:#181818;stroke-width:0.45;" width="158.4" x="780.75" y="112.4209"/><text fill="#000000" font-family="sans-serif" font-size="12.6" lengthAdjust="spacing" textLength="145.8" x="787.05" y="132.3176">:CreateRequestController</text><polygon fill="#181818" points="53.55,169.0418,44.55,172.6418,53.55,176.2418,49.95,172.6418" style="stroke:#181818;stroke-width:0.9;"/><line style="stroke:#181818;stroke-width:0.9;stroke-dasharray:2.0,2.0;" x1="48.15" x2="639.45" y1="172.6418" y2="172.6418"/><text fill="#000000" font-family="sans-serif" font-size="11.7" font-weight="bold" lengthAdjust="spacing" textLength="6.3" x="58.95" y="167.9054">3</text><text fill="#000000" font-family="sans-serif" font-size="11.7" lengthAdjust="spacing" textLength="64.8" x="68.85" y="167.9054">sale or rent?</text><polygon fill="#181818" points="625.05,197.2037,634.05,200.8037,625.05,204.4037,628.65,200.8037" style="stroke:#181818;stroke-width:0.9;"/><line style="stroke:#181818;stroke-width:0.9;" x1="43.65" x2="630.45" y1="200.8037" y2="200.8037"/><text fill="#000000" font-family="sans-serif" font-size="11.7" font-weight="bold" lengthAdjust="spacing" textLength="6.3" x="49.95" y="196.0673">4</text><text fill="#000000" font-family="sans-serif" font-size="11.7" lengthAdjust="spacing" textLength="113.4" x="59.85" y="196.0673">selects wanted option</text><polygon fill="#181818" points="53.55,225.3656,44.55,228.9656,53.55,232.5656,49.95,228.9656" style="stroke:#181818;stroke-width:0.9;"/><line style="stroke:#181818;stroke-width:0.9;" x1="48.15" x2="639.45" y1="228.9656" y2="228.9656"/><text fill="#000000" font-family="sans-serif" font-size="11.7" font-weight="bold" lengthAdjust="spacing" textLength="6.3" x="58.95" y="224.2292">5</text><text fill="#000000" font-family="sans-serif" font-size="11.7" lengthAdjust="spacing" textLength="117" x="68.85" y="224.2292">asks the property type</text><polygon fill="#181818" points="625.05,253.5275,634.05,257.1275,625.05,260.7275,628.65,257.1275" style="stroke:#181818;stroke-width:0.9;"/><line style="stroke:#181818;stroke-width:0.9;" x1="43.65" x2="630.45" y1="257.1275" y2="257.1275"/><text fill="#000000" font-family="sans-serif" font-size="11.7" font-weight="bold" lengthAdjust="spacing" textLength="6.3" x="49.95" y="252.3911">6</text><text fill="#000000" font-family="sans-serif" font-size="11.7" lengthAdjust="spacing" textLength="109.8" x="59.85" y="252.3911">selects property type</text><path d="M9,270.6275 L63.9,270.6275 L63.9,278.9895 L54.9,287.9895 L9,287.9895 L9,270.6275 " fill="#EEEEEE" style="stroke:#000000;stroke-width:1.35;"/><rect fill="none" height="194.0309" style="stroke:#000000;stroke-width:1.35;" width="697.05" x="9" y="270.6275"/><text fill="#000000" font-family="sans-serif" font-size="11.7" font-weight="bold" lengthAdjust="spacing" textLength="14.4" x="22.5" y="284.153">alt</text><text fill="#000000" font-family="sans-serif" font-size="9.9" font-weight="bold" lengthAdjust="spacing" textLength="90.9" x="77.4" y="283.1106">[type = apartment]</text><polygon fill="#181818" points="53.55,320.9133,44.55,324.5133,53.55,328.1133,49.95,324.5133" style="stroke:#181818;stroke-width:0.9;"/><line style="stroke:#181818;stroke-width:0.9;stroke-dasharray:2.0,2.0;" x1="48.15" x2="634.95" y1="324.5133" y2="324.5133"/><text fill="#000000" font-family="sans-serif" font-size="11.7" font-weight="bold" lengthAdjust="spacing" textLength="6.3" x="58.95" y="311.9959">7</text><text fill="#000000" font-family="sans-serif" font-size="11.7" lengthAdjust="spacing" textLength="430.2" x="68.85" y="304.2149">requests the apartment characteristics(area, cityCenterDistance, street, cityName,</text><text fill="#000000" font-family="sans-serif" font-size="11.7" lengthAdjust="spacing" textLength="560.7" x="68.85" y="319.7769">districtName, stateAcronym, zip-code, numBedrooms,numBathrooms,numParkingSpaces, arrayEquipment)</text><line style="stroke:#000000;stroke-width:0.9;stroke-dasharray:2.0,2.0;" x1="9" x2="706.05" y1="332.6133" y2="332.6133"/><text fill="#000000" font-family="sans-serif" font-size="9.9" font-weight="bold" lengthAdjust="spacing" textLength="71.1" x="13.5" y="343.2964">[type = house]</text><polygon fill="#181818" points="53.55,395.1668,44.55,398.7668,53.55,402.3668,49.95,398.7668" style="stroke:#181818;stroke-width:0.9;"/><line style="stroke:#181818;stroke-width:0.9;stroke-dasharray:2.0,2.0;" x1="48.15" x2="634.95" y1="398.7668" y2="398.7668"/><text fill="#000000" font-family="sans-serif" font-size="11.7" font-weight="bold" lengthAdjust="spacing" textLength="6.3" x="58.95" y="378.4685">8</text><text fill="#000000" font-family="sans-serif" font-size="11.7" lengthAdjust="spacing" textLength="409.5" x="68.85" y="362.9065">requests the house characteristics(area, cityCenterDistance, street, cityName,</text><text fill="#000000" font-family="sans-serif" font-size="11.7" lengthAdjust="spacing" textLength="471.6" x="68.85" y="378.4685">districtName, stateAcronym, zip-code, numBedrooms,numBathrooms,numParkingSpaces,</text><text fill="#000000" font-family="sans-serif" font-size="11.7" lengthAdjust="spacing" textLength="297.9" x="68.85" y="394.0304">basement,inhabitableLoft, sunExposure, arrayEquipment)</text><line style="stroke:#000000;stroke-width:0.9;stroke-dasharray:2.0,2.0;" x1="9" x2="706.05" y1="406.8668" y2="406.8668"/><text fill="#000000" font-family="sans-serif" font-size="9.9" font-weight="bold" lengthAdjust="spacing" textLength="60.3" x="13.5" y="417.5499">[type = land]</text><polygon fill="#181818" points="53.55,453.8584,44.55,457.4584,53.55,461.0584,49.95,457.4584" style="stroke:#181818;stroke-width:0.9;"/><line style="stroke:#181818;stroke-width:0.9;stroke-dasharray:2.0,2.0;" x1="48.15" x2="639.45" y1="457.4584" y2="457.4584"/><text fill="#000000" font-family="sans-serif" font-size="11.7" font-weight="bold" lengthAdjust="spacing" textLength="6.3" x="58.95" y="444.941">9</text><text fill="#000000" font-family="sans-serif" font-size="11.7" lengthAdjust="spacing" textLength="403.2" x="68.85" y="437.1601">requests the land characteristics(area, cityCenterDistance , street, cityName,</text><text fill="#000000" font-family="sans-serif" font-size="11.7" lengthAdjust="spacing" textLength="200.7" x="68.85" y="452.722">districtName, stateAcronym, zip-code)</text><polygon fill="#181818" points="625.05,488.3203,634.05,491.9203,625.05,495.5203,628.65,491.9203" style="stroke:#181818;stroke-width:0.9;"/><line style="stroke:#181818;stroke-width:0.9;stroke-dasharray:2.0,2.0;" x1="43.65" x2="630.45" y1="491.9203" y2="491.9203"/><text fill="#000000" font-family="sans-serif" font-size="11.7" font-weight="bold" lengthAdjust="spacing" textLength="12.6" x="49.95" y="487.1839">10</text><text fill="#000000" font-family="sans-serif" font-size="11.7" lengthAdjust="spacing" textLength="162.9" x="66.15" y="487.1839">fills the property characteristics</text><polygon fill="#181818" points="53.55,516.4822,44.55,520.0822,53.55,523.6822,49.95,520.0822" style="stroke:#181818;stroke-width:0.9;"/><line style="stroke:#181818;stroke-width:0.9;stroke-dasharray:2.0,2.0;" x1="48.15" x2="639.45" y1="520.0822" y2="520.0822"/><text fill="#000000" font-family="sans-serif" font-size="11.7" font-weight="bold" lengthAdjust="spacing" textLength="12.6" x="58.95" y="515.3458">11</text><text fill="#000000" font-family="sans-serif" font-size="11.7" lengthAdjust="spacing" textLength="103.5" x="75.15" y="515.3458">aks to insert photos</text><polygon fill="#181818" points="625.05,544.6441,634.05,548.2441,625.05,551.8441,628.65,548.2441" style="stroke:#181818;stroke-width:0.9;"/><line style="stroke:#181818;stroke-width:0.9;" x1="43.65" x2="630.45" y1="548.2441" y2="548.2441"/><text fill="#000000" font-family="sans-serif" font-size="11.7" font-weight="bold" lengthAdjust="spacing" textLength="12.6" x="49.95" y="543.5077">12</text><text fill="#000000" font-family="sans-serif" font-size="11.7" lengthAdjust="spacing" textLength="142.2" x="66.15" y="543.5077">inserts photos(at least one)</text><polygon fill="#181818" points="844.65,572.8061,853.65,576.4061,844.65,580.0061,848.25,576.4061" style="stroke:#181818;stroke-width:0.9;"/><line style="stroke:#181818;stroke-width:0.9;" x1="644.85" x2="850.05" y1="576.4061" y2="576.4061"/><text fill="#000000" font-family="sans-serif" font-size="11.7" font-weight="bold" lengthAdjust="spacing" textLength="12.6" x="651.15" y="571.6696">13</text><text fill="#000000" font-family="sans-serif" font-size="11.7" lengthAdjust="spacing" textLength="60.3" x="667.35" y="571.6696">getAgents()</text><polygon fill="#181818" points="1207.8,600.968,1216.8,604.568,1207.8,608.168,1211.4,604.568" style="stroke:#181818;stroke-width:0.9;"/><line style="stroke:#181818;stroke-width:0.9;" x1="864.45" x2="1213.2" y1="604.568" y2="604.568"/><text fill="#000000" font-family="sans-serif" font-size="11.7" font-weight="bold" lengthAdjust="spacing" textLength="12.6" x="870.75" y="599.8315">14</text><text fill="#000000" font-family="sans-serif" font-size="11.7" lengthAdjust="spacing" textLength="60.3" x="886.95" y="599.8315">getAgents()</text><polygon fill="#181818" points="874.35,629.1299,865.35,632.7299,874.35,636.3299,870.75,632.7299" style="stroke:#181818;stroke-width:0.9;"/><line style="stroke:#181818;stroke-width:0.9;" x1="868.95" x2="1222.2" y1="632.7299" y2="632.7299"/><text fill="#000000" font-family="sans-serif" font-size="11.7" font-weight="bold" lengthAdjust="spacing" textLength="12.6" x="879.75" y="627.9935">15</text><text fill="#000000" font-family="sans-serif" font-size="11.7" lengthAdjust="spacing" textLength="49.5" x="895.95" y="627.9935">AgentList</text><polygon fill="#181818" points="654.75,657.2918,645.75,660.8918,654.75,664.4918,651.15,660.8918" style="stroke:#181818;stroke-width:0.9;"/><line style="stroke:#181818;stroke-width:0.9;" x1="649.35" x2="859.05" y1="660.8918" y2="660.8918"/><text fill="#000000" font-family="sans-serif" font-size="11.7" font-weight="bold" lengthAdjust="spacing" textLength="12.6" x="660.15" y="656.1554">16</text><text fill="#000000" font-family="sans-serif" font-size="11.7" lengthAdjust="spacing" textLength="49.5" x="676.35" y="656.1554">AgentList</text><polygon fill="#181818" points="53.55,685.4537,44.55,689.0537,53.55,692.6537,49.95,689.0537" style="stroke:#181818;stroke-width:0.9;"/><line style="stroke:#181818;stroke-width:0.9;stroke-dasharray:2.0,2.0;" x1="48.15" x2="639.45" y1="689.0537" y2="689.0537"/><text fill="#000000" font-family="sans-serif" font-size="11.7" font-weight="bold" lengthAdjust="spacing" textLength="12.6" x="58.95" y="684.3173">17</text><text fill="#000000" font-family="sans-serif" font-size="11.7" lengthAdjust="spacing" textLength="223.2" x="75.15" y="684.3173">displays agents list and asks to select one</text><polygon fill="#181818" points="625.05,713.6156,634.05,717.2156,625.05,720.8156,628.65,717.2156" style="stroke:#181818;stroke-width:0.9;"/><line style="stroke:#181818;stroke-width:0.9;" x1="43.65" x2="630.45" y1="717.2156" y2="717.2156"/><text fill="#000000" font-family="sans-serif" font-size="11.7" font-weight="bold" lengthAdjust="spacing" textLength="12.6" x="49.95" y="712.4792">18</text><text fill="#000000" font-family="sans-serif" font-size="11.7" lengthAdjust="spacing" textLength="70.2" x="66.15" y="712.4792">selects agent</text><polygon fill="#181818" points="844.65,741.7775,853.65,745.3775,844.65,748.9775,848.25,745.3775" style="stroke:#181818;stroke-width:0.9;"/><line style="stroke:#181818;stroke-width:0.9;" x1="644.85" x2="850.05" y1="745.3775" y2="745.3775"/><text fill="#000000" font-family="sans-serif" font-size="11.7" font-weight="bold" lengthAdjust="spacing" textLength="12.6" x="651.15" y="740.6411">19</text><text fill="#000000" font-family="sans-serif" font-size="11.7" lengthAdjust="spacing" textLength="177.3" x="667.35" y="740.6411">createRequest(anouncementDate)</text><polygon fill="#181818" points="1068.75,769.9395,1077.75,773.5395,1068.75,777.1395,1072.35,773.5395" style="stroke:#181818;stroke-width:0.9;"/><line style="stroke:#181818;stroke-width:0.9;" x1="864.45" x2="1074.15" y1="773.5395" y2="773.5395"/><text fill="#000000" font-family="sans-serif" font-size="11.7" font-weight="bold" lengthAdjust="spacing" textLength="12.6" x="870.75" y="768.803">20</text><text fill="#000000" font-family="sans-serif" font-size="11.7" lengthAdjust="spacing" textLength="177.3" x="886.95" y="768.803">createRequest(anouncementDate)</text><polygon fill="#181818" points="1398.15,798.1014,1407.15,801.7014,1398.15,805.3014,1401.75,801.7014" style="stroke:#181818;stroke-width:0.9;"/><line style="stroke:#181818;stroke-width:0.9;" x1="864.45" x2="1403.55" y1="801.7014" y2="801.7014"/><text fill="#000000" font-family="sans-serif" font-size="11.7" font-weight="bold" lengthAdjust="spacing" textLength="12.6" x="870.75" y="796.9649">21</text><text fill="#000000" font-family="sans-serif" font-size="11.7" lengthAdjust="spacing" textLength="244.8" x="886.95" y="796.9649">createProperty(area, cityCenterDistance, price)</text><rect fill="#E3E3E3" height="29.359" rx="2.25" ry="2.25" style="stroke:#181818;stroke-width:0.45;" width="61.2" x="1408.95" y="780.7395"/><text fill="#000000" font-family="sans-serif" font-size="12.6" lengthAdjust="spacing" textLength="48.6" x="1415.25" y="800.6361">Property</text><path d="M771.75,826.2984 L826.65,826.2984 L826.65,834.6604 L817.65,843.6604 L771.75,843.6604 L771.75,826.2984 " fill="#EEEEEE" style="stroke:#000000;stroke-width:1.35;"/><rect fill="none" height="194.0309" style="stroke:#000000;stroke-width:1.35;" width="707.4" x="771.75" y="826.2984"/><text fill="#000000" font-family="sans-serif" font-size="11.7" font-weight="bold" lengthAdjust="spacing" textLength="14.4" x="785.25" y="839.8239">alt</text><text fill="#000000" font-family="sans-serif" font-size="9.9" font-weight="bold" lengthAdjust="spacing" textLength="90.9" x="840.15" y="838.7815">[type = apartment]</text><polygon fill="#181818" points="1424.25,876.5842,1433.25,880.1842,1424.25,883.7842,1427.85,880.1842" style="stroke:#181818;stroke-width:0.9;"/><line style="stroke:#181818;stroke-width:0.9;" x1="864.45" x2="1429.65" y1="880.1842" y2="880.1842"/><text fill="#000000" font-family="sans-serif" font-size="11.7" font-weight="bold" lengthAdjust="spacing" textLength="12.6" x="870.75" y="867.6668">22</text><text fill="#000000" font-family="sans-serif" font-size="11.7" lengthAdjust="spacing" textLength="384.3" x="886.95" y="859.8858">createApartment(street, cityName, districtName, stateAcronym, zip-code,</text><text fill="#000000" font-family="sans-serif" font-size="11.7" lengthAdjust="spacing" textLength="537.3" x="886.95" y="875.4478">numBedrooms, numBathrooms, numParkingSpaces, arrayPhotographs, arrayEquipment, propertyType)</text><line style="stroke:#000000;stroke-width:0.9;stroke-dasharray:2.0,2.0;" x1="771.75" x2="1479.15" y1="888.2842" y2="888.2842"/><text fill="#000000" font-family="sans-serif" font-size="9.9" font-weight="bold" lengthAdjust="spacing" textLength="71.1" x="776.25" y="898.9673">[type = house]</text><polygon fill="#181818" points="1424.25,950.8377,1433.25,954.4377,1424.25,958.0377,1427.85,954.4377" style="stroke:#181818;stroke-width:0.9;"/><line style="stroke:#181818;stroke-width:0.9;" x1="864.45" x2="1429.65" y1="954.4377" y2="954.4377"/><text fill="#000000" font-family="sans-serif" font-size="11.7" font-weight="bold" lengthAdjust="spacing" textLength="12.6" x="870.75" y="934.1394">23</text><text fill="#000000" font-family="sans-serif" font-size="11.7" lengthAdjust="spacing" textLength="363.6" x="886.95" y="918.5774">createHouse(street, cityName, districtName, stateAcronym, zip-code,</text><text fill="#000000" font-family="sans-serif" font-size="11.7" lengthAdjust="spacing" textLength="325.8" x="886.95" y="934.1394">numBedrooms,numBathrooms,numParkingSpaces, basement,</text><text fill="#000000" font-family="sans-serif" font-size="11.7" lengthAdjust="spacing" textLength="416.7" x="886.95" y="949.7013">inhabitableLoft, sunExposure, arrayPhotographs, arrayEquipment, propertyType)</text><line style="stroke:#000000;stroke-width:0.9;stroke-dasharray:2.0,2.0;" x1="771.75" x2="1479.15" y1="962.5377" y2="962.5377"/><text fill="#000000" font-family="sans-serif" font-size="9.9" font-weight="bold" lengthAdjust="spacing" textLength="60.3" x="776.25" y="973.2208">[type = land]</text><polygon fill="#181818" points="1424.25,1009.5293,1433.25,1013.1293,1424.25,1016.7293,1427.85,1013.1293" style="stroke:#181818;stroke-width:0.9;"/><line style="stroke:#181818;stroke-width:0.9;" x1="864.45" x2="1429.65" y1="1013.1293" y2="1013.1293"/><text fill="#000000" font-family="sans-serif" font-size="11.7" font-weight="bold" lengthAdjust="spacing" textLength="12.6" x="870.75" y="1000.6119">24</text><text fill="#000000" font-family="sans-serif" font-size="11.7" lengthAdjust="spacing" textLength="355.5" x="886.95" y="992.831">createLand(street, cityName, districtName, stateAcronym, zip-code,</text><text fill="#000000" font-family="sans-serif" font-size="11.7" lengthAdjust="spacing" textLength="142.2" x="886.95" y="1008.3929">photographs, propertyType)</text><polygon fill="#181818" points="1615.05,1043.9912,1624.05,1047.5912,1615.05,1051.1912,1618.65,1047.5912" style="stroke:#181818;stroke-width:0.9;"/><line style="stroke:#181818;stroke-width:0.9;" x1="1444.05" x2="1620.45" y1="1047.5912" y2="1047.5912"/><text fill="#000000" font-family="sans-serif" font-size="11.7" font-weight="bold" lengthAdjust="spacing" textLength="12.6" x="1450.35" y="1042.8548">25</text><text fill="#000000" font-family="sans-serif" font-size="11.7" lengthAdjust="spacing" textLength="144" x="1466.55" y="1042.8548">PropertyType(propertyType)</text><rect fill="#E3E3E3" height="29.359" rx="2.25" ry="2.25" style="stroke:#181818;stroke-width:0.45;" width="90" x="1625.85" y="1026.6293"/><text fill="#000000" font-family="sans-serif" font-size="12.6" lengthAdjust="spacing" textLength="77.4" x="1632.15" y="1046.526">PropertyType</text><path d="M1399.95,1072.1883 L1454.85,1072.1883 L1454.85,1080.5502 L1445.85,1089.5502 L1399.95,1089.5502 L1399.95,1072.1883 " fill="#EEEEEE" style="stroke:#000000;stroke-width:1.35;"/><rect fill="none" height="179.0631" style="stroke:#000000;stroke-width:1.35;" width="450.9" x="1399.95" y="1072.1883"/><text fill="#000000" font-family="sans-serif" font-size="11.7" font-weight="bold" lengthAdjust="spacing" textLength="14.4" x="1413.45" y="1085.7138">alt</text><text fill="#000000" font-family="sans-serif" font-size="9.9" font-weight="bold" lengthAdjust="spacing" textLength="90.9" x="1468.35" y="1084.6714">[type = apartment]</text><polygon fill="#181818" points="1714.05,1122.474,1723.05,1126.074,1714.05,1129.674,1717.65,1126.074" style="stroke:#181818;stroke-width:0.9;"/><line style="stroke:#181818;stroke-width:0.9;" x1="1444.05" x2="1719.45" y1="1126.074" y2="1126.074"/><text fill="#000000" font-family="sans-serif" font-size="11.7" font-weight="bold" lengthAdjust="spacing" textLength="12.6" x="1450.35" y="1113.5566">26</text><text fill="#000000" font-family="sans-serif" font-size="11.7" lengthAdjust="spacing" textLength="241.2" x="1466.55" y="1105.7757">createDwelling(numBedrooms,numBathrooms,</text><text fill="#000000" font-family="sans-serif" font-size="11.7" lengthAdjust="spacing" textLength="105.3" x="1466.55" y="1121.3376">numParkingSpaces)</text><rect fill="#E3E3E3" height="29.359" rx="2.25" ry="2.25" style="stroke:#181818;stroke-width:0.45;" width="59.4" x="1724.85" y="1094.015"/><text fill="#000000" font-family="sans-serif" font-size="12.6" lengthAdjust="spacing" textLength="46.8" x="1731.15" y="1113.9117">Dwelling</text><line style="stroke:#000000;stroke-width:0.9;stroke-dasharray:2.0,2.0;" x1="1399.95" x2="1850.85" y1="1134.174" y2="1134.174"/><text fill="#000000" font-family="sans-serif" font-size="9.9" font-weight="bold" lengthAdjust="spacing" textLength="71.1" x="1404.45" y="1144.8571">[type = house]</text><polygon fill="#181818" points="1743.75,1196.7275,1752.75,1200.3275,1743.75,1203.9275,1747.35,1200.3275" style="stroke:#181818;stroke-width:0.9;"/><line style="stroke:#181818;stroke-width:0.9;" x1="1444.05" x2="1749.15" y1="1200.3275" y2="1200.3275"/><text fill="#000000" font-family="sans-serif" font-size="11.7" font-weight="bold" lengthAdjust="spacing" textLength="12.6" x="1450.35" y="1180.0292">27</text><text fill="#000000" font-family="sans-serif" font-size="11.7" lengthAdjust="spacing" textLength="241.2" x="1466.55" y="1164.4673">createDwelling(numBedrooms,numBathrooms,</text><text fill="#000000" font-family="sans-serif" font-size="11.7" lengthAdjust="spacing" textLength="160.2" x="1466.55" y="1180.0292">numParkingSpaces,basement,</text><text fill="#000000" font-family="sans-serif" font-size="11.7" lengthAdjust="spacing" textLength="150.3" x="1466.55" y="1195.5911">inhabitableLoft,sunExposure)</text><polygon fill="#181818" points="1782.45,1240.4514,1791.45,1244.0514,1782.45,1247.6514,1786.05,1244.0514" style="stroke:#181818;stroke-width:0.9;"/><line style="stroke:#181818;stroke-width:0.9;" x1="1444.05" x2="1787.85" y1="1244.0514" y2="1244.0514"/><text fill="#000000" font-family="sans-serif" font-size="11.7" font-weight="bold" lengthAdjust="spacing" textLength="12.6" x="1450.35" y="1231.534">28</text><text fill="#000000" font-family="sans-serif" font-size="11.7" lengthAdjust="spacing" textLength="202.5" x="1466.55" y="1223.753">createHouse(basement,inhabitableLoft,</text><text fill="#000000" font-family="sans-serif" font-size="11.7" lengthAdjust="spacing" textLength="72" x="1466.55" y="1239.3149">sunExposure)</text><rect fill="#E3E3E3" height="29.359" rx="2.25" ry="2.25" style="stroke:#181818;stroke-width:0.45;" width="48.6" x="1793.25" y="1211.9924"/><text fill="#000000" font-family="sans-serif" font-size="12.6" lengthAdjust="spacing" textLength="36" x="1799.55" y="1231.8891">House</text><polygon fill="#181818" points="1844.55,1274.9133,1853.55,1278.5133,1844.55,1282.1133,1848.15,1278.5133" style="stroke:#181818;stroke-width:0.9;"/><line style="stroke:#181818;stroke-width:0.9;" x1="1444.05" x2="1849.95" y1="1278.5133" y2="1278.5133"/><text fill="#000000" font-family="sans-serif" font-size="11.7" font-weight="bold" lengthAdjust="spacing" textLength="12.6" x="1450.35" y="1273.7769">29</text><text fill="#000000" font-family="sans-serif" font-size="11.7" lengthAdjust="spacing" textLength="373.5" x="1466.55" y="1273.7769">createAddress(street, cityName, districtName, stateAcronym, zip-code)</text><rect fill="#E3E3E3" height="29.359" rx="2.25" ry="2.25" style="stroke:#181818;stroke-width:0.45;" width="59.4" x="1855.35" y="1257.5514"/><text fill="#000000" font-family="sans-serif" font-size="12.6" lengthAdjust="spacing" textLength="46.8" x="1861.65" y="1277.448">Address</text><path d="M1399.95,1303.1104 L1465.65,1303.1104 L1465.65,1311.4723 L1456.65,1320.4723 L1399.95,1320.4723 L1399.95,1303.1104 " fill="#EEEEEE" style="stroke:#000000;stroke-width:1.35;"/><rect fill="none" height="56.6209" style="stroke:#000000;stroke-width:1.35;" width="612" x="1399.95" y="1303.1104"/><text fill="#000000" font-family="sans-serif" font-size="11.7" font-weight="bold" lengthAdjust="spacing" textLength="25.2" x="1413.45" y="1316.6358">loop</text><text fill="#000000" font-family="sans-serif" font-size="9.9" font-weight="bold" lengthAdjust="spacing" textLength="108" x="1479.15" y="1315.5935">[for each photograph]</text><polygon fill="#181818" points="1912.95,1337.8342,1921.95,1341.4342,1912.95,1345.0342,1916.55,1341.4342" style="stroke:#181818;stroke-width:0.9;"/><line style="stroke:#181818;stroke-width:0.9;" x1="1444.05" x2="1918.35" y1="1341.4342" y2="1341.4342"/><text fill="#000000" font-family="sans-serif" font-size="11.7" font-weight="bold" lengthAdjust="spacing" textLength="12.6" x="1450.35" y="1336.6978">30</text><text fill="#000000" font-family="sans-serif" font-size="11.7" lengthAdjust="spacing" textLength="189" x="1466.55" y="1336.6978">createPhotograph(linkToPhotograph)</text><rect fill="#E3E3E3" height="29.359" rx="2.25" ry="2.25" style="stroke:#181818;stroke-width:0.45;" width="79.2" x="1923.75" y="1320.4723"/><text fill="#000000" font-family="sans-serif" font-size="12.6" lengthAdjust="spacing" textLength="66.6" x="1930.05" y="1340.3689">Photograph</text><path d="M1399.95,1372.3313 L1465.65,1372.3313 L1465.65,1380.6932 L1456.65,1389.6932 L1399.95,1389.6932 L1399.95,1372.3313 " fill="#EEEEEE" style="stroke:#000000;stroke-width:1.35;"/><rect fill="none" height="56.6209" style="stroke:#000000;stroke-width:1.35;" width="693.9" x="1399.95" y="1372.3313"/><text fill="#000000" font-family="sans-serif" font-size="11.7" font-weight="bold" lengthAdjust="spacing" textLength="25.2" x="1413.45" y="1385.8567">loop</text><text fill="#000000" font-family="sans-serif" font-size="9.9" font-weight="bold" lengthAdjust="spacing" textLength="104.4" x="1479.15" y="1384.8144">[for each equipment]</text><polygon fill="#181818" points="2001.15,1407.0551,2010.15,1410.6551,2001.15,1414.2551,2004.75,1410.6551" style="stroke:#181818;stroke-width:0.9;"/><line style="stroke:#181818;stroke-width:0.9;" x1="1444.05" x2="2006.55" y1="1410.6551" y2="1410.6551"/><text fill="#000000" font-family="sans-serif" font-size="11.7" font-weight="bold" lengthAdjust="spacing" textLength="12.6" x="1450.35" y="1405.9187">31</text><text fill="#000000" font-family="sans-serif" font-size="11.7" lengthAdjust="spacing" textLength="152.1" x="1466.55" y="1405.9187">createEquipment(description)</text><rect fill="#E3E3E3" height="29.359" rx="2.25" ry="2.25" style="stroke:#181818;stroke-width:0.45;" width="72.9" x="2011.95" y="1389.6932"/><text fill="#000000" font-family="sans-serif" font-size="12.6" lengthAdjust="spacing" textLength="60.3" x="2018.25" y="1409.5898">Equipment</text><polygon fill="#181818" points="874.35,1452.6141,865.35,1456.2141,874.35,1459.8141,870.75,1456.2141" style="stroke:#181818;stroke-width:0.9;"/><line style="stroke:#181818;stroke-width:0.9;stroke-dasharray:2.0,2.0;" x1="868.95" x2="1434.15" y1="1456.2141" y2="1456.2141"/><text fill="#000000" font-family="sans-serif" font-size="11.7" font-weight="bold" lengthAdjust="spacing" textLength="12.6" x="879.75" y="1451.4776">32</text><text fill="#000000" font-family="sans-serif" font-size="11.7" lengthAdjust="spacing" textLength="42.3" x="895.95" y="1451.4776">property</text><polygon fill="#181818" points="654.75,1480.776,645.75,1484.376,654.75,1487.976,651.15,1484.376" style="stroke:#181818;stroke-width:0.9;"/><line style="stroke:#181818;stroke-width:0.9;" x1="649.35" x2="859.05" y1="1484.376" y2="1484.376"/><text fill="#000000" font-family="sans-serif" font-size="11.7" font-weight="bold" lengthAdjust="spacing" textLength="12.6" x="660.15" y="1479.6396">33</text><text fill="#000000" font-family="sans-serif" font-size="11.7" lengthAdjust="spacing" textLength="38.7" x="676.35" y="1479.6396">request</text><polygon fill="#181818" points="49.05,1508.9379,40.05,1512.5379,49.05,1516.1379,45.45,1512.5379" style="stroke:#181818;stroke-width:0.9;"/><line style="stroke:#181818;stroke-width:0.9;stroke-dasharray:2.0,2.0;" x1="43.65" x2="639.45" y1="1512.5379" y2="1512.5379"/><text fill="#000000" font-family="sans-serif" font-size="11.7" font-weight="bold" lengthAdjust="spacing" textLength="12.6" x="54.45" y="1507.8015">34</text><text fill="#000000" font-family="sans-serif" font-size="11.7" lengthAdjust="spacing" textLength="142.2" x="70.65" y="1507.8015">displays operation success</text><!--SRC=[pLVDRjiu4BxhAGQvH2wS5p3GBjoam1R8ReCqlVaobiOM4ObKIQgfz-axeYoPj2HBJNfOdQJXyECt_vHv5h94ZGKKIgeaqweWiBgYo7Gh9IRFkAUlzf0JQ4eiodtkAvWCK_KYv1vsc1kA8goiabMn9Hr5rvb82NPAsQtw6M5YbOQhBo-Iz1MWWVNTFn6ZM9684gM5gzMj9hJqIDyhClRRPwVrxVCbfLibhLPvVeIyVNgy3zNNwG_YJqC5IVj8fJA2QHnM6pcoqb0RNZk3tlSWzmDGeIog_I1-i0NE_WYE3t_0pGUs5bQywzc0LP0uIm7PyyxOatQ7mTw9hi5x6E26SMguLRlFG8eM8TQq8qqoeIMaP18jIYkKN088kLEwm1msCbonb6HI9BmIYDDAO_EMA6CNaK_W-iZQXUASsGSdVlUEkJLgKJHAtY3d76SCCxP_TMef1ROFkSzGpfbgu8MZH2aeHthOTI6tvjp6-nb1gLN9MN00UoZf4e6Xm_kRUzimjsuLtWFMYLNdMhCo7CIQKwS8ISO5c5ZImd1AcXZPdnmFOG-tl4pwZkNeOcsi9hBDshzOi6GZKrxL8h7DDsjQMYTQoKEnXFz4UPEebELSo1yfrKeLPbc_eyswZmVKt0NsNxb5a5a2Qes7JzyhKTRi5eqTn2sXDJ5JbQ4fyvpI_ysqZTnYqmcMGcQu5HQtETsh7HziAldf9zTsfMc63tAKwPGBQftP7e3Nkw2fse5i9ZwVKzDBxJQtToBFpqhZZEXmeWV6OjFRX3GC06Mch3BHZC9gDfZZZXWjv8J6Wf97KmQFRHeERz-JTPtOn8j-At2zAkX4zUDsrhp33Zu2rWFjDVvppNFS4rctSiykxUtnd3I9t_9txfi56VhX5BOLS4QLEHuCeBCRSaQ2EbFRMTNqlJeQlzif7U9uUmwYcFYpFqQfAYw2kjZkM3mPs2wWmzDz6Z_oKHwEDU1DirPqeMELN9SjKf0sGyC0PZpdT3eownOcxhU8UJro8_qk2K6RX94Hy52NvrvZcVM6mh9h6qziw6AMTLqaM_DcxUhFdJTvykyQuWzvSMBMT9Dc8sVCcZ_ixDweUfFNxXdX3KuhVTjUOSjnYftBEveUvHhLLR4lYCCpNrUm_cbtBvJd76glNxIYU3H3NF84EJ90PUIQDKNaJJIM5pBLIzJ5PIgkiZo7D9KsUjtQoClGmTLbxCnrcceonZlrA7bbiWxmo9Kg-RzN0q_034wPV3aREpL_edJ2c2Fq_AHEWiMW-VNHKuIeRH8N-NIjnAFJoMBlVt0kaHFuQQ2tHHPg1ZUNzkTtyiuoU5-fuTs_AhVFXFDsyAxftwhuf_mN]--></g></svg>