<?xml version="1.0" encoding="us-ascii" standalone="no"?><svg xmlns="http://www.w3.org/2000/svg" xmlns:xlink="http://www.w3.org/1999/xlink" contentStyleType="text/css" height="516px" preserveAspectRatio="none" style="width:597px;height:516px;background:#FFFFFF;" version="1.1" viewBox="0 0 597 516" width="597px" zoomAndPan="magnify"><defs/><g><text fill="#000000" font-family="sans-serif" font-size="14" font-weight="bold" lengthAdjust="spacing" textLength="224" x="185.75" y="29.9659">System Sequence Diagram (SSD)</text><rect fill="#FFFFFF" height="290.0602" style="stroke:#181818;stroke-width:1.0;" width="10" x="49.5" y="134.1358"/><rect fill="#FFFFFF" height="31.706" style="stroke:#181818;stroke-width:1.0;" width="10" x="553.5" y="157.8419"/><rect fill="#FFFFFF" height="31.706" style="stroke:#181818;stroke-width:1.0;" width="10" x="553.5" y="256.6659"/><rect fill="#FFFFFF" height="31.706" style="stroke:#181818;stroke-width:1.0;" width="10" x="553.5" y="320.0779"/><rect fill="#FFFFFF" height="31.706" style="stroke:#181818;stroke-width:1.0;" width="10" x="553.5" y="383.49"/><line style="stroke:#181818;stroke-width:0.5;stroke-dasharray:5.0,5.0;" x1="54" x2="54" y1="124.1358" y2="433.196"/><line style="stroke:#181818;stroke-width:0.5;stroke-dasharray:5.0,5.0;" x1="558.5" x2="558.5" y1="124.1358" y2="433.196"/><text fill="#000000" font-family="sans-serif" font-size="14" lengthAdjust="spacing" textLength="93" x="5" y="120.0339">Administrator</text><ellipse cx="54.5" cy="53.5679" fill="#E3E3E3" rx="8" ry="8" style="stroke:#181818;stroke-width:0.5;"/><path d="M54.5,61.5679 L54.5,88.5679 M41.5,69.5679 L67.5,69.5679 M54.5,88.5679 L41.5,103.5679 M54.5,88.5679 L67.5,103.5679 " fill="none" style="stroke:#181818;stroke-width:0.5;"/><text fill="#000000" font-family="sans-serif" font-size="14" lengthAdjust="spacing" textLength="93" x="5" y="447.1619">Administrator</text><ellipse cx="54.5" cy="459.7639" fill="#E3E3E3" rx="8" ry="8" style="stroke:#181818;stroke-width:0.5;"/><path d="M54.5,467.7639 L54.5,494.7639 M41.5,475.7639 L67.5,475.7639 M54.5,494.7639 L41.5,509.7639 M54.5,494.7639 L67.5,509.7639 " fill="none" style="stroke:#181818;stroke-width:0.5;"/><rect fill="#E3E3E3" height="33.0679" rx="2.5" ry="2.5" style="stroke:#181818;stroke-width:0.5;" width="66" x="525.5" y="90.0679"/><text fill="#000000" font-family="sans-serif" font-size="14" lengthAdjust="spacing" textLength="52" x="532.5" y="112.0339">:System</text><rect fill="#E3E3E3" height="33.0679" rx="2.5" ry="2.5" style="stroke:#181818;stroke-width:0.5;" width="66" x="525.5" y="432.196"/><text fill="#000000" font-family="sans-serif" font-size="14" lengthAdjust="spacing" textLength="52" x="532.5" y="454.1619">:System</text><rect fill="#FFFFFF" height="290.0602" style="stroke:#181818;stroke-width:1.0;" width="10" x="49.5" y="134.1358"/><rect fill="#FFFFFF" height="31.706" style="stroke:#181818;stroke-width:1.0;" width="10" x="553.5" y="157.8419"/><rect fill="#FFFFFF" height="31.706" style="stroke:#181818;stroke-width:1.0;" width="10" x="553.5" y="256.6659"/><rect fill="#FFFFFF" height="31.706" style="stroke:#181818;stroke-width:1.0;" width="10" x="553.5" y="320.0779"/><rect fill="#FFFFFF" height="31.706" style="stroke:#181818;stroke-width:1.0;" width="10" x="553.5" y="383.49"/><polygon fill="#181818" points="541.5,153.8419,551.5,157.8419,541.5,161.8419,545.5,157.8419" style="stroke:#181818;stroke-width:1.0;"/><line style="stroke:#181818;stroke-width:1.0;" x1="59.5" x2="547.5" y1="157.8419" y2="157.8419"/><text fill="#000000" font-family="sans-serif" font-size="13" font-weight="bold" lengthAdjust="spacing" textLength="7" x="66.5" y="152.0328">1</text><text fill="#000000" font-family="sans-serif" font-size="13" lengthAdjust="spacing" textLength="191" x="77.5" y="152.0328">asks to register a new employee</text><polygon fill="#181818" points="70.5,185.5479,60.5,189.5479,70.5,193.5479,66.5,189.5479" style="stroke:#181818;stroke-width:1.0;"/><line style="stroke:#181818;stroke-width:1.0;stroke-dasharray:2.0,2.0;" x1="64.5" x2="557.5" y1="189.5479" y2="189.5479"/><text fill="#000000" font-family="sans-serif" font-size="13" font-weight="bold" lengthAdjust="spacing" textLength="7" x="76.5" y="183.7389">2</text><text fill="#000000" font-family="sans-serif" font-size="13" lengthAdjust="spacing" textLength="82" x="87.5" y="183.7389">requests data</text><polygon fill="#181818" points="541.5,252.6659,551.5,256.6659,541.5,260.6659,545.5,256.6659" style="stroke:#181818;stroke-width:1.0;"/><line style="stroke:#181818;stroke-width:1.0;" x1="59.5" x2="547.5" y1="256.6659" y2="256.6659"/><text fill="#000000" font-family="sans-serif" font-size="13" font-weight="bold" lengthAdjust="spacing" textLength="7" x="66.5" y="233.1509">3</text><text fill="#000000" font-family="sans-serif" font-size="13" lengthAdjust="spacing" textLength="256" x="77.5" y="215.4449">types requested data (name, passport card</text><text fill="#000000" font-family="sans-serif" font-size="13" lengthAdjust="spacing" textLength="268" x="77.5" y="233.1509">number, tax number, address, email address,</text><text fill="#000000" font-family="sans-serif" font-size="13" lengthAdjust="spacing" textLength="164" x="77.5" y="250.8569">contact telephone number)</text><polygon fill="#181818" points="70.5,284.3719,60.5,288.3719,70.5,292.3719,66.5,288.3719" style="stroke:#181818;stroke-width:1.0;"/><line style="stroke:#181818;stroke-width:1.0;stroke-dasharray:2.0,2.0;" x1="64.5" x2="557.5" y1="288.3719" y2="288.3719"/><text fill="#000000" font-family="sans-serif" font-size="13" font-weight="bold" lengthAdjust="spacing" textLength="7" x="76.5" y="282.5629">4</text><text fill="#000000" font-family="sans-serif" font-size="13" lengthAdjust="spacing" textLength="459" x="87.5" y="282.5629">shows employee's roles list and agencies list and asks to selects from each list</text><polygon fill="#181818" points="541.5,316.0779,551.5,320.0779,541.5,324.0779,545.5,320.0779" style="stroke:#181818;stroke-width:1.0;"/><line style="stroke:#181818;stroke-width:1.0;" x1="59.5" x2="547.5" y1="320.0779" y2="320.0779"/><text fill="#000000" font-family="sans-serif" font-size="13" font-weight="bold" lengthAdjust="spacing" textLength="7" x="66.5" y="314.2689">5</text><text fill="#000000" font-family="sans-serif" font-size="13" lengthAdjust="spacing" textLength="255" x="77.5" y="314.2689">selects one (or more) roles and one agency</text><polygon fill="#181818" points="70.5,347.784,60.5,351.784,70.5,355.784,66.5,351.784" style="stroke:#181818;stroke-width:1.0;"/><line style="stroke:#181818;stroke-width:1.0;stroke-dasharray:2.0,2.0;" x1="64.5" x2="557.5" y1="351.784" y2="351.784"/><text fill="#000000" font-family="sans-serif" font-size="13" font-weight="bold" lengthAdjust="spacing" textLength="7" x="76.5" y="345.975">6</text><text fill="#000000" font-family="sans-serif" font-size="13" lengthAdjust="spacing" textLength="240" x="87.5" y="345.975">shows selected data and requested data</text><polygon fill="#181818" points="541.5,379.49,551.5,383.49,541.5,387.49,545.5,383.49" style="stroke:#181818;stroke-width:1.0;"/><line style="stroke:#181818;stroke-width:1.0;" x1="59.5" x2="547.5" y1="383.49" y2="383.49"/><text fill="#000000" font-family="sans-serif" font-size="13" font-weight="bold" lengthAdjust="spacing" textLength="7" x="66.5" y="377.681">7</text><text fill="#000000" font-family="sans-serif" font-size="13" lengthAdjust="spacing" textLength="78" x="77.5" y="377.681">submits data</text><polygon fill="#181818" points="70.5,411.196,60.5,415.196,70.5,419.196,66.5,415.196" style="stroke:#181818;stroke-width:1.0;"/><line style="stroke:#181818;stroke-width:1.0;stroke-dasharray:2.0,2.0;" x1="64.5" x2="557.5" y1="415.196" y2="415.196"/><text fill="#000000" font-family="sans-serif" font-size="13" font-weight="bold" lengthAdjust="spacing" textLength="7" x="76.5" y="409.387">8</text><text fill="#000000" font-family="sans-serif" font-size="13" lengthAdjust="spacing" textLength="148" x="87.5" y="409.387">shows operation success</text><!--SRC=[fPBDRi8m3CVlVGgBoq225-0mQH9lqEik9Z5jHEDqiJlMjvzRMaQdSM4v9Vxu-MyxSWxSOiO8CN5oTKwHG7D7XTmyBRepLbHgtn1aSefSDVS1KgDFby0LdB0HAWeDQg5bBqeHIlheY1t18M0rXA_Byh0f2kmqSHUFbEtkD6LOlVaOE8XcjESAK61XAQoS1XTQP8NL_ieVmwxNaHC-KUbNNW5s5YROlSxwzWOu2sYotYhpKmO4fWjGR9lK4utPD_9S2gOpKNO6N5RO6yyw5nNmg3WcUFgJyrYQzYt9328_ac3D66bhUn5fKrPmc3syytMOMr3yWlcEtcSIsLep69gVvpkxn6fYGAcXjavCKyxcwNQbJXUvJUt5PAV6n3SM0iWUx0-n2mlBD7Wn3SxcTBBl1pQYUWnvRc8pQ-XeRRwOCcqcAKFDmJugwV_PwBNGl9C1lLpJa_AxOmptN-PvWQabCuJ41dNErlv0qJS0]--></g></svg>