<?xml version="1.0" encoding="us-ascii" standalone="no"?><svg xmlns="http://www.w3.org/2000/svg" xmlns:xlink="http://www.w3.org/1999/xlink" contentStyleType="text/css" height="628px" preserveAspectRatio="none" style="width:1040px;height:628px;background:#FFFFFF;" version="1.1" viewBox="0 0 1040 628" width="1040px" zoomAndPan="magnify"><defs/><g><rect fill="#FFFFFF" height="464.1782" style="stroke:#181818;stroke-width:1.0;" width="10" x="308" y="108.186"/><rect fill="#FFFFFF" height="132.118" style="stroke:#181818;stroke-width:1.0;" width="10" x="313" y="394.5401"/><rect fill="#FFFFFF" height="42.706" style="stroke:#181818;stroke-width:1.0;" width="10" x="318" y="439.2461"/><rect fill="#FFFFFF" height="142.8241" style="stroke:#181818;stroke-width:1.0;" width="10" x="673.5" y="212.01"/><rect fill="#FFFFFF" height="121.118" style="stroke:#181818;stroke-width:1.0;" width="10" x="851.5" y="233.716"/><rect fill="#FFFFFF" height="42.706" style="stroke:#181818;stroke-width:1.0;" width="10" x="856.5" y="273.4221"/><rect fill="none" height="418.4722" style="stroke:#000000;stroke-width:1.5;" width="765" x="269.5" y="123.186"/><line style="stroke:#181818;stroke-width:0.5;stroke-dasharray:5.0,5.0;" x1="312.5" x2="312.5" y1="39.0679" y2="590.3642"/><line style="stroke:#181818;stroke-width:0.5;stroke-dasharray:5.0,5.0;" x1="678" x2="678" y1="186.451" y2="590.3642"/><line style="stroke:#181818;stroke-width:0.5;stroke-dasharray:5.0,5.0;" x1="856.5" x2="856.5" y1="39.0679" y2="590.3642"/><rect fill="#E3E3E3" height="33.0679" rx="2.5" ry="2.5" style="stroke:#181818;stroke-width:0.5;" width="67" x="279.5" y="5"/><text fill="#000000" font-family="sans-serif" font-size="14" lengthAdjust="spacing" textLength="53" x="286.5" y="26.9659">:Agency</text><rect fill="#E3E3E3" height="33.0679" rx="2.5" ry="2.5" style="stroke:#181818;stroke-width:0.5;" width="67" x="279.5" y="589.3642"/><text fill="#000000" font-family="sans-serif" font-size="14" lengthAdjust="spacing" textLength="53" x="286.5" y="611.3301">:Agency</text><rect fill="#E3E3E3" height="33.0679" rx="2.5" ry="2.5" style="stroke:#181818;stroke-width:0.5;" width="83" x="637" y="589.3642"/><text fill="#000000" font-family="sans-serif" font-size="14" lengthAdjust="spacing" textLength="69" x="644" y="611.3301">:Employee</text><rect fill="#E3E3E3" height="33.0679" rx="2.5" ry="2.5" style="stroke:#181818;stroke-width:0.5;" width="150" x="781.5" y="5"/><text fill="#000000" font-family="sans-serif" font-size="14" lengthAdjust="spacing" textLength="136" x="788.5" y="26.9659">:PasswordGenerator</text><rect fill="#E3E3E3" height="33.0679" rx="2.5" ry="2.5" style="stroke:#181818;stroke-width:0.5;" width="150" x="781.5" y="589.3642"/><text fill="#000000" font-family="sans-serif" font-size="14" lengthAdjust="spacing" textLength="136" x="788.5" y="611.3301">:PasswordGenerator</text><rect fill="#FFFFFF" height="464.1782" style="stroke:#181818;stroke-width:1.0;" width="10" x="308" y="108.186"/><rect fill="#FFFFFF" height="132.118" style="stroke:#181818;stroke-width:1.0;" width="10" x="313" y="394.5401"/><rect fill="#FFFFFF" height="42.706" style="stroke:#181818;stroke-width:1.0;" width="10" x="318" y="439.2461"/><rect fill="#FFFFFF" height="142.8241" style="stroke:#181818;stroke-width:1.0;" width="10" x="673.5" y="212.01"/><rect fill="#FFFFFF" height="121.118" style="stroke:#181818;stroke-width:1.0;" width="10" x="851.5" y="233.716"/><rect fill="#FFFFFF" height="42.706" style="stroke:#181818;stroke-width:1.0;" width="10" x="856.5" y="273.4221"/><polygon fill="#181818" points="296,104.186,306,108.186,296,112.186,300,108.186" style="stroke:#181818;stroke-width:1.0;"/><line style="stroke:#181818;stroke-width:1.0;" x1="0" x2="302" y1="108.186" y2="108.186"/><text fill="#000000" font-family="sans-serif" font-size="13" font-weight="bold" lengthAdjust="spacing" textLength="14" x="7" y="84.6709">20</text><text fill="#000000" font-family="sans-serif" font-size="13" lengthAdjust="spacing" textLength="231" x="25" y="66.9649">registerEmployee(name, passport card</text><text fill="#000000" font-family="sans-serif" font-size="13" lengthAdjust="spacing" textLength="268" x="25" y="84.6709">number, tax number, address, email address,</text><text fill="#000000" font-family="sans-serif" font-size="13" lengthAdjust="spacing" textLength="242" x="25" y="102.377">contact telephone number, role, agency)</text><path d="M269.5,123.186 L435.5,123.186 L435.5,132.892 L425.5,142.892 L269.5,142.892 L269.5,123.186 " fill="#EEEEEE" style="stroke:#000000;stroke-width:1.5;"/><rect fill="none" height="418.4722" style="stroke:#000000;stroke-width:1.5;" width="765" x="269.5" y="123.186"/><text fill="#000000" font-family="sans-serif" font-size="13" font-weight="bold" lengthAdjust="spacing" textLength="121" x="284.5" y="138.083">Register Employee</text><polygon fill="#181818" points="625,198.01,635,202.01,625,206.01,629,202.01" style="stroke:#181818;stroke-width:1.0;"/><line style="stroke:#181818;stroke-width:1.0;" x1="318" x2="631" y1="202.01" y2="202.01"/><text fill="#000000" font-family="sans-serif" font-size="13" font-weight="bold" lengthAdjust="spacing" textLength="25" x="325" y="178.495">20.1</text><text fill="#000000" font-family="sans-serif" font-size="13" lengthAdjust="spacing" textLength="263" x="354" y="160.789">registerEmployee(name, passportCardNum,</text><text fill="#000000" font-family="sans-serif" font-size="13" lengthAdjust="spacing" textLength="211" x="354" y="178.495">taxNumber, address, emailAddress,</text><text fill="#000000" font-family="sans-serif" font-size="13" lengthAdjust="spacing" textLength="171" x="354" y="196.201">phoneNumber, role, agency)</text><rect fill="#E3E3E3" height="33.0679" rx="2.5" ry="2.5" style="stroke:#181818;stroke-width:0.5;" width="83" x="637" y="165.9421"/><text fill="#000000" font-family="sans-serif" font-size="14" lengthAdjust="spacing" textLength="69" x="644" y="187.9081">:Employee</text><polygon fill="#181818" points="839.5,229.716,849.5,233.716,839.5,237.716,843.5,233.716" style="stroke:#181818;stroke-width:1.0;"/><line style="stroke:#181818;stroke-width:1.0;" x1="683.5" x2="845.5" y1="233.716" y2="233.716"/><text fill="#000000" font-family="sans-serif" font-size="13" font-weight="bold" lengthAdjust="spacing" textLength="25" x="690.5" y="227.907">20.2</text><text fill="#000000" font-family="sans-serif" font-size="13" lengthAdjust="spacing" textLength="120" x="719.5" y="227.907">generatePassword()</text><line style="stroke:#181818;stroke-width:1.0;" x1="861.5" x2="908.5" y1="260.4221" y2="260.4221"/><line style="stroke:#181818;stroke-width:1.0;" x1="908.5" x2="908.5" y1="260.4221" y2="273.4221"/><line style="stroke:#181818;stroke-width:1.0;" x1="867.5" x2="908.5" y1="273.4221" y2="273.4221"/><polygon fill="#181818" points="877.5,269.4221,867.5,273.4221,877.5,277.4221,873.5,273.4221" style="stroke:#181818;stroke-width:1.0;"/><text fill="#000000" font-family="sans-serif" font-size="13" font-weight="bold" lengthAdjust="spacing" textLength="25" x="873.5" y="254.6131">20.3</text><text fill="#000000" font-family="sans-serif" font-size="13" lengthAdjust="spacing" textLength="120" x="902.5" y="254.6131">generatePassword()</text><line style="stroke:#181818;stroke-width:1.0;stroke-dasharray:2.0,2.0;" x1="866.5" x2="908.5" y1="315.1281" y2="315.1281"/><line style="stroke:#181818;stroke-width:1.0;stroke-dasharray:2.0,2.0;" x1="908.5" x2="908.5" y1="315.1281" y2="328.1281"/><line style="stroke:#181818;stroke-width:1.0;stroke-dasharray:2.0,2.0;" x1="861.5" x2="908.5" y1="328.1281" y2="328.1281"/><polygon fill="#181818" points="871.5,324.1281,861.5,328.1281,871.5,332.1281,867.5,328.1281" style="stroke:#181818;stroke-width:1.0;"/><text fill="#000000" font-family="sans-serif" font-size="13" font-weight="bold" lengthAdjust="spacing" textLength="25" x="873.5" y="309.3191">20.4</text><text fill="#000000" font-family="sans-serif" font-size="13" lengthAdjust="spacing" textLength="3" x="902.5" y="309.3191">&#160;</text><polygon fill="#181818" points="689.5,350.8341,679.5,354.8341,689.5,358.8341,685.5,354.8341" style="stroke:#181818;stroke-width:1.0;"/><line style="stroke:#181818;stroke-width:1.0;stroke-dasharray:2.0,2.0;" x1="683.5" x2="855.5" y1="354.8341" y2="354.8341"/><text fill="#000000" font-family="sans-serif" font-size="13" font-weight="bold" lengthAdjust="spacing" textLength="25" x="695.5" y="349.0251">20.5</text><text fill="#000000" font-family="sans-serif" font-size="13" lengthAdjust="spacing" textLength="3" x="724.5" y="349.0251">&#160;</text><line style="stroke:#181818;stroke-width:1.0;" x1="318" x2="365" y1="381.5401" y2="381.5401"/><line style="stroke:#181818;stroke-width:1.0;" x1="365" x2="365" y1="381.5401" y2="394.5401"/><line style="stroke:#181818;stroke-width:1.0;" x1="324" x2="365" y1="394.5401" y2="394.5401"/><polygon fill="#181818" points="334,390.5401,324,394.5401,334,398.5401,330,394.5401" style="stroke:#181818;stroke-width:1.0;"/><text fill="#000000" font-family="sans-serif" font-size="13" font-weight="bold" lengthAdjust="spacing" textLength="25" x="330" y="375.7311">20.6</text><text fill="#000000" font-family="sans-serif" font-size="13" lengthAdjust="spacing" textLength="149" x="359" y="375.7311">addEmployee(employee)</text><line style="stroke:#181818;stroke-width:1.0;" x1="323" x2="370" y1="426.2461" y2="426.2461"/><line style="stroke:#181818;stroke-width:1.0;" x1="370" x2="370" y1="426.2461" y2="439.2461"/><line style="stroke:#181818;stroke-width:1.0;" x1="329" x2="370" y1="439.2461" y2="439.2461"/><polygon fill="#181818" points="339,435.2461,329,439.2461,339,443.2461,335,439.2461" style="stroke:#181818;stroke-width:1.0;"/><text fill="#000000" font-family="sans-serif" font-size="13" font-weight="bold" lengthAdjust="spacing" textLength="25" x="335" y="420.4371">20.7</text><text fill="#000000" font-family="sans-serif" font-size="13" lengthAdjust="spacing" textLength="173" x="364" y="420.4371">validateEmployee(employee)</text><line style="stroke:#181818;stroke-width:1.0;stroke-dasharray:2.0,2.0;" x1="328" x2="370" y1="480.9521" y2="480.9521"/><line style="stroke:#181818;stroke-width:1.0;stroke-dasharray:2.0,2.0;" x1="370" x2="370" y1="480.9521" y2="493.9521"/><line style="stroke:#181818;stroke-width:1.0;stroke-dasharray:2.0,2.0;" x1="323" x2="370" y1="493.9521" y2="493.9521"/><polygon fill="#181818" points="333,489.9521,323,493.9521,333,497.9521,329,493.9521" style="stroke:#181818;stroke-width:1.0;"/><text fill="#000000" font-family="sans-serif" font-size="13" font-weight="bold" lengthAdjust="spacing" textLength="25" x="335" y="475.1431">20.8</text><text fill="#000000" font-family="sans-serif" font-size="13" lengthAdjust="spacing" textLength="3" x="364" y="475.1431">&#160;</text><line style="stroke:#181818;stroke-width:1.0;stroke-dasharray:2.0,2.0;" x1="323" x2="365" y1="525.6582" y2="525.6582"/><line style="stroke:#181818;stroke-width:1.0;stroke-dasharray:2.0,2.0;" x1="365" x2="365" y1="525.6582" y2="538.6582"/><line style="stroke:#181818;stroke-width:1.0;stroke-dasharray:2.0,2.0;" x1="318" x2="365" y1="538.6582" y2="538.6582"/><polygon fill="#181818" points="328,534.6582,318,538.6582,328,542.6582,324,538.6582" style="stroke:#181818;stroke-width:1.0;"/><text fill="#000000" font-family="sans-serif" font-size="13" font-weight="bold" lengthAdjust="spacing" textLength="25" x="330" y="519.8492">20.9</text><text fill="#000000" font-family="sans-serif" font-size="13" lengthAdjust="spacing" textLength="3" x="359" y="519.8492">&#160;</text><polygon fill="#181818" points="11,568.3642,1,572.3642,11,576.3642,7,572.3642" style="stroke:#181818;stroke-width:1.0;"/><line style="stroke:#181818;stroke-width:1.0;stroke-dasharray:2.0,2.0;" x1="5" x2="312" y1="572.3642" y2="572.3642"/><text fill="#000000" font-family="sans-serif" font-size="13" font-weight="bold" lengthAdjust="spacing" textLength="14" x="17" y="566.5552">21</text><text fill="#000000" font-family="sans-serif" font-size="13" lengthAdjust="spacing" textLength="59" x="35" y="566.5552">employee</text><!--SRC=[hLHDRy8m3BtdLrYS0C4qTaJJ93GXJaCLxCZ5IxqIqIPLaiBuzqlJ3w1ZQzdcK-klzvxjrko4J55Z0ecIYc-rIWYipeYPEf8Yts54QtkC2JHnYpAApnFC5aDr43A2TumDCURSLd2HehJGcyuYalpO0pImVbqrWlCaZTMHo8VdBq4Z7A0n1wN31KdIQ9NsUS62CSoiabdoHXeUxjduAUyDKySl4iQIhlhs9IOqSXgCIPMsm567i955vGWiVa3rZ66eoPWHK88YFhrk95VI8hTWAQPqgoJLDLh5hZjwXOC6gRi9SqLYZvQyS70MQPMbi2f9GiMI-M1kkGednarYE6oNy-pKBBCav-YKBAyAcPrqUExBgzGh_9fnlelQ-vsvf9nji71Kes95LAsiFsWjhy7SGg63EPm_eFq6iKBri9qgGZh7O3S0v1F_n-vdgQsxBA-k-8JS-TJdHkN3pzEzEFDM3HTWUun5w4flHFo2scNE7hX0lcNGhQAwzctqp5qamwBt-PzZuZsFut4veseah4dg4m00]--></g></svg>