<?xml version="1.0" encoding="us-ascii" standalone="no"?><svg xmlns="http://www.w3.org/2000/svg" xmlns:xlink="http://www.w3.org/1999/xlink" contentStyleType="text/css" height="1342px" preserveAspectRatio="none" style="width:668px;height:1342px;background:#FFFFFF;" version="1.1" viewBox="0 0 668 1342" width="668px" zoomAndPan="magnify"><defs/><g><!--cluster System--><g id="cluster_System"><rect fill="none" height="1329" rx="2.5" ry="2.5" style="stroke:#181818;stroke-width:1.0;" width="399" x="263" y="7"/><text fill="#000000" font-family="sans-serif" font-size="14" font-weight="bold" lengthAdjust="spacing" textLength="51" x="437" y="23.9659">System</text></g><g id="elem_UC1 - Display listed properties"><ellipse cx="462.668" cy="72.1336" fill="#F1F1F1" rx="121.168" ry="26.6336" style="stroke:#181818;stroke-width:0.5;"/><text fill="#000000" font-family="sans-serif" font-size="14" lengthAdjust="spacing" textLength="204" x="358.5593" y="76.5211">UC1 - Display listed properties</text></g><g id="elem_UC7 - Register as a client"><ellipse cx="462.4886" cy="156.9977" fill="#F1F1F1" rx="105.4886" ry="23.4977" style="stroke:#181818;stroke-width:0.5;"/><text fill="#000000" font-family="sans-serif" font-size="14" lengthAdjust="spacing" textLength="168" x="375.4886" y="161.7307">UC7 - Register as a client</text></g><g id="elem_UC2 - Publish sale announcement"><ellipse cx="462.6578" cy="244.2316" fill="#F1F1F1" rx="131.6578" ry="28.7316" style="stroke:#181818;stroke-width:0.5;"/><text fill="#000000" font-family="sans-serif" font-size="14" lengthAdjust="spacing" textLength="227" x="349.0073" y="247.739">UC2 - Publish sale announcement</text></g><g id="elem_UC8 - See list of property announcement requests"><ellipse cx="462.4118" cy="347.0824" fill="#F1F1F1" rx="183.4118" ry="39.0824" style="stroke:#181818;stroke-width:0.5;"/><text fill="#000000" font-family="sans-serif" font-size="14" lengthAdjust="spacing" textLength="336" x="294.4118" y="350.5143">UC8 - See list of property announcement requests</text></g><g id="elem_UC11 - List real estate purchase orders"><ellipse cx="462.5844" cy="452.9169" fill="#F1F1F1" rx="147.5844" ry="31.9169" style="stroke:#181818;stroke-width:0.5;"/><text fill="#000000" font-family="sans-serif" font-size="14" lengthAdjust="spacing" textLength="261" x="332.0844" y="456.3489">UC11 - List real estate purchase orders</text></g><g id="elem_UC3 - Register employee"><ellipse cx="462.7183" cy="543.2437" fill="#F1F1F1" rx="104.2183" ry="23.2437" style="stroke:#181818;stroke-width:0.5;"/><text fill="#000000" font-family="sans-serif" font-size="14" lengthAdjust="spacing" textLength="165" x="377.2183" y="547.9766">UC3 - Register employee</text></g><g id="elem_UC12 - Import information from legacy system"><ellipse cx="462.3884" cy="638.1777" fill="#F1F1F1" rx="171.3884" ry="36.6777" style="stroke:#181818;stroke-width:0.5;"/><text fill="#000000" font-family="sans-serif" font-size="14" lengthAdjust="spacing" textLength="311" x="306.8884" y="641.6097">UC12 - Import information from legacy system</text></g><g id="elem_UC4 - Requests listing a property"><ellipse cx="462.3468" cy="891.7694" fill="#F1F1F1" rx="129.3468" ry="28.2694" style="stroke:#181818;stroke-width:0.5;"/><text fill="#000000" font-family="sans-serif" font-size="14" lengthAdjust="spacing" textLength="222" x="350.7982" y="895.4706">UC4 - Requests listing a property</text></g><g id="elem_UC5 - Register store"><ellipse cx="462.515" cy="730.203" fill="#F1F1F1" rx="91.515" ry="20.703" style="stroke:#181818;stroke-width:0.5;"/><text fill="#000000" font-family="sans-serif" font-size="14" lengthAdjust="spacing" textLength="134" x="392.515" y="734.936">UC5 - Register store</text></g><g id="elem_UC6 - Specify address"><ellipse cx="462.3322" cy="807.1664" fill="#F1F1F1" rx="96.3322" ry="21.6664" style="stroke:#181818;stroke-width:0.5;"/><text fill="#000000" font-family="sans-serif" font-size="14" lengthAdjust="spacing" textLength="146" x="386.3322" y="811.8994">UC6 - Specify address</text></g><g id="elem_UC9 - Leave message to agent"><ellipse cx="462.2742" cy="981.9548" fill="#F1F1F1" rx="120.2742" ry="26.4548" style="stroke:#181818;stroke-width:0.5;"/><text fill="#000000" font-family="sans-serif" font-size="14" lengthAdjust="spacing" textLength="202" x="358.9786" y="986.4173">UC9 - Leave message to agent</text></g><g id="elem_UC10 - Place order to purchase property"><ellipse cx="462.3402" cy="1076.768" fill="#F1F1F1" rx="151.8402" ry="32.768" style="stroke:#181818;stroke-width:0.5;"/><text fill="#000000" font-family="sans-serif" font-size="14" lengthAdjust="spacing" textLength="270" x="327.3402" y="1080.2">UC10 - Place order to purchase property</text></g><g id="elem_UC14 - Read response for appointment requests"><ellipse cx="462.6133" cy="1183.0227" fill="#F1F1F1" rx="178.1133" ry="38.0227" style="stroke:#181818;stroke-width:0.5;"/><text fill="#000000" font-family="sans-serif" font-size="14" lengthAdjust="spacing" textLength="325" x="300.1133" y="1186.4546">UC14 - Read response for appointment requests</text></g><g id="elem_UC13 - List all employees in every store"><ellipse cx="462.5566" cy="1288.0113" fill="#F1F1F1" rx="148.0566" ry="32.0113" style="stroke:#181818;stroke-width:0.5;"/><text fill="#000000" font-family="sans-serif" font-size="14" lengthAdjust="spacing" textLength="262" x="331.5566" y="1291.4433">UC13 - List all employees in every store</text></g><!--entity UnregisteredUser--><g id="elem_UnregisteredUser"><ellipse cx="82" cy="84" fill="#F1F1F1" rx="8" ry="8" style="stroke:#181818;stroke-width:0.5;"/><path d="M82,92 L82,119 M69,100 L95,100 M82,119 L69,134 M82,119 L95,134 " fill="none" style="stroke:#181818;stroke-width:0.5;"/><text fill="#000000" font-family="sans-serif" font-size="14" lengthAdjust="spacing" textLength="120" x="22" y="150.4659">UnregisteredUser</text></g><!--entity Agent--><g id="elem_Agent"><ellipse cx="82" cy="316" fill="#F1F1F1" rx="8" ry="8" style="stroke:#181818;stroke-width:0.5;"/><path d="M82,324 L82,351 M69,332 L95,332 M82,351 L69,366 M82,351 L95,366 " fill="none" style="stroke:#181818;stroke-width:0.5;"/><text fill="#000000" font-family="sans-serif" font-size="14" lengthAdjust="spacing" textLength="40" x="62" y="382.4659">Agent</text></g><!--entity Administrator--><g id="elem_Administrator"><ellipse cx="82" cy="653" fill="#F1F1F1" rx="8" ry="8" style="stroke:#181818;stroke-width:0.5;"/><path d="M82,661 L82,688 M69,669 L95,669 M82,688 L69,703 M82,688 L95,703 " fill="none" style="stroke:#181818;stroke-width:0.5;"/><text fill="#000000" font-family="sans-serif" font-size="14" lengthAdjust="spacing" textLength="93" x="35.5" y="719.4659">Administrator</text></g><!--entity Owner--><g id="elem_Owner"><ellipse cx="82" cy="861" fill="#F1F1F1" rx="8" ry="8" style="stroke:#181818;stroke-width:0.5;"/><path d="M82,869 L82,896 M69,877 L95,877 M82,896 L69,911 M82,896 L95,911 " fill="none" style="stroke:#181818;stroke-width:0.5;"/><text fill="#000000" font-family="sans-serif" font-size="14" lengthAdjust="spacing" textLength="45" x="59.5" y="927.4659">Owner</text></g><!--entity Client--><g id="elem_Client"><ellipse cx="82" cy="1046" fill="#F1F1F1" rx="8" ry="8" style="stroke:#181818;stroke-width:0.5;"/><path d="M82,1054 L82,1081 M69,1062 L95,1062 M82,1081 L69,1096 M82,1081 L95,1096 " fill="none" style="stroke:#181818;stroke-width:0.5;"/><text fill="#000000" font-family="sans-serif" font-size="14" lengthAdjust="spacing" textLength="39" x="62.5" y="1112.4659">Client</text></g><!--entity StoreNetworkManager--><g id="elem_StoreNetworkManager"><ellipse cx="82" cy="1257" fill="#F1F1F1" rx="8" ry="8" style="stroke:#181818;stroke-width:0.5;"/><path d="M82,1265 L82,1292 M69,1273 L95,1273 M82,1292 L69,1307 M82,1292 L95,1307 " fill="none" style="stroke:#181818;stroke-width:0.5;"/><text fill="#000000" font-family="sans-serif" font-size="14" lengthAdjust="spacing" textLength="152" x="6" y="1323.4659">StoreNetworkManager</text></g><!--link UnregisteredUser to UC1 - Display listed properties--><g id="link_UnregisteredUser_UC1 - Display listed properties"><path d="M142.14,108.28 C198.8,101.84 285.61,91.98 354.43,84.16 " fill="none" id="UnregisteredUser-UC1 - Display listed properties" style="stroke:#181818;stroke-width:1.0;"/></g><!--link UnregisteredUser to UC7 - Register as a client--><g id="link_UnregisteredUser_UC7 - Register as a client"><path d="M142.14,121.56 C202.44,128.25 296.88,138.73 367.45,146.56 " fill="none" id="UnregisteredUser-UC7 - Register as a client" style="stroke:#181818;stroke-width:1.0;"/></g><!--link Agent to UC2 - Publish sale announcement--><g id="link_Agent_UC2 - Publish sale announcement"><path d="M102.41,339.86 C134.06,328.37 198.9,305.5 255,290 C290.58,280.17 330.05,270.97 364.87,263.42 " fill="none" id="Agent-UC2 - Publish sale announcement" style="stroke:#181818;stroke-width:1.0;"/></g><!--link Agent to UC8 - See list of property announcement requests--><g id="link_Agent_UC8 - See list of property announcement requests"><path d="M102.29,347 C135.73,347 207.71,347 278.51,347 " fill="none" id="Agent-UC8 - See list of property announcement requests" style="stroke:#181818;stroke-width:1.0;"/></g><!--link Agent to UC11 - List real estate purchase orders--><g id="link_Agent_UC11 - List real estate purchase orders"><path d="M102.45,353.88 C134.17,364.97 199.1,387.16 255,403 C288.63,412.53 325.65,421.85 358.95,429.82 " fill="none" id="Agent-UC11 - List real estate purchase orders" style="stroke:#181818;stroke-width:1.0;"/></g><!--link Administrator to UC3 - Register employee--><g id="link_Administrator_UC3 - Register employee"><path d="M128.72,651.78 C162.23,629.6 209.6,601.16 255,584 C291.84,570.08 334.25,560.61 371.02,554.32 " fill="none" id="Administrator-UC3 - Register employee" style="stroke:#181818;stroke-width:1.0;"/></g><!--link Administrator to UC12 - Import information from legacy system--><g id="link_Administrator_UC12 - Import information from legacy system"><path d="M128.66,678.45 C174.27,672.91 246.89,664.08 312.67,656.09 " fill="none" id="Administrator-UC12 - Import information from legacy system" style="stroke:#181818;stroke-width:1.0;"/></g><!--link Owner to UC4 - Requests listing a property--><g id="link_Owner_UC4 - Requests listing a property"><path d="M104.99,892 C148.69,892 249.46,892 332.75,892 " fill="none" id="Owner-UC4 - Requests listing a property" style="stroke:#181818;stroke-width:1.0;"/></g><!--link Administrator to UC5 - Register store--><g id="link_Administrator_UC5 - Register store"><path d="M128.66,689.55 C191.18,697.15 304.44,710.91 381.28,720.25 " fill="none" id="Administrator-UC5 - Register store" style="stroke:#181818;stroke-width:1.0;"/></g><!--link Administrator to UC6 - Specify address--><g id="link_Administrator_UC6 - Specify address"><path d="M128.66,710.49 C162.53,729.09 210.37,753.19 255,768 C294.47,781.1 339.74,790.27 377.81,796.41 " fill="none" id="Administrator-UC6 - Specify address" style="stroke:#181818;stroke-width:1.0;"/></g><!--link Client to UC9 - Leave message to agent--><g id="link_Client_UC9 - Leave message to agent"><path d="M101.95,1070.85 C133.5,1060.73 198.86,1040.28 255,1026 C292.83,1016.38 334.93,1007.14 371.19,999.64 " fill="none" id="Client-UC9 - Leave message to agent" style="stroke:#181818;stroke-width:1.0;"/></g><!--link Client to UC10 - Place order to purchase property--><g id="link_Client_UC10 - Place order to purchase property"><path d="M101.77,1077 C139.96,1077 229.89,1077 310.27,1077 " fill="none" id="Client-UC10 - Place order to purchase property" style="stroke:#181818;stroke-width:1.0;"/></g><!--link Client to UC14 - Read response for appointment requests--><g id="link_Client_UC14 - Read response for appointment requests"><path d="M101.8,1082.59 C133.4,1091.95 199.16,1111.31 255,1127 C285.75,1135.64 319.15,1144.79 349.94,1153.14 " fill="none" id="Client-UC14 - Read response for appointment requests" style="stroke:#181818;stroke-width:1.0;"/></g><!--link StoreNetworkManager to UC13 - List all employees in every store--><g id="link_StoreNetworkManager_UC13 - List all employees in every store"><path d="M158.23,1288 C202.86,1288 260.97,1288 314.37,1288 " fill="none" id="StoreNetworkManager-UC13 - List all employees in every store" style="stroke:#181818;stroke-width:1.0;"/></g><!--SRC=[VLBBRjim4BppA_RO70pKSVew1iabG9e6DVm1Mseb4-QhIzg64FJVkvH5sJ4Swo18vCpkpinQQZFa06owTOR6CEbiWbTfOtn4HWSHzGOxMkRU4fHhfHJg71XMdgapAHDJiqh4u_5zHpxNxyOPBn16-HlFVktzX7smvWXUoejUAEy3RtwYbwQiLEc8lfFUorvQkJUbG9xptZ2RpU3Jwc4ECtWqALhimPRx1YA7I9mDfPlht6_2_JtU02P0qCDu8stGLR6tWdtT_f4MQqWeqw7tOUirkGy8tuMm91g6Wj3MgVftHF7txvPIJfSgp8ksvq9dGWi2mqmGjwpNc0W2DyGJyTJtMc1ngezSjA4dkaQO5vLFBWREO7mRs65P3cWvEB3KeUuX3QcCLOPeA_jkQ7VGCyWslXDFg_1hZR-SJfhAMbn3VotMHjAc5JURXYbL6mxhLN4_Yd-4Em8d45clilZO7GDx3vz_BXbRrAEt1JsvVQRYZ7cGZeqabMBmWXVp06CCnkTBGLzO_QdOeiQErawn9Ga4Q4VSLt_-gVy0]--></g></svg>