<?xml version="1.0" encoding="us-ascii" standalone="no"?><svg xmlns="http://www.w3.org/2000/svg" xmlns:xlink="http://www.w3.org/1999/xlink" contentStyleType="text/css" height="622px" preserveAspectRatio="none" style="width:509px;height:622px;background:#FFFFFF;" version="1.1" viewBox="0 0 509 622" width="509px" zoomAndPan="magnify"><defs/><g><text fill="#000000" font-family="sans-serif" font-size="14" font-weight="bold" lengthAdjust="spacing" textLength="132" x="181.9" y="24.9659">Domain Model US3</text><!--class Agency--><g id="elem_Agency"><rect codeLine="8" fill="#F1F1F1" height="124.2717" id="Agency" rx="2.5" ry="2.5" style="stroke:#181818;stroke-width:0.5;" width="111" x="254.3" y="269.0679"/><ellipse cx="282.8" cy="285.0679" fill="#C2C2C2" rx="11" ry="11" style="stroke:#181818;stroke-width:1.0;"/><path d="M282.2687,291.7398 Q280.5187,291.7398 279.3781,291.0054 Q278.2531,290.2554 277.6906,288.9117 Q277.1437,287.5523 277.1437,285.7554 Q277.1437,283.7242 277.8,282.271 Q278.4562,280.8179 279.7375,280.0367 Q281.0187,279.2554 282.8937,279.2554 Q283.7844,279.2554 284.4562,279.4429 Q285.1281,279.6148 285.8156,279.9585 L285.0031,281.9742 Q284.3781,281.6617 283.8312,281.5367 Q283.3,281.4117 282.8156,281.4117 Q281.6437,281.4117 280.9406,281.9429 Q280.2375,282.4742 279.9406,283.4273 Q279.6437,284.3804 279.6437,285.646 Q279.6437,287.6617 280.3625,288.6304 Q281.0812,289.5835 282.675,289.5835 Q283.2687,289.5835 283.8937,289.4273 Q284.5187,289.271 285.3469,288.896 L285.3469,291.1148 Q284.6125,291.4273 283.8156,291.5835 Q283.0344,291.7398 282.2687,291.7398 Z " fill="#000000"/><text fill="#000000" font-family="sans-serif" font-size="14" lengthAdjust="spacing" textLength="49" x="299.8" y="290.4999">Agency</text><line style="stroke:#181818;stroke-width:0.5;" x1="255.3" x2="364.3" y1="301.0679" y2="301.0679"/><text fill="#000000" font-family="sans-serif" font-size="14" lengthAdjust="spacing" textLength="13" x="260.3" y="320.0339">id</text><text fill="#000000" font-family="sans-serif" font-size="14" lengthAdjust="spacing" textLength="80" x="260.3" y="339.1018">designation</text><text fill="#000000" font-family="sans-serif" font-size="14" lengthAdjust="spacing" textLength="92" x="260.3" y="358.1697">emailAddress</text><text fill="#000000" font-family="sans-serif" font-size="14" lengthAdjust="spacing" textLength="99" x="260.3" y="377.2376">phoneNumber</text><line style="stroke:#181818;stroke-width:0.5;" x1="255.3" x2="364.3" y1="385.3396" y2="385.3396"/></g><!--class Employee--><g id="elem_Employee"><rect codeLine="15" fill="#F1F1F1" height="143.3396" id="Employee" rx="2.5" ry="2.5" style="stroke:#181818;stroke-width:0.5;" width="136" x="164.8" y="472.0679"/><ellipse cx="197.35" cy="488.0679" fill="#C2C2C2" rx="11" ry="11" style="stroke:#181818;stroke-width:1.0;"/><path d="M196.8188,494.7398 Q195.0688,494.7398 193.9281,494.0054 Q192.8031,493.2554 192.2406,491.9117 Q191.6938,490.5523 191.6938,488.7554 Q191.6938,486.7242 192.35,485.271 Q193.0063,483.8179 194.2875,483.0367 Q195.5688,482.2554 197.4438,482.2554 Q198.3344,482.2554 199.0063,482.4429 Q199.6781,482.6148 200.3656,482.9585 L199.5531,484.9742 Q198.9281,484.6617 198.3813,484.5367 Q197.85,484.4117 197.3656,484.4117 Q196.1938,484.4117 195.4906,484.9429 Q194.7875,485.4742 194.4906,486.4273 Q194.1938,487.3804 194.1938,488.646 Q194.1938,490.6617 194.9125,491.6304 Q195.6313,492.5835 197.225,492.5835 Q197.8188,492.5835 198.4438,492.4273 Q199.0688,492.271 199.8969,491.896 L199.8969,494.1148 Q199.1625,494.4273 198.3656,494.5835 Q197.5844,494.7398 196.8188,494.7398 Z " fill="#000000"/><text fill="#000000" font-family="sans-serif" font-size="14" lengthAdjust="spacing" textLength="65" x="215.25" y="493.4999">Employee</text><line style="stroke:#181818;stroke-width:0.5;" x1="165.8" x2="299.8" y1="504.0679" y2="504.0679"/><text fill="#000000" font-family="sans-serif" font-size="14" lengthAdjust="spacing" textLength="38" x="170.8" y="523.0339">name</text><text fill="#000000" font-family="sans-serif" font-size="14" lengthAdjust="spacing" textLength="124" x="170.8" y="542.1018">passportCardNum</text><text fill="#000000" font-family="sans-serif" font-size="14" lengthAdjust="spacing" textLength="76" x="170.8" y="561.1697">taxNumber</text><text fill="#000000" font-family="sans-serif" font-size="14" lengthAdjust="spacing" textLength="92" x="170.8" y="580.2376">emailAddress</text><text fill="#000000" font-family="sans-serif" font-size="14" lengthAdjust="spacing" textLength="99" x="170.8" y="599.3055">phoneNumber</text><line style="stroke:#181818;stroke-width:0.5;" x1="165.8" x2="299.8" y1="607.4075" y2="607.4075"/></g><!--class OrganizationRole--><g id="elem_OrganizationRole"><rect codeLine="23" fill="#F1F1F1" height="67.0679" id="OrganizationRole" rx="2.5" ry="2.5" style="stroke:#181818;stroke-width:0.5;" width="149" x="56.3" y="85.0679"/><ellipse cx="71.3" cy="101.0679" fill="#C2C2C2" rx="11" ry="11" style="stroke:#181818;stroke-width:1.0;"/><path d="M70.7688,107.7398 Q69.0188,107.7398 67.8781,107.0054 Q66.7531,106.2554 66.1906,104.9117 Q65.6438,103.5523 65.6438,101.7554 Q65.6438,99.7242 66.3,98.271 Q66.9563,96.8179 68.2375,96.0367 Q69.5188,95.2554 71.3938,95.2554 Q72.2844,95.2554 72.9563,95.4429 Q73.6281,95.6148 74.3156,95.9585 L73.5031,97.9742 Q72.8781,97.6617 72.3313,97.5367 Q71.8,97.4117 71.3156,97.4117 Q70.1438,97.4117 69.4406,97.9429 Q68.7375,98.4742 68.4406,99.4273 Q68.1438,100.3804 68.1438,101.646 Q68.1438,103.6617 68.8625,104.6304 Q69.5813,105.5835 71.175,105.5835 Q71.7688,105.5835 72.3938,105.4273 Q73.0188,105.271 73.8469,104.896 L73.8469,107.1148 Q73.1125,107.4273 72.3156,107.5835 Q71.5344,107.7398 70.7688,107.7398 Z " fill="#000000"/><text fill="#000000" font-family="sans-serif" font-size="14" lengthAdjust="spacing" textLength="117" x="85.3" y="106.4999">OrganizationRole</text><line style="stroke:#181818;stroke-width:0.5;" x1="57.3" x2="204.3" y1="117.0679" y2="117.0679"/><text fill="#000000" font-family="sans-serif" font-size="14" lengthAdjust="spacing" textLength="66" x="62.3" y="136.0339">roleName</text><line style="stroke:#181818;stroke-width:0.5;" x1="57.3" x2="204.3" y1="144.1358" y2="144.1358"/></g><!--class Address--><g id="elem_Address"><rect codeLine="27" fill="#F1F1F1" height="143.3396" id="Address" rx="2.5" ry="2.5" style="stroke:#181818;stroke-width:0.5;" width="104" x="307.8" y="47.0679"/><ellipse cx="330.45" cy="63.0679" fill="#C2C2C2" rx="11" ry="11" style="stroke:#181818;stroke-width:1.0;"/><path d="M329.9188,69.7398 Q328.1688,69.7398 327.0281,69.0054 Q325.9031,68.2554 325.3406,66.9117 Q324.7938,65.5523 324.7938,63.7554 Q324.7938,61.7242 325.45,60.271 Q326.1063,58.8179 327.3875,58.0367 Q328.6688,57.2554 330.5438,57.2554 Q331.4344,57.2554 332.1063,57.4429 Q332.7781,57.6148 333.4656,57.9585 L332.6531,59.9742 Q332.0281,59.6617 331.4813,59.5367 Q330.95,59.4117 330.4656,59.4117 Q329.2938,59.4117 328.5906,59.9429 Q327.8875,60.4742 327.5906,61.4273 Q327.2938,62.3804 327.2938,63.646 Q327.2938,65.6617 328.0125,66.6304 Q328.7313,67.5835 330.325,67.5835 Q330.9188,67.5835 331.5438,67.4273 Q332.1688,67.271 332.9969,66.896 L332.9969,69.1148 Q332.2625,69.4273 331.4656,69.5835 Q330.6844,69.7398 329.9188,69.7398 Z " fill="#000000"/><text fill="#000000" font-family="sans-serif" font-size="14" lengthAdjust="spacing" textLength="55" x="346.15" y="68.4999">Address</text><line style="stroke:#181818;stroke-width:0.5;" x1="308.8" x2="410.8" y1="79.0679" y2="79.0679"/><text fill="#000000" font-family="sans-serif" font-size="14" lengthAdjust="spacing" textLength="39" x="313.8" y="98.0339">street</text><text fill="#000000" font-family="sans-serif" font-size="14" lengthAdjust="spacing" textLength="63" x="313.8" y="117.1018">cityName</text><text fill="#000000" font-family="sans-serif" font-size="14" lengthAdjust="spacing" textLength="87" x="313.8" y="136.1697">districtName</text><text fill="#000000" font-family="sans-serif" font-size="14" lengthAdjust="spacing" textLength="92" x="313.8" y="155.2376">stateAcronym</text><text fill="#000000" font-family="sans-serif" font-size="14" lengthAdjust="spacing" textLength="54" x="313.8" y="174.3055">zipCode</text><line style="stroke:#181818;stroke-width:0.5;" x1="308.8" x2="410.8" y1="182.4075" y2="182.4075"/></g><!--class Administrator--><g id="elem_Administrator"><rect codeLine="35" fill="#F1F1F1" height="48" id="Administrator" rx="2.5" ry="2.5" style="stroke:#181818;stroke-width:0.5;" width="125" x="94.3" y="307.0679"/><ellipse cx="109.3" cy="323.0679" fill="#C2C2C2" rx="11" ry="11" style="stroke:#181818;stroke-width:1.0;"/><path d="M108.7688,329.7398 Q107.0188,329.7398 105.8781,329.0054 Q104.7531,328.2554 104.1906,326.9117 Q103.6438,325.5523 103.6438,323.7554 Q103.6438,321.7242 104.3,320.271 Q104.9563,318.8179 106.2375,318.0367 Q107.5188,317.2554 109.3938,317.2554 Q110.2844,317.2554 110.9563,317.4429 Q111.6281,317.6148 112.3156,317.9585 L111.5031,319.9742 Q110.8781,319.6617 110.3313,319.5367 Q109.8,319.4117 109.3156,319.4117 Q108.1438,319.4117 107.4406,319.9429 Q106.7375,320.4742 106.4406,321.4273 Q106.1438,322.3804 106.1438,323.646 Q106.1438,325.6617 106.8625,326.6304 Q107.5813,327.5835 109.175,327.5835 Q109.7688,327.5835 110.3938,327.4273 Q111.0188,327.271 111.8469,326.896 L111.8469,329.1148 Q111.1125,329.4273 110.3156,329.5835 Q109.5344,329.7398 108.7688,329.7398 Z " fill="#000000"/><text fill="#000000" font-family="sans-serif" font-size="14" lengthAdjust="spacing" textLength="93" x="123.3" y="328.4999">Administrator</text><line style="stroke:#181818;stroke-width:0.5;" x1="95.3" x2="218.3" y1="339.0679" y2="339.0679"/><line style="stroke:#181818;stroke-width:0.5;" x1="95.3" x2="218.3" y1="347.0679" y2="347.0679"/></g><!--link Address to Employee--><g id="link_Address_Employee"><path codeLine="43" d="M403.36,190.5679 C407.64,200.1979 411.32,210.1779 413.8,220.0679 C427.34,273.8579 451.72,264.7379 382.8,393.0679 C362.8,430.3179 330.5,464.2679 300.98,490.3679 " fill="none" id="Address-Employee" style="stroke:#181818;stroke-width:1.0;"/><polygon fill="#000000" points="435.4159,326.6892,429.7115,334.2992,435.274,336.1987,435.4159,326.6892" style="stroke:#000000;stroke-width:1.0;"/><text fill="#000000" font-family="sans-serif" font-size="13" lengthAdjust="spacing" textLength="59" x="442.8" y="336.4649">located at</text><text fill="#000000" font-family="sans-serif" font-size="13" lengthAdjust="spacing" textLength="7" x="400.3034" y="212.4072">1</text><text fill="#000000" font-family="sans-serif" font-size="13" lengthAdjust="spacing" textLength="7" x="308.82" y="480.5365">1</text></g><!--link Address to Agency--><g id="link_Address_Agency"><path codeLine="44" d="M342.87,190.3879 C340.49,200.3579 338.09,210.4679 335.8,220.0679 C332.06,235.8179 328.03,252.8379 324.29,268.6779 " fill="none" id="Address-Agency" style="stroke:#181818;stroke-width:1.0;"/><polygon fill="#000000" points="341.9545,225.056,337.0064,233.1781,342.7255,234.5353,341.9545,225.056" style="stroke:#000000;stroke-width:1.0;"/><text fill="#000000" font-family="sans-serif" font-size="13" lengthAdjust="spacing" textLength="59" x="349.8" y="234.9649">located at</text><text fill="#000000" font-family="sans-serif" font-size="13" lengthAdjust="spacing" textLength="7" x="333.8589" y="212.2095">1</text><text fill="#000000" font-family="sans-serif" font-size="13" lengthAdjust="spacing" textLength="7" x="318.5607" y="257.4034">1</text></g><!--link Agency to Employee--><g id="link_Agency_Employee"><path codeLine="46" d="M287.33,393.5179 C278.36,418.0279 267.98,446.4079 258.7,471.7679 " fill="none" id="Agency-Employee" style="stroke:#181818;stroke-width:1.0;"/><polygon fill="#000000" points="280.082,437.6165,285.9499,430.1319,280.4299,428.1123,280.082,437.6165" style="stroke:#000000;stroke-width:1.0;"/><text fill="#000000" font-family="sans-serif" font-size="13" lengthAdjust="spacing" textLength="32" x="290.8" y="437.9649">owns</text><text fill="#000000" font-family="sans-serif" font-size="13" lengthAdjust="spacing" textLength="7" x="277.4895" y="415.1988">1</text><text fill="#000000" font-family="sans-serif" font-size="13" lengthAdjust="spacing" textLength="20" x="240.3397" y="460.4029">1..*</text></g><!--reverse link OrganizationRole to Administrator--><g id="link_OrganizationRole_Administrator"><path codeLine="48" d="M137.49,173.6879 C142.81,216.7879 150,274.9779 153.94,306.8379 " fill="none" id="OrganizationRole-backto-Administrator" style="stroke:#181818;stroke-width:1.0;"/><polygon fill="none" points="130.56,174.6679,135.05,153.9579,144.45,172.9479,130.56,174.6679" style="stroke:#181818;stroke-width:1.0;"/></g><!--link OrganizationRole to Employee--><g id="link_OrganizationRole_Employee"><path codeLine="53" d="M100.33,152.4679 C76.19,180.9179 44.37,224.3979 30.8,269.0679 C14.79,321.7979 6,343.8579 30.8,393.0679 C58.59,448.1979 117.37,488.0579 164.4,512.6879 " fill="none" id="OrganizationRole-Employee" style="stroke:#181818;stroke-width:1.0;"/><polygon fill="#000000" points="34.9244,326.4982,33.6148,335.9182,39.4019,334.8889,34.9244,326.4982" style="stroke:#000000;stroke-width:1.0;"/><text fill="#000000" font-family="sans-serif" font-size="13" lengthAdjust="spacing" textLength="31" x="44.8" y="336.4649">plays</text><text fill="#000000" font-family="sans-serif" font-size="13" lengthAdjust="spacing" textLength="20" x="73.1213" y="173.9743">1..*</text><text fill="#000000" font-family="sans-serif" font-size="13" lengthAdjust="spacing" textLength="7" x="149.9853" y="505.5428">1</text></g><!--link Administrator to Employee--><g id="link_Administrator_Employee"><path codeLine="55" d="M158.81,355.3979 C161.27,378.0579 166.46,413.1979 176.8,442.0679 C180.34,451.9379 184.78,461.9879 189.61,471.7279 " fill="none" id="Administrator-Employee" style="stroke:#181818;stroke-width:1.0;"/><polygon fill="#000000" points="183.0797,437.7544,183.6057,428.2584,177.9236,429.7628,183.0797,437.7544" style="stroke:#000000;stroke-width:1.0;"/><text fill="#000000" font-family="sans-serif" font-size="13" lengthAdjust="spacing" textLength="52" x="190.8" y="437.9649">registers</text><text fill="#000000" font-family="sans-serif" font-size="13" lengthAdjust="spacing" textLength="7" x="151.4654" y="376.9685">1</text><text fill="#000000" font-family="sans-serif" font-size="13" lengthAdjust="spacing" textLength="7" x="177.7951" y="460.3588">*</text></g><!--SRC=[ZL5DImCn4BtdLmnU145Hl8a8HJrui8B57p0cupOqcracK-fM_U-csUtQhH-OIv9vRrxUcwI5ZmqArb1pP3iNhWbKbcJIW3He5rZHJDj086GLOnLs2McEZbS-Ll228UqYDc1A4rNnpqkbEyjnvjS4fyQerwnsmpNw2FViAC3JxDoOqW6JYg9jtmpavLtP72LVHLJFiTmfTuQ9Sq8fbK8pvqZJPVrCOZwsGhTr4xWbwgGYrjHnCzQmw3MAoosbflZQT_zV_a4gZ7vTN3row9-HV9fkdXfulL079nKYBKVhjPrkJJcV4MzrA2H5fOaLZcrdSUsRwpogNTtQnqqRAeinXr_Jq-4son3TOynVAEFYb7J5iXYmtYKSd1t0yN7PjlE32mXiinq7g73v4xNxitsYwSi3yUJaQ2JBgvZWofZzKSBbU-QF0nx-GYfvVm57yV_Yx4_Z6xNt_dqoJS0sbQoxReV8uxn2LMQGR49_0W00]--></g></svg>