<?xml version="1.0" encoding="us-ascii" standalone="no"?><svg xmlns="http://www.w3.org/2000/svg" xmlns:xlink="http://www.w3.org/1999/xlink" contentStyleType="text/css" height="1299px" preserveAspectRatio="none" style="width:1802px;height:1299px;background:#FFFFFF;" version="1.1" viewBox="0 0 1802 1299" width="1802px" zoomAndPan="magnify"><defs/><g><rect fill="#FFFFFF" height="1111.8506" style="stroke:#181818;stroke-width:1.0;" width="10" x="37.5" y="94.0679"/><rect fill="#FFFFFF" height="307.6481" style="stroke:#181818;stroke-width:1.0;" width="10" x="360.5" y="117.7739"/><rect fill="#FFFFFF" height="31.706" style="stroke:#181818;stroke-width:1.0;" width="10" x="360.5" y="457.1281"/><rect fill="#FFFFFF" height="165.5301" style="stroke:#181818;stroke-width:1.0;" width="10" x="360.5" y="547.2461"/><rect fill="#FFFFFF" height="461.4363" style="stroke:#181818;stroke-width:1.0;" width="10" x="360.5" y="744.4822"/><rect fill="#FFFFFF" height="133.8241" style="stroke:#181818;stroke-width:1.0;" width="10" x="713.5" y="159.4799"/><rect fill="#FFFFFF" height="91.7561" style="stroke:#181818;stroke-width:1.0;" width="10" x="718.5" y="201.5479"/><rect fill="#FFFFFF" height="61.706" style="stroke:#181818;stroke-width:1.0;" width="10" x="713.5" y="332.01"/><rect fill="#FFFFFF" height="95.118" style="stroke:#181818;stroke-width:1.0;" width="10" x="713.5" y="578.9521"/><rect fill="#FFFFFF" height="307.6303" style="stroke:#181818;stroke-width:1.0;" width="10" x="713.5" y="776.1882"/><rect fill="#FFFFFF" height="91.7561" style="stroke:#181818;stroke-width:1.0;" width="10" x="718.5" y="815.8943"/><rect fill="#FFFFFF" height="31.706" style="stroke:#181818;stroke-width:1.0;" width="10" x="1158" y="610.6582"/><rect fill="#FFFFFF" height="80.7561" style="stroke:#181818;stroke-width:1.0;" width="10" x="1158" y="971.3564"/><rect fill="#FFFFFF" height="30" style="stroke:#181818;stroke-width:1.0;" width="10" x="1728.5" y="363.716"/><rect fill="none" height="178.2361" style="stroke:#000000;stroke-width:1.5;" width="1226" x="10" y="503.8341"/><rect fill="none" height="100.0999" style="stroke:#000000;stroke-width:1.5;" width="419.5" x="10" y="1098.8186"/><line style="stroke:#181818;stroke-width:0.5;stroke-dasharray:5.0,5.0;" x1="42" x2="42" y1="84.0679" y2="1215.9185"/><line style="stroke:#181818;stroke-width:0.5;stroke-dasharray:5.0,5.0;" x1="365.5" x2="365.5" y1="84.0679" y2="1215.9185"/><line style="stroke:#181818;stroke-width:0.5;stroke-dasharray:5.0,5.0;" x1="718.5" x2="718.5" y1="157.8079" y2="1215.9185"/><line style="stroke:#181818;stroke-width:0.5;stroke-dasharray:5.0,5.0;" x1="931" x2="931" y1="84.0679" y2="1215.9185"/><line style="stroke:#181818;stroke-width:0.5;stroke-dasharray:5.0,5.0;" x1="1041" x2="1041" y1="84.0679" y2="1215.9185"/><line style="stroke:#181818;stroke-width:0.5;stroke-dasharray:5.0,5.0;" x1="1163" x2="1163" y1="84.0679" y2="1215.9185"/><line style="stroke:#181818;stroke-width:0.5;stroke-dasharray:5.0,5.0;" x1="1308" x2="1308" y1="84.0679" y2="1215.9185"/><line style="stroke:#181818;stroke-width:0.5;stroke-dasharray:5.0,5.0;" x1="1463" x2="1463" y1="84.0679" y2="1215.9185"/><line style="stroke:#181818;stroke-width:0.5;stroke-dasharray:5.0,5.0;" x1="1603" x2="1603" y1="84.0679" y2="1215.9185"/><line style="stroke:#181818;stroke-width:0.5;stroke-dasharray:5.0,5.0;" x1="1733" x2="1733" y1="84.0679" y2="1215.9185"/><text fill="#000000" font-family="sans-serif" font-size="14" lengthAdjust="spacing" textLength="39" x="20" y="79.9659">Client</text><ellipse cx="42.5" cy="13.5" fill="#E3E3E3" rx="8" ry="8" style="stroke:#181818;stroke-width:0.5;"/><path d="M42.5,21.5 L42.5,48.5 M29.5,29.5 L55.5,29.5 M42.5,48.5 L29.5,63.5 M42.5,48.5 L55.5,63.5 " fill="none" style="stroke:#181818;stroke-width:0.5;"/><text fill="#000000" font-family="sans-serif" font-size="14" lengthAdjust="spacing" textLength="39" x="20" y="1229.8845">Client</text><ellipse cx="42.5" cy="1242.4864" fill="#E3E3E3" rx="8" ry="8" style="stroke:#181818;stroke-width:0.5;"/><path d="M42.5,1250.4864 L42.5,1277.4864 M29.5,1258.4864 L55.5,1258.4864 M42.5,1277.4864 L29.5,1292.4864 M42.5,1277.4864 L55.5,1292.4864 " fill="none" style="stroke:#181818;stroke-width:0.5;"/><rect fill="#E3E3E3" height="33.0679" rx="2.5" ry="2.5" style="stroke:#181818;stroke-width:0.5;" width="108" x="311.5" y="50"/><text fill="#000000" font-family="sans-serif" font-size="14" lengthAdjust="spacing" textLength="94" x="318.5" y="71.9659">:PlaceOrderUI</text><rect fill="#E3E3E3" height="33.0679" rx="2.5" ry="2.5" style="stroke:#181818;stroke-width:0.5;" width="108" x="311.5" y="1214.9185"/><text fill="#000000" font-family="sans-serif" font-size="14" lengthAdjust="spacing" textLength="94" x="318.5" y="1236.8845">:PlaceOrderUI</text><rect fill="#E3E3E3" height="33.0679" rx="2.5" ry="2.5" style="stroke:#181818;stroke-width:0.5;" width="160" x="638.5" y="1214.9185"/><text fill="#000000" font-family="sans-serif" font-size="14" lengthAdjust="spacing" textLength="146" x="645.5" y="1236.8845">:PlaceOrderController</text><rect fill="#E3E3E3" height="33.0679" rx="2.5" ry="2.5" style="stroke:#181818;stroke-width:0.5;" width="101" x="881" y="50"/><text fill="#000000" font-family="sans-serif" font-size="14" lengthAdjust="spacing" textLength="87" x="888" y="71.9659">:Repositories</text><rect fill="#E3E3E3" height="33.0679" rx="2.5" ry="2.5" style="stroke:#181818;stroke-width:0.5;" width="101" x="881" y="1214.9185"/><text fill="#000000" font-family="sans-serif" font-size="14" lengthAdjust="spacing" textLength="87" x="888" y="1236.8845">:Repositories</text><rect fill="#E3E3E3" height="52.1358" rx="2.5" ry="2.5" style="stroke:#181818;stroke-width:0.5;" width="98" x="992" y="30.9321"/><text fill="#000000" font-family="sans-serif" font-size="14" lengthAdjust="spacing" textLength="84" x="999" y="52.898">repositories:</text><text fill="#000000" font-family="sans-serif" font-size="14" lengthAdjust="spacing" textLength="83" x="999.5" y="71.9659">Repositories</text><rect fill="#E3E3E3" height="52.1358" rx="2.5" ry="2.5" style="stroke:#181818;stroke-width:0.5;" width="98" x="992" y="1214.9185"/><text fill="#000000" font-family="sans-serif" font-size="14" lengthAdjust="spacing" textLength="84" x="999" y="1236.8845">repositories:</text><text fill="#000000" font-family="sans-serif" font-size="14" lengthAdjust="spacing" textLength="83" x="999.5" y="1255.9524">Repositories</text><rect fill="#E3E3E3" height="52.1358" rx="2.5" ry="2.5" style="stroke:#181818;stroke-width:0.5;" width="126" x="1100" y="30.9321"/><text fill="#000000" font-family="sans-serif" font-size="14" lengthAdjust="spacing" textLength="112" x="1107" y="52.898">orderRepository:</text><text fill="#000000" font-family="sans-serif" font-size="14" lengthAdjust="spacing" textLength="111" x="1107.5" y="71.9659">OrderRepository</text><rect fill="#E3E3E3" height="52.1358" rx="2.5" ry="2.5" style="stroke:#181818;stroke-width:0.5;" width="126" x="1100" y="1214.9185"/><text fill="#000000" font-family="sans-serif" font-size="14" lengthAdjust="spacing" textLength="112" x="1107" y="1236.8845">orderRepository:</text><text fill="#000000" font-family="sans-serif" font-size="14" lengthAdjust="spacing" textLength="111" x="1107.5" y="1255.9524">OrderRepository</text><rect fill="#E3E3E3" height="33.0679" rx="2.5" ry="2.5" style="stroke:#181818;stroke-width:0.5;" width="145" x="1236" y="50"/><text fill="#000000" font-family="sans-serif" font-size="14" lengthAdjust="spacing" textLength="131" x="1243" y="71.9659">:ApplicationSession</text><rect fill="#E3E3E3" height="33.0679" rx="2.5" ry="2.5" style="stroke:#181818;stroke-width:0.5;" width="145" x="1236" y="1214.9185"/><text fill="#000000" font-family="sans-serif" font-size="14" lengthAdjust="spacing" textLength="131" x="1243" y="1236.8845">:ApplicationSession</text><rect fill="#E3E3E3" height="52.1358" rx="2.5" ry="2.5" style="stroke:#181818;stroke-width:0.5;" width="145" x="1391" y="30.9321"/><text fill="#000000" font-family="sans-serif" font-size="14" lengthAdjust="spacing" textLength="77" x="1425" y="52.898">appSession</text><text fill="#000000" font-family="sans-serif" font-size="14" lengthAdjust="spacing" textLength="131" x="1398" y="71.9659">:ApplicationSession</text><rect fill="#E3E3E3" height="52.1358" rx="2.5" ry="2.5" style="stroke:#181818;stroke-width:0.5;" width="145" x="1391" y="1214.9185"/><text fill="#000000" font-family="sans-serif" font-size="14" lengthAdjust="spacing" textLength="77" x="1425" y="1236.8845">appSession</text><text fill="#000000" font-family="sans-serif" font-size="14" lengthAdjust="spacing" textLength="131" x="1398" y="1255.9524">:ApplicationSession</text><rect fill="#E3E3E3" height="52.1358" rx="2.5" ry="2.5" style="stroke:#181818;stroke-width:0.5;" width="115" x="1546" y="30.9321"/><text fill="#000000" font-family="sans-serif" font-size="14" lengthAdjust="spacing" textLength="101" x="1553" y="52.898">currentSession</text><text fill="#000000" font-family="sans-serif" font-size="14" lengthAdjust="spacing" textLength="86" x="1560.5" y="71.9659">:UserSession</text><rect fill="#E3E3E3" height="52.1358" rx="2.5" ry="2.5" style="stroke:#181818;stroke-width:0.5;" width="115" x="1546" y="1214.9185"/><text fill="#000000" font-family="sans-serif" font-size="14" lengthAdjust="spacing" textLength="101" x="1553" y="1236.8845">currentSession</text><text fill="#000000" font-family="sans-serif" font-size="14" lengthAdjust="spacing" textLength="86" x="1560.5" y="1255.9524">:UserSession</text><rect fill="#E3E3E3" height="33.0679" rx="2.5" ry="2.5" style="stroke:#181818;stroke-width:0.5;" width="125" x="1671" y="50"/><text fill="#000000" font-family="sans-serif" font-size="14" lengthAdjust="spacing" textLength="111" x="1678" y="71.9659">:ListPropertiesUI</text><rect fill="#E3E3E3" height="33.0679" rx="2.5" ry="2.5" style="stroke:#181818;stroke-width:0.5;" width="125" x="1671" y="1214.9185"/><text fill="#000000" font-family="sans-serif" font-size="14" lengthAdjust="spacing" textLength="111" x="1678" y="1236.8845">:ListPropertiesUI</text><rect fill="#FFFFFF" height="1111.8506" style="stroke:#181818;stroke-width:1.0;" width="10" x="37.5" y="94.0679"/><rect fill="#FFFFFF" height="307.6481" style="stroke:#181818;stroke-width:1.0;" width="10" x="360.5" y="117.7739"/><rect fill="#FFFFFF" height="31.706" style="stroke:#181818;stroke-width:1.0;" width="10" x="360.5" y="457.1281"/><rect fill="#FFFFFF" height="165.5301" style="stroke:#181818;stroke-width:1.0;" width="10" x="360.5" y="547.2461"/><rect fill="#FFFFFF" height="461.4363" style="stroke:#181818;stroke-width:1.0;" width="10" x="360.5" y="744.4822"/><rect fill="#FFFFFF" height="133.8241" style="stroke:#181818;stroke-width:1.0;" width="10" x="713.5" y="159.4799"/><rect fill="#FFFFFF" height="91.7561" style="stroke:#181818;stroke-width:1.0;" width="10" x="718.5" y="201.5479"/><rect fill="#FFFFFF" height="61.706" style="stroke:#181818;stroke-width:1.0;" width="10" x="713.5" y="332.01"/><rect fill="#FFFFFF" height="95.118" style="stroke:#181818;stroke-width:1.0;" width="10" x="713.5" y="578.9521"/><rect fill="#FFFFFF" height="307.6303" style="stroke:#181818;stroke-width:1.0;" width="10" x="713.5" y="776.1882"/><rect fill="#FFFFFF" height="91.7561" style="stroke:#181818;stroke-width:1.0;" width="10" x="718.5" y="815.8943"/><rect fill="#FFFFFF" height="31.706" style="stroke:#181818;stroke-width:1.0;" width="10" x="1158" y="610.6582"/><rect fill="#FFFFFF" height="80.7561" style="stroke:#181818;stroke-width:1.0;" width="10" x="1158" y="971.3564"/><rect fill="#FFFFFF" height="30" style="stroke:#181818;stroke-width:1.0;" width="10" x="1728.5" y="363.716"/><polygon fill="#181818" points="348.5,113.7739,358.5,117.7739,348.5,121.7739,352.5,117.7739" style="stroke:#181818;stroke-width:1.0;"/><line style="stroke:#181818;stroke-width:1.0;" x1="47.5" x2="354.5" y1="117.7739" y2="117.7739"/><text fill="#000000" font-family="sans-serif" font-size="13" font-weight="bold" lengthAdjust="spacing" textLength="7" x="54.5" y="111.9649">1</text><text fill="#000000" font-family="sans-serif" font-size="13" lengthAdjust="spacing" textLength="260" x="65.5" y="111.9649">asks to place an order to purchase property</text><polygon fill="#181818" points="626.5,145.4799,636.5,149.4799,626.5,153.4799,630.5,149.4799" style="stroke:#181818;stroke-width:1.0;"/><line style="stroke:#181818;stroke-width:1.0;" x1="370.5" x2="632.5" y1="149.4799" y2="149.4799"/><text fill="#000000" font-family="sans-serif" font-size="13" font-weight="bold" lengthAdjust="spacing" textLength="7" x="377.5" y="143.6709">2</text><text fill="#000000" font-family="sans-serif" font-size="13" lengthAdjust="spacing" textLength="37" x="388.5" y="143.6709">create</text><rect fill="#E3E3E3" height="33.0679" rx="2.5" ry="2.5" style="stroke:#181818;stroke-width:0.5;" width="160" x="638.5" y="125.7739"/><text fill="#000000" font-family="sans-serif" font-size="14" lengthAdjust="spacing" textLength="146" x="645.5" y="147.7399">:PlaceOrderController</text><line style="stroke:#181818;stroke-width:1.0;" x1="723.5" x2="770.5" y1="188.5479" y2="188.5479"/><line style="stroke:#181818;stroke-width:1.0;" x1="770.5" x2="770.5" y1="188.5479" y2="201.5479"/><line style="stroke:#181818;stroke-width:1.0;" x1="729.5" x2="770.5" y1="201.5479" y2="201.5479"/><polygon fill="#181818" points="739.5,197.5479,729.5,201.5479,739.5,205.5479,735.5,201.5479" style="stroke:#181818;stroke-width:1.0;"/><text fill="#000000" font-family="sans-serif" font-size="13" font-weight="bold" lengthAdjust="spacing" textLength="7" x="735.5" y="182.7389">3</text><text fill="#000000" font-family="sans-serif" font-size="13" lengthAdjust="spacing" textLength="69" x="746.5" y="182.7389">getOrders()</text><rect fill="none" height="44.0501" style="stroke:#000000;stroke-width:1.5;" width="166" x="635.5" y="214.5479"/><path d="M635.5,214.5479 L699.5,214.5479 L699.5,223.5479 L689.5,233.5479 L635.5,233.5479 L635.5,214.5479 " fill="#EEEEEE" style="stroke:#000000;stroke-width:2.0;"/><text fill="#000000" font-family="sans-serif" font-size="13" font-weight="bold" lengthAdjust="spacing" textLength="19" x="648.5" y="230.4449">ref</text><text fill="#000000" font-family="sans-serif" font-size="12" lengthAdjust="spacing" textLength="78" x="679.5" y="250.376">Get Order List</text><line style="stroke:#181818;stroke-width:1.0;stroke-dasharray:2.0,2.0;" x1="728.5" x2="770.5" y1="292.304" y2="292.304"/><line style="stroke:#181818;stroke-width:1.0;stroke-dasharray:2.0,2.0;" x1="770.5" x2="770.5" y1="292.304" y2="305.304"/><line style="stroke:#181818;stroke-width:1.0;stroke-dasharray:2.0,2.0;" x1="723.5" x2="770.5" y1="305.304" y2="305.304"/><polygon fill="#181818" points="733.5,301.304,723.5,305.304,733.5,309.304,729.5,305.304" style="stroke:#181818;stroke-width:1.0;"/><text fill="#000000" font-family="sans-serif" font-size="13" font-weight="bold" lengthAdjust="spacing" textLength="7" x="735.5" y="286.495">4</text><text fill="#000000" font-family="sans-serif" font-size="13" lengthAdjust="spacing" textLength="54" x="746.5" y="286.495">orderList</text><polygon fill="#181818" points="701.5,328.01,711.5,332.01,701.5,336.01,705.5,332.01" style="stroke:#181818;stroke-width:1.0;"/><line style="stroke:#181818;stroke-width:1.0;" x1="370.5" x2="707.5" y1="332.01" y2="332.01"/><text fill="#000000" font-family="sans-serif" font-size="13" font-weight="bold" lengthAdjust="spacing" textLength="7" x="377.5" y="326.201">5</text><text fill="#000000" font-family="sans-serif" font-size="13" lengthAdjust="spacing" textLength="112" x="388.5" y="326.201">displayProperties()</text><polygon fill="#181818" points="1716.5,359.716,1726.5,363.716,1716.5,367.716,1720.5,363.716" style="stroke:#181818;stroke-width:1.0;"/><line style="stroke:#181818;stroke-width:1.0;" x1="723.5" x2="1722.5" y1="363.716" y2="363.716"/><text fill="#000000" font-family="sans-serif" font-size="13" font-weight="bold" lengthAdjust="spacing" textLength="7" x="730.5" y="357.907">6</text><text fill="#000000" font-family="sans-serif" font-size="13" lengthAdjust="spacing" textLength="21" x="741.5" y="357.907">run</text><polygon fill="#181818" points="58.5,421.4221,48.5,425.4221,58.5,429.4221,54.5,425.4221" style="stroke:#181818;stroke-width:1.0;"/><line style="stroke:#181818;stroke-width:1.0;stroke-dasharray:2.0,2.0;" x1="52.5" x2="364.5" y1="425.4221" y2="425.4221"/><text fill="#000000" font-family="sans-serif" font-size="13" font-weight="bold" lengthAdjust="spacing" textLength="7" x="64.5" y="419.6131">7</text><text fill="#000000" font-family="sans-serif" font-size="13" lengthAdjust="spacing" textLength="168" x="75.5" y="419.6131">displays available properties</text><polygon fill="#181818" points="348.5,453.1281,358.5,457.1281,348.5,461.1281,352.5,457.1281" style="stroke:#181818;stroke-width:1.0;"/><line style="stroke:#181818;stroke-width:1.0;" x1="47.5" x2="354.5" y1="457.1281" y2="457.1281"/><text fill="#000000" font-family="sans-serif" font-size="13" font-weight="bold" lengthAdjust="spacing" textLength="7" x="54.5" y="451.3191">8</text><text fill="#000000" font-family="sans-serif" font-size="13" lengthAdjust="spacing" textLength="96" x="65.5" y="451.3191">selects property</text><polygon fill="#181818" points="58.5,484.8341,48.5,488.8341,58.5,492.8341,54.5,488.8341" style="stroke:#181818;stroke-width:1.0;"/><line style="stroke:#181818;stroke-width:1.0;stroke-dasharray:2.0,2.0;" x1="52.5" x2="364.5" y1="488.8341" y2="488.8341"/><text fill="#000000" font-family="sans-serif" font-size="13" font-weight="bold" lengthAdjust="spacing" textLength="7" x="64.5" y="483.0251">9</text><text fill="#000000" font-family="sans-serif" font-size="13" lengthAdjust="spacing" textLength="175" x="75.5" y="483.0251">requests data (orderAmount)</text><path d="M10,503.8341 L83,503.8341 L83,513.5401 L73,523.5401 L10,523.5401 L10,503.8341 " fill="#EEEEEE" style="stroke:#000000;stroke-width:1.5;"/><rect fill="none" height="178.2361" style="stroke:#000000;stroke-width:1.5;" width="1226" x="10" y="503.8341"/><text fill="#000000" font-family="sans-serif" font-size="13" font-weight="bold" lengthAdjust="spacing" textLength="28" x="25" y="518.7311">loop</text><text fill="#000000" font-family="sans-serif" font-size="11" font-weight="bold" lengthAdjust="spacing" textLength="226" x="98" y="517.593">[until orderAmount is "equal" or "lower"]</text><polygon fill="#181818" points="348.5,543.2461,358.5,547.2461,348.5,551.2461,352.5,547.2461" style="stroke:#181818;stroke-width:1.0;"/><line style="stroke:#181818;stroke-width:1.0;" x1="47.5" x2="354.5" y1="547.2461" y2="547.2461"/><text fill="#000000" font-family="sans-serif" font-size="13" font-weight="bold" lengthAdjust="spacing" textLength="14" x="54.5" y="541.4371">10</text><text fill="#000000" font-family="sans-serif" font-size="13" lengthAdjust="spacing" textLength="127" x="72.5" y="541.4371">types requested data</text><polygon fill="#181818" points="701.5,574.9521,711.5,578.9521,701.5,582.9521,705.5,578.9521" style="stroke:#181818;stroke-width:1.0;"/><line style="stroke:#181818;stroke-width:1.0;" x1="370.5" x2="707.5" y1="578.9521" y2="578.9521"/><text fill="#000000" font-family="sans-serif" font-size="13" font-weight="bold" lengthAdjust="spacing" textLength="14" x="377.5" y="573.1431">11</text><text fill="#000000" font-family="sans-serif" font-size="13" lengthAdjust="spacing" textLength="306" x="395.5" y="573.1431">checkOrderAmountIsValid(property, orderAmount)</text><polygon fill="#181818" points="1146,606.6582,1156,610.6582,1146,614.6582,1150,610.6582" style="stroke:#181818;stroke-width:1.0;"/><line style="stroke:#181818;stroke-width:1.0;" x1="723.5" x2="1152" y1="610.6582" y2="610.6582"/><text fill="#000000" font-family="sans-serif" font-size="13" font-weight="bold" lengthAdjust="spacing" textLength="14" x="730.5" y="604.8492">12</text><text fill="#000000" font-family="sans-serif" font-size="13" lengthAdjust="spacing" textLength="306" x="748.5" y="604.8492">checkOrderAmountIsValid(property, orderAmount)</text><polygon fill="#181818" points="734.5,638.3642,724.5,642.3642,734.5,646.3642,730.5,642.3642" style="stroke:#181818;stroke-width:1.0;"/><line style="stroke:#181818;stroke-width:1.0;stroke-dasharray:2.0,2.0;" x1="728.5" x2="1162" y1="642.3642" y2="642.3642"/><text fill="#000000" font-family="sans-serif" font-size="13" font-weight="bold" lengthAdjust="spacing" textLength="14" x="740.5" y="636.5552">13</text><text fill="#000000" font-family="sans-serif" font-size="13" lengthAdjust="spacing" textLength="25" x="758.5" y="636.5552">true</text><polygon fill="#181818" points="381.5,670.0702,371.5,674.0702,381.5,678.0702,377.5,674.0702" style="stroke:#181818;stroke-width:1.0;"/><line style="stroke:#181818;stroke-width:1.0;stroke-dasharray:2.0,2.0;" x1="375.5" x2="717.5" y1="674.0702" y2="674.0702"/><text fill="#000000" font-family="sans-serif" font-size="13" font-weight="bold" lengthAdjust="spacing" textLength="14" x="387.5" y="668.2612">14</text><text fill="#000000" font-family="sans-serif" font-size="13" lengthAdjust="spacing" textLength="25" x="405.5" y="668.2612">true</text><polygon fill="#181818" points="58.5,708.7762,48.5,712.7762,58.5,716.7762,54.5,712.7762" style="stroke:#181818;stroke-width:1.0;"/><line style="stroke:#181818;stroke-width:1.0;stroke-dasharray:2.0,2.0;" x1="52.5" x2="364.5" y1="712.7762" y2="712.7762"/><text fill="#000000" font-family="sans-serif" font-size="13" font-weight="bold" lengthAdjust="spacing" textLength="14" x="64.5" y="706.9672">15</text><text fill="#000000" font-family="sans-serif" font-size="13" lengthAdjust="spacing" textLength="132" x="82.5" y="706.9672">shows requested data</text><polygon fill="#181818" points="348.5,740.4822,358.5,744.4822,348.5,748.4822,352.5,744.4822" style="stroke:#181818;stroke-width:1.0;"/><line style="stroke:#181818;stroke-width:1.0;" x1="47.5" x2="354.5" y1="744.4822" y2="744.4822"/><text fill="#000000" font-family="sans-serif" font-size="13" font-weight="bold" lengthAdjust="spacing" textLength="14" x="54.5" y="738.6732">16</text><text fill="#000000" font-family="sans-serif" font-size="13" lengthAdjust="spacing" textLength="78" x="72.5" y="738.6732">submits data</text><polygon fill="#181818" points="701.5,772.1882,711.5,776.1882,701.5,780.1882,705.5,776.1882" style="stroke:#181818;stroke-width:1.0;"/><line style="stroke:#181818;stroke-width:1.0;" x1="370.5" x2="707.5" y1="776.1882" y2="776.1882"/><text fill="#000000" font-family="sans-serif" font-size="13" font-weight="bold" lengthAdjust="spacing" textLength="14" x="377.5" y="770.3792">17</text><text fill="#000000" font-family="sans-serif" font-size="13" lengthAdjust="spacing" textLength="218" x="395.5" y="770.3792">placeOrder (orderAmount, property)</text><line style="stroke:#181818;stroke-width:1.0;" x1="723.5" x2="770.5" y1="802.8943" y2="802.8943"/><line style="stroke:#181818;stroke-width:1.0;" x1="770.5" x2="770.5" y1="802.8943" y2="815.8943"/><line style="stroke:#181818;stroke-width:1.0;" x1="729.5" x2="770.5" y1="815.8943" y2="815.8943"/><polygon fill="#181818" points="739.5,811.8943,729.5,815.8943,739.5,819.8943,735.5,815.8943" style="stroke:#181818;stroke-width:1.0;"/><text fill="#000000" font-family="sans-serif" font-size="13" font-weight="bold" lengthAdjust="spacing" textLength="14" x="735.5" y="797.0853">18</text><text fill="#000000" font-family="sans-serif" font-size="13" lengthAdjust="spacing" textLength="171" x="753.5" y="797.0853">getClientEmailFromSession()</text><rect fill="none" height="44.0501" style="stroke:#000000;stroke-width:1.5;" width="166" x="635.5" y="828.8943"/><path d="M635.5,828.8943 L699.5,828.8943 L699.5,837.8943 L689.5,847.8943 L635.5,847.8943 L635.5,828.8943 " fill="#EEEEEE" style="stroke:#000000;stroke-width:2.0;"/><text fill="#000000" font-family="sans-serif" font-size="13" font-weight="bold" lengthAdjust="spacing" textLength="19" x="648.5" y="844.7913">ref</text><text fill="#000000" font-family="sans-serif" font-size="12" lengthAdjust="spacing" textLength="89" x="674" y="864.7224">Get Client Email</text><line style="stroke:#181818;stroke-width:1.0;" x1="728.5" x2="770.5" y1="906.6504" y2="906.6504"/><line style="stroke:#181818;stroke-width:1.0;" x1="770.5" x2="770.5" y1="906.6504" y2="919.6504"/><line style="stroke:#181818;stroke-width:1.0;" x1="723.5" x2="770.5" y1="919.6504" y2="919.6504"/><polygon fill="#181818" points="733.5,915.6504,723.5,919.6504,733.5,923.6504,729.5,919.6504" style="stroke:#181818;stroke-width:1.0;"/><text fill="#000000" font-family="sans-serif" font-size="13" font-weight="bold" lengthAdjust="spacing" textLength="14" x="735.5" y="900.8414">19</text><text fill="#000000" font-family="sans-serif" font-size="13" lengthAdjust="spacing" textLength="64" x="753.5" y="900.8414">clientEmail</text><polygon fill="#181818" points="1146,967.3564,1156,971.3564,1146,975.3564,1150,971.3564" style="stroke:#181818;stroke-width:1.0;"/><line style="stroke:#181818;stroke-width:1.0;" x1="723.5" x2="1152" y1="971.3564" y2="971.3564"/><text fill="#000000" font-family="sans-serif" font-size="13" font-weight="bold" lengthAdjust="spacing" textLength="14" x="730.5" y="965.5474">20</text><text fill="#000000" font-family="sans-serif" font-size="13" lengthAdjust="spacing" textLength="288" x="748.5" y="965.5474">placeOrder (property, orderAmount, clientEmail)</text><rect fill="none" height="44.0501" style="stroke:#000000;stroke-width:1.5;" width="132" x="1097" y="979.3564"/><path d="M1097,979.3564 L1161,979.3564 L1161,988.3564 L1151,998.3564 L1097,998.3564 L1097,979.3564 " fill="#EEEEEE" style="stroke:#000000;stroke-width:2.0;"/><text fill="#000000" font-family="sans-serif" font-size="13" font-weight="bold" lengthAdjust="spacing" textLength="19" x="1110" y="995.2534">ref</text><text fill="#000000" font-family="sans-serif" font-size="12" lengthAdjust="spacing" textLength="66" x="1130" y="1015.1845">Place Order</text><polygon fill="#181818" points="734.5,1048.1126,724.5,1052.1126,734.5,1056.1126,730.5,1052.1126" style="stroke:#181818;stroke-width:1.0;"/><line style="stroke:#181818;stroke-width:1.0;stroke-dasharray:2.0,2.0;" x1="728.5" x2="1162" y1="1052.1126" y2="1052.1126"/><text fill="#000000" font-family="sans-serif" font-size="13" font-weight="bold" lengthAdjust="spacing" textLength="14" x="740.5" y="1046.3036">21</text><text fill="#000000" font-family="sans-serif" font-size="13" lengthAdjust="spacing" textLength="33" x="758.5" y="1046.3036">order</text><polygon fill="#181818" points="381.5,1079.8186,371.5,1083.8186,381.5,1087.8186,377.5,1083.8186" style="stroke:#181818;stroke-width:1.0;"/><line style="stroke:#181818;stroke-width:1.0;stroke-dasharray:2.0,2.0;" x1="375.5" x2="717.5" y1="1083.8186" y2="1083.8186"/><text fill="#000000" font-family="sans-serif" font-size="13" font-weight="bold" lengthAdjust="spacing" textLength="14" x="387.5" y="1078.0096">22</text><text fill="#000000" font-family="sans-serif" font-size="13" lengthAdjust="spacing" textLength="33" x="405.5" y="1078.0096">order</text><path d="M10,1098.8186 L73,1098.8186 L73,1108.5246 L63,1118.5246 L10,1118.5246 L10,1098.8186 " fill="#EEEEEE" style="stroke:#000000;stroke-width:1.5;"/><rect fill="none" height="100.0999" style="stroke:#000000;stroke-width:1.5;" width="419.5" x="10" y="1098.8186"/><text fill="#000000" font-family="sans-serif" font-size="13" font-weight="bold" lengthAdjust="spacing" textLength="18" x="25" y="1113.7156">alt</text><text fill="#000000" font-family="sans-serif" font-size="11" font-weight="bold" lengthAdjust="spacing" textLength="139" x="88" y="1112.5775">[orderAmount is "equal"]</text><polygon fill="#181818" points="58.5,1138.2306,48.5,1142.2306,58.5,1146.2306,54.5,1142.2306" style="stroke:#181818;stroke-width:1.0;"/><line style="stroke:#181818;stroke-width:1.0;stroke-dasharray:2.0,2.0;" x1="52.5" x2="359.5" y1="1142.2306" y2="1142.2306"/><text fill="#000000" font-family="sans-serif" font-size="13" font-weight="bold" lengthAdjust="spacing" textLength="14" x="64.5" y="1136.4216">23</text><text fill="#000000" font-family="sans-serif" font-size="13" lengthAdjust="spacing" textLength="271" x="82.5" y="1136.4216">shows message and shows operation success</text><line style="stroke:#000000;stroke-width:1.0;stroke-dasharray:2.0,2.0;" x1="10" x2="429.5" y1="1151.2306" y2="1151.2306"/><text fill="#000000" font-family="sans-serif" font-size="11" font-weight="bold" lengthAdjust="spacing" textLength="139" x="15" y="1162.9895">[orderAmount is "lower"]</text><polygon fill="#181818" points="58.5,1186.9185,48.5,1190.9185,58.5,1194.9185,54.5,1190.9185" style="stroke:#181818;stroke-width:1.0;"/><line style="stroke:#181818;stroke-width:1.0;stroke-dasharray:2.0,2.0;" x1="52.5" x2="359.5" y1="1190.9185" y2="1190.9185"/><text fill="#000000" font-family="sans-serif" font-size="13" font-weight="bold" lengthAdjust="spacing" textLength="14" x="64.5" y="1185.1095">24</text><text fill="#000000" font-family="sans-serif" font-size="13" lengthAdjust="spacing" textLength="148" x="82.5" y="1185.1095">shows operation success</text><!--SRC=[jLRDRjim3BxxAOXSrWxT2_Gm82Yw8K2n14sxKu51aTb4Y2nfajmkG1z-jEpuHxRJUCLqQKEJ7p_-Iculb66MPP1ffVdEwWp1snmJLtynZE_P5jV-814iSi_KLhOLt8wb-bMeBJmpwJ19MEwrohCDsYJvj1CfmhFMVgF_98nxRM5s8mKgFmFceFmt8IGlk31CUPXThoJZkBGfsiT5q7fSZ6hSQEMjbX9jYVTmVnVftgFHJf1ZWIxer8B3MXIn4DkkYMrPN3-f7i3gRlxGjT05bGQNZ9PTIR2BP17FkJ5ISEQ5LcjqZlu4er_prQghoOof59xKc5NFYEVMKgORmqU7jcsnlbsl5yiV4QaxuVpAQeCaH5UL8nOcIL5PyS8y7WkQG7NAt_3bAnKHhibwxy1hC4K1WIa8cGkItF8TSmYcH3xK43LsuGbQXn09joZvvy-4pIsILaUZeLNqHUTJ84VI8mG1RD674hcBovxgEqZ5iVWC-eMY2IemShwZBniXf75G3LLQW0rxAJatf4C21w5IF47wvCSciUGW5OwgTMWA7cNdp1p7JKF8DbVZUUursOdm-WqvATGYrh9DwsWTi1Sc9Dl8kY49EHc0R7kBcjsXf7tf9dPqcut5tpawWaYPPt0HQZtFTAxyvNjSfDO6I558Q9c1S30ZK2PdKAnYgLzfStP9H57uWq5tP89fe3BS074qlLRYE-JxPSDcuNuoATABOuAkO3322JDuxBPerNxSTyT_lCX7XpscqPhRSCqEsRJgUPQVUY6KrIfWpry5j6fETw3RwTVHwfyv1lac4rKFJrdgP6hgUxxJ_5VrI5r-RDsNJ6yp6lLlzFYfxiF_lVwh_0It_te1D3FLX33j1YZEszlRU9hwCzGkn-3SNBNfdCZYMOrT9pJM7ijjU1MMsjFJUc9KzI3Yb3djpcWVRxHGJFgHzNtEs6RKp_HsftTMMacAceN78aqbv_IvjGheyTxpDNG_3Flg8m_kc6Xbj0ClNuv_0G00]--></g></svg>