<?xml version="1.0" encoding="us-ascii" standalone="no"?><svg xmlns="http://www.w3.org/2000/svg" xmlns:xlink="http://www.w3.org/1999/xlink" contentStyleType="text/css" height="1080px" preserveAspectRatio="none" style="width:1010px;height:1080px;background:#FFFFFF;" version="1.1" viewBox="0 0 1010 1080" width="1010px" zoomAndPan="magnify"><defs/><g><!--class PlaceOrderUI--><g id="elem_PlaceOrderUI"><rect codeLine="11" fill="#F1F1F1" height="48" id="PlaceOrderUI" rx="2.5" ry="2.5" style="stroke:#181818;stroke-width:0.5;" width="122" x="412.5" y="7"/><ellipse cx="427.5" cy="23" fill="#ADD1B2" rx="11" ry="11" style="stroke:#181818;stroke-width:1.0;"/><path d="M426.9688,29.6719 Q425.2188,29.6719 424.0781,28.9375 Q422.9531,28.1875 422.3906,26.8438 Q421.8438,25.4844 421.8438,23.6875 Q421.8438,21.6563 422.5,20.2031 Q423.1563,18.75 424.4375,17.9688 Q425.7188,17.1875 427.5938,17.1875 Q428.4844,17.1875 429.1563,17.375 Q429.8281,17.5469 430.5156,17.8906 L429.7031,19.9063 Q429.0781,19.5938 428.5313,19.4688 Q428,19.3438 427.5156,19.3438 Q426.3438,19.3438 425.6406,19.875 Q424.9375,20.4063 424.6406,21.3594 Q424.3438,22.3125 424.3438,23.5781 Q424.3438,25.5938 425.0625,26.5625 Q425.7813,27.5156 427.375,27.5156 Q427.9688,27.5156 428.5938,27.3594 Q429.2188,27.2031 430.0469,26.8281 L430.0469,29.0469 Q429.3125,29.3594 428.5156,29.5156 Q427.7344,29.6719 426.9688,29.6719 Z " fill="#000000"/><text fill="#000000" font-family="sans-serif" font-size="14" lengthAdjust="spacing" textLength="90" x="441.5" y="28.432">PlaceOrderUI</text><line style="stroke:#181818;stroke-width:0.5;" x1="413.5" x2="533.5" y1="39" y2="39"/><line style="stroke:#181818;stroke-width:0.5;" x1="413.5" x2="533.5" y1="47" y2="47"/></g><!--class ListPropertiesUI--><g id="elem_ListPropertiesUI"><rect codeLine="13" fill="#F1F1F1" height="48" id="ListPropertiesUI" rx="2.5" ry="2.5" style="stroke:#181818;stroke-width:0.5;" width="139" x="7" y="424.5"/><ellipse cx="22" cy="440.5" fill="#ADD1B2" rx="11" ry="11" style="stroke:#181818;stroke-width:1.0;"/><path d="M21.4688,447.1719 Q19.7188,447.1719 18.5781,446.4375 Q17.4531,445.6875 16.8906,444.3438 Q16.3438,442.9844 16.3438,441.1875 Q16.3438,439.1563 17,437.7031 Q17.6563,436.25 18.9375,435.4688 Q20.2188,434.6875 22.0938,434.6875 Q22.9844,434.6875 23.6563,434.875 Q24.3281,435.0469 25.0156,435.3906 L24.2031,437.4063 Q23.5781,437.0938 23.0313,436.9688 Q22.5,436.8438 22.0156,436.8438 Q20.8438,436.8438 20.1406,437.375 Q19.4375,437.9063 19.1406,438.8594 Q18.8438,439.8125 18.8438,441.0781 Q18.8438,443.0938 19.5625,444.0625 Q20.2813,445.0156 21.875,445.0156 Q22.4688,445.0156 23.0938,444.8594 Q23.7188,444.7031 24.5469,444.3281 L24.5469,446.5469 Q23.8125,446.8594 23.0156,447.0156 Q22.2344,447.1719 21.4688,447.1719 Z " fill="#000000"/><text fill="#000000" font-family="sans-serif" font-size="14" lengthAdjust="spacing" textLength="107" x="36" y="445.932">ListPropertiesUI</text><line style="stroke:#181818;stroke-width:0.5;" x1="8" x2="145" y1="456.5" y2="456.5"/><line style="stroke:#181818;stroke-width:0.5;" x1="8" x2="145" y1="464.5" y2="464.5"/></g><!--class PlaceOrderController--><g id="elem_PlaceOrderController"><rect codeLine="15" fill="#F1F1F1" height="200.5433" id="PlaceOrderController" rx="2.5" ry="2.5" style="stroke:#181818;stroke-width:0.5;" width="462" x="242.5" y="116"/><ellipse cx="398.25" cy="132" fill="#ADD1B2" rx="11" ry="11" style="stroke:#181818;stroke-width:1.0;"/><path d="M397.7188,138.6719 Q395.9688,138.6719 394.8281,137.9375 Q393.7031,137.1875 393.1406,135.8438 Q392.5938,134.4844 392.5938,132.6875 Q392.5938,130.6563 393.25,129.2031 Q393.9063,127.75 395.1875,126.9688 Q396.4688,126.1875 398.3438,126.1875 Q399.2344,126.1875 399.9063,126.375 Q400.5781,126.5469 401.2656,126.8906 L400.4531,128.9063 Q399.8281,128.5938 399.2813,128.4688 Q398.75,128.3438 398.2656,128.3438 Q397.0938,128.3438 396.3906,128.875 Q395.6875,129.4063 395.3906,130.3594 Q395.0938,131.3125 395.0938,132.5781 Q395.0938,134.5938 395.8125,135.5625 Q396.5313,136.5156 398.125,136.5156 Q398.7188,136.5156 399.3438,136.3594 Q399.9688,136.2031 400.7969,135.8281 L400.7969,138.0469 Q400.0625,138.3594 399.2656,138.5156 Q398.4844,138.6719 397.7188,138.6719 Z " fill="#000000"/><text fill="#000000" font-family="sans-serif" font-size="14" lengthAdjust="spacing" textLength="142" x="418.75" y="137.432">PlaceOrderController</text><line style="stroke:#181818;stroke-width:0.5;" x1="243.5" x2="703.5" y1="148" y2="148"/><line style="stroke:#181818;stroke-width:0.5;" x1="243.5" x2="703.5" y1="156" y2="156"/><text fill="#000000" font-family="sans-serif" font-size="14" lengthAdjust="spacing" textLength="450" x="248.5" y="174.9659">+PlaceOrderController(ordersRepository, authenticationRepository)</text><text fill="#000000" font-family="sans-serif" font-size="14" lengthAdjust="spacing" textLength="133" x="248.5" y="194.0339">+displayProperties()</text><text fill="#000000" font-family="sans-serif" font-size="14" lengthAdjust="spacing" textLength="348" x="248.5" y="213.1018">+checkOrderAmountIsValid(property, orderAmount)</text><text fill="#000000" font-family="sans-serif" font-size="14" lengthAdjust="spacing" textLength="248" x="248.5" y="232.1697">+placeOrder(property, orderAmount)</text><text fill="#000000" font-family="sans-serif" font-size="14" lengthAdjust="spacing" textLength="85" x="248.5" y="251.2376">+getOrders()</text><text fill="#000000" font-family="sans-serif" font-size="14" lengthAdjust="spacing" textLength="146" x="248.5" y="270.3055">-getOrderRepository()</text><text fill="#000000" font-family="sans-serif" font-size="14" lengthAdjust="spacing" textLength="205" x="248.5" y="289.3734">-getAuthenticationRepository()</text><text fill="#000000" font-family="sans-serif" font-size="14" lengthAdjust="spacing" textLength="196" x="248.5" y="308.4414">-getClientEmailFromSession()</text></g><!--class ApplicationSession--><g id="elem_ApplicationSession"><rect codeLine="26" fill="#F1F1F1" height="86.1358" id="ApplicationSession" rx="2.5" ry="2.5" style="stroke:#181818;stroke-width:0.5;" width="159" x="181" y="405.5"/><ellipse cx="196" cy="421.5" fill="#ADD1B2" rx="11" ry="11" style="stroke:#181818;stroke-width:1.0;"/><path d="M195.4688,428.1719 Q193.7188,428.1719 192.5781,427.4375 Q191.4531,426.6875 190.8906,425.3438 Q190.3438,423.9844 190.3438,422.1875 Q190.3438,420.1563 191,418.7031 Q191.6563,417.25 192.9375,416.4688 Q194.2188,415.6875 196.0938,415.6875 Q196.9844,415.6875 197.6563,415.875 Q198.3281,416.0469 199.0156,416.3906 L198.2031,418.4063 Q197.5781,418.0938 197.0313,417.9688 Q196.5,417.8438 196.0156,417.8438 Q194.8438,417.8438 194.1406,418.375 Q193.4375,418.9063 193.1406,419.8594 Q192.8438,420.8125 192.8438,422.0781 Q192.8438,424.0938 193.5625,425.0625 Q194.2813,426.0156 195.875,426.0156 Q196.4688,426.0156 197.0938,425.8594 Q197.7188,425.7031 198.5469,425.3281 L198.5469,427.5469 Q197.8125,427.8594 197.0156,428.0156 Q196.2344,428.1719 195.4688,428.1719 Z " fill="#000000"/><text fill="#000000" font-family="sans-serif" font-size="14" lengthAdjust="spacing" textLength="127" x="210" y="426.932">ApplicationSession</text><line style="stroke:#181818;stroke-width:0.5;" x1="182" x2="339" y1="437.5" y2="437.5"/><line style="stroke:#181818;stroke-width:0.5;" x1="182" x2="339" y1="445.5" y2="445.5"/><text fill="#000000" font-family="sans-serif" font-size="14" lengthAdjust="spacing" textLength="136" x="187" y="464.4659">+static getInstance()</text><text fill="#000000" font-family="sans-serif" font-size="14" lengthAdjust="spacing" textLength="141" x="187" y="483.5339">+getCurrentSession()</text></g><!--class UserSession--><g id="elem_UserSession"><rect codeLine="31" fill="#F1F1F1" height="67.0679" id="UserSession" rx="2.5" ry="2.5" style="stroke:#181818;stroke-width:0.5;" width="118" x="257.5" y="627.5"/><ellipse cx="274.3" cy="643.5" fill="#ADD1B2" rx="11" ry="11" style="stroke:#181818;stroke-width:1.0;"/><path d="M273.7688,650.1719 Q272.0188,650.1719 270.8781,649.4375 Q269.7531,648.6875 269.1906,647.3438 Q268.6438,645.9844 268.6438,644.1875 Q268.6438,642.1563 269.3,640.7031 Q269.9563,639.25 271.2375,638.4688 Q272.5188,637.6875 274.3938,637.6875 Q275.2844,637.6875 275.9563,637.875 Q276.6281,638.0469 277.3156,638.3906 L276.5031,640.4063 Q275.8781,640.0938 275.3313,639.9688 Q274.8,639.8438 274.3156,639.8438 Q273.1438,639.8438 272.4406,640.375 Q271.7375,640.9063 271.4406,641.8594 Q271.1438,642.8125 271.1438,644.0781 Q271.1438,646.0938 271.8625,647.0625 Q272.5813,648.0156 274.175,648.0156 Q274.7688,648.0156 275.3938,647.8594 Q276.0188,647.7031 276.8469,647.3281 L276.8469,649.5469 Q276.1125,649.8594 275.3156,650.0156 Q274.5344,650.1719 273.7688,650.1719 Z " fill="#000000"/><text fill="#000000" font-family="sans-serif" font-size="14" lengthAdjust="spacing" textLength="82" x="288.7" y="648.932">UserSession</text><line style="stroke:#181818;stroke-width:0.5;" x1="258.5" x2="374.5" y1="659.5" y2="659.5"/><line style="stroke:#181818;stroke-width:0.5;" x1="258.5" x2="374.5" y1="667.5" y2="667.5"/><text fill="#000000" font-family="sans-serif" font-size="14" lengthAdjust="spacing" textLength="106" x="263.5" y="686.4659">+getUserEmail()</text></g><!--class Order--><g id="elem_Order"><rect codeLine="35" fill="#F1F1F1" height="86.1358" id="Order" rx="2.5" ry="2.5" style="stroke:#181818;stroke-width:0.5;" width="161" x="590" y="803"/><ellipse cx="646.25" cy="819" fill="#ADD1B2" rx="11" ry="11" style="stroke:#181818;stroke-width:1.0;"/><path d="M645.7188,825.6719 Q643.9688,825.6719 642.8281,824.9375 Q641.7031,824.1875 641.1406,822.8438 Q640.5938,821.4844 640.5938,819.6875 Q640.5938,817.6563 641.25,816.2031 Q641.9063,814.75 643.1875,813.9688 Q644.4688,813.1875 646.3438,813.1875 Q647.2344,813.1875 647.9063,813.375 Q648.5781,813.5469 649.2656,813.8906 L648.4531,815.9063 Q647.8281,815.5938 647.2813,815.4688 Q646.75,815.3438 646.2656,815.3438 Q645.0938,815.3438 644.3906,815.875 Q643.6875,816.4063 643.3906,817.3594 Q643.0938,818.3125 643.0938,819.5781 Q643.0938,821.5938 643.8125,822.5625 Q644.5313,823.5156 646.125,823.5156 Q646.7188,823.5156 647.3438,823.3594 Q647.9688,823.2031 648.7969,822.8281 L648.7969,825.0469 Q648.0625,825.3594 647.2656,825.5156 Q646.4844,825.6719 645.7188,825.6719 Z " fill="#000000"/><text fill="#000000" font-family="sans-serif" font-size="14" lengthAdjust="spacing" textLength="40" x="666.75" y="824.432">Order</text><line style="stroke:#181818;stroke-width:0.5;" x1="591" x2="750" y1="835" y2="835"/><text fill="#000000" font-family="sans-serif" font-size="14" lengthAdjust="spacing" textLength="149" x="596" y="853.9659">-Integer orderAmount</text><text fill="#000000" font-family="sans-serif" font-size="14" lengthAdjust="spacing" textLength="124" x="596" y="873.0339">-String clientEmail</text><line style="stroke:#181818;stroke-width:0.5;" x1="591" x2="750" y1="881.1358" y2="881.1358"/></g><!--class OrderRepository--><g id="elem_OrderRepository"><rect codeLine="40" fill="#F1F1F1" height="162.4075" id="OrderRepository" rx="2.5" ry="2.5" style="stroke:#181818;stroke-width:0.5;" width="414" x="463.5" y="580"/><ellipse cx="610.75" cy="596" fill="#ADD1B2" rx="11" ry="11" style="stroke:#181818;stroke-width:1.0;"/><path d="M610.2188,602.6719 Q608.4688,602.6719 607.3281,601.9375 Q606.2031,601.1875 605.6406,599.8438 Q605.0938,598.4844 605.0938,596.6875 Q605.0938,594.6563 605.75,593.2031 Q606.4063,591.75 607.6875,590.9688 Q608.9688,590.1875 610.8438,590.1875 Q611.7344,590.1875 612.4063,590.375 Q613.0781,590.5469 613.7656,590.8906 L612.9531,592.9063 Q612.3281,592.5938 611.7813,592.4688 Q611.25,592.3438 610.7656,592.3438 Q609.5938,592.3438 608.8906,592.875 Q608.1875,593.4063 607.8906,594.3594 Q607.5938,595.3125 607.5938,596.5781 Q607.5938,598.5938 608.3125,599.5625 Q609.0313,600.5156 610.625,600.5156 Q611.2188,600.5156 611.8438,600.3594 Q612.4688,600.2031 613.2969,599.8281 L613.2969,602.0469 Q612.5625,602.3594 611.7656,602.5156 Q610.9844,602.6719 610.2188,602.6719 Z " fill="#000000"/><text fill="#000000" font-family="sans-serif" font-size="14" lengthAdjust="spacing" textLength="111" x="631.25" y="601.432">OrderRepository</text><line style="stroke:#181818;stroke-width:0.5;" x1="464.5" x2="876.5" y1="612" y2="612"/><line style="stroke:#181818;stroke-width:0.5;" x1="464.5" x2="876.5" y1="620" y2="620"/><text fill="#000000" font-family="sans-serif" font-size="14" lengthAdjust="spacing" textLength="330" x="469.5" y="638.9659">+placeOrder(property, orderAmount, clientEmail)</text><text fill="#000000" font-family="sans-serif" font-size="14" lengthAdjust="spacing" textLength="85" x="469.5" y="658.0339">+getOrders()</text><text fill="#000000" font-family="sans-serif" font-size="14" lengthAdjust="spacing" textLength="348" x="469.5" y="677.1018">+checkOrderAmountIsValid(property, orderAmount)</text><text fill="#000000" font-family="sans-serif" font-size="14" lengthAdjust="spacing" textLength="116" x="469.5" y="696.1697">-addOrder(order)</text><text fill="#000000" font-family="sans-serif" font-size="14" lengthAdjust="spacing" textLength="143" x="469.5" y="715.2376">-validateOrder(order)</text><text fill="#000000" font-family="sans-serif" font-size="14" lengthAdjust="spacing" textLength="402" x="469.5" y="734.3055">-checkClientMadeOrderSameProperty(clientEmail, property)</text></g><!--class Repositories--><g id="elem_Repositories"><rect codeLine="49" fill="#F1F1F1" height="105.2038" id="Repositories" rx="2.5" ry="2.5" style="stroke:#181818;stroke-width:0.5;" width="203" x="703" y="396"/><ellipse cx="758.75" cy="412" fill="#ADD1B2" rx="11" ry="11" style="stroke:#181818;stroke-width:1.0;"/><path d="M758.2188,418.6719 Q756.4688,418.6719 755.3281,417.9375 Q754.2031,417.1875 753.6406,415.8438 Q753.0938,414.4844 753.0938,412.6875 Q753.0938,410.6563 753.75,409.2031 Q754.4063,407.75 755.6875,406.9688 Q756.9688,406.1875 758.8438,406.1875 Q759.7344,406.1875 760.4063,406.375 Q761.0781,406.5469 761.7656,406.8906 L760.9531,408.9063 Q760.3281,408.5938 759.7813,408.4688 Q759.25,408.3438 758.7656,408.3438 Q757.5938,408.3438 756.8906,408.875 Q756.1875,409.4063 755.8906,410.3594 Q755.5938,411.3125 755.5938,412.5781 Q755.5938,414.5938 756.3125,415.5625 Q757.0313,416.5156 758.625,416.5156 Q759.2188,416.5156 759.8438,416.3594 Q760.4688,416.2031 761.2969,415.8281 L761.2969,418.0469 Q760.5625,418.3594 759.7656,418.5156 Q758.9844,418.6719 758.2188,418.6719 Z " fill="#000000"/><text fill="#000000" font-family="sans-serif" font-size="14" lengthAdjust="spacing" textLength="83" x="779.25" y="417.432">Repositories</text><line style="stroke:#181818;stroke-width:0.5;" x1="704" x2="905" y1="428" y2="428"/><line style="stroke:#181818;stroke-width:0.5;" x1="704" x2="905" y1="436" y2="436"/><text fill="#000000" font-family="sans-serif" font-size="14" lengthAdjust="spacing" textLength="96" x="709" y="454.9659">-Repositories()</text><text fill="#000000" font-family="sans-serif" font-size="14" lengthAdjust="spacing" textLength="191" x="709" y="474.0339">+getInstance() : Repositories</text><text fill="#000000" font-family="sans-serif" font-size="14" lengthAdjust="spacing" textLength="149" x="709" y="493.1018">+getOrderRepository()</text></g><!--class Property--><g id="elem_Property"><rect codeLine="55" fill="#F1F1F1" height="105.2038" id="Property" rx="2.5" ry="2.5" style="stroke:#181818;stroke-width:0.5;" width="107" x="617" y="968"/><ellipse cx="640.1" cy="984" fill="#ADD1B2" rx="11" ry="11" style="stroke:#181818;stroke-width:1.0;"/><path d="M639.5688,990.6719 Q637.8188,990.6719 636.6781,989.9375 Q635.5531,989.1875 634.9906,987.8438 Q634.4438,986.4844 634.4438,984.6875 Q634.4438,982.6563 635.1,981.2031 Q635.7563,979.75 637.0375,978.9688 Q638.3188,978.1875 640.1938,978.1875 Q641.0844,978.1875 641.7563,978.375 Q642.4281,978.5469 643.1156,978.8906 L642.3031,980.9063 Q641.6781,980.5938 641.1313,980.4688 Q640.6,980.3438 640.1156,980.3438 Q638.9438,980.3438 638.2406,980.875 Q637.5375,981.4063 637.2406,982.3594 Q636.9438,983.3125 636.9438,984.5781 Q636.9438,986.5938 637.6625,987.5625 Q638.3813,988.5156 639.975,988.5156 Q640.5688,988.5156 641.1938,988.3594 Q641.8188,988.2031 642.6469,987.8281 L642.6469,990.0469 Q641.9125,990.3594 641.1156,990.5156 Q640.3344,990.6719 639.5688,990.6719 Z " fill="#000000"/><text fill="#000000" font-family="sans-serif" font-size="14" lengthAdjust="spacing" textLength="57" x="655.9" y="989.432">Property</text><line style="stroke:#181818;stroke-width:0.5;" x1="618" x2="723" y1="1000" y2="1000"/><text fill="#000000" font-family="sans-serif" font-size="14" lengthAdjust="spacing" textLength="57" x="623" y="1018.9659">-int area</text><text fill="#000000" font-family="sans-serif" font-size="14" lengthAdjust="spacing" textLength="95" x="623" y="1038.0339">-int cityCenter</text><text fill="#000000" font-family="sans-serif" font-size="14" lengthAdjust="spacing" textLength="61" x="623" y="1057.1018">-int price</text><line style="stroke:#181818;stroke-width:0.5;" x1="618" x2="723" y1="1065.2038" y2="1065.2038"/></g><!--link PlaceOrderUI to PlaceOrderController--><g id="link_PlaceOrderUI_PlaceOrderController"><path codeLine="61" d="M473.5,55.24 C473.5,69.49 473.5,88.85 473.5,109.2 " fill="none" id="PlaceOrderUI-to-PlaceOrderController" style="stroke:#181818;stroke-width:1.0;stroke-dasharray:7.0,7.0;"/><polygon fill="#181818" points="473.5,114.02,477.5,105.02,473.5,109.02,469.5,105.02,473.5,114.02" style="stroke:#181818;stroke-width:1.0;"/></g><!--link PlaceOrderController to ListPropertiesUI--><g id="link_PlaceOrderController_ListPropertiesUI"><path codeLine="63" d="M299.92,317.45 C229.08,358.24 163.5,396 163.5,396 C163.5,396 142.79,408.26 121.57,420.82 " fill="none" id="PlaceOrderController-to-ListPropertiesUI" style="stroke:#181818;stroke-width:1.0;stroke-dasharray:7.0,7.0;"/><polygon fill="#181818" points="117.48,423.24,127.26,422.0778,121.7775,420.6843,123.171,415.2018,117.48,423.24" style="stroke:#181818;stroke-width:1.0;"/></g><!--link PlaceOrderController to ApplicationSession--><g id="link_PlaceOrderController_ApplicationSession"><path codeLine="64" d="M381,317.38 C354.27,346.25 326.34,376.41 304.1,400.42 " fill="none" id="PlaceOrderController-to-ApplicationSession" style="stroke:#181818;stroke-width:1.0;stroke-dasharray:7.0,7.0;"/><polygon fill="#181818" points="300.76,404.02,309.8094,400.1331,304.1568,400.3509,303.9389,394.6983,300.76,404.02" style="stroke:#181818;stroke-width:1.0;"/></g><!--link PlaceOrderController to UserSession--><g id="link_PlaceOrderController_UserSession"><path codeLine="65" d="M460.81,317.45 C450.44,399.07 437.5,501 437.5,501 C437.5,501 381.19,574.99 345.4,622.03 " fill="none" id="PlaceOrderController-to-UserSession" style="stroke:#181818;stroke-width:1.0;stroke-dasharray:7.0,7.0;"/><polygon fill="#181818" points="342.49,625.85,351.12,621.1041,345.5151,621.8689,344.7502,616.264,342.49,625.85" style="stroke:#181818;stroke-width:1.0;"/></g><!--link PlaceOrderController to Repositories--><g id="link_PlaceOrderController_Repositories"><path codeLine="66" d="M617.24,317.38 C654.17,343.04 692.57,369.72 724.91,392.2 " fill="none" id="PlaceOrderController-to-Repositories" style="stroke:#181818;stroke-width:1.0;stroke-dasharray:7.0,7.0;"/><polygon fill="#181818" points="728.81,394.91,723.6993,386.491,724.7032,392.058,719.1361,393.0619,728.81,394.91" style="stroke:#181818;stroke-width:1.0;"/><text fill="#000000" font-family="sans-serif" font-size="13" lengthAdjust="spacing" textLength="71" x="679.5" y="361.897">repositories</text></g><!--link PlaceOrderController to OrderRepository--><g id="link_PlaceOrderController_OrderRepository"><path codeLine="67" d="M510.87,317.45 C541.39,399.07 579.5,501 579.5,501 C579.5,501 599.85,536.55 621.3,574.03 " fill="none" id="PlaceOrderController-to-OrderRepository" style="stroke:#181818;stroke-width:1.0;stroke-dasharray:7.0,7.0;"/><polygon fill="#181818" points="623.71,578.25,622.7351,568.4495,621.237,573.9044,615.7821,572.4063,623.71,578.25" style="stroke:#181818;stroke-width:1.0;"/><text fill="#000000" font-family="sans-serif" font-size="13" lengthAdjust="spacing" textLength="104" x="580.5" y="453.897">ordersRepository</text></g><!--link ApplicationSession to ApplicationSession--><g id="link_ApplicationSession_ApplicationSession"><path codeLine="69" d="M340.49,431.5 C360.26,432.73 375,438.39 375,448.5 C375,457.5 363.31,462.98 346.79,464.94 " fill="none" id="ApplicationSession-to-ApplicationSession" style="stroke:#181818;stroke-width:1.0;"/><polygon fill="#181818" points="342,465.36,351.3194,468.5457,346.9803,464.9164,350.6096,460.5772,342,465.36" style="stroke:#181818;stroke-width:1.0;"/><text fill="#000000" font-family="sans-serif" font-size="13" lengthAdjust="spacing" textLength="50" x="381" y="453.897">instance</text></g><!--link ApplicationSession to UserSession--><g id="link_ApplicationSession_UserSession"><path codeLine="70" d="M271.77,491.84 C281.79,529.52 296.33,584.19 306.09,620.87 " fill="none" id="ApplicationSession-to-UserSession" style="stroke:#181818;stroke-width:1.0;"/><polygon fill="#181818" points="307.34,625.58,308.8896,615.8538,306.0535,620.7484,301.1589,617.9123,307.34,625.58" style="stroke:#181818;stroke-width:1.0;"/><text fill="#000000" font-family="sans-serif" font-size="13" lengthAdjust="spacing" textLength="71" x="288.5" y="545.897">userSession</text><text fill="#000000" font-family="sans-serif" font-size="13" lengthAdjust="spacing" textLength="7" x="298.3143" y="615.6405">1</text></g><!--link Repositories to Repositories--><g id="link_Repositories_Repositories"><path codeLine="72" d="M906.29,431.96 C926.55,433.82 941,439.34 941,448.5 C941,456.66 929.54,461.93 912.72,464.3 " fill="none" id="Repositories-to-Repositories" style="stroke:#181818;stroke-width:1.0;"/><polygon fill="#181818" points="907.8,464.86,917.2062,467.7795,912.7657,464.275,916.2702,459.8344,907.8,464.86" style="stroke:#181818;stroke-width:1.0;"/><text fill="#000000" font-family="sans-serif" font-size="13" lengthAdjust="spacing" textLength="50" x="947" y="453.897">instance</text></g><!--link Repositories to OrderRepository--><g id="link_Repositories_OrderRepository"><path codeLine="73" d="M771.55,501.26 C757.51,523.31 740.76,549.62 724.97,574.43 " fill="none" id="Repositories-to-OrderRepository" style="stroke:#181818;stroke-width:1.0;"/><polygon fill="#181818" points="722.43,578.42,730.6318,572.9674,725.1107,574.1993,723.8787,568.6783,722.43,578.42" style="stroke:#181818;stroke-width:1.0;"/><text fill="#000000" font-family="sans-serif" font-size="13" lengthAdjust="spacing" textLength="104" x="751.5" y="545.897">ordersRepository</text><text fill="#000000" font-family="sans-serif" font-size="13" lengthAdjust="spacing" textLength="7" x="719.01" y="568.3214">1</text></g><!--link OrderRepository to Order--><g id="link_OrderRepository_Order"><path codeLine="75" d="M670.5,742.27 C670.5,760.75 670.5,779.85 670.5,796.5 " fill="none" id="OrderRepository-to-Order" style="stroke:#181818;stroke-width:1.0;"/><polygon fill="#181818" points="670.5,801.48,674.5,792.48,670.5,796.48,666.5,792.48,670.5,801.48" style="stroke:#181818;stroke-width:1.0;"/><text fill="#000000" font-family="sans-serif" font-size="13" lengthAdjust="spacing" textLength="7" x="662.8984" y="791.0827">*</text></g><!--link Order to Property--><g id="link_Order_Property"><path codeLine="77" d="M670.5,889.2 C670.5,910.9 670.5,937.68 670.5,961.31 " fill="none" id="Order-to-Property" style="stroke:#181818;stroke-width:1.0;"/><polygon fill="#181818" points="670.5,966.05,674.5,957.05,670.5,961.05,666.5,957.05,670.5,966.05" style="stroke:#181818;stroke-width:1.0;"/><text fill="#000000" font-family="sans-serif" font-size="13" lengthAdjust="spacing" textLength="53" x="671.5" y="933.897">property</text><text fill="#000000" font-family="sans-serif" font-size="13" lengthAdjust="spacing" textLength="7" x="663.0297" y="956.2461">1</text></g><!--SRC=[dLHBZzCm4BxxLrXxQO5s1TSz85KLI9L0hAYMkt5c4wkEROqde53ntt7IE7RJPBMYftg-npmyySgVb742HSrhQwoiqDR02HjW2N52daG9HserS0H9mfGw9_XA5FQtCYL_5jhdY5O6g7N0dTLjTs2h6T0YMPQff1RUxuXG_Mm83jAQe_e3_3rZAmtFnCboL6L5l51TESeQndeDVzH2mZSi09yECVP5UNf4wm19WK_nnDrRGsYr1Zmp7dxlPh6rxSx-EpZh5LbiDrmqL84X9KLNH4BU33Q5yawBDcLVHqHM84zzWbrj6qC7_qDeLQpTXHgyRGAZo8rLlSmhWNfMJBST8wd47Dejj95pzbe5ogTQAFqvBCaHl0_SmFWRvxbpJWyM0ngdwIb4PUToCE6_aR3EIjqtYC5wnl790qwi0h-BzdNarBwxyr3kmH2KWFbe1kGOTYgigKpDJ2nIy-TN3dsJkotTm7zT-9QBehXaxh4O_TK91S4Cr6UvNDLNKLmOHr73i87jEgjrmsFkR8vZ_s5PUPnd7inlBjqcVxWYJQPmjL5ZgbXJpA8CSO4WigDKrEv3lO1PqA6IqDda7pk_l_yu-zNcj1JjwJSFmoBpThMNkTdIBfEknlmG7jLiTekYoIo3RleYCNPRATzkvne8QZLStvBexiDTtarGD5blxAg7ZZzfQhI_8NR6hsbcokcrRmVj08-6SPs2Kznhnlu1]--></g></svg>