<?xml version="1.0" encoding="us-ascii" standalone="no"?><svg xmlns="http://www.w3.org/2000/svg" xmlns:xlink="http://www.w3.org/1999/xlink" contentStyleType="text/css" height="422px" preserveAspectRatio="none" style="width:555px;height:422px;background:#FFFFFF;" version="1.1" viewBox="0 0 555 422" width="555px" zoomAndPan="magnify"><defs/><g><rect fill="#FFFFFF" height="255.6481" style="stroke:#181818;stroke-width:1.0;" width="10" x="99" y="91.8419"/><rect fill="#FFFFFF" height="31.706" style="stroke:#181818;stroke-width:1.0;" width="10" x="239.5" y="150.2539"/><rect fill="#FFFFFF" height="31.706" style="stroke:#181818;stroke-width:1.0;" width="10" x="349" y="213.6659"/><rect fill="#FFFFFF" height="31.706" style="stroke:#181818;stroke-width:1.0;" width="10" x="471" y="277.0779"/><rect fill="none" height="209.9421" style="stroke:#000000;stroke-width:1.5;" width="535" x="14" y="106.8419"/><line style="stroke:#181818;stroke-width:0.5;stroke-dasharray:5.0,5.0;" x1="104" x2="104" y1="58.1358" y2="365.49"/><line style="stroke:#181818;stroke-width:0.5;stroke-dasharray:5.0,5.0;" x1="244" x2="244" y1="58.1358" y2="365.49"/><line style="stroke:#181818;stroke-width:0.5;stroke-dasharray:5.0,5.0;" x1="354" x2="354" y1="58.1358" y2="365.49"/><line style="stroke:#181818;stroke-width:0.5;stroke-dasharray:5.0,5.0;" x1="476" x2="476" y1="58.1358" y2="365.49"/><rect fill="#E3E3E3" height="33.0679" rx="2.5" ry="2.5" style="stroke:#181818;stroke-width:0.5;" width="160" x="24" y="24.0679"/><text fill="#000000" font-family="sans-serif" font-size="14" lengthAdjust="spacing" textLength="146" x="31" y="46.0339">:PlaceOrderController</text><rect fill="#E3E3E3" height="33.0679" rx="2.5" ry="2.5" style="stroke:#181818;stroke-width:0.5;" width="160" x="24" y="364.49"/><text fill="#000000" font-family="sans-serif" font-size="14" lengthAdjust="spacing" textLength="146" x="31" y="386.4559">:PlaceOrderController</text><rect fill="#E3E3E3" height="33.0679" rx="2.5" ry="2.5" style="stroke:#181818;stroke-width:0.5;" width="101" x="194" y="24.0679"/><text fill="#000000" font-family="sans-serif" font-size="14" lengthAdjust="spacing" textLength="87" x="201" y="46.0339">:Repositories</text><rect fill="#E3E3E3" height="33.0679" rx="2.5" ry="2.5" style="stroke:#181818;stroke-width:0.5;" width="101" x="194" y="364.49"/><text fill="#000000" font-family="sans-serif" font-size="14" lengthAdjust="spacing" textLength="87" x="201" y="386.4559">:Repositories</text><rect fill="#E3E3E3" height="52.1358" rx="2.5" ry="2.5" style="stroke:#181818;stroke-width:0.5;" width="98" x="305" y="5"/><text fill="#000000" font-family="sans-serif" font-size="14" lengthAdjust="spacing" textLength="84" x="312" y="26.9659">repositories:</text><text fill="#000000" font-family="sans-serif" font-size="14" lengthAdjust="spacing" textLength="83" x="312.5" y="46.0339">Repositories</text><rect fill="#E3E3E3" height="52.1358" rx="2.5" ry="2.5" style="stroke:#181818;stroke-width:0.5;" width="98" x="305" y="364.49"/><text fill="#000000" font-family="sans-serif" font-size="14" lengthAdjust="spacing" textLength="84" x="312" y="386.4559">repositories:</text><text fill="#000000" font-family="sans-serif" font-size="14" lengthAdjust="spacing" textLength="83" x="312.5" y="405.5238">Repositories</text><rect fill="#E3E3E3" height="52.1358" rx="2.5" ry="2.5" style="stroke:#181818;stroke-width:0.5;" width="126" x="413" y="5"/><text fill="#000000" font-family="sans-serif" font-size="14" lengthAdjust="spacing" textLength="112" x="420" y="26.9659">orderRepository:</text><text fill="#000000" font-family="sans-serif" font-size="14" lengthAdjust="spacing" textLength="111" x="420.5" y="46.0339">OrderRepository</text><rect fill="#E3E3E3" height="52.1358" rx="2.5" ry="2.5" style="stroke:#181818;stroke-width:0.5;" width="126" x="413" y="364.49"/><text fill="#000000" font-family="sans-serif" font-size="14" lengthAdjust="spacing" textLength="112" x="420" y="386.4559">orderRepository:</text><text fill="#000000" font-family="sans-serif" font-size="14" lengthAdjust="spacing" textLength="111" x="420.5" y="405.5238">OrderRepository</text><rect fill="#FFFFFF" height="255.6481" style="stroke:#181818;stroke-width:1.0;" width="10" x="99" y="91.8419"/><rect fill="#FFFFFF" height="31.706" style="stroke:#181818;stroke-width:1.0;" width="10" x="239.5" y="150.2539"/><rect fill="#FFFFFF" height="31.706" style="stroke:#181818;stroke-width:1.0;" width="10" x="349" y="213.6659"/><rect fill="#FFFFFF" height="31.706" style="stroke:#181818;stroke-width:1.0;" width="10" x="471" y="277.0779"/><polygon fill="#181818" points="87,87.8419,97,91.8419,87,95.8419,91,91.8419" style="stroke:#181818;stroke-width:1.0;"/><line style="stroke:#181818;stroke-width:1.0;" x1="0" x2="93" y1="91.8419" y2="91.8419"/><text fill="#000000" font-family="sans-serif" font-size="13" font-weight="bold" lengthAdjust="spacing" textLength="7" x="7" y="86.0328">3</text><text fill="#000000" font-family="sans-serif" font-size="13" lengthAdjust="spacing" textLength="69" x="18" y="86.0328">getOrders()</text><path d="M14,106.8419 L149,106.8419 L149,116.5479 L139,126.5479 L14,126.5479 L14,106.8419 " fill="#EEEEEE" style="stroke:#000000;stroke-width:1.5;"/><rect fill="none" height="209.9421" style="stroke:#000000;stroke-width:1.5;" width="535" x="14" y="106.8419"/><text fill="#000000" font-family="sans-serif" font-size="13" font-weight="bold" lengthAdjust="spacing" textLength="90" x="29" y="121.7389">Get Order List</text><polygon fill="#181818" points="227.5,146.2539,237.5,150.2539,227.5,154.2539,231.5,150.2539" style="stroke:#181818;stroke-width:1.0;"/><line style="stroke:#181818;stroke-width:1.0;" x1="109" x2="233.5" y1="150.2539" y2="150.2539"/><text fill="#000000" font-family="sans-serif" font-size="13" font-weight="bold" lengthAdjust="spacing" textLength="18" x="116" y="144.4449">3.1</text><text fill="#000000" font-family="sans-serif" font-size="13" lengthAdjust="spacing" textLength="79" x="138" y="144.4449">getInstance()</text><polygon fill="#181818" points="120,177.9599,110,181.9599,120,185.9599,116,181.9599" style="stroke:#181818;stroke-width:1.0;"/><line style="stroke:#181818;stroke-width:1.0;stroke-dasharray:2.0,2.0;" x1="114" x2="243.5" y1="181.9599" y2="181.9599"/><text fill="#000000" font-family="sans-serif" font-size="13" font-weight="bold" lengthAdjust="spacing" textLength="18" x="126" y="176.1509">3.2</text><text fill="#000000" font-family="sans-serif" font-size="13" lengthAdjust="spacing" textLength="71" x="148" y="176.1509">repositories</text><polygon fill="#181818" points="337,209.6659,347,213.6659,337,217.6659,341,213.6659" style="stroke:#181818;stroke-width:1.0;"/><line style="stroke:#181818;stroke-width:1.0;" x1="109" x2="343" y1="213.6659" y2="213.6659"/><text fill="#000000" font-family="sans-serif" font-size="13" font-weight="bold" lengthAdjust="spacing" textLength="18" x="116" y="207.8569">3.3</text><text fill="#000000" font-family="sans-serif" font-size="13" lengthAdjust="spacing" textLength="128" x="138" y="207.8569">getOrderRepository()</text><polygon fill="#181818" points="120,241.3719,110,245.3719,120,249.3719,116,245.3719" style="stroke:#181818;stroke-width:1.0;"/><line style="stroke:#181818;stroke-width:1.0;stroke-dasharray:2.0,2.0;" x1="114" x2="353" y1="245.3719" y2="245.3719"/><text fill="#000000" font-family="sans-serif" font-size="13" font-weight="bold" lengthAdjust="spacing" textLength="18" x="126" y="239.5629">3.4</text><text fill="#000000" font-family="sans-serif" font-size="13" lengthAdjust="spacing" textLength="98" x="148" y="239.5629">orderRepository</text><polygon fill="#181818" points="459,273.0779,469,277.0779,459,281.0779,463,277.0779" style="stroke:#181818;stroke-width:1.0;"/><line style="stroke:#181818;stroke-width:1.0;" x1="109" x2="465" y1="277.0779" y2="277.0779"/><text fill="#000000" font-family="sans-serif" font-size="13" font-weight="bold" lengthAdjust="spacing" textLength="18" x="116" y="271.2689">3.5</text><text fill="#000000" font-family="sans-serif" font-size="13" lengthAdjust="spacing" textLength="69" x="138" y="271.2689">getOrders()</text><polygon fill="#181818" points="120,304.784,110,308.784,120,312.784,116,308.784" style="stroke:#181818;stroke-width:1.0;"/><line style="stroke:#181818;stroke-width:1.0;stroke-dasharray:2.0,2.0;" x1="114" x2="475" y1="308.784" y2="308.784"/><text fill="#000000" font-family="sans-serif" font-size="13" font-weight="bold" lengthAdjust="spacing" textLength="18" x="126" y="302.975">3.6</text><text fill="#000000" font-family="sans-serif" font-size="13" lengthAdjust="spacing" textLength="54" x="148" y="302.975">orderList</text><polygon fill="#181818" points="11,343.49,1,347.49,11,351.49,7,347.49" style="stroke:#181818;stroke-width:1.0;"/><line style="stroke:#181818;stroke-width:1.0;stroke-dasharray:2.0,2.0;" x1="5" x2="103" y1="347.49" y2="347.49"/><text fill="#000000" font-family="sans-serif" font-size="13" font-weight="bold" lengthAdjust="spacing" textLength="7" x="17" y="341.681">4</text><text fill="#000000" font-family="sans-serif" font-size="13" lengthAdjust="spacing" textLength="54" x="28" y="341.681">orderList</text><!--SRC=[ZL8xJyCm4DxzAqwTO0WIWYb2IAX3XHIfLTkHnJX7QjMn8_i2wh_7SMZZE1wupUVx7lTmPwaxRdaBhT56dAnf4SZsoDpjf-FYp1iyq4KXM1J4TQFY0dVYjVcHke4lhXmovjCaXUou9bYLEyK5RcsDTcqqMQCKsXLm1-lZlafgzzWP9ybOYIxKt1ANWnnaoUWvn4Q8yaCl27RLst6EC8ELYTU3jlDCm2KvnXZllNZVVgA59rQy1ljGGeCKQjtT_RpcuT6_1SblJZZs2ZuQQ_eEDaYZ0bJI4Gi_OmHMpvvfV1HxryvlGA2Ncr0tdToyeheXSip5NpybnFECW3N-L-BQm33uQ3mJAcyyx2bn6YYAQTJ9vlBsKgAhdyH5ihcCeyK5pCsbVAdFiDYimmKnwdgyY-X-djbBKIm98vfmKkmN]--></g></svg>