<?xml version="1.0" encoding="us-ascii" standalone="no"?><svg xmlns="http://www.w3.org/2000/svg" xmlns:xlink="http://www.w3.org/1999/xlink" contentStyleType="text/css" height="603px" preserveAspectRatio="none" style="width:988px;height:603px;background:#FFFFFF;" version="1.1" viewBox="0 0 988 603" width="988px" zoomAndPan="magnify"><defs/><g><text fill="#000000" font-family="sans-serif" font-size="14" font-weight="bold" lengthAdjust="spacing" textLength="132" x="421.355" y="24.9659">Domain Model US3</text><!--class Store--><g id="elem_Store"><rect codeLine="8" fill="#F1F1F1" height="105.2038" id="Store" rx="2.5" ry="2.5" style="stroke:#181818;stroke-width:0.5;" width="111" x="746.21" y="269.0679"/><ellipse cx="781.01" cy="285.0679" fill="#C2C2C2" rx="11" ry="11" style="stroke:#181818;stroke-width:1.0;"/><path d="M780.4788,291.7398 Q778.7288,291.7398 777.5881,291.0054 Q776.4631,290.2554 775.9006,288.9117 Q775.3538,287.5523 775.3538,285.7554 Q775.3538,283.7242 776.01,282.271 Q776.6663,280.8179 777.9475,280.0367 Q779.2288,279.2554 781.1038,279.2554 Q781.9944,279.2554 782.6663,279.4429 Q783.3381,279.6148 784.0256,279.9585 L783.2131,281.9742 Q782.5881,281.6617 782.0413,281.5367 Q781.51,281.4117 781.0256,281.4117 Q779.8538,281.4117 779.1506,281.9429 Q778.4475,282.4742 778.1506,283.4273 Q777.8538,284.3804 777.8538,285.646 Q777.8538,287.6617 778.5725,288.6304 Q779.2913,289.5835 780.885,289.5835 Q781.4788,289.5835 782.1038,289.4273 Q782.7288,289.271 783.5569,288.896 L783.5569,291.1148 Q782.8225,291.4273 782.0256,291.5835 Q781.2444,291.7398 780.4788,291.7398 Z " fill="#000000"/><text fill="#000000" font-family="sans-serif" font-size="14" lengthAdjust="spacing" textLength="35" x="799.41" y="290.4999">Store</text><line style="stroke:#181818;stroke-width:0.5;" x1="747.21" x2="856.21" y1="301.0679" y2="301.0679"/><text fill="#000000" font-family="sans-serif" font-size="14" lengthAdjust="spacing" textLength="80" x="752.21" y="320.0339">designation</text><text fill="#000000" font-family="sans-serif" font-size="14" lengthAdjust="spacing" textLength="92" x="752.21" y="339.1018">emailAddress</text><text fill="#000000" font-family="sans-serif" font-size="14" lengthAdjust="spacing" textLength="99" x="752.21" y="358.1697">phoneNumber</text><line style="stroke:#181818;stroke-width:0.5;" x1="747.21" x2="856.21" y1="366.2717" y2="366.2717"/></g><!--class Employee--><g id="elem_Employee"><rect codeLine="14" fill="#F1F1F1" height="143.3396" id="Employee" rx="2.5" ry="2.5" style="stroke:#181818;stroke-width:0.5;" width="111" x="384.21" y="453.0679"/><ellipse cx="405.51" cy="469.0679" fill="#C2C2C2" rx="11" ry="11" style="stroke:#181818;stroke-width:1.0;"/><path d="M404.9788,475.7398 Q403.2288,475.7398 402.0881,475.0054 Q400.9631,474.2554 400.4006,472.9117 Q399.8538,471.5523 399.8538,469.7554 Q399.8538,467.7242 400.51,466.271 Q401.1663,464.8179 402.4475,464.0367 Q403.7288,463.2554 405.6038,463.2554 Q406.4944,463.2554 407.1663,463.4429 Q407.8381,463.6148 408.5256,463.9585 L407.7131,465.9742 Q407.0881,465.6617 406.5413,465.5367 Q406.01,465.4117 405.5256,465.4117 Q404.3538,465.4117 403.6506,465.9429 Q402.9475,466.4742 402.6506,467.4273 Q402.3538,468.3804 402.3538,469.646 Q402.3538,471.6617 403.0725,472.6304 Q403.7913,473.5835 405.385,473.5835 Q405.9788,473.5835 406.6038,473.4273 Q407.2288,473.271 408.0569,472.896 L408.0569,475.1148 Q407.3225,475.4273 406.5256,475.5835 Q405.7444,475.7398 404.9788,475.7398 Z " fill="#000000"/><text fill="#000000" font-family="sans-serif" font-size="14" lengthAdjust="spacing" textLength="65" x="420.91" y="474.4999">Employee</text><line style="stroke:#181818;stroke-width:0.5;" x1="385.21" x2="494.21" y1="485.0679" y2="485.0679"/><text fill="#000000" font-family="sans-serif" font-size="14" lengthAdjust="spacing" textLength="38" x="390.21" y="504.0339">name</text><text fill="#000000" font-family="sans-serif" font-size="14" lengthAdjust="spacing" textLength="86" x="390.21" y="523.1018">cardNumber</text><text fill="#000000" font-family="sans-serif" font-size="14" lengthAdjust="spacing" textLength="76" x="390.21" y="542.1697">taxNumber</text><text fill="#000000" font-family="sans-serif" font-size="14" lengthAdjust="spacing" textLength="37" x="390.21" y="561.2376">email</text><text fill="#000000" font-family="sans-serif" font-size="14" lengthAdjust="spacing" textLength="99" x="390.21" y="580.3055">phoneNumber</text><line style="stroke:#181818;stroke-width:0.5;" x1="385.21" x2="494.21" y1="588.4075" y2="588.4075"/></g><!--class OrganizationRole--><g id="elem_OrganizationRole"><rect codeLine="22" fill="#F1F1F1" height="67.0679" id="OrganizationRole" rx="2.5" ry="2.5" style="stroke:#181818;stroke-width:0.5;" width="149" x="218.21" y="85.0679"/><ellipse cx="233.21" cy="101.0679" fill="#C2C2C2" rx="11" ry="11" style="stroke:#181818;stroke-width:1.0;"/><path d="M232.6788,107.7398 Q230.9288,107.7398 229.7881,107.0054 Q228.6631,106.2554 228.1006,104.9117 Q227.5538,103.5523 227.5538,101.7554 Q227.5538,99.7242 228.21,98.271 Q228.8663,96.8179 230.1475,96.0367 Q231.4288,95.2554 233.3038,95.2554 Q234.1944,95.2554 234.8663,95.4429 Q235.5381,95.6148 236.2256,95.9585 L235.4131,97.9742 Q234.7881,97.6617 234.2413,97.5367 Q233.71,97.4117 233.2256,97.4117 Q232.0538,97.4117 231.3506,97.9429 Q230.6475,98.4742 230.3506,99.4273 Q230.0538,100.3804 230.0538,101.646 Q230.0538,103.6617 230.7725,104.6304 Q231.4913,105.5835 233.085,105.5835 Q233.6788,105.5835 234.3038,105.4273 Q234.9288,105.271 235.7569,104.896 L235.7569,107.1148 Q235.0225,107.4273 234.2256,107.5835 Q233.4444,107.7398 232.6788,107.7398 Z " fill="#000000"/><text fill="#000000" font-family="sans-serif" font-size="14" lengthAdjust="spacing" textLength="117" x="247.21" y="106.4999">OrganizationRole</text><line style="stroke:#181818;stroke-width:0.5;" x1="219.21" x2="366.21" y1="117.0679" y2="117.0679"/><text fill="#000000" font-family="sans-serif" font-size="14" lengthAdjust="spacing" textLength="38" x="224.21" y="136.0339">name</text><line style="stroke:#181818;stroke-width:0.5;" x1="219.21" x2="366.21" y1="144.1358" y2="144.1358"/></g><!--class Address--><g id="elem_Address"><rect codeLine="26" fill="#F1F1F1" height="143.3396" id="Address" rx="2.5" ry="2.5" style="stroke:#181818;stroke-width:0.5;" width="104" x="819.71" y="47.0679"/><ellipse cx="842.36" cy="63.0679" fill="#C2C2C2" rx="11" ry="11" style="stroke:#181818;stroke-width:1.0;"/><path d="M841.8288,69.7398 Q840.0788,69.7398 838.9381,69.0054 Q837.8131,68.2554 837.2506,66.9117 Q836.7038,65.5523 836.7038,63.7554 Q836.7038,61.7242 837.36,60.271 Q838.0163,58.8179 839.2975,58.0367 Q840.5788,57.2554 842.4538,57.2554 Q843.3444,57.2554 844.0163,57.4429 Q844.6881,57.6148 845.3756,57.9585 L844.5631,59.9742 Q843.9381,59.6617 843.3913,59.5367 Q842.86,59.4117 842.3756,59.4117 Q841.2038,59.4117 840.5006,59.9429 Q839.7975,60.4742 839.5006,61.4273 Q839.2038,62.3804 839.2038,63.646 Q839.2038,65.6617 839.9225,66.6304 Q840.6413,67.5835 842.235,67.5835 Q842.8288,67.5835 843.4538,67.4273 Q844.0788,67.271 844.9069,66.896 L844.9069,69.1148 Q844.1725,69.4273 843.3756,69.5835 Q842.5944,69.7398 841.8288,69.7398 Z " fill="#000000"/><text fill="#000000" font-family="sans-serif" font-size="14" lengthAdjust="spacing" textLength="55" x="858.06" y="68.4999">Address</text><line style="stroke:#181818;stroke-width:0.5;" x1="820.71" x2="922.71" y1="79.0679" y2="79.0679"/><text fill="#000000" font-family="sans-serif" font-size="14" lengthAdjust="spacing" textLength="39" x="825.71" y="98.0339">street</text><text fill="#000000" font-family="sans-serif" font-size="14" lengthAdjust="spacing" textLength="63" x="825.71" y="117.1018">cityName</text><text fill="#000000" font-family="sans-serif" font-size="14" lengthAdjust="spacing" textLength="87" x="825.71" y="136.1697">districtName</text><text fill="#000000" font-family="sans-serif" font-size="14" lengthAdjust="spacing" textLength="92" x="825.71" y="155.2376">stateAcronym</text><text fill="#000000" font-family="sans-serif" font-size="14" lengthAdjust="spacing" textLength="54" x="825.71" y="174.3055">zipCode</text><line style="stroke:#181818;stroke-width:0.5;" x1="820.71" x2="922.71" y1="182.4075" y2="182.4075"/></g><!--class Administrator--><g id="elem_Administrator"><rect codeLine="34" fill="#F1F1F1" height="48" id="Administrator" rx="2.5" ry="2.5" style="stroke:#181818;stroke-width:0.5;" width="125" x="96.21" y="297.5679"/><ellipse cx="111.21" cy="313.5679" fill="#C2C2C2" rx="11" ry="11" style="stroke:#181818;stroke-width:1.0;"/><path d="M110.6788,320.2398 Q108.9288,320.2398 107.7881,319.5054 Q106.6631,318.7554 106.1006,317.4117 Q105.5538,316.0523 105.5538,314.2554 Q105.5538,312.2242 106.21,310.771 Q106.8663,309.3179 108.1475,308.5367 Q109.4288,307.7554 111.3038,307.7554 Q112.1944,307.7554 112.8663,307.9429 Q113.5381,308.1148 114.2256,308.4585 L113.4131,310.4742 Q112.7881,310.1617 112.2413,310.0367 Q111.71,309.9117 111.2256,309.9117 Q110.0538,309.9117 109.3506,310.4429 Q108.6475,310.9742 108.3506,311.9273 Q108.0538,312.8804 108.0538,314.146 Q108.0538,316.1617 108.7725,317.1304 Q109.4913,318.0835 111.085,318.0835 Q111.6788,318.0835 112.3038,317.9273 Q112.9288,317.771 113.7569,317.396 L113.7569,319.6148 Q113.0225,319.9273 112.2256,320.0835 Q111.4444,320.2398 110.6788,320.2398 Z " fill="#000000"/><text fill="#000000" font-family="sans-serif" font-size="14" lengthAdjust="spacing" textLength="93" x="125.21" y="318.9999">Administrator</text><line style="stroke:#181818;stroke-width:0.5;" x1="97.21" x2="220.21" y1="329.5679" y2="329.5679"/><line style="stroke:#181818;stroke-width:0.5;" x1="97.21" x2="220.21" y1="337.5679" y2="337.5679"/></g><!--class Agent--><g id="elem_Agent"><rect codeLine="36" fill="#F1F1F1" height="48" id="Agent" rx="2.5" ry="2.5" style="stroke:#181818;stroke-width:0.5;" width="72" x="256.71" y="297.5679"/><ellipse cx="271.71" cy="313.5679" fill="#C2C2C2" rx="11" ry="11" style="stroke:#181818;stroke-width:1.0;"/><path d="M271.1788,320.2398 Q269.4288,320.2398 268.2881,319.5054 Q267.1631,318.7554 266.6006,317.4117 Q266.0538,316.0523 266.0538,314.2554 Q266.0538,312.2242 266.71,310.771 Q267.3663,309.3179 268.6475,308.5367 Q269.9288,307.7554 271.8038,307.7554 Q272.6944,307.7554 273.3663,307.9429 Q274.0381,308.1148 274.7256,308.4585 L273.9131,310.4742 Q273.2881,310.1617 272.7413,310.0367 Q272.21,309.9117 271.7256,309.9117 Q270.5538,309.9117 269.8506,310.4429 Q269.1475,310.9742 268.8506,311.9273 Q268.5538,312.8804 268.5538,314.146 Q268.5538,316.1617 269.2725,317.1304 Q269.9913,318.0835 271.585,318.0835 Q272.1788,318.0835 272.8038,317.9273 Q273.4288,317.771 274.2569,317.396 L274.2569,319.6148 Q273.5225,319.9273 272.7256,320.0835 Q271.9444,320.2398 271.1788,320.2398 Z " fill="#000000"/><text fill="#000000" font-family="sans-serif" font-size="14" lengthAdjust="spacing" textLength="40" x="285.71" y="318.9999">Agent</text><line style="stroke:#181818;stroke-width:0.5;" x1="257.71" x2="327.71" y1="329.5679" y2="329.5679"/><line style="stroke:#181818;stroke-width:0.5;" x1="257.71" x2="327.71" y1="337.5679" y2="337.5679"/></g><!--class StoreManager--><g id="elem_StoreManager"><rect codeLine="38" fill="#F1F1F1" height="48" id="StoreManager" rx="2.5" ry="2.5" style="stroke:#181818;stroke-width:0.5;" width="128" x="363.71" y="297.5679"/><ellipse cx="378.71" cy="313.5679" fill="#C2C2C2" rx="11" ry="11" style="stroke:#181818;stroke-width:1.0;"/><path d="M378.1788,320.2398 Q376.4288,320.2398 375.2881,319.5054 Q374.1631,318.7554 373.6006,317.4117 Q373.0538,316.0523 373.0538,314.2554 Q373.0538,312.2242 373.71,310.771 Q374.3663,309.3179 375.6475,308.5367 Q376.9288,307.7554 378.8038,307.7554 Q379.6944,307.7554 380.3663,307.9429 Q381.0381,308.1148 381.7256,308.4585 L380.9131,310.4742 Q380.2881,310.1617 379.7413,310.0367 Q379.21,309.9117 378.7256,309.9117 Q377.5538,309.9117 376.8506,310.4429 Q376.1475,310.9742 375.8506,311.9273 Q375.5538,312.8804 375.5538,314.146 Q375.5538,316.1617 376.2725,317.1304 Q376.9913,318.0835 378.585,318.0835 Q379.1788,318.0835 379.8038,317.9273 Q380.4288,317.771 381.2569,317.396 L381.2569,319.6148 Q380.5225,319.9273 379.7256,320.0835 Q378.9444,320.2398 378.1788,320.2398 Z " fill="#000000"/><text fill="#000000" font-family="sans-serif" font-size="14" lengthAdjust="spacing" textLength="96" x="392.71" y="318.9999">StoreManager</text><line style="stroke:#181818;stroke-width:0.5;" x1="364.71" x2="490.71" y1="329.5679" y2="329.5679"/><line style="stroke:#181818;stroke-width:0.5;" x1="364.71" x2="490.71" y1="337.5679" y2="337.5679"/></g><!--class StoreNetworkManager--><g id="elem_StoreNetworkManager"><rect codeLine="40" fill="#F1F1F1" height="48" id="StoreNetworkManager" rx="2.5" ry="2.5" style="stroke:#181818;stroke-width:0.5;" width="184" x="526.71" y="297.5679"/><ellipse cx="541.71" cy="313.5679" fill="#C2C2C2" rx="11" ry="11" style="stroke:#181818;stroke-width:1.0;"/><path d="M541.1788,320.2398 Q539.4288,320.2398 538.2881,319.5054 Q537.1631,318.7554 536.6006,317.4117 Q536.0538,316.0523 536.0538,314.2554 Q536.0538,312.2242 536.71,310.771 Q537.3663,309.3179 538.6475,308.5367 Q539.9288,307.7554 541.8038,307.7554 Q542.6944,307.7554 543.3663,307.9429 Q544.0381,308.1148 544.7256,308.4585 L543.9131,310.4742 Q543.2881,310.1617 542.7413,310.0367 Q542.21,309.9117 541.7256,309.9117 Q540.5538,309.9117 539.8506,310.4429 Q539.1475,310.9742 538.8506,311.9273 Q538.5538,312.8804 538.5538,314.146 Q538.5538,316.1617 539.2725,317.1304 Q539.9913,318.0835 541.585,318.0835 Q542.1788,318.0835 542.8038,317.9273 Q543.4288,317.771 544.2569,317.396 L544.2569,319.6148 Q543.5225,319.9273 542.7256,320.0835 Q541.9444,320.2398 541.1788,320.2398 Z " fill="#000000"/><text fill="#000000" font-family="sans-serif" font-size="14" lengthAdjust="spacing" textLength="152" x="555.71" y="318.9999">StoreNetworkManager</text><line style="stroke:#181818;stroke-width:0.5;" x1="527.71" x2="709.71" y1="329.5679" y2="329.5679"/><line style="stroke:#181818;stroke-width:0.5;" x1="527.71" x2="709.71" y1="337.5679" y2="337.5679"/></g><!--link Address to Employee--><g id="link_Address_Employee"><path codeLine="42" d="M898.87,190.4779 C901.69,200.2979 904.11,210.3479 905.71,220.0679 C915.12,277.2679 900.11,345.8379 874.71,374.0679 C774.82,485.0679 588.75,513.6779 495.71,521.0279 " fill="none" id="Address-Employee" style="stroke:#181818;stroke-width:1.0;"/><polygon fill="#000000" points="916.5765,318.7508,907.7185,322.2129,911.4453,326.7583,916.5765,318.7508" style="stroke:#000000;stroke-width:1.0;"/><text fill="#000000" font-family="sans-serif" font-size="13" lengthAdjust="spacing" textLength="59" x="921.71" y="326.9649">located at</text><text fill="#000000" font-family="sans-serif" font-size="13" lengthAdjust="spacing" textLength="7" x="894.199" y="212.3083">1</text><text fill="#000000" font-family="sans-serif" font-size="13" lengthAdjust="spacing" textLength="7" x="503.3334" y="516.4058">1</text></g><!--link Address to Store--><g id="link_Address_Store"><path codeLine="43" d="M839.03,190.3779 C834.97,200.2579 831.07,210.3479 827.71,220.0679 C822.32,235.6579 817.46,252.9379 813.44,268.7079 " fill="none" id="Address-Store" style="stroke:#181818;stroke-width:1.0;"/><polygon fill="#000000" points="834.2627,225.1681,828.6602,232.8534,834.2475,234.6787,834.2627,225.1681" style="stroke:#000000;stroke-width:1.0;"/><text fill="#000000" font-family="sans-serif" font-size="13" lengthAdjust="spacing" textLength="59" x="841.71" y="234.9649">located at</text><text fill="#000000" font-family="sans-serif" font-size="13" lengthAdjust="spacing" textLength="7" x="828.4685" y="212.1985">1</text><text fill="#000000" font-family="sans-serif" font-size="13" lengthAdjust="spacing" textLength="7" x="807.5459" y="257.3934">1</text></g><!--link Store to Employee--><g id="link_Store_Employee"><path codeLine="45" d="M746.05,362.4279 C739.93,366.4779 733.74,370.4279 727.71,374.0679 C649.35,421.3979 554.43,468.8779 495.54,497.2479 " fill="none" id="Store-Employee" style="stroke:#181818;stroke-width:1.0;"/><polygon fill="#000000" points="675.3071,416.2905,684.6648,414.5919,681.8792,409.416,675.3071,416.2905" style="stroke:#000000;stroke-width:1.0;"/><text fill="#000000" font-family="sans-serif" font-size="13" lengthAdjust="spacing" textLength="32" x="688.71" y="418.9649">owns</text><text fill="#000000" font-family="sans-serif" font-size="13" lengthAdjust="spacing" textLength="7" x="731.1004" y="363.7071">1</text><text fill="#000000" font-family="sans-serif" font-size="13" lengthAdjust="spacing" textLength="20" x="503.1516" y="490.0244">1..*</text></g><!--reverse link OrganizationRole to Administrator--><g id="link_OrganizationRole_Administrator"><path codeLine="47" d="M259,170.1379 C231.83,210.8879 194.87,266.3279 174.25,297.2579 " fill="none" id="OrganizationRole-backto-Administrator" style="stroke:#181818;stroke-width:1.0;"/><polygon fill="none" points="253.12,166.3279,270.04,153.5679,264.77,174.0879,253.12,166.3279" style="stroke:#181818;stroke-width:1.0;"/></g><!--reverse link OrganizationRole to Agent--><g id="link_OrganizationRole_Agent"><path codeLine="48" d="M292.71,173.7579 C292.71,214.1179 292.71,267.2379 292.71,297.2579 " fill="none" id="OrganizationRole-backto-Agent" style="stroke:#181818;stroke-width:1.0;"/><polygon fill="none" points="285.71,173.8279,292.71,153.8279,299.71,173.8179,285.71,173.8279" style="stroke:#181818;stroke-width:1.0;"/></g><!--reverse link OrganizationRole to StoreManager--><g id="link_OrganizationRole_StoreManager"><path codeLine="49" d="M326.67,170.1379 C354.04,210.8879 391.28,266.3279 412.05,297.2579 " fill="none" id="OrganizationRole-backto-StoreManager" style="stroke:#181818;stroke-width:1.0;"/><polygon fill="none" points="320.88,174.0679,315.54,153.5679,332.51,166.2679,320.88,174.0679" style="stroke:#181818;stroke-width:1.0;"/></g><!--reverse link OrganizationRole to StoreNetworkManager--><g id="link_OrganizationRole_StoreNetworkManager"><path codeLine="50" d="M364.15,163.6179 C430.95,204.7979 528.12,264.7079 580.99,297.3179 " fill="none" id="OrganizationRole-backto-StoreNetworkManager" style="stroke:#181818;stroke-width:1.0;"/><polygon fill="none" points="360.81,169.7879,347.46,153.3279,368.16,157.8679,360.81,169.7879" style="stroke:#181818;stroke-width:1.0;"/></g><!--link OrganizationRole to Employee--><g id="link_OrganizationRole_Employee"><path codeLine="52" d="M217.85,139.8279 C156.02,160.9679 72.21,200.7879 32.71,269.0679 C9.34,309.4579 6,335.7979 32.71,374.0679 C113.06,489.1879 292.35,515.9179 383.77,521.9479 " fill="none" id="OrganizationRole-Employee" style="stroke:#181818;stroke-width:1.0;"/><polygon fill="#000000" points="35.7186,317.3346,36.6253,326.8019,42.0169,324.4608,35.7186,317.3346" style="stroke:#000000;stroke-width:1.0;"/><text fill="#000000" font-family="sans-serif" font-size="13" lengthAdjust="spacing" textLength="31" x="46.71" y="326.9649">plays</text><text fill="#000000" font-family="sans-serif" font-size="13" lengthAdjust="spacing" textLength="20" x="190.2922" y="137.8898">1..*</text><text fill="#000000" font-family="sans-serif" font-size="13" lengthAdjust="spacing" textLength="7" x="369.1543" y="517.4437">1</text></g><!--link Administrator to Employee--><g id="link_Administrator_Employee"><path codeLine="54" d="M191.49,346.0179 C238.69,379.7779 326.41,442.5279 383.92,483.6679 " fill="none" id="Administrator-Employee" style="stroke:#181818;stroke-width:1.0;"/><polygon fill="#000000" points="308.7767,416.8299,303.1299,409.1772,299.7101,413.9578,308.7767,416.8299" style="stroke:#000000;stroke-width:1.0;"/><text fill="#000000" font-family="sans-serif" font-size="13" lengthAdjust="spacing" textLength="52" x="313.71" y="418.9649">registers</text><text fill="#000000" font-family="sans-serif" font-size="13" lengthAdjust="spacing" textLength="7" x="191.261" y="367.6163">1</text><text fill="#000000" font-family="sans-serif" font-size="13" lengthAdjust="spacing" textLength="7" x="369.3235" y="474.259">*</text></g><!--SRC=[VL7BJiCm4BpxArOz8hK2SKCLKWKSEBH8H7p0rbbIg_OwihSgAV3lk6uQ9NsGI-BPsV7C9AuDrnZGWVFizIfuHo1XGofsanhr6YigfB44WRGWLxPFY2ii_TPm1PzeOt-YBSOu4mbckH5wrPuBioEuLKgC9BLdxz0mp7r95ZwAUwNo1XJY0tqhI4z9qLICOZpdCwKDEolBG35ce5vvfiN6BIcetwF0YwkjRwZLO7IKFpI6igNkZu9VlLDMlYxv5YfaiyjEthtjItUSrjTX52KGoU5U8ytYQA8qQMAqT40K59hfuBbn6TYP-YbLqjTrXlThc8hfm8fO1etDaTEF2WDiGRBrOTsDMeimkXl1U9nVnxBW0QpNoKi9A32zHCsIfpnrG3lQP78p4FLRZl2er6c3CFr9_66sAvmSzV9iaFmVocaHPzJM-7afjSKcxdCEh7PvXs43LOb1OP_u3m00]--></g></svg>