<?xml version="1.0" encoding="us-ascii" standalone="no"?><svg xmlns="http://www.w3.org/2000/svg" xmlns:xlink="http://www.w3.org/1999/xlink" contentStyleType="text/css" height="622px" preserveAspectRatio="none" style="width:997px;height:622px;background:#FFFFFF;" version="1.1" viewBox="0 0 997 622" width="997px" zoomAndPan="magnify"><defs/><g><text fill="#000000" font-family="sans-serif" font-size="14" font-weight="bold" lengthAdjust="spacing" textLength="132" x="425.77" y="24.9659">Domain Model US3</text><!--class Store--><g id="elem_Store"><rect codeLine="8" fill="#F1F1F1" height="124.2717" id="Store" rx="2.5" ry="2.5" style="stroke:#181818;stroke-width:0.5;" width="111" x="751.04" y="269.0679"/><ellipse cx="785.84" cy="285.0679" fill="#C2C2C2" rx="11" ry="11" style="stroke:#181818;stroke-width:1.0;"/><path d="M785.3087,291.7398 Q783.5587,291.7398 782.4181,291.0054 Q781.2931,290.2554 780.7306,288.9117 Q780.1837,287.5523 780.1837,285.7554 Q780.1837,283.7242 780.84,282.271 Q781.4962,280.8179 782.7775,280.0367 Q784.0587,279.2554 785.9337,279.2554 Q786.8244,279.2554 787.4962,279.4429 Q788.1681,279.6148 788.8556,279.9585 L788.0431,281.9742 Q787.4181,281.6617 786.8712,281.5367 Q786.34,281.4117 785.8556,281.4117 Q784.6837,281.4117 783.9806,281.9429 Q783.2775,282.4742 782.9806,283.4273 Q782.6837,284.3804 782.6837,285.646 Q782.6837,287.6617 783.4025,288.6304 Q784.1212,289.5835 785.715,289.5835 Q786.3087,289.5835 786.9337,289.4273 Q787.5587,289.271 788.3869,288.896 L788.3869,291.1148 Q787.6525,291.4273 786.8556,291.5835 Q786.0744,291.7398 785.3087,291.7398 Z " fill="#000000"/><text fill="#000000" font-family="sans-serif" font-size="14" lengthAdjust="spacing" textLength="35" x="804.24" y="290.4999">Store</text><line style="stroke:#181818;stroke-width:0.5;" x1="752.04" x2="861.04" y1="301.0679" y2="301.0679"/><text fill="#000000" font-family="sans-serif" font-size="14" lengthAdjust="spacing" textLength="13" x="757.04" y="320.0339">id</text><text fill="#000000" font-family="sans-serif" font-size="14" lengthAdjust="spacing" textLength="80" x="757.04" y="339.1018">designation</text><text fill="#000000" font-family="sans-serif" font-size="14" lengthAdjust="spacing" textLength="92" x="757.04" y="358.1697">emailAddress</text><text fill="#000000" font-family="sans-serif" font-size="14" lengthAdjust="spacing" textLength="99" x="757.04" y="377.2376">phoneNumber</text><line style="stroke:#181818;stroke-width:0.5;" x1="752.04" x2="861.04" y1="385.3396" y2="385.3396"/></g><!--class Employee--><g id="elem_Employee"><rect codeLine="15" fill="#F1F1F1" height="143.3396" id="Employee" rx="2.5" ry="2.5" style="stroke:#181818;stroke-width:0.5;" width="136" x="376.54" y="472.0679"/><ellipse cx="409.09" cy="488.0679" fill="#C2C2C2" rx="11" ry="11" style="stroke:#181818;stroke-width:1.0;"/><path d="M408.5588,494.7398 Q406.8088,494.7398 405.6681,494.0054 Q404.5431,493.2554 403.9806,491.9117 Q403.4338,490.5523 403.4338,488.7554 Q403.4338,486.7242 404.09,485.271 Q404.7463,483.8179 406.0275,483.0367 Q407.3088,482.2554 409.1838,482.2554 Q410.0744,482.2554 410.7463,482.4429 Q411.4181,482.6148 412.1056,482.9585 L411.2931,484.9742 Q410.6681,484.6617 410.1213,484.5367 Q409.59,484.4117 409.1056,484.4117 Q407.9338,484.4117 407.2306,484.9429 Q406.5275,485.4742 406.2306,486.4273 Q405.9338,487.3804 405.9338,488.646 Q405.9338,490.6617 406.6525,491.6304 Q407.3713,492.5835 408.965,492.5835 Q409.5588,492.5835 410.1838,492.4273 Q410.8088,492.271 411.6369,491.896 L411.6369,494.1148 Q410.9025,494.4273 410.1056,494.5835 Q409.3244,494.7398 408.5588,494.7398 Z " fill="#000000"/><text fill="#000000" font-family="sans-serif" font-size="14" lengthAdjust="spacing" textLength="65" x="426.99" y="493.4999">Employee</text><line style="stroke:#181818;stroke-width:0.5;" x1="377.54" x2="511.54" y1="504.0679" y2="504.0679"/><text fill="#000000" font-family="sans-serif" font-size="14" lengthAdjust="spacing" textLength="38" x="382.54" y="523.0339">name</text><text fill="#000000" font-family="sans-serif" font-size="14" lengthAdjust="spacing" textLength="124" x="382.54" y="542.1018">passportCardNum</text><text fill="#000000" font-family="sans-serif" font-size="14" lengthAdjust="spacing" textLength="76" x="382.54" y="561.1697">taxNumber</text><text fill="#000000" font-family="sans-serif" font-size="14" lengthAdjust="spacing" textLength="92" x="382.54" y="580.2376">emailAddress</text><text fill="#000000" font-family="sans-serif" font-size="14" lengthAdjust="spacing" textLength="99" x="382.54" y="599.3055">phoneNumber</text><line style="stroke:#181818;stroke-width:0.5;" x1="377.54" x2="511.54" y1="607.4075" y2="607.4075"/></g><!--class OrganizationRole--><g id="elem_OrganizationRole"><rect codeLine="23" fill="#F1F1F1" height="67.0679" id="OrganizationRole" rx="2.5" ry="2.5" style="stroke:#181818;stroke-width:0.5;" width="149" x="223.04" y="85.0679"/><ellipse cx="238.04" cy="101.0679" fill="#C2C2C2" rx="11" ry="11" style="stroke:#181818;stroke-width:1.0;"/><path d="M237.5088,107.7398 Q235.7588,107.7398 234.6181,107.0054 Q233.4931,106.2554 232.9306,104.9117 Q232.3838,103.5523 232.3838,101.7554 Q232.3838,99.7242 233.04,98.271 Q233.6963,96.8179 234.9775,96.0367 Q236.2588,95.2554 238.1338,95.2554 Q239.0244,95.2554 239.6963,95.4429 Q240.3681,95.6148 241.0556,95.9585 L240.2431,97.9742 Q239.6181,97.6617 239.0713,97.5367 Q238.54,97.4117 238.0556,97.4117 Q236.8838,97.4117 236.1806,97.9429 Q235.4775,98.4742 235.1806,99.4273 Q234.8838,100.3804 234.8838,101.646 Q234.8838,103.6617 235.6025,104.6304 Q236.3213,105.5835 237.915,105.5835 Q238.5088,105.5835 239.1338,105.4273 Q239.7588,105.271 240.5869,104.896 L240.5869,107.1148 Q239.8525,107.4273 239.0556,107.5835 Q238.2744,107.7398 237.5088,107.7398 Z " fill="#000000"/><text fill="#000000" font-family="sans-serif" font-size="14" lengthAdjust="spacing" textLength="117" x="252.04" y="106.4999">OrganizationRole</text><line style="stroke:#181818;stroke-width:0.5;" x1="224.04" x2="371.04" y1="117.0679" y2="117.0679"/><text fill="#000000" font-family="sans-serif" font-size="14" lengthAdjust="spacing" textLength="66" x="229.04" y="136.0339">roleName</text><line style="stroke:#181818;stroke-width:0.5;" x1="224.04" x2="371.04" y1="144.1358" y2="144.1358"/></g><!--class Address--><g id="elem_Address"><rect codeLine="27" fill="#F1F1F1" height="143.3396" id="Address" rx="2.5" ry="2.5" style="stroke:#181818;stroke-width:0.5;" width="104" x="824.54" y="47.0679"/><ellipse cx="847.19" cy="63.0679" fill="#C2C2C2" rx="11" ry="11" style="stroke:#181818;stroke-width:1.0;"/><path d="M846.6587,69.7398 Q844.9087,69.7398 843.7681,69.0054 Q842.6431,68.2554 842.0806,66.9117 Q841.5337,65.5523 841.5337,63.7554 Q841.5337,61.7242 842.19,60.271 Q842.8462,58.8179 844.1275,58.0367 Q845.4087,57.2554 847.2837,57.2554 Q848.1744,57.2554 848.8462,57.4429 Q849.5181,57.6148 850.2056,57.9585 L849.3931,59.9742 Q848.7681,59.6617 848.2212,59.5367 Q847.69,59.4117 847.2056,59.4117 Q846.0337,59.4117 845.3306,59.9429 Q844.6275,60.4742 844.3306,61.4273 Q844.0337,62.3804 844.0337,63.646 Q844.0337,65.6617 844.7525,66.6304 Q845.4712,67.5835 847.065,67.5835 Q847.6587,67.5835 848.2837,67.4273 Q848.9087,67.271 849.7369,66.896 L849.7369,69.1148 Q849.0025,69.4273 848.2056,69.5835 Q847.4244,69.7398 846.6587,69.7398 Z " fill="#000000"/><text fill="#000000" font-family="sans-serif" font-size="14" lengthAdjust="spacing" textLength="55" x="862.89" y="68.4999">Address</text><line style="stroke:#181818;stroke-width:0.5;" x1="825.54" x2="927.54" y1="79.0679" y2="79.0679"/><text fill="#000000" font-family="sans-serif" font-size="14" lengthAdjust="spacing" textLength="39" x="830.54" y="98.0339">street</text><text fill="#000000" font-family="sans-serif" font-size="14" lengthAdjust="spacing" textLength="63" x="830.54" y="117.1018">cityName</text><text fill="#000000" font-family="sans-serif" font-size="14" lengthAdjust="spacing" textLength="87" x="830.54" y="136.1697">districtName</text><text fill="#000000" font-family="sans-serif" font-size="14" lengthAdjust="spacing" textLength="92" x="830.54" y="155.2376">stateAcronym</text><text fill="#000000" font-family="sans-serif" font-size="14" lengthAdjust="spacing" textLength="54" x="830.54" y="174.3055">zipCode</text><line style="stroke:#181818;stroke-width:0.5;" x1="825.54" x2="927.54" y1="182.4075" y2="182.4075"/></g><!--class Administrator--><g id="elem_Administrator"><rect codeLine="35" fill="#F1F1F1" height="48" id="Administrator" rx="2.5" ry="2.5" style="stroke:#181818;stroke-width:0.5;" width="125" x="101.04" y="307.0679"/><ellipse cx="116.04" cy="323.0679" fill="#C2C2C2" rx="11" ry="11" style="stroke:#181818;stroke-width:1.0;"/><path d="M115.5088,329.7398 Q113.7588,329.7398 112.6181,329.0054 Q111.4931,328.2554 110.9306,326.9117 Q110.3838,325.5523 110.3838,323.7554 Q110.3838,321.7242 111.04,320.271 Q111.6963,318.8179 112.9775,318.0367 Q114.2588,317.2554 116.1338,317.2554 Q117.0244,317.2554 117.6963,317.4429 Q118.3681,317.6148 119.0556,317.9585 L118.2431,319.9742 Q117.6181,319.6617 117.0713,319.5367 Q116.54,319.4117 116.0556,319.4117 Q114.8838,319.4117 114.1806,319.9429 Q113.4775,320.4742 113.1806,321.4273 Q112.8838,322.3804 112.8838,323.646 Q112.8838,325.6617 113.6025,326.6304 Q114.3213,327.5835 115.915,327.5835 Q116.5088,327.5835 117.1338,327.4273 Q117.7588,327.271 118.5869,326.896 L118.5869,329.1148 Q117.8525,329.4273 117.0556,329.5835 Q116.2744,329.7398 115.5088,329.7398 Z " fill="#000000"/><text fill="#000000" font-family="sans-serif" font-size="14" lengthAdjust="spacing" textLength="93" x="130.04" y="328.4999">Administrator</text><line style="stroke:#181818;stroke-width:0.5;" x1="102.04" x2="225.04" y1="339.0679" y2="339.0679"/><line style="stroke:#181818;stroke-width:0.5;" x1="102.04" x2="225.04" y1="347.0679" y2="347.0679"/></g><!--class Agent--><g id="elem_Agent"><rect codeLine="37" fill="#F1F1F1" height="48" id="Agent" rx="2.5" ry="2.5" style="stroke:#181818;stroke-width:0.5;" width="72" x="261.54" y="307.0679"/><ellipse cx="276.54" cy="323.0679" fill="#C2C2C2" rx="11" ry="11" style="stroke:#181818;stroke-width:1.0;"/><path d="M276.0087,329.7398 Q274.2587,329.7398 273.1181,329.0054 Q271.9931,328.2554 271.4306,326.9117 Q270.8837,325.5523 270.8837,323.7554 Q270.8837,321.7242 271.54,320.271 Q272.1962,318.8179 273.4775,318.0367 Q274.7587,317.2554 276.6337,317.2554 Q277.5244,317.2554 278.1962,317.4429 Q278.8681,317.6148 279.5556,317.9585 L278.7431,319.9742 Q278.1181,319.6617 277.5712,319.5367 Q277.04,319.4117 276.5556,319.4117 Q275.3837,319.4117 274.6806,319.9429 Q273.9775,320.4742 273.6806,321.4273 Q273.3837,322.3804 273.3837,323.646 Q273.3837,325.6617 274.1025,326.6304 Q274.8212,327.5835 276.415,327.5835 Q277.0087,327.5835 277.6337,327.4273 Q278.2587,327.271 279.0869,326.896 L279.0869,329.1148 Q278.3525,329.4273 277.5556,329.5835 Q276.7744,329.7398 276.0087,329.7398 Z " fill="#000000"/><text fill="#000000" font-family="sans-serif" font-size="14" lengthAdjust="spacing" textLength="40" x="290.54" y="328.4999">Agent</text><line style="stroke:#181818;stroke-width:0.5;" x1="262.54" x2="332.54" y1="339.0679" y2="339.0679"/><line style="stroke:#181818;stroke-width:0.5;" x1="262.54" x2="332.54" y1="347.0679" y2="347.0679"/></g><!--class StoreManager--><g id="elem_StoreManager"><rect codeLine="39" fill="#F1F1F1" height="48" id="StoreManager" rx="2.5" ry="2.5" style="stroke:#181818;stroke-width:0.5;" width="128" x="368.54" y="307.0679"/><ellipse cx="383.54" cy="323.0679" fill="#C2C2C2" rx="11" ry="11" style="stroke:#181818;stroke-width:1.0;"/><path d="M383.0088,329.7398 Q381.2588,329.7398 380.1181,329.0054 Q378.9931,328.2554 378.4306,326.9117 Q377.8838,325.5523 377.8838,323.7554 Q377.8838,321.7242 378.54,320.271 Q379.1963,318.8179 380.4775,318.0367 Q381.7588,317.2554 383.6338,317.2554 Q384.5244,317.2554 385.1963,317.4429 Q385.8681,317.6148 386.5556,317.9585 L385.7431,319.9742 Q385.1181,319.6617 384.5713,319.5367 Q384.04,319.4117 383.5556,319.4117 Q382.3838,319.4117 381.6806,319.9429 Q380.9775,320.4742 380.6806,321.4273 Q380.3838,322.3804 380.3838,323.646 Q380.3838,325.6617 381.1025,326.6304 Q381.8213,327.5835 383.415,327.5835 Q384.0088,327.5835 384.6338,327.4273 Q385.2588,327.271 386.0869,326.896 L386.0869,329.1148 Q385.3525,329.4273 384.5556,329.5835 Q383.7744,329.7398 383.0088,329.7398 Z " fill="#000000"/><text fill="#000000" font-family="sans-serif" font-size="14" lengthAdjust="spacing" textLength="96" x="397.54" y="328.4999">StoreManager</text><line style="stroke:#181818;stroke-width:0.5;" x1="369.54" x2="495.54" y1="339.0679" y2="339.0679"/><line style="stroke:#181818;stroke-width:0.5;" x1="369.54" x2="495.54" y1="347.0679" y2="347.0679"/></g><!--class StoreNetworkManager--><g id="elem_StoreNetworkManager"><rect codeLine="41" fill="#F1F1F1" height="48" id="StoreNetworkManager" rx="2.5" ry="2.5" style="stroke:#181818;stroke-width:0.5;" width="184" x="531.54" y="307.0679"/><ellipse cx="546.54" cy="323.0679" fill="#C2C2C2" rx="11" ry="11" style="stroke:#181818;stroke-width:1.0;"/><path d="M546.0088,329.7398 Q544.2588,329.7398 543.1181,329.0054 Q541.9931,328.2554 541.4306,326.9117 Q540.8838,325.5523 540.8838,323.7554 Q540.8838,321.7242 541.54,320.271 Q542.1963,318.8179 543.4775,318.0367 Q544.7588,317.2554 546.6338,317.2554 Q547.5244,317.2554 548.1963,317.4429 Q548.8681,317.6148 549.5556,317.9585 L548.7431,319.9742 Q548.1181,319.6617 547.5713,319.5367 Q547.04,319.4117 546.5556,319.4117 Q545.3838,319.4117 544.6806,319.9429 Q543.9775,320.4742 543.6806,321.4273 Q543.3838,322.3804 543.3838,323.646 Q543.3838,325.6617 544.1025,326.6304 Q544.8213,327.5835 546.415,327.5835 Q547.0088,327.5835 547.6338,327.4273 Q548.2588,327.271 549.0869,326.896 L549.0869,329.1148 Q548.3525,329.4273 547.5556,329.5835 Q546.7744,329.7398 546.0088,329.7398 Z " fill="#000000"/><text fill="#000000" font-family="sans-serif" font-size="14" lengthAdjust="spacing" textLength="152" x="560.54" y="328.4999">StoreNetworkManager</text><line style="stroke:#181818;stroke-width:0.5;" x1="532.54" x2="714.54" y1="339.0679" y2="339.0679"/><line style="stroke:#181818;stroke-width:0.5;" x1="532.54" x2="714.54" y1="347.0679" y2="347.0679"/></g><!--link Address to Employee--><g id="link_Address_Employee"><path codeLine="43" d="M903.71,190.4779 C906.53,200.2979 908.94,210.3479 910.54,220.0679 C920.97,283.4179 922.74,343.7379 879.54,393.0679 C785.24,500.7579 609.73,530.9379 512.97,539.3479 " fill="none" id="Address-Employee" style="stroke:#181818;stroke-width:1.0;"/><polygon fill="#000000" points="925.2697,328.0909,916.5652,331.9227,920.48,336.3073,925.2697,328.0909" style="stroke:#000000;stroke-width:1.0;"/><text fill="#000000" font-family="sans-serif" font-size="13" lengthAdjust="spacing" textLength="59" x="930.54" y="336.4649">located at</text><text fill="#000000" font-family="sans-serif" font-size="13" lengthAdjust="spacing" textLength="7" x="899.04" y="212.3083">1</text><text fill="#000000" font-family="sans-serif" font-size="13" lengthAdjust="spacing" textLength="7" x="520.3878" y="534.9521">1</text></g><!--link Address to Store--><g id="link_Address_Store"><path codeLine="44" d="M843.68,190.3179 C839.65,200.1979 835.8,210.3079 832.54,220.0679 C827.35,235.6079 822.78,252.7179 818.98,268.7079 " fill="none" id="Address-Store" style="stroke:#181818;stroke-width:1.0;"/><polygon fill="#000000" points="839.0426,225.1521,833.5213,232.8958,839.1274,234.6622,839.0426,225.1521" style="stroke:#000000;stroke-width:1.0;"/><text fill="#000000" font-family="sans-serif" font-size="13" lengthAdjust="spacing" textLength="59" x="846.54" y="234.9649">located at</text><text fill="#000000" font-family="sans-serif" font-size="13" lengthAdjust="spacing" textLength="7" x="832.9304" y="212.5096">1</text><text fill="#000000" font-family="sans-serif" font-size="13" lengthAdjust="spacing" textLength="7" x="813.0137" y="257.4369">1</text></g><!--link Store to Employee--><g id="link_Store_Employee"><path codeLine="46" d="M750.92,379.9679 C744.85,384.5779 738.66,389.0279 732.54,393.0679 C660.99,440.3679 572.68,484.2879 512.86,512.1079 " fill="none" id="Store-Employee" style="stroke:#181818;stroke-width:1.0;"/><polygon fill="#000000" points="681.1683,435.3475,690.5031,433.5274,687.6505,428.3882,681.1683,435.3475" style="stroke:#000000;stroke-width:1.0;"/><text fill="#000000" font-family="sans-serif" font-size="13" lengthAdjust="spacing" textLength="32" x="694.54" y="437.9649">owns</text><text fill="#000000" font-family="sans-serif" font-size="13" lengthAdjust="spacing" textLength="7" x="735.9758" y="382.3229">1</text><text fill="#000000" font-family="sans-serif" font-size="13" lengthAdjust="spacing" textLength="20" x="520.5696" y="505.0894">1..*</text></g><!--reverse link OrganizationRole to Administrator--><g id="link_OrganizationRole_Administrator"><path codeLine="48" d="M265.15,170.4579 C237.54,213.8279 199.12,274.1779 178.33,306.8379 " fill="none" id="OrganizationRole-backto-Administrator" style="stroke:#181818;stroke-width:1.0;"/><polygon fill="none" points="259.15,166.8479,275.79,153.7379,270.96,174.3679,259.15,166.8479" style="stroke:#181818;stroke-width:1.0;"/></g><!--reverse link OrganizationRole to Agent--><g id="link_OrganizationRole_Agent"><path codeLine="49" d="M297.54,173.6879 C297.54,216.7879 297.54,274.9779 297.54,306.8379 " fill="none" id="OrganizationRole-backto-Agent" style="stroke:#181818;stroke-width:1.0;"/><polygon fill="none" points="290.54,173.9679,297.54,153.9679,304.54,173.9679,290.54,173.9679" style="stroke:#181818;stroke-width:1.0;"/></g><!--reverse link OrganizationRole to StoreManager--><g id="link_OrganizationRole_StoreManager"><path codeLine="50" d="M330.18,170.4579 C357.99,213.8279 396.7,274.1779 417.65,306.8379 " fill="none" id="OrganizationRole-backto-StoreManager" style="stroke:#181818;stroke-width:1.0;"/><polygon fill="none" points="324.36,174.3479,319.46,153.7279,336.14,166.7879,324.36,174.3479" style="stroke:#181818;stroke-width:1.0;"/></g><!--reverse link OrganizationRole to StoreNetworkManager--><g id="link_OrganizationRole_StoreNetworkManager"><path codeLine="51" d="M366.18,163.8879 C433.77,207.5279 534.38,272.4879 587.57,306.8379 " fill="none" id="OrganizationRole-backto-StoreNetworkManager" style="stroke:#181818;stroke-width:1.0;"/><polygon fill="none" points="362.76,170.0079,349.75,153.2779,370.35,158.2479,362.76,170.0079" style="stroke:#181818;stroke-width:1.0;"/></g><!--link OrganizationRole to Employee--><g id="link_OrganizationRole_Employee"><path codeLine="53" d="M222.69,139.8279 C160.85,160.9679 77.05,200.7879 37.54,269.0679 C9.95,316.7679 6,347.8779 37.54,393.0679 C114.45,503.2479 281.98,532.4679 376.37,540.0579 " fill="none" id="OrganizationRole-Employee" style="stroke:#181818;stroke-width:1.0;"/><polygon fill="#000000" points="40.7477,326.7532,41.2464,336.2507,46.7336,334.1437,40.7477,326.7532" style="stroke:#000000;stroke-width:1.0;"/><text fill="#000000" font-family="sans-serif" font-size="13" lengthAdjust="spacing" textLength="31" x="51.54" y="336.4649">plays</text><text fill="#000000" font-family="sans-serif" font-size="13" lengthAdjust="spacing" textLength="20" x="195.133" y="137.8898">1..*</text><text fill="#000000" font-family="sans-serif" font-size="13" lengthAdjust="spacing" textLength="7" x="361.5311" y="535.6614">1</text></g><!--link Administrator to Employee--><g id="link_Administrator_Employee"><path codeLine="55" d="M193.87,355.3279 C208.8,366.7379 227.08,380.6679 243.54,393.0679 C287.66,426.2979 337.48,463.3479 376.48,492.2579 " fill="none" id="Administrator-Employee" style="stroke:#181818;stroke-width:1.0;"/><polygon fill="#000000" points="313.5403,435.9205,308.0668,428.1429,304.5406,432.8455,313.5403,435.9205" style="stroke:#000000;stroke-width:1.0;"/><text fill="#000000" font-family="sans-serif" font-size="13" lengthAdjust="spacing" textLength="52" x="318.54" y="437.9649">registers</text><text fill="#000000" font-family="sans-serif" font-size="13" lengthAdjust="spacing" textLength="7" x="193.0744" y="376.8823">1</text><text fill="#000000" font-family="sans-serif" font-size="13" lengthAdjust="spacing" textLength="7" x="361.6531" y="482.6333">*</text></g><!--SRC=[ZL51JiCm4Bpx5IkEI4KWRWWXLS210qMYuW5RUqcjEjvelLL9WR_ZkcdKj0MHYvETsV7C92ryR52mXfeZsxbmJQ2o99Dwf46xm8gcsWO28QiOgx1FI7DqlFAnWdSCQH-n0LCQgugVBPMUBCUfNnDS6gDUize3r-WZFBEZ06_JQsFA1aoLXJuDvCUxSZXAlegedcFvfhmOniu9fLG6pPmZJPRrZCHyxtGUwoPmIvrKn9gst8mrB7gFul9AcIb-TDl_bt-H2gDV5rUl7Bfh9BzDDbVrl4ve2oSL8YslrcixsPboFYFUQZz8YafZAnpRhSMrR-vpK_kwjO-RDSnzzSEAeWwAVCQO_vyCPXFI5SkYXpgBS7Pr1gDHENRbmGq4jjcB0rIuFKKjaeSyivtsj8kByu4ehsA2EsCEMuJRhymVPlk5KwAUnWR9_w0S5d54xOmVbz84RDCcvy1gdtSOLgZA399DuXy0]--></g></svg>