<?xml version="1.0" encoding="us-ascii" standalone="no"?><svg xmlns="http://www.w3.org/2000/svg" xmlns:xlink="http://www.w3.org/1999/xlink" contentStyleType="text/css" height="2004px" preserveAspectRatio="none" style="width:2348px;height:2004px;background:#FFFFFF;" version="1.1" viewBox="0 0 2348 2004" width="2348px" zoomAndPan="magnify"><defs/><g><rect fill="#FFFFFF" height="1817.534" style="stroke:#181818;stroke-width:1.0;" width="10" x="49.5" y="94.0679"/><rect fill="#FFFFFF" height="329.4221" style="stroke:#181818;stroke-width:1.0;" width="10" x="378.5" y="117.7739"/><rect fill="#FFFFFF" height="31.706" style="stroke:#181818;stroke-width:1.0;" width="10" x="378.5" y="478.902"/><rect fill="#FFFFFF" height="1360.2878" style="stroke:#181818;stroke-width:1.0;" width="10" x="378.5" y="542.314"/><rect fill="#FFFFFF" height="221.9421" style="stroke:#181818;stroke-width:1.0;" width="10" x="570.5" y="193.5479"/><rect fill="#FFFFFF" height="1296.8758" style="stroke:#181818;stroke-width:1.0;" width="10" x="570.5" y="574.0201"/><rect fill="#FFFFFF" height="31.706" style="stroke:#181818;stroke-width:1.0;" width="10" x="735" y="225.2539"/><rect fill="#FFFFFF" height="31.706" style="stroke:#181818;stroke-width:1.0;" width="10" x="846" y="288.6659"/><rect fill="#FFFFFF" height="31.706" style="stroke:#181818;stroke-width:1.0;" width="10" x="975" y="352.0779"/><rect fill="#FFFFFF" height="1233.4638" style="stroke:#181818;stroke-width:1.0;" width="10" x="975" y="605.7261"/><rect fill="#FFFFFF" height="42.706" style="stroke:#181818;stroke-width:1.0;" width="10" x="980" y="672.1381"/><rect fill="#FFFFFF" height="1031.9337" style="stroke:#181818;stroke-width:1.0;" width="10" x="980" y="768.5501"/><rect fill="#FFFFFF" height="206.3894" style="stroke:#181818;stroke-width:1.0;" width="10" x="1493.5" y="841.9622"/><rect fill="#FFFFFF" height="188.6834" style="stroke:#181818;stroke-width:1.0;" width="10" x="1571" y="1204.8813"/><rect fill="none" height="109.118" style="stroke:#000000;stroke-width:1.5;" width="238.5" x="901.5" y="620.7261"/><rect fill="none" height="975.2277" style="stroke:#000000;stroke-width:1.5;" width="1439.5" x="901.5" y="788.5501"/><rect fill="none" height="162.9596" style="stroke:#000000;stroke-width:1.5;" width="421.5" x="1124.5" y="878.392"/><rect fill="none" height="162.9596" style="stroke:#000000;stroke-width:1.5;" width="491.5" x="1124.5" y="1223.6051"/><rect fill="none" height="162.9596" style="stroke:#000000;stroke-width:1.5;" width="576.5" x="1124.5" y="1505.6824"/><line style="stroke:#181818;stroke-width:0.5;stroke-dasharray:5.0,5.0;" x1="54" x2="54" y1="84.0679" y2="1920.6019"/><line style="stroke:#181818;stroke-width:0.5;stroke-dasharray:5.0,5.0;" x1="383.5" x2="383.5" y1="84.0679" y2="1920.6019"/><line style="stroke:#181818;stroke-width:0.5;stroke-dasharray:5.0,5.0;" x1="575.5" x2="575.5" y1="157.8079" y2="1920.6019"/><line style="stroke:#181818;stroke-width:0.5;stroke-dasharray:5.0,5.0;" x1="739.5" x2="739.5" y1="84.0679" y2="1920.6019"/><line style="stroke:#181818;stroke-width:0.5;stroke-dasharray:5.0,5.0;" x1="850.5" x2="850.5" y1="84.0679" y2="1920.6019"/><line style="stroke:#181818;stroke-width:0.5;stroke-dasharray:5.0,5.0;" x1="979.5" x2="979.5" y1="84.0679" y2="1920.6019"/><line style="stroke:#181818;stroke-width:0.5;stroke-dasharray:5.0,5.0;" x1="1170.5" x2="1170.5" y1="1647.0741" y2="1920.6019"/><line style="stroke:#181818;stroke-width:0.5;stroke-dasharray:5.0,5.0;" x1="1246.5" x2="1246.5" y1="84.0679" y2="1920.6019"/><line style="stroke:#181818;stroke-width:0.5;stroke-dasharray:5.0,5.0;" x1="1313.5" x2="1313.5" y1="84.0679" y2="1920.6019"/><line style="stroke:#181818;stroke-width:0.5;stroke-dasharray:5.0,5.0;" x1="1498" x2="1498" y1="849.8241" y2="1920.6019"/><line style="stroke:#181818;stroke-width:0.5;stroke-dasharray:5.0,5.0;" x1="1576" x2="1576" y1="1195.0372" y2="1920.6019"/><line style="stroke:#181818;stroke-width:0.5;stroke-dasharray:5.0,5.0;" x1="1653" x2="1653" y1="84.0679" y2="1920.6019"/><line style="stroke:#181818;stroke-width:0.5;stroke-dasharray:5.0,5.0;" x1="1780" x2="1780" y1="84.0679" y2="1920.6019"/><line style="stroke:#181818;stroke-width:0.5;stroke-dasharray:5.0,5.0;" x1="1933" x2="1933" y1="84.0679" y2="1920.6019"/><line style="stroke:#181818;stroke-width:0.5;stroke-dasharray:5.0,5.0;" x1="2072" x2="2072" y1="84.0679" y2="1920.6019"/><line style="stroke:#181818;stroke-width:0.5;stroke-dasharray:5.0,5.0;" x1="2204" x2="2204" y1="1707.6759" y2="1920.6019"/><line style="stroke:#181818;stroke-width:0.5;stroke-dasharray:5.0,5.0;" x1="2301" x2="2301" y1="1751.7439" y2="1920.6019"/><text fill="#000000" font-family="sans-serif" font-size="14" lengthAdjust="spacing" textLength="93" x="5" y="79.9659">Administrator</text><ellipse cx="54.5" cy="13.5" fill="#E3E3E3" rx="8" ry="8" style="stroke:#181818;stroke-width:0.5;"/><path d="M54.5,21.5 L54.5,48.5 M41.5,29.5 L67.5,29.5 M54.5,48.5 L41.5,63.5 M54.5,48.5 L67.5,63.5 " fill="none" style="stroke:#181818;stroke-width:0.5;"/><text fill="#000000" font-family="sans-serif" font-size="14" lengthAdjust="spacing" textLength="93" x="5" y="1934.5678">Administrator</text><ellipse cx="54.5" cy="1947.1698" fill="#E3E3E3" rx="8" ry="8" style="stroke:#181818;stroke-width:0.5;"/><path d="M54.5,1955.1698 L54.5,1982.1698 M41.5,1963.1698 L67.5,1963.1698 M54.5,1982.1698 L41.5,1997.1698 M54.5,1982.1698 L67.5,1997.1698 " fill="none" style="stroke:#181818;stroke-width:0.5;"/><rect fill="#E3E3E3" height="33.0679" rx="2.5" ry="2.5" style="stroke:#181818;stroke-width:0.5;" width="156" x="305.5" y="50"/><text fill="#000000" font-family="sans-serif" font-size="14" lengthAdjust="spacing" textLength="142" x="312.5" y="71.9659">:ImportLegacyDataUI</text><rect fill="#E3E3E3" height="33.0679" rx="2.5" ry="2.5" style="stroke:#181818;stroke-width:0.5;" width="156" x="305.5" y="1919.6019"/><text fill="#000000" font-family="sans-serif" font-size="14" lengthAdjust="spacing" textLength="142" x="312.5" y="1941.5678">:ImportLegacyDataUI</text><rect fill="#E3E3E3" height="33.0679" rx="2.5" ry="2.5" style="stroke:#181818;stroke-width:0.5;" width="208" x="471.5" y="1919.6019"/><text fill="#000000" font-family="sans-serif" font-size="14" lengthAdjust="spacing" textLength="194" x="478.5" y="1941.5678">:ImportLegacyDataController</text><rect fill="#E3E3E3" height="33.0679" rx="2.5" ry="2.5" style="stroke:#181818;stroke-width:0.5;" width="101" x="689.5" y="50"/><text fill="#000000" font-family="sans-serif" font-size="14" lengthAdjust="spacing" textLength="87" x="696.5" y="71.9659">:Repositories</text><rect fill="#E3E3E3" height="33.0679" rx="2.5" ry="2.5" style="stroke:#181818;stroke-width:0.5;" width="101" x="689.5" y="1919.6019"/><text fill="#000000" font-family="sans-serif" font-size="14" lengthAdjust="spacing" textLength="87" x="696.5" y="1941.5678">:Repositories</text><rect fill="#E3E3E3" height="52.1358" rx="2.5" ry="2.5" style="stroke:#181818;stroke-width:0.5;" width="101" x="800.5" y="30.9321"/><text fill="#000000" font-family="sans-serif" font-size="14" lengthAdjust="spacing" textLength="80" x="811" y="52.898">repositories</text><text fill="#000000" font-family="sans-serif" font-size="14" lengthAdjust="spacing" textLength="87" x="807.5" y="71.9659">:Repositories</text><rect fill="#E3E3E3" height="52.1358" rx="2.5" ry="2.5" style="stroke:#181818;stroke-width:0.5;" width="101" x="800.5" y="1919.6019"/><text fill="#000000" font-family="sans-serif" font-size="14" lengthAdjust="spacing" textLength="80" x="811" y="1941.5678">repositories</text><text fill="#000000" font-family="sans-serif" font-size="14" lengthAdjust="spacing" textLength="87" x="807.5" y="1960.6357">:Repositories</text><rect fill="#E3E3E3" height="52.1358" rx="2.5" ry="2.5" style="stroke:#181818;stroke-width:0.5;" width="137" x="911.5" y="30.9321"/><text fill="#000000" font-family="sans-serif" font-size="14" lengthAdjust="spacing" textLength="115" x="922.5" y="52.898">csvFileRepository</text><text fill="#000000" font-family="sans-serif" font-size="14" lengthAdjust="spacing" textLength="123" x="918.5" y="71.9659">:CSVFileRepository</text><rect fill="#E3E3E3" height="52.1358" rx="2.5" ry="2.5" style="stroke:#181818;stroke-width:0.5;" width="137" x="911.5" y="1919.6019"/><text fill="#000000" font-family="sans-serif" font-size="14" lengthAdjust="spacing" textLength="115" x="922.5" y="1941.5678">csvFileRepository</text><text fill="#000000" font-family="sans-serif" font-size="14" lengthAdjust="spacing" textLength="123" x="918.5" y="1960.6357">:CSVFileRepository</text><rect fill="#E3E3E3" height="52.1358" rx="2.5" ry="2.5" style="stroke:#181818;stroke-width:0.5;" width="73" x="1134.5" y="1919.6019"/><text fill="#000000" font-family="sans-serif" font-size="14" lengthAdjust="spacing" textLength="54" x="1144" y="1941.5678">address</text><text fill="#000000" font-family="sans-serif" font-size="14" lengthAdjust="spacing" textLength="59" x="1141.5" y="1960.6357">:Address</text><rect fill="#E3E3E3" height="52.1358" rx="2.5" ry="2.5" style="stroke:#181818;stroke-width:0.5;" width="58" x="1217.5" y="30.9321"/><text fill="#000000" font-family="sans-serif" font-size="14" lengthAdjust="spacing" textLength="37" x="1228" y="52.898">order</text><text fill="#000000" font-family="sans-serif" font-size="14" lengthAdjust="spacing" textLength="44" x="1224.5" y="71.9659">:Order</text><rect fill="#E3E3E3" height="52.1358" rx="2.5" ry="2.5" style="stroke:#181818;stroke-width:0.5;" width="58" x="1217.5" y="1919.6019"/><text fill="#000000" font-family="sans-serif" font-size="14" lengthAdjust="spacing" textLength="37" x="1228" y="1941.5678">order</text><text fill="#000000" font-family="sans-serif" font-size="14" lengthAdjust="spacing" textLength="44" x="1224.5" y="1960.6357">:Order</text><rect fill="#E3E3E3" height="52.1358" rx="2.5" ry="2.5" style="stroke:#181818;stroke-width:0.5;" width="57" x="1285.5" y="30.9321"/><text fill="#000000" font-family="sans-serif" font-size="14" lengthAdjust="spacing" textLength="37" x="1295.5" y="52.898">client</text><text fill="#000000" font-family="sans-serif" font-size="14" lengthAdjust="spacing" textLength="43" x="1292.5" y="71.9659">:Client</text><rect fill="#E3E3E3" height="52.1358" rx="2.5" ry="2.5" style="stroke:#181818;stroke-width:0.5;" width="57" x="1285.5" y="1919.6019"/><text fill="#000000" font-family="sans-serif" font-size="14" lengthAdjust="spacing" textLength="37" x="1295.5" y="1941.5678">client</text><text fill="#000000" font-family="sans-serif" font-size="14" lengthAdjust="spacing" textLength="43" x="1292.5" y="1960.6357">:Client</text><rect fill="#E3E3E3" height="52.1358" rx="2.5" ry="2.5" style="stroke:#181818;stroke-width:0.5;" width="75" x="1461" y="1919.6019"/><text fill="#000000" font-family="sans-serif" font-size="14" lengthAdjust="spacing" textLength="58" x="1469.5" y="1941.5678">property</text><text fill="#000000" font-family="sans-serif" font-size="14" lengthAdjust="spacing" textLength="61" x="1468" y="1960.6357">:Property</text><rect fill="#E3E3E3" height="52.1358" rx="2.5" ry="2.5" style="stroke:#181818;stroke-width:0.5;" width="60" x="1546" y="1919.6019"/><text fill="#000000" font-family="sans-serif" font-size="14" lengthAdjust="spacing" textLength="41" x="1555.5" y="1941.5678">house</text><text fill="#000000" font-family="sans-serif" font-size="14" lengthAdjust="spacing" textLength="46" x="1553" y="1960.6357">:House</text><rect fill="#E3E3E3" height="52.1358" rx="2.5" ry="2.5" style="stroke:#181818;stroke-width:0.5;" width="75" x="1616" y="30.9321"/><text fill="#000000" font-family="sans-serif" font-size="14" lengthAdjust="spacing" textLength="57" x="1625" y="52.898">building</text><text fill="#000000" font-family="sans-serif" font-size="14" lengthAdjust="spacing" textLength="61" x="1623" y="71.9659">:Building</text><rect fill="#E3E3E3" height="52.1358" rx="2.5" ry="2.5" style="stroke:#181818;stroke-width:0.5;" width="75" x="1616" y="1919.6019"/><text fill="#000000" font-family="sans-serif" font-size="14" lengthAdjust="spacing" textLength="57" x="1625" y="1941.5678">building</text><text fill="#000000" font-family="sans-serif" font-size="14" lengthAdjust="spacing" textLength="61" x="1623" y="1960.6357">:Building</text><rect fill="#E3E3E3" height="52.1358" rx="2.5" ry="2.5" style="stroke:#181818;stroke-width:0.5;" width="158" x="1701" y="30.9321"/><text fill="#000000" font-family="sans-serif" font-size="14" lengthAdjust="spacing" textLength="141" x="1709.5" y="52.898">propertiesRepository</text><text fill="#000000" font-family="sans-serif" font-size="14" lengthAdjust="spacing" textLength="144" x="1708" y="71.9659">:PropertiesRepository</text><rect fill="#E3E3E3" height="52.1358" rx="2.5" ry="2.5" style="stroke:#181818;stroke-width:0.5;" width="158" x="1701" y="1919.6019"/><text fill="#000000" font-family="sans-serif" font-size="14" lengthAdjust="spacing" textLength="141" x="1709.5" y="1941.5678">propertiesRepository</text><text fill="#000000" font-family="sans-serif" font-size="14" lengthAdjust="spacing" textLength="144" x="1708" y="1960.6357">:PropertiesRepository</text><rect fill="#E3E3E3" height="52.1358" rx="2.5" ry="2.5" style="stroke:#181818;stroke-width:0.5;" width="129" x="1869" y="30.9321"/><text fill="#000000" font-family="sans-serif" font-size="14" lengthAdjust="spacing" textLength="108" x="1879.5" y="52.898">orderRepository</text><text fill="#000000" font-family="sans-serif" font-size="14" lengthAdjust="spacing" textLength="115" x="1876" y="71.9659">:OrderRepository</text><rect fill="#E3E3E3" height="52.1358" rx="2.5" ry="2.5" style="stroke:#181818;stroke-width:0.5;" width="129" x="1869" y="1919.6019"/><text fill="#000000" font-family="sans-serif" font-size="14" lengthAdjust="spacing" textLength="108" x="1879.5" y="1941.5678">orderRepository</text><text fill="#000000" font-family="sans-serif" font-size="14" lengthAdjust="spacing" textLength="115" x="1876" y="1960.6357">:OrderRepository</text><rect fill="#E3E3E3" height="52.1358" rx="2.5" ry="2.5" style="stroke:#181818;stroke-width:0.5;" width="128" x="2008" y="30.9321"/><text fill="#000000" font-family="sans-serif" font-size="14" lengthAdjust="spacing" textLength="108" x="2018" y="52.898">clientRepository</text><text fill="#000000" font-family="sans-serif" font-size="14" lengthAdjust="spacing" textLength="114" x="2015" y="71.9659">:ClientRepository</text><rect fill="#E3E3E3" height="52.1358" rx="2.5" ry="2.5" style="stroke:#181818;stroke-width:0.5;" width="128" x="2008" y="1919.6019"/><text fill="#000000" font-family="sans-serif" font-size="14" lengthAdjust="spacing" textLength="108" x="2018" y="1941.5678">clientRepository</text><text fill="#000000" font-family="sans-serif" font-size="14" lengthAdjust="spacing" textLength="114" x="2015" y="1960.6357">:ClientRepository</text><rect fill="#E3E3E3" height="33.0679" rx="2.5" ry="2.5" style="stroke:#181818;stroke-width:0.5;" width="116" x="2146" y="1919.6019"/><text fill="#000000" font-family="sans-serif" font-size="14" lengthAdjust="spacing" textLength="102" x="2153" y="1941.5678">PurchaseOrder</text><rect fill="#E3E3E3" height="33.0679" rx="2.5" ry="2.5" style="stroke:#181818;stroke-width:0.5;" width="59" x="2272" y="1919.6019"/><text fill="#000000" font-family="sans-serif" font-size="14" lengthAdjust="spacing" textLength="45" x="2279" y="1941.5678">Owner</text><rect fill="#FFFFFF" height="1817.534" style="stroke:#181818;stroke-width:1.0;" width="10" x="49.5" y="94.0679"/><rect fill="#FFFFFF" height="329.4221" style="stroke:#181818;stroke-width:1.0;" width="10" x="378.5" y="117.7739"/><rect fill="#FFFFFF" height="31.706" style="stroke:#181818;stroke-width:1.0;" width="10" x="378.5" y="478.902"/><rect fill="#FFFFFF" height="1360.2878" style="stroke:#181818;stroke-width:1.0;" width="10" x="378.5" y="542.314"/><rect fill="#FFFFFF" height="221.9421" style="stroke:#181818;stroke-width:1.0;" width="10" x="570.5" y="193.5479"/><rect fill="#FFFFFF" height="1296.8758" style="stroke:#181818;stroke-width:1.0;" width="10" x="570.5" y="574.0201"/><rect fill="#FFFFFF" height="31.706" style="stroke:#181818;stroke-width:1.0;" width="10" x="735" y="225.2539"/><rect fill="#FFFFFF" height="31.706" style="stroke:#181818;stroke-width:1.0;" width="10" x="846" y="288.6659"/><rect fill="#FFFFFF" height="31.706" style="stroke:#181818;stroke-width:1.0;" width="10" x="975" y="352.0779"/><rect fill="#FFFFFF" height="1233.4638" style="stroke:#181818;stroke-width:1.0;" width="10" x="975" y="605.7261"/><rect fill="#FFFFFF" height="42.706" style="stroke:#181818;stroke-width:1.0;" width="10" x="980" y="672.1381"/><rect fill="#FFFFFF" height="1031.9337" style="stroke:#181818;stroke-width:1.0;" width="10" x="980" y="768.5501"/><rect fill="#FFFFFF" height="206.3894" style="stroke:#181818;stroke-width:1.0;" width="10" x="1493.5" y="841.9622"/><rect fill="#FFFFFF" height="188.6834" style="stroke:#181818;stroke-width:1.0;" width="10" x="1571" y="1204.8813"/><polygon fill="#181818" points="366.5,113.7739,376.5,117.7739,366.5,121.7739,370.5,117.7739" style="stroke:#181818;stroke-width:1.0;"/><line style="stroke:#181818;stroke-width:1.0;" x1="59.5" x2="372.5" y1="117.7739" y2="117.7739"/><text fill="#000000" font-family="sans-serif" font-size="13" font-weight="bold" lengthAdjust="spacing" textLength="7" x="66.5" y="111.9649">1</text><text fill="#000000" font-family="sans-serif" font-size="13" lengthAdjust="spacing" textLength="289" x="77.5" y="111.9649">asks to import information from a legacy system</text><polygon fill="#181818" points="459.5,145.4799,469.5,149.4799,459.5,153.4799,463.5,149.4799" style="stroke:#181818;stroke-width:1.0;"/><line style="stroke:#181818;stroke-width:1.0;" x1="388.5" x2="465.5" y1="149.4799" y2="149.4799"/><text fill="#000000" font-family="sans-serif" font-size="13" font-weight="bold" lengthAdjust="spacing" textLength="7" x="395.5" y="143.6709">2</text><text fill="#000000" font-family="sans-serif" font-size="13" lengthAdjust="spacing" textLength="37" x="406.5" y="143.6709">create</text><rect fill="#E3E3E3" height="33.0679" rx="2.5" ry="2.5" style="stroke:#181818;stroke-width:0.5;" width="208" x="471.5" y="125.7739"/><text fill="#000000" font-family="sans-serif" font-size="14" lengthAdjust="spacing" textLength="194" x="478.5" y="147.7399">:ImportLegacyDataController</text><polygon fill="#181818" points="558.5,189.5479,568.5,193.5479,558.5,197.5479,562.5,193.5479" style="stroke:#181818;stroke-width:1.0;"/><line style="stroke:#181818;stroke-width:1.0;" x1="388.5" x2="564.5" y1="193.5479" y2="193.5479"/><text fill="#000000" font-family="sans-serif" font-size="13" font-weight="bold" lengthAdjust="spacing" textLength="7" x="395.5" y="187.7389">3</text><text fill="#000000" font-family="sans-serif" font-size="13" lengthAdjust="spacing" textLength="77" x="406.5" y="187.7389">getCSVFiles()</text><polygon fill="#181818" points="723,221.2539,733,225.2539,723,229.2539,727,225.2539" style="stroke:#181818;stroke-width:1.0;"/><line style="stroke:#181818;stroke-width:1.0;" x1="580.5" x2="729" y1="225.2539" y2="225.2539"/><text fill="#000000" font-family="sans-serif" font-size="13" font-weight="bold" lengthAdjust="spacing" textLength="7" x="587.5" y="219.4449">4</text><text fill="#000000" font-family="sans-serif" font-size="13" lengthAdjust="spacing" textLength="79" x="598.5" y="219.4449">getInstance()</text><polygon fill="#181818" points="591.5,252.9599,581.5,256.9599,591.5,260.9599,587.5,256.9599" style="stroke:#181818;stroke-width:1.0;"/><line style="stroke:#181818;stroke-width:1.0;stroke-dasharray:2.0,2.0;" x1="585.5" x2="739" y1="256.9599" y2="256.9599"/><text fill="#000000" font-family="sans-serif" font-size="13" font-weight="bold" lengthAdjust="spacing" textLength="7" x="597.5" y="251.1509">5</text><text fill="#000000" font-family="sans-serif" font-size="13" lengthAdjust="spacing" textLength="71" x="608.5" y="251.1509">repositories</text><polygon fill="#181818" points="834,284.6659,844,288.6659,834,292.6659,838,288.6659" style="stroke:#181818;stroke-width:1.0;"/><line style="stroke:#181818;stroke-width:1.0;" x1="580.5" x2="840" y1="288.6659" y2="288.6659"/><text fill="#000000" font-family="sans-serif" font-size="13" font-weight="bold" lengthAdjust="spacing" textLength="7" x="587.5" y="282.8569">6</text><text fill="#000000" font-family="sans-serif" font-size="13" lengthAdjust="spacing" textLength="136" x="598.5" y="282.8569">getCSVFileRepository()</text><polygon fill="#181818" points="591.5,316.3719,581.5,320.3719,591.5,324.3719,587.5,320.3719" style="stroke:#181818;stroke-width:1.0;"/><line style="stroke:#181818;stroke-width:1.0;stroke-dasharray:2.0,2.0;" x1="585.5" x2="850" y1="320.3719" y2="320.3719"/><text fill="#000000" font-family="sans-serif" font-size="13" font-weight="bold" lengthAdjust="spacing" textLength="7" x="597.5" y="314.5629">7</text><text fill="#000000" font-family="sans-serif" font-size="13" lengthAdjust="spacing" textLength="104" x="608.5" y="314.5629">csvFileRepository</text><polygon fill="#181818" points="963,348.0779,973,352.0779,963,356.0779,967,352.0779" style="stroke:#181818;stroke-width:1.0;"/><line style="stroke:#181818;stroke-width:1.0;" x1="580.5" x2="969" y1="352.0779" y2="352.0779"/><text fill="#000000" font-family="sans-serif" font-size="13" font-weight="bold" lengthAdjust="spacing" textLength="7" x="587.5" y="346.2689">8</text><text fill="#000000" font-family="sans-serif" font-size="13" lengthAdjust="spacing" textLength="77" x="598.5" y="346.2689">getCSVFiles()</text><polygon fill="#181818" points="591.5,379.784,581.5,383.784,591.5,387.784,587.5,383.784" style="stroke:#181818;stroke-width:1.0;"/><line style="stroke:#181818;stroke-width:1.0;stroke-dasharray:2.0,2.0;" x1="585.5" x2="979" y1="383.784" y2="383.784"/><text fill="#000000" font-family="sans-serif" font-size="13" font-weight="bold" lengthAdjust="spacing" textLength="7" x="597.5" y="377.975">9</text><text fill="#000000" font-family="sans-serif" font-size="13" lengthAdjust="spacing" textLength="60" x="608.5" y="377.975">csvFileList</text><polygon fill="#181818" points="399.5,411.49,389.5,415.49,399.5,419.49,395.5,415.49" style="stroke:#181818;stroke-width:1.0;"/><line style="stroke:#181818;stroke-width:1.0;stroke-dasharray:2.0,2.0;" x1="393.5" x2="574.5" y1="415.49" y2="415.49"/><text fill="#000000" font-family="sans-serif" font-size="13" font-weight="bold" lengthAdjust="spacing" textLength="14" x="405.5" y="409.681">10</text><text fill="#000000" font-family="sans-serif" font-size="13" lengthAdjust="spacing" textLength="60" x="423.5" y="409.681">csvFileList</text><polygon fill="#181818" points="70.5,443.196,60.5,447.196,70.5,451.196,66.5,447.196" style="stroke:#181818;stroke-width:1.0;"/><line style="stroke:#181818;stroke-width:1.0;stroke-dasharray:2.0,2.0;" x1="64.5" x2="382.5" y1="447.196" y2="447.196"/><text fill="#000000" font-family="sans-serif" font-size="13" font-weight="bold" lengthAdjust="spacing" textLength="14" x="76.5" y="441.387">11</text><text fill="#000000" font-family="sans-serif" font-size="13" lengthAdjust="spacing" textLength="125" x="94.5" y="441.387">shows list of CSV files</text><polygon fill="#181818" points="366.5,474.902,376.5,478.902,366.5,482.902,370.5,478.902" style="stroke:#181818;stroke-width:1.0;"/><line style="stroke:#181818;stroke-width:1.0;" x1="59.5" x2="372.5" y1="478.902" y2="478.902"/><text fill="#000000" font-family="sans-serif" font-size="13" font-weight="bold" lengthAdjust="spacing" textLength="14" x="66.5" y="473.093">12</text><text fill="#000000" font-family="sans-serif" font-size="13" lengthAdjust="spacing" textLength="86" x="84.5" y="473.093">selects CSV file</text><polygon fill="#181818" points="70.5,506.608,60.5,510.608,70.5,514.608,66.5,510.608" style="stroke:#181818;stroke-width:1.0;"/><line style="stroke:#181818;stroke-width:1.0;stroke-dasharray:2.0,2.0;" x1="64.5" x2="382.5" y1="510.608" y2="510.608"/><text fill="#000000" font-family="sans-serif" font-size="13" font-weight="bold" lengthAdjust="spacing" textLength="14" x="76.5" y="504.799">13</text><text fill="#000000" font-family="sans-serif" font-size="13" lengthAdjust="spacing" textLength="120" x="94.5" y="504.799">shows selected data</text><polygon fill="#181818" points="366.5,538.314,376.5,542.314,366.5,546.314,370.5,542.314" style="stroke:#181818;stroke-width:1.0;"/><line style="stroke:#181818;stroke-width:1.0;" x1="59.5" x2="372.5" y1="542.314" y2="542.314"/><text fill="#000000" font-family="sans-serif" font-size="13" font-weight="bold" lengthAdjust="spacing" textLength="14" x="66.5" y="536.505">14</text><text fill="#000000" font-family="sans-serif" font-size="13" lengthAdjust="spacing" textLength="78" x="84.5" y="536.505">submits data</text><polygon fill="#181818" points="558.5,570.0201,568.5,574.0201,558.5,578.0201,562.5,574.0201" style="stroke:#181818;stroke-width:1.0;"/><line style="stroke:#181818;stroke-width:1.0;" x1="388.5" x2="564.5" y1="574.0201" y2="574.0201"/><text fill="#000000" font-family="sans-serif" font-size="13" font-weight="bold" lengthAdjust="spacing" textLength="14" x="395.5" y="568.2111">15</text><text fill="#000000" font-family="sans-serif" font-size="13" lengthAdjust="spacing" textLength="131" x="413.5" y="568.2111">importCSVFile(csvFile)</text><polygon fill="#181818" points="963,601.7261,973,605.7261,963,609.7261,967,605.7261" style="stroke:#181818;stroke-width:1.0;"/><line style="stroke:#181818;stroke-width:1.0;" x1="580.5" x2="969" y1="605.7261" y2="605.7261"/><text fill="#000000" font-family="sans-serif" font-size="13" font-weight="bold" lengthAdjust="spacing" textLength="14" x="587.5" y="599.9171">16</text><text fill="#000000" font-family="sans-serif" font-size="13" lengthAdjust="spacing" textLength="131" x="605.5" y="599.9171">importCSVFile(csvFile)</text><path d="M901.5,620.7261 L974.5,620.7261 L974.5,630.4321 L964.5,640.4321 L901.5,640.4321 L901.5,620.7261 " fill="#EEEEEE" style="stroke:#000000;stroke-width:1.5;"/><rect fill="none" height="109.118" style="stroke:#000000;stroke-width:1.5;" width="238.5" x="901.5" y="620.7261"/><text fill="#000000" font-family="sans-serif" font-size="13" font-weight="bold" lengthAdjust="spacing" textLength="28" x="916.5" y="635.6231">loop</text><text fill="#000000" font-family="sans-serif" font-size="11" font-weight="bold" lengthAdjust="spacing" textLength="127" x="989.5" y="634.485">[while csv file has lines]</text><line style="stroke:#181818;stroke-width:1.0;" x1="985" x2="1032" y1="659.1381" y2="659.1381"/><line style="stroke:#181818;stroke-width:1.0;" x1="1032" x2="1032" y1="659.1381" y2="672.1381"/><line style="stroke:#181818;stroke-width:1.0;" x1="991" x2="1032" y1="672.1381" y2="672.1381"/><polygon fill="#181818" points="1001,668.1381,991,672.1381,1001,676.1381,997,672.1381" style="stroke:#181818;stroke-width:1.0;"/><text fill="#000000" font-family="sans-serif" font-size="13" font-weight="bold" lengthAdjust="spacing" textLength="14" x="997" y="653.3291">17</text><text fill="#000000" font-family="sans-serif" font-size="13" lengthAdjust="spacing" textLength="113" x="1015" y="653.3291">getDataFromLine()</text><line style="stroke:#181818;stroke-width:1.0;stroke-dasharray:2.0,2.0;" x1="990" x2="1032" y1="713.8441" y2="713.8441"/><line style="stroke:#181818;stroke-width:1.0;stroke-dasharray:2.0,2.0;" x1="1032" x2="1032" y1="713.8441" y2="726.8441"/><line style="stroke:#181818;stroke-width:1.0;stroke-dasharray:2.0,2.0;" x1="985" x2="1032" y1="726.8441" y2="726.8441"/><polygon fill="#181818" points="995,722.8441,985,726.8441,995,730.8441,991,726.8441" style="stroke:#181818;stroke-width:1.0;"/><text fill="#000000" font-family="sans-serif" font-size="13" font-weight="bold" lengthAdjust="spacing" textLength="14" x="997" y="708.0351">18</text><text fill="#000000" font-family="sans-serif" font-size="13" lengthAdjust="spacing" textLength="27" x="1015" y="708.0351">data</text><line style="stroke:#181818;stroke-width:1.0;" x1="985" x2="1032" y1="755.5501" y2="755.5501"/><line style="stroke:#181818;stroke-width:1.0;" x1="1032" x2="1032" y1="755.5501" y2="768.5501"/><line style="stroke:#181818;stroke-width:1.0;" x1="991" x2="1032" y1="768.5501" y2="768.5501"/><polygon fill="#181818" points="1001,764.5501,991,768.5501,1001,772.5501,997,768.5501" style="stroke:#181818;stroke-width:1.0;"/><text fill="#000000" font-family="sans-serif" font-size="13" font-weight="bold" lengthAdjust="spacing" textLength="14" x="997" y="749.7411">19</text><text fill="#000000" font-family="sans-serif" font-size="13" lengthAdjust="spacing" textLength="149" x="1015" y="749.7411">createObjectsInFile(data)</text><path d="M901.5,788.5501 L964.5,788.5501 L964.5,798.2562 L954.5,808.2562 L901.5,808.2562 L901.5,788.5501 " fill="#EEEEEE" style="stroke:#000000;stroke-width:1.5;"/><rect fill="none" height="975.2277" style="stroke:#000000;stroke-width:1.5;" width="1439.5" x="901.5" y="788.5501"/><text fill="#000000" font-family="sans-serif" font-size="13" font-weight="bold" lengthAdjust="spacing" textLength="18" x="916.5" y="803.4472">alt</text><text fill="#000000" font-family="sans-serif" font-size="11" font-weight="bold" lengthAdjust="spacing" textLength="103" x="979.5" y="802.3091">[if (type == "land")]</text><polygon fill="#181818" points="1449,827.9622,1459,831.9622,1449,835.9622,1453,831.9622" style="stroke:#181818;stroke-width:1.0;"/><line style="stroke:#181818;stroke-width:1.0;" x1="990" x2="1455" y1="831.9622" y2="831.9622"/><text fill="#000000" font-family="sans-serif" font-size="13" font-weight="bold" lengthAdjust="spacing" textLength="14" x="997" y="826.1532">20</text><text fill="#000000" font-family="sans-serif" font-size="13" lengthAdjust="spacing" textLength="407" x="1015" y="826.1532">create(propertyType, areaOfProperty, distanceFromCentre, address)</text><rect fill="#E3E3E3" height="52.1358" rx="2.5" ry="2.5" style="stroke:#181818;stroke-width:0.5;" width="75" x="1461" y="808.2562"/><text fill="#000000" font-family="sans-serif" font-size="14" lengthAdjust="spacing" textLength="58" x="1469.5" y="830.2221">property</text><text fill="#000000" font-family="sans-serif" font-size="14" lengthAdjust="spacing" textLength="61" x="1468" y="849.29">:Property</text><path d="M1124.5,878.392 L1187.5,878.392 L1187.5,888.098 L1177.5,898.098 L1124.5,898.098 L1124.5,878.392 " fill="#EEEEEE" style="stroke:#000000;stroke-width:1.5;"/><rect fill="none" height="162.9596" style="stroke:#000000;stroke-width:1.5;" width="421.5" x="1124.5" y="878.392"/><text fill="#000000" font-family="sans-serif" font-size="13" font-weight="bold" lengthAdjust="spacing" textLength="18" x="1139.5" y="893.289">alt</text><text fill="#000000" font-family="sans-serif" font-size="11" font-weight="bold" lengthAdjust="spacing" textLength="147" x="1202.5" y="892.1509">[if (propertyLocation == 5)]</text><polygon fill="#181818" points="1218.5,917.804,1208.5,921.804,1218.5,925.804,1214.5,921.804" style="stroke:#181818;stroke-width:1.0;"/><line style="stroke:#181818;stroke-width:1.0;" x1="1212.5" x2="1492.5" y1="921.804" y2="921.804"/><text fill="#000000" font-family="sans-serif" font-size="13" font-weight="bold" lengthAdjust="spacing" textLength="14" x="1224.5" y="915.995">21</text><text fill="#000000" font-family="sans-serif" font-size="13" lengthAdjust="spacing" textLength="244" x="1242.5" y="915.995">create(street, city, district, state, zipCode)</text><rect fill="#E3E3E3" height="52.1358" rx="2.5" ry="2.5" style="stroke:#181818;stroke-width:0.5;" width="73" x="1134.5" y="898.098"/><text fill="#000000" font-family="sans-serif" font-size="14" lengthAdjust="spacing" textLength="54" x="1144" y="920.0639">address</text><text fill="#000000" font-family="sans-serif" font-size="14" lengthAdjust="spacing" textLength="59" x="1141.5" y="939.1319">:Address</text><line style="stroke:#000000;stroke-width:1.0;stroke-dasharray:2.0,2.0;" x1="1124.5" x2="1546" y1="962.2338" y2="962.2338"/><text fill="#000000" font-family="sans-serif" font-size="11" font-weight="bold" lengthAdjust="spacing" textLength="147" x="1129.5" y="973.9928">[if (propertyLocation == 4)]</text><polygon fill="#181818" points="1218.5,997.9218,1208.5,1001.9218,1218.5,1005.9218,1214.5,1001.9218" style="stroke:#181818;stroke-width:1.0;"/><line style="stroke:#181818;stroke-width:1.0;" x1="1212.5" x2="1492.5" y1="1001.9218" y2="1001.9218"/><text fill="#000000" font-family="sans-serif" font-size="13" font-weight="bold" lengthAdjust="spacing" textLength="14" x="1224.5" y="996.1127">22</text><text fill="#000000" font-family="sans-serif" font-size="13" lengthAdjust="spacing" textLength="197" x="1242.5" y="996.1127">create(street, city, state, zipCode)</text><rect fill="#E3E3E3" height="52.1358" rx="2.5" ry="2.5" style="stroke:#181818;stroke-width:0.5;" width="73" x="1134.5" y="978.2157"/><text fill="#000000" font-family="sans-serif" font-size="14" lengthAdjust="spacing" textLength="54" x="1144" y="1000.1817">address</text><text fill="#000000" font-family="sans-serif" font-size="14" lengthAdjust="spacing" textLength="59" x="1141.5" y="1019.2496">:Address</text><polygon fill="#181818" points="2134,1068.0576,2144,1072.0576,2134,1076.0576,2138,1072.0576" style="stroke:#181818;stroke-width:1.0;"/><line style="stroke:#181818;stroke-width:1.0;" x1="990" x2="2140" y1="1072.0576" y2="1072.0576"/><text fill="#000000" font-family="sans-serif" font-size="13" font-weight="bold" lengthAdjust="spacing" textLength="14" x="997" y="1066.2486">23</text><text fill="#000000" font-family="sans-serif" font-size="13" lengthAdjust="spacing" textLength="225" x="1015" y="1066.2486">create(announcement, orderAmount)</text><rect fill="#E3E3E3" height="33.0679" rx="2.5" ry="2.5" style="stroke:#181818;stroke-width:0.5;" width="116" x="2146" y="1048.3516"/><text fill="#000000" font-family="sans-serif" font-size="14" lengthAdjust="spacing" textLength="102" x="2153" y="1070.3175">PurchaseOrder</text><polygon fill="#181818" points="2260,1112.1255,2270,1116.1255,2260,1120.1255,2264,1116.1255" style="stroke:#181818;stroke-width:1.0;"/><line style="stroke:#181818;stroke-width:1.0;" x1="990" x2="2266" y1="1116.1255" y2="1116.1255"/><text fill="#000000" font-family="sans-serif" font-size="13" font-weight="bold" lengthAdjust="spacing" textLength="14" x="997" y="1110.3165">24</text><text fill="#000000" font-family="sans-serif" font-size="13" lengthAdjust="spacing" textLength="473" x="1015" y="1110.3165">create(name, taxNumber, emailAddress, telephoneNumber, role, passportCard)</text><rect fill="#E3E3E3" height="33.0679" rx="2.5" ry="2.5" style="stroke:#181818;stroke-width:0.5;" width="59" x="2272" y="1092.4195"/><text fill="#000000" font-family="sans-serif" font-size="14" lengthAdjust="spacing" textLength="45" x="2279" y="1114.3854">Owner</text><line style="stroke:#000000;stroke-width:1.0;stroke-dasharray:2.0,2.0;" x1="901.5" x2="2341" y1="1137.4874" y2="1137.4874"/><text fill="#000000" font-family="sans-serif" font-size="11" font-weight="bold" lengthAdjust="spacing" textLength="112" x="906.5" y="1149.2463">[if (type == "house")]</text><polygon fill="#181818" points="1534,1190.8813,1544,1194.8813,1534,1198.8813,1538,1194.8813" style="stroke:#181818;stroke-width:1.0;"/><line style="stroke:#181818;stroke-width:1.0;" x1="990" x2="1540" y1="1194.8813" y2="1194.8813"/><text fill="#000000" font-family="sans-serif" font-size="13" font-weight="bold" lengthAdjust="spacing" textLength="14" x="997" y="1180.2193">25</text><text fill="#000000" font-family="sans-serif" font-size="13" lengthAdjust="spacing" textLength="474" x="1015" y="1171.3663">create(propertyType, areaOfProperty, distanceFromCentre, address, bedrooms,</text><text fill="#000000" font-family="sans-serif" font-size="13" lengthAdjust="spacing" textLength="412" x="1018" y="1189.0723">bathrooms, parkingSpaces, basement, loft, sunExposure, equipment)</text><rect fill="#E3E3E3" height="52.1358" rx="2.5" ry="2.5" style="stroke:#181818;stroke-width:0.5;" width="60" x="1546" y="1153.4693"/><text fill="#000000" font-family="sans-serif" font-size="14" lengthAdjust="spacing" textLength="41" x="1555.5" y="1175.4352">house</text><text fill="#000000" font-family="sans-serif" font-size="14" lengthAdjust="spacing" textLength="46" x="1553" y="1194.5031">:House</text><path d="M1124.5,1223.6051 L1187.5,1223.6051 L1187.5,1233.3111 L1177.5,1243.3111 L1124.5,1243.3111 L1124.5,1223.6051 " fill="#EEEEEE" style="stroke:#000000;stroke-width:1.5;"/><rect fill="none" height="162.9596" style="stroke:#000000;stroke-width:1.5;" width="491.5" x="1124.5" y="1223.6051"/><text fill="#000000" font-family="sans-serif" font-size="13" font-weight="bold" lengthAdjust="spacing" textLength="18" x="1139.5" y="1238.5021">alt</text><text fill="#000000" font-family="sans-serif" font-size="11" font-weight="bold" lengthAdjust="spacing" textLength="147" x="1202.5" y="1237.364">[if (propertyLocation == 5)]</text><polygon fill="#181818" points="1218.5,1263.0172,1208.5,1267.0172,1218.5,1271.0172,1214.5,1267.0172" style="stroke:#181818;stroke-width:1.0;"/><line style="stroke:#181818;stroke-width:1.0;" x1="1212.5" x2="1570" y1="1267.0172" y2="1267.0172"/><text fill="#000000" font-family="sans-serif" font-size="13" font-weight="bold" lengthAdjust="spacing" textLength="14" x="1224.5" y="1261.2082">26</text><text fill="#000000" font-family="sans-serif" font-size="13" lengthAdjust="spacing" textLength="244" x="1242.5" y="1261.2082">create(street, city, district, state, zipCode)</text><rect fill="#E3E3E3" height="52.1358" rx="2.5" ry="2.5" style="stroke:#181818;stroke-width:0.5;" width="73" x="1134.5" y="1243.3111"/><text fill="#000000" font-family="sans-serif" font-size="14" lengthAdjust="spacing" textLength="54" x="1144" y="1265.2771">address</text><text fill="#000000" font-family="sans-serif" font-size="14" lengthAdjust="spacing" textLength="59" x="1141.5" y="1284.345">:Address</text><line style="stroke:#000000;stroke-width:1.0;stroke-dasharray:2.0,2.0;" x1="1124.5" x2="1616" y1="1307.447" y2="1307.447"/><text fill="#000000" font-family="sans-serif" font-size="11" font-weight="bold" lengthAdjust="spacing" textLength="147" x="1129.5" y="1319.2059">[if (propertyLocation == 4)]</text><polygon fill="#181818" points="1218.5,1343.1349,1208.5,1347.1349,1218.5,1351.1349,1214.5,1347.1349" style="stroke:#181818;stroke-width:1.0;"/><line style="stroke:#181818;stroke-width:1.0;" x1="1212.5" x2="1570" y1="1347.1349" y2="1347.1349"/><text fill="#000000" font-family="sans-serif" font-size="13" font-weight="bold" lengthAdjust="spacing" textLength="14" x="1224.5" y="1341.3259">27</text><text fill="#000000" font-family="sans-serif" font-size="13" lengthAdjust="spacing" textLength="197" x="1242.5" y="1341.3259">create(street, city, state, zipCode)</text><rect fill="#E3E3E3" height="52.1358" rx="2.5" ry="2.5" style="stroke:#181818;stroke-width:0.5;" width="73" x="1134.5" y="1323.4289"/><text fill="#000000" font-family="sans-serif" font-size="14" lengthAdjust="spacing" textLength="54" x="1144" y="1345.3948">address</text><text fill="#000000" font-family="sans-serif" font-size="14" lengthAdjust="spacing" textLength="59" x="1141.5" y="1364.4627">:Address</text><polygon fill="#181818" points="2134,1413.2707,2144,1417.2707,2134,1421.2707,2138,1417.2707" style="stroke:#181818;stroke-width:1.0;"/><line style="stroke:#181818;stroke-width:1.0;" x1="990" x2="2140" y1="1417.2707" y2="1417.2707"/><text fill="#000000" font-family="sans-serif" font-size="13" font-weight="bold" lengthAdjust="spacing" textLength="14" x="997" y="1411.4617">28</text><text fill="#000000" font-family="sans-serif" font-size="13" lengthAdjust="spacing" textLength="225" x="1015" y="1411.4617">create(announcement, orderAmount)</text><rect fill="#E3E3E3" height="33.0679" rx="2.5" ry="2.5" style="stroke:#181818;stroke-width:0.5;" width="116" x="2146" y="1393.5647"/><text fill="#000000" font-family="sans-serif" font-size="14" lengthAdjust="spacing" textLength="102" x="2153" y="1415.5306">PurchaseOrder</text><polygon fill="#181818" points="2260,1457.3386,2270,1461.3386,2260,1465.3386,2264,1461.3386" style="stroke:#181818;stroke-width:1.0;"/><line style="stroke:#181818;stroke-width:1.0;" x1="990" x2="2266" y1="1461.3386" y2="1461.3386"/><text fill="#000000" font-family="sans-serif" font-size="13" font-weight="bold" lengthAdjust="spacing" textLength="14" x="997" y="1455.5296">29</text><text fill="#000000" font-family="sans-serif" font-size="13" lengthAdjust="spacing" textLength="407" x="1015" y="1455.5296">create(propertyType, areaOfProperty, distanceFromCentre, address)</text><rect fill="#E3E3E3" height="33.0679" rx="2.5" ry="2.5" style="stroke:#181818;stroke-width:0.5;" width="59" x="2272" y="1437.6326"/><text fill="#000000" font-family="sans-serif" font-size="14" lengthAdjust="spacing" textLength="45" x="2279" y="1459.5985">Owner</text><line style="stroke:#000000;stroke-width:1.0;stroke-dasharray:2.0,2.0;" x1="901.5" x2="2341" y1="1482.7005" y2="1482.7005"/><text fill="#000000" font-family="sans-serif" font-size="11" font-weight="bold" lengthAdjust="spacing" textLength="140" x="906.5" y="1494.4594">[if (type == "apartment")]</text><path d="M1124.5,1505.6824 L1187.5,1505.6824 L1187.5,1515.3884 L1177.5,1525.3884 L1124.5,1525.3884 L1124.5,1505.6824 " fill="#EEEEEE" style="stroke:#000000;stroke-width:1.5;"/><rect fill="none" height="162.9596" style="stroke:#000000;stroke-width:1.5;" width="576.5" x="1124.5" y="1505.6824"/><text fill="#000000" font-family="sans-serif" font-size="13" font-weight="bold" lengthAdjust="spacing" textLength="18" x="1139.5" y="1520.5794">alt</text><text fill="#000000" font-family="sans-serif" font-size="11" font-weight="bold" lengthAdjust="spacing" textLength="147" x="1202.5" y="1519.4413">[if (propertyLocation == 5)]</text><polygon fill="#181818" points="1218.5,1545.0945,1208.5,1549.0945,1218.5,1553.0945,1214.5,1549.0945" style="stroke:#181818;stroke-width:1.0;"/><line style="stroke:#181818;stroke-width:1.0;" x1="1212.5" x2="1652.5" y1="1549.0945" y2="1549.0945"/><text fill="#000000" font-family="sans-serif" font-size="13" font-weight="bold" lengthAdjust="spacing" textLength="14" x="1224.5" y="1543.2854">30</text><text fill="#000000" font-family="sans-serif" font-size="13" lengthAdjust="spacing" textLength="244" x="1242.5" y="1543.2854">create(street, city, district, state, zipCode)</text><rect fill="#E3E3E3" height="52.1358" rx="2.5" ry="2.5" style="stroke:#181818;stroke-width:0.5;" width="73" x="1134.5" y="1525.3884"/><text fill="#000000" font-family="sans-serif" font-size="14" lengthAdjust="spacing" textLength="54" x="1144" y="1547.3544">address</text><text fill="#000000" font-family="sans-serif" font-size="14" lengthAdjust="spacing" textLength="59" x="1141.5" y="1566.4223">:Address</text><line style="stroke:#000000;stroke-width:1.0;stroke-dasharray:2.0,2.0;" x1="1124.5" x2="1701" y1="1589.5243" y2="1589.5243"/><text fill="#000000" font-family="sans-serif" font-size="11" font-weight="bold" lengthAdjust="spacing" textLength="147" x="1129.5" y="1601.2832">[if (propertyLocation == 4)]</text><polygon fill="#181818" points="1218.5,1625.2122,1208.5,1629.2122,1218.5,1633.2122,1214.5,1629.2122" style="stroke:#181818;stroke-width:1.0;"/><line style="stroke:#181818;stroke-width:1.0;" x1="1212.5" x2="1652.5" y1="1629.2122" y2="1629.2122"/><text fill="#000000" font-family="sans-serif" font-size="13" font-weight="bold" lengthAdjust="spacing" textLength="14" x="1224.5" y="1623.4032">31</text><text fill="#000000" font-family="sans-serif" font-size="13" lengthAdjust="spacing" textLength="197" x="1242.5" y="1623.4032">create(street, city, state, zipCode)</text><rect fill="#E3E3E3" height="52.1358" rx="2.5" ry="2.5" style="stroke:#181818;stroke-width:0.5;" width="73" x="1134.5" y="1605.5062"/><text fill="#000000" font-family="sans-serif" font-size="14" lengthAdjust="spacing" textLength="54" x="1144" y="1627.4721">address</text><text fill="#000000" font-family="sans-serif" font-size="14" lengthAdjust="spacing" textLength="59" x="1141.5" y="1646.54">:Address</text><polygon fill="#181818" points="2134,1695.348,2144,1699.348,2134,1703.348,2138,1699.348" style="stroke:#181818;stroke-width:1.0;"/><line style="stroke:#181818;stroke-width:1.0;" x1="990" x2="2140" y1="1699.348" y2="1699.348"/><text fill="#000000" font-family="sans-serif" font-size="13" font-weight="bold" lengthAdjust="spacing" textLength="14" x="997" y="1693.539">32</text><text fill="#000000" font-family="sans-serif" font-size="13" lengthAdjust="spacing" textLength="407" x="1015" y="1693.539">create(propertyType, areaOfProperty, distanceFromCentre, address)</text><rect fill="#E3E3E3" height="33.0679" rx="2.5" ry="2.5" style="stroke:#181818;stroke-width:0.5;" width="116" x="2146" y="1675.642"/><text fill="#000000" font-family="sans-serif" font-size="14" lengthAdjust="spacing" textLength="102" x="2153" y="1697.6079">PurchaseOrder</text><polygon fill="#181818" points="2260,1739.4159,2270,1743.4159,2260,1747.4159,2264,1743.4159" style="stroke:#181818;stroke-width:1.0;"/><line style="stroke:#181818;stroke-width:1.0;" x1="990" x2="2266" y1="1743.4159" y2="1743.4159"/><text fill="#000000" font-family="sans-serif" font-size="13" font-weight="bold" lengthAdjust="spacing" textLength="14" x="997" y="1737.6069">33</text><text fill="#000000" font-family="sans-serif" font-size="13" lengthAdjust="spacing" textLength="407" x="1015" y="1737.6069">create(propertyType, areaOfProperty, distanceFromCentre, address)</text><rect fill="#E3E3E3" height="33.0679" rx="2.5" ry="2.5" style="stroke:#181818;stroke-width:0.5;" width="59" x="2272" y="1719.7099"/><text fill="#000000" font-family="sans-serif" font-size="14" lengthAdjust="spacing" textLength="45" x="2279" y="1741.6758">Owner</text><line style="stroke:#181818;stroke-width:1.0;stroke-dasharray:2.0,2.0;" x1="990" x2="1032" y1="1799.4838" y2="1799.4838"/><line style="stroke:#181818;stroke-width:1.0;stroke-dasharray:2.0,2.0;" x1="1032" x2="1032" y1="1799.4838" y2="1812.4838"/><line style="stroke:#181818;stroke-width:1.0;stroke-dasharray:2.0,2.0;" x1="985" x2="1032" y1="1812.4838" y2="1812.4838"/><polygon fill="#181818" points="995,1808.4838,985,1812.4838,995,1816.4838,991,1812.4838" style="stroke:#181818;stroke-width:1.0;"/><text fill="#000000" font-family="sans-serif" font-size="13" font-weight="bold" lengthAdjust="spacing" textLength="14" x="997" y="1793.6748">34</text><text fill="#000000" font-family="sans-serif" font-size="13" lengthAdjust="spacing" textLength="33" x="1015" y="1793.6748">order</text><polygon fill="#181818" points="591.5,1835.1899,581.5,1839.1899,591.5,1843.1899,587.5,1839.1899" style="stroke:#181818;stroke-width:1.0;"/><line style="stroke:#181818;stroke-width:1.0;stroke-dasharray:2.0,2.0;" x1="585.5" x2="979" y1="1839.1899" y2="1839.1899"/><text fill="#000000" font-family="sans-serif" font-size="13" font-weight="bold" lengthAdjust="spacing" textLength="14" x="597.5" y="1833.3809">35</text><text fill="#000000" font-family="sans-serif" font-size="13" lengthAdjust="spacing" textLength="33" x="615.5" y="1833.3809">order</text><polygon fill="#181818" points="399.5,1866.8959,389.5,1870.8959,399.5,1874.8959,395.5,1870.8959" style="stroke:#181818;stroke-width:1.0;"/><line style="stroke:#181818;stroke-width:1.0;stroke-dasharray:2.0,2.0;" x1="393.5" x2="574.5" y1="1870.8959" y2="1870.8959"/><text fill="#000000" font-family="sans-serif" font-size="13" font-weight="bold" lengthAdjust="spacing" textLength="14" x="405.5" y="1865.0869">36</text><text fill="#000000" font-family="sans-serif" font-size="13" lengthAdjust="spacing" textLength="33" x="423.5" y="1865.0869">order</text><polygon fill="#181818" points="70.5,1898.6019,60.5,1902.6019,70.5,1906.6019,66.5,1902.6019" style="stroke:#181818;stroke-width:1.0;"/><line style="stroke:#181818;stroke-width:1.0;stroke-dasharray:2.0,2.0;" x1="64.5" x2="382.5" y1="1902.6019" y2="1902.6019"/><text fill="#000000" font-family="sans-serif" font-size="13" font-weight="bold" lengthAdjust="spacing" textLength="14" x="76.5" y="1896.7929">37</text><text fill="#000000" font-family="sans-serif" font-size="13" lengthAdjust="spacing" textLength="148" x="94.5" y="1896.7929">shows operation success</text><!--SRC=[pLXDSzis4BthL-peKYaZtzgBPv8PLscccb4hJ-pqb0j4hYJ49C02O6prrtS1a1GXWXOviIV6HI2m-_2mU8iFwGSk2gPO3haKCZaecICOLU94Dpq5InxO7k_CCKDGc1WczbdRG1zOAX-vsCEEPHed4rOQASfyYseo-UN0KuITb6OhdwWhCLB1z2RDkU3QA4QVKs0QRZx-DI4umnDUC65WUhtA2wdC6lSiENvaXdrPESClgmjsIocCabc67dXv_tbzvl4P2wavZSnHEvkcuNZ7xUI8VkYYMXvVHHVWTdrp7tea-liddk49cToMT_-4RPxWUMi8nD9KeRQZtlYQ3vUlXwPIfQZ8S6D_dPchdH7BE0fZsRYAf-2geLsXP87AMDwtLTLFjVe8hG-or4YcVzfVP-TgeT6sv5bA0IQxtwkgCwq_eWGen44GRoFDRM91HoG-0TWcR3d5h0_2HozSrREcLaHRA5Rv_3ipw9G-0IfKWQiF96Yu9fS73KO2Ts86BdPIvSnmAM17IGaCCYTmq4TjC7V-3IAbX6iW9CApWd_tZZ0JXTHxraFjUpILvlHi7YAvP75DjZXxyekaXuTP2KsxGO8LJ00Lowd6ofOOwbN5yXhQ6TUufJWClYPkqpAOyCahHjbbSS3H0LoTGjV9wXYr4ARcqc4GNObmDJexGq2kYzXbkgPDDiRn6MXFk1RcEKuRen6BbHSvM45Vqt4W7pLav01oPmU2dPtWkNSjsdOMQCpeVD6DKrpcFIDwPqmXfKDWq6ZbDkSqMcFVEr8JLP-ULV1cLMnYAnVaqIKPN40TembRCYaBU3oGbLqz5qWuCBiaWfQXOzuZfLx5sZFs4-r9QuARpQDmOzXUK7E4GxDUvsMOlkk28kqs3Ww4trmtsszMi2lXLiuIwmRaEKxnw6Lq0EnWPeu5mlltCCsOIAVpKQ7xq9pJhQDWLf_fzuIy04QDcrrjju2K-ztSBkwIJYzbRVmzOzuxzcdNg-y5lQRjkTLCrZBnfnpDyxVvyxxr27PsrVsdFJcwJIAQ1IIydepY2NtJf0pDv3zUB6MA5yP0ki3s4lpr9GcEenNJQe_qJminKZ2bIcYRG7V_QVDcGiYIT96J9XRWBb4tERMOiPBSF8eGMR2SGc3Oqz_kjR00p1dFgj1H1-tenK4AhBlfMa_s1TFQRPXCfVEUMJRhs2IHkw6EpY9tYtsH55h05bCbPQuNNmLicJdu3vgEegVK_exUMMYjQ0byf3Evi_8jnHzFHAcqMFXloGlREo0X_GNyrRBHmR_PL1pExkNoi9M3LUpVV0B-m84mDE-OVJzPvjFvvFNKM3yXtwmWHn5yjREXUMc_b3H_H40_JxgZmZZyOkeoSpBkLZhyHTT57txV3Tzq7YdwB0pUBP57beslrxmkayJ-0nLvQDdoFm00]--></g></svg>