<?xml version="1.0" encoding="us-ascii" standalone="no"?><svg xmlns="http://www.w3.org/2000/svg" xmlns:xlink="http://www.w3.org/1999/xlink" contentStyleType="text/css" height="1220px" preserveAspectRatio="none" style="width:927px;height:1220px;background:#FFFFFF;" version="1.1" viewBox="0 0 927 1220" width="927px" zoomAndPan="magnify"><defs/><g><!--class ImportLegacyDataUI--><g id="elem_ImportLegacyDataUI"><rect codeLine="11" fill="#F1F1F1" height="48" id="ImportLegacyDataUI" rx="2.5" ry="2.5" style="stroke:#181818;stroke-width:0.5;" width="170" x="75.5" y="7"/><ellipse cx="90.5" cy="23" fill="#ADD1B2" rx="11" ry="11" style="stroke:#181818;stroke-width:1.0;"/><path d="M89.9688,29.6719 Q88.2188,29.6719 87.0781,28.9375 Q85.9531,28.1875 85.3906,26.8438 Q84.8438,25.4844 84.8438,23.6875 Q84.8438,21.6563 85.5,20.2031 Q86.1563,18.75 87.4375,17.9688 Q88.7188,17.1875 90.5938,17.1875 Q91.4844,17.1875 92.1563,17.375 Q92.8281,17.5469 93.5156,17.8906 L92.7031,19.9063 Q92.0781,19.5938 91.5313,19.4688 Q91,19.3438 90.5156,19.3438 Q89.3438,19.3438 88.6406,19.875 Q87.9375,20.4063 87.6406,21.3594 Q87.3438,22.3125 87.3438,23.5781 Q87.3438,25.5938 88.0625,26.5625 Q88.7813,27.5156 90.375,27.5156 Q90.9688,27.5156 91.5938,27.3594 Q92.2188,27.2031 93.0469,26.8281 L93.0469,29.0469 Q92.3125,29.3594 91.5156,29.5156 Q90.7344,29.6719 89.9688,29.6719 Z " fill="#000000"/><text fill="#000000" font-family="sans-serif" font-size="14" lengthAdjust="spacing" textLength="138" x="104.5" y="28.432">ImportLegacyDataUI</text><line style="stroke:#181818;stroke-width:0.5;" x1="76.5" x2="244.5" y1="39" y2="39"/><line style="stroke:#181818;stroke-width:0.5;" x1="76.5" x2="244.5" y1="47" y2="47"/></g><!--class ImportLegacyDataController--><g id="elem_ImportLegacyDataController"><rect codeLine="13" fill="#F1F1F1" height="48" id="ImportLegacyDataController" rx="2.5" ry="2.5" style="stroke:#181818;stroke-width:0.5;" width="222" x="49.5" y="116"/><ellipse cx="64.5" cy="132" fill="#ADD1B2" rx="11" ry="11" style="stroke:#181818;stroke-width:1.0;"/><path d="M63.9688,138.6719 Q62.2188,138.6719 61.0781,137.9375 Q59.9531,137.1875 59.3906,135.8438 Q58.8438,134.4844 58.8438,132.6875 Q58.8438,130.6563 59.5,129.2031 Q60.1563,127.75 61.4375,126.9688 Q62.7188,126.1875 64.5938,126.1875 Q65.4844,126.1875 66.1563,126.375 Q66.8281,126.5469 67.5156,126.8906 L66.7031,128.9063 Q66.0781,128.5938 65.5313,128.4688 Q65,128.3438 64.5156,128.3438 Q63.3438,128.3438 62.6406,128.875 Q61.9375,129.4063 61.6406,130.3594 Q61.3438,131.3125 61.3438,132.5781 Q61.3438,134.5938 62.0625,135.5625 Q62.7813,136.5156 64.375,136.5156 Q64.9688,136.5156 65.5938,136.3594 Q66.2188,136.2031 67.0469,135.8281 L67.0469,138.0469 Q66.3125,138.3594 65.5156,138.5156 Q64.7344,138.6719 63.9688,138.6719 Z " fill="#000000"/><text fill="#000000" font-family="sans-serif" font-size="14" lengthAdjust="spacing" textLength="190" x="78.5" y="137.432">ImportLegacyDataController</text><line style="stroke:#181818;stroke-width:0.5;" x1="50.5" x2="270.5" y1="148" y2="148"/><line style="stroke:#181818;stroke-width:0.5;" x1="50.5" x2="270.5" y1="156" y2="156"/></g><!--class Repositories--><g id="elem_Repositories"><rect codeLine="15" fill="#F1F1F1" height="124.2717" id="Repositories" rx="2.5" ry="2.5" style="stroke:#181818;stroke-width:0.5;" width="203" x="59" y="225"/><ellipse cx="114.75" cy="241" fill="#ADD1B2" rx="11" ry="11" style="stroke:#181818;stroke-width:1.0;"/><path d="M114.2188,247.6719 Q112.4688,247.6719 111.3281,246.9375 Q110.2031,246.1875 109.6406,244.8438 Q109.0938,243.4844 109.0938,241.6875 Q109.0938,239.6563 109.75,238.2031 Q110.4063,236.75 111.6875,235.9688 Q112.9688,235.1875 114.8438,235.1875 Q115.7344,235.1875 116.4063,235.375 Q117.0781,235.5469 117.7656,235.8906 L116.9531,237.9063 Q116.3281,237.5938 115.7813,237.4688 Q115.25,237.3438 114.7656,237.3438 Q113.5938,237.3438 112.8906,237.875 Q112.1875,238.4063 111.8906,239.3594 Q111.5938,240.3125 111.5938,241.5781 Q111.5938,243.5938 112.3125,244.5625 Q113.0313,245.5156 114.625,245.5156 Q115.2188,245.5156 115.8438,245.3594 Q116.4688,245.2031 117.2969,244.8281 L117.2969,247.0469 Q116.5625,247.3594 115.7656,247.5156 Q114.9844,247.6719 114.2188,247.6719 Z " fill="#000000"/><text fill="#000000" font-family="sans-serif" font-size="14" lengthAdjust="spacing" textLength="83" x="135.25" y="246.432">Repositories</text><line style="stroke:#181818;stroke-width:0.5;" x1="60" x2="261" y1="257" y2="257"/><line style="stroke:#181818;stroke-width:0.5;" x1="60" x2="261" y1="265" y2="265"/><text fill="#000000" font-family="sans-serif" font-size="14" lengthAdjust="spacing" textLength="96" x="65" y="283.9659">-Repositories()</text><text fill="#000000" font-family="sans-serif" font-size="14" lengthAdjust="spacing" textLength="191" x="65" y="303.0339">+getInstance() : Repositories</text><text fill="#000000" font-family="sans-serif" font-size="14" lengthAdjust="spacing" textLength="157" x="65" y="322.1018">+getCSVFileRepository()</text><text fill="#000000" font-family="sans-serif" font-size="14" lengthAdjust="spacing" textLength="149" x="65" y="341.1697">+getOrderRepository()</text></g><!--class CSVFileRepository--><g id="elem_CSVFileRepository"><rect codeLine="22" fill="#F1F1F1" height="67.0679" id="CSVFileRepository" rx="2.5" ry="2.5" style="stroke:#181818;stroke-width:0.5;" width="151" x="7" y="410"/><ellipse cx="22" cy="426" fill="#ADD1B2" rx="11" ry="11" style="stroke:#181818;stroke-width:1.0;"/><path d="M21.4688,432.6719 Q19.7188,432.6719 18.5781,431.9375 Q17.4531,431.1875 16.8906,429.8438 Q16.3438,428.4844 16.3438,426.6875 Q16.3438,424.6563 17,423.2031 Q17.6563,421.75 18.9375,420.9688 Q20.2188,420.1875 22.0938,420.1875 Q22.9844,420.1875 23.6563,420.375 Q24.3281,420.5469 25.0156,420.8906 L24.2031,422.9063 Q23.5781,422.5938 23.0313,422.4688 Q22.5,422.3438 22.0156,422.3438 Q20.8438,422.3438 20.1406,422.875 Q19.4375,423.4063 19.1406,424.3594 Q18.8438,425.3125 18.8438,426.5781 Q18.8438,428.5938 19.5625,429.5625 Q20.2813,430.5156 21.875,430.5156 Q22.4688,430.5156 23.0938,430.3594 Q23.7188,430.2031 24.5469,429.8281 L24.5469,432.0469 Q23.8125,432.3594 23.0156,432.5156 Q22.2344,432.6719 21.4688,432.6719 Z " fill="#000000"/><text fill="#000000" font-family="sans-serif" font-size="14" lengthAdjust="spacing" textLength="119" x="36" y="431.432">CSVFileRepository</text><line style="stroke:#181818;stroke-width:0.5;" x1="8" x2="157" y1="442" y2="442"/><line style="stroke:#181818;stroke-width:0.5;" x1="8" x2="157" y1="450" y2="450"/><text fill="#000000" font-family="sans-serif" font-size="14" lengthAdjust="spacing" textLength="93" x="13" y="468.9659">+getCSVFiles()</text></g><!--class OrderRepository--><g id="elem_OrderRepository"><rect codeLine="26" fill="#F1F1F1" height="48" id="OrderRepository" rx="2.5" ry="2.5" style="stroke:#181818;stroke-width:0.5;" width="143" x="259" y="419.5"/><ellipse cx="274" cy="435.5" fill="#ADD1B2" rx="11" ry="11" style="stroke:#181818;stroke-width:1.0;"/><path d="M273.4688,442.1719 Q271.7188,442.1719 270.5781,441.4375 Q269.4531,440.6875 268.8906,439.3438 Q268.3438,437.9844 268.3438,436.1875 Q268.3438,434.1563 269,432.7031 Q269.6563,431.25 270.9375,430.4688 Q272.2188,429.6875 274.0938,429.6875 Q274.9844,429.6875 275.6563,429.875 Q276.3281,430.0469 277.0156,430.3906 L276.2031,432.4063 Q275.5781,432.0938 275.0313,431.9688 Q274.5,431.8438 274.0156,431.8438 Q272.8438,431.8438 272.1406,432.375 Q271.4375,432.9063 271.1406,433.8594 Q270.8438,434.8125 270.8438,436.0781 Q270.8438,438.0938 271.5625,439.0625 Q272.2813,440.0156 273.875,440.0156 Q274.4688,440.0156 275.0938,439.8594 Q275.7188,439.7031 276.5469,439.3281 L276.5469,441.5469 Q275.8125,441.8594 275.0156,442.0156 Q274.2344,442.1719 273.4688,442.1719 Z " fill="#000000"/><text fill="#000000" font-family="sans-serif" font-size="14" lengthAdjust="spacing" textLength="111" x="288" y="440.932">OrderRepository</text><line style="stroke:#181818;stroke-width:0.5;" x1="260" x2="401" y1="451.5" y2="451.5"/><line style="stroke:#181818;stroke-width:0.5;" x1="260" x2="401" y1="459.5" y2="459.5"/></g><!--class PropertyType--><g id="elem_PropertyType"><rect codeLine="30" fill="#F1F1F1" height="67.0679" id="PropertyType" rx="2.5" ry="2.5" style="stroke:#181818;stroke-width:0.5;" width="129" x="182" y="924"/><ellipse cx="200.6" cy="940" fill="#ADD1B2" rx="11" ry="11" style="stroke:#181818;stroke-width:1.0;"/><path d="M200.0688,946.6719 Q198.3188,946.6719 197.1781,945.9375 Q196.0531,945.1875 195.4906,943.8438 Q194.9438,942.4844 194.9438,940.6875 Q194.9438,938.6563 195.6,937.2031 Q196.2563,935.75 197.5375,934.9688 Q198.8188,934.1875 200.6938,934.1875 Q201.5844,934.1875 202.2563,934.375 Q202.9281,934.5469 203.6156,934.8906 L202.8031,936.9063 Q202.1781,936.5938 201.6313,936.4688 Q201.1,936.3438 200.6156,936.3438 Q199.4438,936.3438 198.7406,936.875 Q198.0375,937.4063 197.7406,938.3594 Q197.4438,939.3125 197.4438,940.5781 Q197.4438,942.5938 198.1625,943.5625 Q198.8813,944.5156 200.475,944.5156 Q201.0688,944.5156 201.6938,944.3594 Q202.3188,944.2031 203.1469,943.8281 L203.1469,946.0469 Q202.4125,946.3594 201.6156,946.5156 Q200.8344,946.6719 200.0688,946.6719 Z " fill="#000000"/><text fill="#000000" font-family="sans-serif" font-size="14" lengthAdjust="spacing" textLength="89" x="215.4" y="945.432">PropertyType</text><line style="stroke:#181818;stroke-width:0.5;" x1="183" x2="310" y1="956" y2="956"/><text fill="#000000" font-family="sans-serif" font-size="14" lengthAdjust="spacing" textLength="117" x="188" y="974.9659">-int propertyType</text><line style="stroke:#181818;stroke-width:0.5;" x1="183" x2="310" y1="983.0679" y2="983.0679"/></g><!--class BusinessType--><g id="elem_BusinessType"><rect codeLine="34" fill="#F1F1F1" height="67.0679" id="BusinessType" rx="2.5" ry="2.5" style="stroke:#181818;stroke-width:0.5;" width="154" x="431.5" y="556"/><ellipse cx="460" cy="572" fill="#ADD1B2" rx="11" ry="11" style="stroke:#181818;stroke-width:1.0;"/><path d="M459.4688,578.6719 Q457.7188,578.6719 456.5781,577.9375 Q455.4531,577.1875 454.8906,575.8438 Q454.3438,574.4844 454.3438,572.6875 Q454.3438,570.6563 455,569.2031 Q455.6563,567.75 456.9375,566.9688 Q458.2188,566.1875 460.0938,566.1875 Q460.9844,566.1875 461.6563,566.375 Q462.3281,566.5469 463.0156,566.8906 L462.2031,568.9063 Q461.5781,568.5938 461.0313,568.4688 Q460.5,568.3438 460.0156,568.3438 Q458.8438,568.3438 458.1406,568.875 Q457.4375,569.4063 457.1406,570.3594 Q456.8438,571.3125 456.8438,572.5781 Q456.8438,574.5938 457.5625,575.5625 Q458.2813,576.5156 459.875,576.5156 Q460.4688,576.5156 461.0938,576.3594 Q461.7188,576.2031 462.5469,575.8281 L462.5469,578.0469 Q461.8125,578.3594 461.0156,578.5156 Q460.2344,578.6719 459.4688,578.6719 Z " fill="#000000"/><text fill="#000000" font-family="sans-serif" font-size="14" lengthAdjust="spacing" textLength="92" x="477" y="577.432">BusinessType</text><line style="stroke:#181818;stroke-width:0.5;" x1="432.5" x2="584.5" y1="588" y2="588"/><text fill="#000000" font-family="sans-serif" font-size="14" lengthAdjust="spacing" textLength="142" x="437.5" y="606.9659">-String businessType</text><line style="stroke:#181818;stroke-width:0.5;" x1="432.5" x2="584.5" y1="615.0679" y2="615.0679"/></g><!--class Address--><g id="elem_Address"><rect codeLine="38" fill="#F1F1F1" height="143.3396" id="Address" rx="2.5" ry="2.5" style="stroke:#181818;stroke-width:0.5;" width="154" x="346.5" y="886"/><ellipse cx="391.75" cy="902" fill="#ADD1B2" rx="11" ry="11" style="stroke:#181818;stroke-width:1.0;"/><path d="M391.2188,908.6719 Q389.4688,908.6719 388.3281,907.9375 Q387.2031,907.1875 386.6406,905.8438 Q386.0938,904.4844 386.0938,902.6875 Q386.0938,900.6563 386.75,899.2031 Q387.4063,897.75 388.6875,896.9688 Q389.9688,896.1875 391.8438,896.1875 Q392.7344,896.1875 393.4063,896.375 Q394.0781,896.5469 394.7656,896.8906 L393.9531,898.9063 Q393.3281,898.5938 392.7813,898.4688 Q392.25,898.3438 391.7656,898.3438 Q390.5938,898.3438 389.8906,898.875 Q389.1875,899.4063 388.8906,900.3594 Q388.5938,901.3125 388.5938,902.5781 Q388.5938,904.5938 389.3125,905.5625 Q390.0313,906.5156 391.625,906.5156 Q392.2188,906.5156 392.8438,906.3594 Q393.4688,906.2031 394.2969,905.8281 L394.2969,908.0469 Q393.5625,908.3594 392.7656,908.5156 Q391.9844,908.6719 391.2188,908.6719 Z " fill="#000000"/><text fill="#000000" font-family="sans-serif" font-size="14" lengthAdjust="spacing" textLength="55" x="412.25" y="907.432">Address</text><line style="stroke:#181818;stroke-width:0.5;" x1="347.5" x2="499.5" y1="918" y2="918"/><text fill="#000000" font-family="sans-serif" font-size="14" lengthAdjust="spacing" textLength="89" x="352.5" y="936.9659">-String street</text><text fill="#000000" font-family="sans-serif" font-size="14" lengthAdjust="spacing" textLength="113" x="352.5" y="956.0339">-String cityName</text><text fill="#000000" font-family="sans-serif" font-size="14" lengthAdjust="spacing" textLength="137" x="352.5" y="975.1018">-String districtName</text><text fill="#000000" font-family="sans-serif" font-size="14" lengthAdjust="spacing" textLength="142" x="352.5" y="994.1697">-String stateAcronym</text><text fill="#000000" font-family="sans-serif" font-size="14" lengthAdjust="spacing" textLength="113" x="352.5" y="1013.2376">-Integer zipCode</text><line style="stroke:#181818;stroke-width:0.5;" x1="347.5" x2="499.5" y1="1021.3396" y2="1021.3396"/></g><!--class Order--><g id="elem_Order"><rect codeLine="46" fill="#F1F1F1" height="48" id="Order" rx="2.5" ry="2.5" style="stroke:#181818;stroke-width:0.5;" width="72" x="294.5" y="565.5"/><ellipse cx="309.5" cy="581.5" fill="#ADD1B2" rx="11" ry="11" style="stroke:#181818;stroke-width:1.0;"/><path d="M308.9688,588.1719 Q307.2188,588.1719 306.0781,587.4375 Q304.9531,586.6875 304.3906,585.3438 Q303.8438,583.9844 303.8438,582.1875 Q303.8438,580.1563 304.5,578.7031 Q305.1563,577.25 306.4375,576.4688 Q307.7188,575.6875 309.5938,575.6875 Q310.4844,575.6875 311.1563,575.875 Q311.8281,576.0469 312.5156,576.3906 L311.7031,578.4063 Q311.0781,578.0938 310.5313,577.9688 Q310,577.8438 309.5156,577.8438 Q308.3438,577.8438 307.6406,578.375 Q306.9375,578.9063 306.6406,579.8594 Q306.3438,580.8125 306.3438,582.0781 Q306.3438,584.0938 307.0625,585.0625 Q307.7813,586.0156 309.375,586.0156 Q309.9688,586.0156 310.5938,585.8594 Q311.2188,585.7031 312.0469,585.3281 L312.0469,587.5469 Q311.3125,587.8594 310.5156,588.0156 Q309.7344,588.1719 308.9688,588.1719 Z " fill="#000000"/><text fill="#000000" font-family="sans-serif" font-size="14" lengthAdjust="spacing" textLength="40" x="323.5" y="586.932">Order</text><line style="stroke:#181818;stroke-width:0.5;" x1="295.5" x2="365.5" y1="597.5" y2="597.5"/><line style="stroke:#181818;stroke-width:0.5;" x1="295.5" x2="365.5" y1="605.5" y2="605.5"/></g><!--class Commission--><g id="elem_Commission"><rect codeLine="49" fill="#F1F1F1" height="86.1358" id="Commission" rx="2.5" ry="2.5" style="stroke:#181818;stroke-width:0.5;" width="202" x="198.5" y="711.5"/><ellipse cx="254.25" cy="727.5" fill="#ADD1B2" rx="11" ry="11" style="stroke:#181818;stroke-width:1.0;"/><path d="M253.7188,734.1719 Q251.9688,734.1719 250.8281,733.4375 Q249.7031,732.6875 249.1406,731.3438 Q248.5938,729.9844 248.5938,728.1875 Q248.5938,726.1563 249.25,724.7031 Q249.9063,723.25 251.1875,722.4688 Q252.4688,721.6875 254.3438,721.6875 Q255.2344,721.6875 255.9063,721.875 Q256.5781,722.0469 257.2656,722.3906 L256.4531,724.4063 Q255.8281,724.0938 255.2813,723.9688 Q254.75,723.8438 254.2656,723.8438 Q253.0938,723.8438 252.3906,724.375 Q251.6875,724.9063 251.3906,725.8594 Q251.0938,726.8125 251.0938,728.0781 Q251.0938,730.0938 251.8125,731.0625 Q252.5313,732.0156 254.125,732.0156 Q254.7188,732.0156 255.3438,731.8594 Q255.9688,731.7031 256.7969,731.3281 L256.7969,733.5469 Q256.0625,733.8594 255.2656,734.0156 Q254.4844,734.1719 253.7188,734.1719 Z " fill="#000000"/><text fill="#000000" font-family="sans-serif" font-size="14" lengthAdjust="spacing" textLength="82" x="274.75" y="732.932">Commission</text><line style="stroke:#181818;stroke-width:0.5;" x1="199.5" x2="399.5" y1="743.5" y2="743.5"/><text fill="#000000" font-family="sans-serif" font-size="14" lengthAdjust="spacing" textLength="190" x="204.5" y="762.4659">-boolean typeOfCommission</text><text fill="#000000" font-family="sans-serif" font-size="14" lengthAdjust="spacing" textLength="173" x="204.5" y="781.5339">-double commissionValue</text><line style="stroke:#181818;stroke-width:0.5;" x1="199.5" x2="399.5" y1="789.6358" y2="789.6358"/></g><!--class Property--><g id="elem_Property"><rect codeLine="54" fill="#F1F1F1" height="105.2038" id="Property" rx="2.5" ry="2.5" style="stroke:#181818;stroke-width:0.5;" width="107" x="445" y="702"/><ellipse cx="468.1" cy="718" fill="#ADD1B2" rx="11" ry="11" style="stroke:#181818;stroke-width:1.0;"/><path d="M467.5688,724.6719 Q465.8188,724.6719 464.6781,723.9375 Q463.5531,723.1875 462.9906,721.8438 Q462.4438,720.4844 462.4438,718.6875 Q462.4438,716.6563 463.1,715.2031 Q463.7563,713.75 465.0375,712.9688 Q466.3188,712.1875 468.1938,712.1875 Q469.0844,712.1875 469.7563,712.375 Q470.4281,712.5469 471.1156,712.8906 L470.3031,714.9063 Q469.6781,714.5938 469.1313,714.4688 Q468.6,714.3438 468.1156,714.3438 Q466.9438,714.3438 466.2406,714.875 Q465.5375,715.4063 465.2406,716.3594 Q464.9438,717.3125 464.9438,718.5781 Q464.9438,720.5938 465.6625,721.5625 Q466.3813,722.5156 467.975,722.5156 Q468.5688,722.5156 469.1938,722.3594 Q469.8188,722.2031 470.6469,721.8281 L470.6469,724.0469 Q469.9125,724.3594 469.1156,724.5156 Q468.3344,724.6719 467.5688,724.6719 Z " fill="#000000"/><text fill="#000000" font-family="sans-serif" font-size="14" lengthAdjust="spacing" textLength="57" x="483.9" y="723.432">Property</text><line style="stroke:#181818;stroke-width:0.5;" x1="446" x2="551" y1="734" y2="734"/><text fill="#000000" font-family="sans-serif" font-size="14" lengthAdjust="spacing" textLength="57" x="451" y="752.9659">-int area</text><text fill="#000000" font-family="sans-serif" font-size="14" lengthAdjust="spacing" textLength="95" x="451" y="772.0339">-int cityCenter</text><text fill="#000000" font-family="sans-serif" font-size="14" lengthAdjust="spacing" textLength="61" x="451" y="791.1018">-int price</text><line style="stroke:#181818;stroke-width:0.5;" x1="446" x2="551" y1="799.2038" y2="799.2038"/></g><!--class Dwelling--><g id="elem_Dwelling"><rect codeLine="60" fill="#F1F1F1" height="105.2038" id="Dwelling" rx="2.5" ry="2.5" style="stroke:#181818;stroke-width:0.5;" width="168" x="535.5" y="905"/><ellipse cx="585.75" cy="921" fill="#ADD1B2" rx="11" ry="11" style="stroke:#181818;stroke-width:1.0;"/><path d="M585.2188,927.6719 Q583.4688,927.6719 582.3281,926.9375 Q581.2031,926.1875 580.6406,924.8438 Q580.0938,923.4844 580.0938,921.6875 Q580.0938,919.6563 580.75,918.2031 Q581.4063,916.75 582.6875,915.9688 Q583.9688,915.1875 585.8438,915.1875 Q586.7344,915.1875 587.4063,915.375 Q588.0781,915.5469 588.7656,915.8906 L587.9531,917.9063 Q587.3281,917.5938 586.7813,917.4688 Q586.25,917.3438 585.7656,917.3438 Q584.5938,917.3438 583.8906,917.875 Q583.1875,918.4063 582.8906,919.3594 Q582.5938,920.3125 582.5938,921.5781 Q582.5938,923.5938 583.3125,924.5625 Q584.0313,925.5156 585.625,925.5156 Q586.2188,925.5156 586.8438,925.3594 Q587.4688,925.2031 588.2969,924.8281 L588.2969,927.0469 Q587.5625,927.3594 586.7656,927.5156 Q585.9844,927.6719 585.2188,927.6719 Z " fill="#000000"/><text fill="#000000" font-family="sans-serif" font-size="14" lengthAdjust="spacing" textLength="59" x="606.25" y="926.432">Dwelling</text><line style="stroke:#181818;stroke-width:0.5;" x1="536.5" x2="702.5" y1="937" y2="937"/><text fill="#000000" font-family="sans-serif" font-size="14" lengthAdjust="spacing" textLength="126" x="541.5" y="955.9659">-int numBedrooms</text><text fill="#000000" font-family="sans-serif" font-size="14" lengthAdjust="spacing" textLength="131" x="541.5" y="975.0339">-int numBathrooms</text><text fill="#000000" font-family="sans-serif" font-size="14" lengthAdjust="spacing" textLength="156" x="541.5" y="994.1018">-int numParkingSpaces</text><line style="stroke:#181818;stroke-width:0.5;" x1="536.5" x2="702.5" y1="1002.2038" y2="1002.2038"/></g><!--class House--><g id="elem_House"><rect codeLine="66" fill="#F1F1F1" height="105.2038" id="House" rx="2.5" ry="2.5" style="stroke:#181818;stroke-width:0.5;" width="177" x="531" y="1108"/><ellipse cx="594.25" cy="1124" fill="#ADD1B2" rx="11" ry="11" style="stroke:#181818;stroke-width:1.0;"/><path d="M593.7188,1130.6719 Q591.9688,1130.6719 590.8281,1129.9375 Q589.7031,1129.1875 589.1406,1127.8438 Q588.5938,1126.4844 588.5938,1124.6875 Q588.5938,1122.6563 589.25,1121.2031 Q589.9063,1119.75 591.1875,1118.9688 Q592.4688,1118.1875 594.3438,1118.1875 Q595.2344,1118.1875 595.9063,1118.375 Q596.5781,1118.5469 597.2656,1118.8906 L596.4531,1120.9063 Q595.8281,1120.5938 595.2813,1120.4688 Q594.75,1120.3438 594.2656,1120.3438 Q593.0938,1120.3438 592.3906,1120.875 Q591.6875,1121.4063 591.3906,1122.3594 Q591.0938,1123.3125 591.0938,1124.5781 Q591.0938,1126.5938 591.8125,1127.5625 Q592.5313,1128.5156 594.125,1128.5156 Q594.7188,1128.5156 595.3438,1128.3594 Q595.9688,1128.2031 596.7969,1127.8281 L596.7969,1130.0469 Q596.0625,1130.3594 595.2656,1130.5156 Q594.4844,1130.6719 593.7188,1130.6719 Z " fill="#000000"/><text fill="#000000" font-family="sans-serif" font-size="14" lengthAdjust="spacing" textLength="42" x="614.75" y="1129.432">House</text><line style="stroke:#181818;stroke-width:0.5;" x1="532" x2="707" y1="1140" y2="1140"/><text fill="#000000" font-family="sans-serif" font-size="14" lengthAdjust="spacing" textLength="130" x="537" y="1158.9659">-boolean basement</text><text fill="#000000" font-family="sans-serif" font-size="14" lengthAdjust="spacing" textLength="165" x="537" y="1178.0339">-boolean inhabitableLoft</text><text fill="#000000" font-family="sans-serif" font-size="14" lengthAdjust="spacing" textLength="137" x="537" y="1197.1018">-String sunExposure</text><line style="stroke:#181818;stroke-width:0.5;" x1="532" x2="707" y1="1205.2038" y2="1205.2038"/></g><!--class Equipment--><g id="elem_Equipment"><rect codeLine="72" fill="#F1F1F1" height="86.1358" id="Equipment" rx="2.5" ry="2.5" style="stroke:#181818;stroke-width:0.5;" width="182" x="738.5" y="914.5"/><ellipse cx="788.25" cy="930.5" fill="#ADD1B2" rx="11" ry="11" style="stroke:#181818;stroke-width:1.0;"/><path d="M787.7188,937.1719 Q785.9688,937.1719 784.8281,936.4375 Q783.7031,935.6875 783.1406,934.3438 Q782.5938,932.9844 782.5938,931.1875 Q782.5938,929.1563 783.25,927.7031 Q783.9063,926.25 785.1875,925.4688 Q786.4688,924.6875 788.3438,924.6875 Q789.2344,924.6875 789.9063,924.875 Q790.5781,925.0469 791.2656,925.3906 L790.4531,927.4063 Q789.8281,927.0938 789.2813,926.9688 Q788.75,926.8438 788.2656,926.8438 Q787.0938,926.8438 786.3906,927.375 Q785.6875,927.9063 785.3906,928.8594 Q785.0938,929.8125 785.0938,931.0781 Q785.0938,933.0938 785.8125,934.0625 Q786.5313,935.0156 788.125,935.0156 Q788.7188,935.0156 789.3438,934.8594 Q789.9688,934.7031 790.7969,934.3281 L790.7969,936.5469 Q790.0625,936.8594 789.2656,937.0156 Q788.4844,937.1719 787.7188,937.1719 Z " fill="#000000"/><text fill="#000000" font-family="sans-serif" font-size="14" lengthAdjust="spacing" textLength="74" x="808.75" y="935.932">Equipment</text><line style="stroke:#181818;stroke-width:0.5;" x1="739.5" x2="919.5" y1="946.5" y2="946.5"/><text fill="#000000" font-family="sans-serif" font-size="14" lengthAdjust="spacing" textLength="139" x="744.5" y="965.4659">-int numEquipments</text><text fill="#000000" font-family="sans-serif" font-size="14" lengthAdjust="spacing" textLength="170" x="744.5" y="984.5339">-List&lt;String&gt; Equipments</text><line style="stroke:#181818;stroke-width:0.5;" x1="739.5" x2="919.5" y1="992.6358" y2="992.6358"/></g><!--link ImportLegacyDataUI to ImportLegacyDataController--><g id="link_ImportLegacyDataUI_ImportLegacyDataController"><path codeLine="77" d="M160.5,55.48 C160.5,71.37 160.5,92.48 160.5,109.5 " fill="none" id="ImportLegacyDataUI-to-ImportLegacyDataController" style="stroke:#181818;stroke-width:1.0;stroke-dasharray:7.0,7.0;"/><polygon fill="#181818" points="160.5,114.06,164.5,105.06,160.5,109.06,156.5,105.06,160.5,114.06" style="stroke:#181818;stroke-width:1.0;"/></g><!--link ImportLegacyDataController to Repositories--><g id="link_ImportLegacyDataController_Repositories"><path codeLine="79" d="M160.5,164.3 C160.5,179.03 160.5,198.9 160.5,218.31 " fill="none" id="ImportLegacyDataController-to-Repositories" style="stroke:#181818;stroke-width:1.0;stroke-dasharray:7.0,7.0;"/><polygon fill="#181818" points="160.5,223.08,164.5,214.08,160.5,218.08,156.5,214.08,160.5,223.08" style="stroke:#181818;stroke-width:1.0;"/></g><!--link ImportLegacyDataController to CSVFileRepository--><g id="link_ImportLegacyDataController_CSVFileRepository"><path codeLine="80" d="M127.35,164.4 C92.14,189.25 41.5,225 41.5,225 C41.5,225 41.5,349 41.5,349 C41.5,349 54.24,378.06 65.52,403.77 " fill="none" id="ImportLegacyDataController-to-CSVFileRepository" style="stroke:#181818;stroke-width:1.0;stroke-dasharray:7.0,7.0;"/><polygon fill="#181818" points="67.44,408.15,67.4973,398.3013,65.4359,403.5692,60.168,401.5079,67.44,408.15" style="stroke:#181818;stroke-width:1.0;"/></g><!--link ImportLegacyDataController to OrderRepository--><g id="link_ImportLegacyDataController_OrderRepository"><path codeLine="81" d="M215.93,164.4 C274.82,189.25 359.5,225 359.5,225 C359.5,225 359.5,349 359.5,349 C359.5,349 348.05,385.91 339.54,413.34 " fill="none" id="ImportLegacyDataController-to-OrderRepository" style="stroke:#181818;stroke-width:1.0;stroke-dasharray:7.0,7.0;"/><polygon fill="#181818" points="338.12,417.94,344.5946,410.5184,339.5934,413.162,336.9498,408.1609,338.12,417.94" style="stroke:#181818;stroke-width:1.0;"/></g><!--link Repositories to Repositories--><g id="link_Repositories_Repositories"><path codeLine="83" d="M262.29,270.37 C282.55,272.24 297,277.79 297,287 C297,295.21 285.54,300.5 268.72,302.88 " fill="none" id="Repositories-to-Repositories" style="stroke:#181818;stroke-width:1.0;"/><polygon fill="#181818" points="263.8,303.45,273.2062,306.3695,268.7657,302.865,272.2702,298.4244,263.8,303.45" style="stroke:#181818;stroke-width:1.0;"/><text fill="#000000" font-family="sans-serif" font-size="13" lengthAdjust="spacing" textLength="50" x="303" y="292.397">instance</text></g><!--link Repositories to CSVFileRepository--><g id="link_Repositories_CSVFileRepository"><path codeLine="84" d="M129.67,349.06 C120.26,367.7 110.18,387.66 101.77,404.33 " fill="none" id="Repositories-to-CSVFileRepository" style="stroke:#181818;stroke-width:1.0;"/><polygon fill="#181818" points="99.67,408.5,107.3046,402.278,101.9289,404.0394,100.1675,398.6637,99.67,408.5" style="stroke:#181818;stroke-width:1.0;"/><text fill="#000000" font-family="sans-serif" font-size="13" lengthAdjust="spacing" textLength="7" x="94.6692" y="398.1194">1</text></g><!--link Repositories to OrderRepository--><g id="link_Repositories_OrderRepository"><path codeLine="85" d="M227.69,349.06 C252.78,371.86 280.03,396.63 300.17,414.94 " fill="none" id="Repositories-to-OrderRepository" style="stroke:#181818;stroke-width:1.0;"/><polygon fill="#181818" points="303.76,418.2,299.7826,409.19,300.0571,414.8402,294.4069,415.1147,303.76,418.2" style="stroke:#181818;stroke-width:1.0;"/><text fill="#000000" font-family="sans-serif" font-size="13" lengthAdjust="spacing" textLength="7" x="290.418" y="407.795">1</text></g><!--link OrderRepository to Order--><g id="link_OrderRepository_Order"><path codeLine="87" d="M330.5,467.96 C330.5,492.75 330.5,531.91 330.5,558.83 " fill="none" id="OrderRepository-to-Order" style="stroke:#181818;stroke-width:1.0;"/><polygon fill="#181818" points="330.5,563.54,334.5,554.54,330.5,558.54,326.5,554.54,330.5,563.54" style="stroke:#181818;stroke-width:1.0;"/><text fill="#000000" font-family="sans-serif" font-size="13" lengthAdjust="spacing" textLength="33" x="331.5" y="521.897">order</text><text fill="#000000" font-family="sans-serif" font-size="13" lengthAdjust="spacing" textLength="7" x="322.6906" y="489.5606">1</text><text fill="#000000" font-family="sans-serif" font-size="13" lengthAdjust="spacing" textLength="20" x="307.9375" y="553.594">1..*</text></g><!--link BusinessType to Property--><g id="link_BusinessType_Property"><path codeLine="89" d="M506.48,623.49 C505.21,644.07 503.55,671.13 502.07,695.24 " fill="none" id="BusinessType-to-Property" style="stroke:#181818;stroke-width:1.0;"/><polygon fill="#181818" points="501.78,700.12,506.3118,691.3757,502.0795,695.129,498.3262,690.8966,501.78,700.12" style="stroke:#181818;stroke-width:1.0;"/><polygon fill="#000000" points="508.8067,657.8624,505.3185,666.7102,511.1852,667.0708,508.8067,657.8624" style="stroke:#000000;stroke-width:1.0;"/><text fill="#000000" font-family="sans-serif" font-size="13" lengthAdjust="spacing" textLength="31" x="517.5" y="667.897">has a</text><text fill="#000000" font-family="sans-serif" font-size="13" lengthAdjust="spacing" textLength="7" x="498.4968" y="645.0124">1</text><text fill="#000000" font-family="sans-serif" font-size="13" lengthAdjust="spacing" textLength="7" x="494.637" y="690.3142">1</text></g><!--link Order to Property--><g id="link_Order_Property"><path codeLine="92" d="M354.57,613.85 C376.88,635.5 410.95,668.55 440.34,697.07 " fill="none" id="Order-to-Property" style="stroke:#181818;stroke-width:1.0;"/><polygon fill="#181818" points="443.93,700.55,440.2467,691.4158,440.3379,697.0719,434.6818,697.1632,443.93,700.55" style="stroke:#181818;stroke-width:1.0;"/><text fill="#000000" font-family="sans-serif" font-size="13" lengthAdjust="spacing" textLength="53" x="415.5" y="667.897">property</text><text fill="#000000" font-family="sans-serif" font-size="13" lengthAdjust="spacing" textLength="7" x="352.3268" y="635.4252">1</text><text fill="#000000" font-family="sans-serif" font-size="13" lengthAdjust="spacing" textLength="7" x="430.352" y="690.2915">1</text></g><!--link Order to Commission--><g id="link_Order_Commission"><path codeLine="93" d="M317.84,613.77 C308.17,631.54 296.5,653 296.5,653 C296.5,653 296.5,672 296.5,672 C296.5,672 297.07,687.41 297.71,704.83 " fill="none" id="Order-to-Commission" style="stroke:#181818;stroke-width:1.0;"/><polygon fill="#181818" points="297.89,709.81,301.5532,700.6677,297.7044,704.8134,293.5587,700.9647,297.89,709.81" style="stroke:#181818;stroke-width:1.0;"/><text fill="#000000" font-family="sans-serif" font-size="13" lengthAdjust="spacing" textLength="72" x="297.5" y="667.897">commission</text><text fill="#000000" font-family="sans-serif" font-size="13" lengthAdjust="spacing" textLength="7" x="307.103" y="635.3267">1</text><text fill="#000000" font-family="sans-serif" font-size="13" lengthAdjust="spacing" textLength="7" x="290.1136" y="699.7047">1</text></g><!--link Property to PropertyType--><g id="link_Property_PropertyType"><path codeLine="95" d="M444.71,796.79 C394.91,835.02 328.5,886 328.5,886 C328.5,886 309.24,902.56 289.39,919.62 " fill="none" id="Property-to-PropertyType" style="stroke:#181818;stroke-width:1.0;stroke-dasharray:7.0,7.0;"/><polygon fill="#181818" points="285.77,922.74,295.2065,919.9199,289.5663,919.486,290.0001,913.8459,285.77,922.74" style="stroke:#181818;stroke-width:1.0;"/><text fill="#000000" font-family="sans-serif" font-size="13" lengthAdjust="spacing" textLength="31" x="389.5" y="851.897">has a</text><text fill="#000000" font-family="sans-serif" font-size="13" lengthAdjust="spacing" textLength="7" x="284.7604" y="911.9746">1</text></g><!--link Property to Address--><g id="link_Property_Address"><path codeLine="96" d="M479.19,807.26 C470.98,829.24 461.25,855.33 452.23,879.5 " fill="none" id="Property-to-Address" style="stroke:#181818;stroke-width:1.0;stroke-dasharray:7.0,7.0;"/><polygon fill="#181818" points="450.49,884.18,457.3954,877.1575,452.2456,879.4984,449.9048,874.3485,450.49,884.18" style="stroke:#181818;stroke-width:1.0;"/><text fill="#000000" font-family="sans-serif" font-size="13" lengthAdjust="spacing" textLength="59" x="468.5" y="851.897">located at</text><text fill="#000000" font-family="sans-serif" font-size="13" lengthAdjust="spacing" textLength="7" x="445.3278" y="874.2247">1</text></g><!--link Property to Dwelling--><g id="link_Property_Dwelling"><path codeLine="97" d="M529.66,807.26 C546.6,835.4 567.59,870.27 585.02,899.23 " fill="none" id="Property-to-Dwelling" style="stroke:#181818;stroke-width:1.0;stroke-dasharray:7.0,7.0;"/><polygon fill="#181818" points="587.45,903.27,586.2111,893.4994,584.8607,898.9927,579.3674,897.6422,587.45,903.27" style="stroke:#181818;stroke-width:1.0;"/><text fill="#000000" font-family="sans-serif" font-size="13" lengthAdjust="spacing" textLength="39" x="559.5" y="851.897">can be</text><text fill="#000000" font-family="sans-serif" font-size="13" lengthAdjust="spacing" textLength="7" x="576.5691" y="893.2348">1</text></g><!--link Property to Equipment--><g id="link_Property_Equipment"><path codeLine="98" d="M552.48,787.09 C618.48,825.71 721.5,886 721.5,886 C721.5,886 738.6,897.16 759.19,910.6 " fill="none" id="Property-to-Equipment" style="stroke:#181818;stroke-width:1.0;stroke-dasharray:7.0,7.0;"/><polygon fill="#181818" points="763.23,913.24,757.8946,904.9615,759.0479,910.4995,753.5099,911.6528,763.23,913.24" style="stroke:#181818;stroke-width:1.0;"/><text fill="#000000" font-family="sans-serif" font-size="13" lengthAdjust="spacing" textLength="53" x="668.5" y="851.897">can have</text><text fill="#000000" font-family="sans-serif" font-size="13" lengthAdjust="spacing" textLength="7" x="746.5712" y="902.7361">*</text></g><!--link Dwelling to House--><g id="link_Dwelling_House"><path codeLine="100" d="M619.5,1010.26 C619.5,1038.05 619.5,1072.41 619.5,1101.15 " fill="none" id="Dwelling-to-House" style="stroke:#181818;stroke-width:1.0;stroke-dasharray:7.0,7.0;"/><polygon fill="#181818" points="619.5,1106.05,623.5,1097.05,619.5,1101.05,615.5,1097.05,619.5,1106.05" style="stroke:#181818;stroke-width:1.0;"/><text fill="#000000" font-family="sans-serif" font-size="13" lengthAdjust="spacing" textLength="39" x="620.5" y="1073.897">can be</text><text fill="#000000" font-family="sans-serif" font-size="13" lengthAdjust="spacing" textLength="7" x="612.0297" y="1096.2348">1</text></g><!--SRC=[XLHDRzim3BthLmYzj5sHOBiEHO4sxR00nLeiM- -ApDX2PT6Jw7LkiFy-slM7R2ThBe7v7XyfYa-duTcuGdcLonmTwinZ3f9y2M902gMVLGeRgYn83vgKIsrC29bAyCMuLEwK3J5YZGEg2f05sgh-4AS7GFI48ihILeLmJUJDjYHOQtGRymhoen2d5dOa2QKtQKOoCNKx1fqGJOvSvmMBtKEgT7MhIFrS7qDMwCYZjU0xndSeC1X2Ro38lP3yMuo2P-TDy4AcG6iNU0mQpixbvn5feAmsJr-CXHwiulm7du0VGN-xFcPv-vbcYFaJgRqOe4UF1NYgVl2KknCPHxA8uWFxfWny8o74x0rV0j_hDeA6XEiayHoSS0Dv01h7jA7gcyfX74qCSuscESB39RZM7bsLjyZQ4QJWvQifLfZ0vFpxQ7wOvoO4tegkiIsY1ULalMmFkm5luGJBBM-sxkDFofOmds8yGUL1HP_r-LR07VhHb8sEP6vVmFBAfx6CA_CRI3nY7YPHHTc1yAFox99qmvRaLUkbls8PO7hQhGgGSq-Ji76PsXfIVEHxt4tkAPJkxWzlKkcZnkz-bQQebIQTz_6koNk-pyitfIiPeQmqDwPSBg_-wyhZM9CwCjqxt9cbtakOU4g8qUEmM8pBynDWslTWJZpvT7AW_a7QhEeaq93UoClbXvRFnR7-5oBsRqGzwHUOgPaAKibBqMeVetKFn07MO1_c3PuHea-l1nZhDVsqfUUizX5XWaNDha-aeZchCqzTizvjc51u6lt2jPnC_GOX-iHEgV7A8FCF]--></g></svg>