<?xml version="1.0" encoding="us-ascii" standalone="no"?><svg xmlns="http://www.w3.org/2000/svg" xmlns:xlink="http://www.w3.org/1999/xlink" contentStyleType="text/css" height="611px" preserveAspectRatio="none" style="width:678px;height:611px;background:#FFFFFF;" version="1.1" viewBox="0 0 678 611" width="678px" zoomAndPan="magnify"><defs/><g><!--cluster System--><g id="cluster_System"><rect fill="none" height="598" rx="2.5" ry="2.5" style="stroke:#181818;stroke-width:1.0;" width="441" x="231" y="7"/><text fill="#000000" font-family="sans-serif" font-size="14" font-weight="bold" lengthAdjust="spacing" textLength="51" x="426" y="23.9659">System</text></g><g id="elem_UC1 - Display listed properties"><ellipse cx="451.668" cy="72.1336" fill="#F1F1F1" rx="121.168" ry="26.6336" style="stroke:#181818;stroke-width:0.5;"/><text fill="#000000" font-family="sans-serif" font-size="14" lengthAdjust="spacing" textLength="204" x="347.5593" y="76.5211">UC1 - Display listed properties</text></g><g id="elem_UC2 - Publish sale announcement"><ellipse cx="451.6578" cy="162.2316" fill="#F1F1F1" rx="131.6578" ry="28.7316" style="stroke:#181818;stroke-width:0.5;"/><text fill="#000000" font-family="sans-serif" font-size="14" lengthAdjust="spacing" textLength="227" x="338.0073" y="165.739">UC2 - Publish sale announcement</text></g><g id="elem_UC3 - Register employee"><ellipse cx="451.7183" cy="249.2437" fill="#F1F1F1" rx="104.2183" ry="23.2437" style="stroke:#181818;stroke-width:0.5;"/><text fill="#000000" font-family="sans-serif" font-size="14" lengthAdjust="spacing" textLength="165" x="366.2183" y="253.9766">UC3 - Register employee</text></g><g id="elem_UC4 - Submit a request for listing a property sale or rent"><ellipse cx="451.7137" cy="544.8427" fill="#F1F1F1" rx="204.7137" ry="43.3427" style="stroke:#181818;stroke-width:0.5;"/><text fill="#000000" font-family="sans-serif" font-size="14" lengthAdjust="spacing" textLength="380" x="261.7137" y="548.2747">UC4 - Submit a request for listing a property sale or rent</text></g><g id="elem_UC5 - Register store"><ellipse cx="451.515" cy="328.203" fill="#F1F1F1" rx="91.515" ry="20.703" style="stroke:#181818;stroke-width:0.5;"/><text fill="#000000" font-family="sans-serif" font-size="14" lengthAdjust="spacing" textLength="134" x="381.515" y="332.936">UC5 - Register store</text></g><g id="elem_UC6 - Specify states, districts and cities in the system"><ellipse cx="451.5588" cy="425.1118" fill="#F1F1F1" rx="193.5588" ry="41.1118" style="stroke:#181818;stroke-width:0.5;"/><text fill="#000000" font-family="sans-serif" font-size="14" lengthAdjust="spacing" textLength="357" x="273.0588" y="428.5437">UC6 - Specify states, districts and cities in the system</text></g><!--entity UnregisteredUser--><g id="elem_UnregisteredUser"><ellipse cx="66" cy="27" fill="#F1F1F1" rx="8" ry="8" style="stroke:#181818;stroke-width:0.5;"/><path d="M66,35 L66,62 M53,43 L79,43 M66,62 L53,77 M66,62 L79,77 " fill="none" style="stroke:#181818;stroke-width:0.5;"/><text fill="#000000" font-family="sans-serif" font-size="14" lengthAdjust="spacing" textLength="120" x="6" y="93.4659">UnregisteredUser</text></g><!--entity Agent--><g id="elem_Agent"><ellipse cx="66" cy="141" fill="#F1F1F1" rx="8" ry="8" style="stroke:#181818;stroke-width:0.5;"/><path d="M66,149 L66,176 M53,157 L79,157 M66,176 L53,191 M66,176 L79,191 " fill="none" style="stroke:#181818;stroke-width:0.5;"/><text fill="#000000" font-family="sans-serif" font-size="14" lengthAdjust="spacing" textLength="40" x="46" y="207.4659">Agent</text></g><!--entity Administrator--><g id="elem_Administrator"><ellipse cx="66" cy="297" fill="#F1F1F1" rx="8" ry="8" style="stroke:#181818;stroke-width:0.5;"/><path d="M66,305 L66,332 M53,313 L79,313 M66,332 L53,347 M66,332 L79,347 " fill="none" style="stroke:#181818;stroke-width:0.5;"/><text fill="#000000" font-family="sans-serif" font-size="14" lengthAdjust="spacing" textLength="93" x="19.5" y="363.4659">Administrator</text></g><!--entity Owner--><g id="elem_Owner"><ellipse cx="66" cy="514" fill="#F1F1F1" rx="8" ry="8" style="stroke:#181818;stroke-width:0.5;"/><path d="M66,522 L66,549 M53,530 L79,530 M66,549 L53,564 M66,549 L79,564 " fill="none" style="stroke:#181818;stroke-width:0.5;"/><text fill="#000000" font-family="sans-serif" font-size="14" lengthAdjust="spacing" textLength="45" x="43.5" y="580.4659">Owner</text></g><!--link UnregisteredUser to UC1 - Display listed properties--><g id="link_UnregisteredUser_UC1 - Display listed properties"><path d="M126.08,60.16 C180.71,62.15 263.51,65.17 331.79,67.67 " fill="none" id="UnregisteredUser-UC1 - Display listed properties" style="stroke:#181818;stroke-width:1.0;"/></g><!--link Agent to UC2 - Publish sale announcement--><g id="link_Agent_UC2 - Publish sale announcement"><path d="M86.28,171.5 C128.89,170.39 234.13,167.64 320.58,165.39 " fill="none" id="Agent-UC2 - Publish sale announcement" style="stroke:#181818;stroke-width:1.0;"/></g><!--link Administrator to UC3 - Register employee--><g id="link_Administrator_UC3 - Register employee"><path d="M112.91,316.04 C143.9,308.16 185.78,297.88 223,290 C270.51,279.94 323.93,270.23 367.06,262.79 " fill="none" id="Administrator-UC3 - Register employee" style="stroke:#181818;stroke-width:1.0;"/></g><!--link Owner to UC4 - Submit a request for listing a property sale or rent--><g id="link_Owner_UC4 - Submit a request for listing a property sale or rent"><path d="M89,545 C120.83,545 182.95,545 246.85,545 " fill="none" id="Owner-UC4 - Submit a request for listing a property sale or rent" style="stroke:#181818;stroke-width:1.0;"/></g><!--link Administrator to UC5 - Register store--><g id="link_Administrator_UC5 - Register store"><path d="M112.88,328 C173.62,328 282.07,328 359.68,328 " fill="none" id="Administrator-UC5 - Register store" style="stroke:#181818;stroke-width:1.0;"/></g><!--link Administrator to UC6 - Specify states, districts and cities in the system--><g id="link_Administrator_UC6 - Specify states, districts and cities in the system"><path d="M112.88,339.6 C165.17,352.83 252.82,375 325.71,393.44 " fill="none" id="Administrator-UC6 - Specify states, districts and cities in the system" style="stroke:#181818;stroke-width:1.0;"/></g><!--SRC=[XL6zJiGm3Dxp51uvYGxyxWXs45KV89UwgNMD4n9Ng4AyEqwlbKuCq2drznjdma508cJoeq1F6PrGP5DEnCbc6o1PTx8UMracX0eROwoJcA7ZZ9wAOCQ-AvYtyPD7bltS1sAbPAj_s-pravLhgfLbhwRjeXxXonZGxxSfD4q3Lztp3JJmGYLDTe6fuZsa71Dc8Io7itPDtWMtAdYRZyeTeLYDiSnnPeT1IRlWijukl5FX-zO1CAGfBeYROEs-4- -LsCx7G09MD_CnOn4OrAZs8_OwtIekvmOAvN_27ox3YmBu5_knDaZeQD04iOBbMjzGIUIaw8LxS5Jt0yGW8q9PDtqmt-O7]--></g></svg>