<?xml version="1.0" encoding="us-ascii" standalone="no"?><svg xmlns="http://www.w3.org/2000/svg" xmlns:xlink="http://www.w3.org/1999/xlink" contentStyleType="text/css" height="1369px" preserveAspectRatio="none" style="width:1137px;height:1369px;background:#FFFFFF;" version="1.1" viewBox="0 0 1137 1369" width="1137px" zoomAndPan="magnify"><defs/><g><!--class PublishSaleAnnouncementUI--><g id="elem_PublishSaleAnnouncementUI"><rect codeLine="14" fill="#F1F1F1" height="48" id="PublishSaleAnnouncementUI" rx="2.5" ry="2.5" style="stroke:#181818;stroke-width:0.5;" width="213" x="114" y="61.5"/><ellipse cx="129" cy="77.5" fill="#ADD1B2" rx="11" ry="11" style="stroke:#181818;stroke-width:1.0;"/><path d="M131.7656,73.375 Q131.9219,73.1563 132.1094,73.0469 Q132.2969,72.9375 132.5156,72.9375 Q132.8906,72.9375 133.125,73.2031 Q133.3594,73.4531 133.3594,74.0625 L133.3594,75.5156 Q133.3594,76.125 133.125,76.3906 Q132.8906,76.6563 132.5156,76.6563 Q132.1719,76.6563 131.9688,76.4531 Q131.7656,76.2656 131.6563,75.75 Q131.6094,75.3906 131.4219,75.2031 Q131.0938,74.8281 130.4844,74.6094 Q129.875,74.3906 129.25,74.3906 Q128.4844,74.3906 127.8438,74.7188 Q127.2188,75.0469 126.7188,75.7969 Q126.2344,76.5469 126.2344,77.5781 L126.2344,78.6719 Q126.2344,79.9063 127.125,80.7344 Q128.0156,81.5469 129.6094,81.5469 Q130.5469,81.5469 131.2031,81.2969 Q131.5938,81.1406 132.0156,80.7031 Q132.2813,80.4375 132.4219,80.3594 Q132.5781,80.2813 132.7813,80.2813 Q133.1094,80.2813 133.3594,80.5469 Q133.625,80.7969 133.625,81.1406 Q133.625,81.4844 133.2813,81.8906 Q132.7813,82.4688 131.9844,82.7969 Q130.9063,83.25 129.6094,83.25 Q128.0938,83.25 126.8906,82.625 Q125.9063,82.125 125.2188,81.0625 Q124.5313,79.9844 124.5313,78.7031 L124.5313,77.5469 Q124.5313,76.2188 125.1406,75.0781 Q125.7656,73.9219 126.8594,73.3125 Q127.9531,72.6875 129.1875,72.6875 Q129.9219,72.6875 130.5625,72.8594 Q131.2188,73.0156 131.7656,73.375 Z " fill="#000000"/><text fill="#000000" font-family="sans-serif" font-size="14" lengthAdjust="spacing" textLength="181" x="143" y="82.3535">PublishSaleAnnouncementUI</text><line style="stroke:#181818;stroke-width:0.5;" x1="115" x2="326" y1="93.5" y2="93.5"/><line style="stroke:#181818;stroke-width:0.5;" x1="115" x2="326" y1="101.5" y2="101.5"/></g><!--class PublishSaleAnnouncementController--><g id="elem_PublishSaleAnnouncementController"><rect codeLine="18" fill="#F1F1F1" height="157.4844" id="PublishSaleAnnouncementController" rx="2.5" ry="2.5" style="stroke:#181818;stroke-width:0.5;" width="316" x="362.5" y="7"/><ellipse cx="401.35" cy="23" fill="#ADD1B2" rx="11" ry="11" style="stroke:#181818;stroke-width:1.0;"/><path d="M404.1156,18.875 Q404.2719,18.6563 404.4594,18.5469 Q404.6469,18.4375 404.8656,18.4375 Q405.2406,18.4375 405.475,18.7031 Q405.7094,18.9531 405.7094,19.5625 L405.7094,21.0156 Q405.7094,21.625 405.475,21.8906 Q405.2406,22.1563 404.8656,22.1563 Q404.5219,22.1563 404.3188,21.9531 Q404.1156,21.7656 404.0063,21.25 Q403.9594,20.8906 403.7719,20.7031 Q403.4438,20.3281 402.8344,20.1094 Q402.225,19.8906 401.6,19.8906 Q400.8344,19.8906 400.1938,20.2188 Q399.5688,20.5469 399.0688,21.2969 Q398.5844,22.0469 398.5844,23.0781 L398.5844,24.1719 Q398.5844,25.4063 399.475,26.2344 Q400.3656,27.0469 401.9594,27.0469 Q402.8969,27.0469 403.5531,26.7969 Q403.9438,26.6406 404.3656,26.2031 Q404.6313,25.9375 404.7719,25.8594 Q404.9281,25.7813 405.1313,25.7813 Q405.4594,25.7813 405.7094,26.0469 Q405.975,26.2969 405.975,26.6406 Q405.975,26.9844 405.6313,27.3906 Q405.1313,27.9688 404.3344,28.2969 Q403.2563,28.75 401.9594,28.75 Q400.4438,28.75 399.2406,28.125 Q398.2563,27.625 397.5688,26.5625 Q396.8813,25.4844 396.8813,24.2031 L396.8813,23.0469 Q396.8813,21.7188 397.4906,20.5781 Q398.1156,19.4219 399.2094,18.8125 Q400.3031,18.1875 401.5375,18.1875 Q402.2719,18.1875 402.9125,18.3594 Q403.5688,18.5156 404.1156,18.875 Z " fill="#000000"/><text fill="#000000" font-family="sans-serif" font-size="14" lengthAdjust="spacing" textLength="231" x="420.65" y="27.8535">PublishSaleAnnouncementController</text><line style="stroke:#181818;stroke-width:0.5;" x1="363.5" x2="677.5" y1="39" y2="39"/><line style="stroke:#181818;stroke-width:0.5;" x1="363.5" x2="677.5" y1="47" y2="47"/><text fill="#000000" font-family="sans-serif" font-size="14" lengthAdjust="spacing" textLength="249" x="368.5" y="63.6738">+PublishSaleAnnouncementController()</text><text fill="#000000" font-family="sans-serif" font-size="14" lengthAdjust="spacing" textLength="259" x="368.5" y="79.3145">-PublishSaleAnnouncement(district,state,</text><text fill="#000000" font-family="sans-serif" font-size="14" lengthAdjust="spacing" textLength="211" x="368.5" y="94.9551">city,street,zip-code,propertyType,</text><text fill="#000000" font-family="sans-serif" font-size="14" lengthAdjust="spacing" textLength="304" x="368.5" y="110.5957">transactionType, numBedrooms,numBathrooms,</text><text fill="#000000" font-family="sans-serif" font-size="14" lengthAdjust="spacing" textLength="196" x="368.5" y="126.2363">numParkingSpaces, basement,</text><text fill="#000000" font-family="sans-serif" font-size="14" lengthAdjust="spacing" textLength="187" x="368.5" y="141.877">inhabitableLoft, sunExposure,</text><text fill="#000000" font-family="sans-serif" font-size="14" lengthAdjust="spacing" textLength="127" x="368.5" y="157.5176">owner,photographs)</text></g><!--class SaleAnnouncement--><g id="elem_SaleAnnouncement"><rect codeLine="23" fill="#F1F1F1" height="188.7656" id="SaleAnnouncement" rx="2.5" ry="2.5" style="stroke:#181818;stroke-width:0.5;" width="245" x="411" y="458"/><ellipse cx="467.75" cy="474" fill="#ADD1B2" rx="11" ry="11" style="stroke:#181818;stroke-width:1.0;"/><path d="M470.5156,469.875 Q470.6719,469.6563 470.8594,469.5469 Q471.0469,469.4375 471.2656,469.4375 Q471.6406,469.4375 471.875,469.7031 Q472.1094,469.9531 472.1094,470.5625 L472.1094,472.0156 Q472.1094,472.625 471.875,472.8906 Q471.6406,473.1563 471.2656,473.1563 Q470.9219,473.1563 470.7188,472.9531 Q470.5156,472.7656 470.4063,472.25 Q470.3594,471.8906 470.1719,471.7031 Q469.8438,471.3281 469.2344,471.1094 Q468.625,470.8906 468,470.8906 Q467.2344,470.8906 466.5938,471.2188 Q465.9688,471.5469 465.4688,472.2969 Q464.9844,473.0469 464.9844,474.0781 L464.9844,475.1719 Q464.9844,476.4063 465.875,477.2344 Q466.7656,478.0469 468.3594,478.0469 Q469.2969,478.0469 469.9531,477.7969 Q470.3438,477.6406 470.7656,477.2031 Q471.0313,476.9375 471.1719,476.8594 Q471.3281,476.7813 471.5313,476.7813 Q471.8594,476.7813 472.1094,477.0469 Q472.375,477.2969 472.375,477.6406 Q472.375,477.9844 472.0313,478.3906 Q471.5313,478.9688 470.7344,479.2969 Q469.6563,479.75 468.3594,479.75 Q466.8438,479.75 465.6406,479.125 Q464.6563,478.625 463.9688,477.5625 Q463.2813,476.4844 463.2813,475.2031 L463.2813,474.0469 Q463.2813,472.7188 463.8906,471.5781 Q464.5156,470.4219 465.6094,469.8125 Q466.7031,469.1875 467.9375,469.1875 Q468.6719,469.1875 469.3125,469.3594 Q469.9688,469.5156 470.5156,469.875 Z " fill="#000000"/><text fill="#000000" font-family="sans-serif" font-size="14" lengthAdjust="spacing" textLength="123" x="488.25" y="478.8535">SaleAnnouncement</text><line style="stroke:#181818;stroke-width:0.5;" x1="412" x2="655" y1="490" y2="490"/><text fill="#000000" font-family="sans-serif" font-size="14" lengthAdjust="spacing" textLength="162" x="417" y="506.6738">-boolean transactionType</text><line style="stroke:#181818;stroke-width:0.5;" x1="412" x2="655" y1="513.6406" y2="513.6406"/><text fill="#000000" font-family="sans-serif" font-size="14" lengthAdjust="spacing" textLength="206" x="417" y="530.3145">+SaleAnnouncement(todayDate)</text><text fill="#000000" font-family="sans-serif" font-size="14" lengthAdjust="spacing" textLength="226" x="417" y="545.9551">-fillSaleAnnouncement(district,state,</text><text fill="#000000" font-family="sans-serif" font-size="14" lengthAdjust="spacing" textLength="211" x="417" y="561.5957">city,street,zip-code,propertyType,</text><text fill="#000000" font-family="sans-serif" font-size="14" lengthAdjust="spacing" textLength="215" x="417" y="577.2363">transactionType, area, cityCenter,</text><text fill="#000000" font-family="sans-serif" font-size="14" lengthAdjust="spacing" textLength="233" x="417" y="592.877">price, numBedrooms,numBathrooms,</text><text fill="#000000" font-family="sans-serif" font-size="14" lengthAdjust="spacing" textLength="196" x="417" y="608.5176">numParkingSpaces, basement,</text><text fill="#000000" font-family="sans-serif" font-size="14" lengthAdjust="spacing" textLength="187" x="417" y="624.1582">inhabitableLoft, sunExposure,</text><text fill="#000000" font-family="sans-serif" font-size="14" lengthAdjust="spacing" textLength="127" x="421" y="639.7988">owner,photographs)</text></g><!--class SaleAnnouncementRepository--><g id="elem_SaleAnnouncementRepository"><rect codeLine="31" fill="#F1F1F1" height="141.8438" id="SaleAnnouncementRepository" rx="2.5" ry="2.5" style="stroke:#181818;stroke-width:0.5;" width="268" x="399.5" y="240"/><ellipse cx="434.75" cy="256" fill="#ADD1B2" rx="11" ry="11" style="stroke:#181818;stroke-width:1.0;"/><path d="M437.5156,251.875 Q437.6719,251.6563 437.8594,251.5469 Q438.0469,251.4375 438.2656,251.4375 Q438.6406,251.4375 438.875,251.7031 Q439.1094,251.9531 439.1094,252.5625 L439.1094,254.0156 Q439.1094,254.625 438.875,254.8906 Q438.6406,255.1563 438.2656,255.1563 Q437.9219,255.1563 437.7188,254.9531 Q437.5156,254.7656 437.4063,254.25 Q437.3594,253.8906 437.1719,253.7031 Q436.8438,253.3281 436.2344,253.1094 Q435.625,252.8906 435,252.8906 Q434.2344,252.8906 433.5938,253.2188 Q432.9688,253.5469 432.4688,254.2969 Q431.9844,255.0469 431.9844,256.0781 L431.9844,257.1719 Q431.9844,258.4063 432.875,259.2344 Q433.7656,260.0469 435.3594,260.0469 Q436.2969,260.0469 436.9531,259.7969 Q437.3438,259.6406 437.7656,259.2031 Q438.0313,258.9375 438.1719,258.8594 Q438.3281,258.7813 438.5313,258.7813 Q438.8594,258.7813 439.1094,259.0469 Q439.375,259.2969 439.375,259.6406 Q439.375,259.9844 439.0313,260.3906 Q438.5313,260.9688 437.7344,261.2969 Q436.6563,261.75 435.3594,261.75 Q433.8438,261.75 432.6406,261.125 Q431.6563,260.625 430.9688,259.5625 Q430.2813,258.4844 430.2813,257.2031 L430.2813,256.0469 Q430.2813,254.7188 430.8906,253.5781 Q431.5156,252.4219 432.6094,251.8125 Q433.7031,251.1875 434.9375,251.1875 Q435.6719,251.1875 436.3125,251.3594 Q436.9688,251.5156 437.5156,251.875 Z " fill="#000000"/><text fill="#000000" font-family="sans-serif" font-size="14" lengthAdjust="spacing" textLength="191" x="453.25" y="260.8535">SaleAnnouncementRepository</text><line style="stroke:#181818;stroke-width:0.5;" x1="400.5" x2="666.5" y1="272" y2="272"/><line style="stroke:#181818;stroke-width:0.5;" x1="400.5" x2="666.5" y1="280" y2="280"/><text fill="#000000" font-family="sans-serif" font-size="14" lengthAdjust="spacing" textLength="256" x="405.5" y="296.6738">+createSaleAnnouncement(district,state,</text><text fill="#000000" font-family="sans-serif" font-size="14" lengthAdjust="spacing" textLength="211" x="405.5" y="312.3145">city,street,zip-code,propertyType,</text><text fill="#000000" font-family="sans-serif" font-size="14" lengthAdjust="spacing" textLength="215" x="405.5" y="327.9551">transactionType, area, cityCenter,</text><text fill="#000000" font-family="sans-serif" font-size="14" lengthAdjust="spacing" textLength="233" x="405.5" y="343.5957">price, numBedrooms,numBathrooms,</text><text fill="#000000" font-family="sans-serif" font-size="14" lengthAdjust="spacing" textLength="168" x="405.5" y="359.2363">numParkingSpaces,owner,</text><text fill="#000000" font-family="sans-serif" font-size="14" lengthAdjust="spacing" textLength="85" x="409.5" y="374.877">photographs)</text></g><!--class Property--><g id="elem_Property"><rect codeLine="37" fill="#F1F1F1" height="204.4063" id="Property" rx="2.5" ry="2.5" style="stroke:#181818;stroke-width:0.5;" width="316" x="469.5" y="723"/><ellipse cx="596.25" cy="739" fill="#ADD1B2" rx="11" ry="11" style="stroke:#181818;stroke-width:1.0;"/><path d="M599.0156,734.875 Q599.1719,734.6563 599.3594,734.5469 Q599.5469,734.4375 599.7656,734.4375 Q600.1406,734.4375 600.375,734.7031 Q600.6094,734.9531 600.6094,735.5625 L600.6094,737.0156 Q600.6094,737.625 600.375,737.8906 Q600.1406,738.1563 599.7656,738.1563 Q599.4219,738.1563 599.2188,737.9531 Q599.0156,737.7656 598.9063,737.25 Q598.8594,736.8906 598.6719,736.7031 Q598.3438,736.3281 597.7344,736.1094 Q597.125,735.8906 596.5,735.8906 Q595.7344,735.8906 595.0938,736.2188 Q594.4688,736.5469 593.9688,737.2969 Q593.4844,738.0469 593.4844,739.0781 L593.4844,740.1719 Q593.4844,741.4063 594.375,742.2344 Q595.2656,743.0469 596.8594,743.0469 Q597.7969,743.0469 598.4531,742.7969 Q598.8438,742.6406 599.2656,742.2031 Q599.5313,741.9375 599.6719,741.8594 Q599.8281,741.7813 600.0313,741.7813 Q600.3594,741.7813 600.6094,742.0469 Q600.875,742.2969 600.875,742.6406 Q600.875,742.9844 600.5313,743.3906 Q600.0313,743.9688 599.2344,744.2969 Q598.1563,744.75 596.8594,744.75 Q595.3438,744.75 594.1406,744.125 Q593.1563,743.625 592.4688,742.5625 Q591.7813,741.4844 591.7813,740.2031 L591.7813,739.0469 Q591.7813,737.7188 592.3906,736.5781 Q593.0156,735.4219 594.1094,734.8125 Q595.2031,734.1875 596.4375,734.1875 Q597.1719,734.1875 597.8125,734.3594 Q598.4688,734.5156 599.0156,734.875 Z " fill="#000000"/><text fill="#000000" font-family="sans-serif" font-size="14" lengthAdjust="spacing" textLength="54" x="616.75" y="743.8535">Property</text><line style="stroke:#181818;stroke-width:0.5;" x1="470.5" x2="784.5" y1="755" y2="755"/><text fill="#000000" font-family="sans-serif" font-size="14" lengthAdjust="spacing" textLength="53" x="475.5" y="771.6738">-int area</text><text fill="#000000" font-family="sans-serif" font-size="14" lengthAdjust="spacing" textLength="88" x="475.5" y="787.3145">-int cityCenter</text><text fill="#000000" font-family="sans-serif" font-size="14" lengthAdjust="spacing" textLength="55" x="475.5" y="802.9551">-int price</text><line style="stroke:#181818;stroke-width:0.5;" x1="470.5" x2="784.5" y1="809.9219" y2="809.9219"/><text fill="#000000" font-family="sans-serif" font-size="14" lengthAdjust="spacing" textLength="72" x="475.5" y="826.5957">+Property()</text><text fill="#000000" font-family="sans-serif" font-size="14" lengthAdjust="spacing" textLength="160" x="475.5" y="842.2363">+fillProperty(district,state,</text><text fill="#000000" font-family="sans-serif" font-size="14" lengthAdjust="spacing" textLength="211" x="475.5" y="857.877">city,street,zip-code,propertyType,</text><text fill="#000000" font-family="sans-serif" font-size="14" lengthAdjust="spacing" textLength="304" x="475.5" y="873.5176">transactionType, numBedrooms,numBathrooms,</text><text fill="#000000" font-family="sans-serif" font-size="14" lengthAdjust="spacing" textLength="196" x="475.5" y="889.1582">numParkingSpaces, basement,</text><text fill="#000000" font-family="sans-serif" font-size="14" lengthAdjust="spacing" textLength="187" x="475.5" y="904.7988">inhabitableLoft, sunExposure,</text><text fill="#000000" font-family="sans-serif" font-size="14" lengthAdjust="spacing" textLength="127" x="475.5" y="920.4395">owner,photographs)</text></g><!--class Dwelling--><g id="elem_Dwelling"><rect codeLine="46" fill="#F1F1F1" height="141.8438" id="Dwelling" rx="2.5" ry="2.5" style="stroke:#181818;stroke-width:0.5;" width="271" x="7" y="1010.5"/><ellipse cx="112.25" cy="1026.5" fill="#ADD1B2" rx="11" ry="11" style="stroke:#181818;stroke-width:1.0;"/><path d="M115.0156,1022.375 Q115.1719,1022.1563 115.3594,1022.0469 Q115.5469,1021.9375 115.7656,1021.9375 Q116.1406,1021.9375 116.375,1022.2031 Q116.6094,1022.4531 116.6094,1023.0625 L116.6094,1024.5156 Q116.6094,1025.125 116.375,1025.3906 Q116.1406,1025.6563 115.7656,1025.6563 Q115.4219,1025.6563 115.2188,1025.4531 Q115.0156,1025.2656 114.9063,1024.75 Q114.8594,1024.3906 114.6719,1024.2031 Q114.3438,1023.8281 113.7344,1023.6094 Q113.125,1023.3906 112.5,1023.3906 Q111.7344,1023.3906 111.0938,1023.7188 Q110.4688,1024.0469 109.9688,1024.7969 Q109.4844,1025.5469 109.4844,1026.5781 L109.4844,1027.6719 Q109.4844,1028.9063 110.375,1029.7344 Q111.2656,1030.5469 112.8594,1030.5469 Q113.7969,1030.5469 114.4531,1030.2969 Q114.8438,1030.1406 115.2656,1029.7031 Q115.5313,1029.4375 115.6719,1029.3594 Q115.8281,1029.2813 116.0313,1029.2813 Q116.3594,1029.2813 116.6094,1029.5469 Q116.875,1029.7969 116.875,1030.1406 Q116.875,1030.4844 116.5313,1030.8906 Q116.0313,1031.4688 115.2344,1031.7969 Q114.1563,1032.25 112.8594,1032.25 Q111.3438,1032.25 110.1406,1031.625 Q109.1563,1031.125 108.4688,1030.0625 Q107.7813,1028.9844 107.7813,1027.7031 L107.7813,1026.5469 Q107.7813,1025.2188 108.3906,1024.0781 Q109.0156,1022.9219 110.1094,1022.3125 Q111.2031,1021.6875 112.4375,1021.6875 Q113.1719,1021.6875 113.8125,1021.8594 Q114.4688,1022.0156 115.0156,1022.375 Z " fill="#000000"/><text fill="#000000" font-family="sans-serif" font-size="14" lengthAdjust="spacing" textLength="52" x="132.75" y="1031.3535">Dwelling</text><line style="stroke:#181818;stroke-width:0.5;" x1="8" x2="277" y1="1042.5" y2="1042.5"/><text fill="#000000" font-family="sans-serif" font-size="14" lengthAdjust="spacing" textLength="115" x="13" y="1059.1738">-int numBedrooms</text><text fill="#000000" font-family="sans-serif" font-size="14" lengthAdjust="spacing" textLength="119" x="13" y="1074.8145">-int numBathrooms</text><text fill="#000000" font-family="sans-serif" font-size="14" lengthAdjust="spacing" textLength="146" x="13" y="1090.4551">-int numParkingSpaces</text><line style="stroke:#181818;stroke-width:0.5;" x1="8" x2="277" y1="1097.4219" y2="1097.4219"/><text fill="#000000" font-family="sans-serif" font-size="14" lengthAdjust="spacing" textLength="259" x="13" y="1114.0957">+Dwelling(numBedrooms,numBathrooms,</text><text fill="#000000" font-family="sans-serif" font-size="14" lengthAdjust="spacing" textLength="192" x="13" y="1129.7363">numParkingSpaces,basement,</text><text fill="#000000" font-family="sans-serif" font-size="14" lengthAdjust="spacing" textLength="184" x="13" y="1145.377">inhabitableLoft,sunExposure)</text></g><!--class House--><g id="elem_House"><rect codeLine="53" fill="#F1F1F1" height="126.2031" id="House" rx="2.5" ry="2.5" style="stroke:#181818;stroke-width:0.5;" width="228" x="28.5" y="1236"/><ellipse cx="118.25" cy="1252" fill="#ADD1B2" rx="11" ry="11" style="stroke:#181818;stroke-width:1.0;"/><path d="M121.0156,1247.875 Q121.1719,1247.6563 121.3594,1247.5469 Q121.5469,1247.4375 121.7656,1247.4375 Q122.1406,1247.4375 122.375,1247.7031 Q122.6094,1247.9531 122.6094,1248.5625 L122.6094,1250.0156 Q122.6094,1250.625 122.375,1250.8906 Q122.1406,1251.1563 121.7656,1251.1563 Q121.4219,1251.1563 121.2188,1250.9531 Q121.0156,1250.7656 120.9063,1250.25 Q120.8594,1249.8906 120.6719,1249.7031 Q120.3438,1249.3281 119.7344,1249.1094 Q119.125,1248.8906 118.5,1248.8906 Q117.7344,1248.8906 117.0938,1249.2188 Q116.4688,1249.5469 115.9688,1250.2969 Q115.4844,1251.0469 115.4844,1252.0781 L115.4844,1253.1719 Q115.4844,1254.4063 116.375,1255.2344 Q117.2656,1256.0469 118.8594,1256.0469 Q119.7969,1256.0469 120.4531,1255.7969 Q120.8438,1255.6406 121.2656,1255.2031 Q121.5313,1254.9375 121.6719,1254.8594 Q121.8281,1254.7813 122.0313,1254.7813 Q122.3594,1254.7813 122.6094,1255.0469 Q122.875,1255.2969 122.875,1255.6406 Q122.875,1255.9844 122.5313,1256.3906 Q122.0313,1256.9688 121.2344,1257.2969 Q120.1563,1257.75 118.8594,1257.75 Q117.3438,1257.75 116.1406,1257.125 Q115.1563,1256.625 114.4688,1255.5625 Q113.7813,1254.4844 113.7813,1253.2031 L113.7813,1252.0469 Q113.7813,1250.7188 114.3906,1249.5781 Q115.0156,1248.4219 116.1094,1247.8125 Q117.2031,1247.1875 118.4375,1247.1875 Q119.1719,1247.1875 119.8125,1247.3594 Q120.4688,1247.5156 121.0156,1247.875 Z " fill="#000000"/><text fill="#000000" font-family="sans-serif" font-size="14" lengthAdjust="spacing" textLength="40" x="138.75" y="1256.8535">House</text><line style="stroke:#181818;stroke-width:0.5;" x1="29.5" x2="255.5" y1="1268" y2="1268"/><text fill="#000000" font-family="sans-serif" font-size="14" lengthAdjust="spacing" textLength="122" x="34.5" y="1284.6738">-boolean basement</text><text fill="#000000" font-family="sans-serif" font-size="14" lengthAdjust="spacing" textLength="153" x="34.5" y="1300.3145">-boolean inhabitableLoft</text><text fill="#000000" font-family="sans-serif" font-size="14" lengthAdjust="spacing" textLength="106" x="34.5" y="1315.9551">-int sunExposure</text><line style="stroke:#181818;stroke-width:0.5;" x1="29.5" x2="255.5" y1="1322.9219" y2="1322.9219"/><text fill="#000000" font-family="sans-serif" font-size="14" lengthAdjust="spacing" textLength="216" x="34.5" y="1339.5957">+House(basement,inhabitableLoft,</text><text fill="#000000" font-family="sans-serif" font-size="14" lengthAdjust="spacing" textLength="87" x="34.5" y="1355.2363">sunExposure)</text></g><!--class PropertyType--><g id="elem_PropertyType"><rect codeLine="61" fill="#F1F1F1" height="79.2813" id="PropertyType" rx="2.5" ry="2.5" style="stroke:#181818;stroke-width:0.5;" width="201" x="313" y="1042"/><ellipse cx="366.25" cy="1058" fill="#ADD1B2" rx="11" ry="11" style="stroke:#181818;stroke-width:1.0;"/><path d="M369.0156,1053.875 Q369.1719,1053.6563 369.3594,1053.5469 Q369.5469,1053.4375 369.7656,1053.4375 Q370.1406,1053.4375 370.375,1053.7031 Q370.6094,1053.9531 370.6094,1054.5625 L370.6094,1056.0156 Q370.6094,1056.625 370.375,1056.8906 Q370.1406,1057.1563 369.7656,1057.1563 Q369.4219,1057.1563 369.2188,1056.9531 Q369.0156,1056.7656 368.9063,1056.25 Q368.8594,1055.8906 368.6719,1055.7031 Q368.3438,1055.3281 367.7344,1055.1094 Q367.125,1054.8906 366.5,1054.8906 Q365.7344,1054.8906 365.0938,1055.2188 Q364.4688,1055.5469 363.9688,1056.2969 Q363.4844,1057.0469 363.4844,1058.0781 L363.4844,1059.1719 Q363.4844,1060.4063 364.375,1061.2344 Q365.2656,1062.0469 366.8594,1062.0469 Q367.7969,1062.0469 368.4531,1061.7969 Q368.8438,1061.6406 369.2656,1061.2031 Q369.5313,1060.9375 369.6719,1060.8594 Q369.8281,1060.7813 370.0313,1060.7813 Q370.3594,1060.7813 370.6094,1061.0469 Q370.875,1061.2969 370.875,1061.6406 Q370.875,1061.9844 370.5313,1062.3906 Q370.0313,1062.9688 369.2344,1063.2969 Q368.1563,1063.75 366.8594,1063.75 Q365.3438,1063.75 364.1406,1063.125 Q363.1563,1062.625 362.4688,1061.5625 Q361.7813,1060.4844 361.7813,1059.2031 L361.7813,1058.0469 Q361.7813,1056.7188 362.3906,1055.5781 Q363.0156,1054.4219 364.1094,1053.8125 Q365.2031,1053.1875 366.4375,1053.1875 Q367.1719,1053.1875 367.8125,1053.3594 Q368.4688,1053.5156 369.0156,1053.875 Z " fill="#000000"/><text fill="#000000" font-family="sans-serif" font-size="14" lengthAdjust="spacing" textLength="86" x="386.75" y="1062.8535">PropertyType</text><line style="stroke:#181818;stroke-width:0.5;" x1="314" x2="513" y1="1074" y2="1074"/><text fill="#000000" font-family="sans-serif" font-size="14" lengthAdjust="spacing" textLength="109" x="319" y="1090.6738">-int propertyType</text><line style="stroke:#181818;stroke-width:0.5;" x1="314" x2="513" y1="1097.6406" y2="1097.6406"/><text fill="#000000" font-family="sans-serif" font-size="14" lengthAdjust="spacing" textLength="189" x="319" y="1114.3145">+PropertyType(propertyType)</text></g><!--class Address--><g id="elem_Address"><rect codeLine="66" fill="#F1F1F1" height="157.4844" id="Address" rx="2.5" ry="2.5" style="stroke:#181818;stroke-width:0.5;" width="157" x="549" y="1003"/><ellipse cx="597.25" cy="1019" fill="#ADD1B2" rx="11" ry="11" style="stroke:#181818;stroke-width:1.0;"/><path d="M600.0156,1014.875 Q600.1719,1014.6563 600.3594,1014.5469 Q600.5469,1014.4375 600.7656,1014.4375 Q601.1406,1014.4375 601.375,1014.7031 Q601.6094,1014.9531 601.6094,1015.5625 L601.6094,1017.0156 Q601.6094,1017.625 601.375,1017.8906 Q601.1406,1018.1563 600.7656,1018.1563 Q600.4219,1018.1563 600.2188,1017.9531 Q600.0156,1017.7656 599.9063,1017.25 Q599.8594,1016.8906 599.6719,1016.7031 Q599.3438,1016.3281 598.7344,1016.1094 Q598.125,1015.8906 597.5,1015.8906 Q596.7344,1015.8906 596.0938,1016.2188 Q595.4688,1016.5469 594.9688,1017.2969 Q594.4844,1018.0469 594.4844,1019.0781 L594.4844,1020.1719 Q594.4844,1021.4063 595.375,1022.2344 Q596.2656,1023.0469 597.8594,1023.0469 Q598.7969,1023.0469 599.4531,1022.7969 Q599.8438,1022.6406 600.2656,1022.2031 Q600.5313,1021.9375 600.6719,1021.8594 Q600.8281,1021.7813 601.0313,1021.7813 Q601.3594,1021.7813 601.6094,1022.0469 Q601.875,1022.2969 601.875,1022.6406 Q601.875,1022.9844 601.5313,1023.3906 Q601.0313,1023.9688 600.2344,1024.2969 Q599.1563,1024.75 597.8594,1024.75 Q596.3438,1024.75 595.1406,1024.125 Q594.1563,1023.625 593.4688,1022.5625 Q592.7813,1021.4844 592.7813,1020.2031 L592.7813,1019.0469 Q592.7813,1017.7188 593.3906,1016.5781 Q594.0156,1015.4219 595.1094,1014.8125 Q596.2031,1014.1875 597.4375,1014.1875 Q598.1719,1014.1875 598.8125,1014.3594 Q599.4688,1014.5156 600.0156,1014.875 Z " fill="#000000"/><text fill="#000000" font-family="sans-serif" font-size="14" lengthAdjust="spacing" textLength="52" x="617.75" y="1023.8535">Address</text><line style="stroke:#181818;stroke-width:0.5;" x1="550" x2="705" y1="1035" y2="1035"/><text fill="#000000" font-family="sans-serif" font-size="14" lengthAdjust="spacing" textLength="65" x="555" y="1051.6738">-int district</text><text fill="#000000" font-family="sans-serif" font-size="14" lengthAdjust="spacing" textLength="55" x="555" y="1067.3145">-int state</text><text fill="#000000" font-family="sans-serif" font-size="14" lengthAdjust="spacing" textLength="45" x="555" y="1082.9551">-int city</text><text fill="#000000" font-family="sans-serif" font-size="14" lengthAdjust="spacing" textLength="60" x="555" y="1098.5957">-int street</text><text fill="#000000" font-family="sans-serif" font-size="14" lengthAdjust="spacing" textLength="77" x="555" y="1114.2363">-int zip-code</text><line style="stroke:#181818;stroke-width:0.5;" x1="550" x2="705" y1="1121.2031" y2="1121.2031"/><text fill="#000000" font-family="sans-serif" font-size="14" lengthAdjust="spacing" textLength="145" x="555" y="1137.877">+Address(district,state,</text><text fill="#000000" font-family="sans-serif" font-size="14" lengthAdjust="spacing" textLength="123" x="555" y="1153.5176">city,street,zip-code)</text></g><!--class Photograph--><g id="elem_Photograph"><rect codeLine="75" fill="#F1F1F1" height="79.2813" id="Photograph" rx="2.5" ry="2.5" style="stroke:#181818;stroke-width:0.5;" width="184" x="741.5" y="1042"/><ellipse cx="792.25" cy="1058" fill="#ADD1B2" rx="11" ry="11" style="stroke:#181818;stroke-width:1.0;"/><path d="M795.0156,1053.875 Q795.1719,1053.6563 795.3594,1053.5469 Q795.5469,1053.4375 795.7656,1053.4375 Q796.1406,1053.4375 796.375,1053.7031 Q796.6094,1053.9531 796.6094,1054.5625 L796.6094,1056.0156 Q796.6094,1056.625 796.375,1056.8906 Q796.1406,1057.1563 795.7656,1057.1563 Q795.4219,1057.1563 795.2188,1056.9531 Q795.0156,1056.7656 794.9063,1056.25 Q794.8594,1055.8906 794.6719,1055.7031 Q794.3438,1055.3281 793.7344,1055.1094 Q793.125,1054.8906 792.5,1054.8906 Q791.7344,1054.8906 791.0938,1055.2188 Q790.4688,1055.5469 789.9688,1056.2969 Q789.4844,1057.0469 789.4844,1058.0781 L789.4844,1059.1719 Q789.4844,1060.4063 790.375,1061.2344 Q791.2656,1062.0469 792.8594,1062.0469 Q793.7969,1062.0469 794.4531,1061.7969 Q794.8438,1061.6406 795.2656,1061.2031 Q795.5313,1060.9375 795.6719,1060.8594 Q795.8281,1060.7813 796.0313,1060.7813 Q796.3594,1060.7813 796.6094,1061.0469 Q796.875,1061.2969 796.875,1061.6406 Q796.875,1061.9844 796.5313,1062.3906 Q796.0313,1062.9688 795.2344,1063.2969 Q794.1563,1063.75 792.8594,1063.75 Q791.3438,1063.75 790.1406,1063.125 Q789.1563,1062.625 788.4688,1061.5625 Q787.7813,1060.4844 787.7813,1059.2031 L787.7813,1058.0469 Q787.7813,1056.7188 788.3906,1055.5781 Q789.0156,1054.4219 790.1094,1053.8125 Q791.2031,1053.1875 792.4375,1053.1875 Q793.1719,1053.1875 793.8125,1053.3594 Q794.4688,1053.5156 795.0156,1053.875 Z " fill="#000000"/><text fill="#000000" font-family="sans-serif" font-size="14" lengthAdjust="spacing" textLength="74" x="812.75" y="1062.8535">Photograph</text><line style="stroke:#181818;stroke-width:0.5;" x1="742.5" x2="924.5" y1="1074" y2="1074"/><text fill="#000000" font-family="sans-serif" font-size="14" lengthAdjust="spacing" textLength="126" x="747.5" y="1090.6738">-String photographs</text><line style="stroke:#181818;stroke-width:0.5;" x1="742.5" x2="924.5" y1="1097.6406" y2="1097.6406"/><text fill="#000000" font-family="sans-serif" font-size="14" lengthAdjust="spacing" textLength="172" x="747.5" y="1114.3145">+Photograph(photographs)</text></g><!--class Equipment--><g id="elem_Equipment"><rect codeLine="80" fill="#F1F1F1" height="79.2813" id="Equipment" rx="2.5" ry="2.5" style="stroke:#181818;stroke-width:0.5;" width="170" x="960.5" y="1042"/><ellipse cx="1007.75" cy="1058" fill="#ADD1B2" rx="11" ry="11" style="stroke:#181818;stroke-width:1.0;"/><path d="M1010.5156,1053.875 Q1010.6719,1053.6563 1010.8594,1053.5469 Q1011.0469,1053.4375 1011.2656,1053.4375 Q1011.6406,1053.4375 1011.875,1053.7031 Q1012.1094,1053.9531 1012.1094,1054.5625 L1012.1094,1056.0156 Q1012.1094,1056.625 1011.875,1056.8906 Q1011.6406,1057.1563 1011.2656,1057.1563 Q1010.9219,1057.1563 1010.7188,1056.9531 Q1010.5156,1056.7656 1010.4063,1056.25 Q1010.3594,1055.8906 1010.1719,1055.7031 Q1009.8438,1055.3281 1009.2344,1055.1094 Q1008.625,1054.8906 1008,1054.8906 Q1007.2344,1054.8906 1006.5938,1055.2188 Q1005.9688,1055.5469 1005.4688,1056.2969 Q1004.9844,1057.0469 1004.9844,1058.0781 L1004.9844,1059.1719 Q1004.9844,1060.4063 1005.875,1061.2344 Q1006.7656,1062.0469 1008.3594,1062.0469 Q1009.2969,1062.0469 1009.9531,1061.7969 Q1010.3438,1061.6406 1010.7656,1061.2031 Q1011.0313,1060.9375 1011.1719,1060.8594 Q1011.3281,1060.7813 1011.5313,1060.7813 Q1011.8594,1060.7813 1012.1094,1061.0469 Q1012.375,1061.2969 1012.375,1061.6406 Q1012.375,1061.9844 1012.0313,1062.3906 Q1011.5313,1062.9688 1010.7344,1063.2969 Q1009.6563,1063.75 1008.3594,1063.75 Q1006.8438,1063.75 1005.6406,1063.125 Q1004.6563,1062.625 1003.9688,1061.5625 Q1003.2813,1060.4844 1003.2813,1059.2031 L1003.2813,1058.0469 Q1003.2813,1056.7188 1003.8906,1055.5781 Q1004.5156,1054.4219 1005.6094,1053.8125 Q1006.7031,1053.1875 1007.9375,1053.1875 Q1008.6719,1053.1875 1009.3125,1053.3594 Q1009.9688,1053.5156 1010.5156,1053.875 Z " fill="#000000"/><text fill="#000000" font-family="sans-serif" font-size="14" lengthAdjust="spacing" textLength="67" x="1028.25" y="1062.8535">Equipment</text><line style="stroke:#181818;stroke-width:0.5;" x1="961.5" x2="1129.5" y1="1074" y2="1074"/><text fill="#000000" font-family="sans-serif" font-size="14" lengthAdjust="spacing" textLength="140" x="966.5" y="1090.6738">-int numOfEquipments</text><text fill="#000000" font-family="sans-serif" font-size="14" lengthAdjust="spacing" textLength="158" x="966.5" y="1106.3145">-List&lt;String&gt; Equipments</text><line style="stroke:#181818;stroke-width:0.5;" x1="961.5" x2="1129.5" y1="1113.2813" y2="1113.2813"/></g><!--link PublishSaleAnnouncementUI to PublishSaleAnnouncementController--><g id="link_PublishSaleAnnouncementUI_PublishSaleAnnouncementController"><path codeLine="86" d="M327.06,85.5 C333.75,85.5 344.87,85.5 357.15,85.5 " fill="none" id="PublishSaleAnnouncementUI-to-PublishSaleAnnouncementController" style="stroke:#181818;stroke-width:1.0;stroke-dasharray:7.0,7.0;"/><polygon fill="#181818" points="362.47,85.5,353.47,81.5,357.47,85.5,353.47,89.5,362.47,85.5" style="stroke:#181818;stroke-width:1.0;"/></g><!--link PublishSaleAnnouncementController to SaleAnnouncement--><g id="link_PublishSaleAnnouncementController_SaleAnnouncement"><path codeLine="87" d="M392.01,164.15 C329.01,202.22 266.5,240 266.5,240 C266.5,240 266.5,382 266.5,382 C266.5,382 337.59,427.13 406.41,470.82 " fill="none" id="PublishSaleAnnouncementController-to-SaleAnnouncement" style="stroke:#181818;stroke-width:1.0;stroke-dasharray:7.0,7.0;"/><polygon fill="#181818" points="410.94,473.7,405.4999,465.4899,406.7235,471.0128,401.2005,472.2364,410.94,473.7" style="stroke:#181818;stroke-width:1.0;"/><text fill="#000000" font-family="sans-serif" font-size="13" lengthAdjust="spacing" textLength="113" x="267.5" y="315.7686">SaleAnnouncement</text><text fill="#000000" font-family="sans-serif" font-size="13" lengthAdjust="spacing" textLength="5" x="397.9283" y="465.9963">*</text></g><!--link PublishSaleAnnouncementController to SaleAnnouncementRepository--><g id="link_PublishSaleAnnouncementController_SaleAnnouncementRepository"><path codeLine="88" d="M518.34,164.06 C517.86,181.01 517.5,194 517.5,194 C517.5,194 517.5,210 517.5,210 C517.5,210 519.19,220.54 521.46,234.77 " fill="none" id="PublishSaleAnnouncementController-to-SaleAnnouncementRepository" style="stroke:#181818;stroke-width:1.0;stroke-dasharray:7.0,7.0;"/><polygon fill="#181818" points="522.26,239.73,524.7975,230.2136,521.4751,234.792,516.8967,231.4696,522.26,239.73" style="stroke:#181818;stroke-width:1.0;"/><text fill="#000000" font-family="sans-serif" font-size="13" lengthAdjust="spacing" textLength="175" x="518.5" y="206.7686">SaleAnnouncementRepository</text><text fill="#000000" font-family="sans-serif" font-size="13" lengthAdjust="spacing" textLength="7" x="513.7399" y="229.462">1</text></g><!--link SaleAnnouncementRepository to SaleAnnouncement--><g id="link_SaleAnnouncementRepository_SaleAnnouncement"><path codeLine="89" d="M533.5,382.24 C533.5,404.27 533.5,429.02 533.5,452.65 " fill="none" id="SaleAnnouncementRepository-to-SaleAnnouncement" style="stroke:#181818;stroke-width:1.0;stroke-dasharray:7.0,7.0;"/><polygon fill="#181818" points="533.5,457.68,537.5,448.68,533.5,452.68,529.5,448.68,533.5,457.68" style="stroke:#181818;stroke-width:1.0;"/><text fill="#000000" font-family="sans-serif" font-size="13" lengthAdjust="spacing" textLength="43" x="534.5" y="424.7686">creates</text><text fill="#000000" font-family="sans-serif" font-size="13" lengthAdjust="spacing" textLength="5" x="528.3008" y="447.365">*</text></g><!--link PublishSaleAnnouncementController to Property--><g id="link_PublishSaleAnnouncementController_Property"><path codeLine="90" d="M648.92,164.06 C676.99,181.01 698.5,194 698.5,194 C698.5,194 698.5,210 698.5,210 C698.5,210 673.5,647 673.5,647 C673.5,647 664.89,680.14 655.11,717.75 " fill="none" id="PublishSaleAnnouncementController-to-Property" style="stroke:#181818;stroke-width:1.0;stroke-dasharray:7.0,7.0;"/><polygon fill="#181818" points="653.79,722.83,659.9499,715.1452,655.0632,717.9948,652.2136,713.1081,653.79,722.83" style="stroke:#181818;stroke-width:1.0;"/><text fill="#000000" font-family="sans-serif" font-size="13" lengthAdjust="spacing" textLength="49" x="687.5" y="424.7686">Property</text><text fill="#000000" font-family="sans-serif" font-size="13" lengthAdjust="spacing" textLength="5" x="650.6114" y="712.2447">*</text></g><!--link SaleAnnouncement to Property--><g id="link_SaleAnnouncement_Property"><path codeLine="91" d="M566.11,647.35 C574.03,670.14 582.56,694.67 590.66,717.98 " fill="none" id="SaleAnnouncement-to-Property" style="stroke:#181818;stroke-width:1.0;stroke-dasharray:7.0,7.0;"/><polygon fill="#181818" points="592.38,722.94,593.1955,713.125,590.7346,718.2185,585.6411,715.7576,592.38,722.94" style="stroke:#181818;stroke-width:1.0;"/><text fill="#000000" font-family="sans-serif" font-size="13" lengthAdjust="spacing" textLength="43" x="581.5" y="689.7686">creates</text></g><!--link Property to PropertyType--><g id="link_Property_PropertyType"><path codeLine="92" d="M542.31,927.32 C509.96,965.79 474.83,1007.56 449.44,1037.75 " fill="none" id="Property-to-PropertyType" style="stroke:#181818;stroke-width:1.0;stroke-dasharray:7.0,7.0;"/><polygon fill="#181818" points="446.08,1041.75,454.9304,1037.4291,449.295,1037.9206,448.8034,1032.2852,446.08,1041.75" style="stroke:#181818;stroke-width:1.0;"/><text fill="#000000" font-family="sans-serif" font-size="13" lengthAdjust="spacing" textLength="32" x="515.5" y="969.7686">has a</text><text fill="#000000" font-family="sans-serif" font-size="13" lengthAdjust="spacing" textLength="7" x="444.2599" y="1031.2128">1</text></g><!--link Property to Address--><g id="link_Property_Address"><path codeLine="93" d="M627.5,927.32 C627.5,950.64 627.5,975.18 627.5,997.62 " fill="none" id="Property-to-Address" style="stroke:#181818;stroke-width:1.0;stroke-dasharray:7.0,7.0;"/><polygon fill="#181818" points="627.5,1002.67,631.5,993.67,627.5,997.67,623.5,993.67,627.5,1002.67" style="stroke:#181818;stroke-width:1.0;"/><text fill="#000000" font-family="sans-serif" font-size="13" lengthAdjust="spacing" textLength="57" x="628.5" y="969.7686">located at</text><text fill="#000000" font-family="sans-serif" font-size="13" lengthAdjust="spacing" textLength="7" x="620.1664" y="992.2597">1</text></g><!--link Property to Photograph--><g id="link_Property_Photograph"><path codeLine="94" d="M709.51,927.32 C740.65,965.79 774.46,1007.56 798.9,1037.75 " fill="none" id="Property-to-Photograph" style="stroke:#181818;stroke-width:1.0;stroke-dasharray:7.0,7.0;"/><polygon fill="#181818" points="802.13,1041.75,799.5802,1032.2369,798.9857,1037.8624,793.3601,1037.2679,802.13,1041.75" style="stroke:#181818;stroke-width:1.0;"/><text fill="#000000" font-family="sans-serif" font-size="13" lengthAdjust="spacing" textLength="21" x="743.5" y="969.7686">has</text><text fill="#000000" font-family="sans-serif" font-size="13" lengthAdjust="spacing" textLength="20" x="774.761" y="1031.2128">1..*</text></g><!--link Property to Dwelling--><g id="link_Property_Dwelling"><path codeLine="95" d="M469.36,908.98 C408.48,940.93 339.48,977.13 280.63,1008.02 " fill="none" id="Property-to-Dwelling" style="stroke:#181818;stroke-width:1.0;stroke-dasharray:7.0,7.0;"/><polygon fill="#181818" points="276.05,1010.42,285.8775,1009.7719,280.4755,1008.093,282.1544,1002.691,276.05,1010.42" style="stroke:#181818;stroke-width:1.0;"/><text fill="#000000" font-family="sans-serif" font-size="13" lengthAdjust="spacing" textLength="39" x="371.5" y="969.7686">can be</text><text fill="#000000" font-family="sans-serif" font-size="13" lengthAdjust="spacing" textLength="7" x="283.2742" y="999.6857">1</text></g><!--link Property to Equipment--><g id="link_Property_Equipment"><path codeLine="96" d="M785.96,914.76 C864.81,958.92 943.5,1003 943.5,1003 C943.5,1003 966.47,1020.45 990.6,1038.79 " fill="none" id="Property-to-Equipment" style="stroke:#181818;stroke-width:1.0;stroke-dasharray:7.0,7.0;"/><polygon fill="#181818" points="994.8,1041.98,990.0541,1033.35,990.8189,1038.9549,985.214,1039.7198,994.8,1041.98" style="stroke:#181818;stroke-width:1.0;"/><text fill="#000000" font-family="sans-serif" font-size="13" lengthAdjust="spacing" textLength="51" x="883.5" y="969.7686">can have</text><text fill="#000000" font-family="sans-serif" font-size="13" lengthAdjust="spacing" textLength="5" x="979.9912" y="1031.1938">*</text></g><!--link Dwelling to House--><g id="link_Dwelling_House"><path codeLine="97" d="M142.5,1152.76 C142.5,1177.76 142.5,1205.84 142.5,1230.59 " fill="none" id="Dwelling-to-House" style="stroke:#181818;stroke-width:1.0;stroke-dasharray:7.0,7.0;"/><polygon fill="#181818" points="142.5,1235.82,146.5,1226.82,142.5,1230.82,138.5,1226.82,142.5,1235.82" style="stroke:#181818;stroke-width:1.0;"/><text fill="#000000" font-family="sans-serif" font-size="13" lengthAdjust="spacing" textLength="39" x="143.5" y="1202.7686">can be</text><text fill="#000000" font-family="sans-serif" font-size="13" lengthAdjust="spacing" textLength="7" x="135.0734" y="1225.0549">1</text></g><!--SRC=[rLN1Rjim3BthAuHUcYvEi5s7eK3N5bY10YkMxPQBOZEsK4No97gT6-pVHzcMhJffqXuAR3w95FduI3z9f-vUwb9OiU4ReqrQMBC1ZhO2DkoK8hqNEIomLi0jf2Xqhk80LuZCF4YTyxLGBjvHKWFM9V3IgDeRx7JFfh5eM9ILAk7S1QALgmhX9ZLw8H-1lsUd2jR8qN0hym9v9ZqRQJHhlYQDtrKh9Lsn40ekj3QLJc436d_SR1dxSoJeqcYqHYcmVCiuVTEZWPEp9d3sJE0aauxwI35nA12IfKubrcHO04mUPJbBJGP9QKq95kllD0wAGIkq4qrhZOVhQlCPCclCnYL-BR1eZQKcyqvOcbs-e1y5Bk4huPhQj2br8LOInKh1hLbZmbsbht-NnbNMrp4F6cnI5WPDRaLPkBDXHEDEse7CLiOe49gFABRJskaUJIRgAsgycz9QAlL68n8MHC9zwYM1KbjygKk2VRlfyJtZOyyFy1jGfaHZQr9YCwwKA2Fys_DeUwHcdxOvdAIEnfRDfCQcQhiQAhTsKvjDGpoTcwbNGs__RmTb6C7L0oYwo_9k1165mH5uz9udLDWqO4nUqy01_X7zw4n_CPK3eXaESG0OF2ESbcu4ngODngGlFIwyrEFI8w7u_xGDaXXSWpAyDOcteWOkiio2Srr-a4p7qkjcq5vmUlsqwo0YDkrWNgQvgFnTBm1YiA1KUl8YKL0FlJ7PVwjU_wnasLwdGGbVrxsJv75Bb3wrqESysl0GppvjV7v-_4bZnn-zEU6Sl3lPkRhunntNIz4-d1ou2FVW3fliGDu1eksbwbxHRH0U9OVbJkqcE0higmHNQ3PMCSKLmd6n6zK9a0AKIGaeumB7KVEvvzQhg0NRXGetXoVbZpICGWYabr4NKuXVmFgy0DGSx06b_Vu2]--></g></svg>