<?xml version="1.0" encoding="us-ascii" standalone="no"?><svg xmlns="http://www.w3.org/2000/svg" xmlns:xlink="http://www.w3.org/1999/xlink" contentStyleType="text/css" height="533px" preserveAspectRatio="none" style="width:958px;height:533px;background:#FFFFFF;" version="1.1" viewBox="0 0 958 533" width="958px" zoomAndPan="magnify"><defs/><g><rect fill="#FFFFFF" height="423.6641" style="stroke:#181818;stroke-width:1.0;" width="10" x="159" y="66.1641"/><rect fill="#FFFFFF" height="43.0469" style="stroke:#181818;stroke-width:1.0;" width="10" x="491" y="297.2813"/><rect fill="none" height="372.1406" style="stroke:#000000;stroke-width:1.5;" width="844" x="108" y="81.1641"/><rect fill="none" height="217.2891" style="stroke:#000000;stroke-width:1.5;" width="660" x="118" y="145.3281"/><line style="stroke:#181818;stroke-width:0.5;stroke-dasharray:5.0,5.0;" x1="164" x2="164" y1="35.6406" y2="498.8281"/><line style="stroke:#181818;stroke-width:0.5;stroke-dasharray:5.0,5.0;" x1="403" x2="403" y1="128.0078" y2="498.8281"/><line style="stroke:#181818;stroke-width:0.5;stroke-dasharray:5.0,5.0;" x1="496" x2="496" y1="257.9727" y2="498.8281"/><line style="stroke:#181818;stroke-width:0.5;stroke-dasharray:5.0,5.0;" x1="741" x2="741" y1="336.8047" y2="498.8281"/><line style="stroke:#181818;stroke-width:0.5;stroke-dasharray:5.0,5.0;" x1="811" x2="811" y1="401.1406" y2="498.8281"/><line style="stroke:#181818;stroke-width:0.5;stroke-dasharray:5.0,5.0;" x1="898" x2="898" y1="442.9844" y2="498.8281"/><rect fill="#E3E3E3" height="29.6406" rx="2.5" ry="2.5" style="stroke:#181818;stroke-width:0.5;" width="72" x="128" y="5"/><text fill="#000000" font-family="sans-serif" font-size="14" lengthAdjust="spacing" textLength="58" x="135" y="24.6738">:Property</text><rect fill="#E3E3E3" height="29.6406" rx="2.5" ry="2.5" style="stroke:#181818;stroke-width:0.5;" width="72" x="128" y="497.8281"/><text fill="#000000" font-family="sans-serif" font-size="14" lengthAdjust="spacing" textLength="58" x="135" y="517.502">:Property</text><rect fill="#E3E3E3" height="29.6406" rx="2.5" ry="2.5" style="stroke:#181818;stroke-width:0.5;" width="100" x="353" y="497.8281"/><text fill="#000000" font-family="sans-serif" font-size="14" lengthAdjust="spacing" textLength="86" x="360" y="517.502">PropertyType</text><rect fill="#E3E3E3" height="29.6406" rx="2.5" ry="2.5" style="stroke:#181818;stroke-width:0.5;" width="66" x="463" y="497.8281"/><text fill="#000000" font-family="sans-serif" font-size="14" lengthAdjust="spacing" textLength="52" x="470" y="517.502">Dwelling</text><rect fill="#E3E3E3" height="29.6406" rx="2.5" ry="2.5" style="stroke:#181818;stroke-width:0.5;" width="54" x="714" y="497.8281"/><text fill="#000000" font-family="sans-serif" font-size="14" lengthAdjust="spacing" textLength="40" x="721" y="517.502">House</text><rect fill="#E3E3E3" height="29.6406" rx="2.5" ry="2.5" style="stroke:#181818;stroke-width:0.5;" width="66" x="778" y="497.8281"/><text fill="#000000" font-family="sans-serif" font-size="14" lengthAdjust="spacing" textLength="52" x="785" y="517.502">Address</text><rect fill="#E3E3E3" height="29.6406" rx="2.5" ry="2.5" style="stroke:#181818;stroke-width:0.5;" width="88" x="854" y="497.8281"/><text fill="#000000" font-family="sans-serif" font-size="14" lengthAdjust="spacing" textLength="74" x="861" y="517.502">Photograph</text><rect fill="#FFFFFF" height="423.6641" style="stroke:#181818;stroke-width:1.0;" width="10" x="159" y="66.1641"/><rect fill="#FFFFFF" height="43.0469" style="stroke:#181818;stroke-width:1.0;" width="10" x="491" y="297.2813"/><polygon fill="#181818" points="147,62.1641,157,66.1641,147,70.1641,151,66.1641" style="stroke:#181818;stroke-width:1.0;"/><line style="stroke:#181818;stroke-width:1.0;" x1="0" x2="153" y1="66.1641" y2="66.1641"/><text fill="#000000" font-family="sans-serif" font-size="13" lengthAdjust="spacing" textLength="69" x="7" y="61.4092">fillProperty()</text><path d="M108,81.1641 L223,81.1641 L223,87.6875 L213,97.6875 L108,97.6875 L108,81.1641 " fill="#EEEEEE" style="stroke:#000000;stroke-width:1.5;"/><rect fill="none" height="372.1406" style="stroke:#000000;stroke-width:1.5;" width="844" x="108" y="81.1641"/><text fill="#000000" font-family="sans-serif" font-size="13" font-weight="bold" lengthAdjust="spacing" textLength="70" x="123" y="93.9326">fillProperty</text><polygon fill="#181818" points="341,114.2109,351,118.2109,341,122.2109,345,118.2109" style="stroke:#181818;stroke-width:1.0;"/><line style="stroke:#181818;stroke-width:1.0;" x1="169" x2="347" y1="118.2109" y2="118.2109"/><text fill="#000000" font-family="sans-serif" font-size="13" lengthAdjust="spacing" textLength="160" x="176" y="113.4561">PropertyType(propertyType)</text><rect fill="#E3E3E3" height="29.6406" rx="2.5" ry="2.5" style="stroke:#181818;stroke-width:0.5;" width="100" x="353" y="97.6875"/><text fill="#000000" font-family="sans-serif" font-size="14" lengthAdjust="spacing" textLength="86" x="360" y="117.3613">PropertyType</text><path d="M118,145.3281 L179,145.3281 L179,151.8516 L169,161.8516 L118,161.8516 L118,145.3281 " fill="#EEEEEE" style="stroke:#000000;stroke-width:1.5;"/><rect fill="none" height="217.2891" style="stroke:#000000;stroke-width:1.5;" width="660" x="118" y="145.3281"/><text fill="#000000" font-family="sans-serif" font-size="13" font-weight="bold" lengthAdjust="spacing" textLength="16" x="133" y="158.0967">alt</text><text fill="#000000" font-family="sans-serif" font-size="11" font-weight="bold" lengthAdjust="spacing" textLength="101" x="194" y="157.2861">[type = apartment]</text><polygon fill="#181818" points="451,192.8984,461,196.8984,451,200.8984,455,196.8984" style="stroke:#181818;stroke-width:1.0;"/><line style="stroke:#181818;stroke-width:1.0;" x1="169" x2="457" y1="196.8984" y2="196.8984"/><text fill="#000000" font-family="sans-serif" font-size="13" lengthAdjust="spacing" textLength="232" x="176" y="177.6201">Dwelling(numBedrooms,numBathrooms,</text><text fill="#000000" font-family="sans-serif" font-size="13" lengthAdjust="spacing" textLength="117" x="176" y="192.1436">numParkingSpaces)</text><rect fill="#E3E3E3" height="29.6406" rx="2.5" ry="2.5" style="stroke:#181818;stroke-width:0.5;" width="66" x="463" y="164.2578"/><text fill="#000000" font-family="sans-serif" font-size="14" lengthAdjust="spacing" textLength="52" x="470" y="183.9316">Dwelling</text><line style="stroke:#000000;stroke-width:1.0;stroke-dasharray:2.0,2.0;" x1="118" x2="778" y1="205.8984" y2="205.8984"/><text fill="#000000" font-family="sans-serif" font-size="11" font-weight="bold" lengthAdjust="spacing" textLength="79" x="123" y="215.8564">[type = house]</text><polygon fill="#181818" points="451,264.7578,461,268.7578,451,272.7578,455,268.7578" style="stroke:#181818;stroke-width:1.0;"/><line style="stroke:#181818;stroke-width:1.0;" x1="169" x2="457" y1="268.7578" y2="268.7578"/><text fill="#000000" font-family="sans-serif" font-size="13" lengthAdjust="spacing" textLength="232" x="176" y="234.9561">Dwelling(numBedrooms,numBathrooms,</text><text fill="#000000" font-family="sans-serif" font-size="13" lengthAdjust="spacing" textLength="178" x="176" y="249.4795">numParkingSpaces,basement,</text><text fill="#000000" font-family="sans-serif" font-size="13" lengthAdjust="spacing" textLength="167" x="176" y="264.0029">inhabitableLoft,sunExposure)</text><rect fill="#E3E3E3" height="29.6406" rx="2.5" ry="2.5" style="stroke:#181818;stroke-width:0.5;" width="66" x="463" y="236.1172"/><text fill="#000000" font-family="sans-serif" font-size="14" lengthAdjust="spacing" textLength="52" x="470" y="255.791">Dwelling</text><polygon fill="#181818" points="479,293.2813,489,297.2813,479,301.2813,483,297.2813" style="stroke:#181818;stroke-width:1.0;"/><line style="stroke:#181818;stroke-width:1.0;" x1="169" x2="485" y1="297.2813" y2="297.2813"/><text fill="#000000" font-family="sans-serif" font-size="13" lengthAdjust="spacing" textLength="45" x="176" y="292.5264">House()</text><polygon fill="#181818" points="702,336.3281,712,340.3281,702,344.3281,706,340.3281" style="stroke:#181818;stroke-width:1.0;"/><line style="stroke:#181818;stroke-width:1.0;" x1="496" x2="708" y1="340.3281" y2="340.3281"/><text fill="#000000" font-family="sans-serif" font-size="13" lengthAdjust="spacing" textLength="189" x="503" y="321.0498">House(basement,inhabitableLoft,</text><text fill="#000000" font-family="sans-serif" font-size="13" lengthAdjust="spacing" textLength="80" x="503" y="335.5732">sunExposure)</text><rect fill="#E3E3E3" height="29.6406" rx="2.5" ry="2.5" style="stroke:#181818;stroke-width:0.5;" width="54" x="714" y="307.6875"/><text fill="#000000" font-family="sans-serif" font-size="14" lengthAdjust="spacing" textLength="40" x="721" y="327.3613">House</text><line style="stroke:#000000;stroke-width:1.0;stroke-dasharray:2.0,2.0;" x1="118" x2="778" y1="349.3281" y2="349.3281"/><text fill="#000000" font-family="sans-serif" font-size="11" font-weight="bold" lengthAdjust="spacing" textLength="67" x="123" y="359.2861">[type = land]</text><polygon fill="#181818" points="766,400.6641,776,404.6641,766,408.6641,770,404.6641" style="stroke:#181818;stroke-width:1.0;"/><line style="stroke:#181818;stroke-width:1.0;" x1="169" x2="772" y1="404.6641" y2="404.6641"/><text fill="#000000" font-family="sans-serif" font-size="13" lengthAdjust="spacing" textLength="128" x="176" y="385.3857">Address(district,state,</text><text fill="#000000" font-family="sans-serif" font-size="13" lengthAdjust="spacing" textLength="115" x="176" y="399.9092">city,street,zip-code)</text><rect fill="#E3E3E3" height="29.6406" rx="2.5" ry="2.5" style="stroke:#181818;stroke-width:0.5;" width="66" x="778" y="372.0234"/><text fill="#000000" font-family="sans-serif" font-size="14" lengthAdjust="spacing" textLength="52" x="785" y="391.6973">Address</text><polygon fill="#181818" points="842,429.1875,852,433.1875,842,437.1875,846,433.1875" style="stroke:#181818;stroke-width:1.0;"/><line style="stroke:#181818;stroke-width:1.0;" x1="169" x2="848" y1="433.1875" y2="433.1875"/><text fill="#000000" font-family="sans-serif" font-size="13" lengthAdjust="spacing" textLength="145" x="176" y="428.4326">Photograph(photographs)</text><rect fill="#E3E3E3" height="29.6406" rx="2.5" ry="2.5" style="stroke:#181818;stroke-width:0.5;" width="88" x="854" y="412.6641"/><text fill="#000000" font-family="sans-serif" font-size="14" lengthAdjust="spacing" textLength="74" x="861" y="432.3379">Photograph</text><polygon fill="#181818" points="11,476.8281,1,480.8281,11,484.8281,7,480.8281" style="stroke:#181818;stroke-width:1.0;"/><line style="stroke:#181818;stroke-width:1.0;stroke-dasharray:2.0,2.0;" x1="5" x2="158" y1="480.8281" y2="480.8281"/><text fill="#000000" font-family="sans-serif" font-size="13" lengthAdjust="spacing" textLength="140" x="17" y="476.0732">show operation success</text><!--SRC=[jLFBJiCm4BpxAonEQPN-G0L8890uSAXKZhrixMrYrR4jUqCfNy-c9SP12ZToydWVCplhfADn0I9qilFEgpRw3YN57aNAaG3g20rkwMnHHbG4hh5bGcf1-vDnZJo0JIW4NvDH9e0ZURFUH1ymqlb6Gf8Z469rdu5SouEnTeJLGe0Yymw4F_bDz7sOf8bSNhHwEmTSBhbXUL650Yo4aCK7bYJnjRoJCEZkqD4aeMHvEg6rFEY5OGILwxj7rD7xBjN36QYzWfrZk878JZLRjX7JOj8QsQsHlFKzM_TlnFKU4WwpSSou5lQ6O6_nrH-eJhrx_WW-zH4NSmf6JgP_6PHMqyoyhp5l4it5FCcb-ZB6jK_MzLlLpitgqlWtN-ch1QUdGQU7fOjPhn-qZfZIHUFtkT8cKJIAlI9cPMtAq9b1HAJwquILydhUFBbfFVacGcYlRpF3AkGZlmqifDwkLiN_aLf_aWC0Cjx9r2lUQH9V]--></g></svg>