<?xml version="1.0" encoding="us-ascii" standalone="no"?><svg xmlns="http://www.w3.org/2000/svg" xmlns:xlink="http://www.w3.org/1999/xlink" contentStyleType="text/css" height="482px" preserveAspectRatio="none" style="width:531px;height:482px;background:#FFFFFF;" version="1.1" viewBox="0 0 531 482" width="531px" zoomAndPan="magnify"><defs/><g><rect fill="#FFFFFF" height="372.4766" style="stroke:#181818;stroke-width:1.0;" width="10" x="152" y="66.1641"/><rect fill="#FFFFFF" height="210.2891" style="stroke:#181818;stroke-width:1.0;" width="10" x="466" y="228.3516"/><rect fill="none" height="349.4766" style="stroke:#000000;stroke-width:1.5;" width="458.5" x="66.5" y="81.1641"/><rect fill="none" height="275.9063" style="stroke:#000000;stroke-width:1.5;" width="438.5" x="76.5" y="147.7344"/><line style="stroke:#181818;stroke-width:0.5;stroke-dasharray:5.0,5.0;" x1="156.5" x2="156.5" y1="35.6406" y2="447.6406"/><line style="stroke:#181818;stroke-width:0.5;stroke-dasharray:5.0,5.0;" x1="471" x2="471" y1="129.2109" y2="447.6406"/><rect fill="#E3E3E3" height="29.6406" rx="2.5" ry="2.5" style="stroke:#181818;stroke-width:0.5;" width="141" x="86.5" y="5"/><text fill="#000000" font-family="sans-serif" font-size="14" lengthAdjust="spacing" textLength="127" x="93.5" y="24.6738">:SaleAnnouncement</text><rect fill="#E3E3E3" height="29.6406" rx="2.5" ry="2.5" style="stroke:#181818;stroke-width:0.5;" width="141" x="86.5" y="446.6406"/><text fill="#000000" font-family="sans-serif" font-size="14" lengthAdjust="spacing" textLength="127" x="93.5" y="466.3145">:SaleAnnouncement</text><rect fill="#E3E3E3" height="29.6406" rx="2.5" ry="2.5" style="stroke:#181818;stroke-width:0.5;" width="68" x="437" y="446.6406"/><text fill="#000000" font-family="sans-serif" font-size="14" lengthAdjust="spacing" textLength="54" x="444" y="466.3145">Property</text><rect fill="#FFFFFF" height="372.4766" style="stroke:#181818;stroke-width:1.0;" width="10" x="152" y="66.1641"/><rect fill="#FFFFFF" height="210.2891" style="stroke:#181818;stroke-width:1.0;" width="10" x="466" y="228.3516"/><polygon fill="#181818" points="140,62.1641,150,66.1641,140,70.1641,144,66.1641" style="stroke:#181818;stroke-width:1.0;"/><line style="stroke:#181818;stroke-width:1.0;" x1="0" x2="146" y1="66.1641" y2="66.1641"/><text fill="#000000" font-family="sans-serif" font-size="13" lengthAdjust="spacing" textLength="133" x="7" y="61.4092">fillSaleAnnouncement()</text><path d="M66.5,81.1641 L252.5,81.1641 L252.5,87.6875 L242.5,97.6875 L66.5,97.6875 L66.5,81.1641 " fill="#EEEEEE" style="stroke:#000000;stroke-width:1.5;"/><rect fill="none" height="349.4766" style="stroke:#000000;stroke-width:1.5;" width="458.5" x="66.5" y="81.1641"/><text fill="#000000" font-family="sans-serif" font-size="13" font-weight="bold" lengthAdjust="spacing" textLength="141" x="81.5" y="93.9326">fillSaleAnnouncement</text><polygon fill="#181818" points="425,128.7344,435,132.7344,425,136.7344,429,132.7344" style="stroke:#181818;stroke-width:1.0;"/><line style="stroke:#181818;stroke-width:1.0;" x1="162" x2="431" y1="132.7344" y2="132.7344"/><text fill="#000000" font-family="sans-serif" font-size="13" lengthAdjust="spacing" textLength="149" x="169" y="113.4561">Property(area, cityCenter,</text><text fill="#000000" font-family="sans-serif" font-size="13" lengthAdjust="spacing" textLength="32" x="169" y="127.9795">price)</text><rect fill="#E3E3E3" height="29.6406" rx="2.5" ry="2.5" style="stroke:#181818;stroke-width:0.5;" width="68" x="437" y="100.0938"/><text fill="#000000" font-family="sans-serif" font-size="14" lengthAdjust="spacing" textLength="54" x="444" y="119.7676">Property</text><path d="M76.5,147.7344 L137.5,147.7344 L137.5,154.2578 L127.5,164.2578 L76.5,164.2578 L76.5,147.7344 " fill="#EEEEEE" style="stroke:#000000;stroke-width:1.5;"/><rect fill="none" height="275.9063" style="stroke:#000000;stroke-width:1.5;" width="438.5" x="76.5" y="147.7344"/><text fill="#000000" font-family="sans-serif" font-size="13" font-weight="bold" lengthAdjust="spacing" textLength="16" x="91.5" y="160.5029">alt</text><text fill="#000000" font-family="sans-serif" font-size="11" font-weight="bold" lengthAdjust="spacing" textLength="101" x="152.5" y="159.6924">[type = apartment]</text><polygon fill="#181818" points="454,224.3516,464,228.3516,454,232.3516,458,228.3516" style="stroke:#181818;stroke-width:1.0;"/><line style="stroke:#181818;stroke-width:1.0;" x1="162" x2="460" y1="228.3516" y2="228.3516"/><text fill="#000000" font-family="sans-serif" font-size="13" lengthAdjust="spacing" textLength="141" x="169" y="180.0264">fillProperty(district,state,</text><text fill="#000000" font-family="sans-serif" font-size="13" lengthAdjust="spacing" textLength="194" x="169" y="194.5498">city,street,zip-code,propertyType,</text><text fill="#000000" font-family="sans-serif" font-size="13" lengthAdjust="spacing" textLength="280" x="169" y="209.0732">transactionType, numBedrooms,numBathrooms,</text><text fill="#000000" font-family="sans-serif" font-size="13" lengthAdjust="spacing" textLength="230" x="169" y="223.5967">numParkingSpaces,owner,photographs)</text><line style="stroke:#000000;stroke-width:1.0;stroke-dasharray:2.0,2.0;" x1="76.5" x2="515" y1="237.3516" y2="237.3516"/><text fill="#000000" font-family="sans-serif" font-size="11" font-weight="bold" lengthAdjust="spacing" textLength="79" x="81.5" y="247.3096">[type = house]</text><polygon fill="#181818" points="454,339.7813,464,343.7813,454,347.7813,458,343.7813" style="stroke:#181818;stroke-width:1.0;"/><line style="stroke:#181818;stroke-width:1.0;" x1="162" x2="460" y1="343.7813" y2="343.7813"/><text fill="#000000" font-family="sans-serif" font-size="13" lengthAdjust="spacing" textLength="141" x="169" y="266.4092">fillProperty(district,state,</text><text fill="#000000" font-family="sans-serif" font-size="13" lengthAdjust="spacing" textLength="194" x="169" y="280.9326">city,street,zip-code,propertyType,</text><text fill="#000000" font-family="sans-serif" font-size="13" lengthAdjust="spacing" textLength="280" x="169" y="295.4561">transactionType, numBedrooms,numBathrooms,</text><text fill="#000000" font-family="sans-serif" font-size="13" lengthAdjust="spacing" textLength="182" x="169" y="309.9795">numParkingSpaces, basement,</text><text fill="#000000" font-family="sans-serif" font-size="13" lengthAdjust="spacing" textLength="171" x="169" y="324.5029">inhabitableLoft, sunExposure,</text><text fill="#000000" font-family="sans-serif" font-size="13" lengthAdjust="spacing" textLength="113" x="169" y="339.0264">owner,photographs)</text><line style="stroke:#000000;stroke-width:1.0;stroke-dasharray:2.0,2.0;" x1="76.5" x2="515" y1="352.7813" y2="352.7813"/><text fill="#000000" font-family="sans-serif" font-size="11" font-weight="bold" lengthAdjust="spacing" textLength="67" x="81.5" y="362.7393">[type = land]</text><polygon fill="#181818" points="454,411.6406,464,415.6406,454,419.6406,458,415.6406" style="stroke:#181818;stroke-width:1.0;"/><line style="stroke:#181818;stroke-width:1.0;" x1="162" x2="460" y1="415.6406" y2="415.6406"/><text fill="#000000" font-family="sans-serif" font-size="13" lengthAdjust="spacing" textLength="141" x="169" y="381.8389">fillProperty(district,state,</text><text fill="#000000" font-family="sans-serif" font-size="13" lengthAdjust="spacing" textLength="194" x="169" y="396.3623">city,street,zip-code,propertyType,</text><text fill="#000000" font-family="sans-serif" font-size="13" lengthAdjust="spacing" textLength="209" x="169" y="410.8857">transactionType,owner,photographs)</text><!--SRC=[rLF1JiCm3BttAonE0sK_C0aaGDmuJ1h7NRpKQwEbTfIumFXwd0ucG4YJTa7qajf-Uiz-JiekSCAC0mp2ulii0u7caPfoh2JqE-nefVj8aCahSXU_0agFhRm4xc2BiL3JD9RNu4D2LhXOh33IBRECx6aWrWl00ZNv7RVCaYZhVYhNm8ZcDnDm0TiGuq-UsMNJeDVmZ4e7lYxBc7x5DZLXR9NtwWeMyAasmqpem0VTtnkEieCrfnmyLVQeeFj4S0rOUvsOuCHNbU132WwT7yNQKDIurHMrfjsQgwu5cKZTMqXpBosvz05_Ccd3Q4OkTL3XAGCy3dVKPf6XkFgFsX-2DLkun6ohwLQsDofENjXcIhseT1bJNovF3d3qT5h2AJJPoZzDwcMq_VylWs23PReYLWpSuoOeRY8zobOTb94VNfEKCLUTCxpywav4Rl_Ud7E6u1RiAJHslWC0]--></g></svg>