<?xml version="1.0" encoding="us-ascii" standalone="no"?><svg xmlns="http://www.w3.org/2000/svg" xmlns:xlink="http://www.w3.org/1999/xlink" contentStyleType="text/css" height="379px" preserveAspectRatio="none" style="width:1653px;height:379px;background:#FFFFFF;" version="1.1" viewBox="0 0 1653 379" width="1653px" zoomAndPan="magnify"><defs/><g><!--class Person--><g id="elem_Person"><rect codeLine="11" fill="#F1F1F1" height="143.3396" id="Person" rx="2.5" ry="2.5" style="stroke:#181818;stroke-width:0.5;" width="186" x="663" y="7"/><ellipse cx="728.75" cy="23" fill="#ADD1B2" rx="11" ry="11" style="stroke:#181818;stroke-width:1.0;"/><path d="M728.2188,29.6719 Q726.4688,29.6719 725.3281,28.9375 Q724.2031,28.1875 723.6406,26.8438 Q723.0938,25.4844 723.0938,23.6875 Q723.0938,21.6563 723.75,20.2031 Q724.4063,18.75 725.6875,17.9688 Q726.9688,17.1875 728.8438,17.1875 Q729.7344,17.1875 730.4063,17.375 Q731.0781,17.5469 731.7656,17.8906 L730.9531,19.9063 Q730.3281,19.5938 729.7813,19.4688 Q729.25,19.3438 728.7656,19.3438 Q727.5938,19.3438 726.8906,19.875 Q726.1875,20.4063 725.8906,21.3594 Q725.5938,22.3125 725.5938,23.5781 Q725.5938,25.5938 726.3125,26.5625 Q727.0313,27.5156 728.625,27.5156 Q729.2188,27.5156 729.8438,27.3594 Q730.4688,27.2031 731.2969,26.8281 L731.2969,29.0469 Q730.5625,29.3594 729.7656,29.5156 Q728.9844,29.6719 728.2188,29.6719 Z " fill="#000000"/><text fill="#000000" font-family="sans-serif" font-size="14" lengthAdjust="spacing" textLength="46" x="749.25" y="28.432">Person</text><line style="stroke:#181818;stroke-width:0.5;" x1="664" x2="848" y1="39" y2="39"/><text fill="#000000" font-family="sans-serif" font-size="14" lengthAdjust="spacing" textLength="88" x="669" y="57.9659">-String name</text><text fill="#000000" font-family="sans-serif" font-size="14" lengthAdjust="spacing" textLength="174" x="669" y="77.0339">-String passportCardNum</text><text fill="#000000" font-family="sans-serif" font-size="14" lengthAdjust="spacing" textLength="126" x="669" y="96.1018">-String taxNumber</text><text fill="#000000" font-family="sans-serif" font-size="14" lengthAdjust="spacing" textLength="142" x="669" y="115.1697">-String emailAddress</text><text fill="#000000" font-family="sans-serif" font-size="14" lengthAdjust="spacing" textLength="149" x="669" y="134.2376">-String phoneNumber</text><line style="stroke:#181818;stroke-width:0.5;" x1="664" x2="848" y1="142.3396" y2="142.3396"/></g><!--class Client--><g id="elem_Client"><rect codeLine="20" fill="#F1F1F1" height="143.3396" id="Client" rx="2.5" ry="2.5" style="stroke:#181818;stroke-width:0.5;" width="321" x="595.5" y="229"/><ellipse cx="732.25" cy="245" fill="#ADD1B2" rx="11" ry="11" style="stroke:#181818;stroke-width:1.0;"/><path d="M731.7188,251.6719 Q729.9688,251.6719 728.8281,250.9375 Q727.7031,250.1875 727.1406,248.8438 Q726.5938,247.4844 726.5938,245.6875 Q726.5938,243.6563 727.25,242.2031 Q727.9063,240.75 729.1875,239.9688 Q730.4688,239.1875 732.3438,239.1875 Q733.2344,239.1875 733.9063,239.375 Q734.5781,239.5469 735.2656,239.8906 L734.4531,241.9063 Q733.8281,241.5938 733.2813,241.4688 Q732.75,241.3438 732.2656,241.3438 Q731.0938,241.3438 730.3906,241.875 Q729.6875,242.4063 729.3906,243.3594 Q729.0938,244.3125 729.0938,245.5781 Q729.0938,247.5938 729.8125,248.5625 Q730.5313,249.5156 732.125,249.5156 Q732.7188,249.5156 733.3438,249.3594 Q733.9688,249.2031 734.7969,248.8281 L734.7969,251.0469 Q734.0625,251.3594 733.2656,251.5156 Q732.4844,251.6719 731.7188,251.6719 Z " fill="#000000"/><text fill="#000000" font-family="sans-serif" font-size="14" lengthAdjust="spacing" textLength="39" x="752.75" y="250.432">Client</text><line style="stroke:#181818;stroke-width:0.5;" x1="596.5" x2="915.5" y1="261" y2="261"/><text fill="#000000" font-family="sans-serif" font-size="14" lengthAdjust="spacing" textLength="115" x="601.5" y="279.9659">-String password</text><line style="stroke:#181818;stroke-width:0.5;" x1="596.5" x2="915.5" y1="288.0679" y2="288.0679"/><text fill="#000000" font-family="sans-serif" font-size="14" lengthAdjust="spacing" textLength="309" x="601.5" y="307.0339">+Client(name, passportCardNum, taxNumber,</text><text fill="#000000" font-family="sans-serif" font-size="14" lengthAdjust="spacing" textLength="276" x="605.5" y="326.1018">emailAddress, phoneNumber, password)</text><text fill="#000000" font-family="sans-serif" font-size="14" lengthAdjust="spacing" textLength="102" x="601.5" y="345.1697">+getPassword()</text><text fill="#000000" font-family="sans-serif" font-size="14" lengthAdjust="spacing" textLength="86" x="601.5" y="364.2376">+sendEmail()</text></g><!--class ClientRepository--><g id="elem_ClientRepository"><rect codeLine="28" fill="#F1F1F1" height="105.2038" id="ClientRepository" rx="2.5" ry="2.5" style="stroke:#181818;stroke-width:0.5;" width="376" x="1270" y="248"/><ellipse cx="1398.75" cy="264" fill="#ADD1B2" rx="11" ry="11" style="stroke:#181818;stroke-width:1.0;"/><path d="M1398.2188,270.6719 Q1396.4688,270.6719 1395.3281,269.9375 Q1394.2031,269.1875 1393.6406,267.8438 Q1393.0938,266.4844 1393.0938,264.6875 Q1393.0938,262.6563 1393.75,261.2031 Q1394.4063,259.75 1395.6875,258.9688 Q1396.9688,258.1875 1398.8438,258.1875 Q1399.7344,258.1875 1400.4063,258.375 Q1401.0781,258.5469 1401.7656,258.8906 L1400.9531,260.9063 Q1400.3281,260.5938 1399.7813,260.4688 Q1399.25,260.3438 1398.7656,260.3438 Q1397.5938,260.3438 1396.8906,260.875 Q1396.1875,261.4063 1395.8906,262.3594 Q1395.5938,263.3125 1395.5938,264.5781 Q1395.5938,266.5938 1396.3125,267.5625 Q1397.0313,268.5156 1398.625,268.5156 Q1399.2188,268.5156 1399.8438,268.3594 Q1400.4688,268.2031 1401.2969,267.8281 L1401.2969,270.0469 Q1400.5625,270.3594 1399.7656,270.5156 Q1398.9844,270.6719 1398.2188,270.6719 Z " fill="#000000"/><text fill="#000000" font-family="sans-serif" font-size="14" lengthAdjust="spacing" textLength="110" x="1419.25" y="269.432">ClientRepository</text><line style="stroke:#181818;stroke-width:0.5;" x1="1271" x2="1645" y1="280" y2="280"/><line style="stroke:#181818;stroke-width:0.5;" x1="1271" x2="1645" y1="288" y2="288"/><text fill="#000000" font-family="sans-serif" font-size="14" lengthAdjust="spacing" textLength="118" x="1276" y="306.9659">+addClient(client)</text><text fill="#000000" font-family="sans-serif" font-size="14" lengthAdjust="spacing" textLength="278" x="1276" y="326.0339">+registerClient(name, passportCardNum,</text><text fill="#000000" font-family="sans-serif" font-size="14" lengthAdjust="spacing" textLength="360" x="1280" y="345.1018">taxNumber, emailAddress, phoneNumber, password)</text></g><!--class Repositories--><g id="elem_Repositories"><rect codeLine="33" fill="#F1F1F1" height="105.2038" id="Repositories" rx="2.5" ry="2.5" style="stroke:#181818;stroke-width:0.5;" width="203" x="951.5" y="248"/><ellipse cx="1007.25" cy="264" fill="#ADD1B2" rx="11" ry="11" style="stroke:#181818;stroke-width:1.0;"/><path d="M1006.7188,270.6719 Q1004.9688,270.6719 1003.8281,269.9375 Q1002.7031,269.1875 1002.1406,267.8438 Q1001.5938,266.4844 1001.5938,264.6875 Q1001.5938,262.6563 1002.25,261.2031 Q1002.9063,259.75 1004.1875,258.9688 Q1005.4688,258.1875 1007.3438,258.1875 Q1008.2344,258.1875 1008.9063,258.375 Q1009.5781,258.5469 1010.2656,258.8906 L1009.4531,260.9063 Q1008.8281,260.5938 1008.2813,260.4688 Q1007.75,260.3438 1007.2656,260.3438 Q1006.0938,260.3438 1005.3906,260.875 Q1004.6875,261.4063 1004.3906,262.3594 Q1004.0938,263.3125 1004.0938,264.5781 Q1004.0938,266.5938 1004.8125,267.5625 Q1005.5313,268.5156 1007.125,268.5156 Q1007.7188,268.5156 1008.3438,268.3594 Q1008.9688,268.2031 1009.7969,267.8281 L1009.7969,270.0469 Q1009.0625,270.3594 1008.2656,270.5156 Q1007.4844,270.6719 1006.7188,270.6719 Z " fill="#000000"/><text fill="#000000" font-family="sans-serif" font-size="14" lengthAdjust="spacing" textLength="83" x="1027.75" y="269.432">Repositories</text><line style="stroke:#181818;stroke-width:0.5;" x1="952.5" x2="1153.5" y1="280" y2="280"/><line style="stroke:#181818;stroke-width:0.5;" x1="952.5" x2="1153.5" y1="288" y2="288"/><text fill="#000000" font-family="sans-serif" font-size="14" lengthAdjust="spacing" textLength="96" x="957.5" y="306.9659">-Repositories()</text><text fill="#000000" font-family="sans-serif" font-size="14" lengthAdjust="spacing" textLength="191" x="957.5" y="326.0339">+getInstance() : Repositories</text><text fill="#000000" font-family="sans-serif" font-size="14" lengthAdjust="spacing" textLength="140" x="957.5" y="345.1018">+getUserRepository()</text></g><!--class RegisterClientController--><g id="elem_RegisterClientController"><rect codeLine="39" fill="#F1F1F1" height="105.2038" id="RegisterClientController" rx="2.5" ry="2.5" style="stroke:#181818;stroke-width:0.5;" width="376" x="184" y="248"/><ellipse cx="286.75" cy="264" fill="#ADD1B2" rx="11" ry="11" style="stroke:#181818;stroke-width:1.0;"/><path d="M286.2188,270.6719 Q284.4688,270.6719 283.3281,269.9375 Q282.2031,269.1875 281.6406,267.8438 Q281.0938,266.4844 281.0938,264.6875 Q281.0938,262.6563 281.75,261.2031 Q282.4063,259.75 283.6875,258.9688 Q284.9688,258.1875 286.8438,258.1875 Q287.7344,258.1875 288.4063,258.375 Q289.0781,258.5469 289.7656,258.8906 L288.9531,260.9063 Q288.3281,260.5938 287.7813,260.4688 Q287.25,260.3438 286.7656,260.3438 Q285.5938,260.3438 284.8906,260.875 Q284.1875,261.4063 283.8906,262.3594 Q283.5938,263.3125 283.5938,264.5781 Q283.5938,266.5938 284.3125,267.5625 Q285.0313,268.5156 286.625,268.5156 Q287.2188,268.5156 287.8438,268.3594 Q288.4688,268.2031 289.2969,267.8281 L289.2969,270.0469 Q288.5625,270.3594 287.7656,270.5156 Q286.9844,270.6719 286.2188,270.6719 Z " fill="#000000"/><text fill="#000000" font-family="sans-serif" font-size="14" lengthAdjust="spacing" textLength="162" x="307.25" y="269.432">RegisterClientController</text><line style="stroke:#181818;stroke-width:0.5;" x1="185" x2="559" y1="280" y2="280"/><line style="stroke:#181818;stroke-width:0.5;" x1="185" x2="559" y1="288" y2="288"/><text fill="#000000" font-family="sans-serif" font-size="14" lengthAdjust="spacing" textLength="196" x="190" y="306.9659">+UserRegistrationController()</text><text fill="#000000" font-family="sans-serif" font-size="14" lengthAdjust="spacing" textLength="278" x="190" y="326.0339">+registerClient(name, passportCardNum,</text><text fill="#000000" font-family="sans-serif" font-size="14" lengthAdjust="spacing" textLength="360" x="194" y="345.1018">taxNumber, emailAddress, phoneNumber, password)</text></g><!--class RegisterClientUI--><g id="elem_RegisterClientUI"><rect codeLine="44" fill="#F1F1F1" height="48" id="RegisterClientUI" rx="2.5" ry="2.5" style="stroke:#181818;stroke-width:0.5;" width="142" x="7" y="276.5"/><ellipse cx="22" cy="292.5" fill="#ADD1B2" rx="11" ry="11" style="stroke:#181818;stroke-width:1.0;"/><path d="M21.4688,299.1719 Q19.7188,299.1719 18.5781,298.4375 Q17.4531,297.6875 16.8906,296.3438 Q16.3438,294.9844 16.3438,293.1875 Q16.3438,291.1563 17,289.7031 Q17.6563,288.25 18.9375,287.4688 Q20.2188,286.6875 22.0938,286.6875 Q22.9844,286.6875 23.6563,286.875 Q24.3281,287.0469 25.0156,287.3906 L24.2031,289.4063 Q23.5781,289.0938 23.0313,288.9688 Q22.5,288.8438 22.0156,288.8438 Q20.8438,288.8438 20.1406,289.375 Q19.4375,289.9063 19.1406,290.8594 Q18.8438,291.8125 18.8438,293.0781 Q18.8438,295.0938 19.5625,296.0625 Q20.2813,297.0156 21.875,297.0156 Q22.4688,297.0156 23.0938,296.8594 Q23.7188,296.7031 24.5469,296.3281 L24.5469,298.5469 Q23.8125,298.8594 23.0156,299.0156 Q22.2344,299.1719 21.4688,299.1719 Z " fill="#000000"/><text fill="#000000" font-family="sans-serif" font-size="14" lengthAdjust="spacing" textLength="110" x="36" y="297.932">RegisterClientUI</text><line style="stroke:#181818;stroke-width:0.5;" x1="8" x2="148" y1="308.5" y2="308.5"/><line style="stroke:#181818;stroke-width:0.5;" x1="8" x2="148" y1="316.5" y2="316.5"/></g><!--link RegisterClientUI to RegisterClientController--><g id="link_RegisterClientUI_RegisterClientController"><path codeLine="46" d="M149.48,300.5 C164.55,300.5 176,300.5 176,300.5 C176,300.5 176.55,300.5 177.58,300.5 " fill="none" id="RegisterClientUI-to-RegisterClientController" style="stroke:#181818;stroke-width:1.0;stroke-dasharray:7.0,7.0;"/><polygon fill="#181818" points="182.18,300.5,173.18,296.5,177.18,300.5,173.18,304.5,182.18,300.5" style="stroke:#181818;stroke-width:1.0;"/></g><!--link RegisterClientController to Repositories--><g id="link_RegisterClientController_Repositories"><path codeLine="48" d="M469.32,247.56 C514.98,222.72 559.5,198.5 559.5,198.5 C559.5,198.5 632.5,198.5 632.5,198.5 C632.5,198.5 934,229 934,229 C934,229 944.71,235.44 959.71,244.45 " fill="none" id="RegisterClientController-to-Repositories" style="stroke:#181818;stroke-width:1.0;stroke-dasharray:7.0,7.0;"/><polygon fill="#181818" points="963.66,246.82,958.0005,238.7596,959.3725,244.2475,953.8846,245.6195,963.66,246.82" style="stroke:#181818;stroke-width:1.0;"/><text fill="#000000" font-family="sans-serif" font-size="13" lengthAdjust="spacing" textLength="71" x="560.5" y="194.897">repositories</text></g><!--link Repositories to Repositories--><g id="link_Repositories_Repositories"><path codeLine="49" d="M1154.79,280.55 C1175.05,282.79 1189.5,289.44 1189.5,300.5 C1189.5,310.35 1178.04,316.7 1161.22,319.56 " fill="none" id="Repositories-to-Repositories" style="stroke:#181818;stroke-width:1.0;"/><polygon fill="#181818" points="1156.29,320.25,1165.7609,322.9523,1161.2409,319.5509,1164.6423,315.0309,1156.29,320.25" style="stroke:#181818;stroke-width:1.0;"/><text fill="#000000" font-family="sans-serif" font-size="13" lengthAdjust="spacing" textLength="50" x="1195.5" y="305.897">instance</text></g><!--link RegisterClientController to Client--><g id="link_RegisterClientController_Client"><path codeLine="50" d="M560.25,300.5 C569.96,300.5 579.78,300.5 588.82,300.5 " fill="none" id="RegisterClientController-to-Client" style="stroke:#181818;stroke-width:1.0;stroke-dasharray:7.0,7.0;"/><polygon fill="#181818" points="593.73,300.5,584.73,296.5,588.73,300.5,584.73,304.5,593.73,300.5" style="stroke:#181818;stroke-width:1.0;"/></g><!--link Repositories to ClientRepository--><g id="link_Repositories_ClientRepository"><path codeLine="51" d="M1154.98,300.5 C1173.98,300.5 1188,300.5 1188,300.5 C1188,300.5 1227.24,300.5 1263.41,300.5 " fill="none" id="Repositories-to-ClientRepository" style="stroke:#181818;stroke-width:1.0;"/><polygon fill="#181818" points="1268.13,300.5,1259.13,296.5,1263.13,300.5,1259.13,304.5,1268.13,300.5" style="stroke:#181818;stroke-width:1.0;"/></g><!--reverse link ClientRepository to RegisterClientController--><g id="link_ClientRepository_RegisterClientController"><path codeLine="53" d="M1299.35,245.44 C1271.91,235.91 1252,229 1252,229 C1252,229 731.5,198.5 731.5,198.5 C731.5,198.5 638.5,198.5 638.5,198.5 C638.5,198.5 575.22,222.72 510.32,247.56 " fill="none" id="ClientRepository-backto-RegisterClientController" style="stroke:#181818;stroke-width:1.0;stroke-dasharray:7.0,7.0;"/><polygon fill="#181818" points="1303.89,247.01,1296.7076,240.2711,1299.1685,245.3646,1294.075,247.8255,1303.89,247.01" style="stroke:#181818;stroke-width:1.0;"/><text fill="#000000" font-family="sans-serif" font-size="13" lengthAdjust="spacing" textLength="91" x="639.5" y="194.897">userRepository</text></g><!--reverse link Person to Client--><g id="link_Person_Client"><path codeLine="54" d="M756,171.81 C756,190.88 756,210.67 756,228.81 " fill="none" id="Person-backto-Client" style="stroke:#181818;stroke-width:1.0;"/><polygon fill="none" points="749,171.83,756,151.83,763,171.83,749,171.83" style="stroke:#181818;stroke-width:1.0;"/></g><!--SRC=[lPDDJyCm38Rl-HM-hOWESPuG4feux88G4pSkeJ5TH1fNZYSO7_-TT6Hhsi74YLwglhPVFtRIINYsljMi6sZ8KxLYQX24rwZwIAkhPrtZKZOEWR4IxMkN9uILDlHYVGrFseKyugn7sRG8BRbDzw4cFmI9XLHMLJaTmfK8syUruA8YlxHl2ETAJHm-2GW1stebO6o7OyahjQs1M-H07juLn6SAosWHgRnkSAYqCRcDRUUQpSsw6GP5lqRj4NaeOwEjkpA6COIHsueyff9FjMEPEujUnYnTvnTYirLFKrBH4PPZgh8dAH_ye7-PzoptfYV9jKQvJLAnqm9wSzrPH6KCUOSj1Il4cuHx2jgOn5PjNpiRnje6GJuA7cbxzB-1V-w8zYmMmtvvkLXaKovyYBUnmk84PeEaFkK-8FVp5ODE-IXpyiBa7F9-1z-bNHBhxfRrASK_hYDlSBzGQgp0sUMleuopio6tLTcgPt6MR7-3sFGWrwR57_N_rWwindTEgODRU77s- -dCO3quKfL- -ekFwJHvVm40]--></g></svg>