<?xml version="1.0" encoding="us-ascii" standalone="no"?><svg xmlns="http://www.w3.org/2000/svg" xmlns:xlink="http://www.w3.org/1999/xlink" contentStyleType="text/css" height="650px" preserveAspectRatio="none" style="width:1379px;height:650px;background:#FFFFFF;" version="1.1" viewBox="0 0 1379 650" width="1379px" zoomAndPan="magnify"><defs/><g><rect fill="#FFFFFF" height="455.2963" style="stroke:#181818;stroke-width:1.0;" width="10" x="65" y="94.0679"/><rect fill="#FFFFFF" height="75.7739" style="stroke:#181818;stroke-width:1.0;" width="10" x="480" y="117.7739"/><rect fill="#FFFFFF" height="31.706" style="stroke:#181818;stroke-width:1.0;" width="10" x="480" y="242.9599"/><rect fill="#FFFFFF" height="242.9922" style="stroke:#181818;stroke-width:1.0;" width="10" x="480" y="306.3719"/><rect fill="#FFFFFF" height="161.8742" style="stroke:#181818;stroke-width:1.0;" width="10" x="895" y="355.784"/><rect fill="#FFFFFF" height="80.7561" style="stroke:#181818;stroke-width:1.0;" width="10" x="1310" y="405.196"/><line style="stroke:#181818;stroke-width:0.5;stroke-dasharray:5.0,5.0;" x1="70" x2="70" y1="84.0679" y2="567.3642"/><line style="stroke:#181818;stroke-width:0.5;stroke-dasharray:5.0,5.0;" x1="485" x2="485" y1="84.0679" y2="567.3642"/><line style="stroke:#181818;stroke-width:0.5;stroke-dasharray:5.0,5.0;" x1="900" x2="900" y1="157.8079" y2="567.3642"/><line style="stroke:#181818;stroke-width:0.5;stroke-dasharray:5.0,5.0;" x1="1314.5" x2="1314.5" y1="84.0679" y2="567.3642"/><text fill="#000000" font-family="sans-serif" font-size="14" lengthAdjust="spacing" textLength="124" x="5" y="79.9659">Unregistered User</text><ellipse cx="70" cy="13.5" fill="#E3E3E3" rx="8" ry="8" style="stroke:#181818;stroke-width:0.5;"/><path d="M70,21.5 L70,48.5 M57,29.5 L83,29.5 M70,48.5 L57,63.5 M70,48.5 L83,63.5 " fill="none" style="stroke:#181818;stroke-width:0.5;"/><text fill="#000000" font-family="sans-serif" font-size="14" lengthAdjust="spacing" textLength="124" x="5" y="581.3301">Unregistered User</text><ellipse cx="70" cy="593.9321" fill="#E3E3E3" rx="8" ry="8" style="stroke:#181818;stroke-width:0.5;"/><path d="M70,601.9321 L70,628.9321 M57,609.9321 L83,609.9321 M70,628.9321 L57,643.9321 M70,628.9321 L83,643.9321 " fill="none" style="stroke:#181818;stroke-width:0.5;"/><rect fill="#E3E3E3" height="33.0679" rx="2.5" ry="2.5" style="stroke:#181818;stroke-width:0.5;" width="128" x="421" y="50"/><text fill="#000000" font-family="sans-serif" font-size="14" lengthAdjust="spacing" textLength="114" x="428" y="71.9659">:RegisterClientUI</text><rect fill="#E3E3E3" height="33.0679" rx="2.5" ry="2.5" style="stroke:#181818;stroke-width:0.5;" width="128" x="421" y="566.3642"/><text fill="#000000" font-family="sans-serif" font-size="14" lengthAdjust="spacing" textLength="114" x="428" y="588.3301">:RegisterClientUI</text><rect fill="#E3E3E3" height="33.0679" rx="2.5" ry="2.5" style="stroke:#181818;stroke-width:0.5;" width="180" x="810" y="566.3642"/><text fill="#000000" font-family="sans-serif" font-size="14" lengthAdjust="spacing" textLength="166" x="817" y="588.3301">:RegisterClientController</text><rect fill="#E3E3E3" height="33.0679" rx="2.5" ry="2.5" style="stroke:#181818;stroke-width:0.5;" width="111" x="1259.5" y="50"/><text fill="#000000" font-family="sans-serif" font-size="14" lengthAdjust="spacing" textLength="97" x="1266.5" y="71.9659">:Administrator</text><rect fill="#E3E3E3" height="33.0679" rx="2.5" ry="2.5" style="stroke:#181818;stroke-width:0.5;" width="111" x="1259.5" y="566.3642"/><text fill="#000000" font-family="sans-serif" font-size="14" lengthAdjust="spacing" textLength="97" x="1266.5" y="588.3301">:Administrator</text><rect fill="#FFFFFF" height="455.2963" style="stroke:#181818;stroke-width:1.0;" width="10" x="65" y="94.0679"/><rect fill="#FFFFFF" height="75.7739" style="stroke:#181818;stroke-width:1.0;" width="10" x="480" y="117.7739"/><rect fill="#FFFFFF" height="31.706" style="stroke:#181818;stroke-width:1.0;" width="10" x="480" y="242.9599"/><rect fill="#FFFFFF" height="242.9922" style="stroke:#181818;stroke-width:1.0;" width="10" x="480" y="306.3719"/><rect fill="#FFFFFF" height="161.8742" style="stroke:#181818;stroke-width:1.0;" width="10" x="895" y="355.784"/><rect fill="#FFFFFF" height="80.7561" style="stroke:#181818;stroke-width:1.0;" width="10" x="1310" y="405.196"/><polygon fill="#181818" points="468,113.7739,478,117.7739,468,121.7739,472,117.7739" style="stroke:#181818;stroke-width:1.0;"/><line style="stroke:#181818;stroke-width:1.0;" x1="75" x2="474" y1="117.7739" y2="117.7739"/><text fill="#000000" font-family="sans-serif" font-size="13" font-weight="bold" lengthAdjust="spacing" textLength="7" x="82" y="111.9649">1</text><text fill="#000000" font-family="sans-serif" font-size="13" lengthAdjust="spacing" textLength="207" x="93" y="111.9649">asks to be registered in the system</text><polygon fill="#181818" points="798,145.4799,808,149.4799,798,153.4799,802,149.4799" style="stroke:#181818;stroke-width:1.0;"/><line style="stroke:#181818;stroke-width:1.0;" x1="490" x2="804" y1="149.4799" y2="149.4799"/><text fill="#000000" font-family="sans-serif" font-size="13" font-weight="bold" lengthAdjust="spacing" textLength="7" x="497" y="143.6709">2</text><text fill="#000000" font-family="sans-serif" font-size="13" lengthAdjust="spacing" textLength="37" x="508" y="143.6709">create</text><rect fill="#E3E3E3" height="33.0679" rx="2.5" ry="2.5" style="stroke:#181818;stroke-width:0.5;" width="180" x="810" y="125.7739"/><text fill="#000000" font-family="sans-serif" font-size="14" lengthAdjust="spacing" textLength="166" x="817" y="147.7399">:RegisterClientController</text><polygon fill="#181818" points="86,189.5479,76,193.5479,86,197.5479,82,193.5479" style="stroke:#181818;stroke-width:1.0;"/><line style="stroke:#181818;stroke-width:1.0;stroke-dasharray:2.0,2.0;" x1="80" x2="484" y1="193.5479" y2="193.5479"/><text fill="#000000" font-family="sans-serif" font-size="13" font-weight="bold" lengthAdjust="spacing" textLength="7" x="92" y="187.7389">3</text><text fill="#000000" font-family="sans-serif" font-size="13" lengthAdjust="spacing" textLength="224" x="103" y="187.7389">requests the required data to register</text><polygon fill="#181818" points="468,238.9599,478,242.9599,468,246.9599,472,242.9599" style="stroke:#181818;stroke-width:1.0;"/><line style="stroke:#181818;stroke-width:1.0;" x1="75" x2="474" y1="242.9599" y2="242.9599"/><text fill="#000000" font-family="sans-serif" font-size="13" font-weight="bold" lengthAdjust="spacing" textLength="7" x="82" y="228.2979">4</text><text fill="#000000" font-family="sans-serif" font-size="13" lengthAdjust="spacing" textLength="310" x="93" y="219.4449">types requested data (name, passport card number,</text><text fill="#000000" font-family="sans-serif" font-size="13" lengthAdjust="spacing" textLength="375" x="93" y="237.1509">tax number, email address, phone number, address, password)</text><polygon fill="#181818" points="86,270.6659,76,274.6659,86,278.6659,82,274.6659" style="stroke:#181818;stroke-width:1.0;"/><line style="stroke:#181818;stroke-width:1.0;" x1="80" x2="484" y1="274.6659" y2="274.6659"/><text fill="#000000" font-family="sans-serif" font-size="13" font-weight="bold" lengthAdjust="spacing" textLength="7" x="92" y="268.8569">5</text><text fill="#000000" font-family="sans-serif" font-size="13" lengthAdjust="spacing" textLength="155" x="103" y="268.8569">shows the requested data</text><polygon fill="#181818" points="468,302.3719,478,306.3719,468,310.3719,472,306.3719" style="stroke:#181818;stroke-width:1.0;"/><line style="stroke:#181818;stroke-width:1.0;" x1="75" x2="474" y1="306.3719" y2="306.3719"/><text fill="#000000" font-family="sans-serif" font-size="13" font-weight="bold" lengthAdjust="spacing" textLength="7" x="82" y="300.5629">6</text><text fill="#000000" font-family="sans-serif" font-size="13" lengthAdjust="spacing" textLength="78" x="93" y="300.5629">submits data</text><polygon fill="#181818" points="883,351.784,893,355.784,883,359.784,887,355.784" style="stroke:#181818;stroke-width:1.0;"/><line style="stroke:#181818;stroke-width:1.0;" x1="490" x2="889" y1="355.784" y2="355.784"/><text fill="#000000" font-family="sans-serif" font-size="13" font-weight="bold" lengthAdjust="spacing" textLength="7" x="497" y="341.122">7</text><text fill="#000000" font-family="sans-serif" font-size="13" lengthAdjust="spacing" textLength="260" x="508" y="332.2689">registerClient(name, passport card number,</text><text fill="#000000" font-family="sans-serif" font-size="13" lengthAdjust="spacing" textLength="375" x="508" y="349.975">tax number, email address, phone number, address, password)</text><polygon fill="#181818" points="1298,401.196,1308,405.196,1298,409.196,1302,405.196" style="stroke:#181818;stroke-width:1.0;"/><line style="stroke:#181818;stroke-width:1.0;" x1="905" x2="1304" y1="405.196" y2="405.196"/><text fill="#000000" font-family="sans-serif" font-size="13" font-weight="bold" lengthAdjust="spacing" textLength="7" x="912" y="390.534">8</text><text fill="#000000" font-family="sans-serif" font-size="13" lengthAdjust="spacing" textLength="260" x="923" y="381.681">registerClient(name, passport card number,</text><text fill="#000000" font-family="sans-serif" font-size="13" lengthAdjust="spacing" textLength="375" x="923" y="399.387">tax number, email address, phone number, address, password)</text><rect fill="none" height="44.0501" style="stroke:#000000;stroke-width:1.5;" width="117" x="1256.5" y="413.196"/><path d="M1256.5,413.196 L1320.5,413.196 L1320.5,422.196 L1310.5,432.196 L1256.5,432.196 L1256.5,413.196 " fill="#EEEEEE" style="stroke:#000000;stroke-width:2.0;"/><text fill="#000000" font-family="sans-serif" font-size="13" font-weight="bold" lengthAdjust="spacing" textLength="19" x="1269.5" y="429.093">ref</text><text fill="#000000" font-family="sans-serif" font-size="12" lengthAdjust="spacing" textLength="81" x="1274.5" y="449.0241">Register Client</text><polygon fill="#181818" points="916,481.9521,906,485.9521,916,489.9521,912,485.9521" style="stroke:#181818;stroke-width:1.0;"/><line style="stroke:#181818;stroke-width:1.0;stroke-dasharray:2.0,2.0;" x1="910" x2="1314" y1="485.9521" y2="485.9521"/><text fill="#000000" font-family="sans-serif" font-size="13" font-weight="bold" lengthAdjust="spacing" textLength="7" x="922" y="480.1431">9</text><text fill="#000000" font-family="sans-serif" font-size="13" lengthAdjust="spacing" textLength="32" x="933" y="480.1431">client</text><polygon fill="#181818" points="501,513.6582,491,517.6582,501,521.6582,497,517.6582" style="stroke:#181818;stroke-width:1.0;"/><line style="stroke:#181818;stroke-width:1.0;stroke-dasharray:2.0,2.0;" x1="495" x2="899" y1="517.6582" y2="517.6582"/><text fill="#000000" font-family="sans-serif" font-size="13" font-weight="bold" lengthAdjust="spacing" textLength="14" x="507" y="511.8492">10</text><text fill="#000000" font-family="sans-serif" font-size="13" lengthAdjust="spacing" textLength="32" x="525" y="511.8492">client</text><polygon fill="#181818" points="81,545.3642,71,549.3642,81,553.3642,77,549.3642" style="stroke:#181818;stroke-width:1.0;"/><line style="stroke:#181818;stroke-width:1.0;stroke-dasharray:2.0,2.0;" x1="75" x2="484" y1="549.3642" y2="549.3642"/><text fill="#000000" font-family="sans-serif" font-size="13" font-weight="bold" lengthAdjust="spacing" textLength="14" x="87" y="543.5552">11</text><text fill="#000000" font-family="sans-serif" font-size="13" lengthAdjust="spacing" textLength="158" x="105" y="543.5552">displays operation success</text><!--SRC=[nLHDRzim3BthLn2vh2lQFv33W2Ax1EWktN8RC30I4mkn9K-ac-RVbx9ZEqcTeRsiF9dMu-FZXyGx7sfCM44LGxH5YXM1f8OC3oSrsXrkwQSSIe94LZ1iorC05-ZYteSjRB1aCWORYQ6frfIC-L9uHx29KTRnnQ2Lc62s2ecsdeKIELWnfHaWm-fF_ZHAAjxw6eF0RFvq12vAJq5Momwv_2Tg4OEaM9P7tiMlfySB_8EhVD28XAgd1Jry_s7KLA1_Hg5UZ86ZTJxSVzFaCDU87OD4MEUM3ANu058Gy47zQWWTEPSZNykvp7nPtksjSjf4Ydg3o2cxv7FDzRSX5cxJPCVdj0u5ivXUoK3XQ3BtHIrog8bxwfxk9c15TpfyvZec0Ol9GJVKE_WT15y6Zohq9Q1pYPWrf8Y1XiFnjpBjOt9VtzkNeMWkudwiUDJumJAvMLTUMtSM-exPj6q_NQ__q9epQUt-dXrbQwMfH5tSpr9ufhAzG31XYJOGdtKG6G5NhB_0q1KmYQFWCjbqbjo6-t5YTfhcP5CczNPDxJVcI6AkCBoTo-LrTPxh4WyCiIPzQdmCkeNMQaklxUwfsxr0hm00]--></g></svg>