<?xml version="1.0" encoding="us-ascii" standalone="no"?><svg xmlns="http://www.w3.org/2000/svg" xmlns:xlink="http://www.w3.org/1999/xlink" contentStyleType="text/css" height="1134px" preserveAspectRatio="none" style="width:1514px;height:1134px;background:#FFFFFF;" version="1.1" viewBox="0 0 1514 1134" width="1514px" zoomAndPan="magnify"><defs/><g><!--class Agency--><g id="elem_Agency"><rect codeLine="16" fill="#F1F1F1" height="96.2031" id="Agency" rx="2.5" ry="2.5" style="stroke:#181818;stroke-width:0.5;" width="101" x="1201.6461" y="788"/><text fill="#000000" font-family="sans-serif" font-size="14" lengthAdjust="spacing" textLength="47" x="1228.6461" y="805.6738">Agency</text><line style="stroke:#181818;stroke-width:0.5;" x1="1202.6461" x2="1301.6461" y1="813.6406" y2="813.6406"/><text fill="#000000" font-family="sans-serif" font-size="14" lengthAdjust="spacing" textLength="11" x="1207.6461" y="830.3145">id</text><text fill="#000000" font-family="sans-serif" font-size="14" lengthAdjust="spacing" textLength="73" x="1207.6461" y="845.9551">designation</text><text fill="#000000" font-family="sans-serif" font-size="14" lengthAdjust="spacing" textLength="85" x="1207.6461" y="861.5957">emailAddress</text><text fill="#000000" font-family="sans-serif" font-size="14" lengthAdjust="spacing" textLength="89" x="1207.6461" y="877.2363">phoneNumber</text></g><!--class Administrator--><g id="elem_Administrator"><rect codeLine="23" fill="#F1F1F1" height="33.6406" id="Administrator" rx="2.5" ry="2.5" style="stroke:#181818;stroke-width:0.5;" width="89" x="1111.6461" y="212"/><text fill="#000000" font-family="sans-serif" font-size="14" lengthAdjust="spacing" textLength="83" x="1114.6461" y="229.6738">Administrator</text><line style="stroke:#181818;stroke-width:0.5;" x1="1112.6461" x2="1199.6461" y1="237.6406" y2="237.6406"/></g><!--class Agent--><g id="elem_Agent"><rect codeLine="25" fill="#F1F1F1" height="33.6406" id="Agent" rx="2.5" ry="2.5" style="stroke:#181818;stroke-width:0.5;" width="43" x="321.6461" y="148"/><text fill="#000000" font-family="sans-serif" font-size="14" lengthAdjust="spacing" textLength="37" x="324.6461" y="165.6738">Agent</text><line style="stroke:#181818;stroke-width:0.5;" x1="322.6461" x2="363.6461" y1="173.6406" y2="173.6406"/></g><!--class Commission--><g id="elem_Commission"><rect codeLine="27" fill="#F1F1F1" height="64.9219" id="Commission" rx="2.5" ry="2.5" style="stroke:#181818;stroke-width:0.5;" width="130" x="278.1461" y="7"/><text fill="#000000" font-family="sans-serif" font-size="14" lengthAdjust="spacing" textLength="76" x="305.1461" y="24.6738">Commission</text><line style="stroke:#181818;stroke-width:0.5;" x1="279.1461" x2="407.1461" y1="32.6406" y2="32.6406"/><text fill="#000000" font-family="sans-serif" font-size="14" lengthAdjust="spacing" textLength="118" x="284.1461" y="49.3145">typeOfCommission</text><text fill="#000000" font-family="sans-serif" font-size="14" lengthAdjust="spacing" textLength="109" x="284.1461" y="64.9551">commissionValue</text></g><!--class StoreManager--><g id="elem_StoreManager"><rect codeLine="32" fill="#F1F1F1" height="33.6406" id="StoreManager" rx="2.5" ry="2.5" style="stroke:#181818;stroke-width:0.5;" width="96" x="1411.1461" y="968"/><text fill="#000000" font-family="sans-serif" font-size="14" lengthAdjust="spacing" textLength="90" x="1414.1461" y="985.6738">StoreManager</text><line style="stroke:#181818;stroke-width:0.5;" x1="1412.1461" x2="1506.1461" y1="993.6406" y2="993.6406"/></g><!--class StoreNetworkManager--><g id="elem_StoreNetworkManager"><rect codeLine="34" fill="#F1F1F1" height="33.6406" id="StoreNetworkManager" rx="2.5" ry="2.5" style="stroke:#181818;stroke-width:0.5;" width="146" x="1180.1461" y="371"/><text fill="#000000" font-family="sans-serif" font-size="14" lengthAdjust="spacing" textLength="140" x="1183.1461" y="388.6738">StoreNetworkManager</text><line style="stroke:#181818;stroke-width:0.5;" x1="1181.1461" x2="1325.1461" y1="396.6406" y2="396.6406"/></g><!--class Client--><g id="elem_Client"><rect codeLine="36" fill="#F1F1F1" height="33.6406" id="Client" rx="2.5" ry="2.5" style="stroke:#181818;stroke-width:0.5;" width="42" x="769.1461" y="968"/><text fill="#000000" font-family="sans-serif" font-size="14" lengthAdjust="spacing" textLength="36" x="772.1461" y="985.6738">Client</text><line style="stroke:#181818;stroke-width:0.5;" x1="770.1461" x2="810.1461" y1="993.6406" y2="993.6406"/></g><!--class Person--><g id="elem_Person"><rect codeLine="38" fill="#F1F1F1" height="111.8438" id="Person" rx="2.5" ry="2.5" style="stroke:#181818;stroke-width:0.5;" width="126" x="917.1461" y="780"/><text fill="#000000" font-family="sans-serif" font-size="14" lengthAdjust="spacing" textLength="45" x="957.6461" y="797.6738">Person</text><line style="stroke:#181818;stroke-width:0.5;" x1="918.1461" x2="1042.1461" y1="805.6406" y2="805.6406"/><text fill="#000000" font-family="sans-serif" font-size="14" lengthAdjust="spacing" textLength="35" x="923.1461" y="822.3145">name</text><text fill="#000000" font-family="sans-serif" font-size="14" lengthAdjust="spacing" textLength="114" x="923.1461" y="837.9551">passportCardNum</text><text fill="#000000" font-family="sans-serif" font-size="14" lengthAdjust="spacing" textLength="67" x="923.1461" y="853.5957">taxNumber</text><text fill="#000000" font-family="sans-serif" font-size="14" lengthAdjust="spacing" textLength="85" x="923.1461" y="869.2363">emailAddress</text><text fill="#000000" font-family="sans-serif" font-size="14" lengthAdjust="spacing" textLength="89" x="923.1461" y="884.877">phoneNumber</text></g><!--class Owner--><g id="elem_Owner"><rect codeLine="46" fill="#F1F1F1" height="33.6406" id="Owner" rx="2.5" ry="2.5" style="stroke:#181818;stroke-width:0.5;" width="47" x="786.6461" y="148"/><text fill="#000000" font-family="sans-serif" font-size="14" lengthAdjust="spacing" textLength="41" x="789.6461" y="165.6738">Owner</text><line style="stroke:#181818;stroke-width:0.5;" x1="787.6461" x2="832.6461" y1="173.6406" y2="173.6406"/></g><!--class House--><g id="elem_House"><rect codeLine="48" fill="#F1F1F1" height="80.5625" id="House" rx="2.5" ry="2.5" style="stroke:#181818;stroke-width:0.5;" width="105" x="582.6461" y="795.5"/><text fill="#000000" font-family="sans-serif" font-size="14" lengthAdjust="spacing" textLength="40" x="615.1461" y="813.1738">House</text><line style="stroke:#181818;stroke-width:0.5;" x1="583.6461" x2="686.6461" y1="821.1406" y2="821.1406"/><text fill="#000000" font-family="sans-serif" font-size="14" lengthAdjust="spacing" textLength="62" x="588.6461" y="837.8145">basement</text><text fill="#000000" font-family="sans-serif" font-size="14" lengthAdjust="spacing" textLength="93" x="588.6461" y="853.4551">inhabitableLoft</text><text fill="#000000" font-family="sans-serif" font-size="14" lengthAdjust="spacing" textLength="82" x="588.6461" y="869.0957">sunExposure</text></g><!--class Apartment--><g id="elem_Apartment"><rect codeLine="54" fill="#F1F1F1" height="33.6406" id="Apartment" rx="2.5" ry="2.5" style="stroke:#181818;stroke-width:0.5;" width="71" x="476.6461" y="819"/><text fill="#000000" font-family="sans-serif" font-size="14" lengthAdjust="spacing" textLength="65" x="479.6461" y="836.6738">Apartment</text><line style="stroke:#181818;stroke-width:0.5;" x1="477.6461" x2="546.6461" y1="844.6406" y2="844.6406"/></g><!--class Dwelling--><g id="elem_Dwelling"><rect codeLine="56" fill="#F1F1F1" height="80.5625" id="Dwelling" rx="2.5" ry="2.5" style="stroke:#181818;stroke-width:0.5;" width="134" x="449.1461" y="607.5"/><text fill="#000000" font-family="sans-serif" font-size="14" lengthAdjust="spacing" textLength="52" x="490.1461" y="625.1738">Dwelling</text><line style="stroke:#181818;stroke-width:0.5;" x1="450.1461" x2="582.1461" y1="633.1406" y2="633.1406"/><text fill="#000000" font-family="sans-serif" font-size="14" lengthAdjust="spacing" textLength="91" x="455.1461" y="649.8145">numBedrooms</text><text fill="#000000" font-family="sans-serif" font-size="14" lengthAdjust="spacing" textLength="95" x="455.1461" y="665.4551">numBathrooms</text><text fill="#000000" font-family="sans-serif" font-size="14" lengthAdjust="spacing" textLength="122" x="455.1461" y="681.0957">numParkingSpaces</text></g><!--class Land--><g id="elem_Land"><rect codeLine="62" fill="#F1F1F1" height="33.6406" id="Land" rx="2.5" ry="2.5" style="stroke:#181818;stroke-width:0.5;" width="38" x="622.1461" y="631"/><text fill="#000000" font-family="sans-serif" font-size="14" lengthAdjust="spacing" textLength="32" x="625.1461" y="648.6738">Land</text><line style="stroke:#181818;stroke-width:0.5;" x1="623.1461" x2="659.1461" y1="656.6406" y2="656.6406"/></g><!--class Equipment--><g id="elem_Equipment"><rect codeLine="64" fill="#F1F1F1" height="33.6406" id="Equipment" rx="2.5" ry="2.5" style="stroke:#181818;stroke-width:0.5;" width="73" x="368.6461" y="819"/><text fill="#000000" font-family="sans-serif" font-size="14" lengthAdjust="spacing" textLength="67" x="371.6461" y="836.6738">Equipment</text><line style="stroke:#181818;stroke-width:0.5;" x1="369.6461" x2="440.6461" y1="844.6406" y2="844.6406"/></g><!--class Property--><g id="elem_Property"><rect codeLine="66" fill="#F1F1F1" height="80.5625" id="Property" rx="2.5" ry="2.5" style="stroke:#181818;stroke-width:0.5;" width="131" x="585.6461" y="435"/><text fill="#000000" font-family="sans-serif" font-size="14" lengthAdjust="spacing" textLength="54" x="624.1461" y="452.6738">Property</text><line style="stroke:#181818;stroke-width:0.5;" x1="586.6461" x2="715.6461" y1="460.6406" y2="460.6406"/><text fill="#000000" font-family="sans-serif" font-size="14" lengthAdjust="spacing" textLength="29" x="591.6461" y="477.3145">area</text><text fill="#000000" font-family="sans-serif" font-size="14" lengthAdjust="spacing" textLength="119" x="591.6461" y="492.9551">cityCenterDistance</text><text fill="#000000" font-family="sans-serif" font-size="14" lengthAdjust="spacing" textLength="31" x="591.6461" y="508.5957">price</text></g><!--class Photograph--><g id="elem_Photograph"><rect codeLine="72" fill="#F1F1F1" height="49.2813" id="Photograph" rx="2.5" ry="2.5" style="stroke:#181818;stroke-width:0.5;" width="124" x="900.1461" y="284"/><text fill="#000000" font-family="sans-serif" font-size="14" lengthAdjust="spacing" textLength="74" x="925.1461" y="301.6738">Photograph</text><line style="stroke:#181818;stroke-width:0.5;" x1="901.1461" x2="1023.1461" y1="309.6406" y2="309.6406"/><text fill="#000000" font-family="sans-serif" font-size="14" lengthAdjust="spacing" textLength="112" x="906.1461" y="326.3145">linkToPhotograph</text></g><!--class Employee--><g id="elem_Employee"><rect codeLine="76" fill="#F1F1F1" height="33.6406" id="Employee" rx="2.5" ry="2.5" style="stroke:#181818;stroke-width:0.5;" width="68" x="1154.1461" y="968"/><text fill="#000000" font-family="sans-serif" font-size="14" lengthAdjust="spacing" textLength="62" x="1157.1461" y="985.6738">Employee</text><line style="stroke:#181818;stroke-width:0.5;" x1="1155.1461" x2="1221.1461" y1="993.6406" y2="993.6406"/></g><!--class OrganizationRole--><g id="elem_OrganizationRole"><rect codeLine="80" fill="#F1F1F1" height="49.2813" id="OrganizationRole" rx="2.5" ry="2.5" style="stroke:#181818;stroke-width:0.5;" width="115" x="1195.6461" y="15"/><text fill="#000000" font-family="sans-serif" font-size="14" lengthAdjust="spacing" textLength="109" x="1198.6461" y="32.6738">OrganizationRole</text><line style="stroke:#181818;stroke-width:0.5;" x1="1196.6461" x2="1309.6461" y1="40.6406" y2="40.6406"/><text fill="#000000" font-family="sans-serif" font-size="14" lengthAdjust="spacing" textLength="60" x="1201.6461" y="57.3145">roleName</text></g><!--class Offer--><g id="elem_Offer"><rect codeLine="84" fill="#F1F1F1" height="64.9219" id="Offer" rx="2.5" ry="2.5" style="stroke:#181818;stroke-width:0.5;" width="110" x="755.1461" y="276"/><text fill="#000000" font-family="sans-serif" font-size="14" lengthAdjust="spacing" textLength="32" x="794.1461" y="293.6738">Offer</text><line style="stroke:#181818;stroke-width:0.5;" x1="756.1461" x2="864.1461" y1="301.6406" y2="301.6406"/><text fill="#000000" font-family="sans-serif" font-size="14" lengthAdjust="spacing" textLength="98" x="761.1461" y="318.3145">publicationDate</text><text fill="#000000" font-family="sans-serif" font-size="14" lengthAdjust="spacing" textLength="31" x="761.1461" y="333.9551">price</text></g><!--class SaleAnnouncement--><g id="elem_SaleAnnouncement"><rect codeLine="89" fill="#F1F1F1" height="49.2813" id="SaleAnnouncement" rx="2.5" ry="2.5" style="stroke:#181818;stroke-width:0.5;" width="136" x="1346.1461" y="15"/><text fill="#000000" font-family="sans-serif" font-size="14" lengthAdjust="spacing" textLength="123" x="1352.6461" y="32.6738">SaleAnnouncement</text><line style="stroke:#181818;stroke-width:0.5;" x1="1347.1461" x2="1481.1461" y1="40.6406" y2="40.6406"/><text fill="#000000" font-family="sans-serif" font-size="14" lengthAdjust="spacing" textLength="124" x="1352.1461" y="57.3145">announcementDate</text></g><!--class Visit--><g id="elem_Visit"><rect codeLine="93" fill="#F1F1F1" height="49.2813" id="Visit" rx="2.5" ry="2.5" style="stroke:#181818;stroke-width:0.5;" width="66" x="662.1461" y="1078"/><text fill="#000000" font-family="sans-serif" font-size="14" lengthAdjust="spacing" textLength="26" x="682.1461" y="1095.6738">Visit</text><line style="stroke:#181818;stroke-width:0.5;" x1="663.1461" x2="727.1461" y1="1103.6406" y2="1103.6406"/><text fill="#000000" font-family="sans-serif" font-size="14" lengthAdjust="spacing" textLength="54" x="668.1461" y="1120.3145">visitDate</text></g><!--class Address--><g id="elem_Address"><rect codeLine="97" fill="#F1F1F1" height="111.8438" id="Address" rx="2.5" ry="2.5" style="stroke:#181818;stroke-width:0.5;" width="98" x="794.1461" y="592"/><text fill="#000000" font-family="sans-serif" font-size="14" lengthAdjust="spacing" textLength="52" x="817.1461" y="609.6738">Address</text><line style="stroke:#181818;stroke-width:0.5;" x1="795.1461" x2="891.1461" y1="617.6406" y2="617.6406"/><text fill="#000000" font-family="sans-serif" font-size="14" lengthAdjust="spacing" textLength="36" x="800.1461" y="634.3145">street</text><text fill="#000000" font-family="sans-serif" font-size="14" lengthAdjust="spacing" textLength="57" x="800.1461" y="649.9551">cityName</text><text fill="#000000" font-family="sans-serif" font-size="14" lengthAdjust="spacing" textLength="77" x="800.1461" y="665.5957">districtName</text><text fill="#000000" font-family="sans-serif" font-size="14" lengthAdjust="spacing" textLength="86" x="800.1461" y="681.2363">stateAcronym</text><text fill="#000000" font-family="sans-serif" font-size="14" lengthAdjust="spacing" textLength="51" x="800.1461" y="696.877">zipCode</text></g><!--class PropertyType--><g id="elem_PropertyType"><rect codeLine="105" fill="#F1F1F1" height="49.2813" id="PropertyType" rx="2.5" ry="2.5" style="stroke:#181818;stroke-width:0.5;" width="97" x="199.6461" y="284"/><text fill="#000000" font-family="sans-serif" font-size="14" lengthAdjust="spacing" textLength="86" x="205.1461" y="301.6738">PropertyType</text><line style="stroke:#181818;stroke-width:0.5;" x1="200.6461" x2="295.6461" y1="309.6406" y2="309.6406"/><text fill="#000000" font-family="sans-serif" font-size="14" lengthAdjust="spacing" textLength="85" x="205.6461" y="326.3145">propertyType</text></g><!--class Lease--><g id="elem_Lease"><rect codeLine="109" fill="#F1F1F1" height="64.9219" id="Lease" rx="2.5" ry="2.5" style="stroke:#181818;stroke-width:0.5;" width="117" x="602.6461" y="276"/><text fill="#000000" font-family="sans-serif" font-size="14" lengthAdjust="spacing" textLength="39" x="641.6461" y="293.6738">Lease</text><line style="stroke:#181818;stroke-width:0.5;" x1="603.6461" x2="718.6461" y1="301.6406" y2="301.6406"/><text fill="#000000" font-family="sans-serif" font-size="14" lengthAdjust="spacing" textLength="70" x="608.6461" y="318.3145">leaseValue</text><text fill="#000000" font-family="sans-serif" font-size="14" lengthAdjust="spacing" textLength="105" x="608.6461" y="333.9551">contractDuration</text></g><!--class Sale--><g id="elem_Sale"><rect codeLine="114" fill="#F1F1F1" height="49.2813" id="Sale" rx="2.5" ry="2.5" style="stroke:#181818;stroke-width:0.5;" width="74" x="485.1461" y="284"/><text fill="#000000" font-family="sans-serif" font-size="14" lengthAdjust="spacing" textLength="28" x="508.1461" y="301.6738">Sale</text><line style="stroke:#181818;stroke-width:0.5;" x1="486.1461" x2="558.1461" y1="309.6406" y2="309.6406"/><text fill="#000000" font-family="sans-serif" font-size="14" lengthAdjust="spacing" textLength="62" x="491.1461" y="326.3145">saleValue</text></g><!--class Advertisement--><g id="elem_Advertisement"><rect fill="#F1F1F1" height="33.6406" id="Advertisement" rx="2.5" ry="2.5" style="stroke:#181818;stroke-width:0.5;" width="96" x="68.1461" y="291.5"/><text fill="#000000" font-family="sans-serif" font-size="14" lengthAdjust="spacing" textLength="90" x="71.1461" y="309.1738">Advertisement</text><line style="stroke:#181818;stroke-width:0.5;" x1="69.1461" x2="163.1461" y1="317.1406" y2="317.1406"/></g><!--link Address to Person--><g id="link_Address_Person"><path codeLine="118" d="M849.1261,704.21 C852.6561,719.92 858.2661,736.43 867.1461,750 C879.8561,769.41 898.5761,786.07 917.1461,799.37 " fill="none" id="Address-Person" style="stroke:#181818;stroke-width:1.0;"/><polygon fill="#000000" points="869.2385,738.194,872.1074,747.2616,876.8893,743.8435,869.2385,738.194" style="stroke:#000000;stroke-width:1.0;"/><text fill="#000000" font-family="sans-serif" font-size="13" lengthAdjust="spacing" textLength="57" x="881.1461" y="746.7686">located at</text><text fill="#000000" font-family="sans-serif" font-size="13" lengthAdjust="spacing" textLength="7" x="842.4283" y="723.7237">1</text><text fill="#000000" font-family="sans-serif" font-size="13" lengthAdjust="spacing" textLength="7" x="902.0414" y="791.8626">1</text></g><!--link Address to Agency--><g id="link_Address_Agency"><path codeLine="119" d="M892.4761,671.44 C970.6661,706.99 1122.2661,775.93 1201.3561,811.9 " fill="none" id="Address-Agency" style="stroke:#181818;stroke-width:1.0;"/><polygon fill="#000000" points="1060.5946,740.192,1067.6117,746.6115,1070.0449,741.2609,1060.5946,740.192" style="stroke:#000000;stroke-width:1.0;"/><text fill="#000000" font-family="sans-serif" font-size="13" lengthAdjust="spacing" textLength="57" x="1074.1461" y="746.7686">located at</text><text fill="#000000" font-family="sans-serif" font-size="13" lengthAdjust="spacing" textLength="7" x="900.2355" y="671.6731">1</text><text fill="#000000" font-family="sans-serif" font-size="13" lengthAdjust="spacing" textLength="7" x="1186.7215" y="805.3176">1</text></g><!--link Agency to StoreManager--><g id="link_Agency_StoreManager"><path codeLine="121" d="M1302.7861,872.96 C1345.5161,903.3 1404.6761,945.32 1436.5761,967.97 " fill="none" id="Agency-StoreManager" style="stroke:#181818;stroke-width:1.0;"/><polygon fill="#000000" points="1393.0694,927.3667,1398.7425,935,1402.1458,930.2076,1393.0694,927.3667" style="stroke:#000000;stroke-width:1.0;"/><text fill="#000000" font-family="sans-serif" font-size="13" lengthAdjust="spacing" textLength="53" x="1406.1461" y="934.7686">manages</text><text fill="#000000" font-family="sans-serif" font-size="13" lengthAdjust="spacing" textLength="7" x="1310.7379" y="875.1525">1</text><text fill="#000000" font-family="sans-serif" font-size="13" lengthAdjust="spacing" textLength="7" x="1420.2886" y="957.3351">1</text></g><!--link Agency to Employee--><g id="link_Agency_Employee"><path codeLine="122" d="M1231.5461,884.32 C1219.0461,913.03 1203.8861,947.86 1195.1861,967.82 " fill="none" id="Agency-Employee" style="stroke:#181818;stroke-width:1.0;"/><polygon fill="#000000" points="1218.1499,934.846,1224.4556,927.7263,1219.0665,925.3797,1218.1499,934.846" style="stroke:#000000;stroke-width:1.0;"/><text fill="#000000" font-family="sans-serif" font-size="13" lengthAdjust="spacing" textLength="30" x="1229.1461" y="934.7686">owns</text><text fill="#000000" font-family="sans-serif" font-size="13" lengthAdjust="spacing" textLength="7" x="1221.157" y="903.8905">1</text><text fill="#000000" font-family="sans-serif" font-size="13" lengthAdjust="spacing" textLength="20" x="1201.2566" y="957.1317">1..*</text></g><!--reverse link OrganizationRole to Administrator--><g id="link_OrganizationRole_Administrator"><path codeLine="124" d="M1231.5561,82.23 C1210.4661,122.99 1179.4461,182.95 1164.6361,211.6 " fill="none" id="OrganizationRole-backto-Administrator" style="stroke:#181818;stroke-width:1.0;"/><polygon fill="none" points="1225.4561,78.79,1240.8561,64.25,1237.8861,85.23,1225.4561,78.79" style="stroke:#181818;stroke-width:1.0;"/></g><!--reverse link OrganizationRole to Agent--><g id="link_OrganizationRole_Agent"><path codeLine="125" d="M1175.4261,51.05 C979.8761,77.59 475.2361,146.07 364.7361,161.07 " fill="none" id="OrganizationRole-backto-Agent" style="stroke:#181818;stroke-width:1.0;"/><polygon fill="none" points="1174.7761,44.07,1195.5361,48.32,1176.6561,57.95,1174.7761,44.07" style="stroke:#181818;stroke-width:1.0;"/></g><!--reverse link OrganizationRole to StoreManager--><g id="link_OrganizationRole_StoreManager"><path codeLine="126" d="M1325.8661,72.34 C1400.2961,105.48 1505.1461,153.94 1505.1461,164 C1505.1461,164 1505.1461,164 1505.1461,837 C1505.1461,886.47 1481.1261,941.21 1467.7961,967.77 " fill="none" id="OrganizationRole-backto-StoreManager" style="stroke:#181818;stroke-width:1.0;"/><polygon fill="none" points="1322.6561,78.57,1307.2061,64.07,1328.3261,65.77,1322.6561,78.57" style="stroke:#181818;stroke-width:1.0;"/></g><!--reverse link OrganizationRole to StoreNetworkManager--><g id="link_OrganizationRole_StoreNetworkManager"><path codeLine="127" d="M1253.1461,84.48 C1253.1461,161.99 1253.1461,319.56 1253.1461,370.63 " fill="none" id="OrganizationRole-backto-StoreNetworkManager" style="stroke:#181818;stroke-width:1.0;"/><polygon fill="none" points="1246.1461,84.04,1253.1461,64.04,1260.1461,84.04,1246.1461,84.04" style="stroke:#181818;stroke-width:1.0;"/></g><!--link OrganizationRole to Employee--><g id="link_OrganizationRole_Employee"><path codeLine="129" d="M1290.3361,64.07 C1319.8361,85.98 1356.1461,121.56 1356.1461,164 C1356.1461,164 1356.1461,164 1356.1461,837 C1356.1461,907.34 1271.6961,951.83 1222.5461,971.77 " fill="none" id="OrganizationRole-Employee" style="stroke:#181818;stroke-width:1.0;"/><polygon fill="#000000" points="1361.5184,470.7756,1357.914,479.5767,1363.7756,480.0144,1361.5184,470.7756" style="stroke:#000000;stroke-width:1.0;"/><text fill="#000000" font-family="sans-serif" font-size="13" lengthAdjust="spacing" textLength="31" x="1370.1461" y="480.2686">plays</text><text fill="#000000" font-family="sans-serif" font-size="13" lengthAdjust="spacing" textLength="20" x="1277.3035" y="83.9594">1..*</text><text fill="#000000" font-family="sans-serif" font-size="13" lengthAdjust="spacing" textLength="7" x="1230.3629" y="965.4572">1</text></g><!--link Administrator to Employee--><g id="link_Administrator_Employee"><path codeLine="131" d="M1154.7861,246.03 C1152.5061,274.43 1148.1461,335.42 1148.1461,387 C1148.1461,387 1148.1461,387 1148.1461,837 C1148.1461,885.93 1169.0361,940.91 1180.6261,967.64 " fill="none" id="Administrator-Employee" style="stroke:#181818;stroke-width:1.0;"/><polygon fill="#000000" points="1153.325,559.2585,1155.9383,550.1141,1150.0643,550.3244,1153.325,559.2585" style="stroke:#000000;stroke-width:1.0;"/><text fill="#000000" font-family="sans-serif" font-size="13" lengthAdjust="spacing" textLength="50" x="1162.1461" y="558.7686">registers</text><text fill="#000000" font-family="sans-serif" font-size="13" lengthAdjust="spacing" textLength="7" x="1146.2977" y="265.2929">1</text><text fill="#000000" font-family="sans-serif" font-size="13" lengthAdjust="spacing" textLength="20" x="1154.6036" y="957.1865">1..*</text></g><!--link Client to Property--><g id="link_Client_Property"><path codeLine="133" d="M786.0561,967.62 C771.5461,909.75 720.8561,709.59 673.1461,546 C670.3161,536.28 667.0961,525.85 664.0261,516.1 " fill="none" id="Client-Property" style="stroke:#181818;stroke-width:1.0;"/><polygon fill="#000000" points="733.8415,737.4349,733.3643,746.9335,739.0386,745.3999,733.8415,737.4349" style="stroke:#000000;stroke-width:1.0;"/><text fill="#000000" font-family="sans-serif" font-size="13" lengthAdjust="spacing" textLength="61" x="744.1461" y="746.7686">buys/rents</text><text fill="#000000" font-family="sans-serif" font-size="13" lengthAdjust="spacing" textLength="7" x="776.447" y="957.1597">1</text><text fill="#000000" font-family="sans-serif" font-size="13" lengthAdjust="spacing" textLength="20" x="644.4671" y="535.2309">1..*</text></g><!--link Client to Visit--><g id="link_Client_Visit"><path codeLine="134" d="M776.9361,1002.06 C760.7261,1021.77 733.0961,1055.36 714.4961,1077.98 " fill="none" id="Client-Visit" style="stroke:#181818;stroke-width:1.0;"/><polygon fill="#000000" points="753.97,1044.1234,761.9854,1039.0044,757.4457,1035.2707,753.97,1044.1234" style="stroke:#000000;stroke-width:1.0;"/><text fill="#000000" font-family="sans-serif" font-size="13" lengthAdjust="spacing" textLength="50" x="766.1461" y="1044.7686">requests</text><text fill="#000000" font-family="sans-serif" font-size="13" lengthAdjust="spacing" textLength="7" x="764.8186" y="1021.3321">1</text><text fill="#000000" font-family="sans-serif" font-size="13" lengthAdjust="spacing" textLength="20" x="722.3839" y="1067.3101">1..*</text></g><!--link Owner to Offer--><g id="link_Owner_Offer"><path codeLine="136" d="M810.1461,182.23 C810.1461,204.95 810.1461,246.71 810.1461,275.74 " fill="none" id="Owner-Offer" style="stroke:#181818;stroke-width:1.0;"/><polygon fill="#000000" points="815.1461,234.2617,818.085,225.2166,812.2071,225.2166,815.1461,234.2617" style="stroke:#000000;stroke-width:1.0;"/><text fill="#000000" font-family="sans-serif" font-size="13" lengthAdjust="spacing" textLength="39" x="824.1461" y="233.7686">makes</text><text fill="#000000" font-family="sans-serif" font-size="13" lengthAdjust="spacing" textLength="7" x="802.0742" y="201.5542">1</text><text fill="#000000" font-family="sans-serif" font-size="13" lengthAdjust="spacing" textLength="20" x="788.0836" y="265.3701">1..*</text></g><!--link Offer to Property--><g id="link_Offer_Property"><path codeLine="138" d="M828.6761,341.11 C837.6561,360.95 844.0161,386.24 831.1461,405 C805.6661,442.16 757.2661,459.45 717.0761,467.5 " fill="none" id="Offer-Property" style="stroke:#181818;stroke-width:1.0;"/><polygon fill="#000000" points="840.8366,392.0097,849.0265,387.1747,844.6204,383.2843,840.8366,392.0097" style="stroke:#000000;stroke-width:1.0;"/><text fill="#000000" font-family="sans-serif" font-size="13" lengthAdjust="spacing" textLength="49" x="853.1461" y="392.7686">contains</text><text fill="#000000" font-family="sans-serif" font-size="13" lengthAdjust="spacing" textLength="7" x="824.6351" y="360.736">1</text><text fill="#000000" font-family="sans-serif" font-size="13" lengthAdjust="spacing" textLength="7" x="724.67" y="463.6805">1</text></g><!--link Property to Address--><g id="link_Property_Address"><path codeLine="140" d="M703.0561,516.06 C715.0961,525.63 727.7261,535.99 739.1461,546 C757.6061,562.17 777.0861,580.68 794.1361,597.39 " fill="none" id="Property-Address" style="stroke:#181818;stroke-width:1.0;"/><polygon fill="#000000" points="765.8756,557.592,761.0863,549.3753,757.1713,553.7596,765.8756,557.592" style="stroke:#000000;stroke-width:1.0;"/><text fill="#000000" font-family="sans-serif" font-size="13" lengthAdjust="spacing" textLength="57" x="771.1461" y="558.7686">located at</text><text fill="#000000" font-family="sans-serif" font-size="13" lengthAdjust="spacing" textLength="7" x="703.4688" y="535.1848">1</text><text fill="#000000" font-family="sans-serif" font-size="13" lengthAdjust="spacing" textLength="7" x="779.0955" y="586.3891">1</text></g><!--reverse link Property to Dwelling--><g id="link_Property_Dwelling"><path codeLine="141" d="M607.2361,531.96 C587.7561,556.56 565.2761,584.95 547.5161,607.37 " fill="none" id="Property-backto-Dwelling" style="stroke:#181818;stroke-width:1.0;"/><polygon fill="none" points="601.9361,527.38,619.8361,516.04,612.9061,536.07,601.9361,527.38" style="stroke:#181818;stroke-width:1.0;"/></g><!--reverse link Property to Land--><g id="link_Property_Land"><path codeLine="142" d="M647.6261,536.47 C645.6661,569.98 643.3661,609.22 642.0961,630.77 " fill="none" id="Property-backto-Land" style="stroke:#181818;stroke-width:1.0;"/><polygon fill="none" points="640.6661,535.6,648.8261,516.04,654.6461,536.42,640.6661,535.6" style="stroke:#181818;stroke-width:1.0;"/></g><!--link Photograph to Property--><g id="link_Photograph_Property"><path codeLine="144" d="M955.5361,333.07 C948.2061,354.89 934.2661,386.66 911.1461,405 C855.3261,449.29 773.7461,465.47 716.9061,471.32 " fill="none" id="Photograph-Property" style="stroke:#181818;stroke-width:1.0;"/><polygon fill="#000000" points="948.4724,385.7552,939.1727,387.7465,942.1192,392.8325,948.4724,385.7552" style="stroke:#000000;stroke-width:1.0;"/><text fill="#000000" font-family="sans-serif" font-size="13" lengthAdjust="spacing" textLength="21" x="953.1461" y="392.7686">has</text><text fill="#000000" font-family="sans-serif" font-size="13" lengthAdjust="spacing" textLength="20" x="931.2797" y="352.9594">1..*</text><text fill="#000000" font-family="sans-serif" font-size="13" lengthAdjust="spacing" textLength="7" x="724.4814" y="483.4495">1</text></g><!--link Dwelling to Equipment--><g id="link_Dwelling_Equipment"><path codeLine="146" d="M492.3361,688.9 C468.1261,729.46 431.8261,790.29 414.7161,818.96 " fill="none" id="Dwelling-Equipment" style="stroke:#181818;stroke-width:1.0;"/><polygon fill="#000000" points="466.5837,746.5552,473.7427,740.2943,468.6954,737.2821,466.5837,746.5552" style="stroke:#000000;stroke-width:1.0;"/><text fill="#000000" font-family="sans-serif" font-size="13" lengthAdjust="spacing" textLength="21" x="478.1461" y="746.7686">has</text><text fill="#000000" font-family="sans-serif" font-size="13" lengthAdjust="spacing" textLength="7" x="481.3249" y="707.7744">1</text><text fill="#000000" font-family="sans-serif" font-size="13" lengthAdjust="spacing" textLength="20" x="394.5629" y="808.3216">1..*</text></g><!--reverse link Dwelling to Apartment--><g id="link_Dwelling_Apartment"><path codeLine="147" d="M514.8561,708.93 C514.0261,747.47 513.0161,794.72 512.4861,818.96 " fill="none" id="Dwelling-backto-Apartment" style="stroke:#181818;stroke-width:1.0;"/><polygon fill="none" points="507.8561,708.75,515.2861,688.9,521.8561,709.05,507.8561,708.75" style="stroke:#181818;stroke-width:1.0;"/></g><!--reverse link Dwelling to House--><g id="link_Dwelling_House"><path codeLine="148" d="M552.6761,706.1 C571.1961,735.05 593.2361,769.49 609.8661,795.48 " fill="none" id="Dwelling-backto-House" style="stroke:#181818;stroke-width:1.0;"/><polygon fill="none" points="546.5561,709.52,541.6761,688.9,558.3461,701.98,546.5561,709.52" style="stroke:#181818;stroke-width:1.0;"/></g><!--link Agent to Advertisement--><g id="link_Agent_Advertisement"><path codeLine="150" d="M321.3761,179.57 C279.3261,205.78 187.0761,263.29 141.9861,291.39 " fill="none" id="Agent-Advertisement" style="stroke:#181818;stroke-width:1.0;"/><polygon fill="#000000" points="264.9029,231.9066,274.1335,229.616,271.0242,224.6279,264.9029,231.9066" style="stroke:#000000;stroke-width:1.0;"/><text fill="#000000" font-family="sans-serif" font-size="13" lengthAdjust="spacing" textLength="55" x="278.1461" y="233.7686">publishes</text><text fill="#000000" font-family="sans-serif" font-size="13" lengthAdjust="spacing" textLength="7" x="306.6371" y="179.792">1</text><text fill="#000000" font-family="sans-serif" font-size="13" lengthAdjust="spacing" textLength="20" x="127.6291" y="280.7266">1..*</text></g><!--link Agent to Offer--><g id="link_Agent_Offer"><path codeLine="151" d="M364.8161,170.96 C424.8161,184.92 597.8761,226.76 737.1461,276 C743.0061,278.07 749.0561,280.39 755.0561,282.8 " fill="none" id="Agent-Offer" style="stroke:#181818;stroke-width:1.0;"/><polygon fill="#000000" points="651.9526,230.6392,644.0672,225.3221,642.4478,230.9725,651.9526,230.6392" style="stroke:#000000;stroke-width:1.0;"/><text fill="#000000" font-family="sans-serif" font-size="13" lengthAdjust="spacing" textLength="42" x="656.1461" y="233.7686">reviews</text><text fill="#000000" font-family="sans-serif" font-size="13" lengthAdjust="spacing" textLength="7" x="372.5244" y="168.5452">1</text><text fill="#000000" font-family="sans-serif" font-size="13" lengthAdjust="spacing" textLength="20" x="727.7168" y="276.3359">1..*</text></g><!--link Agent to Visit--><g id="link_Agent_Visit"><path codeLine="152" d="M321.6261,165.47 C248.6561,164.9 15.1461,173.54 15.1461,307.5 C15.1461,307.5 15.1461,307.5 15.1461,986 C15.1461,1052.38 525.3661,1090.43 661.8861,1099.42 " fill="none" id="Agent-Visit" style="stroke:#181818;stroke-width:1.0;"/><polygon fill="#000000" points="21.8576,652.9596,21.5227,643.455,16,645.467,21.8576,652.9596" style="stroke:#000000;stroke-width:1.0;"/><text fill="#000000" font-family="sans-serif" font-size="13" lengthAdjust="spacing" textLength="59" x="29.1461" y="652.7686">schedules</text><text fill="#000000" font-family="sans-serif" font-size="13" lengthAdjust="spacing" textLength="7" x="306.6509" y="161.2978">1</text><text fill="#000000" font-family="sans-serif" font-size="13" lengthAdjust="spacing" textLength="20" x="634.1804" y="1095.4146">1..*</text></g><!--link Commission to Agent--><g id="link_Commission_Agent"><path codeLine="154" d="M343.1461,72.3 C343.1461,96.46 343.1461,128.68 343.1461,147.8 " fill="none" id="Commission-Agent" style="stroke:#181818;stroke-width:1.0;"/><polygon fill="#000000" points="348.1461,105.2617,345.2071,114.3068,351.085,114.3068,348.1461,105.2617" style="stroke:#000000;stroke-width:1.0;"/><text fill="#000000" font-family="sans-serif" font-size="13" lengthAdjust="spacing" textLength="41" x="357.1461" y="114.7686">defines</text><text fill="#000000" font-family="sans-serif" font-size="13" lengthAdjust="spacing" textLength="7" x="335.4789" y="91.7128">1</text><text fill="#000000" font-family="sans-serif" font-size="13" lengthAdjust="spacing" textLength="7" x="334.8992" y="137.1046">1</text></g><!--link Visit to Address--><g id="link_Visit_Address"><path codeLine="156" d="M702.9361,1077.69 C725.7261,1008.02 792.7161,803.19 825.1461,704.03 " fill="none" id="Visit-Address" style="stroke:#181818;stroke-width:1.0;"/><polygon fill="#000000" points="759.7004,925.5094,754.0953,933.1928,759.6819,935.02,759.7004,925.5094" style="stroke:#000000;stroke-width:1.0;"/><text fill="#000000" font-family="sans-serif" font-size="13" lengthAdjust="spacing" textLength="57" x="767.1461" y="934.7686">located at</text><text fill="#000000" font-family="sans-serif" font-size="13" lengthAdjust="spacing" textLength="7" x="697.0354" y="1067.3383">1</text><text fill="#000000" font-family="sans-serif" font-size="13" lengthAdjust="spacing" textLength="7" x="815.5257" y="723.5218">1</text></g><!--link PropertyType to Property--><g id="link_PropertyType_Property"><path codeLine="158" d="M237.9761,333.17 C230.5961,354.46 224.5161,385.32 241.1461,405 C284.4161,456.22 480.7461,469.7 585.2461,473.24 " fill="none" id="PropertyType-Property" style="stroke:#181818;stroke-width:1.0;"/><polygon fill="#000000" points="241.509,386.3914,248.7981,392.5004,250.9968,387.0493,241.509,386.3914" style="stroke:#000000;stroke-width:1.0;"/><text fill="#000000" font-family="sans-serif" font-size="13" lengthAdjust="spacing" textLength="85" x="255.1461" y="392.7686">categorized by</text><text fill="#000000" font-family="sans-serif" font-size="13" lengthAdjust="spacing" textLength="7" x="227.4731" y="353.085">1</text><text fill="#000000" font-family="sans-serif" font-size="13" lengthAdjust="spacing" textLength="7" x="570.6554" y="485.5795">1</text></g><!--link StoreNetworkManager to Agency--><g id="link_StoreNetworkManager_Agency"><path codeLine="160" d="M1253.1061,405.14 C1252.9761,466.9 1252.4761,689.74 1252.2561,787.95 " fill="none" id="StoreNetworkManager-Agency" style="stroke:#181818;stroke-width:1.0;"/><polygon fill="#000000" points="1257.135,559.2617,1260.094,550.2232,1254.2161,550.2101,1257.135,559.2617" style="stroke:#000000;stroke-width:1.0;"/><text fill="#000000" font-family="sans-serif" font-size="13" lengthAdjust="spacing" textLength="53" x="1266.1461" y="558.7686">manages</text><text fill="#000000" font-family="sans-serif" font-size="13" lengthAdjust="spacing" textLength="7" x="1245.0219" y="424.4366">1</text><text fill="#000000" font-family="sans-serif" font-size="13" lengthAdjust="spacing" textLength="20" x="1230.7417" y="777.3135">2..*</text></g><!--link Owner to Property--><g id="link_Owner_Property"><path codeLine="162" d="M786.4661,168.15 C704.5061,176.14 435.5761,207.35 392.1461,276 C361.2561,324.82 367.9861,363.47 408.1461,405 C454.2761,452.71 530.7261,468.3 585.5561,473.08 " fill="none" id="Owner-Property" style="stroke:#181818;stroke-width:1.0;"/><polygon fill="#000000" points="394.3951,312.9369,401.8257,307.0009,396.9175,303.7669,394.3951,312.9369" style="stroke:#000000;stroke-width:1.0;"/><text fill="#000000" font-family="sans-serif" font-size="13" lengthAdjust="spacing" textLength="60" x="406.1461" y="313.2686">sells/rents</text><text fill="#000000" font-family="sans-serif" font-size="13" lengthAdjust="spacing" textLength="7" x="771.4819" y="164.9173">1</text><text fill="#000000" font-family="sans-serif" font-size="13" lengthAdjust="spacing" textLength="20" x="557.7608" y="469.9267">1..*</text></g><!--link Owner to Person--><g id="link_Owner_Person"><path codeLine="163" d="M833.8361,167.47 C899.1861,172.93 1077.1461,197.86 1077.1461,307.5 C1077.1461,307.5 1077.1461,307.5 1077.1461,649 C1077.1461,694.94 1075.8961,709.01 1055.1461,750 C1052.8561,754.53 1050.2561,759.01 1047.4461,763.41 " fill="none" id="Owner-to-Person" style="stroke:#181818;stroke-width:1.0;"/><polygon fill="none" points="1053.0261,767.65,1035.7161,779.87,1041.6261,759.52,1053.0261,767.65" style="stroke:#181818;stroke-width:1.0;"/></g><!--reverse link Person to Client--><g id="link_Person_Client"><path codeLine="165" d="M901.2961,898.01 C868.4161,923.44 832.8961,950.93 811.0761,967.8 " fill="none" id="Person-backto-Client" style="stroke:#181818;stroke-width:1.0;"/><polygon fill="none" points="897.0361,892.45,917.1461,885.74,905.6061,903.52,897.0361,892.45" style="stroke:#181818;stroke-width:1.0;"/></g><!--reverse link Person to Employee--><g id="link_Person_Employee"><path codeLine="166" d="M1059.6261,893.73 C1079.9761,908.2 1101.8461,923.71 1122.1461,938 C1136.3061,947.97 1152.2361,959.07 1164.8961,967.87 " fill="none" id="Person-backto-Employee" style="stroke:#181818;stroke-width:1.0;"/><polygon fill="none" points="1055.5561,899.43,1043.3161,882.13,1063.6761,888.02,1055.5561,899.43" style="stroke:#181818;stroke-width:1.0;"/></g><!--link Lease to Property--><g id="link_Lease_Property"><path codeLine="168" d="M708.4261,341.01 C717.6361,349.57 726.0061,359.65 731.1461,371 C737.3761,384.77 737.4161,391.25 731.1461,405 C726.1061,416.05 718.3561,426.02 709.6161,434.73 " fill="none" id="Lease-Property" style="stroke:#181818;stroke-width:1.0;"/><polygon fill="#000000" points="741.0826,383.2621,738.2587,392.3438,744.1361,392.2692,741.0826,383.2621" style="stroke:#000000;stroke-width:1.0;"/><text fill="#000000" font-family="sans-serif" font-size="13" lengthAdjust="spacing" textLength="72" x="750.1461" y="392.7686">classified as</text><text fill="#000000" font-family="sans-serif" font-size="13" lengthAdjust="spacing" textLength="20" x="695.7656" y="360.6163">0..*</text><text fill="#000000" font-family="sans-serif" font-size="13" lengthAdjust="spacing" textLength="7" x="712.064" y="424.3707">1</text></g><!--link Lease to Property--><g id="link_Lease_Property"><path codeLine="169" d="M657.0361,341.06 C655.9261,350.66 654.8461,361.25 654.1461,371 C652.6461,391.98 651.8961,415.4 651.5161,434.65 " fill="none" id="Lease-Property-1" style="stroke:#181818;stroke-width:1.0;"/><polygon fill="#000000" points="658.8517,393.253,662.3181,384.3967,656.4504,384.0506,658.8517,393.253" style="stroke:#000000;stroke-width:1.0;"/><text fill="#000000" font-family="sans-serif" font-size="13" lengthAdjust="spacing" textLength="54" x="668.1461" y="392.7686">classifies</text><text fill="#000000" font-family="sans-serif" font-size="13" lengthAdjust="spacing" textLength="7" x="648.5378" y="360.6761">1</text><text fill="#000000" font-family="sans-serif" font-size="13" lengthAdjust="spacing" textLength="20" x="629.8609" y="424.2769">1..*</text></g><!--link Sale to Property--><g id="link_Sale_Property"><path codeLine="171" d="M484.9561,324.74 C447.5061,342.34 398.4061,372.99 422.1461,405 C441.7861,431.49 525.1361,451.85 585.6161,463.5 " fill="none" id="Sale-Property" style="stroke:#181818;stroke-width:1.0;"/><polygon fill="#000000" points="424.2101,384.2145,427.1424,393.2617,431.9002,389.8103,424.2101,384.2145" style="stroke:#000000;stroke-width:1.0;"/><text fill="#000000" font-family="sans-serif" font-size="13" lengthAdjust="spacing" textLength="72" x="436.1461" y="392.7686">classified as</text><text fill="#000000" font-family="sans-serif" font-size="13" lengthAdjust="spacing" textLength="20" x="457.1402" y="340.3777">0..*</text><text fill="#000000" font-family="sans-serif" font-size="13" lengthAdjust="spacing" textLength="7" x="570.6345" y="459.1272">1</text></g><!--link Sale to Property--><g id="link_Sale_Property"><path codeLine="172" d="M532.9461,333.13 C542.7261,353.27 558.3061,382.44 576.1461,405 C584.2961,415.3 593.9961,425.46 603.6761,434.69 " fill="none" id="Sale-Property-1" style="stroke:#181818;stroke-width:1.0;"/><polygon fill="#000000" points="584.0035,392.3647,581.246,383.2627,576.4226,386.6219,584.0035,392.3647" style="stroke:#000000;stroke-width:1.0;"/><text fill="#000000" font-family="sans-serif" font-size="13" lengthAdjust="spacing" textLength="54" x="590.1461" y="392.7686">classifies</text><text fill="#000000" font-family="sans-serif" font-size="13" lengthAdjust="spacing" textLength="7" x="527.8167" y="353.0348">1</text><text fill="#000000" font-family="sans-serif" font-size="13" lengthAdjust="spacing" textLength="20" x="573.7984" y="424.3238">1..*</text></g><!--SRC=[ZLPDZzis4BthLn2-62ZWDEsn21Pmx0LI8DaOTP0xBOuamXIf3Abrj4d_UuSVacZ5RkABgU7ZSERDcv7iMUgE8szPQxGf6pGjC8Sz57RQwNXvvZKStQ208PIEwrhb0DjmOIvIrwpYoaAndhUKrE263fX1rvXYhQ1op1c6icuS4zAxaqPdpah5hTqwX_BKE_YxDFeeNu2zBXefW9KIIxexh5iWby8MnTf9Hw7jJSkbPX-C04N6u8WT57ULmPPzAzQCRGJO4cKNxbp_MnGHjAr1byEtWj5FYl17G5bh7e3-6SYtsWg1O6qmT8tHyDIt9y1YTYHQgQLro9t1tBiR7tQcRQMrv3PUvydvMCtMO2odnyzSKIqc_qTo2n-ufdBWbUq9tCNWUR6rKpAx-W1enslzJ_CMfeUE41qLQSTHK5QJtV6lASdHyWCJTzduUD5pBEzCRo5UVk8MMXzOu5it_2GTFobuRwfeixr-_DePssEM-vRquTeid_q55EchZavrtxu5WSQqTdhchhao73YIpkeZAHhixFazrs9SFtxfPPVVSa3J0Rga3ex0Ouca6tO40znJlRak8vKToZAB-T0OPshaNHEFKxZdJsQspiZ7jbDc068eumzhhkLB4E4_HYNsa5PFldGphge0usRNdvGimuazTpTZEd85MwrDJp7xH5DYcIMSdF2VfPK9zEoNrxj9276VX0_W9dwUHe49tnAoT9E167EmBT7e8KhjHNOxwjkCkKJx9-gFb5fcoMe7V9ILyilOCB69DFLXwVOznZQ-OY05JAkfnL8gRFN7YcqsuI-s3FkBAKEaWc3SiJUtW762B855CcV0l8C9teQLzKuNq5UlVbjDgY2akMZB7efYAGhsvZlXhmVF7KoOGxVthWRB_q2MS-O7Q0eyPPl5toa-sC197khzV15g0X7_Fkauo1RWKI84FlM3_Hq9uj4tmK75mUsN7goBLFhvjC25NWg5EKC41KEkYVbQBp5wvGJSPCvLaOHo9Ok76Hfu7SVOmXo7qZmg5iokHlIAl3SyC3jwMf8wZhI4V9Y1KHVJOBssXuaTDRnaSokUwMuPnxWlhXyxjWcCtSAFh28yIxZSGuqricK3ebUH__dLkEmt3nLGqHT6o3wU_ZdxHJvQxXMMuBL1-l0Gx3HuxpVKFvtzCt8oZe2nf-yeRBo6yYIsPzb6x6Rp_I6D7OeqZfzGZVGkpqrZjnH5c89izJfNI9wE7tkoafu2prM2t-kc2HvoyDForrr7z2zv_Wy0]--></g></svg>