<?xml version="1.0" encoding="us-ascii" standalone="no"?><svg xmlns="http://www.w3.org/2000/svg" xmlns:xlink="http://www.w3.org/1999/xlink" contentStyleType="text/css" height="417px" preserveAspectRatio="none" style="width:422px;height:417px;background:#FFFFFF;" version="1.1" viewBox="0 0 422 417" width="422px" zoomAndPan="magnify"><defs/><g><text fill="#000000" font-family="sans-serif" font-size="14" font-weight="bold" lengthAdjust="spacing" textLength="224" x="98.25" y="29.9659">System Sequence Diagram (SSD)</text><rect fill="#FFFFFF" height="191.2361" style="stroke:#181818;stroke-width:1.0;" width="10" x="49.5" y="134.1358"/><rect fill="#FFFFFF" height="31.706" style="stroke:#181818;stroke-width:1.0;" width="10" x="378.5" y="157.8419"/><rect fill="#FFFFFF" height="31.706" style="stroke:#181818;stroke-width:1.0;" width="10" x="378.5" y="221.2539"/><rect fill="#FFFFFF" height="31.706" style="stroke:#181818;stroke-width:1.0;" width="10" x="378.5" y="284.6659"/><line style="stroke:#181818;stroke-width:0.5;stroke-dasharray:5.0,5.0;" x1="54" x2="54" y1="124.1358" y2="334.3719"/><line style="stroke:#181818;stroke-width:0.5;stroke-dasharray:5.0,5.0;" x1="383.5" x2="383.5" y1="124.1358" y2="334.3719"/><text fill="#000000" font-family="sans-serif" font-size="14" lengthAdjust="spacing" textLength="93" x="5" y="120.0339">Administrator</text><ellipse cx="54.5" cy="53.5679" fill="#E3E3E3" rx="8" ry="8" style="stroke:#181818;stroke-width:0.5;"/><path d="M54.5,61.5679 L54.5,88.5679 M41.5,69.5679 L67.5,69.5679 M54.5,88.5679 L41.5,103.5679 M54.5,88.5679 L67.5,103.5679 " fill="none" style="stroke:#181818;stroke-width:0.5;"/><text fill="#000000" font-family="sans-serif" font-size="14" lengthAdjust="spacing" textLength="93" x="5" y="348.3379">Administrator</text><ellipse cx="54.5" cy="360.9398" fill="#E3E3E3" rx="8" ry="8" style="stroke:#181818;stroke-width:0.5;"/><path d="M54.5,368.9398 L54.5,395.9398 M41.5,376.9398 L67.5,376.9398 M54.5,395.9398 L41.5,410.9398 M54.5,395.9398 L67.5,410.9398 " fill="none" style="stroke:#181818;stroke-width:0.5;"/><rect fill="#E3E3E3" height="33.0679" rx="2.5" ry="2.5" style="stroke:#181818;stroke-width:0.5;" width="66" x="350.5" y="90.0679"/><text fill="#000000" font-family="sans-serif" font-size="14" lengthAdjust="spacing" textLength="52" x="357.5" y="112.0339">:System</text><rect fill="#E3E3E3" height="33.0679" rx="2.5" ry="2.5" style="stroke:#181818;stroke-width:0.5;" width="66" x="350.5" y="333.3719"/><text fill="#000000" font-family="sans-serif" font-size="14" lengthAdjust="spacing" textLength="52" x="357.5" y="355.3379">:System</text><rect fill="#FFFFFF" height="191.2361" style="stroke:#181818;stroke-width:1.0;" width="10" x="49.5" y="134.1358"/><rect fill="#FFFFFF" height="31.706" style="stroke:#181818;stroke-width:1.0;" width="10" x="378.5" y="157.8419"/><rect fill="#FFFFFF" height="31.706" style="stroke:#181818;stroke-width:1.0;" width="10" x="378.5" y="221.2539"/><rect fill="#FFFFFF" height="31.706" style="stroke:#181818;stroke-width:1.0;" width="10" x="378.5" y="284.6659"/><polygon fill="#181818" points="366.5,153.8419,376.5,157.8419,366.5,161.8419,370.5,157.8419" style="stroke:#181818;stroke-width:1.0;"/><line style="stroke:#181818;stroke-width:1.0;" x1="59.5" x2="372.5" y1="157.8419" y2="157.8419"/><text fill="#000000" font-family="sans-serif" font-size="13" font-weight="bold" lengthAdjust="spacing" textLength="7" x="66.5" y="152.0328">1</text><text fill="#000000" font-family="sans-serif" font-size="13" lengthAdjust="spacing" textLength="289" x="77.5" y="152.0328">asks to import information from a legacy system</text><polygon fill="#181818" points="70.5,185.5479,60.5,189.5479,70.5,193.5479,66.5,189.5479" style="stroke:#181818;stroke-width:1.0;"/><line style="stroke:#181818;stroke-width:1.0;stroke-dasharray:2.0,2.0;" x1="64.5" x2="382.5" y1="189.5479" y2="189.5479"/><text fill="#000000" font-family="sans-serif" font-size="13" font-weight="bold" lengthAdjust="spacing" textLength="7" x="76.5" y="183.7389">2</text><text fill="#000000" font-family="sans-serif" font-size="13" lengthAdjust="spacing" textLength="125" x="87.5" y="183.7389">shows list of CSV files</text><polygon fill="#181818" points="366.5,217.2539,376.5,221.2539,366.5,225.2539,370.5,221.2539" style="stroke:#181818;stroke-width:1.0;"/><line style="stroke:#181818;stroke-width:1.0;" x1="59.5" x2="372.5" y1="221.2539" y2="221.2539"/><text fill="#000000" font-family="sans-serif" font-size="13" font-weight="bold" lengthAdjust="spacing" textLength="7" x="66.5" y="215.4449">3</text><text fill="#000000" font-family="sans-serif" font-size="13" lengthAdjust="spacing" textLength="86" x="77.5" y="215.4449">selects CSV file</text><polygon fill="#181818" points="70.5,248.9599,60.5,252.9599,70.5,256.9599,66.5,252.9599" style="stroke:#181818;stroke-width:1.0;"/><line style="stroke:#181818;stroke-width:1.0;stroke-dasharray:2.0,2.0;" x1="64.5" x2="382.5" y1="252.9599" y2="252.9599"/><text fill="#000000" font-family="sans-serif" font-size="13" font-weight="bold" lengthAdjust="spacing" textLength="7" x="76.5" y="247.1509">4</text><text fill="#000000" font-family="sans-serif" font-size="13" lengthAdjust="spacing" textLength="120" x="87.5" y="247.1509">shows selected data</text><polygon fill="#181818" points="366.5,280.6659,376.5,284.6659,366.5,288.6659,370.5,284.6659" style="stroke:#181818;stroke-width:1.0;"/><line style="stroke:#181818;stroke-width:1.0;" x1="59.5" x2="372.5" y1="284.6659" y2="284.6659"/><text fill="#000000" font-family="sans-serif" font-size="13" font-weight="bold" lengthAdjust="spacing" textLength="7" x="66.5" y="278.8569">5</text><text fill="#000000" font-family="sans-serif" font-size="13" lengthAdjust="spacing" textLength="78" x="77.5" y="278.8569">submits data</text><polygon fill="#181818" points="70.5,312.3719,60.5,316.3719,70.5,320.3719,66.5,316.3719" style="stroke:#181818;stroke-width:1.0;"/><line style="stroke:#181818;stroke-width:1.0;stroke-dasharray:2.0,2.0;" x1="64.5" x2="382.5" y1="316.3719" y2="316.3719"/><text fill="#000000" font-family="sans-serif" font-size="13" font-weight="bold" lengthAdjust="spacing" textLength="7" x="76.5" y="310.5629">6</text><text fill="#000000" font-family="sans-serif" font-size="13" lengthAdjust="spacing" textLength="148" x="87.5" y="310.5629">shows operation success</text><!--SRC=[dL0xRiCm3Drr2i9JE-G27WeKpGqCT6TasY4iYQv8D_3jg_Y70cs7b1CbydtuTE0qOiO8KPBuQvP8O7aYfyTaH3zWJutDWI2JDqnz-BwWLspbngc73eEISyPMLfjPZI8qz35HyWHdnlw-_jGqvsVdS399KxnGBhqtoL2zjf4JgsKipmfG0Uy_hiWOUnun6LJrohkCrtR1yoSQRViEIYqjd5vs7tK130ecm76KRC2fanpHM19qvN102DIZdq5NseLbPzwbOAkDzLG4LgMwv20tXL0E0EdWhNc7ZWFf0cdfLwQV9fL2YLWF-3zTh3JKGek63pgOBf6BWmFvkBgCbDTWTVAUzAyClW00]--></g></svg>