<?xml version="1.0" encoding="us-ascii" standalone="no"?><svg xmlns="http://www.w3.org/2000/svg" xmlns:xlink="http://www.w3.org/1999/xlink" contentStyleType="text/css" height="856.8px" preserveAspectRatio="none" style="width:664px;height:856px;background:#FFFFFF;" version="1.1" viewBox="0 0 664 856" width="664px" zoomAndPan="magnify"><defs/><g><text fill="#000000" font-family="sans-serif" font-size="11.2" font-weight="bold" lengthAdjust="spacing" textLength="111.2" x="271" y="18.1391">Domain Model US15</text><!--class Client--><g id="elem_Client"><rect codeLine="13" fill="#F1F1F1" height="26.9125" id="Client" rx="2" ry="2" style="stroke:#181818;stroke-width:0.4000000000000001;" width="33.6" x="233.2" y="216.9125"/><text fill="#000000" font-family="sans-serif" font-size="11.2" lengthAdjust="spacing" textLength="28.8" x="235.6" y="231.0516">Client</text><line style="stroke:#181818;stroke-width:0.4000000000000001;" x1="234" x2="266" y1="237.425" y2="237.425"/></g><!--class Visit--><g id="elem_Visit"><rect codeLine="15" fill="#F1F1F1" height="39.425" id="Visit" rx="2" ry="2" style="stroke:#181818;stroke-width:0.4000000000000001;" width="52.8" x="454.8" y="210.9125"/><text fill="#000000" font-family="sans-serif" font-size="11.2" lengthAdjust="spacing" textLength="20.8" x="470.8" y="225.0516">Visit</text><line style="stroke:#181818;stroke-width:0.4000000000000001;" x1="455.6" x2="506.8" y1="231.425" y2="231.425"/><text fill="#000000" font-family="sans-serif" font-size="11.2" lengthAdjust="spacing" textLength="43.2" x="459.6" y="244.7641">visitDate</text></g><!--class BookingRequest--><g id="elem_BookingRequest"><rect codeLine="18" fill="#F1F1F1" height="39.425" id="BookingRequest" rx="2" ry="2" style="stroke:#181818;stroke-width:0.4000000000000001;" width="88" x="390" y="310.9125"/><text fill="#000000" font-family="sans-serif" font-size="11.2" lengthAdjust="spacing" textLength="83.2" x="392.4" y="325.0516">BookingRequest</text><line style="stroke:#181818;stroke-width:0.4000000000000001;" x1="390.8" x2="477.2" y1="331.425" y2="331.425"/><text fill="#000000" font-family="sans-serif" font-size="11.2" lengthAdjust="spacing" textLength="75.2" x="394.8" y="344.7641">requestedDate</text></g><!--class Property--><g id="elem_Property"><rect codeLine="22" fill="#F1F1F1" height="64.45" id="Property" rx="2" ry="2" style="stroke:#181818;stroke-width:0.4000000000000001;" width="104.8" x="381.6" y="410.9125"/><text fill="#000000" font-family="sans-serif" font-size="11.2" lengthAdjust="spacing" textLength="43.2" x="412.4" y="425.0516">Property</text><line style="stroke:#181818;stroke-width:0.4000000000000001;" x1="382.4" x2="485.6" y1="431.425" y2="431.425"/><text fill="#000000" font-family="sans-serif" font-size="11.2" lengthAdjust="spacing" textLength="23.2" x="386.4" y="444.7641">area</text><text fill="#000000" font-family="sans-serif" font-size="11.2" lengthAdjust="spacing" textLength="95.2" x="386.4" y="457.2766">cityCenterDistance</text><text fill="#000000" font-family="sans-serif" font-size="11.2" lengthAdjust="spacing" textLength="24.8" x="386.4" y="469.7891">price</text></g><!--class OrganizationRole--><g id="elem_OrganizationRole"><rect codeLine="27" fill="#F1F1F1" height="39.425" id="OrganizationRole" rx="2" ry="2" style="stroke:#181818;stroke-width:0.4000000000000001;" width="92" x="5.6" y="34.9125"/><text fill="#000000" font-family="sans-serif" font-size="11.2" lengthAdjust="spacing" textLength="87.2" x="8" y="49.0516">OrganizationRole</text><line style="stroke:#181818;stroke-width:0.4000000000000001;" x1="6.4" x2="96.8" y1="55.425" y2="55.425"/><text fill="#000000" font-family="sans-serif" font-size="11.2" lengthAdjust="spacing" textLength="48" x="10.4" y="68.7641">roleName</text></g><!--class House--><g id="elem_House"><rect codeLine="31" fill="#F1F1F1" height="64.45" id="House" rx="2" ry="2" style="stroke:#181818;stroke-width:0.4000000000000001;" width="84" x="408.8" y="692.9125"/><text fill="#000000" font-family="sans-serif" font-size="11.2" lengthAdjust="spacing" textLength="32" x="434.8" y="707.0516">House</text><line style="stroke:#181818;stroke-width:0.4000000000000001;" x1="409.6" x2="492" y1="713.425" y2="713.425"/><text fill="#000000" font-family="sans-serif" font-size="11.2" lengthAdjust="spacing" textLength="49.6" x="413.6" y="726.7641">basement</text><text fill="#000000" font-family="sans-serif" font-size="11.2" lengthAdjust="spacing" textLength="74.4" x="413.6" y="739.2766">inhabitableLoft</text><text fill="#000000" font-family="sans-serif" font-size="11.2" lengthAdjust="spacing" textLength="65.6" x="413.6" y="751.7891">sunExposure</text></g><!--class Dwelling--><g id="elem_Dwelling"><rect codeLine="39" fill="#F1F1F1" height="64.45" id="Dwelling" rx="2" ry="2" style="stroke:#181818;stroke-width:0.4000000000000001;" width="107.2" x="397.2" y="548.9125"/><text fill="#000000" font-family="sans-serif" font-size="11.2" lengthAdjust="spacing" textLength="41.6" x="430" y="563.0516">Dwelling</text><line style="stroke:#181818;stroke-width:0.4000000000000001;" x1="398" x2="503.6" y1="569.425" y2="569.425"/><text fill="#000000" font-family="sans-serif" font-size="11.2" lengthAdjust="spacing" textLength="72.8" x="402" y="582.7641">numBedrooms</text><text fill="#000000" font-family="sans-serif" font-size="11.2" lengthAdjust="spacing" textLength="76" x="402" y="595.2766">numBathrooms</text><text fill="#000000" font-family="sans-serif" font-size="11.2" lengthAdjust="spacing" textLength="97.6" x="402" y="607.7891">numParkingSpaces</text></g><!--class Equipment--><g id="elem_Equipment"><rect codeLine="47" fill="#F1F1F1" height="51.9375" id="Equipment" rx="2" ry="2" style="stroke:#181818;stroke-width:0.4000000000000001;" width="85.6" x="520.8" y="699.3125"/><text fill="#000000" font-family="sans-serif" font-size="11.2" lengthAdjust="spacing" textLength="53.6" x="536.8" y="713.4516">Equipment</text><line style="stroke:#181818;stroke-width:0.4000000000000001;" x1="521.6" x2="605.6" y1="719.825" y2="719.825"/><text fill="#000000" font-family="sans-serif" font-size="11.2" lengthAdjust="spacing" textLength="72.8" x="525.6" y="733.1641">centralHeating</text><text fill="#000000" font-family="sans-serif" font-size="11.2" lengthAdjust="spacing" textLength="76" x="525.6" y="745.6766">airConditioning</text></g><!--class PropertyType--><g id="elem_PropertyType"><rect codeLine="51" fill="#F1F1F1" height="39.425" id="PropertyType" rx="2" ry="2" style="stroke:#181818;stroke-width:0.4000000000000001;" width="77.6" x="192" y="310.9125"/><text fill="#000000" font-family="sans-serif" font-size="11.2" lengthAdjust="spacing" textLength="68.8" x="196.4" y="325.0516">PropertyType</text><line style="stroke:#181818;stroke-width:0.4000000000000001;" x1="192.8" x2="268.8" y1="331.425" y2="331.425"/><text fill="#000000" font-family="sans-serif" font-size="11.2" lengthAdjust="spacing" textLength="68" x="196.8" y="344.7641">propertyType</text></g><!--class Agency--><g id="elem_Agency"><rect codeLine="55" fill="#F1F1F1" height="76.9625" id="Agency" rx="2" ry="2" style="stroke:#181818;stroke-width:0.4000000000000001;" width="80.8" x="234.4" y="686.9125"/><text fill="#000000" font-family="sans-serif" font-size="11.2" lengthAdjust="spacing" textLength="37.6" x="256" y="701.0516">Agency</text><line style="stroke:#181818;stroke-width:0.4000000000000001;" x1="235.2" x2="314.4" y1="707.425" y2="707.425"/><text fill="#000000" font-family="sans-serif" font-size="11.2" lengthAdjust="spacing" textLength="8.8" x="239.2" y="720.7641">id</text><text fill="#000000" font-family="sans-serif" font-size="11.2" lengthAdjust="spacing" textLength="58.4" x="239.2" y="733.2766">designation</text><text fill="#000000" font-family="sans-serif" font-size="11.2" lengthAdjust="spacing" textLength="68" x="239.2" y="745.7891">emailAddress</text><text fill="#000000" font-family="sans-serif" font-size="11.2" lengthAdjust="spacing" textLength="71.2" x="239.2" y="758.3016">phoneNumber</text></g><!--class Address--><g id="elem_Address"><rect codeLine="61" fill="#F1F1F1" height="89.475" id="Address" rx="2" ry="2" style="stroke:#181818;stroke-width:0.4000000000000001;" width="78.4" x="268.4" y="536.5125"/><text fill="#000000" font-family="sans-serif" font-size="11.2" lengthAdjust="spacing" textLength="41.6" x="286.8" y="550.6516">Address</text><line style="stroke:#181818;stroke-width:0.4000000000000001;" x1="269.2" x2="346" y1="557.025" y2="557.025"/><text fill="#000000" font-family="sans-serif" font-size="11.2" lengthAdjust="spacing" textLength="28.8" x="273.2" y="570.3641">street</text><text fill="#000000" font-family="sans-serif" font-size="11.2" lengthAdjust="spacing" textLength="45.6" x="273.2" y="582.8766">cityName</text><text fill="#000000" font-family="sans-serif" font-size="11.2" lengthAdjust="spacing" textLength="61.6" x="273.2" y="595.3891">districtName</text><text fill="#000000" font-family="sans-serif" font-size="11.2" lengthAdjust="spacing" textLength="68.8" x="273.2" y="607.9016">stateAcronym</text><text fill="#000000" font-family="sans-serif" font-size="11.2" lengthAdjust="spacing" textLength="40.8" x="273.2" y="620.4141">zipCode</text></g><!--class Photograph--><g id="elem_Photograph"><rect codeLine="68" fill="#F1F1F1" height="39.425" id="Photograph" rx="2" ry="2" style="stroke:#181818;stroke-width:0.4000000000000001;" width="64" x="298" y="310.9125"/><text fill="#000000" font-family="sans-serif" font-size="11.2" lengthAdjust="spacing" textLength="59.2" x="300.4" y="325.0516">Photograph</text><line style="stroke:#181818;stroke-width:0.4000000000000001;" x1="298.8" x2="361.2" y1="331.425" y2="331.425"/><text fill="#000000" font-family="sans-serif" font-size="11.2" lengthAdjust="spacing" textLength="49.6" x="302.8" y="344.7641">photoLink</text></g><!--class Employee--><g id="elem_Employee"><rect fill="#F1F1F1" height="26.9125" id="Employee" rx="2" ry="2" style="stroke:#181818;stroke-width:0.4000000000000001;" width="54.4" x="150" y="824.5125"/><text fill="#000000" font-family="sans-serif" font-size="11.2" lengthAdjust="spacing" textLength="49.6" x="152.4" y="838.6516">Employee</text><line style="stroke:#181818;stroke-width:0.4000000000000001;" x1="150.8" x2="203.6" y1="845.025" y2="845.025"/></g><!--class Agent--><g id="elem_Agent"><rect fill="#F1F1F1" height="26.9125" id="Agent" rx="2" ry="2" style="stroke:#181818;stroke-width:0.4000000000000001;" width="34.4" x="356" y="122.9125"/><text fill="#000000" font-family="sans-serif" font-size="11.2" lengthAdjust="spacing" textLength="29.6" x="358.4" y="137.0516">Agent</text><line style="stroke:#181818;stroke-width:0.4000000000000001;" x1="356.8" x2="389.6" y1="143.425" y2="143.425"/></g><!--class Person--><g id="elem_Person"><rect fill="#F1F1F1" height="26.9125" id="Person" rx="2" ry="2" style="stroke:#181818;stroke-width:0.4000000000000001;" width="40.8" x="129.6" y="711.7125"/><text fill="#000000" font-family="sans-serif" font-size="11.2" lengthAdjust="spacing" textLength="36" x="132" y="725.8516">Person</text><line style="stroke:#181818;stroke-width:0.4000000000000001;" x1="130.4" x2="169.6" y1="732.225" y2="732.225"/></g><!--link Address to Agency--><g id="link_Address_Agency"><path codeLine="77" d="M289.752,626.2725 C287.08,634.1125 284.624,642.2805 282.8,650.1125 C280.064,661.8805 278.264,674.9205 277.072,686.7445 " fill="none" id="Address-Agency" style="stroke:#181818;stroke-width:0.8000000000000002;"/><polygon fill="#000000" points="287.6209,652.807,283.8348,659.4066,288.437,660.3716,287.6209,652.807" style="stroke:#000000;stroke-width:0.8000000000000002;"/><text fill="#000000" font-family="sans-serif" font-size="10.4" lengthAdjust="spacing" textLength="45.6" x="294" y="660.3273">located at</text><text fill="#000000" font-family="sans-serif" font-size="10.4" lengthAdjust="spacing" textLength="5.6" x="281.6355" y="641.8825">1</text><text fill="#000000" font-family="sans-serif" font-size="10.4" lengthAdjust="spacing" textLength="5.6" x="271.3912" y="678.2157">1</text></g><!--link Address to Agency--><g id="link_Address_Agency"><path codeLine="87" d="M341.456,626.1525 C346.744,638.0805 348.928,650.9925 343.6,662.9125 C337.52,676.5285 326.776,688.3765 315.56,697.9525 " fill="none" id="Address-Agency-1" style="stroke:#181818;stroke-width:0.8000000000000002;"/><polygon fill="#000000" points="351.3571,652.9591,346.6904,658.9683,351.1138,660.5637,351.3571,652.9591" style="stroke:#000000;stroke-width:0.8000000000000002;"/><text fill="#000000" font-family="sans-serif" font-size="10.4" lengthAdjust="spacing" textLength="45.6" x="357.2" y="660.3273">located at</text><text fill="#000000" font-family="sans-serif" font-size="10.4" lengthAdjust="spacing" textLength="5.6" x="339.641" y="641.7479">1</text><text fill="#000000" font-family="sans-serif" font-size="10.4" lengthAdjust="spacing" textLength="5.6" x="321.6856" y="691.5504">1</text></g><!--link Agency to Employee--><g id="link_Agency_Employee"><path codeLine="78" d="M234.272,756.6725 C223.528,765.9205 212.464,776.5925 203.6,787.7125 C194.6,799.0005 187.184,813.8165 182.528,824.3045 " fill="none" id="Agency-Employee" style="stroke:#181818;stroke-width:0.8000000000000002;"/><polygon fill="#000000" points="205.1694,797.4987,211.4337,793.1804,207.6991,790.3231,205.1694,797.4987" style="stroke:#000000;stroke-width:0.8000000000000002;"/><text fill="#000000" font-family="sans-serif" font-size="10.4" lengthAdjust="spacing" textLength="24" x="214.8" y="797.9273">owns</text><text fill="#000000" font-family="sans-serif" font-size="10.4" lengthAdjust="spacing" textLength="5.6" x="222.3082" y="758.6897">1</text><text fill="#000000" font-family="sans-serif" font-size="10.4" lengthAdjust="spacing" textLength="16" x="165.6095" y="815.9692">1..*</text></g><!--link Agency to Employee--><g id="link_Agency_Employee"><path codeLine="94" d="M263.96,764.0645 C259.008,776.6965 252.112,790.1685 242.8,800.5125 C232.4,812.0645 217.496,820.8245 204.52,826.8965 " fill="none" id="Agency-Employee-1" style="stroke:#181818;stroke-width:0.8000000000000002;"/><polygon fill="#000000" points="253.6511,797.2276,260.3319,793.5868,256.9159,790.3553,253.6511,797.2276" style="stroke:#000000;stroke-width:0.8000000000000002;"/><text fill="#000000" font-family="sans-serif" font-size="10.4" lengthAdjust="spacing" textLength="24" x="263.6" y="797.9273">owns</text><text fill="#000000" font-family="sans-serif" font-size="10.4" lengthAdjust="spacing" textLength="5.6" x="256.4419" y="779.7344">1</text><text fill="#000000" font-family="sans-serif" font-size="10.4" lengthAdjust="spacing" textLength="16" x="210.8114" y="822.1789">1..*</text></g><!--link PropertyType to Property--><g id="link_PropertyType_Property"><path codeLine="79" d="M245.808,350.1525 C256.072,362.0245 270.584,376.9365 286,386.9125 C315.272,405.8485 351.92,419.6805 381.432,428.8085 " fill="none" id="PropertyType-Property" style="stroke:#181818;stroke-width:0.8000000000000002;"/><polygon fill="#000000" points="286.5398,378.7151,291.6198,384.3792,293.9789,380.3115,286.5398,378.7151" style="stroke:#000000;stroke-width:0.8000000000000002;"/><text fill="#000000" font-family="sans-serif" font-size="10.4" lengthAdjust="spacing" textLength="68" x="297.2" y="384.3273">categorized by</text><text fill="#000000" font-family="sans-serif" font-size="10.4" lengthAdjust="spacing" textLength="5.6" x="243.3363" y="366.0599">1</text><text fill="#000000" font-family="sans-serif" font-size="10.4" lengthAdjust="spacing" textLength="16" x="359.1859" y="424.9898">1..*</text></g><!--link Client to BookingRequest--><g id="link_Client_BookingRequest"><path codeLine="80" d="M258.544,244.1605 C267.552,256.7525 282.848,275.6645 300.4,286.9125 C330.216,306.0325 342.672,300.0805 376.4,310.9125 C380.808,312.3285 385.4,313.8085 389.984,315.2965 " fill="none" id="Client-BookingRequest" style="stroke:#181818;stroke-width:0.8000000000000002;"/><polygon fill="#000000" points="307.9178,282.6258,302.6731,277.1139,300.4349,281.2493,307.9178,282.6258" style="stroke:#000000;stroke-width:0.8000000000000002;"/><text fill="#000000" font-family="sans-serif" font-size="10.4" lengthAdjust="spacing" textLength="40" x="311.6" y="284.3273">requests</text><text fill="#000000" font-family="sans-serif" font-size="10.4" lengthAdjust="spacing" textLength="5.6" x="254.7031" y="259.5782">1</text><text fill="#000000" font-family="sans-serif" font-size="10.4" lengthAdjust="spacing" textLength="16" x="368.4291" y="310.5867">1..*</text></g><!--link Agent to Visit--><g id="link_Agent_Visit"><path codeLine="81" d="M388.216,150.1605 C406.648,165.9285 438.056,192.8005 459.208,210.8965 " fill="none" id="Agent-Visit" style="stroke:#181818;stroke-width:0.8000000000000002;"/><polygon fill="#000000" points="437.0394,183.3222,433.0695,176.8316,430.0126,180.4047,437.0394,183.3222" style="stroke:#000000;stroke-width:0.8000000000000002;"/><text fill="#000000" font-family="sans-serif" font-size="10.4" lengthAdjust="spacing" textLength="47.2" x="441.2" y="184.3273">schedules</text><text fill="#000000" font-family="sans-serif" font-size="10.4" lengthAdjust="spacing" textLength="5.6" x="386.3572" y="165.5782">1</text><text fill="#000000" font-family="sans-serif" font-size="10.4" lengthAdjust="spacing" textLength="16" x="435.1477" y="202.3606">1..*</text></g><!--link Agent to BookingRequest--><g id="link_Agent_BookingRequest"><path codeLine="82" d="M373.192,150.2005 C373.544,171.5525 375.792,215.3445 387.6,250.1125 C395.16,272.3765 409.336,295.3205 420.04,310.8165 " fill="none" id="Agent-BookingRequest" style="stroke:#181818;stroke-width:0.8000000000000002;"/><polygon fill="#000000" points="392.72,234.5619,392.951,226.9569,388.4368,228.2736,392.72,234.5619" style="stroke:#000000;stroke-width:0.8000000000000002;"/><text fill="#000000" font-family="sans-serif" font-size="10.4" lengthAdjust="spacing" textLength="41.6" x="398.8" y="234.3273">views list</text><text fill="#000000" font-family="sans-serif" font-size="10.4" lengthAdjust="spacing" textLength="5.6" x="366.7321" y="165.6304">1</text><text fill="#000000" font-family="sans-serif" font-size="10.4" lengthAdjust="spacing" textLength="16" x="398.1383" y="302.2591">1..*</text></g><!--link Visit to BookingRequest--><g id="link_Visit_BookingRequest"><path codeLine="83" d="M472.096,250.2885 C463.744,267.7125 451.424,293.3925 443.072,310.8005 " fill="none" id="Visit-BookingRequest" style="stroke:#181818;stroke-width:0.8000000000000002;"/><polygon fill="#000000" points="466.1299,277.1153,460.8806,282.6229,465.1204,284.6565,466.1299,277.1153" style="stroke:#000000;stroke-width:0.8000000000000002;"/><text fill="#000000" font-family="sans-serif" font-size="10.4" lengthAdjust="spacing" textLength="35.2" x="471.6" y="284.3273">turns to</text><text fill="#000000" font-family="sans-serif" font-size="10.4" lengthAdjust="spacing" textLength="5.6" x="463.4456" y="266.2308">1</text><text fill="#000000" font-family="sans-serif" font-size="10.4" lengthAdjust="spacing" textLength="5.6" x="439.1576" y="302.2388">1</text></g><!--link BookingRequest to Property--><g id="link_BookingRequest_Property"><path codeLine="84" d="M434,350.1765 C434,366.7845 434,391.3045 434,410.9045 " fill="none" id="BookingRequest-Property" style="stroke:#181818;stroke-width:0.8000000000000002;"/><polygon fill="#000000" points="438,384.7219,440.3511,377.4858,435.6489,377.4858,438,384.7219" style="stroke:#000000;stroke-width:0.8000000000000002;"/><text fill="#000000" font-family="sans-serif" font-size="10.4" lengthAdjust="spacing" textLength="37.6" x="445.2" y="384.3273">refers to</text><text fill="#000000" font-family="sans-serif" font-size="10.4" lengthAdjust="spacing" textLength="5.6" x="427.6825" y="366.0901">1</text><text fill="#000000" font-family="sans-serif" font-size="10.4" lengthAdjust="spacing" textLength="5.6" x="427.9013" y="402.4176">1</text></g><!--link Agent to Person--><g id="link_Agent_Person"><path codeLine="85" d="M355.848,139.1925 C294.624,146.2885 92.4,173.9685 92.4,229.7125 C92.4,229.7125 92.4,229.7125 92.4,582.1125 C92.4,624.8885 115.016,669.9685 131.904,697.6725 " fill="none" id="Agent-to-Person" style="stroke:#181818;stroke-width:0.8000000000000002;"/><polygon fill="none" points="136.84,694.9925,140.744,711.4885,127.408,701.0245,136.84,694.9925" style="stroke:#181818;stroke-width:0.8000000000000002;"/></g><!--link Address to Person--><g id="link_Address_Person"><path codeLine="86" d="M268.304,608.7605 C251.688,620.6885 232.496,635.3765 216.4,650.1125 C194.696,669.9925 172.536,696.2725 160.096,711.6965 " fill="none" id="Address-Person" style="stroke:#181818;stroke-width:0.8000000000000002;"/><polygon fill="#000000" points="223.2981,653.9649,216.4349,657.2488,219.6758,660.6558,223.2981,653.9649" style="stroke:#000000;stroke-width:0.8000000000000002;"/><text fill="#000000" font-family="sans-serif" font-size="10.4" lengthAdjust="spacing" textLength="45.6" x="227.6" y="660.3273">located at</text><text fill="#000000" font-family="sans-serif" font-size="10.4" lengthAdjust="spacing" textLength="5.6" x="256.5212" y="610.2242">1</text><text fill="#000000" font-family="sans-serif" font-size="10.4" lengthAdjust="spacing" textLength="5.6" x="157.0952" y="703.1914">1</text></g><!--link Agent to Property--><g id="link_Agent_Property"><path codeLine="88" d="M390.568,138.9765 C415.792,142.1365 463.096,150.8965 495.6,174.1125 C517.488,189.7525 572.8,255.0245 590,310.9125 C595.128,327.5605 598.624,334.9765 590,350.1125 C567.944,388.8085 522.608,412.9605 486.472,426.8165 " fill="none" id="Agent-Property" style="stroke:#181818;stroke-width:0.8000000000000002;"/><polygon fill="#000000" points="584.8644,284.5168,584.8077,276.9085,580.3465,278.3949,584.8644,284.5168" style="stroke:#000000;stroke-width:0.8000000000000002;"/><text fill="#000000" font-family="sans-serif" font-size="10.4" lengthAdjust="spacing" textLength="67.2" x="590.8" y="284.3273">responsible for</text><text fill="#000000" font-family="sans-serif" font-size="10.4" lengthAdjust="spacing" textLength="5.6" x="396.7445" y="136.3391">1</text><text fill="#000000" font-family="sans-serif" font-size="10.4" lengthAdjust="spacing" textLength="16" x="492.7082" y="422.7923">1..*</text></g><!--link Visit to Property--><g id="link_Visit_Property"><path codeLine="90" d="M499.896,250.1685 C505.56,257.1125 511.056,265.4245 514,274.1125 C525.184,307.0885 546.52,286.3925 490,386.9125 C485.232,395.3925 478.8,403.4405 472,410.6565 " fill="none" id="Visit-Property" style="stroke:#181818;stroke-width:0.8000000000000002;"/><polygon fill="#000000" points="529.315,334.6628,532.8706,327.9363,528.2378,327.131,529.315,334.6628" style="stroke:#000000;stroke-width:0.8000000000000002;"/><text fill="#000000" font-family="sans-serif" font-size="10.4" lengthAdjust="spacing" textLength="45.6" x="537.2" y="334.3273">located at</text><text fill="#000000" font-family="sans-serif" font-size="10.4" lengthAdjust="spacing" textLength="5.6" x="498.3694" y="266.08">1</text><text fill="#000000" font-family="sans-serif" font-size="10.4" lengthAdjust="spacing" textLength="5.6" x="472.45" y="402.3622">1</text></g><!--reverse link Person to Client--><g id="link_Person_Client"><path codeLine="91" d="M149.744,695.4405 C149.504,666.6565 149.2,621.3445 149.2,582.1125 C149.2,329.7125 149.2,329.7125 149.2,329.7125 C149.2,283.3685 204.432,251.7205 233.128,238.4005 " fill="none" id="Person-backto-Client" style="stroke:#181818;stroke-width:0.8000000000000002;"/><polygon fill="none" points="155.344,695.5045,149.88,711.5525,144.144,695.6005,155.344,695.5045" style="stroke:#181818;stroke-width:0.8000000000000002;"/></g><!--reverse link Person to Employee--><g id="link_Person_Employee"><path codeLine="92" d="M157,754.7365 C162.504,777.2165 169.904,807.4725 174.048,824.4245 " fill="none" id="Person-backto-Employee" style="stroke:#181818;stroke-width:0.8000000000000002;"/><polygon fill="none" points="151.536,755.9605,153.176,739.0885,162.416,753.2965,151.536,755.9605" style="stroke:#181818;stroke-width:0.8000000000000002;"/></g><!--reverse link OrganizationRole to Agent--><g id="link_OrganizationRole_Agent"><path codeLine="93" d="M113.392,70.7605 C188.448,89.5205 310.624,120.0725 355.744,131.3445 " fill="none" id="OrganizationRole-backto-Agent" style="stroke:#181818;stroke-width:0.8000000000000002;"/><polygon fill="none" points="111.84,76.1445,97.68,66.8325,114.56,65.2805,111.84,76.1445" style="stroke:#181818;stroke-width:0.8000000000000002;"/></g><!--link OrganizationRole to Employee--><g id="link_OrganizationRole_Employee"><path codeLine="95" d="M45.64,74.2725 C41.096,90.4325 35.6,114.3605 35.6,135.7125 C35.6,135.7125 35.6,135.7125 35.6,726.1125 C35.6,783.6245 108.752,815.9125 149.896,829.5205 " fill="none" id="OrganizationRole-Employee" style="stroke:#181818;stroke-width:0.8000000000000002;"/><polygon fill="#000000" points="39.053,376.7595,37.7135,384.2491,42.3716,383.606,39.053,376.7595" style="stroke:#000000;stroke-width:0.8000000000000002;"/><text fill="#000000" font-family="sans-serif" font-size="10.4" lengthAdjust="spacing" textLength="24.8" x="46.8" y="384.3273">plays</text><text fill="#000000" font-family="sans-serif" font-size="10.4" lengthAdjust="spacing" textLength="16" x="26.0628" y="90.2107">1..*</text><text fill="#000000" font-family="sans-serif" font-size="10.4" lengthAdjust="spacing" textLength="5.6" x="138.0871" y="824.8811">1</text></g><!--reverse link Property to Dwelling--><g id="link_Property_Dwelling"><path codeLine="96" d="M439.888,491.8965 C442.208,510.7525 444.816,531.9045 446.896,548.8085 " fill="none" id="Property-backto-Dwelling" style="stroke:#181818;stroke-width:0.8000000000000002;"/><polygon fill="none" points="434.296,492.3125,437.896,475.7445,445.408,490.9445,434.296,492.3125" style="stroke:#181818;stroke-width:0.8000000000000002;"/></g><!--link Photograph to Property--><g id="link_Photograph_Property"><path codeLine="97" d="M347.64,350.1765 C363.176,366.7845 386.104,391.3045 404.44,410.9045 " fill="none" id="Photograph-Property" style="stroke:#181818;stroke-width:0.8000000000000002;"/><polygon fill="#000000" points="383.2676,377.8005,386.4934,384.6913,389.9276,381.4792,383.2676,377.8005" style="stroke:#000000;stroke-width:0.8000000000000002;"/><text fill="#000000" font-family="sans-serif" font-size="10.4" lengthAdjust="spacing" textLength="16.8" x="393.2" y="384.3273">has</text><text fill="#000000" font-family="sans-serif" font-size="10.4" lengthAdjust="spacing" textLength="16" x="334.1103" y="366.0901">1..*</text><text fill="#000000" font-family="sans-serif" font-size="10.4" lengthAdjust="spacing" textLength="5.6" x="393.0759" y="402.4176">1</text></g><!--link Dwelling to Equipment--><g id="link_Dwelling_Equipment"><path codeLine="98" d="M475.832,613.7125 C496.216,639.4405 524.608,675.2885 543.52,699.1605 " fill="none" id="Dwelling-Equipment" style="stroke:#181818;stroke-width:0.8000000000000002;"/><polygon fill="#000000" points="519.6838,659.8573,517.0336,652.7253,513.3476,655.6452,519.6838,659.8573" style="stroke:#000000;stroke-width:0.8000000000000002;"/><text fill="#000000" font-family="sans-serif" font-size="10.4" lengthAdjust="spacing" textLength="16.8" x="524.4" y="660.3273">has</text><text fill="#000000" font-family="sans-serif" font-size="10.4" lengthAdjust="spacing" textLength="5.6" x="473.7752" y="629.2449">1</text><text fill="#000000" font-family="sans-serif" font-size="10.4" lengthAdjust="spacing" textLength="16" x="521.7285" y="690.8761">1..*</text></g><!--reverse link Dwelling to House--><g id="link_Dwelling_House"><path codeLine="99" d="M450.8,629.8725 C450.8,650.5765 450.8,674.2565 450.8,692.7525 " fill="none" id="Dwelling-backto-House" style="stroke:#181818;stroke-width:0.8000000000000002;"/><polygon fill="none" points="445.2,629.7125,450.8,613.7125,456.4,629.7125,445.2,629.7125" style="stroke:#181818;stroke-width:0.8000000000000002;"/></g><!--link Property to Address--><g id="link_Property_Address"><path codeLine="100" d="M399.952,475.9125 C392.072,483.5605 383.824,491.8085 376.4,499.7125 C365.488,511.3285 354.096,524.3205 343.792,536.4325 " fill="none" id="Property-Address" style="stroke:#181818;stroke-width:0.8000000000000002;"/><polygon fill="#000000" points="377.6792,509.2539,384.3246,505.549,380.8778,502.3505,377.6792,509.2539" style="stroke:#000000;stroke-width:0.8000000000000002;"/><text fill="#000000" font-family="sans-serif" font-size="10.4" lengthAdjust="spacing" textLength="45.6" x="387.6" y="509.9273">located at</text><text fill="#000000" font-family="sans-serif" font-size="10.4" lengthAdjust="spacing" textLength="5.6" x="388.7097" y="491.2356">1</text><text fill="#000000" font-family="sans-serif" font-size="10.4" lengthAdjust="spacing" textLength="5.6" x="342.6791" y="527.9006">1</text></g><!--SRC=[bLHDJnin4BtxLrWvLWegXruGGWe94fKeHQJjtV5ETYsy7cDxIPV2V- -ixKtC1gHsBpkUUVFcq_OFobZXHCjRD2WRXotmu3fWVc-nGZw86jQXry0To21ChKk0RqI5EsLglXNQ0ojCKWll5o4ujUa2V9LerkeP-6V66bK1byf9eefo2w71oZCMLA10Aso5ClmRLg3vp_Nf5yPOPEDBhS24yVHBUHN-C4xVqo2kH03scesNY9HAVG-F7VZ02UQI25N6PU2TGmikz8b8E11Ha2hqIme6RgKyrIqXggrJyX3akwk5KSyYA3Jtg25nE99kHLl4kCREP-D6U6Y78eQ3CetOg20s6cvmctI-CrU_BVhEHOAHOhK3hQcWn6AwzX8gXzZw_Lc4vetYJhYX0siQ8lYIwkgnKtR88N59afpGrq1bc3frGRabcaeDTGswrqclVlGsbsCBpQ7UHGr6vewgAlugyAesiLFn33HZlQWg1pvbR1iqSDkr6t3xUDcUY7nm064_dDZXo4ppeQc4lOB65M0X7Pg-ZOfdPPUqJ8So6WnOEs4RsWix76wKUKWjeYz7vRFJ6P_FuoyLnC-uHada5HU1dxEitUDEJZxD-5LhDVO01CQTyVo2bLsRW4SJWGVU6XtTaOflUc9FopvncAprsRZLGvmXdIa-tX62UTb0rMdu27V4-wHWvxcctf97OYdwSGGFdQDQ0rBU4rlXLLJhO0ikEepvpESl5_oEbBGWxqmWMOucy3-Z2XytdqWi6g_e8l8jEahgkEO2Nb3JU5Dcvo-4omzKgHhtWKqVYsIEYVth9XrHP6JEi72mMlIUwjud7OEDZmWhRi1RYjdeC2EIHWmKezCqk_4LoS2B0p36Yc_U8NuveJoqIH_ZznS0]--></g></svg>