<?xml version="1.0" encoding="us-ascii" standalone="no"?><svg xmlns="http://www.w3.org/2000/svg" xmlns:xlink="http://www.w3.org/1999/xlink" contentStyleType="text/css" height="1241px" preserveAspectRatio="none" style="width:1620px;height:1241px;background:#FFFFFF;" version="1.1" viewBox="0 0 1620 1241" width="1620px" zoomAndPan="magnify"><defs/><g><!--class Agency--><g id="elem_Agency"><rect codeLine="16" fill="#F1F1F1" height="113.3396" id="Agency" rx="2.5" ry="2.5" style="stroke:#181818;stroke-width:0.5;" width="111" x="1262.689" y="860.5"/><text fill="#000000" font-family="sans-serif" font-size="14" lengthAdjust="spacing" textLength="49" x="1293.689" y="880.4659">Agency</text><line style="stroke:#181818;stroke-width:0.5;" x1="1263.689" x2="1372.689" y1="889.5679" y2="889.5679"/><text fill="#000000" font-family="sans-serif" font-size="14" lengthAdjust="spacing" textLength="13" x="1268.689" y="908.5339">id</text><text fill="#000000" font-family="sans-serif" font-size="14" lengthAdjust="spacing" textLength="80" x="1268.689" y="927.6018">designation</text><text fill="#000000" font-family="sans-serif" font-size="14" lengthAdjust="spacing" textLength="92" x="1268.689" y="946.6697">emailAddress</text><text fill="#000000" font-family="sans-serif" font-size="14" lengthAdjust="spacing" textLength="99" x="1268.689" y="965.7376">phoneNumber</text></g><!--class Administrator--><g id="elem_Administrator"><rect codeLine="23" fill="#F1F1F1" height="37.0679" id="Administrator" rx="2.5" ry="2.5" style="stroke:#181818;stroke-width:0.5;" width="99" x="1483.689" y="228"/><text fill="#000000" font-family="sans-serif" font-size="14" lengthAdjust="spacing" textLength="93" x="1486.689" y="247.9659">Administrator</text><line style="stroke:#181818;stroke-width:0.5;" x1="1484.689" x2="1581.689" y1="257.0679" y2="257.0679"/></g><!--class Agent--><g id="elem_Agent"><rect codeLine="25" fill="#F1F1F1" height="37.0679" id="Agent" rx="2.5" ry="2.5" style="stroke:#181818;stroke-width:0.5;" width="46" x="500.189" y="161"/><text fill="#000000" font-family="sans-serif" font-size="14" lengthAdjust="spacing" textLength="40" x="503.189" y="180.9659">Agent</text><line style="stroke:#181818;stroke-width:0.5;" x1="501.189" x2="545.189" y1="190.0679" y2="190.0679"/></g><!--class Commission--><g id="elem_Commission"><rect codeLine="27" fill="#F1F1F1" height="75.2038" id="Commission" rx="2.5" ry="2.5" style="stroke:#181818;stroke-width:0.5;" width="139" x="453.689" y="7"/><text fill="#000000" font-family="sans-serif" font-size="14" lengthAdjust="spacing" textLength="82" x="482.189" y="26.9659">Commission</text><line style="stroke:#181818;stroke-width:0.5;" x1="454.689" x2="591.689" y1="36.0679" y2="36.0679"/><text fill="#000000" font-family="sans-serif" font-size="14" lengthAdjust="spacing" textLength="127" x="459.689" y="55.0339">typeOfCommission</text><text fill="#000000" font-family="sans-serif" font-size="14" lengthAdjust="spacing" textLength="117" x="459.689" y="74.1018">commissionValue</text></g><!--class StoreManager--><g id="elem_StoreManager"><rect codeLine="32" fill="#F1F1F1" height="37.0679" id="StoreManager" rx="2.5" ry="2.5" style="stroke:#181818;stroke-width:0.5;" width="102" x="1181.189" y="1062"/><text fill="#000000" font-family="sans-serif" font-size="14" lengthAdjust="spacing" textLength="96" x="1184.189" y="1081.9659">StoreManager</text><line style="stroke:#181818;stroke-width:0.5;" x1="1182.189" x2="1282.189" y1="1091.0679" y2="1091.0679"/></g><!--class StoreNetworkManager--><g id="elem_StoreNetworkManager"><rect codeLine="34" fill="#F1F1F1" height="37.0679" id="StoreNetworkManager" rx="2.5" ry="2.5" style="stroke:#181818;stroke-width:0.5;" width="158" x="1239.189" y="400"/><text fill="#000000" font-family="sans-serif" font-size="14" lengthAdjust="spacing" textLength="152" x="1242.189" y="419.9659">StoreNetworkManager</text><line style="stroke:#181818;stroke-width:0.5;" x1="1240.189" x2="1396.189" y1="429.0679" y2="429.0679"/></g><!--class Client--><g id="elem_Client"><rect codeLine="36" fill="#F1F1F1" height="37.0679" id="Client" rx="2.5" ry="2.5" style="stroke:#181818;stroke-width:0.5;" width="45" x="783.689" y="1062"/><text fill="#000000" font-family="sans-serif" font-size="14" lengthAdjust="spacing" textLength="39" x="786.689" y="1081.9659">Client</text><line style="stroke:#181818;stroke-width:0.5;" x1="784.689" x2="827.689" y1="1091.0679" y2="1091.0679"/></g><!--class Person--><g id="elem_Person"><rect codeLine="38" fill="#F1F1F1" height="132.4075" id="Person" rx="2.5" ry="2.5" style="stroke:#181818;stroke-width:0.5;" width="136" x="972.189" y="851"/><text fill="#000000" font-family="sans-serif" font-size="14" lengthAdjust="spacing" textLength="46" x="1017.189" y="870.9659">Person</text><line style="stroke:#181818;stroke-width:0.5;" x1="973.189" x2="1107.189" y1="880.0679" y2="880.0679"/><text fill="#000000" font-family="sans-serif" font-size="14" lengthAdjust="spacing" textLength="38" x="978.189" y="899.0339">name</text><text fill="#000000" font-family="sans-serif" font-size="14" lengthAdjust="spacing" textLength="124" x="978.189" y="918.1018">passportCardNum</text><text fill="#000000" font-family="sans-serif" font-size="14" lengthAdjust="spacing" textLength="76" x="978.189" y="937.1697">taxNumber</text><text fill="#000000" font-family="sans-serif" font-size="14" lengthAdjust="spacing" textLength="92" x="978.189" y="956.2376">emailAddress</text><text fill="#000000" font-family="sans-serif" font-size="14" lengthAdjust="spacing" textLength="99" x="978.189" y="975.3055">phoneNumber</text></g><!--class Owner--><g id="elem_Owner"><rect codeLine="46" fill="#F1F1F1" height="37.0679" id="Owner" rx="2.5" ry="2.5" style="stroke:#181818;stroke-width:0.5;" width="51" x="850.689" y="161"/><text fill="#000000" font-family="sans-serif" font-size="14" lengthAdjust="spacing" textLength="45" x="853.689" y="180.9659">Owner</text><line style="stroke:#181818;stroke-width:0.5;" x1="851.689" x2="900.689" y1="190.0679" y2="190.0679"/></g><!--class House--><g id="elem_House"><rect codeLine="48" fill="#F1F1F1" height="94.2717" id="House" rx="2.5" ry="2.5" style="stroke:#181818;stroke-width:0.5;" width="114" x="467.189" y="870"/><text fill="#000000" font-family="sans-serif" font-size="14" lengthAdjust="spacing" textLength="42" x="503.189" y="889.9659">House</text><line style="stroke:#181818;stroke-width:0.5;" x1="468.189" x2="580.189" y1="899.0679" y2="899.0679"/><text fill="#000000" font-family="sans-serif" font-size="14" lengthAdjust="spacing" textLength="67" x="473.189" y="918.0339">basement</text><text fill="#000000" font-family="sans-serif" font-size="14" lengthAdjust="spacing" textLength="102" x="473.189" y="937.1018">inhabitableLoft</text><text fill="#000000" font-family="sans-serif" font-size="14" lengthAdjust="spacing" textLength="87" x="473.189" y="956.1697">sunExposure</text></g><!--class Dwelling--><g id="elem_Dwelling"><rect codeLine="56" fill="#F1F1F1" height="94.2717" id="Dwelling" rx="2.5" ry="2.5" style="stroke:#181818;stroke-width:0.5;" width="141" x="453.689" y="659"/><text fill="#000000" font-family="sans-serif" font-size="14" lengthAdjust="spacing" textLength="59" x="494.689" y="678.9659">Dwelling</text><line style="stroke:#181818;stroke-width:0.5;" x1="454.689" x2="593.689" y1="688.0679" y2="688.0679"/><text fill="#000000" font-family="sans-serif" font-size="14" lengthAdjust="spacing" textLength="99" x="459.689" y="707.0339">numBedrooms</text><text fill="#000000" font-family="sans-serif" font-size="14" lengthAdjust="spacing" textLength="104" x="459.689" y="726.1018">numBathrooms</text><text fill="#000000" font-family="sans-serif" font-size="14" lengthAdjust="spacing" textLength="129" x="459.689" y="745.1697">numParkingSpaces</text></g><!--class Equipment--><g id="elem_Equipment"><rect codeLine="64" fill="#F1F1F1" height="37.0679" id="Equipment" rx="2.5" ry="2.5" style="stroke:#181818;stroke-width:0.5;" width="80" x="352.189" y="898.5"/><text fill="#000000" font-family="sans-serif" font-size="14" lengthAdjust="spacing" textLength="74" x="355.189" y="918.4659">Equipment</text><line style="stroke:#181818;stroke-width:0.5;" x1="353.189" x2="431.189" y1="927.5679" y2="927.5679"/></g><!--class Property--><g id="elem_Property"><rect codeLine="66" fill="#F1F1F1" height="94.2717" id="Property" rx="2.5" ry="2.5" style="stroke:#181818;stroke-width:0.5;" width="138" x="574.189" y="467"/><text fill="#000000" font-family="sans-serif" font-size="14" lengthAdjust="spacing" textLength="57" x="614.689" y="486.9659">Property</text><line style="stroke:#181818;stroke-width:0.5;" x1="575.189" x2="711.189" y1="496.0679" y2="496.0679"/><text fill="#000000" font-family="sans-serif" font-size="14" lengthAdjust="spacing" textLength="30" x="580.189" y="515.0339">area</text><text fill="#000000" font-family="sans-serif" font-size="14" lengthAdjust="spacing" textLength="126" x="580.189" y="534.1018">cityCenterDistance</text><text fill="#000000" font-family="sans-serif" font-size="14" lengthAdjust="spacing" textLength="34" x="580.189" y="553.1697">price</text></g><!--class Photograph--><g id="elem_Photograph"><rect codeLine="72" fill="#F1F1F1" height="56.1358" id="Photograph" rx="2.5" ry="2.5" style="stroke:#181818;stroke-width:0.5;" width="131" x="494.689" y="304.5"/><text fill="#000000" font-family="sans-serif" font-size="14" lengthAdjust="spacing" textLength="79" x="520.689" y="324.4659">Photograph</text><line style="stroke:#181818;stroke-width:0.5;" x1="495.689" x2="624.689" y1="333.5679" y2="333.5679"/><text fill="#000000" font-family="sans-serif" font-size="14" lengthAdjust="spacing" textLength="119" x="500.689" y="352.5339">linkToPhotograph</text></g><!--class Employee--><g id="elem_Employee"><rect codeLine="76" fill="#F1F1F1" height="37.0679" id="Employee" rx="2.5" ry="2.5" style="stroke:#181818;stroke-width:0.5;" width="71" x="1376.689" y="1062"/><text fill="#000000" font-family="sans-serif" font-size="14" lengthAdjust="spacing" textLength="65" x="1379.689" y="1081.9659">Employee</text><line style="stroke:#181818;stroke-width:0.5;" x1="1377.689" x2="1446.689" y1="1091.0679" y2="1091.0679"/></g><!--class OrganizationRole--><g id="elem_OrganizationRole"><rect codeLine="80" fill="#F1F1F1" height="56.1358" id="OrganizationRole" rx="2.5" ry="2.5" style="stroke:#181818;stroke-width:0.5;" width="123" x="1256.689" y="16.5"/><text fill="#000000" font-family="sans-serif" font-size="14" lengthAdjust="spacing" textLength="117" x="1259.689" y="36.4659">OrganizationRole</text><line style="stroke:#181818;stroke-width:0.5;" x1="1257.689" x2="1378.689" y1="45.5679" y2="45.5679"/><text fill="#000000" font-family="sans-serif" font-size="14" lengthAdjust="spacing" textLength="66" x="1262.689" y="64.5339">roleName</text></g><!--class Request--><g id="elem_Request"><rect codeLine="84" fill="#F1F1F1" height="56.1358" id="Request" rx="2.5" ry="2.5" style="stroke:#181818;stroke-width:0.5;" width="119" x="178.689" y="304.5"/><text fill="#000000" font-family="sans-serif" font-size="14" lengthAdjust="spacing" textLength="55" x="210.689" y="324.4659">Request</text><line style="stroke:#181818;stroke-width:0.5;" x1="179.689" x2="296.689" y1="333.5679" y2="333.5679"/><text fill="#000000" font-family="sans-serif" font-size="14" lengthAdjust="spacing" textLength="107" x="184.689" y="352.5339">publicationDate</text></g><!--class Announcement--><g id="elem_Announcement"><rect codeLine="88" fill="#F1F1F1" height="56.1358" id="Announcement" rx="2.5" ry="2.5" style="stroke:#181818;stroke-width:0.5;" width="145" x="660.689" y="304.5"/><text fill="#000000" font-family="sans-serif" font-size="14" lengthAdjust="spacing" textLength="103" x="681.689" y="324.4659">Announcement</text><line style="stroke:#181818;stroke-width:0.5;" x1="661.689" x2="804.689" y1="333.5679" y2="333.5679"/><text fill="#000000" font-family="sans-serif" font-size="14" lengthAdjust="spacing" textLength="133" x="666.689" y="352.5339">announcementDate</text></g><!--class Visit--><g id="elem_Visit"><rect codeLine="92" fill="#F1F1F1" height="56.1358" id="Visit" rx="2.5" ry="2.5" style="stroke:#181818;stroke-width:0.5;" width="70" x="565.189" y="1178"/><text fill="#000000" font-family="sans-serif" font-size="14" lengthAdjust="spacing" textLength="28" x="586.189" y="1197.9659">Visit</text><line style="stroke:#181818;stroke-width:0.5;" x1="566.189" x2="634.189" y1="1207.0679" y2="1207.0679"/><text fill="#000000" font-family="sans-serif" font-size="14" lengthAdjust="spacing" textLength="58" x="571.189" y="1226.0339">visitDate</text></g><!--class Address--><g id="elem_Address"><rect codeLine="96" fill="#F1F1F1" height="132.4075" id="Address" rx="2.5" ry="2.5" style="stroke:#181818;stroke-width:0.5;" width="104" x="844.189" y="640"/><text fill="#000000" font-family="sans-serif" font-size="14" lengthAdjust="spacing" textLength="55" x="868.689" y="659.9659">Address</text><line style="stroke:#181818;stroke-width:0.5;" x1="845.189" x2="947.189" y1="669.0679" y2="669.0679"/><text fill="#000000" font-family="sans-serif" font-size="14" lengthAdjust="spacing" textLength="39" x="850.189" y="688.0339">street</text><text fill="#000000" font-family="sans-serif" font-size="14" lengthAdjust="spacing" textLength="63" x="850.189" y="707.1018">cityName</text><text fill="#000000" font-family="sans-serif" font-size="14" lengthAdjust="spacing" textLength="87" x="850.189" y="726.1697">districtName</text><text fill="#000000" font-family="sans-serif" font-size="14" lengthAdjust="spacing" textLength="92" x="850.189" y="745.2376">stateAcronym</text><text fill="#000000" font-family="sans-serif" font-size="14" lengthAdjust="spacing" textLength="54" x="850.189" y="764.3055">zipCode</text></g><!--class PropertyType--><g id="elem_PropertyType"><rect codeLine="104" fill="#F1F1F1" height="56.1358" id="PropertyType" rx="2.5" ry="2.5" style="stroke:#181818;stroke-width:0.5;" width="102" x="987.189" y="304.5"/><text fill="#000000" font-family="sans-serif" font-size="14" lengthAdjust="spacing" textLength="89" x="993.689" y="324.4659">PropertyType</text><line style="stroke:#181818;stroke-width:0.5;" x1="988.189" x2="1088.189" y1="333.5679" y2="333.5679"/><text fill="#000000" font-family="sans-serif" font-size="14" lengthAdjust="spacing" textLength="90" x="993.189" y="352.5339">propertyType</text></g><!--class Lease--><g id="elem_Lease"><rect codeLine="108" fill="#F1F1F1" height="75.2038" id="Lease" rx="2.5" ry="2.5" style="stroke:#181818;stroke-width:0.5;" width="126" x="333.189" y="295"/><text fill="#000000" font-family="sans-serif" font-size="14" lengthAdjust="spacing" textLength="38" x="377.189" y="314.9659">Lease</text><line style="stroke:#181818;stroke-width:0.5;" x1="334.189" x2="458.189" y1="324.0679" y2="324.0679"/><text fill="#000000" font-family="sans-serif" font-size="14" lengthAdjust="spacing" textLength="72" x="339.189" y="343.0339">leaseValue</text><text fill="#000000" font-family="sans-serif" font-size="14" lengthAdjust="spacing" textLength="114" x="339.189" y="362.1018">contractDuration</text></g><!--class Sale--><g id="elem_Sale"><rect codeLine="113" fill="#F1F1F1" height="56.1358" id="Sale" rx="2.5" ry="2.5" style="stroke:#181818;stroke-width:0.5;" width="76" x="67.189" y="304.5"/><text fill="#000000" font-family="sans-serif" font-size="14" lengthAdjust="spacing" textLength="28" x="91.189" y="324.4659">Sale</text><line style="stroke:#181818;stroke-width:0.5;" x1="68.189" x2="142.189" y1="333.5679" y2="333.5679"/><text fill="#000000" font-family="sans-serif" font-size="14" lengthAdjust="spacing" textLength="64" x="73.189" y="352.5339">saleValue</text></g><!--class Order--><g id="elem_Order"><rect codeLine="117" fill="#F1F1F1" height="56.1358" id="Order" rx="2.5" ry="2.5" style="stroke:#181818;stroke-width:0.5;" width="102" x="726.189" y="1178"/><text fill="#000000" font-family="sans-serif" font-size="14" lengthAdjust="spacing" textLength="40" x="757.189" y="1197.9659">Order</text><line style="stroke:#181818;stroke-width:0.5;" x1="727.189" x2="827.189" y1="1207.0679" y2="1207.0679"/><text fill="#000000" font-family="sans-serif" font-size="14" lengthAdjust="spacing" textLength="90" x="732.189" y="1226.0339">orderAmount</text></g><!--link Address to Person--><g id="link_Address_Person"><path codeLine="121" d="M906.039,772.29 C910.479,789.03 916.909,806.41 926.189,821 C938.079,839.69 954.849,856.55 971.879,870.69 " fill="none" id="Address-Person" style="stroke:#181818;stroke-width:1.0;"/><polygon fill="#000000" points="928.4085,807.6974,930.9959,816.8493,935.881,813.5806,928.4085,807.6974" style="stroke:#000000;stroke-width:1.0;"/><text fill="#000000" font-family="sans-serif" font-size="13" lengthAdjust="spacing" textLength="59" x="940.189" y="816.897">located at</text><text fill="#000000" font-family="sans-serif" font-size="13" lengthAdjust="spacing" textLength="7" x="899.7335" y="794.3835">1</text><text fill="#000000" font-family="sans-serif" font-size="13" lengthAdjust="spacing" textLength="7" x="957.0248" y="861.6085">1</text></g><!--link Address to Agency--><g id="link_Address_Agency"><path codeLine="122" d="M948.359,732.84 C1028.299,772.43 1180.429,847.77 1262.459,888.4 " fill="none" id="Address-Agency" style="stroke:#181818;stroke-width:1.0;"/><polygon fill="#000000" points="1120.7084,809.634,1127.5095,816.2819,1130.1182,811.0146,1120.7084,809.634" style="stroke:#000000;stroke-width:1.0;"/><text fill="#000000" font-family="sans-serif" font-size="13" lengthAdjust="spacing" textLength="59" x="1134.189" y="816.897">located at</text><text fill="#000000" font-family="sans-serif" font-size="13" lengthAdjust="spacing" textLength="7" x="956.1876" y="732.3371">1</text><text fill="#000000" font-family="sans-serif" font-size="13" lengthAdjust="spacing" textLength="7" x="1247.8701" y="880.5671">1</text></g><!--link Agency to StoreManager--><g id="link_Agency_StoreManager"><path codeLine="124" d="M1285.569,973.91 C1278.359,986.67 1270.879,1000.23 1264.189,1013 C1255.689,1029.23 1246.699,1048.08 1240.419,1061.55 " fill="none" id="Agency-StoreManager" style="stroke:#181818;stroke-width:1.0;"/><polygon fill="#000000" points="1271.4789,1018.4082,1264.7238,1025.103,1269.949,1027.7949,1271.4789,1018.4082" style="stroke:#000000;stroke-width:1.0;"/><text fill="#000000" font-family="sans-serif" font-size="13" lengthAdjust="spacing" textLength="55" x="1278.189" y="1027.897">manages</text><text fill="#000000" font-family="sans-serif" font-size="13" lengthAdjust="spacing" textLength="7" x="1274.1669" y="995.8012">1</text><text fill="#000000" font-family="sans-serif" font-size="13" lengthAdjust="spacing" textLength="7" x="1234.8675" y="1050.1382">1</text></g><!--link Agency to Employee--><g id="link_Agency_Employee"><path codeLine="125" d="M1342.619,973.82 C1351.689,992.77 1362.609,1013.76 1374.189,1032 C1380.759,1042.34 1389.169,1053.06 1396.419,1061.7 " fill="none" id="Agency-Employee" style="stroke:#181818;stroke-width:1.0;"/><polygon fill="#000000" points="1381.7996,1027.1174,1379.5835,1017.8686,1374.5704,1020.9376,1381.7996,1027.1174" style="stroke:#000000;stroke-width:1.0;"/><text fill="#000000" font-family="sans-serif" font-size="13" lengthAdjust="spacing" textLength="32" x="1388.189" y="1027.897">owns</text><text fill="#000000" font-family="sans-serif" font-size="13" lengthAdjust="spacing" textLength="7" x="1338.1698" y="995.7002">1</text><text fill="#000000" font-family="sans-serif" font-size="13" lengthAdjust="spacing" textLength="20" x="1368.5269" y="1050.3341">1..*</text></g><!--link Announcement to Property--><g id="link_Announcement_Property"><path codeLine="127" d="M719.519,360.76 C705.459,388.81 683.289,433.03 666.459,466.6 " fill="none" id="Announcement-Property" style="stroke:#181818;stroke-width:1.0;"/><polygon fill="#000000" points="701.9482,423.3228,708.6291,416.554,703.3746,413.9198,701.9482,423.3228" style="stroke:#000000;stroke-width:1.0;"/><text fill="#000000" font-family="sans-serif" font-size="13" lengthAdjust="spacing" textLength="51" x="713.189" y="423.897">contains</text><text fill="#000000" font-family="sans-serif" font-size="13" lengthAdjust="spacing" textLength="7" x="708.763" y="382.7606">1</text><text fill="#000000" font-family="sans-serif" font-size="13" lengthAdjust="spacing" textLength="7" x="662.3627" y="455.3186">1</text></g><!--reverse link OrganizationRole to Administrator--><g id="link_OrganizationRole_Administrator"><path codeLine="129" d="M1399.739,67.51 C1425.699,77.68 1452.909,92.06 1473.189,112 C1506.529,144.78 1522.939,199.4 1529.529,227.54 " fill="none" id="OrganizationRole-backto-Administrator" style="stroke:#181818;stroke-width:1.0;"/><polygon fill="none" points="1397.709,74.21,1381.239,60.89,1402.429,61.03,1397.709,74.21" style="stroke:#181818;stroke-width:1.0;"/></g><!--reverse link OrganizationRole to Agent--><g id="link_OrganizationRole_Agent"><path codeLine="130" d="M1235.259,59.37 C1057.759,89.07 648.889,157.47 546.679,174.57 " fill="none" id="OrganizationRole-backto-Agent" style="stroke:#181818;stroke-width:1.0;"/><polygon fill="none" points="1234.099,52.47,1254.979,56.08,1236.409,66.28,1234.099,52.47" style="stroke:#181818;stroke-width:1.0;"/></g><!--reverse link OrganizationRole to StoreManager--><g id="link_OrganizationRole_StoreManager"><path codeLine="131" d="M1262.499,86.7 C1237.349,110.3 1213.189,142.37 1213.189,178.5 C1213.189,178.5 1213.189,178.5 1213.189,601.5 C1213.189,781.31 1226.779,998.86 1230.969,1061.71 " fill="none" id="OrganizationRole-backto-StoreManager" style="stroke:#181818;stroke-width:1.0;"/><polygon fill="none" points="1257.659,81.63,1277.349,73.8,1266.839,92.2,1257.659,81.63" style="stroke:#181818;stroke-width:1.0;"/></g><!--reverse link OrganizationRole to StoreNetworkManager--><g id="link_OrganizationRole_StoreNetworkManager"><path codeLine="132" d="M1318.189,94.32 C1318.189,178.01 1318.189,345.16 1318.189,399.78 " fill="none" id="OrganizationRole-backto-StoreNetworkManager" style="stroke:#181818;stroke-width:1.0;"/><polygon fill="none" points="1311.189,94.37,1318.189,74.37,1325.189,94.37,1311.189,94.37" style="stroke:#181818;stroke-width:1.0;"/></g><!--link OrganizationRole to Employee--><g id="link_OrganizationRole_Employee"><path codeLine="134" d="M1370.659,73 C1406.369,95.89 1447.189,132.18 1447.189,178.5 C1447.189,178.5 1447.189,178.5 1447.189,918 C1447.189,971.36 1428.709,1032.44 1418.609,1061.85 " fill="none" id="OrganizationRole-Employee" style="stroke:#181818;stroke-width:1.0;"/><polygon fill="#000000" points="1451.9468,509.3589,1449.4494,518.5357,1455.3204,518.251,1451.9468,509.3589" style="stroke:#000000;stroke-width:1.0;"/><text fill="#000000" font-family="sans-serif" font-size="13" lengthAdjust="spacing" textLength="31" x="1461.189" y="519.397">plays</text><text fill="#000000" font-family="sans-serif" font-size="13" lengthAdjust="spacing" textLength="20" x="1359.4184" y="94.5871">1..*</text><text fill="#000000" font-family="sans-serif" font-size="13" lengthAdjust="spacing" textLength="7" x="1412.5397" y="1050.1946">1</text></g><!--link Administrator to Employee--><g id="link_Administrator_Employee"><path codeLine="136" d="M1535.449,265.33 C1539.179,296.25 1546.189,361.85 1546.189,417.5 C1546.189,417.5 1546.189,417.5 1546.189,918 C1546.189,982.85 1481.409,1035.6 1441.929,1061.72 " fill="none" id="Administrator-Employee" style="stroke:#181818;stroke-width:1.0;"/><polygon fill="#000000" points="1550.6058,605.8189,1554.5796,597.1783,1548.7419,596.4928,1550.6058,605.8189" style="stroke:#000000;stroke-width:1.0;"/><text fill="#000000" font-family="sans-serif" font-size="13" lengthAdjust="spacing" textLength="52" x="1560.189" y="605.897">registers</text><text fill="#000000" font-family="sans-serif" font-size="13" lengthAdjust="spacing" textLength="7" x="1528.1002" y="287.0033">1</text><text fill="#000000" font-family="sans-serif" font-size="13" lengthAdjust="spacing" textLength="20" x="1428.2211" y="1050.0232">1..*</text></g><!--link Client to Property--><g id="link_Client_Property"><path codeLine="138" d="M802.619,1061.88 C789.409,997.73 740.709,770.9 677.189,591 C673.719,581.19 669.519,570.88 665.259,561.14 " fill="none" id="Client-Property" style="stroke:#181818;stroke-width:1.0;"/><polygon fill="#000000" points="749.8663,807.0311,749.4248,816.5315,755.0933,814.9765,749.8663,807.0311" style="stroke:#000000;stroke-width:1.0;"/><text fill="#000000" font-family="sans-serif" font-size="13" lengthAdjust="spacing" textLength="65" x="760.189" y="816.897">buys/rents</text><text fill="#000000" font-family="sans-serif" font-size="13" lengthAdjust="spacing" textLength="7" x="793.3654" y="1050.2342">1</text><text fill="#000000" font-family="sans-serif" font-size="13" lengthAdjust="spacing" textLength="20" x="647.0318" y="583.241">1..*</text></g><!--link Client to Visit--><g id="link_Client_Visit"><path codeLine="139" d="M783.299,1092.83 C764.919,1102.1 738.559,1115.81 716.189,1129 C688.499,1145.33 658.149,1165.29 635.439,1180.66 " fill="none" id="Client-Visit" style="stroke:#181818;stroke-width:1.0;"/><polygon fill="#000000" points="716.8902,1141.4065,726.1677,1139.3139,723.1659,1134.2604,716.8902,1141.4065" style="stroke:#000000;stroke-width:1.0;"/><text fill="#000000" font-family="sans-serif" font-size="13" lengthAdjust="spacing" textLength="52" x="730.189" y="1143.897">requests</text><text fill="#000000" font-family="sans-serif" font-size="13" lengthAdjust="spacing" textLength="7" x="768.5469" y="1090.9458">1</text><text fill="#000000" font-family="sans-serif" font-size="13" lengthAdjust="spacing" textLength="20" x="643.2163" y="1171.7898">1..*</text></g><!--link Client to Order--><g id="link_Client_Order"><path codeLine="140" d="M801.969,1099.46 C797.129,1120.06 789.149,1154.07 783.549,1177.9 " fill="none" id="Client-Order" style="stroke:#181818;stroke-width:1.0;"/><polygon fill="#000000" points="799.0459,1143.7206,803.9748,1135.5869,798.2526,1134.2432,799.0459,1143.7206" style="stroke:#000000;stroke-width:1.0;"/><text fill="#000000" font-family="sans-serif" font-size="13" lengthAdjust="spacing" textLength="37" x="809.189" y="1143.897">places</text><text fill="#000000" font-family="sans-serif" font-size="13" lengthAdjust="spacing" textLength="7" x="792.8942" y="1120.8226">1</text><text fill="#000000" font-family="sans-serif" font-size="13" lengthAdjust="spacing" textLength="20" x="787.3322" y="1166.3992">1..*</text></g><!--link Order to Property--><g id="link_Order_Property"><path codeLine="142" d="M764.149,1177.7 C748.139,1143.82 720.489,1084.15 699.189,1032 C690.419,1010.52 686.169,1005.66 681.189,983 C647.829,831.34 643.079,646.24 642.829,561.45 " fill="none" id="Order-Property" style="stroke:#181818;stroke-width:1.0;"/><polygon fill="#000000" points="685.2232,912.4472,684.0868,921.8896,689.8539,920.7542,685.2232,912.4472" style="stroke:#000000;stroke-width:1.0;"/><text fill="#000000" font-family="sans-serif" font-size="13" lengthAdjust="spacing" textLength="51" x="695.189" y="922.397">contains</text><text fill="#000000" font-family="sans-serif" font-size="13" lengthAdjust="spacing" textLength="7" x="753.3241" y="1166.1529">1</text><text fill="#000000" font-family="sans-serif" font-size="13" lengthAdjust="spacing" textLength="7" x="635.2862" y="583.2455">1</text></g><!--link Owner to Announcement--><g id="link_Owner_Announcement"><path codeLine="144" d="M850.229,191.84 C833.409,200.11 811.809,212.55 796.189,228 C773.759,250.19 755.979,281.91 745.109,304.37 " fill="none" id="Owner-Announcement" style="stroke:#181818;stroke-width:1.0;"/><polygon fill="#000000" points="797.7758,250.5068,806.098,245.9033,801.8027,241.8908,797.7758,250.5068" style="stroke:#000000;stroke-width:1.0;"/><text fill="#000000" font-family="sans-serif" font-size="13" lengthAdjust="spacing" textLength="39" x="810.189" y="251.897">makes</text><text fill="#000000" font-family="sans-serif" font-size="13" lengthAdjust="spacing" textLength="7" x="835.6799" y="189.8028">1</text><text fill="#000000" font-family="sans-serif" font-size="13" lengthAdjust="spacing" textLength="20" x="725.553" y="292.8623">1..*</text></g><!--link Request to Property--><g id="link_Request_Property"><path codeLine="146" d="M252.939,360.68 C267.259,384.45 291.199,418.06 321.189,437 C398.769,486 504.919,503.44 573.759,509.63 " fill="none" id="Request-Property" style="stroke:#181818;stroke-width:1.0;"/><polygon fill="#000000" points="330.724,420.9585,323.7576,414.484,321.2824,419.8152,330.724,420.9585" style="stroke:#000000;stroke-width:1.0;"/><text fill="#000000" font-family="sans-serif" font-size="13" lengthAdjust="spacing" textLength="51" x="335.189" y="423.897">contains</text><text fill="#000000" font-family="sans-serif" font-size="13" lengthAdjust="spacing" textLength="7" x="248.3999" y="382.6631">1</text><text fill="#000000" font-family="sans-serif" font-size="13" lengthAdjust="spacing" textLength="7" x="559.2381" y="505.2222">1</text></g><!--link Property to Address--><g id="link_Property_Address"><path codeLine="148" d="M712.379,549.94 C733.849,561.9 757.129,576.07 777.189,591 C800.479,608.34 824.009,629.85 843.929,649.5 " fill="none" id="Property-Address" style="stroke:#181818;stroke-width:1.0;"/><polygon fill="#000000" points="808.1759,603.8704,802.7371,596.0685,799.1899,600.7553,808.1759,603.8704" style="stroke:#000000;stroke-width:1.0;"/><text fill="#000000" font-family="sans-serif" font-size="13" lengthAdjust="spacing" textLength="59" x="813.189" y="605.897">located at</text><text fill="#000000" font-family="sans-serif" font-size="13" lengthAdjust="spacing" textLength="7" x="720.3295" y="549.862">1</text><text fill="#000000" font-family="sans-serif" font-size="13" lengthAdjust="spacing" textLength="7" x="829.0877" y="637.2774">1</text></g><!--reverse link Property to Dwelling--><g id="link_Property_Dwelling"><path codeLine="149" d="M602.699,579.65 C586.449,605.59 568.089,634.91 553.209,658.67 " fill="none" id="Property-backto-Dwelling" style="stroke:#181818;stroke-width:1.0;"/><polygon fill="none" points="596.729,576,613.279,562.76,608.589,583.43,596.729,576" style="stroke:#181818;stroke-width:1.0;"/></g><!--link Photograph to Property--><g id="link_Photograph_Property"><path codeLine="152" d="M580.449,360.71 C588.539,372.4 597.509,386.47 604.189,400 C614.609,421.12 623.459,445.73 630.079,466.58 " fill="none" id="Photograph-Property" style="stroke:#181818;stroke-width:1.0;"/><polygon fill="#000000" points="623.0667,414.3258,624.2449,423.7631,629.567,421.2682,623.0667,414.3258" style="stroke:#000000;stroke-width:1.0;"/><text fill="#000000" font-family="sans-serif" font-size="13" lengthAdjust="spacing" textLength="21" x="634.189" y="423.897">has</text><text fill="#000000" font-family="sans-serif" font-size="13" lengthAdjust="spacing" textLength="20" x="562.6934" y="382.6997">1..*</text><text fill="#000000" font-family="sans-serif" font-size="13" lengthAdjust="spacing" textLength="7" x="620.6394" y="455.2957">1</text></g><!--link Dwelling to Equipment--><g id="link_Dwelling_Equipment"><path codeLine="154" d="M494.889,753.38 C466.109,798.96 423.659,866.17 403.549,898.01 " fill="none" id="Dwelling-Equipment" style="stroke:#181818;stroke-width:1.0;"/><polygon fill="#000000" points="464.5191,816.0805,471.8338,810.0022,466.8641,806.8636,464.5191,816.0805" style="stroke:#000000;stroke-width:1.0;"/><text fill="#000000" font-family="sans-serif" font-size="13" lengthAdjust="spacing" textLength="21" x="476.189" y="816.897">has</text><text fill="#000000" font-family="sans-serif" font-size="13" lengthAdjust="spacing" textLength="7" x="483.2765" y="775.1657">1</text><text fill="#000000" font-family="sans-serif" font-size="13" lengthAdjust="spacing" textLength="20" x="383.9655" y="886.5859">1..*</text></g><!--reverse link Dwelling to House--><g id="link_Dwelling_House"><path codeLine="156" d="M524.189,774.47 C524.189,805.6 524.189,841.77 524.189,869.75 " fill="none" id="Dwelling-backto-House" style="stroke:#181818;stroke-width:1.0;"/><polygon fill="none" points="517.189,774.9,524.189,754.9,531.189,774.9,517.189,774.9" style="stroke:#181818;stroke-width:1.0;"/></g><!--link Agent to Announcement--><g id="link_Agent_Announcement"><path codeLine="158" d="M546.469,197.24 C582.449,223.11 651.959,273.09 695.269,304.24 " fill="none" id="Agent-Announcement" style="stroke:#181818;stroke-width:1.0;"/><polygon fill="#000000" points="644.2484,249.7721,638.6206,242.1054,635.189,246.8775,644.2484,249.7721" style="stroke:#000000;stroke-width:1.0;"/><text fill="#000000" font-family="sans-serif" font-size="13" lengthAdjust="spacing" textLength="45" x="649.189" y="251.897">reviews</text><text fill="#000000" font-family="sans-serif" font-size="13" lengthAdjust="spacing" textLength="7" x="546.0211" y="219.9347">1</text><text fill="#000000" font-family="sans-serif" font-size="13" lengthAdjust="spacing" textLength="20" x="664.1875" y="292.7022">1..*</text></g><!--link Agent to Request--><g id="link_Agent_Request"><path codeLine="159" d="M499.869,192.86 C454.269,217.02 352.329,271.03 289.999,304.05 " fill="none" id="Agent-Request" style="stroke:#181818;stroke-width:1.0;"/><polygon fill="#000000" points="431.7708,249.1938,441.1393,247.5562,438.3875,242.3623,431.7708,249.1938" style="stroke:#000000;stroke-width:1.0;"/><text fill="#000000" font-family="sans-serif" font-size="13" lengthAdjust="spacing" textLength="57" x="445.189" y="251.897">publishes</text><text fill="#000000" font-family="sans-serif" font-size="13" lengthAdjust="spacing" textLength="7" x="485.3259" y="191.2136">1</text><text fill="#000000" font-family="sans-serif" font-size="13" lengthAdjust="spacing" textLength="20" x="279.6675" y="292.4683">1..*</text></g><!--link Agent to Visit--><g id="link_Agent_Visit"><path codeLine="160" d="M499.999,182.26 C400.419,190.42 14.189,228.73 14.189,331.5 C14.189,331.5 14.189,331.5 14.189,1081.5 C14.189,1194.7 438.159,1204.68 564.849,1205.13 " fill="none" id="Agent-Visit" style="stroke:#181818;stroke-width:1.0;"/><polygon fill="#000000" points="19.5053,711.343,21.8661,702.1301,16,702.502,19.5053,711.343" style="stroke:#000000;stroke-width:1.0;"/><text fill="#000000" font-family="sans-serif" font-size="13" lengthAdjust="spacing" textLength="59" x="28.189" y="711.397">schedules</text><text fill="#000000" font-family="sans-serif" font-size="13" lengthAdjust="spacing" textLength="7" x="485.1588" y="177.5646">1</text><text fill="#000000" font-family="sans-serif" font-size="13" lengthAdjust="spacing" textLength="20" x="537.0562" y="1200.4655">1..*</text></g><!--link Commission to Agent--><g id="link_Commission_Agent"><path codeLine="162" d="M523.189,82.19 C523.189,107.72 523.189,140.64 523.189,160.63 " fill="none" id="Commission-Agent" style="stroke:#181818;stroke-width:1.0;"/><polygon fill="#000000" points="528.189,116.853,525.2501,125.8981,531.1279,125.8981,528.189,116.853" style="stroke:#000000;stroke-width:1.0;"/><text fill="#000000" font-family="sans-serif" font-size="13" lengthAdjust="spacing" textLength="43" x="537.189" y="126.897">defines</text><text fill="#000000" font-family="sans-serif" font-size="13" lengthAdjust="spacing" textLength="7" x="515.5874" y="104.0691">1</text><text fill="#000000" font-family="sans-serif" font-size="13" lengthAdjust="spacing" textLength="7" x="515.1171" y="149.2427">1</text></g><!--link Visit to Address--><g id="link_Visit_Address"><path codeLine="164" d="M617.089,1177.71 C655.789,1115.06 753.579,955.94 832.189,821 C841.329,805.31 851.009,788.29 859.989,772.31 " fill="none" id="Visit-Address" style="stroke:#181818;stroke-width:1.0;"/><polygon fill="#000000" points="724.7588,1018.564,717.5889,1024.8124,722.631,1027.8334,724.7588,1018.564" style="stroke:#000000;stroke-width:1.0;"/><text fill="#000000" font-family="sans-serif" font-size="13" lengthAdjust="spacing" textLength="59" x="731.189" y="1027.897">located at</text><text fill="#000000" font-family="sans-serif" font-size="13" lengthAdjust="spacing" textLength="7" x="613.1877" y="1166.1653">1</text><text fill="#000000" font-family="sans-serif" font-size="13" lengthAdjust="spacing" textLength="7" x="848.6468" y="794.4057">1</text></g><!--link PropertyType to Property--><g id="link_PropertyType_Property"><path codeLine="166" d="M1009.019,360.79 C982.839,383.98 942.439,416.66 902.189,437 C841.439,467.7 766.249,488.03 712.559,499.87 " fill="none" id="PropertyType-Property" style="stroke:#181818;stroke-width:1.0;"/><polygon fill="#000000" points="967.7156,416.7294,958.2786,417.9104,960.7751,423.2317,967.7156,416.7294" style="stroke:#000000;stroke-width:1.0;"/><text fill="#000000" font-family="sans-serif" font-size="13" lengthAdjust="spacing" textLength="88" x="972.189" y="423.897">categorized by</text><text fill="#000000" font-family="sans-serif" font-size="13" lengthAdjust="spacing" textLength="7" x="995.2808" y="382.3338">1</text><text fill="#000000" font-family="sans-serif" font-size="13" lengthAdjust="spacing" textLength="20" x="720.1239" y="494.6308">1..*</text></g><!--link StoreNetworkManager to Agency--><g id="link_StoreNetworkManager_Agency"><path codeLine="168" d="M1318.189,437.46 C1318.189,505.53 1318.189,749.3 1318.189,860.27 " fill="none" id="StoreNetworkManager-Agency" style="stroke:#181818;stroke-width:1.0;"/><polygon fill="#000000" points="1323.189,605.853,1326.1279,596.8079,1320.2501,596.8079,1323.189,605.853" style="stroke:#000000;stroke-width:1.0;"/><text fill="#000000" font-family="sans-serif" font-size="13" lengthAdjust="spacing" textLength="55" x="1332.189" y="605.897">manages</text><text fill="#000000" font-family="sans-serif" font-size="13" lengthAdjust="spacing" textLength="7" x="1310.2484" y="458.8226">1</text><text fill="#000000" font-family="sans-serif" font-size="13" lengthAdjust="spacing" textLength="20" x="1296.9077" y="848.8329">2..*</text></g><!--link Owner to Property--><g id="link_Owner_Property"><path codeLine="170" d="M874.369,198.49 C868.679,245.18 846.899,371.12 773.189,437 C755.159,453.12 733.189,467.51 712.469,479.32 " fill="none" id="Owner-Property" style="stroke:#181818;stroke-width:1.0;"/><polygon fill="#000000" points="856.6917,337.1847,863.7554,330.8164,858.6632,327.8807,856.6917,337.1847" style="stroke:#000000;stroke-width:1.0;"/><text fill="#000000" font-family="sans-serif" font-size="13" lengthAdjust="spacing" textLength="61" x="868.189" y="337.897">sells/rents</text><text fill="#000000" font-family="sans-serif" font-size="13" lengthAdjust="spacing" textLength="7" x="865.9392" y="219.8607">1</text><text fill="#000000" font-family="sans-serif" font-size="13" lengthAdjust="spacing" textLength="20" x="720.2731" y="471.9879">1..*</text></g><!--link Owner to Person--><g id="link_Owner_Person"><path codeLine="171" d="M902.179,182.95 C969.109,190.84 1142.189,221.84 1142.189,331.5 C1142.189,331.5 1142.189,331.5 1142.189,707 C1142.189,758.6 1142.409,774.43 1120.189,821 C1118.289,824.99 1116.169,828.95 1113.899,832.86 " fill="none" id="Owner-to-Person" style="stroke:#181818;stroke-width:1.0;"/><polygon fill="none" points="1119.859,836.53,1103.059,849.45,1108.139,828.88,1119.859,836.53" style="stroke:#181818;stroke-width:1.0;"/></g><!--reverse link Person to Client--><g id="link_Person_Client"><path codeLine="173" d="M954.409,977.2 C909.509,1008.19 857.979,1043.76 829.029,1063.73 " fill="none" id="Person-backto-Client" style="stroke:#181818;stroke-width:1.0;"/><polygon fill="none" points="950.199,971.61,970.629,966.01,958.149,983.13,950.199,971.61" style="stroke:#181818;stroke-width:1.0;"/></g><!--reverse link Person to Employee--><g id="link_Person_Employee"><path codeLine="174" d="M1126.969,971.44 C1163.219,992.26 1206.339,1015.12 1247.189,1032 C1290.309,1049.82 1342.369,1063.6 1376.329,1071.63 " fill="none" id="Person-backto-Employee" style="stroke:#181818;stroke-width:1.0;"/><polygon fill="none" points="1123.749,977.67,1109.989,961.55,1130.799,965.57,1123.749,977.67" style="stroke:#181818;stroke-width:1.0;"/></g><!--link Lease to Property--><g id="link_Lease_Property"><path codeLine="176" d="M392.059,370.38 C391.669,392.08 394.979,418.76 410.189,437 C450.169,484.96 520.879,502.91 573.949,509.49 " fill="none" id="Lease-Property" style="stroke:#181818;stroke-width:1.0;"/><polygon fill="#000000" points="411.2174,415.8155,416.6167,423.6448,420.1875,418.9759,411.2174,415.8155" style="stroke:#000000;stroke-width:1.0;"/><text fill="#000000" font-family="sans-serif" font-size="13" lengthAdjust="spacing" textLength="69" x="424.189" y="423.897">classified as</text><text fill="#000000" font-family="sans-serif" font-size="13" lengthAdjust="spacing" textLength="20" x="369.7187" y="392.0003">0..*</text><text fill="#000000" font-family="sans-serif" font-size="13" lengthAdjust="spacing" textLength="7" x="558.993" y="523.8472">1</text></g><!--link Lease to Property--><g id="link_Lease_Property"><path codeLine="177" d="M458.879,370.4 C472.359,379.41 486.169,389.5 498.189,400 C514.569,414.3 513.919,422.58 530.189,437 C543.549,448.84 558.859,460.3 573.809,470.58 " fill="none" id="Lease-Property-1" style="stroke:#181818;stroke-width:1.0;"/><polygon fill="#000000" points="538.9581,422.1384,534.0708,413.9796,530.2086,418.4105,538.9581,422.1384" style="stroke:#000000;stroke-width:1.0;"/><text fill="#000000" font-family="sans-serif" font-size="13" lengthAdjust="spacing" textLength="51" x="544.189" y="423.897">classifies</text><text fill="#000000" font-family="sans-serif" font-size="13" lengthAdjust="spacing" textLength="7" x="461.6823" y="392.0236">1</text><text fill="#000000" font-family="sans-serif" font-size="13" lengthAdjust="spacing" textLength="20" x="546.2431" y="462.5491">1..*</text></g><!--link Sale to Property--><g id="link_Sale_Property"><path codeLine="179" d="M119.879,360.69 C134.419,384.81 158.999,418.94 190.189,437 C254.289,474.1 463.859,497.38 574.059,507.35 " fill="none" id="Sale-Property" style="stroke:#181818;stroke-width:1.0;"/><polygon fill="#000000" points="190.4309,417.3166,198.1353,422.8927,199.9414,417.2993,190.4309,417.3166" style="stroke:#000000;stroke-width:1.0;"/><text fill="#000000" font-family="sans-serif" font-size="13" lengthAdjust="spacing" textLength="69" x="204.189" y="423.897">classified as</text><text fill="#000000" font-family="sans-serif" font-size="13" lengthAdjust="spacing" textLength="20" x="100.9049" y="382.6753">0..*</text><text fill="#000000" font-family="sans-serif" font-size="13" lengthAdjust="spacing" textLength="7" x="559.1151" y="502.6137">1</text></g><!--link Sale to Property--><g id="link_Sale_Property"><path codeLine="180" d="M84.799,360.72 C70.369,383.55 56.589,415.74 75.189,437 C107.619,474.06 429.669,499.26 573.929,508.77 " fill="none" id="Sale-Property-1" style="stroke:#181818;stroke-width:1.0;"/><polygon fill="#000000" points="84.9746,420.3015,77.1688,414.8682,75.466,420.494,84.9746,420.3015" style="stroke:#000000;stroke-width:1.0;"/><text fill="#000000" font-family="sans-serif" font-size="13" lengthAdjust="spacing" textLength="51" x="89.189" y="423.897">classifies</text><text fill="#000000" font-family="sans-serif" font-size="13" lengthAdjust="spacing" textLength="7" x="72.573" y="382.7119">1</text><text fill="#000000" font-family="sans-serif" font-size="13" lengthAdjust="spacing" textLength="20" x="546.1268" y="523.0103">1..*</text></g><!--SRC=[ZLPDZzis4BthLn2-62ZWDEqn21PmxGLQOBDhP8FSQN4i4QP8PKZ5qIRzxnr-IA8KErrVJ0sV7ZblPfvjprAt77d36gDDMQDfW3dieB3ZJilBCw_WsVKA64BfkAvK3h0r5-OYTSLEN5aerjEMaXfStm8pw6fJh1MS77E6eQngnuJqTDBeZAnKtDgjSoYFdOD_IgEVvGkmjqKj1R1IOabdXtK3H2biKQoTT7IrlMcurEo34Q0e68ZOGN5tCjYmxyMQiOq0Mw9imvdhVuiYWhOLwBB_NZ3wI16-22WhpGFGFmDngwqG2DQ6G5iR3OzTSmGi9YBHI2sjG-uCvknkUDYPff7M4cqypelpT9gY8LYEZv-vebgC_Cz42n-ufdBWBFO8xcBmlDZQAPaTVG2qmx7-eta3uqDBY9QAjECeAAinxlYtbEGG-Kc9cseyNVHqbxzDPo4UVkGM6d-neBUk-L4wVbJmO4unPZjz_wqrjiEGUohbbXh4DLb2-mieQh0gikgk-Gi46jFOyPcxUXOuSAH6gvwffS5cr0zSYu7r_aids_oO0veMqAN-u0Wy5acwVaSmm3rLdEioYjcYBBEA7MhZJ8MyhUFhTD_p9pD59-HzqohJ0scKAOWLr_8bjE57ev9-IAj7NxmHzn6-T61Tt6wxev9bU6VFNORQQcqwkgTFBYMJHUROpzBA1FhgbmkcMFwuJ-qEu4PD7eUs4duGPEd60AdaO5kYqNrii1VPxcXQCxMIr9zeAb8oMMJ2FG0VcadvPHoJE3gQfgzq-mxZy4wpmmVzBAqMW_M40Z3k6h_SDgIBy_ifLRRwOyKsc_0L1uczOygGp20OT-pzDM3qbIMmIE4CcCyrmPkmifvq0NtpvhVLs2c4D1TjsHrHPeMSNJN9Hr2l3FbZW2_xYht_GI_CtUi69fZPzRsPE_q2iZIhdw0fpvH3bcwhU6-3XFbLRyk3K168okMJZcwu06S27RlU_eu4yUYhu30KWJQCsqrSwAPuNVAPABYFlA8mtZ8NRBFQ-kOuHyuqzAzW7SDvRwPsdJNdtGGDvHeSjbZFuz4l9nTRL6mre5T4N_DGiO5gMQp1RHFohbYFoDXme-lFu-7t9CwI-xLW25ybN3prDV2WuhlecxQ6MyYX-hQiGNGg5c7wvLuEleSAED4Ve91_VFl_2r3a7dYxMVqRbK7wQoJOiVS7N1cjyVK_eow37Gt-SgFXXcCeLL9ycec8tMn-t2KBfCj6AmmLIVysyj0mYaKH79kjtkPjagVZNLYUf5V1ovNWDxCVu247x-olfuxeLp7_1m00]--></g></svg>