<?xml version="1.0" encoding="us-ascii" standalone="no"?><svg xmlns="http://www.w3.org/2000/svg" xmlns:xlink="http://www.w3.org/1999/xlink" contentStyleType="text/css" height="359px" preserveAspectRatio="none" style="width:791px;height:359px;background:#FFFFFF;" version="1.1" viewBox="0 0 791 359" width="791px" zoomAndPan="magnify"><defs/><g><rect fill="#FFFFFF" height="192.2361" style="stroke:#181818;stroke-width:1.0;" width="10" x="182" y="91.8419"/><rect fill="#FFFFFF" height="31.706" style="stroke:#181818;stroke-width:1.0;" width="10" x="556.5" y="213.6659"/><rect fill="#FFFFFF" height="31.706" style="stroke:#181818;stroke-width:1.0;" width="10" x="720" y="150.2539"/><rect fill="none" height="146.5301" style="stroke:#000000;stroke-width:1.5;" width="698" x="87.5" y="106.8419"/><line style="stroke:#181818;stroke-width:0.5;stroke-dasharray:5.0,5.0;" x1="186.5" x2="186.5" y1="58.1358" y2="302.0779"/><line style="stroke:#181818;stroke-width:0.5;stroke-dasharray:5.0,5.0;" x1="367.5" x2="367.5" y1="58.1358" y2="302.0779"/><line style="stroke:#181818;stroke-width:0.5;stroke-dasharray:5.0,5.0;" x1="561.5" x2="561.5" y1="58.1358" y2="302.0779"/><line style="stroke:#181818;stroke-width:0.5;stroke-dasharray:5.0,5.0;" x1="724.5" x2="724.5" y1="58.1358" y2="302.0779"/><rect fill="#E3E3E3" height="33.0679" rx="2.5" ry="2.5" style="stroke:#181818;stroke-width:0.5;" width="179" x="97.5" y="24.0679"/><text fill="#000000" font-family="sans-serif" font-size="14" lengthAdjust="spacing" textLength="165" x="104.5" y="46.0339">:VisitiScheduleController</text><rect fill="#E3E3E3" height="33.0679" rx="2.5" ry="2.5" style="stroke:#181818;stroke-width:0.5;" width="179" x="97.5" y="301.0779"/><text fill="#000000" font-family="sans-serif" font-size="14" lengthAdjust="spacing" textLength="165" x="104.5" y="323.0439">:VisitiScheduleController</text><rect fill="#E3E3E3" height="33.0679" rx="2.5" ry="2.5" style="stroke:#181818;stroke-width:0.5;" width="162" x="286.5" y="24.0679"/><text fill="#000000" font-family="sans-serif" font-size="14" lengthAdjust="spacing" textLength="148" x="293.5" y="46.0339">:visitScheduleRequest</text><rect fill="#E3E3E3" height="33.0679" rx="2.5" ry="2.5" style="stroke:#181818;stroke-width:0.5;" width="162" x="286.5" y="301.0779"/><text fill="#000000" font-family="sans-serif" font-size="14" lengthAdjust="spacing" textLength="148" x="293.5" y="323.0439">:visitScheduleRequest</text><rect fill="#E3E3E3" height="52.1358" rx="2.5" ry="2.5" style="stroke:#181818;stroke-width:0.5;" width="206" x="458.5" y="5"/><text fill="#000000" font-family="sans-serif" font-size="14" lengthAdjust="spacing" textLength="191" x="466" y="26.9659">scheduleRequestRepository:</text><text fill="#000000" font-family="sans-serif" font-size="14" lengthAdjust="spacing" textLength="188" x="469.5" y="46.0339">ScheduleRequestRepository</text><rect fill="#E3E3E3" height="52.1358" rx="2.5" ry="2.5" style="stroke:#181818;stroke-width:0.5;" width="206" x="458.5" y="301.0779"/><text fill="#000000" font-family="sans-serif" font-size="14" lengthAdjust="spacing" textLength="191" x="466" y="323.0439">scheduleRequestRepository:</text><text fill="#000000" font-family="sans-serif" font-size="14" lengthAdjust="spacing" textLength="188" x="469.5" y="342.1118">ScheduleRequestRepository</text><rect fill="#E3E3E3" height="33.0679" rx="2.5" ry="2.5" style="stroke:#181818;stroke-width:0.5;" width="101" x="674.5" y="24.0679"/><text fill="#000000" font-family="sans-serif" font-size="14" lengthAdjust="spacing" textLength="87" x="681.5" y="46.0339">:Repositories</text><rect fill="#E3E3E3" height="33.0679" rx="2.5" ry="2.5" style="stroke:#181818;stroke-width:0.5;" width="101" x="674.5" y="301.0779"/><text fill="#000000" font-family="sans-serif" font-size="14" lengthAdjust="spacing" textLength="87" x="681.5" y="323.0439">:Repositories</text><rect fill="#FFFFFF" height="192.2361" style="stroke:#181818;stroke-width:1.0;" width="10" x="182" y="91.8419"/><rect fill="#FFFFFF" height="31.706" style="stroke:#181818;stroke-width:1.0;" width="10" x="556.5" y="213.6659"/><rect fill="#FFFFFF" height="31.706" style="stroke:#181818;stroke-width:1.0;" width="10" x="720" y="150.2539"/><polygon fill="#181818" points="170,87.8419,180,91.8419,170,95.8419,174,91.8419" style="stroke:#181818;stroke-width:1.0;"/><line style="stroke:#181818;stroke-width:1.0;" x1="0" x2="176" y1="91.8419" y2="91.8419"/><text fill="#000000" font-family="sans-serif" font-size="13" font-weight="bold" lengthAdjust="spacing" textLength="14" x="7" y="86.0328">15</text><text fill="#000000" font-family="sans-serif" font-size="13" lengthAdjust="spacing" textLength="145" x="25" y="86.0328">submitScheduleRequest</text><path d="M87.5,106.8419 L299.5,106.8419 L299.5,116.5479 L289.5,126.5479 L87.5,126.5479 L87.5,106.8419 " fill="#EEEEEE" style="stroke:#000000;stroke-width:1.5;"/><rect fill="none" height="146.5301" style="stroke:#000000;stroke-width:1.5;" width="698" x="87.5" y="106.8419"/><text fill="#000000" font-family="sans-serif" font-size="13" font-weight="bold" lengthAdjust="spacing" textLength="167" x="102.5" y="121.7389">Submit Schedule Request</text><polygon fill="#181818" points="708,146.2539,718,150.2539,708,154.2539,712,150.2539" style="stroke:#181818;stroke-width:1.0;"/><line style="stroke:#181818;stroke-width:1.0;" x1="192" x2="714" y1="150.2539" y2="150.2539"/><text fill="#000000" font-family="sans-serif" font-size="13" font-weight="bold" lengthAdjust="spacing" textLength="25" x="199" y="144.4449">15.1</text><text fill="#000000" font-family="sans-serif" font-size="13" lengthAdjust="spacing" textLength="188" x="228" y="144.4449">getScheduleRequestRepository</text><polygon fill="#181818" points="203,177.9599,193,181.9599,203,185.9599,199,181.9599" style="stroke:#181818;stroke-width:1.0;"/><line style="stroke:#181818;stroke-width:1.0;" x1="197" x2="724" y1="181.9599" y2="181.9599"/><text fill="#000000" font-family="sans-serif" font-size="13" font-weight="bold" lengthAdjust="spacing" textLength="25" x="209" y="176.1509">15.2</text><text fill="#000000" font-family="sans-serif" font-size="13" lengthAdjust="spacing" textLength="167" x="238" y="176.1509">scheduleRequestRepository</text><polygon fill="#181818" points="544.5,209.6659,554.5,213.6659,544.5,217.6659,548.5,213.6659" style="stroke:#181818;stroke-width:1.0;"/><line style="stroke:#181818;stroke-width:1.0;" x1="192" x2="550.5" y1="213.6659" y2="213.6659"/><text fill="#000000" font-family="sans-serif" font-size="13" font-weight="bold" lengthAdjust="spacing" textLength="25" x="199" y="207.8569">15.3</text><text fill="#000000" font-family="sans-serif" font-size="13" lengthAdjust="spacing" textLength="189" x="228" y="207.8569">getScheduleRequestList (Client)</text><polygon fill="#181818" points="203,241.3719,193,245.3719,203,249.3719,199,245.3719" style="stroke:#181818;stroke-width:1.0;"/><line style="stroke:#181818;stroke-width:1.0;" x1="197" x2="560.5" y1="245.3719" y2="245.3719"/><text fill="#000000" font-family="sans-serif" font-size="13" font-weight="bold" lengthAdjust="spacing" textLength="25" x="209" y="239.5629">15.4</text><text fill="#000000" font-family="sans-serif" font-size="13" lengthAdjust="spacing" textLength="3" x="238" y="239.5629">&#160;</text><polygon fill="#181818" points="11,280.0779,1,284.0779,11,288.0779,7,284.0779" style="stroke:#181818;stroke-width:1.0;"/><line style="stroke:#181818;stroke-width:1.0;stroke-dasharray:2.0,2.0;" x1="5" x2="186" y1="284.0779" y2="284.0779"/><text fill="#000000" font-family="sans-serif" font-size="13" font-weight="bold" lengthAdjust="spacing" textLength="14" x="17" y="278.2689">16</text><text fill="#000000" font-family="sans-serif" font-size="13" lengthAdjust="spacing" textLength="3" x="35" y="278.2689">&#160;</text><!--SRC=[ZP6nKiCm38PtFuMk2p2Kkmumv3YMh9qQZed5JTJ4LySAjbpessESYt5AUg355-dJhr-HEoepI2jxwCbGtLdg4TXw52vL1baVPOiLdpM2nPgbQNKEk4uszA5C2mUf7OeGDvrg40v4lAVFy1r0LhKQf65O5Q_AALPLtM7ZDPPas9BMQ5SW7PGlk-q5V_hc9to7xnuTHpOMvh2ROpiSA31apyMRWUfQCQg5raQ7tCNqH2bqaRDPGWZfcOplzsXXyo3Mpt41AC3vVV_BzPo-tmXPipf9nd5j0I5QItw0AhOdnp09Y14Q8uuA8tD7ONIBV7NJh3lDdY_q0ynaiyt-eTtWd-gJ-UctBnhVAiTmMsg5Xk-MlAUZPSMac3mlEvltecdYcv_eCMQUrkj99-kE5_i2]--></g></svg>