<?xml version="1.0" encoding="us-ascii" standalone="no"?><svg xmlns="http://www.w3.org/2000/svg" xmlns:xlink="http://www.w3.org/1999/xlink" contentStyleType="text/css" height="613px" preserveAspectRatio="none" style="width:519px;height:613px;background:#FFFFFF;" version="1.1" viewBox="0 0 519 613" width="519px" zoomAndPan="magnify"><defs/><g><text fill="#000000" font-family="sans-serif" font-size="14" font-weight="bold" lengthAdjust="spacing" textLength="224" x="149.25" y="29.9659">System Sequence Diagram (SSD)</text><rect fill="#FFFFFF" height="387.1782" style="stroke:#181818;stroke-width:1.0;" width="10" x="64.5" y="134.1358"/><rect fill="#FFFFFF" height="67.118" style="stroke:#181818;stroke-width:1.0;" width="10" x="465.5" y="157.8419"/><rect fill="#FFFFFF" height="31.706" style="stroke:#181818;stroke-width:1.0;" width="10" x="465.5" y="256.6659"/><rect fill="#FFFFFF" height="38.706" style="stroke:#181818;stroke-width:1.0;" width="10" x="465.5" y="346.784"/><rect fill="#FFFFFF" height="31.706" style="stroke:#181818;stroke-width:1.0;" width="10" x="465.5" y="417.196"/><rect fill="#FFFFFF" height="31.706" style="stroke:#181818;stroke-width:1.0;" width="10" x="465.5" y="480.608"/><rect fill="none" height="51.412" style="stroke:#000000;stroke-width:1.5;" width="503.5" x="10" y="303.3719"/><line style="stroke:#181818;stroke-width:0.5;stroke-dasharray:5.0,5.0;" x1="69" x2="69" y1="124.1358" y2="530.314"/><line style="stroke:#181818;stroke-width:0.5;stroke-dasharray:5.0,5.0;" x1="470.5" x2="470.5" y1="124.1358" y2="530.314"/><text fill="#000000" font-family="sans-serif" font-size="14" lengthAdjust="spacing" textLength="93" x="20" y="120.0339">Administrator</text><ellipse cx="69.5" cy="53.5679" fill="#E3E3E3" rx="8" ry="8" style="stroke:#181818;stroke-width:0.5;"/><path d="M69.5,61.5679 L69.5,88.5679 M56.5,69.5679 L82.5,69.5679 M69.5,88.5679 L56.5,103.5679 M69.5,88.5679 L82.5,103.5679 " fill="none" style="stroke:#181818;stroke-width:0.5;"/><text fill="#000000" font-family="sans-serif" font-size="14" lengthAdjust="spacing" textLength="93" x="20" y="544.28">Administrator</text><ellipse cx="69.5" cy="556.882" fill="#E3E3E3" rx="8" ry="8" style="stroke:#181818;stroke-width:0.5;"/><path d="M69.5,564.882 L69.5,591.882 M56.5,572.882 L82.5,572.882 M69.5,591.882 L56.5,606.882 M69.5,591.882 L82.5,606.882 " fill="none" style="stroke:#181818;stroke-width:0.5;"/><rect fill="#E3E3E3" height="33.0679" rx="2.5" ry="2.5" style="stroke:#181818;stroke-width:0.5;" width="66" x="437.5" y="90.0679"/><text fill="#000000" font-family="sans-serif" font-size="14" lengthAdjust="spacing" textLength="52" x="444.5" y="112.0339">:System</text><rect fill="#E3E3E3" height="33.0679" rx="2.5" ry="2.5" style="stroke:#181818;stroke-width:0.5;" width="66" x="437.5" y="529.314"/><text fill="#000000" font-family="sans-serif" font-size="14" lengthAdjust="spacing" textLength="52" x="444.5" y="551.28">:System</text><rect fill="#FFFFFF" height="387.1782" style="stroke:#181818;stroke-width:1.0;" width="10" x="64.5" y="134.1358"/><rect fill="#FFFFFF" height="67.118" style="stroke:#181818;stroke-width:1.0;" width="10" x="465.5" y="157.8419"/><rect fill="#FFFFFF" height="31.706" style="stroke:#181818;stroke-width:1.0;" width="10" x="465.5" y="256.6659"/><rect fill="#FFFFFF" height="38.706" style="stroke:#181818;stroke-width:1.0;" width="10" x="465.5" y="346.784"/><rect fill="#FFFFFF" height="31.706" style="stroke:#181818;stroke-width:1.0;" width="10" x="465.5" y="417.196"/><rect fill="#FFFFFF" height="31.706" style="stroke:#181818;stroke-width:1.0;" width="10" x="465.5" y="480.608"/><polygon fill="#181818" points="453.5,153.8419,463.5,157.8419,453.5,161.8419,457.5,157.8419" style="stroke:#181818;stroke-width:1.0;"/><line style="stroke:#181818;stroke-width:1.0;" x1="74.5" x2="459.5" y1="157.8419" y2="157.8419"/><text fill="#000000" font-family="sans-serif" font-size="13" font-weight="bold" lengthAdjust="spacing" textLength="7" x="81.5" y="152.0328">1</text><text fill="#000000" font-family="sans-serif" font-size="13" lengthAdjust="spacing" textLength="191" x="92.5" y="152.0328">asks to register a new employee</text><polygon fill="#181818" points="85.5,220.9599,75.5,224.9599,85.5,228.9599,81.5,224.9599" style="stroke:#181818;stroke-width:1.0;"/><line style="stroke:#181818;stroke-width:1.0;stroke-dasharray:2.0,2.0;" x1="79.5" x2="469.5" y1="224.9599" y2="224.9599"/><text fill="#000000" font-family="sans-serif" font-size="13" font-weight="bold" lengthAdjust="spacing" textLength="7" x="91.5" y="201.4449">2</text><text fill="#000000" font-family="sans-serif" font-size="13" lengthAdjust="spacing" textLength="211" x="102.5" y="183.7389">requests data (name, passport card</text><text fill="#000000" font-family="sans-serif" font-size="13" lengthAdjust="spacing" textLength="268" x="102.5" y="201.4449">number, tax number, address, email address,</text><text fill="#000000" font-family="sans-serif" font-size="13" lengthAdjust="spacing" textLength="164" x="102.5" y="219.1509">contact telephone number)</text><polygon fill="#181818" points="453.5,252.6659,463.5,256.6659,453.5,260.6659,457.5,256.6659" style="stroke:#181818;stroke-width:1.0;"/><line style="stroke:#181818;stroke-width:1.0;" x1="74.5" x2="459.5" y1="256.6659" y2="256.6659"/><text fill="#000000" font-family="sans-serif" font-size="13" font-weight="bold" lengthAdjust="spacing" textLength="7" x="81.5" y="250.8569">3</text><text fill="#000000" font-family="sans-serif" font-size="13" lengthAdjust="spacing" textLength="127" x="92.5" y="250.8569">types requested data</text><polygon fill="#181818" points="85.5,284.3719,75.5,288.3719,85.5,292.3719,81.5,288.3719" style="stroke:#181818;stroke-width:1.0;"/><line style="stroke:#181818;stroke-width:1.0;stroke-dasharray:2.0,2.0;" x1="79.5" x2="469.5" y1="288.3719" y2="288.3719"/><text fill="#000000" font-family="sans-serif" font-size="13" font-weight="bold" lengthAdjust="spacing" textLength="7" x="91.5" y="282.5629">4</text><text fill="#000000" font-family="sans-serif" font-size="13" lengthAdjust="spacing" textLength="198" x="102.5" y="282.5629">shows roles list and asks to select</text><path d="M10,303.3719 L83,303.3719 L83,313.0779 L73,323.0779 L10,323.0779 L10,303.3719 " fill="#EEEEEE" style="stroke:#000000;stroke-width:1.5;"/><rect fill="none" height="51.412" style="stroke:#000000;stroke-width:1.5;" width="503.5" x="10" y="303.3719"/><text fill="#000000" font-family="sans-serif" font-size="13" font-weight="bold" lengthAdjust="spacing" textLength="28" x="25" y="318.2689">loop</text><text fill="#000000" font-family="sans-serif" font-size="11" font-weight="bold" lengthAdjust="spacing" textLength="188" x="98" y="317.1308">[until all wanted roles are chosen]</text><polygon fill="#181818" points="453.5,342.784,463.5,346.784,453.5,350.784,457.5,346.784" style="stroke:#181818;stroke-width:1.0;"/><line style="stroke:#181818;stroke-width:1.0;" x1="74.5" x2="459.5" y1="346.784" y2="346.784"/><text fill="#000000" font-family="sans-serif" font-size="13" font-weight="bold" lengthAdjust="spacing" textLength="7" x="81.5" y="340.975">5</text><text fill="#000000" font-family="sans-serif" font-size="13" lengthAdjust="spacing" textLength="66" x="92.5" y="340.975">selects role</text><polygon fill="#181818" points="85.5,381.49,75.5,385.49,85.5,389.49,81.5,385.49" style="stroke:#181818;stroke-width:1.0;"/><line style="stroke:#181818;stroke-width:1.0;stroke-dasharray:2.0,2.0;" x1="79.5" x2="469.5" y1="385.49" y2="385.49"/><text fill="#000000" font-family="sans-serif" font-size="13" font-weight="bold" lengthAdjust="spacing" textLength="7" x="91.5" y="379.681">6</text><text fill="#000000" font-family="sans-serif" font-size="13" lengthAdjust="spacing" textLength="247" x="102.5" y="379.681">shows agencies list and asks to select one</text><polygon fill="#181818" points="453.5,413.196,463.5,417.196,453.5,421.196,457.5,417.196" style="stroke:#181818;stroke-width:1.0;"/><line style="stroke:#181818;stroke-width:1.0;" x1="74.5" x2="459.5" y1="417.196" y2="417.196"/><text fill="#000000" font-family="sans-serif" font-size="13" font-weight="bold" lengthAdjust="spacing" textLength="7" x="81.5" y="411.387">7</text><text fill="#000000" font-family="sans-serif" font-size="13" lengthAdjust="spacing" textLength="86" x="92.5" y="411.387">selects agency</text><polygon fill="#181818" points="85.5,444.902,75.5,448.902,85.5,452.902,81.5,448.902" style="stroke:#181818;stroke-width:1.0;"/><line style="stroke:#181818;stroke-width:1.0;stroke-dasharray:2.0,2.0;" x1="79.5" x2="469.5" y1="448.902" y2="448.902"/><text fill="#000000" font-family="sans-serif" font-size="13" font-weight="bold" lengthAdjust="spacing" textLength="7" x="91.5" y="443.093">8</text><text fill="#000000" font-family="sans-serif" font-size="13" lengthAdjust="spacing" textLength="356" x="102.5" y="443.093">shows selected and requested data and asks to submit data</text><polygon fill="#181818" points="453.5,476.608,463.5,480.608,453.5,484.608,457.5,480.608" style="stroke:#181818;stroke-width:1.0;"/><line style="stroke:#181818;stroke-width:1.0;" x1="74.5" x2="459.5" y1="480.608" y2="480.608"/><text fill="#000000" font-family="sans-serif" font-size="13" font-weight="bold" lengthAdjust="spacing" textLength="7" x="81.5" y="474.799">9</text><text fill="#000000" font-family="sans-serif" font-size="13" lengthAdjust="spacing" textLength="78" x="92.5" y="474.799">submits data</text><polygon fill="#181818" points="85.5,508.314,75.5,512.314,85.5,516.314,81.5,512.314" style="stroke:#181818;stroke-width:1.0;"/><line style="stroke:#181818;stroke-width:1.0;stroke-dasharray:2.0,2.0;" x1="79.5" x2="469.5" y1="512.314" y2="512.314"/><text fill="#000000" font-family="sans-serif" font-size="13" font-weight="bold" lengthAdjust="spacing" textLength="14" x="91.5" y="506.505">10</text><text fill="#000000" font-family="sans-serif" font-size="13" lengthAdjust="spacing" textLength="148" x="109.5" y="506.505">shows operation success</text><!--SRC=[hPD1Rjmm34NtFWKngmION60M1Gha1jvcmqYCBOn4gIBTgMyVZZrswg1kaQHUIHJr-JufopbmmOe9KkRi-feJWTQ16bbF2hepTjJg60agEKNkuky9qgFFby0Tl60KQXeDQgdjA4e9Mlen43k2nu3TDVskRH_lcmO7pJoaPwgsTfeh7Bxx53Y8LhJj0L1W4scid0ON2hB2uJJhJsdpSj89Fr7ftRq6xDk4uE7RmdSoWRE0PlFMsJbLG62w0AKIyqWqtLwLbr9m-sug3oQuhN0oFNCkAk1H4UuO4nsjco8bLmM7rSCJpoquWk8lMDReVIMHeo5WY6_R9tQPrL10ALBfCzFjplt4u-cFcFlETIma2oVv2VJJTgNF5nFBqIIZnG7PhxqL0tRwDygOSu61zMeuHhZOa8rebiDAuFein2l8lgcvr4oofhylUOqH-myOir-0NTZt1ZQDpqrX0PugZ5_i_oncdRiIRYUxXHwUKz2tYUzG_uDy4f7_yMvo8Gk4p2Rgd3tt7QfN]--></g></svg>