<?xml version="1.0" encoding="us-ascii" standalone="no"?><svg xmlns="http://www.w3.org/2000/svg" xmlns:xlink="http://www.w3.org/1999/xlink" contentStyleType="text/css" height="422px" preserveAspectRatio="none" style="width:768px;height:422px;background:#FFFFFF;" version="1.1" viewBox="0 0 768 422" width="768px" zoomAndPan="magnify"><defs/><g><rect fill="#FFFFFF" height="255.6481" style="stroke:#181818;stroke-width:1.0;" width="10" x="274" y="91.8419"/><rect fill="#FFFFFF" height="31.706" style="stroke:#181818;stroke-width:1.0;" width="10" x="437.5" y="150.2539"/><rect fill="#FFFFFF" height="31.706" style="stroke:#181818;stroke-width:1.0;" width="10" x="548.5" y="213.6659"/><rect fill="#FFFFFF" height="31.706" style="stroke:#181818;stroke-width:1.0;" width="10" x="678" y="277.0779"/><rect fill="none" height="209.9421" style="stroke:#000000;stroke-width:1.5;" width="596" x="166" y="106.8419"/><line style="stroke:#181818;stroke-width:0.5;stroke-dasharray:5.0,5.0;" x1="279" x2="279" y1="58.1358" y2="365.49"/><line style="stroke:#181818;stroke-width:0.5;stroke-dasharray:5.0,5.0;" x1="442" x2="442" y1="58.1358" y2="365.49"/><line style="stroke:#181818;stroke-width:0.5;stroke-dasharray:5.0,5.0;" x1="553" x2="553" y1="58.1358" y2="365.49"/><line style="stroke:#181818;stroke-width:0.5;stroke-dasharray:5.0,5.0;" x1="683" x2="683" y1="58.1358" y2="365.49"/><rect fill="#E3E3E3" height="33.0679" rx="2.5" ry="2.5" style="stroke:#181818;stroke-width:0.5;" width="206" x="176" y="24.0679"/><text fill="#000000" font-family="sans-serif" font-size="14" lengthAdjust="spacing" textLength="192" x="183" y="46.0339">:RegisterEmployeeController</text><rect fill="#E3E3E3" height="33.0679" rx="2.5" ry="2.5" style="stroke:#181818;stroke-width:0.5;" width="206" x="176" y="364.49"/><text fill="#000000" font-family="sans-serif" font-size="14" lengthAdjust="spacing" textLength="192" x="183" y="386.4559">:RegisterEmployeeController</text><rect fill="#E3E3E3" height="33.0679" rx="2.5" ry="2.5" style="stroke:#181818;stroke-width:0.5;" width="101" x="392" y="24.0679"/><text fill="#000000" font-family="sans-serif" font-size="14" lengthAdjust="spacing" textLength="87" x="399" y="46.0339">:Repositories</text><rect fill="#E3E3E3" height="33.0679" rx="2.5" ry="2.5" style="stroke:#181818;stroke-width:0.5;" width="101" x="392" y="364.49"/><text fill="#000000" font-family="sans-serif" font-size="14" lengthAdjust="spacing" textLength="87" x="399" y="386.4559">:Repositories</text><rect fill="#E3E3E3" height="52.1358" rx="2.5" ry="2.5" style="stroke:#181818;stroke-width:0.5;" width="101" x="503" y="5"/><text fill="#000000" font-family="sans-serif" font-size="14" lengthAdjust="spacing" textLength="80" x="513.5" y="26.9659">repositories</text><text fill="#000000" font-family="sans-serif" font-size="14" lengthAdjust="spacing" textLength="87" x="510" y="46.0339">:Repositories</text><rect fill="#E3E3E3" height="52.1358" rx="2.5" ry="2.5" style="stroke:#181818;stroke-width:0.5;" width="101" x="503" y="364.49"/><text fill="#000000" font-family="sans-serif" font-size="14" lengthAdjust="spacing" textLength="80" x="513.5" y="386.4559">repositories</text><text fill="#000000" font-family="sans-serif" font-size="14" lengthAdjust="spacing" textLength="87" x="510" y="405.5238">:Repositories</text><rect fill="#E3E3E3" height="52.1358" rx="2.5" ry="2.5" style="stroke:#181818;stroke-width:0.5;" width="138" x="614" y="5"/><text fill="#000000" font-family="sans-serif" font-size="14" lengthAdjust="spacing" textLength="119" x="623.5" y="26.9659">agencyRepository</text><text fill="#000000" font-family="sans-serif" font-size="14" lengthAdjust="spacing" textLength="124" x="621" y="46.0339">:AgencyRepository</text><rect fill="#E3E3E3" height="52.1358" rx="2.5" ry="2.5" style="stroke:#181818;stroke-width:0.5;" width="138" x="614" y="364.49"/><text fill="#000000" font-family="sans-serif" font-size="14" lengthAdjust="spacing" textLength="119" x="623.5" y="386.4559">agencyRepository</text><text fill="#000000" font-family="sans-serif" font-size="14" lengthAdjust="spacing" textLength="124" x="621" y="405.5238">:AgencyRepository</text><rect fill="#FFFFFF" height="255.6481" style="stroke:#181818;stroke-width:1.0;" width="10" x="274" y="91.8419"/><rect fill="#FFFFFF" height="31.706" style="stroke:#181818;stroke-width:1.0;" width="10" x="437.5" y="150.2539"/><rect fill="#FFFFFF" height="31.706" style="stroke:#181818;stroke-width:1.0;" width="10" x="548.5" y="213.6659"/><rect fill="#FFFFFF" height="31.706" style="stroke:#181818;stroke-width:1.0;" width="10" x="678" y="277.0779"/><polygon fill="#181818" points="262,87.8419,272,91.8419,262,95.8419,266,91.8419" style="stroke:#181818;stroke-width:1.0;"/><line style="stroke:#181818;stroke-width:1.0;" x1="0" x2="268" y1="91.8419" y2="91.8419"/><text fill="#000000" font-family="sans-serif" font-size="13" font-weight="bold" lengthAdjust="spacing" textLength="14" x="7" y="86.0328">16</text><text fill="#000000" font-family="sans-serif" font-size="13" lengthAdjust="spacing" textLength="237" x="25" y="86.0328">getAgenciesBySelection(chosenAgency)</text><path d="M166,106.8419 L285,106.8419 L285,116.5479 L275,126.5479 L166,126.5479 L166,106.8419 " fill="#EEEEEE" style="stroke:#000000;stroke-width:1.5;"/><rect fill="none" height="209.9421" style="stroke:#000000;stroke-width:1.5;" width="596" x="166" y="106.8419"/><text fill="#000000" font-family="sans-serif" font-size="13" font-weight="bold" lengthAdjust="spacing" textLength="74" x="181" y="121.7389">Get Agency</text><polygon fill="#181818" points="425.5,146.2539,435.5,150.2539,425.5,154.2539,429.5,150.2539" style="stroke:#181818;stroke-width:1.0;"/><line style="stroke:#181818;stroke-width:1.0;" x1="284" x2="431.5" y1="150.2539" y2="150.2539"/><text fill="#000000" font-family="sans-serif" font-size="13" font-weight="bold" lengthAdjust="spacing" textLength="25" x="291" y="144.4449">16.1</text><text fill="#000000" font-family="sans-serif" font-size="13" lengthAdjust="spacing" textLength="79" x="320" y="144.4449">getInstance()</text><polygon fill="#181818" points="295,177.9599,285,181.9599,295,185.9599,291,181.9599" style="stroke:#181818;stroke-width:1.0;"/><line style="stroke:#181818;stroke-width:1.0;stroke-dasharray:2.0,2.0;" x1="289" x2="441.5" y1="181.9599" y2="181.9599"/><text fill="#000000" font-family="sans-serif" font-size="13" font-weight="bold" lengthAdjust="spacing" textLength="25" x="301" y="176.1509">16.2</text><text fill="#000000" font-family="sans-serif" font-size="13" lengthAdjust="spacing" textLength="71" x="330" y="176.1509">repositories</text><polygon fill="#181818" points="536.5,209.6659,546.5,213.6659,536.5,217.6659,540.5,213.6659" style="stroke:#181818;stroke-width:1.0;"/><line style="stroke:#181818;stroke-width:1.0;" x1="284" x2="542.5" y1="213.6659" y2="213.6659"/><text fill="#000000" font-family="sans-serif" font-size="13" font-weight="bold" lengthAdjust="spacing" textLength="25" x="291" y="207.8569">16.3</text><text fill="#000000" font-family="sans-serif" font-size="13" lengthAdjust="spacing" textLength="137" x="320" y="207.8569">getAgencyRepository()</text><polygon fill="#181818" points="295,241.3719,285,245.3719,295,249.3719,291,245.3719" style="stroke:#181818;stroke-width:1.0;"/><line style="stroke:#181818;stroke-width:1.0;stroke-dasharray:2.0,2.0;" x1="289" x2="552.5" y1="245.3719" y2="245.3719"/><text fill="#000000" font-family="sans-serif" font-size="13" font-weight="bold" lengthAdjust="spacing" textLength="25" x="301" y="239.5629">16.4</text><text fill="#000000" font-family="sans-serif" font-size="13" lengthAdjust="spacing" textLength="108" x="330" y="239.5629">agencyRepository</text><polygon fill="#181818" points="666,273.0779,676,277.0779,666,281.0779,670,277.0779" style="stroke:#181818;stroke-width:1.0;"/><line style="stroke:#181818;stroke-width:1.0;" x1="284" x2="672" y1="277.0779" y2="277.0779"/><text fill="#000000" font-family="sans-serif" font-size="13" font-weight="bold" lengthAdjust="spacing" textLength="25" x="291" y="271.2689">16.5</text><text fill="#000000" font-family="sans-serif" font-size="13" lengthAdjust="spacing" textLength="237" x="320" y="271.2689">getAgenciesBySelection(chosenAgency)</text><polygon fill="#181818" points="295,304.784,285,308.784,295,312.784,291,308.784" style="stroke:#181818;stroke-width:1.0;"/><line style="stroke:#181818;stroke-width:1.0;stroke-dasharray:2.0,2.0;" x1="289" x2="682" y1="308.784" y2="308.784"/><text fill="#000000" font-family="sans-serif" font-size="13" font-weight="bold" lengthAdjust="spacing" textLength="25" x="301" y="302.975">16.6</text><text fill="#000000" font-family="sans-serif" font-size="13" lengthAdjust="spacing" textLength="43" x="330" y="302.975">agency</text><polygon fill="#181818" points="11,343.49,1,347.49,11,351.49,7,347.49" style="stroke:#181818;stroke-width:1.0;"/><line style="stroke:#181818;stroke-width:1.0;stroke-dasharray:2.0,2.0;" x1="5" x2="278" y1="347.49" y2="347.49"/><text fill="#000000" font-family="sans-serif" font-size="13" font-weight="bold" lengthAdjust="spacing" textLength="14" x="17" y="341.681">17</text><text fill="#000000" font-family="sans-serif" font-size="13" lengthAdjust="spacing" textLength="43" x="35" y="341.681">agency</text><!--SRC=[ZL8zQyCm4DtrAqIcP70XImkX5D8GIY53YJDsKPMhBIBV6KbkyR-lB3UER6l8RNw-zw6xinU5jJ2YuXKXoT9G1ToP1fWT_jH2NaG1kMirS0FI2Inqt61BSQPVXGN_5je2OnvsIgfQeEEBpH4APHsOVLLhQW5sXCwGrc0MN5Y-EnqFCqPDLZao2cpe6O0sLvsv8nnJJCJunBd0ns5x6ZFyYr2sDs7FsawWm9o2Z8d6spVL5nY-VcJPItW1t_02N6Zsdgzj3jfFIX4kPKaMi9TPJTWFQm_ujX_Xe1y4zrKOQch-1kxVF81T1IDlc1X7x_-Ercz7md8rS0Rvr0o7hgvIgjdjUV681zuPxjE_9k_s48qgccigSjZQA6FWHw6cMqm56wjSaqpzxrtWBEJyGEB0CvjP-5Jaj2RWkR-D_ZE-fAU0F6VPH9j5ek6-s1y0]--></g></svg>