<?xml version="1.0" encoding="us-ascii" standalone="no"?><svg xmlns="http://www.w3.org/2000/svg" xmlns:xlink="http://www.w3.org/1999/xlink" contentStyleType="text/css" height="1369px" preserveAspectRatio="none" style="width:1266px;height:1369px;background:#FFFFFF;" version="1.1" viewBox="0 0 1266 1369" width="1266px" zoomAndPan="magnify"><defs/><g><rect fill="#FFFFFF" height="1173.675" style="stroke:#181818;stroke-width:1.0;" width="10" x="49.5" y="94.0679"/><rect fill="#FFFFFF" height="75.7739" style="stroke:#181818;stroke-width:1.0;" width="10" x="553.5" y="117.7739"/><rect fill="#FFFFFF" height="256.6303" style="stroke:#181818;stroke-width:1.0;" width="10" x="553.5" y="260.6659"/><rect fill="#FFFFFF" height="31.706" style="stroke:#181818;stroke-width:1.0;" width="10" x="553.5" y="549.0023"/><rect fill="#FFFFFF" height="655.3286" style="stroke:#181818;stroke-width:1.0;" width="10" x="553.5" y="612.4143"/><rect fill="#FFFFFF" height="80.7561" style="stroke:#181818;stroke-width:1.0;" width="10" x="866.5" y="292.3719"/><rect fill="#FFFFFF" height="80.7561" style="stroke:#181818;stroke-width:1.0;" width="10" x="866.5" y="404.8341"/><rect fill="#FFFFFF" height="556.5045" style="stroke:#181818;stroke-width:1.0;" width="10" x="866.5" y="679.5324"/><rect fill="#FFFFFF" height="91.7561" style="stroke:#181818;stroke-width:1.0;" width="10" x="871.5" y="719.2384"/><rect fill="#FFFFFF" height="91.7561" style="stroke:#181818;stroke-width:1.0;" width="10" x="871.5" y="907.7005"/><rect fill="#FFFFFF" height="80.7561" style="stroke:#181818;stroke-width:1.0;" width="10" x="1179.5" y="1123.5747"/><line style="stroke:#181818;stroke-width:0.5;stroke-dasharray:5.0,5.0;" x1="54" x2="54" y1="84.0679" y2="1285.7429"/><line style="stroke:#181818;stroke-width:0.5;stroke-dasharray:5.0,5.0;" x1="558.5" x2="558.5" y1="84.0679" y2="1285.7429"/><line style="stroke:#181818;stroke-width:0.5;stroke-dasharray:5.0,5.0;" x1="871.5" x2="871.5" y1="157.8079" y2="1285.7429"/><line style="stroke:#181818;stroke-width:0.5;stroke-dasharray:5.0,5.0;" x1="1184" x2="1184" y1="84.0679" y2="1285.7429"/><text fill="#000000" font-family="sans-serif" font-size="14" lengthAdjust="spacing" textLength="93" x="5" y="79.9659">Administrator</text><ellipse cx="54.5" cy="13.5" fill="#E3E3E3" rx="8" ry="8" style="stroke:#181818;stroke-width:0.5;"/><path d="M54.5,21.5 L54.5,48.5 M41.5,29.5 L67.5,29.5 M54.5,48.5 L41.5,63.5 M54.5,48.5 L67.5,63.5 " fill="none" style="stroke:#181818;stroke-width:0.5;"/><text fill="#000000" font-family="sans-serif" font-size="14" lengthAdjust="spacing" textLength="93" x="5" y="1299.7089">Administrator</text><ellipse cx="54.5" cy="1312.3108" fill="#E3E3E3" rx="8" ry="8" style="stroke:#181818;stroke-width:0.5;"/><path d="M54.5,1320.3108 L54.5,1347.3108 M41.5,1328.3108 L67.5,1328.3108 M54.5,1347.3108 L41.5,1362.3108 M54.5,1347.3108 L67.5,1362.3108 " fill="none" style="stroke:#181818;stroke-width:0.5;"/><rect fill="#E3E3E3" height="33.0679" rx="2.5" ry="2.5" style="stroke:#181818;stroke-width:0.5;" width="154" x="481.5" y="50"/><text fill="#000000" font-family="sans-serif" font-size="14" lengthAdjust="spacing" textLength="140" x="488.5" y="71.9659">:RegisterEmployeeUI</text><rect fill="#E3E3E3" height="33.0679" rx="2.5" ry="2.5" style="stroke:#181818;stroke-width:0.5;" width="154" x="481.5" y="1284.7429"/><text fill="#000000" font-family="sans-serif" font-size="14" lengthAdjust="spacing" textLength="140" x="488.5" y="1306.7089">:RegisterEmployeeUI</text><rect fill="#E3E3E3" height="33.0679" rx="2.5" ry="2.5" style="stroke:#181818;stroke-width:0.5;" width="206" x="768.5" y="1284.7429"/><text fill="#000000" font-family="sans-serif" font-size="14" lengthAdjust="spacing" textLength="192" x="775.5" y="1306.7089">:RegisterEmployeeController</text><rect fill="#E3E3E3" height="33.0679" rx="2.5" ry="2.5" style="stroke:#181818;stroke-width:0.5;" width="67" x="1151" y="50"/><text fill="#000000" font-family="sans-serif" font-size="14" lengthAdjust="spacing" textLength="53" x="1158" y="71.9659">:Agency</text><rect fill="#E3E3E3" height="33.0679" rx="2.5" ry="2.5" style="stroke:#181818;stroke-width:0.5;" width="67" x="1151" y="1284.7429"/><text fill="#000000" font-family="sans-serif" font-size="14" lengthAdjust="spacing" textLength="53" x="1158" y="1306.7089">:Agency</text><rect fill="#FFFFFF" height="1173.675" style="stroke:#181818;stroke-width:1.0;" width="10" x="49.5" y="94.0679"/><rect fill="#FFFFFF" height="75.7739" style="stroke:#181818;stroke-width:1.0;" width="10" x="553.5" y="117.7739"/><rect fill="#FFFFFF" height="256.6303" style="stroke:#181818;stroke-width:1.0;" width="10" x="553.5" y="260.6659"/><rect fill="#FFFFFF" height="31.706" style="stroke:#181818;stroke-width:1.0;" width="10" x="553.5" y="549.0023"/><rect fill="#FFFFFF" height="655.3286" style="stroke:#181818;stroke-width:1.0;" width="10" x="553.5" y="612.4143"/><rect fill="#FFFFFF" height="80.7561" style="stroke:#181818;stroke-width:1.0;" width="10" x="866.5" y="292.3719"/><rect fill="#FFFFFF" height="80.7561" style="stroke:#181818;stroke-width:1.0;" width="10" x="866.5" y="404.8341"/><rect fill="#FFFFFF" height="556.5045" style="stroke:#181818;stroke-width:1.0;" width="10" x="866.5" y="679.5324"/><rect fill="#FFFFFF" height="91.7561" style="stroke:#181818;stroke-width:1.0;" width="10" x="871.5" y="719.2384"/><rect fill="#FFFFFF" height="91.7561" style="stroke:#181818;stroke-width:1.0;" width="10" x="871.5" y="907.7005"/><rect fill="#FFFFFF" height="80.7561" style="stroke:#181818;stroke-width:1.0;" width="10" x="1179.5" y="1123.5747"/><polygon fill="#181818" points="541.5,113.7739,551.5,117.7739,541.5,121.7739,545.5,117.7739" style="stroke:#181818;stroke-width:1.0;"/><line style="stroke:#181818;stroke-width:1.0;" x1="59.5" x2="547.5" y1="117.7739" y2="117.7739"/><text fill="#000000" font-family="sans-serif" font-size="13" font-weight="bold" lengthAdjust="spacing" textLength="7" x="66.5" y="111.9649">1</text><text fill="#000000" font-family="sans-serif" font-size="13" lengthAdjust="spacing" textLength="191" x="77.5" y="111.9649">asks to register a new employee</text><polygon fill="#181818" points="756.5,145.4799,766.5,149.4799,756.5,153.4799,760.5,149.4799" style="stroke:#181818;stroke-width:1.0;"/><line style="stroke:#181818;stroke-width:1.0;" x1="563.5" x2="762.5" y1="149.4799" y2="149.4799"/><text fill="#000000" font-family="sans-serif" font-size="13" font-weight="bold" lengthAdjust="spacing" textLength="7" x="570.5" y="143.6709">2</text><text fill="#000000" font-family="sans-serif" font-size="13" lengthAdjust="spacing" textLength="37" x="581.5" y="143.6709">create</text><rect fill="#E3E3E3" height="33.0679" rx="2.5" ry="2.5" style="stroke:#181818;stroke-width:0.5;" width="206" x="768.5" y="125.7739"/><text fill="#000000" font-family="sans-serif" font-size="14" lengthAdjust="spacing" textLength="192" x="775.5" y="147.7399">:RegisterEmployeeController</text><polygon fill="#181818" points="70.5,189.5479,60.5,193.5479,70.5,197.5479,66.5,193.5479" style="stroke:#181818;stroke-width:1.0;"/><line style="stroke:#181818;stroke-width:1.0;stroke-dasharray:2.0,2.0;" x1="64.5" x2="557.5" y1="193.5479" y2="193.5479"/><text fill="#000000" font-family="sans-serif" font-size="13" font-weight="bold" lengthAdjust="spacing" textLength="7" x="76.5" y="187.7389">3</text><text fill="#000000" font-family="sans-serif" font-size="13" lengthAdjust="spacing" textLength="82" x="87.5" y="187.7389">requests data</text><polygon fill="#181818" points="541.5,256.6659,551.5,260.6659,541.5,264.6659,545.5,260.6659" style="stroke:#181818;stroke-width:1.0;"/><line style="stroke:#181818;stroke-width:1.0;" x1="59.5" x2="547.5" y1="260.6659" y2="260.6659"/><text fill="#000000" font-family="sans-serif" font-size="13" font-weight="bold" lengthAdjust="spacing" textLength="7" x="66.5" y="237.1509">4</text><text fill="#000000" font-family="sans-serif" font-size="13" lengthAdjust="spacing" textLength="288" x="77.5" y="219.4449">types requested data (name, passportCardNum,</text><text fill="#000000" font-family="sans-serif" font-size="13" lengthAdjust="spacing" textLength="211" x="77.5" y="237.1509">taxNumber, address, emailAddress,</text><text fill="#000000" font-family="sans-serif" font-size="13" lengthAdjust="spacing" textLength="93" x="77.5" y="254.8569">phoneNumber)</text><polygon fill="#181818" points="854.5,288.3719,864.5,292.3719,854.5,296.3719,858.5,292.3719" style="stroke:#181818;stroke-width:1.0;"/><line style="stroke:#181818;stroke-width:1.0;" x1="563.5" x2="860.5" y1="292.3719" y2="292.3719"/><text fill="#000000" font-family="sans-serif" font-size="13" font-weight="bold" lengthAdjust="spacing" textLength="7" x="570.5" y="286.5629">5</text><text fill="#000000" font-family="sans-serif" font-size="13" lengthAdjust="spacing" textLength="60" x="581.5" y="286.5629">getRoles()</text><rect fill="none" height="44.0501" style="stroke:#000000;stroke-width:1.5;" width="212" x="765.5" y="300.3719"/><path d="M765.5,300.3719 L829.5,300.3719 L829.5,309.3719 L819.5,319.3719 L765.5,319.3719 L765.5,300.3719 " fill="#EEEEEE" style="stroke:#000000;stroke-width:2.0;"/><text fill="#000000" font-family="sans-serif" font-size="13" font-weight="bold" lengthAdjust="spacing" textLength="19" x="778.5" y="316.2689">ref</text><text fill="#000000" font-family="sans-serif" font-size="12" lengthAdjust="spacing" textLength="69" x="837" y="336.2">Get Role List</text><polygon fill="#181818" points="574.5,369.1281,564.5,373.1281,574.5,377.1281,570.5,373.1281" style="stroke:#181818;stroke-width:1.0;"/><line style="stroke:#181818;stroke-width:1.0;stroke-dasharray:2.0,2.0;" x1="568.5" x2="870.5" y1="373.1281" y2="373.1281"/><text fill="#000000" font-family="sans-serif" font-size="13" font-weight="bold" lengthAdjust="spacing" textLength="7" x="580.5" y="367.3191">6</text><text fill="#000000" font-family="sans-serif" font-size="13" lengthAdjust="spacing" textLength="44" x="591.5" y="367.3191">roleList</text><polygon fill="#181818" points="854.5,400.8341,864.5,404.8341,854.5,408.8341,858.5,404.8341" style="stroke:#181818;stroke-width:1.0;"/><line style="stroke:#181818;stroke-width:1.0;" x1="563.5" x2="860.5" y1="404.8341" y2="404.8341"/><text fill="#000000" font-family="sans-serif" font-size="13" font-weight="bold" lengthAdjust="spacing" textLength="7" x="570.5" y="399.0251">7</text><text fill="#000000" font-family="sans-serif" font-size="13" lengthAdjust="spacing" textLength="81" x="581.5" y="399.0251">getAgencies()</text><rect fill="none" height="44.0501" style="stroke:#000000;stroke-width:1.5;" width="212" x="765.5" y="412.8341"/><path d="M765.5,412.8341 L829.5,412.8341 L829.5,421.8341 L819.5,431.8341 L765.5,431.8341 L765.5,412.8341 " fill="#EEEEEE" style="stroke:#000000;stroke-width:2.0;"/><text fill="#000000" font-family="sans-serif" font-size="13" font-weight="bold" lengthAdjust="spacing" textLength="19" x="778.5" y="428.7311">ref</text><text fill="#000000" font-family="sans-serif" font-size="12" lengthAdjust="spacing" textLength="86" x="828.5" y="448.6622">Get Agency List</text><polygon fill="#181818" points="574.5,481.5902,564.5,485.5902,574.5,489.5902,570.5,485.5902" style="stroke:#181818;stroke-width:1.0;"/><line style="stroke:#181818;stroke-width:1.0;" x1="568.5" x2="870.5" y1="485.5902" y2="485.5902"/><text fill="#000000" font-family="sans-serif" font-size="13" font-weight="bold" lengthAdjust="spacing" textLength="7" x="580.5" y="479.7812">8</text><text fill="#000000" font-family="sans-serif" font-size="13" lengthAdjust="spacing" textLength="64" x="591.5" y="479.7812">agencyList</text><polygon fill="#181818" points="70.5,513.2963,60.5,517.2963,70.5,521.2963,66.5,517.2963" style="stroke:#181818;stroke-width:1.0;"/><line style="stroke:#181818;stroke-width:1.0;stroke-dasharray:2.0,2.0;" x1="64.5" x2="557.5" y1="517.2963" y2="517.2963"/><text fill="#000000" font-family="sans-serif" font-size="13" font-weight="bold" lengthAdjust="spacing" textLength="7" x="76.5" y="511.4873">9</text><text fill="#000000" font-family="sans-serif" font-size="13" lengthAdjust="spacing" textLength="459" x="87.5" y="511.4873">shows employee's roles list and agencies list and asks to selects from each list</text><polygon fill="#181818" points="541.5,545.0023,551.5,549.0023,541.5,553.0023,545.5,549.0023" style="stroke:#181818;stroke-width:1.0;"/><line style="stroke:#181818;stroke-width:1.0;" x1="59.5" x2="547.5" y1="549.0023" y2="549.0023"/><text fill="#000000" font-family="sans-serif" font-size="13" font-weight="bold" lengthAdjust="spacing" textLength="14" x="66.5" y="543.1933">10</text><text fill="#000000" font-family="sans-serif" font-size="13" lengthAdjust="spacing" textLength="255" x="84.5" y="543.1933">selects one (or more) roles and one agency</text><polygon fill="#181818" points="70.5,576.7083,60.5,580.7083,70.5,584.7083,66.5,580.7083" style="stroke:#181818;stroke-width:1.0;"/><line style="stroke:#181818;stroke-width:1.0;stroke-dasharray:2.0,2.0;" x1="64.5" x2="557.5" y1="580.7083" y2="580.7083"/><text fill="#000000" font-family="sans-serif" font-size="13" font-weight="bold" lengthAdjust="spacing" textLength="14" x="76.5" y="574.8993">11</text><text fill="#000000" font-family="sans-serif" font-size="13" lengthAdjust="spacing" textLength="240" x="94.5" y="574.8993">shows selected data and requested data</text><polygon fill="#181818" points="541.5,608.4143,551.5,612.4143,541.5,616.4143,545.5,612.4143" style="stroke:#181818;stroke-width:1.0;"/><line style="stroke:#181818;stroke-width:1.0;" x1="59.5" x2="547.5" y1="612.4143" y2="612.4143"/><text fill="#000000" font-family="sans-serif" font-size="13" font-weight="bold" lengthAdjust="spacing" textLength="14" x="66.5" y="606.6053">12</text><text fill="#000000" font-family="sans-serif" font-size="13" lengthAdjust="spacing" textLength="78" x="84.5" y="606.6053">submits data</text><polygon fill="#181818" points="854.5,675.5324,864.5,679.5324,854.5,683.5324,858.5,679.5324" style="stroke:#181818;stroke-width:1.0;"/><line style="stroke:#181818;stroke-width:1.0;" x1="563.5" x2="860.5" y1="679.5324" y2="679.5324"/><text fill="#000000" font-family="sans-serif" font-size="13" font-weight="bold" lengthAdjust="spacing" textLength="14" x="570.5" y="656.0173">13</text><text fill="#000000" font-family="sans-serif" font-size="13" lengthAdjust="spacing" textLength="263" x="588.5" y="638.3113">registerEmployee(name, passportCardNum,</text><text fill="#000000" font-family="sans-serif" font-size="13" lengthAdjust="spacing" textLength="211" x="588.5" y="656.0173">taxNumber, address, emailAddress,</text><text fill="#000000" font-family="sans-serif" font-size="13" lengthAdjust="spacing" textLength="261" x="588.5" y="673.7234">phoneNumber, chosenRole, chosenAgency)</text><line style="stroke:#181818;stroke-width:1.0;" x1="876.5" x2="923.5" y1="706.2384" y2="706.2384"/><line style="stroke:#181818;stroke-width:1.0;" x1="923.5" x2="923.5" y1="706.2384" y2="719.2384"/><line style="stroke:#181818;stroke-width:1.0;" x1="882.5" x2="923.5" y1="719.2384" y2="719.2384"/><polygon fill="#181818" points="892.5,715.2384,882.5,719.2384,892.5,723.2384,888.5,719.2384" style="stroke:#181818;stroke-width:1.0;"/><text fill="#000000" font-family="sans-serif" font-size="13" font-weight="bold" lengthAdjust="spacing" textLength="14" x="888.5" y="700.4294">14</text><text fill="#000000" font-family="sans-serif" font-size="13" lengthAdjust="spacing" textLength="198" x="906.5" y="700.4294">getRolesBySelection(chosenRole)</text><rect fill="none" height="44.0501" style="stroke:#000000;stroke-width:1.5;" width="212" x="765.5" y="732.2384"/><path d="M765.5,732.2384 L829.5,732.2384 L829.5,741.2384 L819.5,751.2384 L765.5,751.2384 L765.5,732.2384 " fill="#EEEEEE" style="stroke:#000000;stroke-width:2.0;"/><text fill="#000000" font-family="sans-serif" font-size="13" font-weight="bold" lengthAdjust="spacing" textLength="19" x="778.5" y="748.1354">ref</text><text fill="#000000" font-family="sans-serif" font-size="12" lengthAdjust="spacing" textLength="86" x="828.5" y="768.0665">Get Role Object</text><line style="stroke:#181818;stroke-width:1.0;stroke-dasharray:2.0,2.0;" x1="881.5" x2="923.5" y1="809.9945" y2="809.9945"/><line style="stroke:#181818;stroke-width:1.0;stroke-dasharray:2.0,2.0;" x1="923.5" x2="923.5" y1="809.9945" y2="822.9945"/><line style="stroke:#181818;stroke-width:1.0;stroke-dasharray:2.0,2.0;" x1="876.5" x2="923.5" y1="822.9945" y2="822.9945"/><polygon fill="#181818" points="886.5,818.9945,876.5,822.9945,886.5,826.9945,882.5,822.9945" style="stroke:#181818;stroke-width:1.0;"/><text fill="#000000" font-family="sans-serif" font-size="13" font-weight="bold" lengthAdjust="spacing" textLength="14" x="888.5" y="804.1855">15</text><text fill="#000000" font-family="sans-serif" font-size="13" lengthAdjust="spacing" textLength="23" x="906.5" y="804.1855">role</text><line style="stroke:#181818;stroke-width:1.0;" x1="876.5" x2="923.5" y1="894.7005" y2="894.7005"/><line style="stroke:#181818;stroke-width:1.0;" x1="923.5" x2="923.5" y1="894.7005" y2="907.7005"/><line style="stroke:#181818;stroke-width:1.0;" x1="882.5" x2="923.5" y1="907.7005" y2="907.7005"/><polygon fill="#181818" points="892.5,903.7005,882.5,907.7005,892.5,911.7005,888.5,907.7005" style="stroke:#181818;stroke-width:1.0;"/><text fill="#000000" font-family="sans-serif" font-size="13" font-weight="bold" lengthAdjust="spacing" textLength="14" x="888.5" y="888.8915">16</text><text fill="#000000" font-family="sans-serif" font-size="13" lengthAdjust="spacing" textLength="237" x="906.5" y="888.8915">getAgenciesBySelection(chosenAgency)</text><rect fill="none" height="44.0501" style="stroke:#000000;stroke-width:1.5;" width="212" x="765.5" y="920.7005"/><path d="M765.5,920.7005 L829.5,920.7005 L829.5,929.7005 L819.5,939.7005 L765.5,939.7005 L765.5,920.7005 " fill="#EEEEEE" style="stroke:#000000;stroke-width:2.0;"/><text fill="#000000" font-family="sans-serif" font-size="13" font-weight="bold" lengthAdjust="spacing" textLength="19" x="778.5" y="936.5976">ref</text><text fill="#000000" font-family="sans-serif" font-size="12" lengthAdjust="spacing" textLength="103" x="820" y="956.5286">Get Agency Object</text><line style="stroke:#181818;stroke-width:1.0;stroke-dasharray:2.0,2.0;" x1="881.5" x2="923.5" y1="998.4567" y2="998.4567"/><line style="stroke:#181818;stroke-width:1.0;stroke-dasharray:2.0,2.0;" x1="923.5" x2="923.5" y1="998.4567" y2="1011.4567"/><line style="stroke:#181818;stroke-width:1.0;stroke-dasharray:2.0,2.0;" x1="876.5" x2="923.5" y1="1011.4567" y2="1011.4567"/><polygon fill="#181818" points="886.5,1007.4567,876.5,1011.4567,886.5,1015.4567,882.5,1011.4567" style="stroke:#181818;stroke-width:1.0;"/><text fill="#000000" font-family="sans-serif" font-size="13" font-weight="bold" lengthAdjust="spacing" textLength="14" x="888.5" y="992.6477">17</text><text fill="#000000" font-family="sans-serif" font-size="13" lengthAdjust="spacing" textLength="43" x="906.5" y="992.6477">agency</text><polygon fill="#181818" points="1167.5,1119.5747,1177.5,1123.5747,1167.5,1127.5747,1171.5,1123.5747" style="stroke:#181818;stroke-width:1.0;"/><line style="stroke:#181818;stroke-width:1.0;" x1="876.5" x2="1173.5" y1="1123.5747" y2="1123.5747"/><text fill="#000000" font-family="sans-serif" font-size="13" font-weight="bold" lengthAdjust="spacing" textLength="14" x="883.5" y="1100.0597">18</text><text fill="#000000" font-family="sans-serif" font-size="13" lengthAdjust="spacing" textLength="263" x="901.5" y="1082.3537">registerEmployee(name, passportCardNum,</text><text fill="#000000" font-family="sans-serif" font-size="13" lengthAdjust="spacing" textLength="211" x="901.5" y="1100.0597">taxNumber, address, emailAddress,</text><text fill="#000000" font-family="sans-serif" font-size="13" lengthAdjust="spacing" textLength="171" x="901.5" y="1117.7657">phoneNumber, role, agency)</text><rect fill="none" height="44.0501" style="stroke:#000000;stroke-width:1.5;" width="112" x="1148" y="1131.5747"/><path d="M1148,1131.5747 L1212,1131.5747 L1212,1140.5747 L1202,1150.5747 L1148,1150.5747 L1148,1131.5747 " fill="#EEEEEE" style="stroke:#000000;stroke-width:2.0;"/><text fill="#000000" font-family="sans-serif" font-size="13" font-weight="bold" lengthAdjust="spacing" textLength="19" x="1161" y="1147.4718">ref</text><text fill="#000000" font-family="sans-serif" font-size="12" lengthAdjust="spacing" textLength="104" x="1152" y="1167.4028">Register Employee</text><polygon fill="#181818" points="887.5,1200.3309,877.5,1204.3309,887.5,1208.3309,883.5,1204.3309" style="stroke:#181818;stroke-width:1.0;"/><line style="stroke:#181818;stroke-width:1.0;stroke-dasharray:2.0,2.0;" x1="881.5" x2="1183.5" y1="1204.3309" y2="1204.3309"/><text fill="#000000" font-family="sans-serif" font-size="13" font-weight="bold" lengthAdjust="spacing" textLength="14" x="893.5" y="1198.5219">19</text><text fill="#000000" font-family="sans-serif" font-size="13" lengthAdjust="spacing" textLength="59" x="911.5" y="1198.5219">employee</text><polygon fill="#181818" points="574.5,1232.0369,564.5,1236.0369,574.5,1240.0369,570.5,1236.0369" style="stroke:#181818;stroke-width:1.0;"/><line style="stroke:#181818;stroke-width:1.0;stroke-dasharray:2.0,2.0;" x1="568.5" x2="870.5" y1="1236.0369" y2="1236.0369"/><text fill="#000000" font-family="sans-serif" font-size="13" font-weight="bold" lengthAdjust="spacing" textLength="14" x="580.5" y="1230.2279">20</text><text fill="#000000" font-family="sans-serif" font-size="13" lengthAdjust="spacing" textLength="59" x="598.5" y="1230.2279">employee</text><polygon fill="#181818" points="65.5,1263.7429,55.5,1267.7429,65.5,1271.7429,61.5,1267.7429" style="stroke:#181818;stroke-width:1.0;"/><line style="stroke:#181818;stroke-width:1.0;stroke-dasharray:2.0,2.0;" x1="59.5" x2="557.5" y1="1267.7429" y2="1267.7429"/><text fill="#000000" font-family="sans-serif" font-size="13" font-weight="bold" lengthAdjust="spacing" textLength="14" x="71.5" y="1261.9339">21</text><text fill="#000000" font-family="sans-serif" font-size="13" lengthAdjust="spacing" textLength="158" x="89.5" y="1261.9339">displays operation success</text><!--SRC=[jLPDR-8m4BtdLunwALJq3t1OYMMhLQLkLuBsrikG38cNnCxQJcaaVlnEd1W2WOLKrASuVdxp-IOnAo5pr9X1fgGA4wqo0giB2ips9CTmXJ7DRPaIQ0ejoZXj0qo2aLeB6SCIKqD1W8LLiiWMf8FWDX4HmL8fkr0V0OPMQRYPH9cGmbYDlBq1D33vyIjWDYj2aQEqS3EUKSm8qWzPdggIwFNH0LyVp-2cIbgjqfHgukdBxEdWnYGc6PRkTFuo2tYnM-8TBJat0cWMR-3-6rk4CMDN1gpY-6jhW21f3TGOtLtQKh6ZsvVLOXecgzovksF2K1EZkX36L7R7REblGSOQYD3Y3XVHKGjjNssPa_7tAN84C92OqOYBQKokj9sYZfwBR0HlqkB7iolM232AD1apuhXGf1E_UvDveYJLg66lMDcTcEnCfMG6mptCzhAhqDvHjJGjGRrpejqn75a_oK9534zSaGw2P5HnT8cTL_S-LzmfrBdVod7NkSFON3U9hmclxjHF1UZxrZ7qZt3RXYPHQxFjyrlZCcOWPKP0TW6Ry5jl6gaOIdbO65ZoK06sbpX8dqRs3DnxCE2vaIbDmyQ1obBrlWxmifOy2Agczm91by-sPdgvMYmouSNQJn_wO81TJQaZ21DbI5OYySzrH_LgLTzF1tB-NivT_eIIWvsTOUVw6VRBnB2dzz-BFsptAEwaAFQKxnFFP1rWHnaTn6QpkUXTDsz-L7HJTwmiLqzUCqskbRu3vLqqMZwJF_v6VwrAjDC7dYk1-rVuRmKgnAa2-DyKy07qBq2LY5R-wHHHgm97VTx_0XwbkVpx40cJfrZoaCw9V-UufNaMXY7d-TJuR6shtwr_]--></g></svg>