<?xml version="1.0" encoding="us-ascii" standalone="no"?><svg xmlns="http://www.w3.org/2000/svg" xmlns:xlink="http://www.w3.org/1999/xlink" contentStyleType="text/css" height="422px" preserveAspectRatio="none" style="width:592px;height:422px;background:#FFFFFF;" version="1.1" viewBox="0 0 592 422" width="592px" zoomAndPan="magnify"><defs/><g><rect fill="#FFFFFF" height="255.6481" style="stroke:#181818;stroke-width:1.0;" width="10" x="118" y="91.8419"/><rect fill="#FFFFFF" height="31.706" style="stroke:#181818;stroke-width:1.0;" width="10" x="281.5" y="150.2539"/><rect fill="#FFFFFF" height="31.706" style="stroke:#181818;stroke-width:1.0;" width="10" x="392.5" y="213.6659"/><rect fill="#FFFFFF" height="31.706" style="stroke:#181818;stroke-width:1.0;" width="10" x="512" y="277.0779"/><rect fill="none" height="209.9421" style="stroke:#000000;stroke-width:1.5;" width="576" x="10" y="106.8419"/><line style="stroke:#181818;stroke-width:0.5;stroke-dasharray:5.0,5.0;" x1="123" x2="123" y1="58.1358" y2="365.49"/><line style="stroke:#181818;stroke-width:0.5;stroke-dasharray:5.0,5.0;" x1="286" x2="286" y1="58.1358" y2="365.49"/><line style="stroke:#181818;stroke-width:0.5;stroke-dasharray:5.0,5.0;" x1="397" x2="397" y1="58.1358" y2="365.49"/><line style="stroke:#181818;stroke-width:0.5;stroke-dasharray:5.0,5.0;" x1="517" x2="517" y1="58.1358" y2="365.49"/><rect fill="#E3E3E3" height="33.0679" rx="2.5" ry="2.5" style="stroke:#181818;stroke-width:0.5;" width="206" x="20" y="24.0679"/><text fill="#000000" font-family="sans-serif" font-size="14" lengthAdjust="spacing" textLength="192" x="27" y="46.0339">:RegisterEmployeeController</text><rect fill="#E3E3E3" height="33.0679" rx="2.5" ry="2.5" style="stroke:#181818;stroke-width:0.5;" width="206" x="20" y="364.49"/><text fill="#000000" font-family="sans-serif" font-size="14" lengthAdjust="spacing" textLength="192" x="27" y="386.4559">:RegisterEmployeeController</text><rect fill="#E3E3E3" height="33.0679" rx="2.5" ry="2.5" style="stroke:#181818;stroke-width:0.5;" width="101" x="236" y="24.0679"/><text fill="#000000" font-family="sans-serif" font-size="14" lengthAdjust="spacing" textLength="87" x="243" y="46.0339">:Repositories</text><rect fill="#E3E3E3" height="33.0679" rx="2.5" ry="2.5" style="stroke:#181818;stroke-width:0.5;" width="101" x="236" y="364.49"/><text fill="#000000" font-family="sans-serif" font-size="14" lengthAdjust="spacing" textLength="87" x="243" y="386.4559">:Repositories</text><rect fill="#E3E3E3" height="52.1358" rx="2.5" ry="2.5" style="stroke:#181818;stroke-width:0.5;" width="101" x="347" y="5"/><text fill="#000000" font-family="sans-serif" font-size="14" lengthAdjust="spacing" textLength="80" x="357.5" y="26.9659">repositories</text><text fill="#000000" font-family="sans-serif" font-size="14" lengthAdjust="spacing" textLength="87" x="354" y="46.0339">:Repositories</text><rect fill="#E3E3E3" height="52.1358" rx="2.5" ry="2.5" style="stroke:#181818;stroke-width:0.5;" width="101" x="347" y="364.49"/><text fill="#000000" font-family="sans-serif" font-size="14" lengthAdjust="spacing" textLength="80" x="357.5" y="386.4559">repositories</text><text fill="#000000" font-family="sans-serif" font-size="14" lengthAdjust="spacing" textLength="87" x="354" y="405.5238">:Repositories</text><rect fill="#E3E3E3" height="52.1358" rx="2.5" ry="2.5" style="stroke:#181818;stroke-width:0.5;" width="118" x="458" y="5"/><text fill="#000000" font-family="sans-serif" font-size="14" lengthAdjust="spacing" textLength="97" x="468.5" y="26.9659">roleRepository</text><text fill="#000000" font-family="sans-serif" font-size="14" lengthAdjust="spacing" textLength="104" x="465" y="46.0339">:RoleRepository</text><rect fill="#E3E3E3" height="52.1358" rx="2.5" ry="2.5" style="stroke:#181818;stroke-width:0.5;" width="118" x="458" y="364.49"/><text fill="#000000" font-family="sans-serif" font-size="14" lengthAdjust="spacing" textLength="97" x="468.5" y="386.4559">roleRepository</text><text fill="#000000" font-family="sans-serif" font-size="14" lengthAdjust="spacing" textLength="104" x="465" y="405.5238">:RoleRepository</text><rect fill="#FFFFFF" height="255.6481" style="stroke:#181818;stroke-width:1.0;" width="10" x="118" y="91.8419"/><rect fill="#FFFFFF" height="31.706" style="stroke:#181818;stroke-width:1.0;" width="10" x="281.5" y="150.2539"/><rect fill="#FFFFFF" height="31.706" style="stroke:#181818;stroke-width:1.0;" width="10" x="392.5" y="213.6659"/><rect fill="#FFFFFF" height="31.706" style="stroke:#181818;stroke-width:1.0;" width="10" x="512" y="277.0779"/><polygon fill="#181818" points="106,87.8419,116,91.8419,106,95.8419,110,91.8419" style="stroke:#181818;stroke-width:1.0;"/><line style="stroke:#181818;stroke-width:1.0;" x1="0" x2="112" y1="91.8419" y2="91.8419"/><text fill="#000000" font-family="sans-serif" font-size="13" font-weight="bold" lengthAdjust="spacing" textLength="7" x="7" y="86.0328">5</text><text fill="#000000" font-family="sans-serif" font-size="13" lengthAdjust="spacing" textLength="60" x="18" y="86.0328">getRoles()</text><path d="M10,106.8419 L136,106.8419 L136,116.5479 L126,126.5479 L10,126.5479 L10,106.8419 " fill="#EEEEEE" style="stroke:#000000;stroke-width:1.5;"/><rect fill="none" height="209.9421" style="stroke:#000000;stroke-width:1.5;" width="576" x="10" y="106.8419"/><text fill="#000000" font-family="sans-serif" font-size="13" font-weight="bold" lengthAdjust="spacing" textLength="81" x="25" y="121.7389">Get Role List</text><polygon fill="#181818" points="269.5,146.2539,279.5,150.2539,269.5,154.2539,273.5,150.2539" style="stroke:#181818;stroke-width:1.0;"/><line style="stroke:#181818;stroke-width:1.0;" x1="128" x2="275.5" y1="150.2539" y2="150.2539"/><text fill="#000000" font-family="sans-serif" font-size="13" font-weight="bold" lengthAdjust="spacing" textLength="18" x="135" y="144.4449">5.1</text><text fill="#000000" font-family="sans-serif" font-size="13" lengthAdjust="spacing" textLength="79" x="157" y="144.4449">getInstance()</text><polygon fill="#181818" points="139,177.9599,129,181.9599,139,185.9599,135,181.9599" style="stroke:#181818;stroke-width:1.0;"/><line style="stroke:#181818;stroke-width:1.0;stroke-dasharray:2.0,2.0;" x1="133" x2="285.5" y1="181.9599" y2="181.9599"/><text fill="#000000" font-family="sans-serif" font-size="13" font-weight="bold" lengthAdjust="spacing" textLength="18" x="145" y="176.1509">5.2</text><text fill="#000000" font-family="sans-serif" font-size="13" lengthAdjust="spacing" textLength="71" x="167" y="176.1509">repositories</text><polygon fill="#181818" points="380.5,209.6659,390.5,213.6659,380.5,217.6659,384.5,213.6659" style="stroke:#181818;stroke-width:1.0;"/><line style="stroke:#181818;stroke-width:1.0;" x1="128" x2="386.5" y1="213.6659" y2="213.6659"/><text fill="#000000" font-family="sans-serif" font-size="13" font-weight="bold" lengthAdjust="spacing" textLength="18" x="135" y="207.8569">5.3</text><text fill="#000000" font-family="sans-serif" font-size="13" lengthAdjust="spacing" textLength="119" x="157" y="207.8569">getRoleRepository()</text><polygon fill="#181818" points="139,241.3719,129,245.3719,139,249.3719,135,245.3719" style="stroke:#181818;stroke-width:1.0;"/><line style="stroke:#181818;stroke-width:1.0;stroke-dasharray:2.0,2.0;" x1="133" x2="396.5" y1="245.3719" y2="245.3719"/><text fill="#000000" font-family="sans-serif" font-size="13" font-weight="bold" lengthAdjust="spacing" textLength="18" x="145" y="239.5629">5.4</text><text fill="#000000" font-family="sans-serif" font-size="13" lengthAdjust="spacing" textLength="88" x="167" y="239.5629">roleRepository</text><polygon fill="#181818" points="500,273.0779,510,277.0779,500,281.0779,504,277.0779" style="stroke:#181818;stroke-width:1.0;"/><line style="stroke:#181818;stroke-width:1.0;" x1="128" x2="506" y1="277.0779" y2="277.0779"/><text fill="#000000" font-family="sans-serif" font-size="13" font-weight="bold" lengthAdjust="spacing" textLength="18" x="135" y="271.2689">5.5</text><text fill="#000000" font-family="sans-serif" font-size="13" lengthAdjust="spacing" textLength="60" x="157" y="271.2689">getRoles()</text><polygon fill="#181818" points="139,304.784,129,308.784,139,312.784,135,308.784" style="stroke:#181818;stroke-width:1.0;"/><line style="stroke:#181818;stroke-width:1.0;stroke-dasharray:2.0,2.0;" x1="133" x2="516" y1="308.784" y2="308.784"/><text fill="#000000" font-family="sans-serif" font-size="13" font-weight="bold" lengthAdjust="spacing" textLength="18" x="145" y="302.975">5.6</text><text fill="#000000" font-family="sans-serif" font-size="13" lengthAdjust="spacing" textLength="44" x="167" y="302.975">roleList</text><polygon fill="#181818" points="11,343.49,1,347.49,11,351.49,7,347.49" style="stroke:#181818;stroke-width:1.0;"/><line style="stroke:#181818;stroke-width:1.0;stroke-dasharray:2.0,2.0;" x1="5" x2="122" y1="347.49" y2="347.49"/><text fill="#000000" font-family="sans-serif" font-size="13" font-weight="bold" lengthAdjust="spacing" textLength="7" x="17" y="341.681">6</text><text fill="#000000" font-family="sans-serif" font-size="13" lengthAdjust="spacing" textLength="44" x="28" y="341.681">roleList</text><!--SRC=[ZLB1JiCm3BtdAwnTW4EHEC1XGaXeGWXf1xJjo2LhlIvQ6bU92-plILFM9cidpPT8Zj_pyxFTGPbQMbb1HORolQKAWMs3mlK_jSmFiiGr7pM2nPobANLSuFQoe1zbIjX9xL08sJ2PfjgY5U9chmg47H5lwLS8Zs2LgreQXjbyXQLoZFQjgZKT4HTas9BMQ6SW7Imsg-K8KPDJJ5QX2pLzuhXMhIxVEONO2F5bnWIVozVD6O8q3hGj9abqRPDKF38y2W7PIn0FSoYHsrftUvVKt3y8cRFwbepTcE2ZjDJKy8uSw67flH4Y_9mYa7hoYQcxNX_6-VtawDl5kBxNb5r9PHjJxDd_I7E83KsW1LxVvZH8w_xWqW2xf3ziQoGui4GAq-LSq3YcwjrDyEaIfrqzkuQHeIbXDfn7ApNi-PAH4yneYl16z_GK4izPrl76n15PE3Jn1m00]--></g></svg>