<?xml version="1.0" encoding="us-ascii" standalone="no"?><svg xmlns="http://www.w3.org/2000/svg" xmlns:xlink="http://www.w3.org/1999/xlink" contentStyleType="text/css" height="668px" preserveAspectRatio="none" style="width:456px;height:668px;background:#FFFFFF;" version="1.1" viewBox="0 0 456 668" width="456px" zoomAndPan="magnify"><defs/><g><text fill="#000000" font-family="sans-serif" font-size="14" font-weight="bold" lengthAdjust="spacing" textLength="228" x="115.25" y="30.1074">System Sequence Diagram (SSD)</text><rect fill="#FFFFFF" height="443.0449" style="stroke:#181818;stroke-width:1.0;" width="10" x="38.5" y="133.2422"/><rect fill="#FFFFFF" height="31.291" style="stroke:#181818;stroke-width:1.0;" width="10" x="402.5" y="156.5332"/><rect fill="#FFFFFF" height="31.291" style="stroke:#181818;stroke-width:1.0;" width="10" x="402.5" y="219.1152"/><rect fill="#FFFFFF" height="153.4258" style="stroke:#181818;stroke-width:1.0;" width="10" x="402.5" y="281.6973"/><rect fill="#FFFFFF" height="31.291" style="stroke:#181818;stroke-width:1.0;" width="10" x="402.5" y="473.4141"/><rect fill="#FFFFFF" height="31.291" style="stroke:#181818;stroke-width:1.0;" width="10" x="402.5" y="535.9961"/><rect fill="none" height="146.4258" style="stroke:#000000;stroke-width:1.5;" width="439.5" x="10" y="296.6973"/><line style="stroke:#181818;stroke-width:0.5;stroke-dasharray:5.0,5.0;" x1="43" x2="43" y1="123.2422" y2="585.2871"/><line style="stroke:#181818;stroke-width:0.5;stroke-dasharray:5.0,5.0;" x1="407.5" x2="407.5" y1="123.2422" y2="585.2871"/><text fill="#000000" font-family="sans-serif" font-size="14" lengthAdjust="spacing" textLength="41" x="20" y="119.7285">Owner</text><ellipse cx="43.5" cy="53.1211" fill="#E3E3E3" rx="8" ry="8" style="stroke:#181818;stroke-width:0.5;"/><path d="M43.5,61.1211 L43.5,88.1211 M30.5,69.1211 L56.5,69.1211 M43.5,88.1211 L30.5,103.1211 M43.5,88.1211 L56.5,103.1211 " fill="none" style="stroke:#181818;stroke-width:0.5;"/><text fill="#000000" font-family="sans-serif" font-size="14" lengthAdjust="spacing" textLength="41" x="20" y="599.3945">Owner</text><ellipse cx="43.5" cy="611.4082" fill="#E3E3E3" rx="8" ry="8" style="stroke:#181818;stroke-width:0.5;"/><path d="M43.5,619.4082 L43.5,646.4082 M30.5,627.4082 L56.5,627.4082 M43.5,646.4082 L30.5,661.4082 M43.5,646.4082 L56.5,661.4082 " fill="none" style="stroke:#181818;stroke-width:0.5;"/><rect fill="#E3E3E3" height="32.6211" rx="2.5" ry="2.5" style="stroke:#181818;stroke-width:0.5;" width="64" x="375.5" y="89.6211"/><text fill="#000000" font-family="sans-serif" font-size="14" lengthAdjust="spacing" textLength="50" x="382.5" y="111.7285">:System</text><rect fill="#E3E3E3" height="32.6211" rx="2.5" ry="2.5" style="stroke:#181818;stroke-width:0.5;" width="64" x="375.5" y="584.2871"/><text fill="#000000" font-family="sans-serif" font-size="14" lengthAdjust="spacing" textLength="50" x="382.5" y="606.3945">:System</text><rect fill="#FFFFFF" height="443.0449" style="stroke:#181818;stroke-width:1.0;" width="10" x="38.5" y="133.2422"/><rect fill="#FFFFFF" height="31.291" style="stroke:#181818;stroke-width:1.0;" width="10" x="402.5" y="156.5332"/><rect fill="#FFFFFF" height="31.291" style="stroke:#181818;stroke-width:1.0;" width="10" x="402.5" y="219.1152"/><rect fill="#FFFFFF" height="153.4258" style="stroke:#181818;stroke-width:1.0;" width="10" x="402.5" y="281.6973"/><rect fill="#FFFFFF" height="31.291" style="stroke:#181818;stroke-width:1.0;" width="10" x="402.5" y="473.4141"/><rect fill="#FFFFFF" height="31.291" style="stroke:#181818;stroke-width:1.0;" width="10" x="402.5" y="535.9961"/><polygon fill="#181818" points="390.5,152.5332,400.5,156.5332,390.5,160.5332,394.5,156.5332" style="stroke:#181818;stroke-width:1.0;"/><line style="stroke:#181818;stroke-width:1.0;" x1="48.5" x2="396.5" y1="156.5332" y2="156.5332"/><text fill="#000000" font-family="sans-serif" font-size="13" font-weight="bold" lengthAdjust="spacing" textLength="7" x="55.5" y="151.2705">1</text><text fill="#000000" font-family="sans-serif" font-size="13" lengthAdjust="spacing" textLength="262" x="66.5" y="151.2705">asks to submit a request for listing a property</text><polygon fill="#181818" points="59.5,183.8242,49.5,187.8242,59.5,191.8242,55.5,187.8242" style="stroke:#181818;stroke-width:1.0;"/><line style="stroke:#181818;stroke-width:1.0;stroke-dasharray:2.0,2.0;" x1="53.5" x2="406.5" y1="187.8242" y2="187.8242"/><text fill="#000000" font-family="sans-serif" font-size="13" font-weight="bold" lengthAdjust="spacing" textLength="7" x="65.5" y="182.5615">2</text><text fill="#000000" font-family="sans-serif" font-size="13" lengthAdjust="spacing" textLength="72" x="76.5" y="182.5615">sale or rent?</text><polygon fill="#181818" points="390.5,215.1152,400.5,219.1152,390.5,223.1152,394.5,219.1152" style="stroke:#181818;stroke-width:1.0;"/><line style="stroke:#181818;stroke-width:1.0;" x1="48.5" x2="396.5" y1="219.1152" y2="219.1152"/><text fill="#000000" font-family="sans-serif" font-size="13" font-weight="bold" lengthAdjust="spacing" textLength="7" x="55.5" y="213.8525">3</text><text fill="#000000" font-family="sans-serif" font-size="13" lengthAdjust="spacing" textLength="148" x="66.5" y="213.8525">selects the wanted option</text><polygon fill="#181818" points="59.5,246.4063,49.5,250.4063,59.5,254.4063,55.5,250.4063" style="stroke:#181818;stroke-width:1.0;"/><line style="stroke:#181818;stroke-width:1.0;stroke-dasharray:2.0,2.0;" x1="53.5" x2="406.5" y1="250.4063" y2="250.4063"/><text fill="#000000" font-family="sans-serif" font-size="13" font-weight="bold" lengthAdjust="spacing" textLength="7" x="65.5" y="245.1436">4</text><text fill="#000000" font-family="sans-serif" font-size="13" lengthAdjust="spacing" textLength="130" x="76.5" y="245.1436">requests property type</text><polygon fill="#181818" points="390.5,277.6973,400.5,281.6973,390.5,285.6973,394.5,281.6973" style="stroke:#181818;stroke-width:1.0;"/><line style="stroke:#181818;stroke-width:1.0;" x1="48.5" x2="396.5" y1="281.6973" y2="281.6973"/><text fill="#000000" font-family="sans-serif" font-size="13" font-weight="bold" lengthAdjust="spacing" textLength="7" x="55.5" y="276.4346">5</text><text fill="#000000" font-family="sans-serif" font-size="13" lengthAdjust="spacing" textLength="122" x="66.5" y="276.4346">selects property type</text><path d="M10,296.6973 L71,296.6973 L71,305.9883 L61,315.9883 L10,315.9883 L10,296.6973 " fill="#EEEEEE" style="stroke:#000000;stroke-width:1.5;"/><rect fill="none" height="146.4258" style="stroke:#000000;stroke-width:1.5;" width="439.5" x="10" y="296.6973"/><text fill="#000000" font-family="sans-serif" font-size="13" font-weight="bold" lengthAdjust="spacing" textLength="16" x="25" y="311.7256">alt</text><text fill="#000000" font-family="sans-serif" font-size="11" font-weight="bold" lengthAdjust="spacing" textLength="101" x="86" y="310.5674">[type = apartment]</text><polygon fill="#181818" points="59.5,335.2793,49.5,339.2793,59.5,343.2793,55.5,339.2793" style="stroke:#181818;stroke-width:1.0;"/><line style="stroke:#181818;stroke-width:1.0;stroke-dasharray:2.0,2.0;" x1="53.5" x2="401.5" y1="339.2793" y2="339.2793"/><text fill="#000000" font-family="sans-serif" font-size="13" font-weight="bold" lengthAdjust="spacing" textLength="7" x="65.5" y="334.0166">6</text><text fill="#000000" font-family="sans-serif" font-size="13" lengthAdjust="spacing" textLength="223" x="76.5" y="334.0166">requests the apartment characteristics</text><line style="stroke:#000000;stroke-width:1.0;stroke-dasharray:2.0,2.0;" x1="10" x2="449.5" y1="348.2793" y2="348.2793"/><text fill="#000000" font-family="sans-serif" font-size="11" font-weight="bold" lengthAdjust="spacing" textLength="79" x="15" y="360.1494">[type = house]</text><polygon fill="#181818" points="59.5,383.2012,49.5,387.2012,59.5,391.2012,55.5,387.2012" style="stroke:#181818;stroke-width:1.0;"/><line style="stroke:#181818;stroke-width:1.0;stroke-dasharray:2.0,2.0;" x1="53.5" x2="401.5" y1="387.2012" y2="387.2012"/><text fill="#000000" font-family="sans-serif" font-size="13" font-weight="bold" lengthAdjust="spacing" textLength="7" x="65.5" y="381.9385">7</text><text fill="#000000" font-family="sans-serif" font-size="13" lengthAdjust="spacing" textLength="200" x="76.5" y="381.9385">requests the house characteristics</text><line style="stroke:#000000;stroke-width:1.0;stroke-dasharray:2.0,2.0;" x1="10" x2="449.5" y1="396.2012" y2="396.2012"/><text fill="#000000" font-family="sans-serif" font-size="11" font-weight="bold" lengthAdjust="spacing" textLength="67" x="15" y="408.0713">[type = land]</text><polygon fill="#181818" points="59.5,431.123,49.5,435.123,59.5,439.123,55.5,435.123" style="stroke:#181818;stroke-width:1.0;"/><line style="stroke:#181818;stroke-width:1.0;stroke-dasharray:2.0,2.0;" x1="53.5" x2="406.5" y1="435.123" y2="435.123"/><text fill="#000000" font-family="sans-serif" font-size="13" font-weight="bold" lengthAdjust="spacing" textLength="7" x="65.5" y="429.8604">8</text><text fill="#000000" font-family="sans-serif" font-size="13" lengthAdjust="spacing" textLength="189" x="76.5" y="429.8604">requests the land characteristics</text><polygon fill="#181818" points="390.5,469.4141,400.5,473.4141,390.5,477.4141,394.5,473.4141" style="stroke:#181818;stroke-width:1.0;"/><line style="stroke:#181818;stroke-width:1.0;" x1="48.5" x2="396.5" y1="473.4141" y2="473.4141"/><text fill="#000000" font-family="sans-serif" font-size="13" font-weight="bold" lengthAdjust="spacing" textLength="7" x="55.5" y="468.1514">9</text><text fill="#000000" font-family="sans-serif" font-size="13" lengthAdjust="spacing" textLength="181" x="66.5" y="468.1514">fills the property characteristics</text><polygon fill="#181818" points="59.5,500.7051,49.5,504.7051,59.5,508.7051,55.5,504.7051" style="stroke:#181818;stroke-width:1.0;"/><line style="stroke:#181818;stroke-width:1.0;stroke-dasharray:2.0,2.0;" x1="53.5" x2="406.5" y1="504.7051" y2="504.7051"/><text fill="#000000" font-family="sans-serif" font-size="13" font-weight="bold" lengthAdjust="spacing" textLength="14" x="65.5" y="499.4424">10</text><text fill="#000000" font-family="sans-serif" font-size="13" lengthAdjust="spacing" textLength="312" x="83.5" y="499.4424">requests to select a responsible agent for the property</text><polygon fill="#181818" points="390.5,531.9961,400.5,535.9961,390.5,539.9961,394.5,535.9961" style="stroke:#181818;stroke-width:1.0;"/><line style="stroke:#181818;stroke-width:1.0;stroke-dasharray:2.0,2.0;" x1="48.5" x2="396.5" y1="535.9961" y2="535.9961"/><text fill="#000000" font-family="sans-serif" font-size="13" font-weight="bold" lengthAdjust="spacing" textLength="14" x="55.5" y="530.7334">11</text><text fill="#000000" font-family="sans-serif" font-size="13" lengthAdjust="spacing" textLength="170" x="73.5" y="530.7334">selects the responsible agent</text><polygon fill="#181818" points="59.5,563.2871,49.5,567.2871,59.5,571.2871,55.5,567.2871" style="stroke:#181818;stroke-width:1.0;"/><line style="stroke:#181818;stroke-width:1.0;stroke-dasharray:2.0,2.0;" x1="53.5" x2="406.5" y1="567.2871" y2="567.2871"/><text fill="#000000" font-family="sans-serif" font-size="13" font-weight="bold" lengthAdjust="spacing" textLength="14" x="65.5" y="562.0244">12</text><text fill="#000000" font-family="sans-serif" font-size="13" lengthAdjust="spacing" textLength="147" x="83.5" y="562.0244">shows operation success</text><!--SRC=[dPF1ReCm38RlF8NLqtRe2rJQTkbz1vx03Iv43GcBpH1lFoSKL8cYjkDa4VlpR-SFNwplC68BRV31D36q119xAdWvwT1SiAPIHaSGoGZwsjqcS8DL6AoluOoEgIZ4YgQM8mkrKD9FJzuG72tMAVsjB8_lHO6z1D-t9ueQ6maHTj-3fxW3PCXHeNYnndRe1NQ7YPUFfp3NsLyKkkONe5yEOVyvzpzemOL10d1_Qgq0wX0gYGNEsjHPbYGTeOkXeoXZfYpakLNwUINk5JvrEG2ZJggOI5w-Sb95TslNifYSBbELDGI3ZaWLX4viy2y9kCx2YtoGiQF_ALaZxWBGISw03y1qHQtEFfqyqfX6NKh0D6eV8nJJ5HYU4AGEckbDw9ETdYNdzCTKXxvw7fgoLyovU6F3f2MwfArrdwrp4tnP-Bq6BpiWMJpVPBOuTy6pFQazzV7woUotFP-mo9PRL_3NdamJ1eOa0fFRzLaQGymRUlu0]--></g></svg>