<?xml version="1.0" encoding="us-ascii" standalone="no"?><svg xmlns="http://www.w3.org/2000/svg" xmlns:xlink="http://www.w3.org/1999/xlink" contentStyleType="text/css" height="1415px" preserveAspectRatio="none" style="width:975px;height:1415px;background:#FFFFFF;" version="1.1" viewBox="0 0 975 1415" width="975px" zoomAndPan="magnify"><defs/><g><!--class RegisterEmployeeUI--><g id="elem_RegisterEmployeeUI"><rect codeLine="11" fill="#F1F1F1" height="48" id="RegisterEmployeeUI" rx="2.5" ry="2.5" style="stroke:#181818;stroke-width:0.5;" width="168" x="409" y="7"/><ellipse cx="424" cy="23" fill="#ADD1B2" rx="11" ry="11" style="stroke:#181818;stroke-width:1.0;"/><path d="M423.4688,29.6719 Q421.7188,29.6719 420.5781,28.9375 Q419.4531,28.1875 418.8906,26.8438 Q418.3438,25.4844 418.3438,23.6875 Q418.3438,21.6563 419,20.2031 Q419.6563,18.75 420.9375,17.9688 Q422.2188,17.1875 424.0938,17.1875 Q424.9844,17.1875 425.6563,17.375 Q426.3281,17.5469 427.0156,17.8906 L426.2031,19.9063 Q425.5781,19.5938 425.0313,19.4688 Q424.5,19.3438 424.0156,19.3438 Q422.8438,19.3438 422.1406,19.875 Q421.4375,20.4063 421.1406,21.3594 Q420.8438,22.3125 420.8438,23.5781 Q420.8438,25.5938 421.5625,26.5625 Q422.2813,27.5156 423.875,27.5156 Q424.4688,27.5156 425.0938,27.3594 Q425.7188,27.2031 426.5469,26.8281 L426.5469,29.0469 Q425.8125,29.3594 425.0156,29.5156 Q424.2344,29.6719 423.4688,29.6719 Z " fill="#000000"/><text fill="#000000" font-family="sans-serif" font-size="14" lengthAdjust="spacing" textLength="136" x="438" y="28.432">RegisterEmployeeUI</text><line style="stroke:#181818;stroke-width:0.5;" x1="410" x2="576" y1="39" y2="39"/><line style="stroke:#181818;stroke-width:0.5;" x1="410" x2="576" y1="47" y2="47"/></g><!--class RegisterEmployeeController--><g id="elem_RegisterEmployeeController"><rect codeLine="13" fill="#F1F1F1" height="181.4754" id="RegisterEmployeeController" rx="2.5" ry="2.5" style="stroke:#181818;stroke-width:0.5;" width="566" x="210" y="116"/><ellipse cx="394.75" cy="132" fill="#ADD1B2" rx="11" ry="11" style="stroke:#181818;stroke-width:1.0;"/><path d="M394.2188,138.6719 Q392.4688,138.6719 391.3281,137.9375 Q390.2031,137.1875 389.6406,135.8438 Q389.0938,134.4844 389.0938,132.6875 Q389.0938,130.6563 389.75,129.2031 Q390.4063,127.75 391.6875,126.9688 Q392.9688,126.1875 394.8438,126.1875 Q395.7344,126.1875 396.4063,126.375 Q397.0781,126.5469 397.7656,126.8906 L396.9531,128.9063 Q396.3281,128.5938 395.7813,128.4688 Q395.25,128.3438 394.7656,128.3438 Q393.5938,128.3438 392.8906,128.875 Q392.1875,129.4063 391.8906,130.3594 Q391.5938,131.3125 391.5938,132.5781 Q391.5938,134.5938 392.3125,135.5625 Q393.0313,136.5156 394.625,136.5156 Q395.2188,136.5156 395.8438,136.3594 Q396.4688,136.2031 397.2969,135.8281 L397.2969,138.0469 Q396.5625,138.3594 395.7656,138.5156 Q394.9844,138.6719 394.2188,138.6719 Z " fill="#000000"/><text fill="#000000" font-family="sans-serif" font-size="14" lengthAdjust="spacing" textLength="188" x="415.25" y="137.432">RegisterEmployeeController</text><line style="stroke:#181818;stroke-width:0.5;" x1="211" x2="775" y1="148" y2="148"/><line style="stroke:#181818;stroke-width:0.5;" x1="211" x2="775" y1="156" y2="156"/><text fill="#000000" font-family="sans-serif" font-size="14" lengthAdjust="spacing" textLength="428" x="216" y="174.9659">+RegisterEmployeeController(roleRepository, agencyRepository)</text><text fill="#000000" font-family="sans-serif" font-size="14" lengthAdjust="spacing" textLength="74" x="216" y="194.0339">+getRoles()</text><text fill="#000000" font-family="sans-serif" font-size="14" lengthAdjust="spacing" textLength="99" x="216" y="213.1018">+getAgencies()</text><text fill="#000000" font-family="sans-serif" font-size="14" lengthAdjust="spacing" textLength="550" x="216" y="232.1697">+registerEmployee(name, passportCardNum, taxNumber, address, emailAddress,</text><text fill="#000000" font-family="sans-serif" font-size="14" lengthAdjust="spacing" textLength="307" x="216" y="251.2376">phoneNumber, chosenRole, chosenAgencyId)</text><text fill="#000000" font-family="sans-serif" font-size="14" lengthAdjust="spacing" textLength="225" x="216" y="270.3055">-getRolesBySelection(chosenRole)</text><text fill="#000000" font-family="sans-serif" font-size="14" lengthAdjust="spacing" textLength="284" x="216" y="289.3734">-getAgenciesBySelection(chosenAgencyId)</text></g><!--class Repositories--><g id="elem_Repositories"><rect codeLine="22" fill="#F1F1F1" height="124.2717" id="Repositories" rx="2.5" ry="2.5" style="stroke:#181818;stroke-width:0.5;" width="203" x="215.5" y="376"/><ellipse cx="271.25" cy="392" fill="#ADD1B2" rx="11" ry="11" style="stroke:#181818;stroke-width:1.0;"/><path d="M270.7188,398.6719 Q268.9688,398.6719 267.8281,397.9375 Q266.7031,397.1875 266.1406,395.8438 Q265.5938,394.4844 265.5938,392.6875 Q265.5938,390.6563 266.25,389.2031 Q266.9063,387.75 268.1875,386.9688 Q269.4688,386.1875 271.3438,386.1875 Q272.2344,386.1875 272.9063,386.375 Q273.5781,386.5469 274.2656,386.8906 L273.4531,388.9063 Q272.8281,388.5938 272.2813,388.4688 Q271.75,388.3438 271.2656,388.3438 Q270.0938,388.3438 269.3906,388.875 Q268.6875,389.4063 268.3906,390.3594 Q268.0938,391.3125 268.0938,392.5781 Q268.0938,394.5938 268.8125,395.5625 Q269.5313,396.5156 271.125,396.5156 Q271.7188,396.5156 272.3438,396.3594 Q272.9688,396.2031 273.7969,395.8281 L273.7969,398.0469 Q273.0625,398.3594 272.2656,398.5156 Q271.4844,398.6719 270.7188,398.6719 Z " fill="#000000"/><text fill="#000000" font-family="sans-serif" font-size="14" lengthAdjust="spacing" textLength="83" x="291.75" y="397.432">Repositories</text><line style="stroke:#181818;stroke-width:0.5;" x1="216.5" x2="417.5" y1="408" y2="408"/><line style="stroke:#181818;stroke-width:0.5;" x1="216.5" x2="417.5" y1="416" y2="416"/><text fill="#000000" font-family="sans-serif" font-size="14" lengthAdjust="spacing" textLength="96" x="221.5" y="434.9659">-Repositories()</text><text fill="#000000" font-family="sans-serif" font-size="14" lengthAdjust="spacing" textLength="191" x="221.5" y="454.0339">+getInstance() : Repositories</text><text fill="#000000" font-family="sans-serif" font-size="14" lengthAdjust="spacing" textLength="138" x="221.5" y="473.1018">+getRoleRepository()</text><text fill="#000000" font-family="sans-serif" font-size="14" lengthAdjust="spacing" textLength="158" x="221.5" y="492.1697">+getAgencyRepository()</text></g><!--class RoleRepository--><g id="elem_RoleRepository"><rect codeLine="29" fill="#F1F1F1" height="67.0679" id="RoleRepository" rx="2.5" ry="2.5" style="stroke:#181818;stroke-width:0.5;" width="240" x="7" y="579"/><ellipse cx="72.75" cy="595" fill="#ADD1B2" rx="11" ry="11" style="stroke:#181818;stroke-width:1.0;"/><path d="M72.2188,601.6719 Q70.4688,601.6719 69.3281,600.9375 Q68.2031,600.1875 67.6406,598.8438 Q67.0938,597.4844 67.0938,595.6875 Q67.0938,593.6563 67.75,592.2031 Q68.4063,590.75 69.6875,589.9688 Q70.9688,589.1875 72.8438,589.1875 Q73.7344,589.1875 74.4063,589.375 Q75.0781,589.5469 75.7656,589.8906 L74.9531,591.9063 Q74.3281,591.5938 73.7813,591.4688 Q73.25,591.3438 72.7656,591.3438 Q71.5938,591.3438 70.8906,591.875 Q70.1875,592.4063 69.8906,593.3594 Q69.5938,594.3125 69.5938,595.5781 Q69.5938,597.5938 70.3125,598.5625 Q71.0313,599.5156 72.625,599.5156 Q73.2188,599.5156 73.8438,599.3594 Q74.4688,599.2031 75.2969,598.8281 L75.2969,601.0469 Q74.5625,601.3594 73.7656,601.5156 Q72.9844,601.6719 72.2188,601.6719 Z " fill="#000000"/><text fill="#000000" font-family="sans-serif" font-size="14" lengthAdjust="spacing" textLength="100" x="93.25" y="600.432">RoleRepository</text><line style="stroke:#181818;stroke-width:0.5;" x1="8" x2="246" y1="611" y2="611"/><line style="stroke:#181818;stroke-width:0.5;" x1="8" x2="246" y1="619" y2="619"/><text fill="#000000" font-family="sans-serif" font-size="14" lengthAdjust="spacing" textLength="228" x="13" y="637.9659">+getRolesBySelection(chosenRole)</text></g><!--class AgencyRepository--><g id="elem_AgencyRepository"><rect codeLine="33" fill="#F1F1F1" height="67.0679" id="AgencyRepository" rx="2.5" ry="2.5" style="stroke:#181818;stroke-width:0.5;" width="299" x="605.5" y="579"/><ellipse cx="690.75" cy="595" fill="#ADD1B2" rx="11" ry="11" style="stroke:#181818;stroke-width:1.0;"/><path d="M690.2188,601.6719 Q688.4688,601.6719 687.3281,600.9375 Q686.2031,600.1875 685.6406,598.8438 Q685.0938,597.4844 685.0938,595.6875 Q685.0938,593.6563 685.75,592.2031 Q686.4063,590.75 687.6875,589.9688 Q688.9688,589.1875 690.8438,589.1875 Q691.7344,589.1875 692.4063,589.375 Q693.0781,589.5469 693.7656,589.8906 L692.9531,591.9063 Q692.3281,591.5938 691.7813,591.4688 Q691.25,591.3438 690.7656,591.3438 Q689.5938,591.3438 688.8906,591.875 Q688.1875,592.4063 687.8906,593.3594 Q687.5938,594.3125 687.5938,595.5781 Q687.5938,597.5938 688.3125,598.5625 Q689.0313,599.5156 690.625,599.5156 Q691.2188,599.5156 691.8438,599.3594 Q692.4688,599.2031 693.2969,598.8281 L693.2969,601.0469 Q692.5625,601.3594 691.7656,601.5156 Q690.9844,601.6719 690.2188,601.6719 Z " fill="#000000"/><text fill="#000000" font-family="sans-serif" font-size="14" lengthAdjust="spacing" textLength="120" x="711.25" y="600.432">AgencyRepository</text><line style="stroke:#181818;stroke-width:0.5;" x1="606.5" x2="903.5" y1="611" y2="611"/><line style="stroke:#181818;stroke-width:0.5;" x1="606.5" x2="903.5" y1="619" y2="619"/><text fill="#000000" font-family="sans-serif" font-size="14" lengthAdjust="spacing" textLength="287" x="611.5" y="637.9659">+getAgenciesBySelection(chosenAgencyId)</text></g><!--class Agency--><g id="elem_Agency"><rect codeLine="37" fill="#F1F1F1" height="219.6113" id="Agency" rx="2.5" ry="2.5" style="stroke:#181818;stroke-width:0.5;" width="566" x="402" y="725"/><ellipse cx="656.25" cy="741" fill="#ADD1B2" rx="11" ry="11" style="stroke:#181818;stroke-width:1.0;"/><path d="M655.7188,747.6719 Q653.9688,747.6719 652.8281,746.9375 Q651.7031,746.1875 651.1406,744.8438 Q650.5938,743.4844 650.5938,741.6875 Q650.5938,739.6563 651.25,738.2031 Q651.9063,736.75 653.1875,735.9688 Q654.4688,735.1875 656.3438,735.1875 Q657.2344,735.1875 657.9063,735.375 Q658.5781,735.5469 659.2656,735.8906 L658.4531,737.9063 Q657.8281,737.5938 657.2813,737.4688 Q656.75,737.3438 656.2656,737.3438 Q655.0938,737.3438 654.3906,737.875 Q653.6875,738.4063 653.3906,739.3594 Q653.0938,740.3125 653.0938,741.5781 Q653.0938,743.5938 653.8125,744.5625 Q654.5313,745.5156 656.125,745.5156 Q656.7188,745.5156 657.3438,745.3594 Q657.9688,745.2031 658.7969,744.8281 L658.7969,747.0469 Q658.0625,747.3594 657.2656,747.5156 Q656.4844,747.6719 655.7188,747.6719 Z " fill="#000000"/><text fill="#000000" font-family="sans-serif" font-size="14" lengthAdjust="spacing" textLength="49" x="676.75" y="746.432">Agency</text><line style="stroke:#181818;stroke-width:0.5;" x1="403" x2="967" y1="757" y2="757"/><text fill="#000000" font-family="sans-serif" font-size="14" lengthAdjust="spacing" textLength="72" x="408" y="775.9659">-Integer id</text><text fill="#000000" font-family="sans-serif" font-size="14" lengthAdjust="spacing" textLength="130" x="408" y="795.0339">-String designation</text><text fill="#000000" font-family="sans-serif" font-size="14" lengthAdjust="spacing" textLength="142" x="408" y="814.1018">-String emailAddress</text><text fill="#000000" font-family="sans-serif" font-size="14" lengthAdjust="spacing" textLength="149" x="408" y="833.1697">-String phoneNumber</text><line style="stroke:#181818;stroke-width:0.5;" x1="403" x2="967" y1="841.2717" y2="841.2717"/><text fill="#000000" font-family="sans-serif" font-size="14" lengthAdjust="spacing" textLength="373" x="408" y="860.2376">+Agency(id, designation, emailAddress, phoneNumber)</text><text fill="#000000" font-family="sans-serif" font-size="14" lengthAdjust="spacing" textLength="550" x="408" y="879.3055">+registerEmployee(name, passportCardNum, taxNumber, address, emailAddress,</text><text fill="#000000" font-family="sans-serif" font-size="14" lengthAdjust="spacing" textLength="193" x="408" y="898.3734">phoneNumber, role, agency)</text><text fill="#000000" font-family="sans-serif" font-size="14" lengthAdjust="spacing" textLength="169" x="408" y="917.4414">-addEmployee(employee)</text><text fill="#000000" font-family="sans-serif" font-size="14" lengthAdjust="spacing" textLength="196" x="408" y="936.5093">-validateEmployee(employee)</text></g><!--class Employee--><g id="elem_Employee"><rect codeLine="49" fill="#F1F1F1" height="162.4075" id="Employee" rx="2.5" ry="2.5" style="stroke:#181818;stroke-width:0.5;" width="195" x="199.5" y="1024"/><ellipse cx="260.25" cy="1040" fill="#ADD1B2" rx="11" ry="11" style="stroke:#181818;stroke-width:1.0;"/><path d="M259.7188,1046.6719 Q257.9688,1046.6719 256.8281,1045.9375 Q255.7031,1045.1875 255.1406,1043.8438 Q254.5938,1042.4844 254.5938,1040.6875 Q254.5938,1038.6563 255.25,1037.2031 Q255.9063,1035.75 257.1875,1034.9688 Q258.4688,1034.1875 260.3438,1034.1875 Q261.2344,1034.1875 261.9063,1034.375 Q262.5781,1034.5469 263.2656,1034.8906 L262.4531,1036.9063 Q261.8281,1036.5938 261.2813,1036.4688 Q260.75,1036.3438 260.2656,1036.3438 Q259.0938,1036.3438 258.3906,1036.875 Q257.6875,1037.4063 257.3906,1038.3594 Q257.0938,1039.3125 257.0938,1040.5781 Q257.0938,1042.5938 257.8125,1043.5625 Q258.5313,1044.5156 260.125,1044.5156 Q260.7188,1044.5156 261.3438,1044.3594 Q261.9688,1044.2031 262.7969,1043.8281 L262.7969,1046.0469 Q262.0625,1046.3594 261.2656,1046.5156 Q260.4844,1046.6719 259.7188,1046.6719 Z " fill="#000000"/><text fill="#000000" font-family="sans-serif" font-size="14" lengthAdjust="spacing" textLength="65" x="280.75" y="1045.432">Employee</text><line style="stroke:#181818;stroke-width:0.5;" x1="200.5" x2="393.5" y1="1056" y2="1056"/><text fill="#000000" font-family="sans-serif" font-size="14" lengthAdjust="spacing" textLength="88" x="205.5" y="1074.9659">-String name</text><text fill="#000000" font-family="sans-serif" font-size="14" lengthAdjust="spacing" textLength="183" x="205.5" y="1094.0339">-Integer passportCardNum</text><text fill="#000000" font-family="sans-serif" font-size="14" lengthAdjust="spacing" textLength="135" x="205.5" y="1113.1018">-Integer taxNumber</text><text fill="#000000" font-family="sans-serif" font-size="14" lengthAdjust="spacing" textLength="149" x="205.5" y="1132.1697">-String phoneNumber</text><text fill="#000000" font-family="sans-serif" font-size="14" lengthAdjust="spacing" textLength="142" x="205.5" y="1151.2376">-String emailAddress</text><line style="stroke:#181818;stroke-width:0.5;" x1="200.5" x2="393.5" y1="1159.3396" y2="1159.3396"/><text fill="#000000" font-family="sans-serif" font-size="14" lengthAdjust="spacing" textLength="138" x="205.5" y="1178.3055">-generatePassword()</text></g><!--class PasswordGenerator--><g id="elem_PasswordGenerator"><rect codeLine="58" fill="#F1F1F1" height="67.0679" id="PasswordGenerator" rx="2.5" ry="2.5" style="stroke:#181818;stroke-width:0.5;" width="164" x="203" y="801.5"/><ellipse cx="218" cy="817.5" fill="#ADD1B2" rx="11" ry="11" style="stroke:#181818;stroke-width:1.0;"/><path d="M217.4688,824.1719 Q215.7188,824.1719 214.5781,823.4375 Q213.4531,822.6875 212.8906,821.3438 Q212.3438,819.9844 212.3438,818.1875 Q212.3438,816.1563 213,814.7031 Q213.6563,813.25 214.9375,812.4688 Q216.2188,811.6875 218.0938,811.6875 Q218.9844,811.6875 219.6563,811.875 Q220.3281,812.0469 221.0156,812.3906 L220.2031,814.4063 Q219.5781,814.0938 219.0313,813.9688 Q218.5,813.8438 218.0156,813.8438 Q216.8438,813.8438 216.1406,814.375 Q215.4375,814.9063 215.1406,815.8594 Q214.8438,816.8125 214.8438,818.0781 Q214.8438,820.0938 215.5625,821.0625 Q216.2813,822.0156 217.875,822.0156 Q218.4688,822.0156 219.0938,821.8594 Q219.7188,821.7031 220.5469,821.3281 L220.5469,823.5469 Q219.8125,823.8594 219.0156,824.0156 Q218.2344,824.1719 217.4688,824.1719 Z " fill="#000000"/><text fill="#000000" font-family="sans-serif" font-size="14" lengthAdjust="spacing" textLength="132" x="232" y="822.932">PasswordGenerator</text><line style="stroke:#181818;stroke-width:0.5;" x1="204" x2="366" y1="833.5" y2="833.5"/><line style="stroke:#181818;stroke-width:0.5;" x1="204" x2="366" y1="841.5" y2="841.5"/><text fill="#000000" font-family="sans-serif" font-size="14" lengthAdjust="spacing" textLength="141" x="209" y="860.4659">+generatePassword()</text></g><!--class Address--><g id="elem_Address"><rect codeLine="62" fill="#F1F1F1" height="143.3396" id="Address" rx="2.5" ry="2.5" style="stroke:#181818;stroke-width:0.5;" width="154" x="232" y="1265"/><ellipse cx="277.25" cy="1281" fill="#ADD1B2" rx="11" ry="11" style="stroke:#181818;stroke-width:1.0;"/><path d="M276.7188,1287.6719 Q274.9688,1287.6719 273.8281,1286.9375 Q272.7031,1286.1875 272.1406,1284.8438 Q271.5938,1283.4844 271.5938,1281.6875 Q271.5938,1279.6563 272.25,1278.2031 Q272.9063,1276.75 274.1875,1275.9688 Q275.4688,1275.1875 277.3438,1275.1875 Q278.2344,1275.1875 278.9063,1275.375 Q279.5781,1275.5469 280.2656,1275.8906 L279.4531,1277.9063 Q278.8281,1277.5938 278.2813,1277.4688 Q277.75,1277.3438 277.2656,1277.3438 Q276.0938,1277.3438 275.3906,1277.875 Q274.6875,1278.4063 274.3906,1279.3594 Q274.0938,1280.3125 274.0938,1281.5781 Q274.0938,1283.5938 274.8125,1284.5625 Q275.5313,1285.5156 277.125,1285.5156 Q277.7188,1285.5156 278.3438,1285.3594 Q278.9688,1285.2031 279.7969,1284.8281 L279.7969,1287.0469 Q279.0625,1287.3594 278.2656,1287.5156 Q277.4844,1287.6719 276.7188,1287.6719 Z " fill="#000000"/><text fill="#000000" font-family="sans-serif" font-size="14" lengthAdjust="spacing" textLength="55" x="297.75" y="1286.432">Address</text><line style="stroke:#181818;stroke-width:0.5;" x1="233" x2="385" y1="1297" y2="1297"/><text fill="#000000" font-family="sans-serif" font-size="14" lengthAdjust="spacing" textLength="89" x="238" y="1315.9659">-String street</text><text fill="#000000" font-family="sans-serif" font-size="14" lengthAdjust="spacing" textLength="113" x="238" y="1335.0339">-String cityName</text><text fill="#000000" font-family="sans-serif" font-size="14" lengthAdjust="spacing" textLength="137" x="238" y="1354.1018">-String districtName</text><text fill="#000000" font-family="sans-serif" font-size="14" lengthAdjust="spacing" textLength="142" x="238" y="1373.1697">-String stateAcronym</text><text fill="#000000" font-family="sans-serif" font-size="14" lengthAdjust="spacing" textLength="113" x="238" y="1392.2376">-Integer zipCode</text><line style="stroke:#181818;stroke-width:0.5;" x1="233" x2="385" y1="1400.3396" y2="1400.3396"/></g><!--class Role--><g id="elem_Role"><rect codeLine="70" fill="#F1F1F1" height="86.1358" id="Role" rx="2.5" ry="2.5" style="stroke:#181818;stroke-width:0.5;" width="139" x="57.5" y="1293.5"/><ellipse cx="108.25" cy="1309.5" fill="#ADD1B2" rx="11" ry="11" style="stroke:#181818;stroke-width:1.0;"/><path d="M107.7188,1316.1719 Q105.9688,1316.1719 104.8281,1315.4375 Q103.7031,1314.6875 103.1406,1313.3438 Q102.5938,1311.9844 102.5938,1310.1875 Q102.5938,1308.1563 103.25,1306.7031 Q103.9063,1305.25 105.1875,1304.4688 Q106.4688,1303.6875 108.3438,1303.6875 Q109.2344,1303.6875 109.9063,1303.875 Q110.5781,1304.0469 111.2656,1304.3906 L110.4531,1306.4063 Q109.8281,1306.0938 109.2813,1305.9688 Q108.75,1305.8438 108.2656,1305.8438 Q107.0938,1305.8438 106.3906,1306.375 Q105.6875,1306.9063 105.3906,1307.8594 Q105.0938,1308.8125 105.0938,1310.0781 Q105.0938,1312.0938 105.8125,1313.0625 Q106.5313,1314.0156 108.125,1314.0156 Q108.7188,1314.0156 109.3438,1313.8594 Q109.9688,1313.7031 110.7969,1313.3281 L110.7969,1315.5469 Q110.0625,1315.8594 109.2656,1316.0156 Q108.4844,1316.1719 107.7188,1316.1719 Z " fill="#000000"/><text fill="#000000" font-family="sans-serif" font-size="14" lengthAdjust="spacing" textLength="29" x="128.75" y="1314.932">Role</text><line style="stroke:#181818;stroke-width:0.5;" x1="58.5" x2="195.5" y1="1325.5" y2="1325.5"/><text fill="#000000" font-family="sans-serif" font-size="14" lengthAdjust="spacing" textLength="127" x="63.5" y="1344.4659">-String chosenRole</text><line style="stroke:#181818;stroke-width:0.5;" x1="58.5" x2="195.5" y1="1352.5679" y2="1352.5679"/><text fill="#000000" font-family="sans-serif" font-size="14" lengthAdjust="spacing" textLength="122" x="63.5" y="1371.5339">+Role(chosenRole)</text></g><!--link RegisterEmployeeController to Repositories--><g id="link_RegisterEmployeeController_Repositories"><path codeLine="75" d="M424.2,297.22 C405.46,321.64 385.51,347.66 367.96,370.55 " fill="none" id="RegisterEmployeeController-to-Repositories" style="stroke:#181818;stroke-width:1.0;stroke-dasharray:7.0,7.0;"/><polygon fill="#181818" points="364.94,374.48,373.5971,369.7837,367.9879,370.5163,367.2552,364.9071,364.94,374.48" style="stroke:#181818;stroke-width:1.0;"/><text fill="#000000" font-family="sans-serif" font-size="13" lengthAdjust="spacing" textLength="71" x="400" y="341.897">repositories</text></g><!--link RegisterEmployeeController to AgencyRepository--><g id="link_RegisterEmployeeController_AgencyRepository"><path codeLine="76" d="M556.99,297.46 C569.06,314.44 578,327 578,327 C578,327 682.84,495.51 731.14,573.16 " fill="none" id="RegisterEmployeeController-to-AgencyRepository" style="stroke:#181818;stroke-width:1.0;stroke-dasharray:7.0,7.0;"/><polygon fill="#181818" points="733.72,577.3,732.3568,567.5459,731.0764,573.056,725.5664,571.7757,733.72,577.3" style="stroke:#181818;stroke-width:1.0;"/><text fill="#000000" font-family="sans-serif" font-size="13" lengthAdjust="spacing" textLength="108" x="685" y="443.397">agencyRepository</text></g><!--link RegisterEmployeeController to RoleRepository--><g id="link_RegisterEmployeeController_RoleRepository"><path codeLine="77" d="M287.54,297.42 C195.8,337.57 108,376 108,376 C108,376 108,500 108,500 C108,500 114.85,540.22 120.33,572.35 " fill="none" id="RegisterEmployeeController-to-RoleRepository" style="stroke:#181818;stroke-width:1.0;stroke-dasharray:7.0,7.0;"/><polygon fill="#181818" points="121.15,577.16,123.5757,567.6145,120.3072,572.2315,115.6901,568.9631,121.15,577.16" style="stroke:#181818;stroke-width:1.0;"/><text fill="#000000" font-family="sans-serif" font-size="13" lengthAdjust="spacing" textLength="88" x="109" y="443.397">roleRepository</text></g><!--link RegisterEmployeeController to Agency--><g id="link_RegisterEmployeeController_Agency"><path codeLine="78" d="M512.45,297.3 C540.25,425.58 588,646 588,646 C588,646 605.47,679.87 625.59,718.85 " fill="none" id="RegisterEmployeeController-to-Agency" style="stroke:#181818;stroke-width:1.0;stroke-dasharray:7.0,7.0;"/><polygon fill="#181818" points="627.88,723.29,627.3196,713.4571,625.5926,718.8439,620.2058,717.1169,627.88,723.29" style="stroke:#181818;stroke-width:1.0;"/><text fill="#000000" font-family="sans-serif" font-size="13" lengthAdjust="spacing" textLength="43" x="567" y="544.897">agency</text></g><!--link RegisterEmployeeUI to RegisterEmployeeController--><g id="link_RegisterEmployeeUI_RegisterEmployeeController"><path codeLine="80" d="M493,55.4 C493,69.82 493,89.37 493,109.59 " fill="none" id="RegisterEmployeeUI-to-RegisterEmployeeController" style="stroke:#181818;stroke-width:1.0;stroke-dasharray:7.0,7.0;"/><polygon fill="#181818" points="493,114.37,497,105.37,493,109.37,489,105.37,493,114.37" style="stroke:#181818;stroke-width:1.0;"/></g><!--link Repositories to Repositories--><g id="link_Repositories_Repositories"><path codeLine="82" d="M418.79,419.75 C439.05,421.81 453.5,427.89 453.5,438 C453.5,447 442.04,452.81 425.22,455.43 " fill="none" id="Repositories-to-Repositories" style="stroke:#181818;stroke-width:1.0;"/><polygon fill="#181818" points="420.3,456.05,429.7397,458.8593,425.2585,455.407,428.7108,450.9258,420.3,456.05" style="stroke:#181818;stroke-width:1.0;"/><text fill="#000000" font-family="sans-serif" font-size="13" lengthAdjust="spacing" textLength="50" x="459.5" y="443.397">instance</text></g><!--link Repositories to RoleRepository--><g id="link_Repositories_RoleRepository"><path codeLine="83" d="M249.48,500.3 C222.18,525.09 191.57,552.88 167.78,574.48 " fill="none" id="Repositories-to-RoleRepository" style="stroke:#181818;stroke-width:1.0;"/><polygon fill="#181818" points="164.23,577.7,173.5831,574.6147,167.9329,574.3402,168.2074,568.69,164.23,577.7" style="stroke:#181818;stroke-width:1.0;"/><text fill="#000000" font-family="sans-serif" font-size="13" lengthAdjust="spacing" textLength="7" x="162.8358" y="566.9505">1</text></g><!--link Repositories to AgencyRepository--><g id="link_Repositories_AgencyRepository"><path codeLine="84" d="M418.9,497.38 C464.86,523.71 509,549 509,549 C509,549 562.08,562.49 618.93,576.93 " fill="none" id="Repositories-to-AgencyRepository" style="stroke:#181818;stroke-width:1.0;"/><polygon fill="#181818" points="623.69,578.14,615.9499,572.0497,618.8435,576.9105,613.9827,579.8041,623.69,578.14" style="stroke:#181818;stroke-width:1.0;"/><text fill="#000000" font-family="sans-serif" font-size="13" lengthAdjust="spacing" textLength="7" x="591.9087" y="567.1046">1</text></g><!--link Agency to Employee--><g id="link_Agency_Employee"><path codeLine="86" d="M526.63,945.39 C483.91,974.9 438.81,1006.05 399.99,1032.86 " fill="none" id="Agency-to-Employee" style="stroke:#181818;stroke-width:1.0;"/><polygon fill="#181818" points="396.05,1035.58,405.7282,1033.7546,400.1635,1032.7377,401.1805,1027.173,396.05,1035.58" style="stroke:#181818;stroke-width:1.0;"/><text fill="#000000" font-family="sans-serif" font-size="13" lengthAdjust="spacing" textLength="51" x="480" y="989.897">employs</text><text fill="#000000" font-family="sans-serif" font-size="13" lengthAdjust="spacing" textLength="7" x="509.766" y="966.5652">1</text><text fill="#000000" font-family="sans-serif" font-size="13" lengthAdjust="spacing" textLength="20" x="402.3797" y="1027.9292">1..*</text></g><!--link Employee to Address--><g id="link_Employee_Address"><path codeLine="88" d="M301.2,1186.27 C302.42,1209.66 303.75,1235.16 304.97,1258.36 " fill="none" id="Employee-to-Address" style="stroke:#181818;stroke-width:1.0;"/><polygon fill="#181818" points="305.23,1263.33,308.7348,1254.1259,304.9582,1258.3374,300.7467,1254.5608,305.23,1263.33" style="stroke:#181818;stroke-width:1.0;"/><text fill="#000000" font-family="sans-serif" font-size="13" lengthAdjust="spacing" textLength="47" x="304" y="1230.897">address</text></g><!--link Employee to Role--><g id="link_Employee_Role"><path codeLine="89" d="M237.54,1186.27 C212.29,1220.36 183.72,1258.93 161.95,1288.31 " fill="none" id="Employee-to-Role" style="stroke:#181818;stroke-width:1.0;"/><polygon fill="#181818" points="159.15,1292.1,167.7307,1287.2657,162.134,1288.088,161.3116,1282.4913,159.15,1292.1" style="stroke:#181818;stroke-width:1.0;"/><text fill="#000000" font-family="sans-serif" font-size="13" lengthAdjust="spacing" textLength="23" x="213" y="1230.897">role</text><text fill="#000000" font-family="sans-serif" font-size="13" lengthAdjust="spacing" textLength="7" x="224.9326" y="1208.1754">1</text><text fill="#000000" font-family="sans-serif" font-size="13" lengthAdjust="spacing" textLength="20" x="141.7695" y="1281.7047">1..*</text></g><!--link PasswordGenerator to Employee--><g id="link_PasswordGenerator_Employee"><path codeLine="90" d="M286.47,868.86 C288.12,905.59 290.85,966.55 293.11,1017.2 " fill="none" id="PasswordGenerator-to-Employee" style="stroke:#181818;stroke-width:1.0;"/><polygon fill="#181818" points="293.33,1022.12,296.9148,1012.9467,293.1017,1017.1252,288.9232,1013.3121,293.33,1022.12" style="stroke:#181818;stroke-width:1.0;"/><text fill="#000000" font-family="sans-serif" font-size="13" lengthAdjust="spacing" textLength="121" x="292" y="989.897">generates password</text><text fill="#000000" font-family="sans-serif" font-size="13" lengthAdjust="spacing" textLength="7" x="279.1084" y="890.3592">1</text><text fill="#000000" font-family="sans-serif" font-size="13" lengthAdjust="spacing" textLength="7" x="285.7455" y="1012.2668">1</text></g><!--link RoleRepository to Role--><g id="link_RoleRepository_Role"><path codeLine="92" d="M127,646.4 C127,761.95 127,1149.61 127,1286.85 " fill="none" id="RoleRepository-to-Role" style="stroke:#181818;stroke-width:1.0;"/><polygon fill="#181818" points="127,1291.68,131,1282.68,127,1286.68,123,1282.68,127,1291.68" style="stroke:#181818;stroke-width:1.0;"/><text fill="#000000" font-family="sans-serif" font-size="13" lengthAdjust="spacing" textLength="23" x="128" y="989.897">role</text><text fill="#000000" font-family="sans-serif" font-size="13" lengthAdjust="spacing" textLength="7" x="119.3766" y="667.9063">1</text><text fill="#000000" font-family="sans-serif" font-size="13" lengthAdjust="spacing" textLength="20" x="105.3438" y="1281.5532">1..*</text></g><!--link AgencyRepository to Agency--><g id="link_AgencyRepository_Agency"><path codeLine="94" d="M744.67,646.04 C738.45,665.64 730.11,691.91 721.64,718.58 " fill="none" id="AgencyRepository-to-Agency" style="stroke:#181818;stroke-width:1.0;"/><polygon fill="#181818" points="720.18,723.2,726.7151,715.8316,721.6925,718.4342,719.0899,713.4117,720.18,723.2" style="stroke:#181818;stroke-width:1.0;"/><text fill="#000000" font-family="sans-serif" font-size="13" lengthAdjust="spacing" textLength="43" x="735" y="690.897">agency</text><text fill="#000000" font-family="sans-serif" font-size="13" lengthAdjust="spacing" textLength="7" x="735.0337" y="668.0117">1</text><text fill="#000000" font-family="sans-serif" font-size="13" lengthAdjust="spacing" textLength="20" x="701.4581" y="713.2182">1..*</text></g><!--SRC=[jLGzRzim4DtvAmWlLbhPQ5SF1HoZABG4XOriNHZn8XEXI86acof6_tifYH8_P3jPgaNItRklntTSwXSc6g98ZMifP7bKiWPir0cGzpIaV24L74pB0Iie3H4L3m7wIAXyPQB2puJhqCEP0DCsW1l9s-u7BIyufJ8I1L4b9rflZL7iwMIWAAKui3V0Nn1QSdWss4YiM7KqcBAk7IO5GdqCtaF5j07rlMwuR04UYskUdHH6ISv1dH6sp-SRYCo-O0-DrCn8rUROiY7ArblkN8eApDv2THOOjXsM1JQLrCa4gI6tB6lTM2PsHD67KvrZG_xOznCeMuzI1Lhd66h2-7Ry-oMQenGmeigZr22w1iRlldPRqA7qQkhllZq07vZBV5I06fkU0ttAlvvQnuCDm6UN93I6T1H2M_sKaDtXJGIAAVJSphXi8v_l8eew9oToRU8fF4rzdf_WXyWOJ2CBXJ1GWSACEiF1Yjhk2GNDAa5wwKQEy81ZJt3KhhMXLCPe7kPBHHB4_NS5gbvxmtQCQhAHKnrm7wFlD-6C4WCN09xHqNcE-UXwJbXE1aYyqpItURrr57OmKBRVdxRGgrGqrDze-p5WfF8AkXxaqYUZQQC0J6mhcMaV_CYZZkmvAbQQkSTkcO5jgQHeKoBUMBEJ5EBLmKaFVad6wz5-fgjp_Sh4w_Mt-6BOMDa5s_vEQBgEDZozTD-j7bq8NVt8yB4EfhhpOHyBD-IrD5r8GC1gDME4kSjm3bnyNIG3NCQaF27a-kwS0sYz_hIObiWM7NPC8pJPEfnJOZUla_paJbBrQXdOH3FH1s1VT3FjWEvtj8kmvCJdSwCAcgaX0S_EwXy0]--></g></svg>