<?xml version="1.0" encoding="us-ascii" standalone="no"?><svg xmlns="http://www.w3.org/2000/svg" xmlns:xlink="http://www.w3.org/1999/xlink" contentStyleType="text/css" height="1466px" preserveAspectRatio="none" style="width:1192px;height:1466px;background:#FFFFFF;" version="1.1" viewBox="0 0 1192 1466" width="1192px" zoomAndPan="magnify"><defs/><g><rect fill="#FFFFFF" height="1270.7931" style="stroke:#181818;stroke-width:1.0;" width="10" x="64.5" y="94.0679"/><rect fill="#FFFFFF" height="111.186" style="stroke:#181818;stroke-width:1.0;" width="10" x="472.5" y="117.7739"/><rect fill="#FFFFFF" height="256.6303" style="stroke:#181818;stroke-width:1.0;" width="10" x="472.5" y="260.6659"/><rect fill="#FFFFFF" height="38.706" style="stroke:#181818;stroke-width:1.0;" width="10" x="472.5" y="575.7083"/><rect fill="#FFFFFF" height="31.706" style="stroke:#181818;stroke-width:1.0;" width="10" x="472.5" y="646.1203"/><rect fill="#FFFFFF" height="655.3286" style="stroke:#181818;stroke-width:1.0;" width="10" x="472.5" y="709.5324"/><rect fill="#FFFFFF" height="80.7561" style="stroke:#181818;stroke-width:1.0;" width="10" x="792.5" y="292.3719"/><rect fill="#FFFFFF" height="80.7561" style="stroke:#181818;stroke-width:1.0;" width="10" x="792.5" y="404.8341"/><rect fill="#FFFFFF" height="556.5045" style="stroke:#181818;stroke-width:1.0;" width="10" x="792.5" y="776.6504"/><rect fill="#FFFFFF" height="91.7561" style="stroke:#181818;stroke-width:1.0;" width="10" x="797.5" y="816.3564"/><rect fill="#FFFFFF" height="91.7561" style="stroke:#181818;stroke-width:1.0;" width="10" x="797.5" y="1004.8186"/><rect fill="#FFFFFF" height="80.7561" style="stroke:#181818;stroke-width:1.0;" width="10" x="1105.5" y="1220.6928"/><rect fill="none" height="51.412" style="stroke:#000000;stroke-width:1.5;" width="554.5" x="10" y="532.2963"/><line style="stroke:#181818;stroke-width:0.5;stroke-dasharray:5.0,5.0;" x1="69" x2="69" y1="84.0679" y2="1382.861"/><line style="stroke:#181818;stroke-width:0.5;stroke-dasharray:5.0,5.0;" x1="477.5" x2="477.5" y1="84.0679" y2="1382.861"/><line style="stroke:#181818;stroke-width:0.5;stroke-dasharray:5.0,5.0;" x1="797.5" x2="797.5" y1="157.8079" y2="1382.861"/><line style="stroke:#181818;stroke-width:0.5;stroke-dasharray:5.0,5.0;" x1="1110" x2="1110" y1="84.0679" y2="1382.861"/><text fill="#000000" font-family="sans-serif" font-size="14" lengthAdjust="spacing" textLength="93" x="20" y="79.9659">Administrator</text><ellipse cx="69.5" cy="13.5" fill="#E3E3E3" rx="8" ry="8" style="stroke:#181818;stroke-width:0.5;"/><path d="M69.5,21.5 L69.5,48.5 M56.5,29.5 L82.5,29.5 M69.5,48.5 L56.5,63.5 M69.5,48.5 L82.5,63.5 " fill="none" style="stroke:#181818;stroke-width:0.5;"/><text fill="#000000" font-family="sans-serif" font-size="14" lengthAdjust="spacing" textLength="93" x="20" y="1396.8269">Administrator</text><ellipse cx="69.5" cy="1409.4289" fill="#E3E3E3" rx="8" ry="8" style="stroke:#181818;stroke-width:0.5;"/><path d="M69.5,1417.4289 L69.5,1444.4289 M56.5,1425.4289 L82.5,1425.4289 M69.5,1444.4289 L56.5,1459.4289 M69.5,1444.4289 L82.5,1459.4289 " fill="none" style="stroke:#181818;stroke-width:0.5;"/><rect fill="#E3E3E3" height="33.0679" rx="2.5" ry="2.5" style="stroke:#181818;stroke-width:0.5;" width="154" x="400.5" y="50"/><text fill="#000000" font-family="sans-serif" font-size="14" lengthAdjust="spacing" textLength="140" x="407.5" y="71.9659">:RegisterEmployeeUI</text><rect fill="#E3E3E3" height="33.0679" rx="2.5" ry="2.5" style="stroke:#181818;stroke-width:0.5;" width="154" x="400.5" y="1381.861"/><text fill="#000000" font-family="sans-serif" font-size="14" lengthAdjust="spacing" textLength="140" x="407.5" y="1403.8269">:RegisterEmployeeUI</text><rect fill="#E3E3E3" height="33.0679" rx="2.5" ry="2.5" style="stroke:#181818;stroke-width:0.5;" width="206" x="694.5" y="1381.861"/><text fill="#000000" font-family="sans-serif" font-size="14" lengthAdjust="spacing" textLength="192" x="701.5" y="1403.8269">:RegisterEmployeeController</text><rect fill="#E3E3E3" height="33.0679" rx="2.5" ry="2.5" style="stroke:#181818;stroke-width:0.5;" width="67" x="1077" y="50"/><text fill="#000000" font-family="sans-serif" font-size="14" lengthAdjust="spacing" textLength="53" x="1084" y="71.9659">:Agency</text><rect fill="#E3E3E3" height="33.0679" rx="2.5" ry="2.5" style="stroke:#181818;stroke-width:0.5;" width="67" x="1077" y="1381.861"/><text fill="#000000" font-family="sans-serif" font-size="14" lengthAdjust="spacing" textLength="53" x="1084" y="1403.8269">:Agency</text><rect fill="#FFFFFF" height="1270.7931" style="stroke:#181818;stroke-width:1.0;" width="10" x="64.5" y="94.0679"/><rect fill="#FFFFFF" height="111.186" style="stroke:#181818;stroke-width:1.0;" width="10" x="472.5" y="117.7739"/><rect fill="#FFFFFF" height="256.6303" style="stroke:#181818;stroke-width:1.0;" width="10" x="472.5" y="260.6659"/><rect fill="#FFFFFF" height="38.706" style="stroke:#181818;stroke-width:1.0;" width="10" x="472.5" y="575.7083"/><rect fill="#FFFFFF" height="31.706" style="stroke:#181818;stroke-width:1.0;" width="10" x="472.5" y="646.1203"/><rect fill="#FFFFFF" height="655.3286" style="stroke:#181818;stroke-width:1.0;" width="10" x="472.5" y="709.5324"/><rect fill="#FFFFFF" height="80.7561" style="stroke:#181818;stroke-width:1.0;" width="10" x="792.5" y="292.3719"/><rect fill="#FFFFFF" height="80.7561" style="stroke:#181818;stroke-width:1.0;" width="10" x="792.5" y="404.8341"/><rect fill="#FFFFFF" height="556.5045" style="stroke:#181818;stroke-width:1.0;" width="10" x="792.5" y="776.6504"/><rect fill="#FFFFFF" height="91.7561" style="stroke:#181818;stroke-width:1.0;" width="10" x="797.5" y="816.3564"/><rect fill="#FFFFFF" height="91.7561" style="stroke:#181818;stroke-width:1.0;" width="10" x="797.5" y="1004.8186"/><rect fill="#FFFFFF" height="80.7561" style="stroke:#181818;stroke-width:1.0;" width="10" x="1105.5" y="1220.6928"/><polygon fill="#181818" points="460.5,113.7739,470.5,117.7739,460.5,121.7739,464.5,117.7739" style="stroke:#181818;stroke-width:1.0;"/><line style="stroke:#181818;stroke-width:1.0;" x1="74.5" x2="466.5" y1="117.7739" y2="117.7739"/><text fill="#000000" font-family="sans-serif" font-size="13" font-weight="bold" lengthAdjust="spacing" textLength="7" x="81.5" y="111.9649">1</text><text fill="#000000" font-family="sans-serif" font-size="13" lengthAdjust="spacing" textLength="191" x="92.5" y="111.9649">asks to register a new employee</text><polygon fill="#181818" points="682.5,145.4799,692.5,149.4799,682.5,153.4799,686.5,149.4799" style="stroke:#181818;stroke-width:1.0;"/><line style="stroke:#181818;stroke-width:1.0;" x1="482.5" x2="688.5" y1="149.4799" y2="149.4799"/><text fill="#000000" font-family="sans-serif" font-size="13" font-weight="bold" lengthAdjust="spacing" textLength="7" x="489.5" y="143.6709">2</text><text fill="#000000" font-family="sans-serif" font-size="13" lengthAdjust="spacing" textLength="45" x="500.5" y="143.6709">create()</text><rect fill="#E3E3E3" height="33.0679" rx="2.5" ry="2.5" style="stroke:#181818;stroke-width:0.5;" width="206" x="694.5" y="125.7739"/><text fill="#000000" font-family="sans-serif" font-size="14" lengthAdjust="spacing" textLength="192" x="701.5" y="147.7399">:RegisterEmployeeController</text><polygon fill="#181818" points="85.5,224.9599,75.5,228.9599,85.5,232.9599,81.5,228.9599" style="stroke:#181818;stroke-width:1.0;"/><line style="stroke:#181818;stroke-width:1.0;stroke-dasharray:2.0,2.0;" x1="79.5" x2="476.5" y1="228.9599" y2="228.9599"/><text fill="#000000" font-family="sans-serif" font-size="13" font-weight="bold" lengthAdjust="spacing" textLength="7" x="91.5" y="205.4449">3</text><text fill="#000000" font-family="sans-serif" font-size="13" lengthAdjust="spacing" textLength="243" x="102.5" y="187.7389">requests data (name, passportCardNum,</text><text fill="#000000" font-family="sans-serif" font-size="13" lengthAdjust="spacing" textLength="211" x="102.5" y="205.4449">taxNumber, address, emailAddress,</text><text fill="#000000" font-family="sans-serif" font-size="13" lengthAdjust="spacing" textLength="93" x="102.5" y="223.1509">phoneNumber)</text><polygon fill="#181818" points="460.5,256.6659,470.5,260.6659,460.5,264.6659,464.5,260.6659" style="stroke:#181818;stroke-width:1.0;"/><line style="stroke:#181818;stroke-width:1.0;" x1="74.5" x2="466.5" y1="260.6659" y2="260.6659"/><text fill="#000000" font-family="sans-serif" font-size="13" font-weight="bold" lengthAdjust="spacing" textLength="7" x="81.5" y="254.8569">4</text><text fill="#000000" font-family="sans-serif" font-size="13" lengthAdjust="spacing" textLength="127" x="92.5" y="254.8569">types requested data</text><polygon fill="#181818" points="780.5,288.3719,790.5,292.3719,780.5,296.3719,784.5,292.3719" style="stroke:#181818;stroke-width:1.0;"/><line style="stroke:#181818;stroke-width:1.0;" x1="482.5" x2="786.5" y1="292.3719" y2="292.3719"/><text fill="#000000" font-family="sans-serif" font-size="13" font-weight="bold" lengthAdjust="spacing" textLength="7" x="489.5" y="286.5629">5</text><text fill="#000000" font-family="sans-serif" font-size="13" lengthAdjust="spacing" textLength="60" x="500.5" y="286.5629">getRoles()</text><rect fill="none" height="44.0501" style="stroke:#000000;stroke-width:1.5;" width="212" x="691.5" y="300.3719"/><path d="M691.5,300.3719 L755.5,300.3719 L755.5,309.3719 L745.5,319.3719 L691.5,319.3719 L691.5,300.3719 " fill="#EEEEEE" style="stroke:#000000;stroke-width:2.0;"/><text fill="#000000" font-family="sans-serif" font-size="13" font-weight="bold" lengthAdjust="spacing" textLength="19" x="704.5" y="316.2689">ref</text><text fill="#000000" font-family="sans-serif" font-size="12" lengthAdjust="spacing" textLength="69" x="763" y="336.2">Get Role List</text><polygon fill="#181818" points="493.5,369.1281,483.5,373.1281,493.5,377.1281,489.5,373.1281" style="stroke:#181818;stroke-width:1.0;"/><line style="stroke:#181818;stroke-width:1.0;stroke-dasharray:2.0,2.0;" x1="487.5" x2="796.5" y1="373.1281" y2="373.1281"/><text fill="#000000" font-family="sans-serif" font-size="13" font-weight="bold" lengthAdjust="spacing" textLength="7" x="499.5" y="367.3191">6</text><text fill="#000000" font-family="sans-serif" font-size="13" lengthAdjust="spacing" textLength="44" x="510.5" y="367.3191">roleList</text><polygon fill="#181818" points="780.5,400.8341,790.5,404.8341,780.5,408.8341,784.5,404.8341" style="stroke:#181818;stroke-width:1.0;"/><line style="stroke:#181818;stroke-width:1.0;" x1="482.5" x2="786.5" y1="404.8341" y2="404.8341"/><text fill="#000000" font-family="sans-serif" font-size="13" font-weight="bold" lengthAdjust="spacing" textLength="7" x="489.5" y="399.0251">7</text><text fill="#000000" font-family="sans-serif" font-size="13" lengthAdjust="spacing" textLength="81" x="500.5" y="399.0251">getAgencies()</text><rect fill="none" height="44.0501" style="stroke:#000000;stroke-width:1.5;" width="212" x="691.5" y="412.8341"/><path d="M691.5,412.8341 L755.5,412.8341 L755.5,421.8341 L745.5,431.8341 L691.5,431.8341 L691.5,412.8341 " fill="#EEEEEE" style="stroke:#000000;stroke-width:2.0;"/><text fill="#000000" font-family="sans-serif" font-size="13" font-weight="bold" lengthAdjust="spacing" textLength="19" x="704.5" y="428.7311">ref</text><text fill="#000000" font-family="sans-serif" font-size="12" lengthAdjust="spacing" textLength="86" x="754.5" y="448.6622">Get Agency List</text><polygon fill="#181818" points="493.5,481.5902,483.5,485.5902,493.5,489.5902,489.5,485.5902" style="stroke:#181818;stroke-width:1.0;"/><line style="stroke:#181818;stroke-width:1.0;" x1="487.5" x2="796.5" y1="485.5902" y2="485.5902"/><text fill="#000000" font-family="sans-serif" font-size="13" font-weight="bold" lengthAdjust="spacing" textLength="7" x="499.5" y="479.7812">8</text><text fill="#000000" font-family="sans-serif" font-size="13" lengthAdjust="spacing" textLength="64" x="510.5" y="479.7812">agencyList</text><polygon fill="#181818" points="85.5,513.2963,75.5,517.2963,85.5,521.2963,81.5,517.2963" style="stroke:#181818;stroke-width:1.0;"/><line style="stroke:#181818;stroke-width:1.0;stroke-dasharray:2.0,2.0;" x1="79.5" x2="476.5" y1="517.2963" y2="517.2963"/><text fill="#000000" font-family="sans-serif" font-size="13" font-weight="bold" lengthAdjust="spacing" textLength="7" x="91.5" y="511.4873">9</text><text fill="#000000" font-family="sans-serif" font-size="13" lengthAdjust="spacing" textLength="198" x="102.5" y="511.4873">shows roles list and asks to select</text><path d="M10,532.2963 L83,532.2963 L83,542.0023 L73,552.0023 L10,552.0023 L10,532.2963 " fill="#EEEEEE" style="stroke:#000000;stroke-width:1.5;"/><rect fill="none" height="51.412" style="stroke:#000000;stroke-width:1.5;" width="554.5" x="10" y="532.2963"/><text fill="#000000" font-family="sans-serif" font-size="13" font-weight="bold" lengthAdjust="spacing" textLength="28" x="25" y="547.1933">loop</text><polygon fill="#181818" points="460.5,571.7083,470.5,575.7083,460.5,579.7083,464.5,575.7083" style="stroke:#181818;stroke-width:1.0;"/><line style="stroke:#181818;stroke-width:1.0;" x1="74.5" x2="466.5" y1="575.7083" y2="575.7083"/><text fill="#000000" font-family="sans-serif" font-size="13" font-weight="bold" lengthAdjust="spacing" textLength="14" x="81.5" y="569.8993">10</text><text fill="#000000" font-family="sans-serif" font-size="13" lengthAdjust="spacing" textLength="66" x="99.5" y="569.8993">selects role</text><polygon fill="#181818" points="85.5,610.4143,75.5,614.4143,85.5,618.4143,81.5,614.4143" style="stroke:#181818;stroke-width:1.0;"/><line style="stroke:#181818;stroke-width:1.0;stroke-dasharray:2.0,2.0;" x1="79.5" x2="476.5" y1="614.4143" y2="614.4143"/><text fill="#000000" font-family="sans-serif" font-size="13" font-weight="bold" lengthAdjust="spacing" textLength="14" x="91.5" y="608.6053">11</text><text fill="#000000" font-family="sans-serif" font-size="13" lengthAdjust="spacing" textLength="247" x="109.5" y="608.6053">shows agencies list and asks to select one</text><polygon fill="#181818" points="460.5,642.1203,470.5,646.1203,460.5,650.1203,464.5,646.1203" style="stroke:#181818;stroke-width:1.0;"/><line style="stroke:#181818;stroke-width:1.0;" x1="74.5" x2="466.5" y1="646.1203" y2="646.1203"/><text fill="#000000" font-family="sans-serif" font-size="13" font-weight="bold" lengthAdjust="spacing" textLength="14" x="81.5" y="640.3113">12</text><text fill="#000000" font-family="sans-serif" font-size="13" lengthAdjust="spacing" textLength="86" x="99.5" y="640.3113">selects agency</text><polygon fill="#181818" points="85.5,673.8263,75.5,677.8263,85.5,681.8263,81.5,677.8263" style="stroke:#181818;stroke-width:1.0;"/><line style="stroke:#181818;stroke-width:1.0;stroke-dasharray:2.0,2.0;" x1="79.5" x2="476.5" y1="677.8263" y2="677.8263"/><text fill="#000000" font-family="sans-serif" font-size="13" font-weight="bold" lengthAdjust="spacing" textLength="14" x="91.5" y="672.0173">13</text><text fill="#000000" font-family="sans-serif" font-size="13" lengthAdjust="spacing" textLength="356" x="109.5" y="672.0173">shows selected and requested data and asks to submit data</text><polygon fill="#181818" points="460.5,705.5324,470.5,709.5324,460.5,713.5324,464.5,709.5324" style="stroke:#181818;stroke-width:1.0;"/><line style="stroke:#181818;stroke-width:1.0;" x1="74.5" x2="466.5" y1="709.5324" y2="709.5324"/><text fill="#000000" font-family="sans-serif" font-size="13" font-weight="bold" lengthAdjust="spacing" textLength="14" x="81.5" y="703.7234">14</text><text fill="#000000" font-family="sans-serif" font-size="13" lengthAdjust="spacing" textLength="78" x="99.5" y="703.7234">submits data</text><polygon fill="#181818" points="780.5,772.6504,790.5,776.6504,780.5,780.6504,784.5,776.6504" style="stroke:#181818;stroke-width:1.0;"/><line style="stroke:#181818;stroke-width:1.0;" x1="482.5" x2="786.5" y1="776.6504" y2="776.6504"/><text fill="#000000" font-family="sans-serif" font-size="13" font-weight="bold" lengthAdjust="spacing" textLength="14" x="489.5" y="753.1354">15</text><text fill="#000000" font-family="sans-serif" font-size="13" lengthAdjust="spacing" textLength="263" x="507.5" y="735.4294">registerEmployee(name, passportCardNum,</text><text fill="#000000" font-family="sans-serif" font-size="13" lengthAdjust="spacing" textLength="211" x="507.5" y="753.1354">taxNumber, address, emailAddress,</text><text fill="#000000" font-family="sans-serif" font-size="13" lengthAdjust="spacing" textLength="273" x="507.5" y="770.8414">phoneNumber, chosenRole, chosenAgencyId)</text><line style="stroke:#181818;stroke-width:1.0;" x1="802.5" x2="849.5" y1="803.3564" y2="803.3564"/><line style="stroke:#181818;stroke-width:1.0;" x1="849.5" x2="849.5" y1="803.3564" y2="816.3564"/><line style="stroke:#181818;stroke-width:1.0;" x1="808.5" x2="849.5" y1="816.3564" y2="816.3564"/><polygon fill="#181818" points="818.5,812.3564,808.5,816.3564,818.5,820.3564,814.5,816.3564" style="stroke:#181818;stroke-width:1.0;"/><text fill="#000000" font-family="sans-serif" font-size="13" font-weight="bold" lengthAdjust="spacing" textLength="14" x="814.5" y="797.5474">16</text><text fill="#000000" font-family="sans-serif" font-size="13" lengthAdjust="spacing" textLength="198" x="832.5" y="797.5474">getRolesBySelection(chosenRole)</text><rect fill="none" height="44.0501" style="stroke:#000000;stroke-width:1.5;" width="212" x="691.5" y="829.3564"/><path d="M691.5,829.3564 L755.5,829.3564 L755.5,838.3564 L745.5,848.3564 L691.5,848.3564 L691.5,829.3564 " fill="#EEEEEE" style="stroke:#000000;stroke-width:2.0;"/><text fill="#000000" font-family="sans-serif" font-size="13" font-weight="bold" lengthAdjust="spacing" textLength="19" x="704.5" y="845.2534">ref</text><text fill="#000000" font-family="sans-serif" font-size="12" lengthAdjust="spacing" textLength="86" x="754.5" y="865.1845">Get Role Object</text><line style="stroke:#181818;stroke-width:1.0;stroke-dasharray:2.0,2.0;" x1="807.5" x2="849.5" y1="907.1126" y2="907.1126"/><line style="stroke:#181818;stroke-width:1.0;stroke-dasharray:2.0,2.0;" x1="849.5" x2="849.5" y1="907.1126" y2="920.1126"/><line style="stroke:#181818;stroke-width:1.0;stroke-dasharray:2.0,2.0;" x1="802.5" x2="849.5" y1="920.1126" y2="920.1126"/><polygon fill="#181818" points="812.5,916.1126,802.5,920.1126,812.5,924.1126,808.5,920.1126" style="stroke:#181818;stroke-width:1.0;"/><text fill="#000000" font-family="sans-serif" font-size="13" font-weight="bold" lengthAdjust="spacing" textLength="14" x="814.5" y="901.3036">17</text><text fill="#000000" font-family="sans-serif" font-size="13" lengthAdjust="spacing" textLength="23" x="832.5" y="901.3036">role</text><line style="stroke:#181818;stroke-width:1.0;" x1="802.5" x2="849.5" y1="991.8186" y2="991.8186"/><line style="stroke:#181818;stroke-width:1.0;" x1="849.5" x2="849.5" y1="991.8186" y2="1004.8186"/><line style="stroke:#181818;stroke-width:1.0;" x1="808.5" x2="849.5" y1="1004.8186" y2="1004.8186"/><polygon fill="#181818" points="818.5,1000.8186,808.5,1004.8186,818.5,1008.8186,814.5,1004.8186" style="stroke:#181818;stroke-width:1.0;"/><text fill="#000000" font-family="sans-serif" font-size="13" font-weight="bold" lengthAdjust="spacing" textLength="14" x="814.5" y="986.0096">18</text><text fill="#000000" font-family="sans-serif" font-size="13" lengthAdjust="spacing" textLength="249" x="832.5" y="986.0096">getAgenciesBySelection(chosenAgencyId)</text><rect fill="none" height="44.0501" style="stroke:#000000;stroke-width:1.5;" width="212" x="691.5" y="1017.8186"/><path d="M691.5,1017.8186 L755.5,1017.8186 L755.5,1026.8186 L745.5,1036.8186 L691.5,1036.8186 L691.5,1017.8186 " fill="#EEEEEE" style="stroke:#000000;stroke-width:2.0;"/><text fill="#000000" font-family="sans-serif" font-size="13" font-weight="bold" lengthAdjust="spacing" textLength="19" x="704.5" y="1033.7156">ref</text><text fill="#000000" font-family="sans-serif" font-size="12" lengthAdjust="spacing" textLength="103" x="746" y="1053.6467">Get Agency Object</text><line style="stroke:#181818;stroke-width:1.0;stroke-dasharray:2.0,2.0;" x1="807.5" x2="849.5" y1="1095.5747" y2="1095.5747"/><line style="stroke:#181818;stroke-width:1.0;stroke-dasharray:2.0,2.0;" x1="849.5" x2="849.5" y1="1095.5747" y2="1108.5747"/><line style="stroke:#181818;stroke-width:1.0;stroke-dasharray:2.0,2.0;" x1="802.5" x2="849.5" y1="1108.5747" y2="1108.5747"/><polygon fill="#181818" points="812.5,1104.5747,802.5,1108.5747,812.5,1112.5747,808.5,1108.5747" style="stroke:#181818;stroke-width:1.0;"/><text fill="#000000" font-family="sans-serif" font-size="13" font-weight="bold" lengthAdjust="spacing" textLength="14" x="814.5" y="1089.7657">19</text><text fill="#000000" font-family="sans-serif" font-size="13" lengthAdjust="spacing" textLength="43" x="832.5" y="1089.7657">agency</text><polygon fill="#181818" points="1093.5,1216.6928,1103.5,1220.6928,1093.5,1224.6928,1097.5,1220.6928" style="stroke:#181818;stroke-width:1.0;"/><line style="stroke:#181818;stroke-width:1.0;" x1="802.5" x2="1099.5" y1="1220.6928" y2="1220.6928"/><text fill="#000000" font-family="sans-serif" font-size="13" font-weight="bold" lengthAdjust="spacing" textLength="14" x="809.5" y="1197.1778">20</text><text fill="#000000" font-family="sans-serif" font-size="13" lengthAdjust="spacing" textLength="263" x="827.5" y="1179.4718">registerEmployee(name, passportCardNum,</text><text fill="#000000" font-family="sans-serif" font-size="13" lengthAdjust="spacing" textLength="211" x="827.5" y="1197.1778">taxNumber, address, emailAddress,</text><text fill="#000000" font-family="sans-serif" font-size="13" lengthAdjust="spacing" textLength="171" x="827.5" y="1214.8838">phoneNumber, role, agency)</text><rect fill="none" height="44.0501" style="stroke:#000000;stroke-width:1.5;" width="112" x="1074" y="1228.6928"/><path d="M1074,1228.6928 L1138,1228.6928 L1138,1237.6928 L1128,1247.6928 L1074,1247.6928 L1074,1228.6928 " fill="#EEEEEE" style="stroke:#000000;stroke-width:2.0;"/><text fill="#000000" font-family="sans-serif" font-size="13" font-weight="bold" lengthAdjust="spacing" textLength="19" x="1087" y="1244.5898">ref</text><text fill="#000000" font-family="sans-serif" font-size="12" lengthAdjust="spacing" textLength="104" x="1078" y="1264.5209">Register Employee</text><polygon fill="#181818" points="813.5,1297.4489,803.5,1301.4489,813.5,1305.4489,809.5,1301.4489" style="stroke:#181818;stroke-width:1.0;"/><line style="stroke:#181818;stroke-width:1.0;stroke-dasharray:2.0,2.0;" x1="807.5" x2="1109.5" y1="1301.4489" y2="1301.4489"/><text fill="#000000" font-family="sans-serif" font-size="13" font-weight="bold" lengthAdjust="spacing" textLength="14" x="819.5" y="1295.6399">21</text><text fill="#000000" font-family="sans-serif" font-size="13" lengthAdjust="spacing" textLength="59" x="837.5" y="1295.6399">employee</text><polygon fill="#181818" points="493.5,1329.155,483.5,1333.155,493.5,1337.155,489.5,1333.155" style="stroke:#181818;stroke-width:1.0;"/><line style="stroke:#181818;stroke-width:1.0;stroke-dasharray:2.0,2.0;" x1="487.5" x2="796.5" y1="1333.155" y2="1333.155"/><text fill="#000000" font-family="sans-serif" font-size="13" font-weight="bold" lengthAdjust="spacing" textLength="14" x="499.5" y="1327.3459">22</text><text fill="#000000" font-family="sans-serif" font-size="13" lengthAdjust="spacing" textLength="59" x="517.5" y="1327.3459">employee</text><polygon fill="#181818" points="80.5,1360.861,70.5,1364.861,80.5,1368.861,76.5,1364.861" style="stroke:#181818;stroke-width:1.0;"/><line style="stroke:#181818;stroke-width:1.0;stroke-dasharray:2.0,2.0;" x1="74.5" x2="476.5" y1="1364.861" y2="1364.861"/><text fill="#000000" font-family="sans-serif" font-size="13" font-weight="bold" lengthAdjust="spacing" textLength="14" x="86.5" y="1359.052">23</text><text fill="#000000" font-family="sans-serif" font-size="13" lengthAdjust="spacing" textLength="158" x="104.5" y="1359.052">displays operation success</text><!--SRC=[jLPDR-8m4BtdLuouBAte7-2m4ijMAwHkLuBsrikG38cNnCxQJcaaVlnE74BpMQ2YFc4yVZFpPjx4PYjaYXeJI9HKVgHLGc1rHfuvdgJeRp6abSrZ0as-HHd6TGCJOQ1sGeQmmTYGvs5cbSoIDMdF-nQ9W62Zb5shDmzzgpICPa4Yf31M8sz7W0PcFtzxZ6Q5BrAK5aRJ9OLiGVe-IMEL4pqldE7pueJTN4chLHnJ2Jn_MZwqRin2adxkJbTFIuyNXoLUqP8BmuF3uWtSVMUFC6NRhG6hEF_I6o18sW4TdBvVEa9neCS_YyKm35Q4StlBWBucjXhVT8tOgl0yPL__CZBMG80MOImneGbNmvXKQJj77JncoGHUfCMtHyVs1308D1apuS1GnBDgzoBJI4aghMek0-eDjvwupLCoLIWKk5WkofOnGh9B5PFXREisnykkHesZOcdQW7fbgjqnzAnVPA40XWUkISU2P51WT85TL7TLWjmhrBbV8wORN3itrq_YQz8hU_LJ2LQTwn0kp_3OXYPIE-DeCX0p323xhVHWAEQ9SAgXOgNIXeDwXvKGfOT-0XcgbdCttvvmyL2JeOY1vJ34HxkN-u8jMHqCznIR9GpB2LqDw-9g1fkj4s5BqLqWslAQQTuxJwkwDKwlDdOcu4VAa2m4M_qkktiHN2ISghjRm-L7ldAa2YN7xvvkEjTFe9ydpSRq-RF-MzV0MH9jpA6A-hO0UdNQiTZlzsVzr-Mj6bnTwleBStNw3jFjMWJsYFBagFiCW_ng-5gbQAUHCfqFIk1UBnzMeB0OAa3rS88gWSiBK11Huv-6W6eLw8sv-KNkXJd_UnK8ayQO6r0fyGEJcvhdeUyppqCZjBOj7e3_0G00]--></g></svg>