<?xml version="1.0" encoding="us-ascii" standalone="no"?><svg xmlns="http://www.w3.org/2000/svg" xmlns:xlink="http://www.w3.org/1999/xlink" contentStyleType="text/css" height="1072px" preserveAspectRatio="none" style="width:1091px;height:1072px;background:#FFFFFF;" version="1.1" viewBox="0 0 1091 1072" width="1091px" zoomAndPan="magnify"><defs/><g><text fill="#000000" font-family="sans-serif" font-size="14" font-weight="bold" lengthAdjust="spacing" textLength="131" x="473.115" y="22.6738">Domain Model US2</text><!--class Address--><g id="elem_Address"><rect codeLine="16" fill="#F1F1F1" height="111.8438" id="Address" rx="2.5" ry="2.5" style="stroke:#181818;stroke-width:0.5;" width="98" x="641.23" y="43.6406"/><text fill="#000000" font-family="sans-serif" font-size="14" lengthAdjust="spacing" textLength="52" x="664.23" y="61.3145">Address</text><line style="stroke:#181818;stroke-width:0.5;" x1="642.23" x2="738.23" y1="69.2813" y2="69.2813"/><text fill="#000000" font-family="sans-serif" font-size="14" lengthAdjust="spacing" textLength="36" x="647.23" y="85.9551">street</text><text fill="#000000" font-family="sans-serif" font-size="14" lengthAdjust="spacing" textLength="57" x="647.23" y="101.5957">cityName</text><text fill="#000000" font-family="sans-serif" font-size="14" lengthAdjust="spacing" textLength="77" x="647.23" y="117.2363">districtName</text><text fill="#000000" font-family="sans-serif" font-size="14" lengthAdjust="spacing" textLength="86" x="647.23" y="132.877">stateAcronym</text><text fill="#000000" font-family="sans-serif" font-size="14" lengthAdjust="spacing" textLength="51" x="647.23" y="148.5176">zipCode</text></g><!--class Request--><g id="elem_Request"><rect codeLine="25" fill="#F1F1F1" height="64.9219" id="Request" rx="2.5" ry="2.5" style="stroke:#181818;stroke-width:0.5;" width="110" x="223.23" y="529.6406"/><text fill="#000000" font-family="sans-serif" font-size="14" lengthAdjust="spacing" textLength="53" x="251.73" y="547.3145">Request</text><line style="stroke:#181818;stroke-width:0.5;" x1="224.23" x2="332.23" y1="555.2813" y2="555.2813"/><text fill="#000000" font-family="sans-serif" font-size="14" lengthAdjust="spacing" textLength="98" x="229.23" y="571.9551">publicationDate</text><text fill="#000000" font-family="sans-serif" font-size="14" lengthAdjust="spacing" textLength="31" x="229.23" y="587.5957">price</text></g><!--class Agent--><g id="elem_Agent"><rect codeLine="31" fill="#F1F1F1" height="33.6406" id="Agent" rx="2.5" ry="2.5" style="stroke:#181818;stroke-width:0.5;" width="43" x="121.73" y="231.6406"/><text fill="#000000" font-family="sans-serif" font-size="14" lengthAdjust="spacing" textLength="37" x="124.73" y="249.3145">Agent</text><line style="stroke:#181818;stroke-width:0.5;" x1="122.73" x2="163.73" y1="257.2813" y2="257.2813"/></g><!--class Owner--><g id="elem_Owner"><rect codeLine="36" fill="#F1F1F1" height="33.6406" id="Owner" rx="2.5" ry="2.5" style="stroke:#181818;stroke-width:0.5;" width="47" x="532.73" y="231.6406"/><text fill="#000000" font-family="sans-serif" font-size="14" lengthAdjust="spacing" textLength="41" x="535.73" y="249.3145">Owner</text><line style="stroke:#181818;stroke-width:0.5;" x1="533.73" x2="578.73" y1="257.2813" y2="257.2813"/></g><!--class Advertisement--><g id="elem_Advertisement"><rect codeLine="37" fill="#F1F1F1" height="49.2813" id="Advertisement" rx="2.5" ry="2.5" style="stroke:#181818;stroke-width:0.5;" width="132" x="108.23" y="373.1406"/><text fill="#000000" font-family="sans-serif" font-size="14" lengthAdjust="spacing" textLength="90" x="129.23" y="390.8145">Advertisement</text><line style="stroke:#181818;stroke-width:0.5;" x1="109.23" x2="239.23" y1="398.7813" y2="398.7813"/><text fill="#000000" font-family="sans-serif" font-size="14" lengthAdjust="spacing" textLength="120" x="114.23" y="415.4551">AdvertisementDate</text></g><!--class Commission--><g id="elem_Commission"><rect codeLine="41" fill="#F1F1F1" height="64.9219" id="Commission" rx="2.5" ry="2.5" style="stroke:#181818;stroke-width:0.5;" width="135" x="65.73" y="67.1406"/><text fill="#000000" font-family="sans-serif" font-size="14" lengthAdjust="spacing" textLength="76" x="95.23" y="84.8145">Commission</text><line style="stroke:#181818;stroke-width:0.5;" x1="66.73" x2="199.73" y1="92.7813" y2="92.7813"/><text fill="#000000" font-family="sans-serif" font-size="14" lengthAdjust="spacing" textLength="123" x="71.73" y="109.4551">TypeOfCommission</text><text fill="#000000" font-family="sans-serif" font-size="14" lengthAdjust="spacing" textLength="112" x="71.73" y="125.0957">CommissionValue</text></g><!--class Person--><g id="elem_Person"><rect codeLine="45" fill="#F1F1F1" height="111.8438" id="Person" rx="2.5" ry="2.5" style="stroke:#181818;stroke-width:0.5;" width="126" x="470.23" y="341.6406"/><text fill="#000000" font-family="sans-serif" font-size="14" lengthAdjust="spacing" textLength="45" x="510.73" y="359.3145">Person</text><line style="stroke:#181818;stroke-width:0.5;" x1="471.23" x2="595.23" y1="367.2813" y2="367.2813"/><text fill="#000000" font-family="sans-serif" font-size="14" lengthAdjust="spacing" textLength="35" x="476.23" y="383.9551">name</text><text fill="#000000" font-family="sans-serif" font-size="14" lengthAdjust="spacing" textLength="114" x="476.23" y="399.5957">passportCardNum</text><text fill="#000000" font-family="sans-serif" font-size="14" lengthAdjust="spacing" textLength="67" x="476.23" y="415.2363">taxNumber</text><text fill="#000000" font-family="sans-serif" font-size="14" lengthAdjust="spacing" textLength="85" x="476.23" y="430.877">emailAddress</text><text fill="#000000" font-family="sans-serif" font-size="14" lengthAdjust="spacing" textLength="89" x="476.23" y="446.5176">phoneNumber</text></g><!--class Property--><g id="elem_Property"><rect codeLine="53" fill="#F1F1F1" height="80.5625" id="Property" rx="2.5" ry="2.5" style="stroke:#181818;stroke-width:0.5;" width="131" x="698.73" y="670.6406"/><text fill="#000000" font-family="sans-serif" font-size="14" lengthAdjust="spacing" textLength="54" x="737.23" y="688.3145">Property</text><line style="stroke:#181818;stroke-width:0.5;" x1="699.73" x2="828.73" y1="696.2813" y2="696.2813"/><text fill="#000000" font-family="sans-serif" font-size="14" lengthAdjust="spacing" textLength="29" x="704.73" y="712.9551">area</text><text fill="#000000" font-family="sans-serif" font-size="14" lengthAdjust="spacing" textLength="119" x="704.73" y="728.5957">cityCenterDistance</text><text fill="#000000" font-family="sans-serif" font-size="14" lengthAdjust="spacing" textLength="31" x="704.73" y="744.2363">price</text></g><!--class Photograph--><g id="elem_Photograph"><rect codeLine="59" fill="#F1F1F1" height="49.2813" id="Photograph" rx="2.5" ry="2.5" style="stroke:#181818;stroke-width:0.5;" width="124" x="702.23" y="537.6406"/><text fill="#000000" font-family="sans-serif" font-size="14" lengthAdjust="spacing" textLength="74" x="727.23" y="555.3145">Photograph</text><line style="stroke:#181818;stroke-width:0.5;" x1="703.23" x2="825.23" y1="563.2813" y2="563.2813"/><text fill="#000000" font-family="sans-serif" font-size="14" lengthAdjust="spacing" textLength="112" x="708.23" y="579.9551">linkToPhotograph</text></g><!--class OrganizationRole--><g id="elem_OrganizationRole"><rect codeLine="62" fill="#F1F1F1" height="49.2813" id="OrganizationRole" rx="2.5" ry="2.5" style="stroke:#181818;stroke-width:0.5;" width="115" x="235.73" y="75.1406"/><text fill="#000000" font-family="sans-serif" font-size="14" lengthAdjust="spacing" textLength="109" x="238.73" y="92.8145">OrganizationRole</text><line style="stroke:#181818;stroke-width:0.5;" x1="236.73" x2="349.73" y1="100.7813" y2="100.7813"/><text fill="#000000" font-family="sans-serif" font-size="14" lengthAdjust="spacing" textLength="60" x="241.73" y="117.4551">roleName</text></g><!--class BusinessType--><g id="elem_BusinessType"><rect codeLine="65" fill="#F1F1F1" height="49.2813" id="BusinessType" rx="2.5" ry="2.5" style="stroke:#181818;stroke-width:0.5;" width="100" x="638.23" y="843.6406"/><text fill="#000000" font-family="sans-serif" font-size="14" lengthAdjust="spacing" textLength="89" x="643.73" y="861.3145">BusinessType</text><line style="stroke:#181818;stroke-width:0.5;" x1="639.23" x2="737.23" y1="869.2813" y2="869.2813"/><text fill="#000000" font-family="sans-serif" font-size="14" lengthAdjust="spacing" textLength="88" x="644.23" y="885.9551">businessType</text></g><!--class Lease--><g id="elem_Lease"><rect codeLine="68" fill="#F1F1F1" height="64.9219" id="Lease" rx="2.5" ry="2.5" style="stroke:#181818;stroke-width:0.5;" width="117" x="632.73" y="992.6406"/><text fill="#000000" font-family="sans-serif" font-size="14" lengthAdjust="spacing" textLength="39" x="671.73" y="1010.3145">Lease</text><line style="stroke:#181818;stroke-width:0.5;" x1="633.73" x2="748.73" y1="1018.2813" y2="1018.2813"/><text fill="#000000" font-family="sans-serif" font-size="14" lengthAdjust="spacing" textLength="70" x="638.73" y="1034.9551">leaseValue</text><text fill="#000000" font-family="sans-serif" font-size="14" lengthAdjust="spacing" textLength="105" x="638.73" y="1050.5957">contractDuration</text></g><!--class Sale--><g id="elem_Sale"><rect codeLine="73" fill="#F1F1F1" height="49.2813" id="Sale" rx="2.5" ry="2.5" style="stroke:#181818;stroke-width:0.5;" width="74" x="514.23" y="1000.6406"/><text fill="#000000" font-family="sans-serif" font-size="14" lengthAdjust="spacing" textLength="28" x="537.23" y="1018.3145">Sale</text><line style="stroke:#181818;stroke-width:0.5;" x1="515.23" x2="587.23" y1="1026.2813" y2="1026.2813"/><text fill="#000000" font-family="sans-serif" font-size="14" lengthAdjust="spacing" textLength="62" x="520.23" y="1042.9551">saleValue</text></g><!--class PropertyType--><g id="elem_PropertyType"><rect codeLine="76" fill="#F1F1F1" height="49.2813" id="PropertyType" rx="2.5" ry="2.5" style="stroke:#181818;stroke-width:0.5;" width="97" x="861.73" y="537.6406"/><text fill="#000000" font-family="sans-serif" font-size="14" lengthAdjust="spacing" textLength="86" x="867.23" y="555.3145">PropertyType</text><line style="stroke:#181818;stroke-width:0.5;" x1="862.73" x2="957.73" y1="563.2813" y2="563.2813"/><text fill="#000000" font-family="sans-serif" font-size="14" lengthAdjust="spacing" textLength="85" x="867.73" y="579.9551">propertyType</text></g><!--class Dwelling--><g id="elem_Dwelling"><rect codeLine="79" fill="#F1F1F1" height="80.5625" id="Dwelling" rx="2.5" ry="2.5" style="stroke:#181818;stroke-width:0.5;" width="134" x="773.23" y="827.6406"/><text fill="#000000" font-family="sans-serif" font-size="14" lengthAdjust="spacing" textLength="52" x="814.23" y="845.3145">Dwelling</text><line style="stroke:#181818;stroke-width:0.5;" x1="774.23" x2="906.23" y1="853.2813" y2="853.2813"/><text fill="#000000" font-family="sans-serif" font-size="14" lengthAdjust="spacing" textLength="91" x="779.23" y="869.9551">numBedrooms</text><text fill="#000000" font-family="sans-serif" font-size="14" lengthAdjust="spacing" textLength="95" x="779.23" y="885.5957">numBathrooms</text><text fill="#000000" font-family="sans-serif" font-size="14" lengthAdjust="spacing" textLength="122" x="779.23" y="901.2363">numParkingSpaces</text></g><!--class House--><g id="elem_House"><rect codeLine="85" fill="#F1F1F1" height="80.5625" id="House" rx="2.5" ry="2.5" style="stroke:#181818;stroke-width:0.5;" width="105" x="787.73" y="984.6406"/><text fill="#000000" font-family="sans-serif" font-size="14" lengthAdjust="spacing" textLength="40" x="820.23" y="1002.3145">House</text><line style="stroke:#181818;stroke-width:0.5;" x1="788.73" x2="891.73" y1="1010.2813" y2="1010.2813"/><text fill="#000000" font-family="sans-serif" font-size="14" lengthAdjust="spacing" textLength="62" x="793.73" y="1026.9551">basement</text><text fill="#000000" font-family="sans-serif" font-size="14" lengthAdjust="spacing" textLength="93" x="793.73" y="1042.5957">inhabitableLoft</text><text fill="#000000" font-family="sans-serif" font-size="14" lengthAdjust="spacing" textLength="82" x="793.73" y="1058.2363">sunExposure</text></g><!--class Employee--><g id="elem_Employee"><rect fill="#F1F1F1" height="33.6406" id="Employee" rx="2.5" ry="2.5" style="stroke:#181818;stroke-width:0.5;" width="68" x="478.23" y="545.1406"/><text fill="#000000" font-family="sans-serif" font-size="14" lengthAdjust="spacing" textLength="62" x="481.23" y="562.8145">Employee</text><line style="stroke:#181818;stroke-width:0.5;" x1="479.23" x2="545.23" y1="570.7813" y2="570.7813"/></g><!--reverse link Dwelling to House--><g id="link_Dwelling_House"><path codeLine="97" d="M840.23,928.8206 C840.23,947.4506 840.23,967.5306 840.23,984.4306 " fill="none" id="Dwelling-backto-House" style="stroke:#181818;stroke-width:1.0;"/><polygon fill="none" points="833.23,928.6506,840.23,908.6506,847.23,928.6506,833.23,928.6506" style="stroke:#181818;stroke-width:1.0;"/></g><!--link OrganizationRole to Employee--><g id="link_OrganizationRole_Employee"><path codeLine="98" d="M287.45,124.4406 C274.19,184.9706 247.64,347.4406 315.23,453.6406 C352.25,511.8206 432.25,540.9406 478.1,553.3706 " fill="none" id="OrganizationRole-Employee" style="stroke:#181818;stroke-width:1.0;"/><polygon fill="#000000" points="276.1992,299.3333,277.1874,308.7924,282.5586,306.4051,276.1992,299.3333" style="stroke:#000000;stroke-width:1.0;"/><text fill="#000000" font-family="sans-serif" font-size="13" lengthAdjust="spacing" textLength="31" x="287.23" y="308.4092">plays</text><text fill="#000000" font-family="sans-serif" font-size="13" lengthAdjust="spacing" textLength="20" x="263.4064" y="144.389">1..*</text><text fill="#000000" font-family="sans-serif" font-size="13" lengthAdjust="spacing" textLength="7" x="463.3388" y="547.9777">1</text></g><!--reverse link OrganizationRole to Agent--><g id="link_OrganizationRole_Agent"><path codeLine="99" d="M261.86,139.8706 C245.54,159.3106 224.75,182.6206 204.23,201.6406 C191.97,213.0006 177,224.3206 164.96,232.8906 " fill="none" id="OrganizationRole-backto-Agent" style="stroke:#181818;stroke-width:1.0;"/><polygon fill="none" points="256.55,135.3006,274.67,124.3106,267.36,144.2006,256.55,135.3006" style="stroke:#181818;stroke-width:1.0;"/></g><!--link BusinessType to Lease--><g id="link_BusinessType_Lease"><path codeLine="100" d="M688.68,892.6806 C689.2,919.3606 690.04,962.9706 690.61,992.5806 " fill="none" id="BusinessType-Lease" style="stroke:#181818;stroke-width:1.0;"/><polygon fill="#000000" points="694.3266,951.9014,697.0902,942.8012,691.2135,942.9148,694.3266,951.9014" style="stroke:#000000;stroke-width:1.0;"/><text fill="#000000" font-family="sans-serif" font-size="13" lengthAdjust="spacing" textLength="85" x="703.23" y="951.4092">categorized as</text><text fill="#000000" font-family="sans-serif" font-size="13" lengthAdjust="spacing" textLength="7" x="680.8984" y="912.5623">1</text><text fill="#000000" font-family="sans-serif" font-size="13" lengthAdjust="spacing" textLength="7" x="682.7088" y="981.7612">1</text></g><!--link BusinessType to Sale--><g id="link_BusinessType_Sale"><path codeLine="101" d="M638.21,892.4806 C618.16,903.9606 596.28,919.4806 581.23,938.6406 C567.03,956.7006 559.27,981.9706 555.22,1000.3506 " fill="none" id="BusinessType-Sale" style="stroke:#181818;stroke-width:1.0;"/><polygon fill="#000000" points="583.1811,950.8652,591.0259,945.4884,586.3672,941.9042,583.1811,950.8652" style="stroke:#000000;stroke-width:1.0;"/><text fill="#000000" font-family="sans-serif" font-size="13" lengthAdjust="spacing" textLength="85" x="595.23" y="951.4092">categorized as</text><text fill="#000000" font-family="sans-serif" font-size="13" lengthAdjust="spacing" textLength="7" x="623.3493" y="892.8138">1</text><text fill="#000000" font-family="sans-serif" font-size="13" lengthAdjust="spacing" textLength="7" x="548.3456" y="990.004">1</text></g><!--link Request to Property--><g id="link_Request_Property"><path codeLine="102" d="M333.5,579.8606 C423.69,607.1406 602.08,661.1006 698.57,690.2806 " fill="none" id="Request-Property" style="stroke:#181818;stroke-width:1.0;"/><polygon fill="#000000" points="531.0159,634.3499,523.209,628.9182,521.5073,634.5443,531.0159,634.3499" style="stroke:#000000;stroke-width:1.0;"/><text fill="#000000" font-family="sans-serif" font-size="13" lengthAdjust="spacing" textLength="49" x="535.23" y="637.4092">contains</text><text fill="#000000" font-family="sans-serif" font-size="13" lengthAdjust="spacing" textLength="7" x="341.3972" y="579.1101">1</text><text fill="#000000" font-family="sans-serif" font-size="13" lengthAdjust="spacing" textLength="7" x="683.5734" y="684.8834">1</text></g><!--link Property to Address--><g id="link_Property_Address"><path codeLine="103" d="M830.03,700.1906 C903.51,684.9106 1012.23,647.9806 1012.23,563.1406 C1012.23,247.6406 1012.23,247.6406 1012.23,247.6406 C1012.23,129.1906 829.68,105.7706 739.48,101.4306 " fill="none" id="Property-Address" style="stroke:#181818;stroke-width:1.0;"/><polygon fill="#000000" points="1016.4824,392.9586,1014.929,402.3414,1020.7407,401.4625,1016.4824,392.9586" style="stroke:#000000;stroke-width:1.0;"/><text fill="#000000" font-family="sans-serif" font-size="13" lengthAdjust="spacing" textLength="57" x="1026.23" y="402.4092">located at</text><text fill="#000000" font-family="sans-serif" font-size="13" lengthAdjust="spacing" textLength="7" x="837.6097" y="696.0484">1</text><text fill="#000000" font-family="sans-serif" font-size="13" lengthAdjust="spacing" textLength="7" x="747.2277" y="98.4839">1</text></g><!--reverse link Property to Dwelling--><g id="link_Property_Dwelling"><path codeLine="104" d="M797.94,769.4506 C800.12,773.5506 802.24,777.6406 804.23,781.6406 C811.52,796.3606 818.72,812.9206 824.74,827.5206 " fill="none" id="Property-backto-Dwelling" style="stroke:#181818;stroke-width:1.0;"/><polygon fill="none" points="791.7,772.6306,788.14,751.7406,803.95,765.8506,791.7,772.6306" style="stroke:#181818;stroke-width:1.0;"/></g><!--link Photograph to Property--><g id="link_Photograph_Property"><path codeLine="105" d="M764.23,586.7606 C764.23,609.3206 764.23,643.7606 764.23,670.5206 " fill="none" id="Photograph-Property" style="stroke:#181818;stroke-width:1.0;"/><polygon fill="#000000" points="769.23,627.9023,766.2911,636.9474,772.1689,636.9474,769.23,627.9023" style="stroke:#000000;stroke-width:1.0;"/><text fill="#000000" font-family="sans-serif" font-size="13" lengthAdjust="spacing" textLength="21" x="778.23" y="637.4092">has</text><text fill="#000000" font-family="sans-serif" font-size="13" lengthAdjust="spacing" textLength="20" x="741.6675" y="606.6628">1..*</text><text fill="#000000" font-family="sans-serif" font-size="13" lengthAdjust="spacing" textLength="7" x="756.6066" y="659.8925">1</text></g><!--link Address to Person--><g id="link_Address_Person"><path codeLine="106" d="M682.26,155.8506 C678.98,171.0706 674.45,187.3206 668.23,201.6406 C646.07,252.6206 609.74,304.0606 580.34,341.3006 " fill="none" id="Address-Person" style="stroke:#181818;stroke-width:1.0;"/><polygon fill="#000000" points="659.6382,244.5205,652.7061,251.0318,657.8573,253.8628,659.6382,244.5205" style="stroke:#000000;stroke-width:1.0;"/><text fill="#000000" font-family="sans-serif" font-size="13" lengthAdjust="spacing" textLength="57" x="666.23" y="253.4092">located at</text><text fill="#000000" font-family="sans-serif" font-size="13" lengthAdjust="spacing" textLength="7" x="673.8621" y="175.3643">1</text><text fill="#000000" font-family="sans-serif" font-size="13" lengthAdjust="spacing" textLength="7" x="578.9275" y="330.9973">1</text></g><!--link Owner to Person--><g id="link_Owner_Person"><path codeLine="107" d="M553.72,265.6506 C551.57,279.4106 548.3,300.3206 545,321.4106 " fill="none" id="Owner-to-Person" style="stroke:#181818;stroke-width:1.0;"/><polygon fill="none" points="551.87,322.7906,541.86,341.4706,538.03,320.6306,551.87,322.7906" style="stroke:#181818;stroke-width:1.0;"/></g><!--reverse link Person to Employee--><g id="link_Person_Employee"><path codeLine="108" d="M523.52,473.7406 C520.06,500.4906 516.49,528.1306 514.31,544.9806 " fill="none" id="Person-backto-Employee" style="stroke:#181818;stroke-width:1.0;"/><polygon fill="none" points="516.61,472.5906,526.12,453.6606,530.49,474.3906,516.61,472.5906" style="stroke:#181818;stroke-width:1.0;"/></g><!--link Owner to Request--><g id="link_Owner_Request"><path codeLine="109" d="M532.7,258.5506 C499.31,272.1706 437.86,300.9306 398.23,341.6406 C343.7,397.6606 306.52,483.4206 289.26,529.4006 " fill="none" id="Owner-Request" style="stroke:#181818;stroke-width:1.0;"/><polygon fill="#000000" points="399.8876,401.621,408.1198,396.8584,403.7482,392.9293,399.8876,401.621" style="stroke:#000000;stroke-width:1.0;"/><text fill="#000000" font-family="sans-serif" font-size="13" lengthAdjust="spacing" textLength="39" x="412.23" y="402.4092">makes</text><text fill="#000000" font-family="sans-serif" font-size="13" lengthAdjust="spacing" textLength="7" x="517.7599" y="257.3037">1</text><text fill="#000000" font-family="sans-serif" font-size="13" lengthAdjust="spacing" textLength="20" x="269.4724" y="519.0348">1..*</text></g><!--link Agent to Request--><g id="link_Agent_Request"><path codeLine="110" d="M121.32,260.3206 C94.78,274.6506 51.35,302.8506 33.23,341.6406 C12.15,386.7406 6,411.9706 33.23,453.6406 C75.08,517.7106 164.53,543.8306 222.98,554.3206 " fill="none" id="Agent-Request" style="stroke:#181818;stroke-width:1.0;"/><polygon fill="#000000" points="39.864,402.6278,39.6856,393.1189,34.1305,395.0398,39.864,402.6278" style="stroke:#000000;stroke-width:1.0;"/><text fill="#000000" font-family="sans-serif" font-size="13" lengthAdjust="spacing" textLength="42" x="47.23" y="402.4092">reviews</text><text fill="#000000" font-family="sans-serif" font-size="13" lengthAdjust="spacing" textLength="7" x="106.8558" y="259.5936">1</text><text fill="#000000" font-family="sans-serif" font-size="13" lengthAdjust="spacing" textLength="20" x="195.0277" y="550.3196">1..*</text></g><!--link Address to Owner--><g id="link_Address_Owner"><path codeLine="111" d="M641.15,137.7406 C624.5,151.6906 606.51,168.3706 592.23,185.6406 C580.48,199.8306 570.29,218.3406 563.77,231.4206 " fill="none" id="Address-Owner" style="stroke:#181818;stroke-width:1.0;"/><polygon fill="#000000" points="600.4142,190.0474,592.388,195.1494,596.9198,198.8927,600.4142,190.0474" style="stroke:#000000;stroke-width:1.0;"/><text fill="#000000" font-family="sans-serif" font-size="13" lengthAdjust="spacing" textLength="57" x="606.23" y="198.4092">located at</text><text fill="#000000" font-family="sans-serif" font-size="13" lengthAdjust="spacing" textLength="7" x="626.0987" y="140.3234">1</text><text fill="#000000" font-family="sans-serif" font-size="13" lengthAdjust="spacing" textLength="7" x="558.1587" y="221.0153">1</text></g><!--link Agent to Advertisement--><g id="link_Agent_Advertisement"><path codeLine="112" d="M146.6,265.6506 C152.06,291.5506 162.86,342.7506 169.22,372.9006 " fill="none" id="Agent-Advertisement" style="stroke:#181818;stroke-width:1.0;"/><polygon fill="#000000" points="162.2618,308.7947,163.2709,299.3378,157.5196,300.5508,162.2618,308.7947" style="stroke:#000000;stroke-width:1.0;"/><text fill="#000000" font-family="sans-serif" font-size="13" lengthAdjust="spacing" textLength="55" x="170.23" y="308.4092">publishes</text><text fill="#000000" font-family="sans-serif" font-size="13" lengthAdjust="spacing" textLength="7" x="139.5602" y="284.9074">1</text><text fill="#000000" font-family="sans-serif" font-size="13" lengthAdjust="spacing" textLength="20" x="145.3737" y="362.5668">1..*</text></g><!--link Advertisement to Request--><g id="link_Advertisement_Request"><path codeLine="113" d="M180.19,422.5206 C186.26,443.9306 197.1,475.6006 213.23,499.6406 C220.41,510.3506 229.77,520.5806 239.13,529.5106 " fill="none" id="Advertisement-Request" style="stroke:#181818;stroke-width:1.0;"/><polygon fill="#000000" points="220.6426,496.2818,218.8523,486.9412,213.704,489.7774,220.6426,496.2818" style="stroke:#000000;stroke-width:1.0;"/><text fill="#000000" font-family="sans-serif" font-size="13" lengthAdjust="spacing" textLength="39" x="227.23" y="496.4092">can be</text><text fill="#000000" font-family="sans-serif" font-size="13" lengthAdjust="spacing" textLength="7" x="173.7896" y="442.0894">1</text><text fill="#000000" font-family="sans-serif" font-size="13" lengthAdjust="spacing" textLength="7" x="222.8113" y="518.6759">1</text></g><!--link Commission to Agent--><g id="link_Commission_Agent"><path codeLine="114" d="M135.37,132.1806 C137.45,162.7106 140.51,207.7906 142.13,231.5806 " fill="none" id="Commission-Agent" style="stroke:#181818;stroke-width:1.0;"/><polygon fill="#000000" points="144.8907,188.9139,142.5723,198.1375,148.4366,197.7387,144.8907,188.9139" style="stroke:#000000;stroke-width:1.0;"/><text fill="#000000" font-family="sans-serif" font-size="13" lengthAdjust="spacing" textLength="41" x="154.23" y="198.4092">defines</text><text fill="#000000" font-family="sans-serif" font-size="13" lengthAdjust="spacing" textLength="7" x="128.1023" y="151.7928">1</text><text fill="#000000" font-family="sans-serif" font-size="13" lengthAdjust="spacing" textLength="7" x="133.4913" y="220.9351">1</text></g><!--link Property to BusinessType--><g id="link_Property_BusinessType"><path codeLine="115" d="M728.23,751.6906 C721.12,761.0206 714.3,771.2706 709.23,781.6406 C699.62,801.2706 694.19,825.6506 691.27,843.3506 " fill="none" id="Property-BusinessType" style="stroke:#181818;stroke-width:1.0;"/><polygon fill="#000000" points="712.3601,794.5395,718.4684,787.2498,713.0171,785.0517,712.3601,794.5395" style="stroke:#000000;stroke-width:1.0;"/><text fill="#000000" font-family="sans-serif" font-size="13" lengthAdjust="spacing" textLength="72" x="723.23" y="794.4092">classified as</text><text fill="#000000" font-family="sans-serif" font-size="13" lengthAdjust="spacing" textLength="7" x="714.9347" y="771.114">1</text><text fill="#000000" font-family="sans-serif" font-size="13" lengthAdjust="spacing" textLength="7" x="684.1521" y="833.004">1</text></g><!--link Owner to Property--><g id="link_Owner_Property"><path codeLine="116" d="M568.44,265.7806 C581.39,283.5406 601.65,313.3406 614.23,341.6406 C661.64,448.3706 635.83,488.8106 685.23,594.6406 C697.76,621.5006 716.29,648.9906 732.26,670.4106 " fill="none" id="Owner-Property" style="stroke:#181818;stroke-width:1.0;"/><polygon fill="#000000" points="660.1064,496.5369,659.4361,487.05,653.9879,489.2558,660.1064,496.5369" style="stroke:#000000;stroke-width:1.0;"/><text fill="#000000" font-family="sans-serif" font-size="13" lengthAdjust="spacing" textLength="60" x="667.23" y="496.4092">sells/rents</text><text fill="#000000" font-family="sans-serif" font-size="13" lengthAdjust="spacing" textLength="7" x="564.1074" y="285.0772">1</text><text fill="#000000" font-family="sans-serif" font-size="13" lengthAdjust="spacing" textLength="20" x="704.7841" y="659.7629">1..*</text></g><!--link PropertyType to Property--><g id="link_PropertyType_Property"><path codeLine="117" d="M886.77,586.7606 C864.36,609.3206 830.16,643.7606 803.58,670.5206 " fill="none" id="PropertyType-Property" style="stroke:#181818;stroke-width:1.0;"/><polygon fill="#000000" points="853.7534,629.3548,845.2943,633.7014,849.4647,637.8434,853.7534,629.3548" style="stroke:#000000;stroke-width:1.0;"/><text fill="#000000" font-family="sans-serif" font-size="13" lengthAdjust="spacing" textLength="85" x="859.23" y="637.4092">categorized by</text><text fill="#000000" font-family="sans-serif" font-size="13" lengthAdjust="spacing" textLength="7" x="872.8615" y="606.6628">1</text><text fill="#000000" font-family="sans-serif" font-size="13" lengthAdjust="spacing" textLength="20" x="788.808" y="659.8925">1..*</text></g><!--SRC=[TLNRJjmm47ttLrZxKgaIjFHnXP1W5wcLA22MzdsIp2RM-fBQ3ijI-kyTst4k2-J97fyvS-PYn-s4Ri62uifeKpRMAEJUTiZSSD92kOCQD_uWaLiiFUXQJW6kWShiXQxv5gH3nZv9t7hk3RUYRZolHF0IHhE9Kod1kKllhIWwZpzAepVY1VbNnXfH8I-5BIb8N2lqZQaSOrvuah0s2eJcFqs5al_QV6FqHJP-MLKMdVlBE7tEMqGVbwNmXrjG63ULe1DH-i7WF7YyBAtH1nKDBw9T4JdxDn0_u9yEdUU9kUqAAKe86Qt9DTc8SkfnMQCEU1PioNItrsW7fKzelN2e29POPwR8EtYkZ5B2EOgNe8-75k-sepKQn-rla5tmJixtQ5rs39_EUKVPX6YDzIkmrMsd1hk7PzeMf3TRa8ek-mAFxetHs0C7jVVMj9J98OK4Yp0qOKMfeLrJ1q2NHuNhdHlZJMsXRPAx57htQ4RhaDQThK6BbzY51oCnmIsjOcCpxAfpGfFaKB84AIQM0NQ3uFfp6PQfX56sqTv2wTUTZR56gHl8KHsjZehUrs0Csqui0sozHqaPrWcYEtM5bJL6kM4FlfaPxi7I5QetT2dHZLg-coxhBo2DKDm8tK0XF1GIRymssLodhvzRupgR1ZP-MGa_VpqvINJikCHySNPw-dd12R0uM_1hrKfpGEHBtaeuE7x-rYEonRl0ffs8_ZrDB3rnq8N2sbXw12eEZbzyw13g_Xu-Nz89DBSXmAcFz6m4u62T8Fl99g0qWPau_HGQ4yb5OkCy7jLaaHqMnDH0g4bcdigALt8UYueNtWU2l5xq0DRZOknSxHwMs4vo-3xt9LUmmv1ZUdy-Gbby4hXtF03VoaiHZjHD2JFVxCaAOn0UHjSa0REp2NjkK-YWvWKITdowPYsf4sk5sp07fE6zniscP9b-As8hyb1CgvLbPvebTzHFzyLIdEbSp0Tkvd8qTmKDndy0]--></g></svg>