<?xml version="1.0" encoding="us-ascii" standalone="no"?><svg xmlns="http://www.w3.org/2000/svg" xmlns:xlink="http://www.w3.org/1999/xlink" contentStyleType="text/css" height="2100px" preserveAspectRatio="none" style="width:433px;height:2100px;background:#FFFFFF;" version="1.1" viewBox="0 0 433 2100" width="433px" zoomAndPan="magnify"><defs/><g><text fill="#000000" font-family="sans-serif" font-size="14" font-weight="bold" lengthAdjust="spacing" textLength="228" x="103.75" y="27.6738">System Sequence Diagram (SSD)</text><rect fill="#FFFFFF" height="1884.125" style="stroke:#181818;stroke-width:1.0;" width="10" x="46.5" y="127.2813"/><rect fill="#FFFFFF" height="28.5234" style="stroke:#181818;stroke-width:1.0;" width="10" x="369.5" y="147.8047"/><rect fill="#FFFFFF" height="28.5234" style="stroke:#181818;stroke-width:1.0;" width="10" x="369.5" y="204.8516"/><rect fill="#FFFFFF" height="52.0469" style="stroke:#181818;stroke-width:1.0;" width="10" x="369.5" y="261.8984"/><rect fill="#FFFFFF" height="35.5234" style="stroke:#181818;stroke-width:1.0;" width="10" x="369.5" y="342.4688"/><rect fill="#FFFFFF" height="28.5234" style="stroke:#181818;stroke-width:1.0;" width="10" x="369.5" y="406.5156"/><rect fill="#FFFFFF" height="28.5234" style="stroke:#181818;stroke-width:1.0;" width="10" x="369.5" y="463.5625"/><rect fill="#FFFFFF" height="28.5234" style="stroke:#181818;stroke-width:1.0;" width="10" x="369.5" y="520.6094"/><rect fill="#FFFFFF" height="52.0469" style="stroke:#181818;stroke-width:1.0;" width="10" x="369.5" y="577.6563"/><rect fill="#FFFFFF" height="35.5234" style="stroke:#181818;stroke-width:1.0;" width="10" x="369.5" y="658.2266"/><rect fill="#FFFFFF" height="28.5234" style="stroke:#181818;stroke-width:1.0;" width="10" x="369.5" y="722.2734"/><rect fill="#FFFFFF" height="28.5234" style="stroke:#181818;stroke-width:1.0;" width="10" x="369.5" y="779.3203"/><rect fill="#FFFFFF" height="28.5234" style="stroke:#181818;stroke-width:1.0;" width="10" x="369.5" y="836.3672"/><rect fill="#FFFFFF" height="28.5234" style="stroke:#181818;stroke-width:1.0;" width="10" x="369.5" y="893.4141"/><rect fill="#FFFFFF" height="52.0469" style="stroke:#181818;stroke-width:1.0;" width="10" x="369.5" y="950.4609"/><rect fill="#FFFFFF" height="59.0469" style="stroke:#181818;stroke-width:1.0;" width="10" x="369.5" y="1031.0313"/><rect fill="#FFFFFF" height="52.0469" style="stroke:#181818;stroke-width:1.0;" width="10" x="369.5" y="1118.6016"/><rect fill="#FFFFFF" height="35.5234" style="stroke:#181818;stroke-width:1.0;" width="10" x="369.5" y="1199.1719"/><rect fill="#FFFFFF" height="28.5234" style="stroke:#181818;stroke-width:1.0;" width="10" x="369.5" y="1263.2188"/><rect fill="#FFFFFF" height="42.8125" style="stroke:#181818;stroke-width:1.0;" width="10" x="369.5" y="1334.7891"/><rect fill="#FFFFFF" height="52.0469" style="stroke:#181818;stroke-width:1.0;" width="10" x="369.5" y="1406.125"/><rect fill="#FFFFFF" height="35.5234" style="stroke:#181818;stroke-width:1.0;" width="10" x="369.5" y="1486.6953"/><rect fill="#FFFFFF" height="28.5234" style="stroke:#181818;stroke-width:1.0;" width="10" x="369.5" y="1550.7422"/><rect fill="#FFFFFF" height="28.5234" style="stroke:#181818;stroke-width:1.0;" width="10" x="369.5" y="1622.3125"/><rect fill="#FFFFFF" height="28.5234" style="stroke:#181818;stroke-width:1.0;" width="10" x="369.5" y="1679.3594"/><rect fill="#FFFFFF" height="28.5234" style="stroke:#181818;stroke-width:1.0;" width="10" x="369.5" y="1736.4063"/><rect fill="#FFFFFF" height="56.8125" style="stroke:#181818;stroke-width:1.0;" width="10" x="369.5" y="1816.9766"/><rect fill="#FFFFFF" height="28.5234" style="stroke:#181818;stroke-width:1.0;" width="10" x="369.5" y="1902.3125"/><rect fill="#FFFFFF" height="43.0469" style="stroke:#181818;stroke-width:1.0;" width="10" x="369.5" y="1959.3594"/><rect fill="none" height="73.5703" style="stroke:#000000;stroke-width:1.5;" width="396.5" x="20" y="276.8984"/><rect fill="none" height="73.5703" style="stroke:#000000;stroke-width:1.5;" width="396.5" x="20" y="592.6563"/><rect fill="none" height="73.5703" style="stroke:#000000;stroke-width:1.5;" width="396.5" x="20" y="965.4609"/><rect fill="none" height="793.2344" style="stroke:#000000;stroke-width:1.5;" width="416.5" x="10" y="1053.0313"/><rect fill="none" height="73.5703" style="stroke:#000000;stroke-width:1.5;" width="396.5" x="20" y="1133.6016"/><rect fill="none" height="73.5703" style="stroke:#000000;stroke-width:1.5;" width="396.5" x="20" y="1421.125"/><rect fill="none" height="45.0469" style="stroke:#000000;stroke-width:1.5;" width="396.5" x="20" y="1779.9297"/><line style="stroke:#181818;stroke-width:0.5;stroke-dasharray:5.0,5.0;" x1="51" x2="51" y1="117.2813" y2="2020.4063"/><line style="stroke:#181818;stroke-width:0.5;stroke-dasharray:5.0,5.0;" x1="374.5" x2="374.5" y1="117.2813" y2="2020.4063"/><text fill="#000000" font-family="sans-serif" font-size="14" lengthAdjust="spacing" textLength="37" x="30" y="114.3145">Agent</text><ellipse cx="51.5" cy="50.1406" fill="#E3E3E3" rx="8" ry="8" style="stroke:#181818;stroke-width:0.5;"/><path d="M51.5,58.1406 L51.5,85.1406 M38.5,66.1406 L64.5,66.1406 M51.5,85.1406 L38.5,100.1406 M51.5,85.1406 L64.5,100.1406 " fill="none" style="stroke:#181818;stroke-width:0.5;"/><text fill="#000000" font-family="sans-serif" font-size="14" lengthAdjust="spacing" textLength="37" x="30" y="2032.0801">Agent</text><ellipse cx="51.5" cy="2043.5469" fill="#E3E3E3" rx="8" ry="8" style="stroke:#181818;stroke-width:0.5;"/><path d="M51.5,2051.5469 L51.5,2078.5469 M38.5,2059.5469 L64.5,2059.5469 M51.5,2078.5469 L38.5,2093.5469 M51.5,2078.5469 L64.5,2093.5469 " fill="none" style="stroke:#181818;stroke-width:0.5;"/><rect fill="#E3E3E3" height="29.6406" rx="2.5" ry="2.5" style="stroke:#181818;stroke-width:0.5;" width="64" x="342.5" y="86.6406"/><text fill="#000000" font-family="sans-serif" font-size="14" lengthAdjust="spacing" textLength="50" x="349.5" y="106.3145">:System</text><rect fill="#E3E3E3" height="29.6406" rx="2.5" ry="2.5" style="stroke:#181818;stroke-width:0.5;" width="64" x="342.5" y="2019.4063"/><text fill="#000000" font-family="sans-serif" font-size="14" lengthAdjust="spacing" textLength="50" x="349.5" y="2039.0801">:System</text><rect fill="#FFFFFF" height="1884.125" style="stroke:#181818;stroke-width:1.0;" width="10" x="46.5" y="127.2813"/><rect fill="#FFFFFF" height="28.5234" style="stroke:#181818;stroke-width:1.0;" width="10" x="369.5" y="147.8047"/><rect fill="#FFFFFF" height="28.5234" style="stroke:#181818;stroke-width:1.0;" width="10" x="369.5" y="204.8516"/><rect fill="#FFFFFF" height="52.0469" style="stroke:#181818;stroke-width:1.0;" width="10" x="369.5" y="261.8984"/><rect fill="#FFFFFF" height="35.5234" style="stroke:#181818;stroke-width:1.0;" width="10" x="369.5" y="342.4688"/><rect fill="#FFFFFF" height="28.5234" style="stroke:#181818;stroke-width:1.0;" width="10" x="369.5" y="406.5156"/><rect fill="#FFFFFF" height="28.5234" style="stroke:#181818;stroke-width:1.0;" width="10" x="369.5" y="463.5625"/><rect fill="#FFFFFF" height="28.5234" style="stroke:#181818;stroke-width:1.0;" width="10" x="369.5" y="520.6094"/><rect fill="#FFFFFF" height="52.0469" style="stroke:#181818;stroke-width:1.0;" width="10" x="369.5" y="577.6563"/><rect fill="#FFFFFF" height="35.5234" style="stroke:#181818;stroke-width:1.0;" width="10" x="369.5" y="658.2266"/><rect fill="#FFFFFF" height="28.5234" style="stroke:#181818;stroke-width:1.0;" width="10" x="369.5" y="722.2734"/><rect fill="#FFFFFF" height="28.5234" style="stroke:#181818;stroke-width:1.0;" width="10" x="369.5" y="779.3203"/><rect fill="#FFFFFF" height="28.5234" style="stroke:#181818;stroke-width:1.0;" width="10" x="369.5" y="836.3672"/><rect fill="#FFFFFF" height="28.5234" style="stroke:#181818;stroke-width:1.0;" width="10" x="369.5" y="893.4141"/><rect fill="#FFFFFF" height="52.0469" style="stroke:#181818;stroke-width:1.0;" width="10" x="369.5" y="950.4609"/><rect fill="#FFFFFF" height="59.0469" style="stroke:#181818;stroke-width:1.0;" width="10" x="369.5" y="1031.0313"/><rect fill="#FFFFFF" height="52.0469" style="stroke:#181818;stroke-width:1.0;" width="10" x="369.5" y="1118.6016"/><rect fill="#FFFFFF" height="35.5234" style="stroke:#181818;stroke-width:1.0;" width="10" x="369.5" y="1199.1719"/><rect fill="#FFFFFF" height="28.5234" style="stroke:#181818;stroke-width:1.0;" width="10" x="369.5" y="1263.2188"/><rect fill="#FFFFFF" height="42.8125" style="stroke:#181818;stroke-width:1.0;" width="10" x="369.5" y="1334.7891"/><rect fill="#FFFFFF" height="52.0469" style="stroke:#181818;stroke-width:1.0;" width="10" x="369.5" y="1406.125"/><rect fill="#FFFFFF" height="35.5234" style="stroke:#181818;stroke-width:1.0;" width="10" x="369.5" y="1486.6953"/><rect fill="#FFFFFF" height="28.5234" style="stroke:#181818;stroke-width:1.0;" width="10" x="369.5" y="1550.7422"/><rect fill="#FFFFFF" height="28.5234" style="stroke:#181818;stroke-width:1.0;" width="10" x="369.5" y="1622.3125"/><rect fill="#FFFFFF" height="28.5234" style="stroke:#181818;stroke-width:1.0;" width="10" x="369.5" y="1679.3594"/><rect fill="#FFFFFF" height="28.5234" style="stroke:#181818;stroke-width:1.0;" width="10" x="369.5" y="1736.4063"/><rect fill="#FFFFFF" height="56.8125" style="stroke:#181818;stroke-width:1.0;" width="10" x="369.5" y="1816.9766"/><rect fill="#FFFFFF" height="28.5234" style="stroke:#181818;stroke-width:1.0;" width="10" x="369.5" y="1902.3125"/><rect fill="#FFFFFF" height="43.0469" style="stroke:#181818;stroke-width:1.0;" width="10" x="369.5" y="1959.3594"/><polygon fill="#181818" points="357.5,143.8047,367.5,147.8047,357.5,151.8047,361.5,147.8047" style="stroke:#181818;stroke-width:1.0;"/><line style="stroke:#181818;stroke-width:1.0;" x1="56.5" x2="363.5" y1="147.8047" y2="147.8047"/><text fill="#000000" font-family="sans-serif" font-size="13" font-weight="bold" lengthAdjust="spacing" textLength="7" x="63.5" y="143.0498">1</text><text fill="#000000" font-family="sans-serif" font-size="13" lengthAdjust="spacing" textLength="205" x="74.5" y="143.0498">asks to publish sale announcement</text><polygon fill="#181818" points="67.5,172.3281,57.5,176.3281,67.5,180.3281,63.5,176.3281" style="stroke:#181818;stroke-width:1.0;"/><line style="stroke:#181818;stroke-width:1.0;stroke-dasharray:2.0,2.0;" x1="61.5" x2="373.5" y1="176.3281" y2="176.3281"/><text fill="#000000" font-family="sans-serif" font-size="13" font-weight="bold" lengthAdjust="spacing" textLength="7" x="73.5" y="171.5732">2</text><text fill="#000000" font-family="sans-serif" font-size="13" lengthAdjust="spacing" textLength="125" x="84.5" y="171.5732">requests Street name</text><polygon fill="#181818" points="357.5,200.8516,367.5,204.8516,357.5,208.8516,361.5,204.8516" style="stroke:#181818;stroke-width:1.0;"/><line style="stroke:#181818;stroke-width:1.0;" x1="56.5" x2="363.5" y1="204.8516" y2="204.8516"/><text fill="#000000" font-family="sans-serif" font-size="13" font-weight="bold" lengthAdjust="spacing" textLength="7" x="63.5" y="200.0967">3</text><text fill="#000000" font-family="sans-serif" font-size="13" lengthAdjust="spacing" textLength="114" x="74.5" y="200.0967">inserts Street name</text><polygon fill="#181818" points="67.5,229.375,57.5,233.375,67.5,237.375,63.5,233.375" style="stroke:#181818;stroke-width:1.0;"/><line style="stroke:#181818;stroke-width:1.0;stroke-dasharray:2.0,2.0;" x1="61.5" x2="373.5" y1="233.375" y2="233.375"/><text fill="#000000" font-family="sans-serif" font-size="13" font-weight="bold" lengthAdjust="spacing" textLength="7" x="73.5" y="228.6201">4</text><text fill="#000000" font-family="sans-serif" font-size="13" lengthAdjust="spacing" textLength="113" x="84.5" y="228.6201">requests City name</text><polygon fill="#181818" points="357.5,257.8984,367.5,261.8984,357.5,265.8984,361.5,261.8984" style="stroke:#181818;stroke-width:1.0;"/><line style="stroke:#181818;stroke-width:1.0;" x1="56.5" x2="363.5" y1="261.8984" y2="261.8984"/><text fill="#000000" font-family="sans-serif" font-size="13" font-weight="bold" lengthAdjust="spacing" textLength="7" x="63.5" y="257.1436">5</text><text fill="#000000" font-family="sans-serif" font-size="13" lengthAdjust="spacing" textLength="102" x="74.5" y="257.1436">inserts City name</text><path d="M20,276.8984 L85,276.8984 L85,283.4219 L75,293.4219 L20,293.4219 L20,276.8984 " fill="#EEEEEE" style="stroke:#000000;stroke-width:1.5;"/><rect fill="none" height="73.5703" style="stroke:#000000;stroke-width:1.5;" width="396.5" x="20" y="276.8984"/><text fill="#000000" font-family="sans-serif" font-size="13" font-weight="bold" lengthAdjust="spacing" textLength="20" x="35" y="289.667">opt</text><polygon fill="#181818" points="67.5,309.9453,57.5,313.9453,67.5,317.9453,63.5,313.9453" style="stroke:#181818;stroke-width:1.0;"/><line style="stroke:#181818;stroke-width:1.0;stroke-dasharray:2.0,2.0;" x1="61.5" x2="373.5" y1="313.9453" y2="313.9453"/><text fill="#000000" font-family="sans-serif" font-size="13" font-weight="bold" lengthAdjust="spacing" textLength="7" x="73.5" y="309.1904">6</text><text fill="#000000" font-family="sans-serif" font-size="13" lengthAdjust="spacing" textLength="131" x="84.5" y="309.1904">requests District name</text><polygon fill="#181818" points="357.5,338.4688,367.5,342.4688,357.5,346.4688,361.5,342.4688" style="stroke:#181818;stroke-width:1.0;"/><line style="stroke:#181818;stroke-width:1.0;" x1="56.5" x2="363.5" y1="342.4688" y2="342.4688"/><text fill="#000000" font-family="sans-serif" font-size="13" font-weight="bold" lengthAdjust="spacing" textLength="7" x="63.5" y="337.7139">7</text><text fill="#000000" font-family="sans-serif" font-size="13" lengthAdjust="spacing" textLength="120" x="74.5" y="337.7139">inserts District name</text><polygon fill="#181818" points="67.5,373.9922,57.5,377.9922,67.5,381.9922,63.5,377.9922" style="stroke:#181818;stroke-width:1.0;"/><line style="stroke:#181818;stroke-width:1.0;stroke-dasharray:2.0,2.0;" x1="61.5" x2="373.5" y1="377.9922" y2="377.9922"/><text fill="#000000" font-family="sans-serif" font-size="13" font-weight="bold" lengthAdjust="spacing" textLength="7" x="73.5" y="373.2373">8</text><text fill="#000000" font-family="sans-serif" font-size="13" lengthAdjust="spacing" textLength="139" x="84.5" y="373.2373">requests State acronym</text><polygon fill="#181818" points="357.5,402.5156,367.5,406.5156,357.5,410.5156,361.5,406.5156" style="stroke:#181818;stroke-width:1.0;"/><line style="stroke:#181818;stroke-width:1.0;" x1="56.5" x2="363.5" y1="406.5156" y2="406.5156"/><text fill="#000000" font-family="sans-serif" font-size="13" font-weight="bold" lengthAdjust="spacing" textLength="7" x="63.5" y="401.7607">9</text><text fill="#000000" font-family="sans-serif" font-size="13" lengthAdjust="spacing" textLength="128" x="74.5" y="401.7607">inserts State acronym</text><polygon fill="#181818" points="67.5,431.0391,57.5,435.0391,67.5,439.0391,63.5,435.0391" style="stroke:#181818;stroke-width:1.0;"/><line style="stroke:#181818;stroke-width:1.0;stroke-dasharray:2.0,2.0;" x1="61.5" x2="373.5" y1="435.0391" y2="435.0391"/><text fill="#000000" font-family="sans-serif" font-size="13" font-weight="bold" lengthAdjust="spacing" textLength="14" x="73.5" y="430.2842">10</text><text fill="#000000" font-family="sans-serif" font-size="13" lengthAdjust="spacing" textLength="103" x="91.5" y="430.2842">requests Zip-code</text><polygon fill="#181818" points="357.5,459.5625,367.5,463.5625,357.5,467.5625,361.5,463.5625" style="stroke:#181818;stroke-width:1.0;"/><line style="stroke:#181818;stroke-width:1.0;" x1="56.5" x2="363.5" y1="463.5625" y2="463.5625"/><text fill="#000000" font-family="sans-serif" font-size="13" font-weight="bold" lengthAdjust="spacing" textLength="14" x="63.5" y="458.8076">11</text><text fill="#000000" font-family="sans-serif" font-size="13" lengthAdjust="spacing" textLength="92" x="81.5" y="458.8076">inserts Zip-code</text><polygon fill="#181818" points="67.5,488.0859,57.5,492.0859,67.5,496.0859,63.5,492.0859" style="stroke:#181818;stroke-width:1.0;"/><line style="stroke:#181818;stroke-width:1.0;stroke-dasharray:2.0,2.0;" x1="61.5" x2="373.5" y1="492.0859" y2="492.0859"/><text fill="#000000" font-family="sans-serif" font-size="13" font-weight="bold" lengthAdjust="spacing" textLength="14" x="73.5" y="487.3311">12</text><text fill="#000000" font-family="sans-serif" font-size="13" lengthAdjust="spacing" textLength="130" x="91.5" y="487.3311">requests property type</text><polygon fill="#181818" points="357.5,516.6094,367.5,520.6094,357.5,524.6094,361.5,520.6094" style="stroke:#181818;stroke-width:1.0;"/><line style="stroke:#181818;stroke-width:1.0;" x1="56.5" x2="363.5" y1="520.6094" y2="520.6094"/><text fill="#000000" font-family="sans-serif" font-size="13" font-weight="bold" lengthAdjust="spacing" textLength="14" x="63.5" y="515.8545">13</text><text fill="#000000" font-family="sans-serif" font-size="13" lengthAdjust="spacing" textLength="122" x="81.5" y="515.8545">selects property type</text><polygon fill="#181818" points="67.5,545.1328,57.5,549.1328,67.5,553.1328,63.5,549.1328" style="stroke:#181818;stroke-width:1.0;"/><line style="stroke:#181818;stroke-width:1.0;stroke-dasharray:2.0,2.0;" x1="61.5" x2="373.5" y1="549.1328" y2="549.1328"/><text fill="#000000" font-family="sans-serif" font-size="13" font-weight="bold" lengthAdjust="spacing" textLength="14" x="73.5" y="544.3779">14</text><text fill="#000000" font-family="sans-serif" font-size="13" lengthAdjust="spacing" textLength="135" x="91.5" y="544.3779">requests business type</text><polygon fill="#181818" points="357.5,573.6563,367.5,577.6563,357.5,581.6563,361.5,577.6563" style="stroke:#181818;stroke-width:1.0;"/><line style="stroke:#181818;stroke-width:1.0;" x1="56.5" x2="363.5" y1="577.6563" y2="577.6563"/><text fill="#000000" font-family="sans-serif" font-size="13" font-weight="bold" lengthAdjust="spacing" textLength="14" x="63.5" y="572.9014">15</text><text fill="#000000" font-family="sans-serif" font-size="13" lengthAdjust="spacing" textLength="127" x="81.5" y="572.9014">selects business type</text><path d="M20,592.6563 L85,592.6563 L85,599.1797 L75,609.1797 L20,609.1797 L20,592.6563 " fill="#EEEEEE" style="stroke:#000000;stroke-width:1.5;"/><rect fill="none" height="73.5703" style="stroke:#000000;stroke-width:1.5;" width="396.5" x="20" y="592.6563"/><text fill="#000000" font-family="sans-serif" font-size="13" font-weight="bold" lengthAdjust="spacing" textLength="20" x="35" y="605.4248">opt</text><polygon fill="#181818" points="67.5,625.7031,57.5,629.7031,67.5,633.7031,63.5,629.7031" style="stroke:#181818;stroke-width:1.0;"/><line style="stroke:#181818;stroke-width:1.0;stroke-dasharray:2.0,2.0;" x1="61.5" x2="373.5" y1="629.7031" y2="629.7031"/><text fill="#000000" font-family="sans-serif" font-size="13" font-weight="bold" lengthAdjust="spacing" textLength="14" x="73.5" y="624.9482">16</text><text fill="#000000" font-family="sans-serif" font-size="13" lengthAdjust="spacing" textLength="151" x="91.5" y="624.9482">requests contract duration</text><polygon fill="#181818" points="357.5,654.2266,367.5,658.2266,357.5,662.2266,361.5,658.2266" style="stroke:#181818;stroke-width:1.0;"/><line style="stroke:#181818;stroke-width:1.0;" x1="56.5" x2="363.5" y1="658.2266" y2="658.2266"/><text fill="#000000" font-family="sans-serif" font-size="13" font-weight="bold" lengthAdjust="spacing" textLength="14" x="63.5" y="653.4717">17</text><text fill="#000000" font-family="sans-serif" font-size="13" lengthAdjust="spacing" textLength="140" x="81.5" y="653.4717">inserts contract duration</text><polygon fill="#181818" points="67.5,689.75,57.5,693.75,67.5,697.75,63.5,693.75" style="stroke:#181818;stroke-width:1.0;"/><line style="stroke:#181818;stroke-width:1.0;stroke-dasharray:2.0,2.0;" x1="61.5" x2="373.5" y1="693.75" y2="693.75"/><text fill="#000000" font-family="sans-serif" font-size="13" font-weight="bold" lengthAdjust="spacing" textLength="14" x="73.5" y="688.9951">18</text><text fill="#000000" font-family="sans-serif" font-size="13" lengthAdjust="spacing" textLength="79" x="91.5" y="688.9951">requests area</text><polygon fill="#181818" points="357.5,718.2734,367.5,722.2734,357.5,726.2734,361.5,722.2734" style="stroke:#181818;stroke-width:1.0;"/><line style="stroke:#181818;stroke-width:1.0;" x1="56.5" x2="363.5" y1="722.2734" y2="722.2734"/><text fill="#000000" font-family="sans-serif" font-size="13" font-weight="bold" lengthAdjust="spacing" textLength="14" x="63.5" y="717.5186">19</text><text fill="#000000" font-family="sans-serif" font-size="13" lengthAdjust="spacing" textLength="68" x="81.5" y="717.5186">inserts area</text><polygon fill="#181818" points="67.5,746.7969,57.5,750.7969,67.5,754.7969,63.5,750.7969" style="stroke:#181818;stroke-width:1.0;"/><line style="stroke:#181818;stroke-width:1.0;stroke-dasharray:2.0,2.0;" x1="61.5" x2="373.5" y1="750.7969" y2="750.7969"/><text fill="#000000" font-family="sans-serif" font-size="13" font-weight="bold" lengthAdjust="spacing" textLength="14" x="73.5" y="746.042">20</text><text fill="#000000" font-family="sans-serif" font-size="13" lengthAdjust="spacing" textLength="197" x="91.5" y="746.042">requests distance from city center</text><polygon fill="#181818" points="357.5,775.3203,367.5,779.3203,357.5,783.3203,361.5,779.3203" style="stroke:#181818;stroke-width:1.0;"/><line style="stroke:#181818;stroke-width:1.0;" x1="56.5" x2="363.5" y1="779.3203" y2="779.3203"/><text fill="#000000" font-family="sans-serif" font-size="13" font-weight="bold" lengthAdjust="spacing" textLength="14" x="63.5" y="774.5654">21</text><text fill="#000000" font-family="sans-serif" font-size="13" lengthAdjust="spacing" textLength="186" x="81.5" y="774.5654">inserts distance from city center</text><polygon fill="#181818" points="67.5,803.8438,57.5,807.8438,67.5,811.8438,63.5,807.8438" style="stroke:#181818;stroke-width:1.0;"/><line style="stroke:#181818;stroke-width:1.0;stroke-dasharray:2.0,2.0;" x1="61.5" x2="373.5" y1="807.8438" y2="807.8438"/><text fill="#000000" font-family="sans-serif" font-size="13" font-weight="bold" lengthAdjust="spacing" textLength="14" x="73.5" y="803.0889">22</text><text fill="#000000" font-family="sans-serif" font-size="13" lengthAdjust="spacing" textLength="133" x="91.5" y="803.0889">requests property price</text><polygon fill="#181818" points="357.5,832.3672,367.5,836.3672,357.5,840.3672,361.5,836.3672" style="stroke:#181818;stroke-width:1.0;"/><line style="stroke:#181818;stroke-width:1.0;" x1="56.5" x2="363.5" y1="836.3672" y2="836.3672"/><text fill="#000000" font-family="sans-serif" font-size="13" font-weight="bold" lengthAdjust="spacing" textLength="14" x="63.5" y="831.6123">23</text><text fill="#000000" font-family="sans-serif" font-size="13" lengthAdjust="spacing" textLength="122" x="81.5" y="831.6123">inserts property price</text><polygon fill="#181818" points="67.5,860.8906,57.5,864.8906,67.5,868.8906,63.5,864.8906" style="stroke:#181818;stroke-width:1.0;"/><line style="stroke:#181818;stroke-width:1.0;stroke-dasharray:2.0,2.0;" x1="61.5" x2="373.5" y1="864.8906" y2="864.8906"/><text fill="#000000" font-family="sans-serif" font-size="13" font-weight="bold" lengthAdjust="spacing" textLength="14" x="73.5" y="860.1357">24</text><text fill="#000000" font-family="sans-serif" font-size="13" lengthAdjust="spacing" textLength="123" x="91.5" y="860.1357">requests owner email</text><polygon fill="#181818" points="357.5,889.4141,367.5,893.4141,357.5,897.4141,361.5,893.4141" style="stroke:#181818;stroke-width:1.0;"/><line style="stroke:#181818;stroke-width:1.0;" x1="56.5" x2="363.5" y1="893.4141" y2="893.4141"/><text fill="#000000" font-family="sans-serif" font-size="13" font-weight="bold" lengthAdjust="spacing" textLength="14" x="63.5" y="888.6592">25</text><text fill="#000000" font-family="sans-serif" font-size="13" lengthAdjust="spacing" textLength="112" x="81.5" y="888.6592">inserts owner email</text><polygon fill="#181818" points="67.5,917.9375,57.5,921.9375,67.5,925.9375,63.5,921.9375" style="stroke:#181818;stroke-width:1.0;"/><line style="stroke:#181818;stroke-width:1.0;stroke-dasharray:2.0,2.0;" x1="61.5" x2="373.5" y1="921.9375" y2="921.9375"/><text fill="#000000" font-family="sans-serif" font-size="13" font-weight="bold" lengthAdjust="spacing" textLength="14" x="73.5" y="917.1826">26</text><text fill="#000000" font-family="sans-serif" font-size="13" lengthAdjust="spacing" textLength="176" x="91.5" y="917.1826">requests the number of photos</text><polygon fill="#181818" points="357.5,946.4609,367.5,950.4609,357.5,954.4609,361.5,950.4609" style="stroke:#181818;stroke-width:1.0;"/><line style="stroke:#181818;stroke-width:1.0;" x1="56.5" x2="363.5" y1="950.4609" y2="950.4609"/><text fill="#000000" font-family="sans-serif" font-size="13" font-weight="bold" lengthAdjust="spacing" textLength="14" x="63.5" y="945.7061">27</text><text fill="#000000" font-family="sans-serif" font-size="13" lengthAdjust="spacing" textLength="143" x="81.5" y="945.7061">inserts number of photos</text><path d="M20,965.4609 L93,965.4609 L93,971.9844 L83,981.9844 L20,981.9844 L20,965.4609 " fill="#EEEEEE" style="stroke:#000000;stroke-width:1.5;"/><rect fill="none" height="73.5703" style="stroke:#000000;stroke-width:1.5;" width="396.5" x="20" y="965.4609"/><text fill="#000000" font-family="sans-serif" font-size="13" font-weight="bold" lengthAdjust="spacing" textLength="28" x="35" y="978.2295">loop</text><polygon fill="#181818" points="67.5,998.5078,57.5,1002.5078,67.5,1006.5078,63.5,1002.5078" style="stroke:#181818;stroke-width:1.0;"/><line style="stroke:#181818;stroke-width:1.0;stroke-dasharray:2.0,2.0;" x1="61.5" x2="373.5" y1="1002.5078" y2="1002.5078"/><text fill="#000000" font-family="sans-serif" font-size="13" font-weight="bold" lengthAdjust="spacing" textLength="14" x="73.5" y="997.7529">28</text><text fill="#000000" font-family="sans-serif" font-size="13" lengthAdjust="spacing" textLength="132" x="91.5" y="997.7529">requests the photo link</text><polygon fill="#181818" points="357.5,1027.0313,367.5,1031.0313,357.5,1035.0313,361.5,1031.0313" style="stroke:#181818;stroke-width:1.0;"/><line style="stroke:#181818;stroke-width:1.0;" x1="56.5" x2="363.5" y1="1031.0313" y2="1031.0313"/><text fill="#000000" font-family="sans-serif" font-size="13" font-weight="bold" lengthAdjust="spacing" textLength="14" x="63.5" y="1026.2764">29</text><text fill="#000000" font-family="sans-serif" font-size="13" lengthAdjust="spacing" textLength="99" x="81.5" y="1026.2764">inserts photo link</text><path d="M10,1053.0313 L71,1053.0313 L71,1059.5547 L61,1069.5547 L10,1069.5547 L10,1053.0313 " fill="#EEEEEE" style="stroke:#000000;stroke-width:1.5;"/><rect fill="none" height="793.2344" style="stroke:#000000;stroke-width:1.5;" width="416.5" x="10" y="1053.0313"/><text fill="#000000" font-family="sans-serif" font-size="13" font-weight="bold" lengthAdjust="spacing" textLength="16" x="25" y="1065.7998">alt</text><text fill="#000000" font-family="sans-serif" font-size="11" font-weight="bold" lengthAdjust="spacing" textLength="101" x="86" y="1064.9893">[type = apartment]</text><polygon fill="#181818" points="67.5,1086.0781,57.5,1090.0781,67.5,1094.0781,63.5,1090.0781" style="stroke:#181818;stroke-width:1.0;"/><line style="stroke:#181818;stroke-width:1.0;stroke-dasharray:2.0,2.0;" x1="61.5" x2="373.5" y1="1090.0781" y2="1090.0781"/><text fill="#000000" font-family="sans-serif" font-size="13" font-weight="bold" lengthAdjust="spacing" textLength="14" x="73.5" y="1085.3232">30</text><text fill="#000000" font-family="sans-serif" font-size="13" lengthAdjust="spacing" textLength="172" x="91.5" y="1085.3232">requests number of bedrooms</text><polygon fill="#181818" points="357.5,1114.6016,367.5,1118.6016,357.5,1122.6016,361.5,1118.6016" style="stroke:#181818;stroke-width:1.0;"/><line style="stroke:#181818;stroke-width:1.0;" x1="56.5" x2="363.5" y1="1118.6016" y2="1118.6016"/><text fill="#000000" font-family="sans-serif" font-size="13" font-weight="bold" lengthAdjust="spacing" textLength="14" x="63.5" y="1113.8467">31</text><text fill="#000000" font-family="sans-serif" font-size="13" lengthAdjust="spacing" textLength="161" x="81.5" y="1113.8467">inserts number of bedrooms</text><path d="M20,1133.6016 L85,1133.6016 L85,1140.125 L75,1150.125 L20,1150.125 L20,1133.6016 " fill="#EEEEEE" style="stroke:#000000;stroke-width:1.5;"/><rect fill="none" height="73.5703" style="stroke:#000000;stroke-width:1.5;" width="396.5" x="20" y="1133.6016"/><text fill="#000000" font-family="sans-serif" font-size="13" font-weight="bold" lengthAdjust="spacing" textLength="20" x="35" y="1146.3701">opt</text><polygon fill="#181818" points="67.5,1166.6484,57.5,1170.6484,67.5,1174.6484,63.5,1170.6484" style="stroke:#181818;stroke-width:1.0;"/><line style="stroke:#181818;stroke-width:1.0;stroke-dasharray:2.0,2.0;" x1="61.5" x2="373.5" y1="1170.6484" y2="1170.6484"/><text fill="#000000" font-family="sans-serif" font-size="13" font-weight="bold" lengthAdjust="spacing" textLength="14" x="73.5" y="1165.8936">32</text><text fill="#000000" font-family="sans-serif" font-size="13" lengthAdjust="spacing" textLength="176" x="91.5" y="1165.8936">requests number of bathrooms</text><polygon fill="#181818" points="357.5,1195.1719,367.5,1199.1719,357.5,1203.1719,361.5,1199.1719" style="stroke:#181818;stroke-width:1.0;"/><line style="stroke:#181818;stroke-width:1.0;" x1="56.5" x2="363.5" y1="1199.1719" y2="1199.1719"/><text fill="#000000" font-family="sans-serif" font-size="13" font-weight="bold" lengthAdjust="spacing" textLength="14" x="63.5" y="1194.417">33</text><text fill="#000000" font-family="sans-serif" font-size="13" lengthAdjust="spacing" textLength="165" x="81.5" y="1194.417">inserts number of bathrooms</text><polygon fill="#181818" points="67.5,1230.6953,57.5,1234.6953,67.5,1238.6953,63.5,1234.6953" style="stroke:#181818;stroke-width:1.0;"/><line style="stroke:#181818;stroke-width:1.0;stroke-dasharray:2.0,2.0;" x1="61.5" x2="373.5" y1="1234.6953" y2="1234.6953"/><text fill="#000000" font-family="sans-serif" font-size="13" font-weight="bold" lengthAdjust="spacing" textLength="14" x="73.5" y="1229.9404">34</text><text fill="#000000" font-family="sans-serif" font-size="13" lengthAdjust="spacing" textLength="203" x="91.5" y="1229.9404">requests number of parking spaces</text><polygon fill="#181818" points="357.5,1259.2188,367.5,1263.2188,357.5,1267.2188,361.5,1263.2188" style="stroke:#181818;stroke-width:1.0;"/><line style="stroke:#181818;stroke-width:1.0;" x1="56.5" x2="363.5" y1="1263.2188" y2="1263.2188"/><text fill="#000000" font-family="sans-serif" font-size="13" font-weight="bold" lengthAdjust="spacing" textLength="14" x="63.5" y="1258.4639">35</text><text fill="#000000" font-family="sans-serif" font-size="13" lengthAdjust="spacing" textLength="192" x="81.5" y="1258.4639">inserts number of parking spaces</text><polygon fill="#181818" points="67.5,1287.7422,57.5,1291.7422,67.5,1295.7422,63.5,1291.7422" style="stroke:#181818;stroke-width:1.0;"/><line style="stroke:#181818;stroke-width:1.0;stroke-dasharray:2.0,2.0;" x1="61.5" x2="373.5" y1="1291.7422" y2="1291.7422"/><text fill="#000000" font-family="sans-serif" font-size="13" font-weight="bold" lengthAdjust="spacing" textLength="14" x="73.5" y="1286.9873">36</text><text fill="#000000" font-family="sans-serif" font-size="13" lengthAdjust="spacing" textLength="210" x="91.5" y="1286.9873">requests the equipments information</text><polygon fill="#181818" points="357.5,1330.7891,367.5,1334.7891,357.5,1338.7891,361.5,1334.7891" style="stroke:#181818;stroke-width:1.0;"/><line style="stroke:#181818;stroke-width:1.0;" x1="56.5" x2="363.5" y1="1334.7891" y2="1334.7891"/><text fill="#000000" font-family="sans-serif" font-size="13" font-weight="bold" lengthAdjust="spacing" textLength="14" x="63.5" y="1322.7725">37</text><text fill="#000000" font-family="sans-serif" font-size="13" lengthAdjust="spacing" textLength="276" x="81.5" y="1315.5107">selects if it has central heating, air conditioning,</text><text fill="#000000" font-family="sans-serif" font-size="13" lengthAdjust="spacing" textLength="180" x="85.5" y="1330.0342">both, none or rather not answer</text><line style="stroke:#000000;stroke-width:1.0;stroke-dasharray:2.0,2.0;" x1="10" x2="426.5" y1="1343.7891" y2="1343.7891"/><text fill="#000000" font-family="sans-serif" font-size="11" font-weight="bold" lengthAdjust="spacing" textLength="79" x="15" y="1353.7471">[type = house]</text><polygon fill="#181818" points="67.5,1373.6016,57.5,1377.6016,67.5,1381.6016,63.5,1377.6016" style="stroke:#181818;stroke-width:1.0;"/><line style="stroke:#181818;stroke-width:1.0;stroke-dasharray:2.0,2.0;" x1="61.5" x2="373.5" y1="1377.6016" y2="1377.6016"/><text fill="#000000" font-family="sans-serif" font-size="13" font-weight="bold" lengthAdjust="spacing" textLength="14" x="73.5" y="1372.8467">38</text><text fill="#000000" font-family="sans-serif" font-size="13" lengthAdjust="spacing" textLength="172" x="91.5" y="1372.8467">requests number of bedrooms</text><polygon fill="#181818" points="357.5,1402.125,367.5,1406.125,357.5,1410.125,361.5,1406.125" style="stroke:#181818;stroke-width:1.0;"/><line style="stroke:#181818;stroke-width:1.0;" x1="56.5" x2="363.5" y1="1406.125" y2="1406.125"/><text fill="#000000" font-family="sans-serif" font-size="13" font-weight="bold" lengthAdjust="spacing" textLength="14" x="63.5" y="1401.3701">39</text><text fill="#000000" font-family="sans-serif" font-size="13" lengthAdjust="spacing" textLength="161" x="81.5" y="1401.3701">inserts number of bedrooms</text><path d="M20,1421.125 L85,1421.125 L85,1427.6484 L75,1437.6484 L20,1437.6484 L20,1421.125 " fill="#EEEEEE" style="stroke:#000000;stroke-width:1.5;"/><rect fill="none" height="73.5703" style="stroke:#000000;stroke-width:1.5;" width="396.5" x="20" y="1421.125"/><text fill="#000000" font-family="sans-serif" font-size="13" font-weight="bold" lengthAdjust="spacing" textLength="20" x="35" y="1433.8936">opt</text><polygon fill="#181818" points="67.5,1454.1719,57.5,1458.1719,67.5,1462.1719,63.5,1458.1719" style="stroke:#181818;stroke-width:1.0;"/><line style="stroke:#181818;stroke-width:1.0;stroke-dasharray:2.0,2.0;" x1="61.5" x2="373.5" y1="1458.1719" y2="1458.1719"/><text fill="#000000" font-family="sans-serif" font-size="13" font-weight="bold" lengthAdjust="spacing" textLength="14" x="73.5" y="1453.417">40</text><text fill="#000000" font-family="sans-serif" font-size="13" lengthAdjust="spacing" textLength="176" x="91.5" y="1453.417">requests number of bathrooms</text><polygon fill="#181818" points="357.5,1482.6953,367.5,1486.6953,357.5,1490.6953,361.5,1486.6953" style="stroke:#181818;stroke-width:1.0;"/><line style="stroke:#181818;stroke-width:1.0;" x1="56.5" x2="363.5" y1="1486.6953" y2="1486.6953"/><text fill="#000000" font-family="sans-serif" font-size="13" font-weight="bold" lengthAdjust="spacing" textLength="14" x="63.5" y="1481.9404">41</text><text fill="#000000" font-family="sans-serif" font-size="13" lengthAdjust="spacing" textLength="165" x="81.5" y="1481.9404">inserts number of bathrooms</text><polygon fill="#181818" points="67.5,1518.2188,57.5,1522.2188,67.5,1526.2188,63.5,1522.2188" style="stroke:#181818;stroke-width:1.0;"/><line style="stroke:#181818;stroke-width:1.0;stroke-dasharray:2.0,2.0;" x1="61.5" x2="373.5" y1="1522.2188" y2="1522.2188"/><text fill="#000000" font-family="sans-serif" font-size="13" font-weight="bold" lengthAdjust="spacing" textLength="14" x="73.5" y="1517.4639">42</text><text fill="#000000" font-family="sans-serif" font-size="13" lengthAdjust="spacing" textLength="203" x="91.5" y="1517.4639">requests number of parking spaces</text><polygon fill="#181818" points="357.5,1546.7422,367.5,1550.7422,357.5,1554.7422,361.5,1550.7422" style="stroke:#181818;stroke-width:1.0;"/><line style="stroke:#181818;stroke-width:1.0;" x1="56.5" x2="363.5" y1="1550.7422" y2="1550.7422"/><text fill="#000000" font-family="sans-serif" font-size="13" font-weight="bold" lengthAdjust="spacing" textLength="14" x="63.5" y="1545.9873">43</text><text fill="#000000" font-family="sans-serif" font-size="13" lengthAdjust="spacing" textLength="192" x="81.5" y="1545.9873">inserts number of parking spaces</text><polygon fill="#181818" points="67.5,1575.2656,57.5,1579.2656,67.5,1583.2656,63.5,1579.2656" style="stroke:#181818;stroke-width:1.0;"/><line style="stroke:#181818;stroke-width:1.0;stroke-dasharray:2.0,2.0;" x1="61.5" x2="373.5" y1="1579.2656" y2="1579.2656"/><text fill="#000000" font-family="sans-serif" font-size="13" font-weight="bold" lengthAdjust="spacing" textLength="14" x="73.5" y="1574.5107">44</text><text fill="#000000" font-family="sans-serif" font-size="13" lengthAdjust="spacing" textLength="210" x="91.5" y="1574.5107">requests the equipments information</text><polygon fill="#181818" points="357.5,1618.3125,367.5,1622.3125,357.5,1626.3125,361.5,1622.3125" style="stroke:#181818;stroke-width:1.0;"/><line style="stroke:#181818;stroke-width:1.0;" x1="56.5" x2="363.5" y1="1622.3125" y2="1622.3125"/><text fill="#000000" font-family="sans-serif" font-size="13" font-weight="bold" lengthAdjust="spacing" textLength="14" x="63.5" y="1610.2959">45</text><text fill="#000000" font-family="sans-serif" font-size="13" lengthAdjust="spacing" textLength="276" x="81.5" y="1603.0342">selects if it has central heating, air conditioning,</text><text fill="#000000" font-family="sans-serif" font-size="13" lengthAdjust="spacing" textLength="180" x="85.5" y="1617.5576">both, none or rather not answer</text><polygon fill="#181818" points="67.5,1646.8359,57.5,1650.8359,67.5,1654.8359,63.5,1650.8359" style="stroke:#181818;stroke-width:1.0;"/><line style="stroke:#181818;stroke-width:1.0;stroke-dasharray:2.0,2.0;" x1="61.5" x2="373.5" y1="1650.8359" y2="1650.8359"/><text fill="#000000" font-family="sans-serif" font-size="13" font-weight="bold" lengthAdjust="spacing" textLength="14" x="73.5" y="1646.0811">46</text><text fill="#000000" font-family="sans-serif" font-size="13" lengthAdjust="spacing" textLength="236" x="91.5" y="1646.0811">requests information about the basement</text><polygon fill="#181818" points="357.5,1675.3594,367.5,1679.3594,357.5,1683.3594,361.5,1679.3594" style="stroke:#181818;stroke-width:1.0;"/><line style="stroke:#181818;stroke-width:1.0;" x1="56.5" x2="363.5" y1="1679.3594" y2="1679.3594"/><text fill="#000000" font-family="sans-serif" font-size="13" font-weight="bold" lengthAdjust="spacing" textLength="14" x="63.5" y="1674.6045">47</text><text fill="#000000" font-family="sans-serif" font-size="13" lengthAdjust="spacing" textLength="160" x="81.5" y="1674.6045">selects if it has a basement</text><polygon fill="#181818" points="67.5,1703.8828,57.5,1707.8828,67.5,1711.8828,63.5,1707.8828" style="stroke:#181818;stroke-width:1.0;"/><line style="stroke:#181818;stroke-width:1.0;stroke-dasharray:2.0,2.0;" x1="61.5" x2="373.5" y1="1707.8828" y2="1707.8828"/><text fill="#000000" font-family="sans-serif" font-size="13" font-weight="bold" lengthAdjust="spacing" textLength="14" x="73.5" y="1703.1279">48</text><text fill="#000000" font-family="sans-serif" font-size="13" lengthAdjust="spacing" textLength="262" x="91.5" y="1703.1279">requests information about the inhabitable loft</text><polygon fill="#181818" points="357.5,1732.4063,367.5,1736.4063,357.5,1740.4063,361.5,1736.4063" style="stroke:#181818;stroke-width:1.0;"/><line style="stroke:#181818;stroke-width:1.0;" x1="56.5" x2="363.5" y1="1736.4063" y2="1736.4063"/><text fill="#000000" font-family="sans-serif" font-size="13" font-weight="bold" lengthAdjust="spacing" textLength="14" x="63.5" y="1731.6514">49</text><text fill="#000000" font-family="sans-serif" font-size="13" lengthAdjust="spacing" textLength="186" x="81.5" y="1731.6514">selects if it has a inhabitable loft</text><polygon fill="#181818" points="67.5,1760.9297,57.5,1764.9297,67.5,1768.9297,63.5,1764.9297" style="stroke:#181818;stroke-width:1.0;"/><line style="stroke:#181818;stroke-width:1.0;stroke-dasharray:2.0,2.0;" x1="61.5" x2="373.5" y1="1764.9297" y2="1764.9297"/><text fill="#000000" font-family="sans-serif" font-size="13" font-weight="bold" lengthAdjust="spacing" textLength="14" x="73.5" y="1760.1748">50</text><text fill="#000000" font-family="sans-serif" font-size="13" lengthAdjust="spacing" textLength="215" x="91.5" y="1760.1748">requests the side exposed to the sun</text><path d="M20,1779.9297 L85,1779.9297 L85,1786.4531 L75,1796.4531 L20,1796.4531 L20,1779.9297 " fill="#EEEEEE" style="stroke:#000000;stroke-width:1.5;"/><rect fill="none" height="45.0469" style="stroke:#000000;stroke-width:1.5;" width="396.5" x="20" y="1779.9297"/><text fill="#000000" font-family="sans-serif" font-size="13" font-weight="bold" lengthAdjust="spacing" textLength="20" x="35" y="1792.6982">opt</text><polygon fill="#181818" points="357.5,1812.9766,367.5,1816.9766,357.5,1820.9766,361.5,1816.9766" style="stroke:#181818;stroke-width:1.0;"/><line style="stroke:#181818;stroke-width:1.0;" x1="56.5" x2="363.5" y1="1816.9766" y2="1816.9766"/><text fill="#000000" font-family="sans-serif" font-size="13" font-weight="bold" lengthAdjust="spacing" textLength="14" x="63.5" y="1812.2217">51</text><text fill="#000000" font-family="sans-serif" font-size="13" lengthAdjust="spacing" textLength="207" x="81.5" y="1812.2217">selects the side exposed to the sun</text><line style="stroke:#000000;stroke-width:1.0;stroke-dasharray:2.0,2.0;" x1="10" x2="426.5" y1="1832.9766" y2="1832.9766"/><text fill="#000000" font-family="sans-serif" font-size="11" font-weight="bold" lengthAdjust="spacing" textLength="71" x="15" y="1842.9346">[type = Land]</text><polygon fill="#181818" points="67.5,1869.7891,57.5,1873.7891,67.5,1877.7891,63.5,1873.7891" style="stroke:#181818;stroke-width:1.0;"/><line style="stroke:#181818;stroke-width:1.0;stroke-dasharray:2.0,2.0;" x1="61.5" x2="373.5" y1="1873.7891" y2="1873.7891"/><text fill="#000000" font-family="sans-serif" font-size="13" font-weight="bold" lengthAdjust="spacing" textLength="14" x="73.5" y="1869.0342">52</text><text fill="#000000" font-family="sans-serif" font-size="13" lengthAdjust="spacing" textLength="189" x="91.5" y="1869.0342">requests the type of commission</text><polygon fill="#181818" points="357.5,1898.3125,367.5,1902.3125,357.5,1906.3125,361.5,1902.3125" style="stroke:#181818;stroke-width:1.0;"/><line style="stroke:#181818;stroke-width:1.0;" x1="56.5" x2="363.5" y1="1902.3125" y2="1902.3125"/><text fill="#000000" font-family="sans-serif" font-size="13" font-weight="bold" lengthAdjust="spacing" textLength="14" x="63.5" y="1897.5576">53</text><text fill="#000000" font-family="sans-serif" font-size="13" lengthAdjust="spacing" textLength="181" x="81.5" y="1897.5576">selects the type of commission</text><polygon fill="#181818" points="67.5,1926.8359,57.5,1930.8359,67.5,1934.8359,63.5,1930.8359" style="stroke:#181818;stroke-width:1.0;"/><line style="stroke:#181818;stroke-width:1.0;stroke-dasharray:2.0,2.0;" x1="61.5" x2="373.5" y1="1930.8359" y2="1930.8359"/><text fill="#000000" font-family="sans-serif" font-size="13" font-weight="bold" lengthAdjust="spacing" textLength="14" x="73.5" y="1926.0811">54</text><text fill="#000000" font-family="sans-serif" font-size="13" lengthAdjust="spacing" textLength="179" x="91.5" y="1926.0811">requests the commission value</text><polygon fill="#181818" points="357.5,1955.3594,367.5,1959.3594,357.5,1963.3594,361.5,1959.3594" style="stroke:#181818;stroke-width:1.0;"/><line style="stroke:#181818;stroke-width:1.0;" x1="56.5" x2="363.5" y1="1959.3594" y2="1959.3594"/><text fill="#000000" font-family="sans-serif" font-size="13" font-weight="bold" lengthAdjust="spacing" textLength="14" x="63.5" y="1954.6045">55</text><text fill="#000000" font-family="sans-serif" font-size="13" lengthAdjust="spacing" textLength="168" x="81.5" y="1954.6045">inserts the commission value</text><polygon fill="#181818" points="67.5,1998.4063,57.5,2002.4063,67.5,2006.4063,63.5,2002.4063" style="stroke:#181818;stroke-width:1.0;"/><line style="stroke:#181818;stroke-width:1.0;stroke-dasharray:2.0,2.0;" x1="61.5" x2="373.5" y1="2002.4063" y2="2002.4063"/><text fill="#000000" font-family="sans-serif" font-size="13" font-weight="bold" lengthAdjust="spacing" textLength="14" x="73.5" y="1990.3896">56</text><text fill="#000000" font-family="sans-serif" font-size="13" lengthAdjust="spacing" textLength="247" x="91.5" y="1983.1279">confirmation that the add has been created</text><text fill="#000000" font-family="sans-serif" font-size="13" lengthAdjust="spacing" textLength="184" x="95.5" y="1997.6514">and that the sms has been sent</text><!--SRC=[xPXBRzim3CVl_XH4JnlGVe426p2ik-sMsx0BRJEn44lK9BgTl_reftbqjlEm3FJId0oR-kalKNmeSMkSnu0MB3ikgi2MG493MJnyyLXiSKChQMk2G8MWszId1h72ab-Csy0QwqXP9aRKTDL68Gih-jEGAmYU36uwyq-hrTFdBCD6s3Ksfw3FXN20ksyRSd876E67zJMtH9dE8AOm7ft0tUCEsLli7lkXvXc5ZaCoUFtjty33rxsOHnswZI0Clibh4ok8g5BHEMvKezNv3yCFvFrKXo-li0Vb7kPurAtHXKPHQHA811nQEWmfwN_SMPN6HGeJg86kAsLzDz8k8ce8cfJ4NgwLzsIY15Ciis_Zi2aKkV8MxtO4B0AxrgRxTmmsryE_Z7yek4pUlG5dhY0Vs2kn1MdzR5MHQaqwKx2vql8c6aSnBY9j7BP4L1Ji92W8oYQW67Qflfq6desEA-LY84nL-8Onrxsb9W3igivQIneKNSOgDBbhiKbKTncS72nUCrTo34_GPXSrVd4KW2oQEbNQ66hkfab5iEiYWDVWAnQEgVecUPCYQsP_Y-AU2xLnssGt3qddgzpHh9O-NS4NmAxBwdkVQnTntAASoi1i5zpq0N69F7g2HwcMLZn0Bf5BJuuXXctNNaTjnMd9uptE7UQ8MywsFXlV7QQeCwuvsAIojQ-mPWr6eDB6lyks0MkeIC5kSmzeGbVLIjFDqxtvxI1dgUx1iIFGYuKMkafNx5Yqquylr-HgqelCFZmgRhfRpKTmV0H7Mg6w41gNfRzdg2Ht42TB1iovaNvFSenlhzt92GA7pBbE6vTiN8Mv4Snhqig_NbJw93lbt4LJwk7xwpbIsVttqRzht6YgcBc6QwQvxlfzcdb_ucbAKBkkQxbfwJr8exbWQqsC2rIY2zGKFnrny8nratm7ECiSgVANn6hgM9jzF4Y5kt30ikmFRqxaeD3Bcr2fUKLTTxI9DXvjulbmrzy_]--></g></svg>