<?xml version="1.0" encoding="us-ascii" standalone="no"?><svg xmlns="http://www.w3.org/2000/svg" xmlns:xlink="http://www.w3.org/1999/xlink" contentStyleType="text/css" height="620.1px" preserveAspectRatio="none" style="width:502px;height:620px;background:#FFFFFF;" version="1.1" viewBox="0 0 502 620" width="502.5px" zoomAndPan="magnify"><defs/><g><rect fill="#FFFFFF" height="566.6133" style="stroke:#181818;stroke-width:0.3;" width="3" x="48.6" y="24.5414"/><rect fill="#FFFFFF" height="569.3133" style="stroke:#181818;stroke-width:0.3;" width="3" x="101.4" y="33.0984"/><rect fill="#FFFFFF" height="536.4422" style="stroke:#181818;stroke-width:0.3;" width="3" x="102.9" y="44.0555"/><rect fill="#FFFFFF" height="499.8141" style="stroke:#181818;stroke-width:0.3;" width="3" x="177.6" y="68.2266"/><rect fill="#FFFFFF" height="36.7711" style="stroke:#181818;stroke-width:0.3;" width="3" x="179.1" y="520.6125"/><rect fill="#FFFFFF" height="11.857" style="stroke:#181818;stroke-width:0.3;" width="3" x="180.6" y="533.0695"/><rect fill="#FFFFFF" height="9" style="stroke:#181818;stroke-width:0.3;" width="3" x="349.2" y="104.5711"/><rect fill="#FFFFFF" height="9" style="stroke:#181818;stroke-width:0.3;" width="3" x="349.2" y="122.1281"/><rect fill="#FFFFFF" height="9" style="stroke:#181818;stroke-width:0.3;" width="3" x="349.2" y="139.6852"/><rect fill="#FFFFFF" height="9" style="stroke:#181818;stroke-width:0.3;" width="3" x="349.2" y="157.2422"/><rect fill="#FFFFFF" height="9" style="stroke:#181818;stroke-width:0.3;" width="3" x="349.2" y="174.7992"/><rect fill="#FFFFFF" height="9" style="stroke:#181818;stroke-width:0.3;" width="3" x="349.2" y="192.3563"/><rect fill="#FFFFFF" height="9" style="stroke:#181818;stroke-width:0.3;" width="3" x="349.2" y="209.9133"/><rect fill="#FFFFFF" height="9" style="stroke:#181818;stroke-width:0.3;" width="3" x="418.8" y="234.5273"/><rect fill="#FFFFFF" height="9" style="stroke:#181818;stroke-width:0.3;" width="3" x="418.8" y="252.0844"/><rect fill="#FFFFFF" height="9" style="stroke:#181818;stroke-width:0.3;" width="3" x="418.8" y="269.6414"/><rect fill="#FFFFFF" height="9" style="stroke:#181818;stroke-width:0.3;" width="3" x="418.8" y="287.1984"/><rect fill="#FFFFFF" height="9" style="stroke:#181818;stroke-width:0.3;" width="3" x="471.9" y="330.6703"/><rect fill="#FFFFFF" height="9" style="stroke:#181818;stroke-width:0.3;" width="3" x="471.9" y="348.2273"/><rect fill="#FFFFFF" height="9" style="stroke:#181818;stroke-width:0.3;" width="3" x="471.9" y="365.7844"/><rect fill="#FFFFFF" height="9" style="stroke:#181818;stroke-width:0.3;" width="3" x="471.9" y="383.3414"/><rect fill="#FFFFFF" height="9" style="stroke:#181818;stroke-width:0.3;" width="3" x="471.9" y="400.8984"/><rect fill="#FFFFFF" height="9" style="stroke:#181818;stroke-width:0.3;" width="3" x="471.9" y="418.4555"/><rect fill="#FFFFFF" height="9" style="stroke:#181818;stroke-width:0.3;" width="3" x="471.9" y="436.0125"/><rect fill="none" height="520.3852" style="stroke:#000000;stroke-width:0.44999999999999996;" width="424.35" x="76.35" y="50.0555"/><rect fill="none" height="39.2016" style="stroke:#000000;stroke-width:0.44999999999999996;" width="129.9" x="79.35" y="57.1125"/><rect fill="none" height="271.5422" style="stroke:#000000;stroke-width:0.44999999999999996;" width="348.75" x="148.95" y="223.4133"/><line style="stroke:#181818;stroke-width:0.15;stroke-dasharray:5.0,5.0;" x1="49.95" x2="49.95" y1="15.3844" y2="605.1117"/><line style="stroke:#181818;stroke-width:0.15;stroke-dasharray:5.0,5.0;" x1="102.75" x2="102.75" y1="15.3844" y2="605.1117"/><line style="stroke:#181818;stroke-width:0.15;stroke-dasharray:5.0,5.0;" x1="178.95" x2="178.95" y1="15.3844" y2="605.1117"/><line style="stroke:#181818;stroke-width:0.15;stroke-dasharray:5.0,5.0;" x1="292.8" x2="292.8" y1="489.3199" y2="605.1117"/><line style="stroke:#181818;stroke-width:0.15;stroke-dasharray:5.0,5.0;" x1="350.7" x2="350.7" y1="15.3844" y2="605.1117"/><line style="stroke:#181818;stroke-width:0.15;stroke-dasharray:5.0,5.0;" x1="420.3" x2="420.3" y1="15.3844" y2="605.1117"/><line style="stroke:#181818;stroke-width:0.15;stroke-dasharray:5.0,5.0;" x1="473.4" x2="473.4" y1="15.3844" y2="605.1117"/><rect fill="#E3E3E3" height="8.8922" rx="0.75" ry="0.75" style="stroke:#181818;stroke-width:0.15;" width="58.5" x="20.85" y="6.1922"/><text fill="#000000" font-family="sans-serif" font-size="4.2" lengthAdjust="spacing" textLength="54.3" x="22.95" y="12.0943">:ImportLegacyDataController</text><rect fill="#E3E3E3" height="8.8922" rx="0.75" ry="0.75" style="stroke:#181818;stroke-width:0.15;" width="58.5" x="20.85" y="604.8117"/><text fill="#000000" font-family="sans-serif" font-size="4.2" lengthAdjust="spacing" textLength="54.3" x="22.95" y="610.7139">:ImportLegacyDataController</text><rect fill="#E3E3E3" height="13.5844" rx="0.75" ry="0.75" style="stroke:#181818;stroke-width:0.15;" width="41.1" x="82.35" y="1.5"/><text fill="#000000" font-family="sans-serif" font-size="4.2" lengthAdjust="spacing" textLength="33.6" x="86.1" y="7.4021">csvFileRepository</text><text fill="#000000" font-family="sans-serif" font-size="4.2" lengthAdjust="spacing" textLength="36.9" x="84.45" y="12.0943">:CSVFileRepository</text><rect fill="#E3E3E3" height="13.5844" rx="0.75" ry="0.75" style="stroke:#181818;stroke-width:0.15;" width="41.1" x="82.35" y="604.8117"/><text fill="#000000" font-family="sans-serif" font-size="4.2" lengthAdjust="spacing" textLength="33.6" x="86.1" y="610.7139">csvFileRepository</text><text fill="#000000" font-family="sans-serif" font-size="4.2" lengthAdjust="spacing" textLength="36.9" x="84.45" y="615.4061">:CSVFileRepository</text><rect fill="#E3E3E3" height="13.5844" rx="0.75" ry="0.75" style="stroke:#181818;stroke-width:0.15;" width="54.3" x="151.95" y="1.5"/><text fill="#000000" font-family="sans-serif" font-size="4.2" lengthAdjust="spacing" textLength="48.6" x="154.8" y="7.4021">announcementRepository</text><text fill="#000000" font-family="sans-serif" font-size="4.2" lengthAdjust="spacing" textLength="50.1" x="154.05" y="12.0943">:AnnouncementRepository</text><rect fill="#E3E3E3" height="13.5844" rx="0.75" ry="0.75" style="stroke:#181818;stroke-width:0.15;" width="54.3" x="151.95" y="604.8117"/><text fill="#000000" font-family="sans-serif" font-size="4.2" lengthAdjust="spacing" textLength="48.6" x="154.8" y="610.7139">announcementRepository</text><text fill="#000000" font-family="sans-serif" font-size="4.2" lengthAdjust="spacing" textLength="50.1" x="154.05" y="615.4061">:AnnouncementRepository</text><rect fill="#E3E3E3" height="8.8922" rx="0.75" ry="0.75" style="stroke:#181818;stroke-width:0.15;" width="33.9" x="276" y="604.8117"/><text fill="#000000" font-family="sans-serif" font-size="4.2" lengthAdjust="spacing" textLength="29.7" x="278.1" y="610.7139">:Announcement</text><rect fill="#E3E3E3" height="8.8922" rx="0.75" ry="0.75" style="stroke:#181818;stroke-width:0.15;" width="75.6" x="312.9" y="6.1922"/><text fill="#000000" font-family="sans-serif" font-size="4.2" lengthAdjust="spacing" textLength="71.4" x="315" y="12.0943">AnnouncementDto:AnnouncementDto</text><rect fill="#E3E3E3" height="8.8922" rx="0.75" ry="0.75" style="stroke:#181818;stroke-width:0.15;" width="75.6" x="312.9" y="604.8117"/><text fill="#000000" font-family="sans-serif" font-size="4.2" lengthAdjust="spacing" textLength="71.4" x="315" y="610.7139">AnnouncementDto:AnnouncementDto</text><rect fill="#E3E3E3" height="8.8922" rx="0.75" ry="0.75" style="stroke:#181818;stroke-width:0.15;" width="57.6" x="391.5" y="6.1922"/><text fill="#000000" font-family="sans-serif" font-size="4.2" lengthAdjust="spacing" textLength="53.4" x="393.6" y="12.0943">ApartmentDto:ApartmentDto</text><rect fill="#E3E3E3" height="8.8922" rx="0.75" ry="0.75" style="stroke:#181818;stroke-width:0.15;" width="57.6" x="391.5" y="604.8117"/><text fill="#000000" font-family="sans-serif" font-size="4.2" lengthAdjust="spacing" textLength="53.4" x="393.6" y="610.7139">ApartmentDto:ApartmentDto</text><rect fill="#E3E3E3" height="8.8922" rx="0.75" ry="0.75" style="stroke:#181818;stroke-width:0.15;" width="42.6" x="452.1" y="6.1922"/><text fill="#000000" font-family="sans-serif" font-size="4.2" lengthAdjust="spacing" textLength="38.4" x="454.2" y="12.0943">HouseDto:HouseDto</text><rect fill="#E3E3E3" height="8.8922" rx="0.75" ry="0.75" style="stroke:#181818;stroke-width:0.15;" width="42.6" x="452.1" y="604.8117"/><text fill="#000000" font-family="sans-serif" font-size="4.2" lengthAdjust="spacing" textLength="38.4" x="454.2" y="610.7139">HouseDto:HouseDto</text><rect fill="#FFFFFF" height="566.6133" style="stroke:#181818;stroke-width:0.3;" width="3" x="48.6" y="24.5414"/><rect fill="#FFFFFF" height="569.3133" style="stroke:#181818;stroke-width:0.3;" width="3" x="101.4" y="33.0984"/><rect fill="#FFFFFF" height="536.4422" style="stroke:#181818;stroke-width:0.3;" width="3" x="102.9" y="44.0555"/><rect fill="#FFFFFF" height="499.8141" style="stroke:#181818;stroke-width:0.3;" width="3" x="177.6" y="68.2266"/><rect fill="#FFFFFF" height="36.7711" style="stroke:#181818;stroke-width:0.3;" width="3" x="179.1" y="520.6125"/><rect fill="#FFFFFF" height="11.857" style="stroke:#181818;stroke-width:0.3;" width="3" x="180.6" y="533.0695"/><rect fill="#FFFFFF" height="9" style="stroke:#181818;stroke-width:0.3;" width="3" x="349.2" y="104.5711"/><rect fill="#FFFFFF" height="9" style="stroke:#181818;stroke-width:0.3;" width="3" x="349.2" y="122.1281"/><rect fill="#FFFFFF" height="9" style="stroke:#181818;stroke-width:0.3;" width="3" x="349.2" y="139.6852"/><rect fill="#FFFFFF" height="9" style="stroke:#181818;stroke-width:0.3;" width="3" x="349.2" y="157.2422"/><rect fill="#FFFFFF" height="9" style="stroke:#181818;stroke-width:0.3;" width="3" x="349.2" y="174.7992"/><rect fill="#FFFFFF" height="9" style="stroke:#181818;stroke-width:0.3;" width="3" x="349.2" y="192.3563"/><rect fill="#FFFFFF" height="9" style="stroke:#181818;stroke-width:0.3;" width="3" x="349.2" y="209.9133"/><rect fill="#FFFFFF" height="9" style="stroke:#181818;stroke-width:0.3;" width="3" x="418.8" y="234.5273"/><rect fill="#FFFFFF" height="9" style="stroke:#181818;stroke-width:0.3;" width="3" x="418.8" y="252.0844"/><rect fill="#FFFFFF" height="9" style="stroke:#181818;stroke-width:0.3;" width="3" x="418.8" y="269.6414"/><rect fill="#FFFFFF" height="9" style="stroke:#181818;stroke-width:0.3;" width="3" x="418.8" y="287.1984"/><rect fill="#FFFFFF" height="9" style="stroke:#181818;stroke-width:0.3;" width="3" x="471.9" y="330.6703"/><rect fill="#FFFFFF" height="9" style="stroke:#181818;stroke-width:0.3;" width="3" x="471.9" y="348.2273"/><rect fill="#FFFFFF" height="9" style="stroke:#181818;stroke-width:0.3;" width="3" x="471.9" y="365.7844"/><rect fill="#FFFFFF" height="9" style="stroke:#181818;stroke-width:0.3;" width="3" x="471.9" y="383.3414"/><rect fill="#FFFFFF" height="9" style="stroke:#181818;stroke-width:0.3;" width="3" x="471.9" y="400.8984"/><rect fill="#FFFFFF" height="9" style="stroke:#181818;stroke-width:0.3;" width="3" x="471.9" y="418.4555"/><rect fill="#FFFFFF" height="9" style="stroke:#181818;stroke-width:0.3;" width="3" x="471.9" y="436.0125"/><polygon fill="#181818" points="45,23.3414,48,24.5414,45,25.7414,46.2,24.5414" style="stroke:#181818;stroke-width:0.3;"/><line style="stroke:#181818;stroke-width:0.3;" x1="0" x2="46.8" y1="24.5414" y2="24.5414"/><text fill="#000000" font-family="sans-serif" font-size="3.9" font-weight="bold" lengthAdjust="spacing" textLength="2.1" x="2.1" y="23.1149">1</text><text fill="#000000" font-family="sans-serif" font-size="3.9" lengthAdjust="spacing" textLength="39.6" x="5.4" y="23.1149">importCSVFile(csvFile)</text><polygon fill="#181818" points="97.8,31.8984,100.8,33.0984,97.8,34.2984,99,33.0984" style="stroke:#181818;stroke-width:0.3;"/><line style="stroke:#181818;stroke-width:0.3;" x1="51.6" x2="99.6" y1="33.0984" y2="33.0984"/><text fill="#000000" font-family="sans-serif" font-size="3.9" font-weight="bold" lengthAdjust="spacing" textLength="2.1" x="53.7" y="31.672">2</text><text fill="#000000" font-family="sans-serif" font-size="3.9" lengthAdjust="spacing" textLength="39.6" x="57" y="31.672">importCSVFile(csvFile)</text><line style="stroke:#181818;stroke-width:0.3;" x1="104.4" x2="118.5" y1="40.1555" y2="40.1555"/><line style="stroke:#181818;stroke-width:0.3;" x1="118.5" x2="118.5" y1="40.1555" y2="44.0555"/><line style="stroke:#181818;stroke-width:0.3;" x1="106.2" x2="118.5" y1="44.0555" y2="44.0555"/><polygon fill="#181818" points="109.2,42.8555,106.2,44.0555,109.2,45.2555,108,44.0555" style="stroke:#181818;stroke-width:0.3;"/><text fill="#000000" font-family="sans-serif" font-size="3.9" font-weight="bold" lengthAdjust="spacing" textLength="2.1" x="108" y="38.729">3</text><text fill="#000000" font-family="sans-serif" font-size="3.9" lengthAdjust="spacing" textLength="39.6" x="111.3" y="38.729">importCSVFile(csvFile)</text><path d="M76.35,50.0555 L98.25,50.0555 L98.25,52.0125 L95.25,55.0125 L76.35,55.0125 L76.35,50.0555 " fill="#EEEEEE" style="stroke:#000000;stroke-width:0.44999999999999996;"/><rect fill="none" height="520.3852" style="stroke:#000000;stroke-width:0.44999999999999996;" width="424.35" x="76.35" y="50.0555"/><text fill="#000000" font-family="sans-serif" font-size="3.9" font-weight="bold" lengthAdjust="spacing" textLength="8.4" x="80.85" y="53.886">loop</text><text fill="#000000" font-family="sans-serif" font-size="3.3" font-weight="bold" lengthAdjust="spacing" textLength="30" x="102.75" y="53.6429">[csv file has lines]</text><path d="M79.35,57.1125 L97.65,57.1125 L97.65,59.0695 L94.65,62.0695 L79.35,62.0695 L79.35,57.1125 " fill="#EEEEEE" style="stroke:#000000;stroke-width:0.44999999999999996;"/><rect fill="none" height="39.2016" style="stroke:#000000;stroke-width:0.44999999999999996;" width="129.9" x="79.35" y="57.1125"/><text fill="#000000" font-family="sans-serif" font-size="3.9" font-weight="bold" lengthAdjust="spacing" textLength="4.8" x="83.85" y="60.9431">alt</text><text fill="#000000" font-family="sans-serif" font-size="3.3" font-weight="bold" lengthAdjust="spacing" textLength="30.3" x="102.15" y="60.6999">[type = apartment]</text><polygon fill="#181818" points="174,67.0266,177,68.2266,174,69.4266,175.2,68.2266" style="stroke:#181818;stroke-width:0.3;"/><line style="stroke:#181818;stroke-width:0.3;" x1="105.9" x2="175.8" y1="68.2266" y2="68.2266"/><text fill="#000000" font-family="sans-serif" font-size="3.9" font-weight="bold" lengthAdjust="spacing" textLength="2.1" x="108" y="66.8001">4</text><text fill="#000000" font-family="sans-serif" font-size="3.9" lengthAdjust="spacing" textLength="62.7" x="111.3" y="66.8001">createAnnouncement(apartmentDto)</text><line style="stroke:#000000;stroke-width:0.3;stroke-dasharray:2.0,2.0;" x1="79.35" x2="209.25" y1="70.9266" y2="70.9266"/><text fill="#000000" font-family="sans-serif" font-size="3.3" font-weight="bold" lengthAdjust="spacing" textLength="23.7" x="80.85" y="73.914">[type = house]</text><polygon fill="#181818" points="174,79.8703,177,81.0703,174,82.2703,175.2,81.0703" style="stroke:#181818;stroke-width:0.3;"/><line style="stroke:#181818;stroke-width:0.3;" x1="105.9" x2="175.8" y1="81.0703" y2="81.0703"/><text fill="#000000" font-family="sans-serif" font-size="3.9" font-weight="bold" lengthAdjust="spacing" textLength="2.1" x="108" y="79.6438">5</text><text fill="#000000" font-family="sans-serif" font-size="3.9" lengthAdjust="spacing" textLength="55.8" x="111.3" y="79.6438">createAnnouncement(houseDto)</text><line style="stroke:#000000;stroke-width:0.3;stroke-dasharray:2.0,2.0;" x1="79.35" x2="209.25" y1="83.7703" y2="83.7703"/><text fill="#000000" font-family="sans-serif" font-size="3.3" font-weight="bold" lengthAdjust="spacing" textLength="20.1" x="80.85" y="86.7577">[type = land]</text><polygon fill="#181818" points="174,92.7141,177,93.9141,174,95.1141,175.2,93.9141" style="stroke:#181818;stroke-width:0.3;"/><line style="stroke:#181818;stroke-width:0.3;" x1="105.9" x2="175.8" y1="93.9141" y2="93.9141"/><text fill="#000000" font-family="sans-serif" font-size="3.9" font-weight="bold" lengthAdjust="spacing" textLength="2.1" x="108" y="92.4876">6</text><text fill="#000000" font-family="sans-serif" font-size="3.9" lengthAdjust="spacing" textLength="53.1" x="111.3" y="92.4876">createAnnouncement(dtoLand)</text><polygon fill="#181818" points="345.6,103.3711,348.6,104.5711,345.6,105.7711,346.8,104.5711" style="stroke:#181818;stroke-width:0.3;"/><line style="stroke:#181818;stroke-width:0.3;" x1="180.6" x2="347.4" y1="104.5711" y2="104.5711"/><text fill="#000000" font-family="sans-serif" font-size="3.9" font-weight="bold" lengthAdjust="spacing" textLength="2.1" x="182.7" y="103.1446">7</text><text fill="#000000" font-family="sans-serif" font-size="3.9" lengthAdjust="spacing" textLength="40.8" x="186" y="103.1446">address = getAddress()</text><polygon fill="#181818" points="345.6,120.9281,348.6,122.1281,345.6,123.3281,346.8,122.1281" style="stroke:#181818;stroke-width:0.3;"/><line style="stroke:#181818;stroke-width:0.3;" x1="180.6" x2="347.4" y1="122.1281" y2="122.1281"/><text fill="#000000" font-family="sans-serif" font-size="3.9" font-weight="bold" lengthAdjust="spacing" textLength="2.1" x="182.7" y="120.7017">8</text><text fill="#000000" font-family="sans-serif" font-size="3.9" lengthAdjust="spacing" textLength="58.2" x="186" y="120.7017">propertyType = getPropertyType()</text><polygon fill="#181818" points="345.6,138.4852,348.6,139.6852,345.6,140.8852,346.8,139.6852" style="stroke:#181818;stroke-width:0.3;"/><line style="stroke:#181818;stroke-width:0.3;" x1="180.6" x2="347.4" y1="139.6852" y2="139.6852"/><text fill="#000000" font-family="sans-serif" font-size="3.9" font-weight="bold" lengthAdjust="spacing" textLength="2.1" x="182.7" y="138.2587">9</text><text fill="#000000" font-family="sans-serif" font-size="3.9" lengthAdjust="spacing" textLength="68.7" x="186" y="138.2587">transactionType = getTransactionType()</text><polygon fill="#181818" points="345.6,156.0422,348.6,157.2422,345.6,158.4422,346.8,157.2422" style="stroke:#181818;stroke-width:0.3;"/><line style="stroke:#181818;stroke-width:0.3;" x1="180.6" x2="347.4" y1="157.2422" y2="157.2422"/><text fill="#000000" font-family="sans-serif" font-size="3.9" font-weight="bold" lengthAdjust="spacing" textLength="4.2" x="182.7" y="155.8157">10</text><text fill="#000000" font-family="sans-serif" font-size="3.9" lengthAdjust="spacing" textLength="28.2" x="188.1" y="155.8157">area = getArea()</text><polygon fill="#181818" points="345.6,173.5992,348.6,174.7992,345.6,175.9992,346.8,174.7992" style="stroke:#181818;stroke-width:0.3;"/><line style="stroke:#181818;stroke-width:0.3;" x1="180.6" x2="347.4" y1="174.7992" y2="174.7992"/><text fill="#000000" font-family="sans-serif" font-size="3.9" font-weight="bold" lengthAdjust="spacing" textLength="4.2" x="182.7" y="173.3728">11</text><text fill="#000000" font-family="sans-serif" font-size="3.9" lengthAdjust="spacing" textLength="48.6" x="188.1" y="173.3728">cityCenter = getCityCenter()</text><polygon fill="#181818" points="345.6,191.1563,348.6,192.3563,345.6,193.5563,346.8,192.3563" style="stroke:#181818;stroke-width:0.3;"/><line style="stroke:#181818;stroke-width:0.3;" x1="180.6" x2="347.4" y1="192.3563" y2="192.3563"/><text fill="#000000" font-family="sans-serif" font-size="3.9" font-weight="bold" lengthAdjust="spacing" textLength="4.2" x="182.7" y="190.9298">12</text><text fill="#000000" font-family="sans-serif" font-size="3.9" lengthAdjust="spacing" textLength="48.9" x="188.1" y="190.9298">todayDate = getTodayDate()</text><polygon fill="#181818" points="345.6,208.7133,348.6,209.9133,345.6,211.1133,346.8,209.9133" style="stroke:#181818;stroke-width:0.3;"/><line style="stroke:#181818;stroke-width:0.3;" x1="180.6" x2="347.4" y1="209.9133" y2="209.9133"/><text fill="#000000" font-family="sans-serif" font-size="3.9" font-weight="bold" lengthAdjust="spacing" textLength="4.2" x="182.7" y="208.4868">13</text><text fill="#000000" font-family="sans-serif" font-size="3.9" lengthAdjust="spacing" textLength="33.9" x="188.1" y="208.4868">owner = getOwner()</text><path d="M148.95,223.4133 L167.25,223.4133 L167.25,225.3703 L164.25,228.3703 L148.95,228.3703 L148.95,223.4133 " fill="#EEEEEE" style="stroke:#000000;stroke-width:0.44999999999999996;"/><rect fill="none" height="271.5422" style="stroke:#000000;stroke-width:0.44999999999999996;" width="348.75" x="148.95" y="223.4133"/><text fill="#000000" font-family="sans-serif" font-size="3.9" font-weight="bold" lengthAdjust="spacing" textLength="4.8" x="153.45" y="227.2438">alt</text><text fill="#000000" font-family="sans-serif" font-size="3.3" font-weight="bold" lengthAdjust="spacing" textLength="30.3" x="171.75" y="227.0007">[type = apartment]</text><polygon fill="#181818" points="415.2,233.3273,418.2,234.5273,415.2,235.7273,416.4,234.5273" style="stroke:#181818;stroke-width:0.3;"/><line style="stroke:#181818;stroke-width:0.3;" x1="180.6" x2="417" y1="234.5273" y2="234.5273"/><text fill="#000000" font-family="sans-serif" font-size="3.9" font-weight="bold" lengthAdjust="spacing" textLength="4.2" x="182.7" y="233.1009">14</text><text fill="#000000" font-family="sans-serif" font-size="3.9" lengthAdjust="spacing" textLength="30" x="188.1" y="233.1009">price = getPrice()</text><polygon fill="#181818" points="415.2,250.8844,418.2,252.0844,415.2,253.2844,416.4,252.0844" style="stroke:#181818;stroke-width:0.3;"/><line style="stroke:#181818;stroke-width:0.3;" x1="180.6" x2="417" y1="252.0844" y2="252.0844"/><text fill="#000000" font-family="sans-serif" font-size="3.9" font-weight="bold" lengthAdjust="spacing" textLength="4.2" x="182.7" y="250.6579">15</text><text fill="#000000" font-family="sans-serif" font-size="3.9" lengthAdjust="spacing" textLength="63.6" x="188.1" y="250.6579">numBedrooms = getNumBedrooms()</text><polygon fill="#181818" points="415.2,268.4414,418.2,269.6414,415.2,270.8414,416.4,269.6414" style="stroke:#181818;stroke-width:0.3;"/><line style="stroke:#181818;stroke-width:0.3;" x1="180.6" x2="417" y1="269.6414" y2="269.6414"/><text fill="#000000" font-family="sans-serif" font-size="3.9" font-weight="bold" lengthAdjust="spacing" textLength="4.2" x="182.7" y="268.2149">16</text><text fill="#000000" font-family="sans-serif" font-size="3.9" lengthAdjust="spacing" textLength="66" x="188.1" y="268.2149">numBathrooms = getNumBathrooms()</text><polygon fill="#181818" points="415.2,285.9984,418.2,287.1984,415.2,288.3984,416.4,287.1984" style="stroke:#181818;stroke-width:0.3;"/><line style="stroke:#181818;stroke-width:0.3;" x1="180.6" x2="417" y1="287.1984" y2="287.1984"/><text fill="#000000" font-family="sans-serif" font-size="3.9" font-weight="bold" lengthAdjust="spacing" textLength="4.2" x="182.7" y="285.772">17</text><text fill="#000000" font-family="sans-serif" font-size="3.9" lengthAdjust="spacing" textLength="81" x="188.1" y="285.772">numParkingSpaces = getNumParkingSpaces()</text><polygon fill="#181818" points="272.4,316.6266,275.4,317.8266,272.4,319.0266,273.6,317.8266" style="stroke:#181818;stroke-width:0.3;"/><line style="stroke:#181818;stroke-width:0.3;" x1="180.6" x2="274.2" y1="317.8266" y2="317.8266"/><text fill="#000000" font-family="sans-serif" font-size="3.9" font-weight="bold" lengthAdjust="spacing" textLength="4.2" x="182.7" y="309.8646">18</text><text fill="#000000" font-family="sans-serif" font-size="3.9" lengthAdjust="spacing" textLength="76.8" x="188.1" y="303.329">createAnnouncement(address,propertyType,</text><text fill="#000000" font-family="sans-serif" font-size="3.9" lengthAdjust="spacing" textLength="58.8" x="188.1" y="307.686">transactionType, area, cityCenter,</text><text fill="#000000" font-family="sans-serif" font-size="3.9" lengthAdjust="spacing" textLength="64.8" x="188.1" y="312.0431">price, numBedrooms,numBathrooms,</text><text fill="#000000" font-family="sans-serif" font-size="3.9" lengthAdjust="spacing" textLength="66.6" x="188.1" y="316.4001">numParkingSpaces, todayDate,owner)</text><rect fill="#E3E3E3" height="8.8922" rx="0.75" ry="0.75" style="stroke:#181818;stroke-width:0.15;" width="33.9" x="276" y="308.0344"/><text fill="#000000" font-family="sans-serif" font-size="4.2" lengthAdjust="spacing" textLength="29.7" x="278.1" y="313.9365">:Announcement</text><line style="stroke:#000000;stroke-width:0.3;stroke-dasharray:2.0,2.0;" x1="148.95" x2="497.7" y1="320.5266" y2="320.5266"/><text fill="#000000" font-family="sans-serif" font-size="3.3" font-weight="bold" lengthAdjust="spacing" textLength="23.7" x="150.45" y="323.514">[type = house]</text><polygon fill="#181818" points="468.3,329.4703,471.3,330.6703,468.3,331.8703,469.5,330.6703" style="stroke:#181818;stroke-width:0.3;"/><line style="stroke:#181818;stroke-width:0.3;" x1="180.6" x2="470.1" y1="330.6703" y2="330.6703"/><text fill="#000000" font-family="sans-serif" font-size="3.9" font-weight="bold" lengthAdjust="spacing" textLength="4.2" x="182.7" y="329.2438">19</text><text fill="#000000" font-family="sans-serif" font-size="3.9" lengthAdjust="spacing" textLength="30" x="188.1" y="329.2438">price = getPrice()</text><polygon fill="#181818" points="468.3,347.0273,471.3,348.2273,468.3,349.4273,469.5,348.2273" style="stroke:#181818;stroke-width:0.3;"/><line style="stroke:#181818;stroke-width:0.3;" x1="180.6" x2="470.1" y1="348.2273" y2="348.2273"/><text fill="#000000" font-family="sans-serif" font-size="3.9" font-weight="bold" lengthAdjust="spacing" textLength="4.2" x="182.7" y="346.8009">20</text><text fill="#000000" font-family="sans-serif" font-size="3.9" lengthAdjust="spacing" textLength="63.6" x="188.1" y="346.8009">numBedrooms = getNumBedrooms()</text><polygon fill="#181818" points="468.3,364.5844,471.3,365.7844,468.3,366.9844,469.5,365.7844" style="stroke:#181818;stroke-width:0.3;"/><line style="stroke:#181818;stroke-width:0.3;" x1="180.6" x2="470.1" y1="365.7844" y2="365.7844"/><text fill="#000000" font-family="sans-serif" font-size="3.9" font-weight="bold" lengthAdjust="spacing" textLength="4.2" x="182.7" y="364.3579">21</text><text fill="#000000" font-family="sans-serif" font-size="3.9" lengthAdjust="spacing" textLength="66" x="188.1" y="364.3579">numBathrooms = getNumBathrooms()</text><polygon fill="#181818" points="468.3,382.1414,471.3,383.3414,468.3,384.5414,469.5,383.3414" style="stroke:#181818;stroke-width:0.3;"/><line style="stroke:#181818;stroke-width:0.3;" x1="180.6" x2="470.1" y1="383.3414" y2="383.3414"/><text fill="#000000" font-family="sans-serif" font-size="3.9" font-weight="bold" lengthAdjust="spacing" textLength="4.2" x="182.7" y="381.9149">22</text><text fill="#000000" font-family="sans-serif" font-size="3.9" lengthAdjust="spacing" textLength="81" x="188.1" y="381.9149">numParkingSpaces = getNumParkingSpaces()</text><polygon fill="#181818" points="468.3,399.6984,471.3,400.8984,468.3,402.0984,469.5,400.8984" style="stroke:#181818;stroke-width:0.3;"/><line style="stroke:#181818;stroke-width:0.3;" x1="180.6" x2="470.1" y1="400.8984" y2="400.8984"/><text fill="#000000" font-family="sans-serif" font-size="3.9" font-weight="bold" lengthAdjust="spacing" textLength="4.2" x="182.7" y="399.472">23</text><text fill="#000000" font-family="sans-serif" font-size="3.9" lengthAdjust="spacing" textLength="47.4" x="188.1" y="399.472">basement = getBasement()</text><polygon fill="#181818" points="468.3,417.2555,471.3,418.4555,468.3,419.6555,469.5,418.4555" style="stroke:#181818;stroke-width:0.3;"/><line style="stroke:#181818;stroke-width:0.3;" x1="180.6" x2="470.1" y1="418.4555" y2="418.4555"/><text fill="#000000" font-family="sans-serif" font-size="3.9" font-weight="bold" lengthAdjust="spacing" textLength="4.2" x="182.7" y="417.029">24</text><text fill="#000000" font-family="sans-serif" font-size="3.9" lengthAdjust="spacing" textLength="62.4" x="188.1" y="417.029">inhabitableLoft = getInhabitableLoft()</text><polygon fill="#181818" points="468.3,434.8125,471.3,436.0125,468.3,437.2125,469.5,436.0125" style="stroke:#181818;stroke-width:0.3;"/><line style="stroke:#181818;stroke-width:0.3;" x1="180.6" x2="470.1" y1="436.0125" y2="436.0125"/><text fill="#000000" font-family="sans-serif" font-size="3.9" font-weight="bold" lengthAdjust="spacing" textLength="4.2" x="182.7" y="434.586">25</text><text fill="#000000" font-family="sans-serif" font-size="3.9" lengthAdjust="spacing" textLength="58.8" x="188.1" y="434.586">sunExposure = getSunExposure()</text><polygon fill="#181818" points="272.4,469.7977,275.4,470.9977,272.4,472.1977,273.6,470.9977" style="stroke:#181818;stroke-width:0.3;"/><line style="stroke:#181818;stroke-width:0.3;" x1="180.6" x2="274.2" y1="470.9977" y2="470.9977"/><text fill="#000000" font-family="sans-serif" font-size="3.9" font-weight="bold" lengthAdjust="spacing" textLength="4.2" x="182.7" y="460.8571">26</text><text fill="#000000" font-family="sans-serif" font-size="3.9" lengthAdjust="spacing" textLength="76.8" x="188.1" y="452.1431">createAnnouncement(address,propertyType,</text><text fill="#000000" font-family="sans-serif" font-size="3.9" lengthAdjust="spacing" textLength="58.8" x="188.1" y="456.5001">transactionType, area, cityCenter,</text><text fill="#000000" font-family="sans-serif" font-size="3.9" lengthAdjust="spacing" textLength="64.8" x="188.1" y="460.8571">price, numBedrooms,numBathrooms,</text><text fill="#000000" font-family="sans-serif" font-size="3.9" lengthAdjust="spacing" textLength="54.6" x="188.1" y="465.2142">numParkingSpaces, basement,</text><text fill="#000000" font-family="sans-serif" font-size="3.9" lengthAdjust="spacing" textLength="82.8" x="188.1" y="469.5712">inhabitableLoft, sunExposure, todayDate,owner)</text><rect fill="#E3E3E3" height="8.8922" rx="0.75" ry="0.75" style="stroke:#181818;stroke-width:0.15;" width="33.9" x="276" y="461.2055"/><text fill="#000000" font-family="sans-serif" font-size="4.2" lengthAdjust="spacing" textLength="29.7" x="278.1" y="467.1076">:Announcement</text><line style="stroke:#000000;stroke-width:0.3;stroke-dasharray:2.0,2.0;" x1="148.95" x2="497.7" y1="473.6977" y2="473.6977"/><text fill="#000000" font-family="sans-serif" font-size="3.3" font-weight="bold" lengthAdjust="spacing" textLength="20.1" x="150.45" y="476.6851">[type = land]</text><polygon fill="#181818" points="272.4,491.3555,275.4,492.5555,272.4,493.7555,273.6,492.5555" style="stroke:#181818;stroke-width:0.3;"/><line style="stroke:#181818;stroke-width:0.3;" x1="180.6" x2="274.2" y1="492.5555" y2="492.5555"/><text fill="#000000" font-family="sans-serif" font-size="3.9" font-weight="bold" lengthAdjust="spacing" textLength="4.2" x="182.7" y="486.772">27</text><text fill="#000000" font-family="sans-serif" font-size="3.9" lengthAdjust="spacing" textLength="76.8" x="188.1" y="482.4149">createAnnouncement(address,propertyType,</text><text fill="#000000" font-family="sans-serif" font-size="3.9" lengthAdjust="spacing" textLength="58.8" x="188.1" y="486.772">transactionType, area, cityCenter,</text><text fill="#000000" font-family="sans-serif" font-size="3.9" lengthAdjust="spacing" textLength="41.1" x="188.1" y="491.129">price, todayDate,owner)</text><rect fill="#E3E3E3" height="8.8922" rx="0.75" ry="0.75" style="stroke:#181818;stroke-width:0.15;" width="33.9" x="276" y="482.7633"/><text fill="#000000" font-family="sans-serif" font-size="4.2" lengthAdjust="spacing" textLength="29.7" x="278.1" y="488.6654">:Announcement</text><line style="stroke:#181818;stroke-width:0.3;" x1="180.6" x2="194.7" y1="516.7125" y2="516.7125"/><line style="stroke:#181818;stroke-width:0.3;" x1="194.7" x2="194.7" y1="516.7125" y2="520.6125"/><line style="stroke:#181818;stroke-width:0.3;" x1="182.4" x2="194.7" y1="520.6125" y2="520.6125"/><polygon fill="#181818" points="185.4,519.4125,182.4,520.6125,185.4,521.8125,184.2,520.6125" style="stroke:#181818;stroke-width:0.3;"/><text fill="#000000" font-family="sans-serif" font-size="3.9" font-weight="bold" lengthAdjust="spacing" textLength="4.2" x="184.2" y="515.286">28</text><text fill="#000000" font-family="sans-serif" font-size="3.9" lengthAdjust="spacing" textLength="60.3" x="189.6" y="515.286">addAnnouncement(announcement)</text><line style="stroke:#181818;stroke-width:0.3;" x1="182.1" x2="196.2" y1="529.1695" y2="529.1695"/><line style="stroke:#181818;stroke-width:0.3;" x1="196.2" x2="196.2" y1="529.1695" y2="533.0695"/><line style="stroke:#181818;stroke-width:0.3;" x1="183.9" x2="196.2" y1="533.0695" y2="533.0695"/><polygon fill="#181818" points="186.9,531.8695,183.9,533.0695,186.9,534.2695,185.7,533.0695" style="stroke:#181818;stroke-width:0.3;"/><text fill="#000000" font-family="sans-serif" font-size="3.9" font-weight="bold" lengthAdjust="spacing" textLength="4.2" x="185.7" y="527.7431">29</text><text fill="#000000" font-family="sans-serif" font-size="3.9" lengthAdjust="spacing" textLength="66.9" x="191.1" y="527.7431">validateAnnouncement(announcement)</text><line style="stroke:#181818;stroke-width:0.3;stroke-dasharray:2.0,2.0;" x1="183.6" x2="196.2" y1="544.6266" y2="544.6266"/><line style="stroke:#181818;stroke-width:0.3;stroke-dasharray:2.0,2.0;" x1="196.2" x2="196.2" y1="544.6266" y2="548.5266"/><line style="stroke:#181818;stroke-width:0.3;stroke-dasharray:2.0,2.0;" x1="182.1" x2="196.2" y1="548.5266" y2="548.5266"/><polygon fill="#181818" points="185.1,547.3266,182.1,548.5266,185.1,549.7266,183.9,548.5266" style="stroke:#181818;stroke-width:0.3;"/><text fill="#000000" font-family="sans-serif" font-size="3.9" font-weight="bold" lengthAdjust="spacing" textLength="4.2" x="185.7" y="543.2001">30</text><text fill="#000000" font-family="sans-serif" font-size="3.9" lengthAdjust="spacing" textLength="1.2" x="191.1" y="543.2001">&#160;</text><line style="stroke:#181818;stroke-width:0.3;stroke-dasharray:2.0,2.0;" x1="182.1" x2="194.7" y1="557.0836" y2="557.0836"/><line style="stroke:#181818;stroke-width:0.3;stroke-dasharray:2.0,2.0;" x1="194.7" x2="194.7" y1="557.0836" y2="560.9836"/><line style="stroke:#181818;stroke-width:0.3;stroke-dasharray:2.0,2.0;" x1="180.6" x2="194.7" y1="560.9836" y2="560.9836"/><polygon fill="#181818" points="183.6,559.7836,180.6,560.9836,183.6,562.1836,182.4,560.9836" style="stroke:#181818;stroke-width:0.3;"/><text fill="#000000" font-family="sans-serif" font-size="3.9" font-weight="bold" lengthAdjust="spacing" textLength="4.2" x="184.2" y="555.6571">31</text><text fill="#000000" font-family="sans-serif" font-size="3.9" lengthAdjust="spacing" textLength="1.2" x="189.6" y="555.6571">&#160;</text><polygon fill="#181818" points="109.2,566.8406,106.2,568.0406,109.2,569.2406,108,568.0406" style="stroke:#181818;stroke-width:0.3;"/><line style="stroke:#181818;stroke-width:0.3;stroke-dasharray:2.0,2.0;" x1="107.4" x2="178.8" y1="568.0406" y2="568.0406"/><text fill="#000000" font-family="sans-serif" font-size="3.9" font-weight="bold" lengthAdjust="spacing" textLength="4.2" x="111" y="566.6142">32</text><text fill="#000000" font-family="sans-serif" font-size="3.9" lengthAdjust="spacing" textLength="25.5" x="116.4" y="566.6142">announcement</text><line style="stroke:#181818;stroke-width:0.3;stroke-dasharray:2.0,2.0;" x1="105.9" x2="118.5" y1="580.1977" y2="580.1977"/><line style="stroke:#181818;stroke-width:0.3;stroke-dasharray:2.0,2.0;" x1="118.5" x2="118.5" y1="580.1977" y2="584.0977"/><line style="stroke:#181818;stroke-width:0.3;stroke-dasharray:2.0,2.0;" x1="104.4" x2="118.5" y1="584.0977" y2="584.0977"/><polygon fill="#181818" points="107.4,582.8977,104.4,584.0977,107.4,585.2977,106.2,584.0977" style="stroke:#181818;stroke-width:0.3;"/><text fill="#000000" font-family="sans-serif" font-size="3.9" font-weight="bold" lengthAdjust="spacing" textLength="4.2" x="108" y="578.7712">33</text><text fill="#000000" font-family="sans-serif" font-size="3.9" lengthAdjust="spacing" textLength="25.5" x="113.4" y="578.7712">announcement</text><polygon fill="#181818" points="53.4,589.9547,50.4,591.1547,53.4,592.3547,52.2,591.1547" style="stroke:#181818;stroke-width:0.3;"/><line style="stroke:#181818;stroke-width:0.3;stroke-dasharray:2.0,2.0;" x1="51.6" x2="101.1" y1="591.1547" y2="591.1547"/><text fill="#000000" font-family="sans-serif" font-size="3.9" font-weight="bold" lengthAdjust="spacing" textLength="4.2" x="55.2" y="589.7282">34</text><text fill="#000000" font-family="sans-serif" font-size="3.9" lengthAdjust="spacing" textLength="25.5" x="60.6" y="589.7282">announcement</text><polygon fill="#181818" points="3.3,598.5117,0.3,599.7117,3.3,600.9117,2.1,599.7117" style="stroke:#181818;stroke-width:0.3;"/><line style="stroke:#181818;stroke-width:0.3;stroke-dasharray:2.0,2.0;" x1="1.5" x2="49.8" y1="599.7117" y2="599.7117"/><text fill="#000000" font-family="sans-serif" font-size="3.9" font-weight="bold" lengthAdjust="spacing" textLength="4.2" x="5.1" y="598.2853">35</text><text fill="#000000" font-family="sans-serif" font-size="3.9" lengthAdjust="spacing" textLength="25.5" x="10.5" y="598.2853">announcement</text><!--SRC=[rLbRQzim57xthn1xIehx1y8sQDED5i9Qch2dmZYnJsDHMpAIqYxG7pzPlidtf4bPx2Vht3-TuwEBvGjbCGY8ICGPzmB18oHARD6H1IS6xmKsk5Ix48b0Jm7RXBQ03C3dRvHjo3E44Xq7jegpRRH6uJYEbb7Kep4mHRxCxgAO2xN03NYx6r0mvqm97eOelX2GPBvwN5GrFFdwauRuY36NL76nUsAp-V9tbPRgrgbLGy0Otp8F8sIgOksgbM5CjhDga6oXXbPLrkRSA3whZOtspUh-Ju-5P5IeMuDIDo5MbMxvLcAYaByKmeRWfC_bTpFzP4QeIL8sdvCi0rE7P0zuYhw2mZHR1JbvZ874K3qNmrQhbXkvhCWPLmqN7_TxgE-GyvXeI-HP2v90JsP86SgcO64yL4JjOYJV2EH9wnJkHDTUZXgY9r17RhCdODN6jDTL0RoZsljqKN_lER30rDAdWWgo-ftk7LG8pF_Sc7p55zf9TqZ8_2J_tSNHuKt7KUy5EWBmVO5IQcWRL5VfODBjl4XkewrqQVZOhNCQ2B7WCGgrMwKfqZWUBCh8m2W1J2PEE2lnhAh4aK42NUHPVUctaGNlKRMRwrSKAOHvCHvRON4VaYrINbBvS6Gm-1lBKt6VlFx_y5lNujurOW1mOiIqDUeL_Ko_JlPSTijDMvzu7QfHE47KUfz-ZRxWFChMb5ybOJm8G0Kr23bbD1WUGEWJrMQfZrjOugXGpnUBpRcuwDYHffiLrrx-tITMMq1Ti_ouLXztoHCptvPh5wjhfrsRgS-WMpPGr_IWgNFWJhPNV3YrvcXrU5je9F9sS5lTaipRKo8ueaMSAPeFjulpn7DywpX3N6kGwHx2uBdEHkF3GLa0QwfW7UA2FsTmxgh4yQ6IM_RZhsPkHTRRbYLX76ZESSdAQrupQsNZsZD-pDfcBaJEVzeQ03zyk_B-_jxBSuwRWv9ZxcQgys0DzZZsTDo_dM1BPWVv2Y7r6nchHFffruLz4NU6lEyczfJJTtWmHmJI4qJRVJOCdOo7GsdvYFQwO3yq8YkIWLlr3cVf_uXM-xRjv3_4rylBLlda-GS0]--></g></svg>