<?xml version="1.0" encoding="us-ascii" standalone="no"?><svg xmlns="http://www.w3.org/2000/svg" xmlns:xlink="http://www.w3.org/1999/xlink" contentStyleType="text/css" height="919px" preserveAspectRatio="none" style="width:910px;height:919px;background:#FFFFFF;" version="1.1" viewBox="0 0 910 919" width="910px" zoomAndPan="magnify"><defs/><g><!--class ListPropertiesUI--><g id="elem_ListPropertiesUI"><rect codeLine="11" fill="#F1F1F1" height="48" id="ListPropertiesUI" rx="2.5" ry="2.5" style="stroke:#181818;stroke-width:0.5;" width="131" x="193" y="7"/><ellipse cx="208" cy="23" fill="#ADD1B2" rx="11" ry="11" style="stroke:#181818;stroke-width:1.0;"/><path d="M210.7656,18.875 Q210.9219,18.6563 211.1094,18.5469 Q211.2969,18.4375 211.5156,18.4375 Q211.8906,18.4375 212.125,18.7031 Q212.3594,18.9531 212.3594,19.5625 L212.3594,21.0156 Q212.3594,21.625 212.125,21.8906 Q211.8906,22.1563 211.5156,22.1563 Q211.1719,22.1563 210.9688,21.9531 Q210.7656,21.7656 210.6563,21.25 Q210.6094,20.8906 210.4219,20.7031 Q210.0938,20.3281 209.4844,20.1094 Q208.875,19.8906 208.25,19.8906 Q207.4844,19.8906 206.8438,20.2188 Q206.2188,20.5469 205.7188,21.2969 Q205.2344,22.0469 205.2344,23.0781 L205.2344,24.1719 Q205.2344,25.4063 206.125,26.2344 Q207.0156,27.0469 208.6094,27.0469 Q209.5469,27.0469 210.2031,26.7969 Q210.5938,26.6406 211.0156,26.2031 Q211.2813,25.9375 211.4219,25.8594 Q211.5781,25.7813 211.7813,25.7813 Q212.1094,25.7813 212.3594,26.0469 Q212.625,26.2969 212.625,26.6406 Q212.625,26.9844 212.2813,27.3906 Q211.7813,27.9688 210.9844,28.2969 Q209.9063,28.75 208.6094,28.75 Q207.0938,28.75 205.8906,28.125 Q204.9063,27.625 204.2188,26.5625 Q203.5313,25.4844 203.5313,24.2031 L203.5313,23.0469 Q203.5313,21.7188 204.1406,20.5781 Q204.7656,19.4219 205.8594,18.8125 Q206.9531,18.1875 208.1875,18.1875 Q208.9219,18.1875 209.5625,18.3594 Q210.2188,18.5156 210.7656,18.875 Z " fill="#000000"/><text fill="#000000" font-family="sans-serif" font-size="14" lengthAdjust="spacing" textLength="99" x="222" y="27.8535">ListPropertiesUI</text><line style="stroke:#181818;stroke-width:0.5;" x1="194" x2="323" y1="39" y2="39"/><line style="stroke:#181818;stroke-width:0.5;" x1="194" x2="323" y1="47" y2="47"/></g><!--class Property--><g id="elem_Property"><rect codeLine="14" fill="#F1F1F1" height="110.5625" id="Property" rx="2.5" ry="2.5" style="stroke:#181818;stroke-width:0.5;" width="100" x="270.5" y="568"/><ellipse cx="291.8" cy="584" fill="#ADD1B2" rx="11" ry="11" style="stroke:#181818;stroke-width:1.0;"/><path d="M294.5656,579.875 Q294.7219,579.6563 294.9094,579.5469 Q295.0969,579.4375 295.3156,579.4375 Q295.6906,579.4375 295.925,579.7031 Q296.1594,579.9531 296.1594,580.5625 L296.1594,582.0156 Q296.1594,582.625 295.925,582.8906 Q295.6906,583.1563 295.3156,583.1563 Q294.9719,583.1563 294.7688,582.9531 Q294.5656,582.7656 294.4563,582.25 Q294.4094,581.8906 294.2219,581.7031 Q293.8938,581.3281 293.2844,581.1094 Q292.675,580.8906 292.05,580.8906 Q291.2844,580.8906 290.6438,581.2188 Q290.0188,581.5469 289.5188,582.2969 Q289.0344,583.0469 289.0344,584.0781 L289.0344,585.1719 Q289.0344,586.4063 289.925,587.2344 Q290.8156,588.0469 292.4094,588.0469 Q293.3469,588.0469 294.0031,587.7969 Q294.3938,587.6406 294.8156,587.2031 Q295.0813,586.9375 295.2219,586.8594 Q295.3781,586.7813 295.5813,586.7813 Q295.9094,586.7813 296.1594,587.0469 Q296.425,587.2969 296.425,587.6406 Q296.425,587.9844 296.0813,588.3906 Q295.5813,588.9688 294.7844,589.2969 Q293.7063,589.75 292.4094,589.75 Q290.8938,589.75 289.6906,589.125 Q288.7063,588.625 288.0188,587.5625 Q287.3313,586.4844 287.3313,585.2031 L287.3313,584.0469 Q287.3313,582.7188 287.9406,581.5781 Q288.5656,580.4219 289.6594,579.8125 Q290.7531,579.1875 291.9875,579.1875 Q292.7219,579.1875 293.3625,579.3594 Q294.0188,579.5156 294.5656,579.875 Z " fill="#000000"/><text fill="#000000" font-family="sans-serif" font-size="14" lengthAdjust="spacing" textLength="54" x="307.2" y="588.8535">Property</text><line style="stroke:#181818;stroke-width:0.5;" x1="271.5" x2="369.5" y1="600" y2="600"/><text fill="#000000" font-family="sans-serif" font-size="14" lengthAdjust="spacing" textLength="53" x="276.5" y="616.6738">-int area</text><text fill="#000000" font-family="sans-serif" font-size="14" lengthAdjust="spacing" textLength="88" x="276.5" y="632.3145">-int cityCenter</text><text fill="#000000" font-family="sans-serif" font-size="14" lengthAdjust="spacing" textLength="55" x="276.5" y="647.9551">-int price</text><line style="stroke:#181818;stroke-width:0.5;" x1="271.5" x2="369.5" y1="654.9219" y2="654.9219"/><text fill="#000000" font-family="sans-serif" font-size="14" lengthAdjust="spacing" textLength="72" x="276.5" y="671.5957">+Property()</text></g><!--class Adress--><g id="elem_Adress"><rect codeLine="21" fill="#F1F1F1" height="157.4844" id="Adress" rx="2.5" ry="2.5" style="stroke:#181818;stroke-width:0.5;" width="157" x="242" y="755"/><ellipse cx="294.25" cy="771" fill="#ADD1B2" rx="11" ry="11" style="stroke:#181818;stroke-width:1.0;"/><path d="M297.0156,766.875 Q297.1719,766.6563 297.3594,766.5469 Q297.5469,766.4375 297.7656,766.4375 Q298.1406,766.4375 298.375,766.7031 Q298.6094,766.9531 298.6094,767.5625 L298.6094,769.0156 Q298.6094,769.625 298.375,769.8906 Q298.1406,770.1563 297.7656,770.1563 Q297.4219,770.1563 297.2188,769.9531 Q297.0156,769.7656 296.9063,769.25 Q296.8594,768.8906 296.6719,768.7031 Q296.3438,768.3281 295.7344,768.1094 Q295.125,767.8906 294.5,767.8906 Q293.7344,767.8906 293.0938,768.2188 Q292.4688,768.5469 291.9688,769.2969 Q291.4844,770.0469 291.4844,771.0781 L291.4844,772.1719 Q291.4844,773.4063 292.375,774.2344 Q293.2656,775.0469 294.8594,775.0469 Q295.7969,775.0469 296.4531,774.7969 Q296.8438,774.6406 297.2656,774.2031 Q297.5313,773.9375 297.6719,773.8594 Q297.8281,773.7813 298.0313,773.7813 Q298.3594,773.7813 298.6094,774.0469 Q298.875,774.2969 298.875,774.6406 Q298.875,774.9844 298.5313,775.3906 Q298.0313,775.9688 297.2344,776.2969 Q296.1563,776.75 294.8594,776.75 Q293.3438,776.75 292.1406,776.125 Q291.1563,775.625 290.4688,774.5625 Q289.7813,773.4844 289.7813,772.2031 L289.7813,771.0469 Q289.7813,769.7188 290.3906,768.5781 Q291.0156,767.4219 292.1094,766.8125 Q293.2031,766.1875 294.4375,766.1875 Q295.1719,766.1875 295.8125,766.3594 Q296.4688,766.5156 297.0156,766.875 Z " fill="#000000"/><text fill="#000000" font-family="sans-serif" font-size="14" lengthAdjust="spacing" textLength="44" x="314.75" y="775.8535">Adress</text><line style="stroke:#181818;stroke-width:0.5;" x1="243" x2="398" y1="787" y2="787"/><text fill="#000000" font-family="sans-serif" font-size="14" lengthAdjust="spacing" textLength="82" x="248" y="803.6738">-String street</text><text fill="#000000" font-family="sans-serif" font-size="14" lengthAdjust="spacing" textLength="103" x="248" y="819.3145">-String cityName</text><text fill="#000000" font-family="sans-serif" font-size="14" lengthAdjust="spacing" textLength="123" x="248" y="834.9551">-String districtName</text><text fill="#000000" font-family="sans-serif" font-size="14" lengthAdjust="spacing" textLength="132" x="248" y="850.5957">-String stateAcronym</text><text fill="#000000" font-family="sans-serif" font-size="14" lengthAdjust="spacing" textLength="104" x="248" y="866.2363">-Integer zipCode</text><line style="stroke:#181818;stroke-width:0.5;" x1="243" x2="398" y1="873.2031" y2="873.2031"/><text fill="#000000" font-family="sans-serif" font-size="14" lengthAdjust="spacing" textLength="145" x="248" y="889.877">+Address(district,state,</text><text fill="#000000" font-family="sans-serif" font-size="14" lengthAdjust="spacing" textLength="123" x="248" y="905.5176">city,street,zip-code)</text></g><!--class ContractType--><g id="elem_ContractType"><rect codeLine="30" fill="#F1F1F1" height="79.2813" id="ContractType" rx="2.5" ry="2.5" style="stroke:#181818;stroke-width:0.5;" width="118" x="430.5" y="584"/><ellipse cx="445.5" cy="600" fill="#ADD1B2" rx="11" ry="11" style="stroke:#181818;stroke-width:1.0;"/><path d="M448.2656,595.875 Q448.4219,595.6563 448.6094,595.5469 Q448.7969,595.4375 449.0156,595.4375 Q449.3906,595.4375 449.625,595.7031 Q449.8594,595.9531 449.8594,596.5625 L449.8594,598.0156 Q449.8594,598.625 449.625,598.8906 Q449.3906,599.1563 449.0156,599.1563 Q448.6719,599.1563 448.4688,598.9531 Q448.2656,598.7656 448.1563,598.25 Q448.1094,597.8906 447.9219,597.7031 Q447.5938,597.3281 446.9844,597.1094 Q446.375,596.8906 445.75,596.8906 Q444.9844,596.8906 444.3438,597.2188 Q443.7188,597.5469 443.2188,598.2969 Q442.7344,599.0469 442.7344,600.0781 L442.7344,601.1719 Q442.7344,602.4063 443.625,603.2344 Q444.5156,604.0469 446.1094,604.0469 Q447.0469,604.0469 447.7031,603.7969 Q448.0938,603.6406 448.5156,603.2031 Q448.7813,602.9375 448.9219,602.8594 Q449.0781,602.7813 449.2813,602.7813 Q449.6094,602.7813 449.8594,603.0469 Q450.125,603.2969 450.125,603.6406 Q450.125,603.9844 449.7813,604.3906 Q449.2813,604.9688 448.4844,605.2969 Q447.4063,605.75 446.1094,605.75 Q444.5938,605.75 443.3906,605.125 Q442.4063,604.625 441.7188,603.5625 Q441.0313,602.4844 441.0313,601.2031 L441.0313,600.0469 Q441.0313,598.7188 441.6406,597.5781 Q442.2656,596.4219 443.3594,595.8125 Q444.4531,595.1875 445.6875,595.1875 Q446.4219,595.1875 447.0625,595.3594 Q447.7188,595.5156 448.2656,595.875 Z " fill="#000000"/><text fill="#000000" font-family="sans-serif" font-size="14" lengthAdjust="spacing" textLength="86" x="459.5" y="604.8535">ContractType</text><line style="stroke:#181818;stroke-width:0.5;" x1="431.5" x2="547.5" y1="616" y2="616"/><text fill="#000000" font-family="sans-serif" font-size="14" lengthAdjust="spacing" textLength="92" x="436.5" y="632.6738">-contractValue</text><text fill="#000000" font-family="sans-serif" font-size="14" lengthAdjust="spacing" textLength="88" x="436.5" y="648.3145">-contractType</text><line style="stroke:#181818;stroke-width:0.5;" x1="431.5" x2="547.5" y1="655.2813" y2="655.2813"/></g><!--class PropertyRepository--><g id="elem_PropertyRepository"><rect codeLine="41" fill="#F1F1F1" height="126.2031" id="PropertyRepository" rx="2.5" ry="2.5" style="stroke:#181818;stroke-width:0.5;" width="346" x="85.5" y="381"/><ellipse cx="193.25" cy="397" fill="#ADD1B2" rx="11" ry="11" style="stroke:#181818;stroke-width:1.0;"/><path d="M196.0156,392.875 Q196.1719,392.6563 196.3594,392.5469 Q196.5469,392.4375 196.7656,392.4375 Q197.1406,392.4375 197.375,392.7031 Q197.6094,392.9531 197.6094,393.5625 L197.6094,395.0156 Q197.6094,395.625 197.375,395.8906 Q197.1406,396.1563 196.7656,396.1563 Q196.4219,396.1563 196.2188,395.9531 Q196.0156,395.7656 195.9063,395.25 Q195.8594,394.8906 195.6719,394.7031 Q195.3438,394.3281 194.7344,394.1094 Q194.125,393.8906 193.5,393.8906 Q192.7344,393.8906 192.0938,394.2188 Q191.4688,394.5469 190.9688,395.2969 Q190.4844,396.0469 190.4844,397.0781 L190.4844,398.1719 Q190.4844,399.4063 191.375,400.2344 Q192.2656,401.0469 193.8594,401.0469 Q194.7969,401.0469 195.4531,400.7969 Q195.8438,400.6406 196.2656,400.2031 Q196.5313,399.9375 196.6719,399.8594 Q196.8281,399.7813 197.0313,399.7813 Q197.3594,399.7813 197.6094,400.0469 Q197.875,400.2969 197.875,400.6406 Q197.875,400.9844 197.5313,401.3906 Q197.0313,401.9688 196.2344,402.2969 Q195.1563,402.75 193.8594,402.75 Q192.3438,402.75 191.1406,402.125 Q190.1563,401.625 189.4688,400.5625 Q188.7813,399.4844 188.7813,398.2031 L188.7813,397.0469 Q188.7813,395.7188 189.3906,394.5781 Q190.0156,393.4219 191.1094,392.8125 Q192.2031,392.1875 193.4375,392.1875 Q194.1719,392.1875 194.8125,392.3594 Q195.4688,392.5156 196.0156,392.875 Z " fill="#000000"/><text fill="#000000" font-family="sans-serif" font-size="14" lengthAdjust="spacing" textLength="122" x="213.75" y="401.8535">PropertyRepository</text><line style="stroke:#181818;stroke-width:0.5;" x1="86.5" x2="430.5" y1="413" y2="413"/><line style="stroke:#181818;stroke-width:0.5;" x1="86.5" x2="430.5" y1="421" y2="421"/><text fill="#000000" font-family="sans-serif" font-size="14" lengthAdjust="spacing" textLength="125" x="91.5" y="437.6738">+getPropertiesList()</text><text fill="#000000" font-family="sans-serif" font-size="14" lengthAdjust="spacing" textLength="290" x="91.5" y="453.3145">+getPropertiesByPropertyType(propertyType)</text><text fill="#000000" font-family="sans-serif" font-size="14" lengthAdjust="spacing" textLength="236" x="91.5" y="468.9551">+getPropertiesByPrice(propertyPrice)</text><text fill="#000000" font-family="sans-serif" font-size="14" lengthAdjust="spacing" textLength="334" x="91.5" y="484.5957">+getPropertiesByNumberOfRooms(numberOfRooms)</text><text fill="#000000" font-family="sans-serif" font-size="14" lengthAdjust="spacing" textLength="307" x="91.5" y="500.2363">+getPropertiesByTypeOfBusiness(typeBusiness)</text></g><!--class Repositories--><g id="elem_Repositories"><rect codeLine="49" fill="#F1F1F1" height="94.9219" id="Repositories" rx="2.5" ry="2.5" style="stroke:#181818;stroke-width:0.5;" width="194" x="613.5" y="163"/><ellipse cx="666.75" cy="179" fill="#ADD1B2" rx="11" ry="11" style="stroke:#181818;stroke-width:1.0;"/><path d="M669.5156,174.875 Q669.6719,174.6563 669.8594,174.5469 Q670.0469,174.4375 670.2656,174.4375 Q670.6406,174.4375 670.875,174.7031 Q671.1094,174.9531 671.1094,175.5625 L671.1094,177.0156 Q671.1094,177.625 670.875,177.8906 Q670.6406,178.1563 670.2656,178.1563 Q669.9219,178.1563 669.7188,177.9531 Q669.5156,177.7656 669.4063,177.25 Q669.3594,176.8906 669.1719,176.7031 Q668.8438,176.3281 668.2344,176.1094 Q667.625,175.8906 667,175.8906 Q666.2344,175.8906 665.5938,176.2188 Q664.9688,176.5469 664.4688,177.2969 Q663.9844,178.0469 663.9844,179.0781 L663.9844,180.1719 Q663.9844,181.4063 664.875,182.2344 Q665.7656,183.0469 667.3594,183.0469 Q668.2969,183.0469 668.9531,182.7969 Q669.3438,182.6406 669.7656,182.2031 Q670.0313,181.9375 670.1719,181.8594 Q670.3281,181.7813 670.5313,181.7813 Q670.8594,181.7813 671.1094,182.0469 Q671.375,182.2969 671.375,182.6406 Q671.375,182.9844 671.0313,183.3906 Q670.5313,183.9688 669.7344,184.2969 Q668.6563,184.75 667.3594,184.75 Q665.8438,184.75 664.6406,184.125 Q663.6563,183.625 662.9688,182.5625 Q662.2813,181.4844 662.2813,180.2031 L662.2813,179.0469 Q662.2813,177.7188 662.8906,176.5781 Q663.5156,175.4219 664.6094,174.8125 Q665.7031,174.1875 666.9375,174.1875 Q667.6719,174.1875 668.3125,174.3594 Q668.9688,174.5156 669.5156,174.875 Z " fill="#000000"/><text fill="#000000" font-family="sans-serif" font-size="14" lengthAdjust="spacing" textLength="79" x="687.25" y="183.8535">Repositories</text><line style="stroke:#181818;stroke-width:0.5;" x1="614.5" x2="806.5" y1="195" y2="195"/><line style="stroke:#181818;stroke-width:0.5;" x1="614.5" x2="806.5" y1="203" y2="203"/><text fill="#000000" font-family="sans-serif" font-size="14" lengthAdjust="spacing" textLength="94" x="619.5" y="219.6738">-Repositories()</text><text fill="#000000" font-family="sans-serif" font-size="14" lengthAdjust="spacing" textLength="182" x="619.5" y="235.3145">+getInstance() : Repositories</text><text fill="#000000" font-family="sans-serif" font-size="14" lengthAdjust="spacing" textLength="160" x="619.5" y="250.9551">+getPropertyRepository()</text></g><!--class ListPropertiesController--><g id="elem_ListPropertiesController"><rect codeLine="56" fill="#F1F1F1" height="188.7656" id="ListPropertiesController" rx="2.5" ry="2.5" style="stroke:#181818;stroke-width:0.5;" width="503" x="7" y="116"/><ellipse cx="179.75" cy="132" fill="#ADD1B2" rx="11" ry="11" style="stroke:#181818;stroke-width:1.0;"/><path d="M182.5156,127.875 Q182.6719,127.6563 182.8594,127.5469 Q183.0469,127.4375 183.2656,127.4375 Q183.6406,127.4375 183.875,127.7031 Q184.1094,127.9531 184.1094,128.5625 L184.1094,130.0156 Q184.1094,130.625 183.875,130.8906 Q183.6406,131.1563 183.2656,131.1563 Q182.9219,131.1563 182.7188,130.9531 Q182.5156,130.7656 182.4063,130.25 Q182.3594,129.8906 182.1719,129.7031 Q181.8438,129.3281 181.2344,129.1094 Q180.625,128.8906 180,128.8906 Q179.2344,128.8906 178.5938,129.2188 Q177.9688,129.5469 177.4688,130.2969 Q176.9844,131.0469 176.9844,132.0781 L176.9844,133.1719 Q176.9844,134.4063 177.875,135.2344 Q178.7656,136.0469 180.3594,136.0469 Q181.2969,136.0469 181.9531,135.7969 Q182.3438,135.6406 182.7656,135.2031 Q183.0313,134.9375 183.1719,134.8594 Q183.3281,134.7813 183.5313,134.7813 Q183.8594,134.7813 184.1094,135.0469 Q184.375,135.2969 184.375,135.6406 Q184.375,135.9844 184.0313,136.3906 Q183.5313,136.9688 182.7344,137.2969 Q181.6563,137.75 180.3594,137.75 Q178.8438,137.75 177.6406,137.125 Q176.6563,136.625 175.9688,135.5625 Q175.2813,134.4844 175.2813,133.2031 L175.2813,132.0469 Q175.2813,130.7188 175.8906,129.5781 Q176.5156,128.4219 177.6094,127.8125 Q178.7031,127.1875 179.9375,127.1875 Q180.6719,127.1875 181.3125,127.3594 Q181.9688,127.5156 182.5156,127.875 Z " fill="#000000"/><text fill="#000000" font-family="sans-serif" font-size="14" lengthAdjust="spacing" textLength="149" x="200.25" y="136.8535">ListPropertiesController</text><line style="stroke:#181818;stroke-width:0.5;" x1="8" x2="509" y1="148" y2="148"/><line style="stroke:#181818;stroke-width:0.5;" x1="8" x2="509" y1="156" y2="156"/><text fill="#000000" font-family="sans-serif" font-size="14" lengthAdjust="spacing" textLength="491" x="13" y="172.6738">+ListPropertiesController(announcementRepository, PropertyTypeRepository)</text><text fill="#000000" font-family="sans-serif" font-size="14" lengthAdjust="spacing" textLength="124" x="13" y="188.3145">+getPropertyType()</text><text fill="#000000" font-family="sans-serif" font-size="14" lengthAdjust="spacing" textLength="124" x="13" y="203.9551">+getContractType()</text><text fill="#000000" font-family="sans-serif" font-size="14" lengthAdjust="spacing" textLength="287" x="13" y="219.5957">-getPropertyTypeByFilter(PropertyTypeFilter)</text><text fill="#000000" font-family="sans-serif" font-size="14" lengthAdjust="spacing" textLength="125" x="13" y="235.2363">+getPropertiesList()</text><text fill="#000000" font-family="sans-serif" font-size="14" lengthAdjust="spacing" textLength="290" x="13" y="250.877">+getPropertiesByPropertyType(propertyType)</text><text fill="#000000" font-family="sans-serif" font-size="14" lengthAdjust="spacing" textLength="236" x="13" y="266.5176">+getPropertiesByPrice(propertyPrice)</text><text fill="#000000" font-family="sans-serif" font-size="14" lengthAdjust="spacing" textLength="334" x="13" y="282.1582">+getPropertiesByNumberOfRooms(numberOfRooms)</text><text fill="#000000" font-family="sans-serif" font-size="14" lengthAdjust="spacing" textLength="307" x="13" y="297.7988">+getPropertiesByTypeOfBusiness(typeBusiness)</text></g><!--link ListPropertiesUI to ListPropertiesController--><g id="link_ListPropertiesUI_ListPropertiesController"><path codeLine="70" d="M258.5,55.21 C258.5,69.91 258.5,90.03 258.5,110.89 " fill="none" id="ListPropertiesUI-to-ListPropertiesController" style="stroke:#181818;stroke-width:1.0;stroke-dasharray:7.0,7.0;"/><polygon fill="#181818" points="258.5,115.92,262.5,106.92,258.5,110.92,254.5,106.92,258.5,115.92" style="stroke:#181818;stroke-width:1.0;"/></g><!--link Repositories to Repositories--><g id="link_Repositories_Repositories"><path codeLine="72" d="M807.78,188.07 C827.98,190.43 842.5,197.91 842.5,210.5 C842.5,222.01 830.37,229.25 812.86,232.21 " fill="none" id="Repositories-to-Repositories" style="stroke:#181818;stroke-width:1.0;"/><polygon fill="#181818" points="807.78,232.93,817.2596,235.6017,812.7286,232.2149,816.1154,227.6839,807.78,232.93" style="stroke:#181818;stroke-width:1.0;"/><text fill="#000000" font-family="sans-serif" font-size="13" lengthAdjust="spacing" textLength="49" x="848.5" y="215.2686">instance</text></g><!--link ListPropertiesController to Repositories--><g id="link_ListPropertiesController_Repositories"><path codeLine="74" d="M510.27,210.5 C544.86,210.5 578.63,210.5 608.29,210.5 " fill="none" id="ListPropertiesController-to-Repositories" style="stroke:#181818;stroke-width:1.0;stroke-dasharray:7.0,7.0;"/><polygon fill="#181818" points="613.4,210.5,604.4,206.5,608.4,210.5,604.4,214.5,613.4,210.5" style="stroke:#181818;stroke-width:1.0;"/><text fill="#000000" font-family="sans-serif" font-size="13" lengthAdjust="spacing" textLength="67" x="528.25" y="204.2686">repositories</text></g><!--link Repositories to PropertyRepository--><g id="link_Repositories_PropertyRepository"><path codeLine="76" d="M619.57,258.07 C552.1,292.63 459.24,340.19 384.59,378.42 " fill="none" id="Repositories-to-PropertyRepository" style="stroke:#181818;stroke-width:1.0;"/><polygon fill="#181818" points="379.7,380.92,389.5343,380.3846,384.1519,378.6439,385.8926,373.2616,379.7,380.92" style="stroke:#181818;stroke-width:1.0;"/></g><!--link ListPropertiesController to PropertyRepository--><g id="link_ListPropertiesController_PropertyRepository"><path codeLine="78" d="M258.5,305.33 C258.5,328.88 258.5,353.69 258.5,375.67 " fill="none" id="ListPropertiesController-to-PropertyRepository" style="stroke:#181818;stroke-width:1.0;stroke-dasharray:7.0,7.0;"/><polygon fill="#181818" points="258.5,380.89,262.5,371.89,258.5,375.89,254.5,371.89,258.5,380.89" style="stroke:#181818;stroke-width:1.0;"/><text fill="#000000" font-family="sans-serif" font-size="13" lengthAdjust="spacing" textLength="111" x="259.5" y="347.7686">PropertyRepository</text></g><!--link PropertyRepository to Property--><g id="link_PropertyRepository_Property"><path codeLine="80" d="M280.18,507.08 C286.5,525.17 293.39,544.9 299.66,562.84 " fill="none" id="PropertyRepository-to-Property" style="stroke:#181818;stroke-width:1.0;"/><polygon fill="#181818" points="301.41,567.85,302.199,558.0328,299.7519,563.1329,294.6517,560.6858,301.41,567.85" style="stroke:#181818;stroke-width:1.0;"/></g><!--link Property to ContractType--><g id="link_Property_ContractType"><path codeLine="82" d="M370.8,623.5 C374.51,623.5 376.83,623.5 376.83,623.5 C376.83,623.5 409.85,623.5 425.33,623.5 " fill="none" id="Property-to-ContractType" style="stroke:#181818;stroke-width:1.0;"/><polygon fill="#181818" points="430.45,623.5,421.45,619.5,425.45,623.5,421.45,627.5,430.45,623.5" style="stroke:#181818;stroke-width:1.0;"/></g><!--link Property to Adress--><g id="link_Property_Adress"><path codeLine="84" d="M320.5,679.15 C320.5,700.72 320.5,725.99 320.5,749.72 " fill="none" id="Property-to-Adress" style="stroke:#181818;stroke-width:1.0;"/><polygon fill="#181818" points="320.5,754.75,324.5,745.75,320.5,749.75,316.5,745.75,320.5,754.75" style="stroke:#181818;stroke-width:1.0;"/><text fill="#000000" font-family="sans-serif" font-size="13" lengthAdjust="spacing" textLength="41" x="321.5" y="721.7686">Adress</text></g><!--link ListPropertiesController to ContractType--><g id="link_ListPropertiesController_ContractType"><path codeLine="86" d="M364.06,305.17 C408.23,344.37 449.5,381 449.5,381 C449.5,381 470.71,509.03 482.24,578.65 " fill="none" id="ListPropertiesController-to-ContractType" style="stroke:#181818;stroke-width:1.0;stroke-dasharray:7.0,7.0;"/><polygon fill="#181818" points="483.12,583.97,485.6039,574.4395,482.3073,579.0365,477.7103,575.7399,483.12,583.97" style="stroke:#181818;stroke-width:1.0;"/><text fill="#000000" font-family="sans-serif" font-size="13" lengthAdjust="spacing" textLength="77" x="470.5" y="448.7686">ContractType</text></g><!--SRC=[tLJ1Rjim3BthAtIBWzh1pZqKI08C252qHRFjj8igCuvGMJ8a6eDRxDz7sN4i9Svsdqyc-VX8Fj9U-7Tb6k54pMjhh3mwMmD7rmAR8esGxwA2FNOQk0E9mbGw1lYZAEqlPIf-4Dh74QqCODS0RwpkWi4MCq7hqB8eIshX_HhHgRSMOIUjsQiFu5yOMsWu84VBdQgEo4iLsb7MCDRdy4VbySNP1XmgyDztR0oSdDqdAvH1BXo8uKqgxBPW4DnWDqv9O7SZFbkotoF7kdJWFJ7igJCQrgC3mBCPc9v43MT7ISqG6oPEZm9XBPqrNSsA7HMkmF4FrMnjINNNPLya6tFp7f__D84z7ohcX2uamQFUjjQW4nA_aPwVZDD3YC7rGsXQP-8Ag90xFAb2hz1Ohz2wZWz4Txo2IDGWCQdIHvB0fXif0dtMHCOjE4bznlNMFF2fhT_0FHzUhQrzPc9hFY7KV3viMayNHcA68nkDIBFpf9HpchL8dEEOGO2TeKqOwdV9xnFGbKQHWaGmbKjlir-OrPgMFyfy2v09OsnBjMkwquayvx7UatzvtL6_aCWVNyl9NrpYDzrNfUcpo6Bdu5h-btVHh-ho1y9NguTRUs4ikQ3Y8RseUwvEDtD96-r-TPNaujkwg40bhe_iR-ohkGGgCiSo0umBJe0mQNn1SOH2ms-IYWml_sWl9gASb9Vz0G00]--></g></svg>