<?xml version="1.0" encoding="us-ascii" standalone="no"?><svg xmlns="http://www.w3.org/2000/svg" xmlns:xlink="http://www.w3.org/1999/xlink" contentStyleType="text/css" height="339.5px" preserveAspectRatio="none" style="width:971px;height:339px;background:#FFFFFF;" version="1.1" viewBox="0 0 971 339" width="971.5px" zoomAndPan="magnify"><defs/><g><rect fill="#FFFFFF" height="249.8906" style="stroke:#181818;stroke-width:0.5;" width="5" x="22.25" y="45.3203"/><rect fill="#FFFFFF" height="99.5703" style="stroke:#181818;stroke-width:0.5;" width="5" x="181.75" y="55.582"/><rect fill="#FFFFFF" height="14.2617" style="stroke:#181818;stroke-width:0.5;" width="5" x="181.75" y="169.4141"/><rect fill="#FFFFFF" height="78.5117" style="stroke:#181818;stroke-width:0.5;" width="5" x="181.75" y="197.9375"/><rect fill="#FFFFFF" height="50.7266" style="stroke:#181818;stroke-width:0.5;" width="5" x="271.75" y="90.1641"/><rect fill="#FFFFFF" height="49.9883" style="stroke:#181818;stroke-width:0.5;" width="5" x="271.75" y="212.1992"/><line style="stroke:#181818;stroke-width:0.25;stroke-dasharray:5.0,5.0;" x1="24.5" x2="24.5" y1="40.3203" y2="299.7109"/><line style="stroke:#181818;stroke-width:0.25;stroke-dasharray:5.0,5.0;" x1="184" x2="184" y1="40.3203" y2="299.7109"/><line style="stroke:#181818;stroke-width:0.25;stroke-dasharray:5.0,5.0;" x1="274" x2="274" y1="74.7422" y2="299.7109"/><line style="stroke:#181818;stroke-width:0.25;stroke-dasharray:5.0,5.0;" x1="352" x2="352" y1="40.3203" y2="299.7109"/><line style="stroke:#181818;stroke-width:0.25;stroke-dasharray:5.0,5.0;" x1="405.5" x2="405.5" y1="40.3203" y2="299.7109"/><line style="stroke:#181818;stroke-width:0.25;stroke-dasharray:5.0,5.0;" x1="469" x2="469" y1="40.3203" y2="299.7109"/><line style="stroke:#181818;stroke-width:0.25;stroke-dasharray:5.0,5.0;" x1="553.5" x2="553.5" y1="40.3203" y2="299.7109"/><line style="stroke:#181818;stroke-width:0.25;stroke-dasharray:5.0,5.0;" x1="632" x2="632" y1="40.3203" y2="299.7109"/><line style="stroke:#181818;stroke-width:0.25;stroke-dasharray:5.0,5.0;" x1="728.5" x2="728.5" y1="40.3203" y2="299.7109"/><line style="stroke:#181818;stroke-width:0.25;stroke-dasharray:5.0,5.0;" x1="844.5" x2="844.5" y1="40.3203" y2="299.7109"/><line style="stroke:#181818;stroke-width:0.25;stroke-dasharray:5.0,5.0;" x1="933" x2="933" y1="40.3203" y2="299.7109"/><text fill="#000000" font-family="sans-serif" font-size="7" lengthAdjust="spacing" textLength="41.5" x="2.5" y="38.8369">Administrator</text><ellipse cx="24.75" cy="6.75" fill="#E3E3E3" rx="4" ry="4" style="stroke:#181818;stroke-width:0.25;"/><path d="M24.75,10.75 L24.75,24.25 M18.25,14.75 L31.25,14.75 M24.75,24.25 L18.25,31.75 M24.75,24.25 L31.25,31.75 " fill="none" style="stroke:#181818;stroke-width:0.25;"/><text fill="#000000" font-family="sans-serif" font-size="7" lengthAdjust="spacing" textLength="41.5" x="2.5" y="305.5479">Administrator</text><ellipse cx="24.75" cy="311.2813" fill="#E3E3E3" rx="4" ry="4" style="stroke:#181818;stroke-width:0.25;"/><path d="M24.75,315.2813 L24.75,328.7813 M18.25,319.2813 L31.25,319.2813 M24.75,328.7813 L18.25,336.2813 M24.75,328.7813 L31.25,336.2813 " fill="none" style="stroke:#181818;stroke-width:0.25;"/><rect fill="#E3E3E3" height="14.8203" rx="1.25" ry="1.25" style="stroke:#181818;stroke-width:0.25;" width="72.5" x="148" y="25"/><text fill="#000000" font-family="sans-serif" font-size="7" lengthAdjust="spacing" textLength="65.5" x="151.5" y="34.8369">:ImportLegacyDataUI</text><rect fill="#E3E3E3" height="14.8203" rx="1.25" ry="1.25" style="stroke:#181818;stroke-width:0.25;" width="72.5" x="148" y="299.2109"/><text fill="#000000" font-family="sans-serif" font-size="7" lengthAdjust="spacing" textLength="65.5" x="151.5" y="309.0479">:ImportLegacyDataUI</text><rect fill="#E3E3E3" height="14.8203" rx="1.25" ry="1.25" style="stroke:#181818;stroke-width:0.25;" width="97.5" x="225.5" y="299.2109"/><text fill="#000000" font-family="sans-serif" font-size="7" lengthAdjust="spacing" textLength="90.5" x="229" y="309.0479">:ImportLegacyDataController</text><rect fill="#E3E3E3" height="14.8203" rx="1.25" ry="1.25" style="stroke:#181818;stroke-width:0.25;" width="48.5" x="328" y="25"/><text fill="#000000" font-family="sans-serif" font-size="7" lengthAdjust="spacing" textLength="41.5" x="331.5" y="34.8369">:Repositories</text><rect fill="#E3E3E3" height="14.8203" rx="1.25" ry="1.25" style="stroke:#181818;stroke-width:0.25;" width="48.5" x="328" y="299.2109"/><text fill="#000000" font-family="sans-serif" font-size="7" lengthAdjust="spacing" textLength="41.5" x="331.5" y="309.0479">:Repositories</text><rect fill="#E3E3E3" height="22.6406" rx="1.25" ry="1.25" style="stroke:#181818;stroke-width:0.25;" width="48.5" x="381.5" y="17.1797"/><text fill="#000000" font-family="sans-serif" font-size="7" lengthAdjust="spacing" textLength="37" x="387.25" y="27.0166">repositories</text><text fill="#000000" font-family="sans-serif" font-size="7" lengthAdjust="spacing" textLength="41.5" x="385" y="34.8369">:Repositories</text><rect fill="#E3E3E3" height="22.6406" rx="1.25" ry="1.25" style="stroke:#181818;stroke-width:0.25;" width="48.5" x="381.5" y="299.2109"/><text fill="#000000" font-family="sans-serif" font-size="7" lengthAdjust="spacing" textLength="37" x="387.25" y="309.0479">repositories</text><text fill="#000000" font-family="sans-serif" font-size="7" lengthAdjust="spacing" textLength="41.5" x="385" y="316.8682">:Repositories</text><rect fill="#E3E3E3" height="22.6406" rx="1.25" ry="1.25" style="stroke:#181818;stroke-width:0.25;" width="68.5" x="435" y="17.1797"/><text fill="#000000" font-family="sans-serif" font-size="7" lengthAdjust="spacing" textLength="56" x="441.25" y="27.0166">csvFileRepository</text><text fill="#000000" font-family="sans-serif" font-size="7" lengthAdjust="spacing" textLength="61.5" x="438.5" y="34.8369">:CSVFileRepository</text><rect fill="#E3E3E3" height="22.6406" rx="1.25" ry="1.25" style="stroke:#181818;stroke-width:0.25;" width="68.5" x="435" y="299.2109"/><text fill="#000000" font-family="sans-serif" font-size="7" lengthAdjust="spacing" textLength="56" x="441.25" y="309.0479">csvFileRepository</text><text fill="#000000" font-family="sans-serif" font-size="7" lengthAdjust="spacing" textLength="61.5" x="438.5" y="316.8682">:CSVFileRepository</text><rect fill="#E3E3E3" height="22.6406" rx="1.25" ry="1.25" style="stroke:#181818;stroke-width:0.25;" width="90.5" x="508.5" y="17.1797"/><text fill="#000000" font-family="sans-serif" font-size="7" lengthAdjust="spacing" textLength="81" x="513.25" y="27.0166">announcementRepository</text><text fill="#000000" font-family="sans-serif" font-size="7" lengthAdjust="spacing" textLength="83.5" x="512" y="34.8369">:AnnouncementRepository</text><rect fill="#E3E3E3" height="22.6406" rx="1.25" ry="1.25" style="stroke:#181818;stroke-width:0.25;" width="90.5" x="508.5" y="299.2109"/><text fill="#000000" font-family="sans-serif" font-size="7" lengthAdjust="spacing" textLength="81" x="513.25" y="309.0479">announcementRepository</text><text fill="#000000" font-family="sans-serif" font-size="7" lengthAdjust="spacing" textLength="83.5" x="512" y="316.8682">:AnnouncementRepository</text><rect fill="#E3E3E3" height="14.8203" rx="1.25" ry="1.25" style="stroke:#181818;stroke-width:0.25;" width="56.5" x="604" y="25"/><text fill="#000000" font-family="sans-serif" font-size="7" lengthAdjust="spacing" textLength="49.5" x="607.5" y="34.8369">:Announcement</text><rect fill="#E3E3E3" height="14.8203" rx="1.25" ry="1.25" style="stroke:#181818;stroke-width:0.25;" width="56.5" x="604" y="299.2109"/><text fill="#000000" font-family="sans-serif" font-size="7" lengthAdjust="spacing" textLength="49.5" x="607.5" y="309.0479">:Announcement</text><rect fill="#E3E3E3" height="14.8203" rx="1.25" ry="1.25" style="stroke:#181818;stroke-width:0.25;" width="126" x="665.5" y="25"/><text fill="#000000" font-family="sans-serif" font-size="7" lengthAdjust="spacing" textLength="119" x="669" y="34.8369">AnnouncementDto:AnnouncementDto</text><rect fill="#E3E3E3" height="14.8203" rx="1.25" ry="1.25" style="stroke:#181818;stroke-width:0.25;" width="126" x="665.5" y="299.2109"/><text fill="#000000" font-family="sans-serif" font-size="7" lengthAdjust="spacing" textLength="119" x="669" y="309.0479">AnnouncementDto:AnnouncementDto</text><rect fill="#E3E3E3" height="14.8203" rx="1.25" ry="1.25" style="stroke:#181818;stroke-width:0.25;" width="96" x="796.5" y="25"/><text fill="#000000" font-family="sans-serif" font-size="7" lengthAdjust="spacing" textLength="89" x="800" y="34.8369">ApartmentDto:ApartmentDto</text><rect fill="#E3E3E3" height="14.8203" rx="1.25" ry="1.25" style="stroke:#181818;stroke-width:0.25;" width="96" x="796.5" y="299.2109"/><text fill="#000000" font-family="sans-serif" font-size="7" lengthAdjust="spacing" textLength="89" x="800" y="309.0479">ApartmentDto:ApartmentDto</text><rect fill="#E3E3E3" height="14.8203" rx="1.25" ry="1.25" style="stroke:#181818;stroke-width:0.25;" width="71" x="897.5" y="25"/><text fill="#000000" font-family="sans-serif" font-size="7" lengthAdjust="spacing" textLength="64" x="901" y="34.8369">HouseDto:HouseDto</text><rect fill="#E3E3E3" height="14.8203" rx="1.25" ry="1.25" style="stroke:#181818;stroke-width:0.25;" width="71" x="897.5" y="299.2109"/><text fill="#000000" font-family="sans-serif" font-size="7" lengthAdjust="spacing" textLength="64" x="901" y="309.0479">HouseDto:HouseDto</text><rect fill="#FFFFFF" height="249.8906" style="stroke:#181818;stroke-width:0.5;" width="5" x="22.25" y="45.3203"/><rect fill="#FFFFFF" height="99.5703" style="stroke:#181818;stroke-width:0.5;" width="5" x="181.75" y="55.582"/><rect fill="#FFFFFF" height="14.2617" style="stroke:#181818;stroke-width:0.5;" width="5" x="181.75" y="169.4141"/><rect fill="#FFFFFF" height="78.5117" style="stroke:#181818;stroke-width:0.5;" width="5" x="181.75" y="197.9375"/><rect fill="#FFFFFF" height="50.7266" style="stroke:#181818;stroke-width:0.5;" width="5" x="271.75" y="90.1641"/><rect fill="#FFFFFF" height="49.9883" style="stroke:#181818;stroke-width:0.5;" width="5" x="271.75" y="212.1992"/><polygon fill="#181818" points="175.75,53.582,180.75,55.582,175.75,57.582,177.75,55.582" style="stroke:#181818;stroke-width:0.5;"/><line style="stroke:#181818;stroke-width:0.5;" x1="27.25" x2="178.75" y1="55.582" y2="55.582"/><text fill="#000000" font-family="sans-serif" font-size="6.5" font-weight="bold" lengthAdjust="spacing" textLength="3.5" x="30.75" y="53.2046">1</text><text fill="#000000" font-family="sans-serif" font-size="6.5" lengthAdjust="spacing" textLength="139.5" x="36.25" y="53.2046">asks to import information from a legacy system</text><polygon fill="#181818" points="219.5,67.8438,224.5,69.8438,219.5,71.8438,221.5,69.8438" style="stroke:#181818;stroke-width:0.5;"/><line style="stroke:#181818;stroke-width:0.5;" x1="186.75" x2="222.5" y1="69.8438" y2="69.8438"/><text fill="#000000" font-family="sans-serif" font-size="6.5" font-weight="bold" lengthAdjust="spacing" textLength="3.5" x="190.25" y="67.4663">2</text><text fill="#000000" font-family="sans-serif" font-size="6.5" lengthAdjust="spacing" textLength="18" x="195.75" y="67.4663">create</text><rect fill="#E3E3E3" height="14.8203" rx="1.25" ry="1.25" style="stroke:#181818;stroke-width:0.25;" width="97.5" x="225.5" y="59.582"/><text fill="#000000" font-family="sans-serif" font-size="7" lengthAdjust="spacing" textLength="90.5" x="229" y="69.4189">:ImportLegacyDataController</text><polygon fill="#181818" points="265.75,88.1641,270.75,90.1641,265.75,92.1641,267.75,90.1641" style="stroke:#181818;stroke-width:0.5;"/><line style="stroke:#181818;stroke-width:0.5;" x1="186.75" x2="268.75" y1="90.1641" y2="90.1641"/><text fill="#000000" font-family="sans-serif" font-size="6.5" font-weight="bold" lengthAdjust="spacing" textLength="3.5" x="190.25" y="87.7866">3</text><text fill="#000000" font-family="sans-serif" font-size="6.5" lengthAdjust="spacing" textLength="40.5" x="195.75" y="87.7866">getCSVFiles()</text><rect fill="none" height="18.9648" style="stroke:#000000;stroke-width:0.75;" width="100.5" x="224" y="109.1641"/><path d="M224,109.1641 L255,109.1641 L255,112.1641 L250,117.1641 L224,117.1641 L224,109.1641 " fill="#EEEEEE" style="stroke:#000000;stroke-width:1.0;"/><text fill="#000000" font-family="sans-serif" font-size="6.5" font-weight="bold" lengthAdjust="spacing" textLength="8.5" x="230.5" y="116.0483">ref</text><text fill="#000000" font-family="sans-serif" font-size="6" lengthAdjust="spacing" textLength="38" x="255.25" y="124.5957">Get CSV Files</text><polygon fill="#181818" points="192.25,138.8906,187.25,140.8906,192.25,142.8906,190.25,140.8906" style="stroke:#181818;stroke-width:0.5;"/><line style="stroke:#181818;stroke-width:0.5;stroke-dasharray:2.0,2.0;" x1="189.25" x2="273.75" y1="140.8906" y2="140.8906"/><text fill="#000000" font-family="sans-serif" font-size="6.5" font-weight="bold" lengthAdjust="spacing" textLength="3.5" x="195.25" y="138.5132">4</text><text fill="#000000" font-family="sans-serif" font-size="6.5" lengthAdjust="spacing" textLength="30.5" x="200.75" y="138.5132">csvFileList</text><polygon fill="#181818" points="32.75,153.1523,27.75,155.1523,32.75,157.1523,30.75,155.1523" style="stroke:#181818;stroke-width:0.5;"/><line style="stroke:#181818;stroke-width:0.5;stroke-dasharray:2.0,2.0;" x1="29.75" x2="183.75" y1="155.1523" y2="155.1523"/><text fill="#000000" font-family="sans-serif" font-size="6.5" font-weight="bold" lengthAdjust="spacing" textLength="3.5" x="35.75" y="152.7749">5</text><text fill="#000000" font-family="sans-serif" font-size="6.5" lengthAdjust="spacing" textLength="65" x="41.25" y="152.7749">shows list of CSV files</text><polygon fill="#181818" points="175.75,167.4141,180.75,169.4141,175.75,171.4141,177.75,169.4141" style="stroke:#181818;stroke-width:0.5;"/><line style="stroke:#181818;stroke-width:0.5;" x1="27.25" x2="178.75" y1="169.4141" y2="169.4141"/><text fill="#000000" font-family="sans-serif" font-size="6.5" font-weight="bold" lengthAdjust="spacing" textLength="3.5" x="30.75" y="167.0366">6</text><text fill="#000000" font-family="sans-serif" font-size="6.5" lengthAdjust="spacing" textLength="46.5" x="36.25" y="167.0366">selects CSV file</text><polygon fill="#181818" points="32.75,181.6758,27.75,183.6758,32.75,185.6758,30.75,183.6758" style="stroke:#181818;stroke-width:0.5;"/><line style="stroke:#181818;stroke-width:0.5;stroke-dasharray:2.0,2.0;" x1="29.75" x2="183.75" y1="183.6758" y2="183.6758"/><text fill="#000000" font-family="sans-serif" font-size="6.5" font-weight="bold" lengthAdjust="spacing" textLength="3.5" x="35.75" y="181.2983">7</text><text fill="#000000" font-family="sans-serif" font-size="6.5" lengthAdjust="spacing" textLength="59.5" x="41.25" y="181.2983">shows selected data</text><polygon fill="#181818" points="175.75,195.9375,180.75,197.9375,175.75,199.9375,177.75,197.9375" style="stroke:#181818;stroke-width:0.5;"/><line style="stroke:#181818;stroke-width:0.5;" x1="27.25" x2="178.75" y1="197.9375" y2="197.9375"/><text fill="#000000" font-family="sans-serif" font-size="6.5" font-weight="bold" lengthAdjust="spacing" textLength="3.5" x="30.75" y="195.5601">8</text><text fill="#000000" font-family="sans-serif" font-size="6.5" lengthAdjust="spacing" textLength="37.5" x="36.25" y="195.5601">submits data</text><polygon fill="#181818" points="265.75,210.1992,270.75,212.1992,265.75,214.1992,267.75,212.1992" style="stroke:#181818;stroke-width:0.5;"/><line style="stroke:#181818;stroke-width:0.5;" x1="186.75" x2="268.75" y1="212.1992" y2="212.1992"/><text fill="#000000" font-family="sans-serif" font-size="6.5" font-weight="bold" lengthAdjust="spacing" textLength="3.5" x="190.25" y="209.8218">9</text><text fill="#000000" font-family="sans-serif" font-size="6.5" lengthAdjust="spacing" textLength="66" x="195.75" y="209.8218">importCSVFile(csvFile)</text><polygon fill="#181818" points="460.75,224.4609,465.75,226.4609,460.75,228.4609,462.75,226.4609" style="stroke:#181818;stroke-width:0.5;"/><line style="stroke:#181818;stroke-width:0.5;" x1="276.75" x2="463.75" y1="226.4609" y2="226.4609"/><text fill="#000000" font-family="sans-serif" font-size="6.5" font-weight="bold" lengthAdjust="spacing" textLength="7" x="280.25" y="224.0835">10</text><text fill="#000000" font-family="sans-serif" font-size="6.5" lengthAdjust="spacing" textLength="66" x="289.25" y="224.0835">importCSVFile(csvFile)</text><rect fill="none" height="18.9648" style="stroke:#000000;stroke-width:0.75;" width="71.5" x="433.5" y="230.4609"/><path d="M433.5,230.4609 L464.5,230.4609 L464.5,233.4609 L459.5,238.4609 L433.5,238.4609 L433.5,230.4609 " fill="#EEEEEE" style="stroke:#000000;stroke-width:1.0;"/><text fill="#000000" font-family="sans-serif" font-size="6.5" font-weight="bold" lengthAdjust="spacing" textLength="8.5" x="440" y="237.3452">ref</text><text fill="#000000" font-family="sans-serif" font-size="6" lengthAdjust="spacing" textLength="46" x="446.25" y="245.8926">Import CSV Files</text><polygon fill="#181818" points="279.75,260.1875,274.75,262.1875,279.75,264.1875,277.75,262.1875" style="stroke:#181818;stroke-width:0.5;"/><line style="stroke:#181818;stroke-width:0.5;stroke-dasharray:2.0,2.0;" x1="276.75" x2="466.25" y1="262.1875" y2="262.1875"/><text fill="#000000" font-family="sans-serif" font-size="6.5" font-weight="bold" lengthAdjust="spacing" textLength="7" x="282.75" y="259.8101">11</text><text fill="#000000" font-family="sans-serif" font-size="6.5" lengthAdjust="spacing" textLength="42.5" x="291.75" y="259.8101">announcement</text><polygon fill="#181818" points="189.75,274.4492,184.75,276.4492,189.75,278.4492,187.75,276.4492" style="stroke:#181818;stroke-width:0.5;"/><line style="stroke:#181818;stroke-width:0.5;stroke-dasharray:2.0,2.0;" x1="186.75" x2="273.75" y1="276.4492" y2="276.4492"/><text fill="#000000" font-family="sans-serif" font-size="6.5" font-weight="bold" lengthAdjust="spacing" textLength="7" x="192.75" y="274.0718">12</text><text fill="#000000" font-family="sans-serif" font-size="6.5" lengthAdjust="spacing" textLength="42.5" x="201.75" y="274.0718">announcement</text><polygon fill="#181818" points="32.75,288.7109,27.75,290.7109,32.75,292.7109,30.75,290.7109" style="stroke:#181818;stroke-width:0.5;"/><line style="stroke:#181818;stroke-width:0.5;stroke-dasharray:2.0,2.0;" x1="29.75" x2="183.75" y1="290.7109" y2="290.7109"/><text fill="#000000" font-family="sans-serif" font-size="6.5" font-weight="bold" lengthAdjust="spacing" textLength="7" x="35.75" y="288.3335">13</text><text fill="#000000" font-family="sans-serif" font-size="6.5" lengthAdjust="spacing" textLength="73.5" x="44.75" y="288.3335">shows operation success</text><!--SRC=[ZLJ1Zfim4Btp5QDSkhjIVY27bQ94xKPArMgJxQbIvPY1M04Fiass-ViE9Z4Oo6uvuPdtdeVdP-n9wKeOKK99ckJHK8dWJ8s93PrAo9F8SUSk1O91wOJEYpx07aLAxqhda8d2OfA8sf6komEQ9FboL2b2HkGEz9TRqf61sJ8jbLRM6S7B6GWBo_NtXEMSageIsi5iiIahCcwBkP2NjN3YRUE1RvjFS2lIpb1HO2kyshzk1unNhCWgtbcXzPXGkEnKyt4yVamnFSPlFHRukLtkOuQqvw-gm4wPQQlThxZM3ZYina92Qwgrn1ArYzIMautMpCdMm8K-QCIAiVtEsj5YiFRizVx7dmyKcbMWznOTjod6f1UgBJQ4sqi0-qBYuwJEmg6FJmByy0lCdpabi63moO8ZK3uXe7H6fXHEaOQCamu22fyQi1VhiFJyeCWvymLMOhqcHKzFh2aDSdVGuNgExdgGzk4nLl89zANcCPW1dT6qvLlr6xec2E05GXLrsk33EiLET9IQWF8JpMycN8EuvTkM33N2OCsdCA4nRy7tcTuj54m0olnKMPYgnxuPr7VSOi4_21j8qvRUsR4bOmeft-B_sgq-b8ft2_YxEuLZQgDmDU_XwirZmDuviyxLvx7ndwl6ogE3wyEwT7m8Q_zv4udffsOm_sZkUMTB_oSpcRR8ZZXW8-x4gKsSDbLeshjeQodHMfut-GS0]--></g></svg>