<?xml version="1.0" encoding="us-ascii" standalone="no"?><svg xmlns="http://www.w3.org/2000/svg" xmlns:xlink="http://www.w3.org/1999/xlink" contentStyleType="text/css" height="629px" preserveAspectRatio="none" style="width:376px;height:629px;background:#FFFFFF;" version="1.1" viewBox="0 0 376 629" width="376px" zoomAndPan="magnify"><defs/><g><text fill="#000000" font-family="sans-serif" font-size="14" font-weight="bold" lengthAdjust="spacing" textLength="132" x="115.25" y="24.9659">Domain Model US7</text><!--class Administrator--><g id="elem_Administrator"><rect codeLine="12" fill="#F1F1F1" height="37.0679" id="Administrator" rx="2.5" ry="2.5" style="stroke:#181818;stroke-width:0.5;" width="99" x="105" y="47.0679"/><text fill="#000000" font-family="sans-serif" font-size="14" lengthAdjust="spacing" textLength="93" x="108" y="67.0339">Administrator</text><line style="stroke:#181818;stroke-width:0.5;" x1="106" x2="203" y1="76.1358" y2="76.1358"/></g><!--class UnregisteredUser--><g id="elem_UnregisteredUser"><rect codeLine="14" fill="#F1F1F1" height="37.0679" id="UnregisteredUser" rx="2.5" ry="2.5" style="stroke:#181818;stroke-width:0.5;" width="126" x="33.5" y="163.0679"/><text fill="#000000" font-family="sans-serif" font-size="14" lengthAdjust="spacing" textLength="120" x="36.5" y="183.0339">UnregisteredUser</text><line style="stroke:#181818;stroke-width:0.5;" x1="34.5" x2="158.5" y1="192.1358" y2="192.1358"/></g><!--class Person--><g id="elem_Person"><rect codeLine="16" fill="#F1F1F1" height="132.4075" id="Person" rx="2.5" ry="2.5" style="stroke:#181818;stroke-width:0.5;" width="111" x="157" y="490.0679"/><text fill="#000000" font-family="sans-serif" font-size="14" lengthAdjust="spacing" textLength="46" x="189.5" y="510.0339">Person</text><line style="stroke:#181818;stroke-width:0.5;" x1="158" x2="267" y1="519.1358" y2="519.1358"/><text fill="#000000" font-family="sans-serif" font-size="14" lengthAdjust="spacing" textLength="38" x="163" y="538.1018">name</text><text fill="#000000" font-family="sans-serif" font-size="14" lengthAdjust="spacing" textLength="86" x="163" y="557.1697">cardNumber</text><text fill="#000000" font-family="sans-serif" font-size="14" lengthAdjust="spacing" textLength="76" x="163" y="576.2376">taxNumber</text><text fill="#000000" font-family="sans-serif" font-size="14" lengthAdjust="spacing" textLength="92" x="163" y="595.3055">emailAddress</text><text fill="#000000" font-family="sans-serif" font-size="14" lengthAdjust="spacing" textLength="99" x="163" y="614.3734">phoneNumber</text></g><!--class Property--><g id="elem_Property"><rect codeLine="24" fill="#F1F1F1" height="37.0679" id="Property" rx="2.5" ry="2.5" style="stroke:#181818;stroke-width:0.5;" width="63" x="7" y="537.5679"/><text fill="#000000" font-family="sans-serif" font-size="14" lengthAdjust="spacing" textLength="57" x="10" y="557.5339">Property</text><line style="stroke:#181818;stroke-width:0.5;" x1="8" x2="69" y1="566.6358" y2="566.6358"/></g><!--class Client--><g id="elem_Client"><rect codeLine="26" fill="#F1F1F1" height="56.1358" id="Client" rx="2.5" ry="2.5" style="stroke:#181818;stroke-width:0.5;" width="77" x="58" y="317.0679"/><text fill="#000000" font-family="sans-serif" font-size="14" lengthAdjust="spacing" textLength="39" x="77" y="337.0339">Client</text><line style="stroke:#181818;stroke-width:0.5;" x1="59" x2="134" y1="346.1358" y2="346.1358"/><text fill="#000000" font-family="sans-serif" font-size="14" lengthAdjust="spacing" textLength="65" x="64" y="365.1018">password</text></g><!--class Address--><g id="elem_Address"><rect codeLine="30" fill="#F1F1F1" height="132.4075" id="Address" rx="2.5" ry="2.5" style="stroke:#181818;stroke-width:0.5;" width="104" x="265.5" y="279.0679"/><text fill="#000000" font-family="sans-serif" font-size="14" lengthAdjust="spacing" textLength="55" x="290" y="299.0339">Address</text><line style="stroke:#181818;stroke-width:0.5;" x1="266.5" x2="368.5" y1="308.1358" y2="308.1358"/><text fill="#000000" font-family="sans-serif" font-size="14" lengthAdjust="spacing" textLength="39" x="271.5" y="327.1018">street</text><text fill="#000000" font-family="sans-serif" font-size="14" lengthAdjust="spacing" textLength="63" x="271.5" y="346.1697">cityName</text><text fill="#000000" font-family="sans-serif" font-size="14" lengthAdjust="spacing" textLength="87" x="271.5" y="365.2376">districtName</text><text fill="#000000" font-family="sans-serif" font-size="14" lengthAdjust="spacing" textLength="92" x="271.5" y="384.3055">stateAcronym</text><text fill="#000000" font-family="sans-serif" font-size="14" lengthAdjust="spacing" textLength="54" x="271.5" y="403.3734">zipCode</text></g><!--link Administrator to UnregisteredUser--><g id="link_Administrator_UnregisteredUser"><path codeLine="38" d="M139.51,84.2079 C132.73,92.8079 125.03,103.5479 119.5,114.0679 C111.26,129.7479 104.97,148.9979 101.07,162.7479 " fill="none" id="Administrator-UnregisteredUser" style="stroke:#181818;stroke-width:1.0;"/><polygon fill="#000000" points="122.302,128.4119,128.918,121.5796,123.6385,118.9957,122.302,128.4119" style="stroke:#000000;stroke-width:1.0;"/><text fill="#000000" font-family="sans-serif" font-size="13" lengthAdjust="spacing" textLength="52" x="133.5" y="128.9649">registers</text><text fill="#000000" font-family="sans-serif" font-size="13" lengthAdjust="spacing" textLength="7" x="127.0786" y="106.171">1</text><text fill="#000000" font-family="sans-serif" font-size="13" lengthAdjust="spacing" textLength="20" x="79.4071" y="151.3759">1..*</text></g><!--link UnregisteredUser to Client--><g id="link_UnregisteredUser_Client"><path codeLine="40" d="M95.58,200.1579 C95.16,209.1079 94.71,220.1679 94.5,230.0679 C93.88,259.7579 94.67,293.7879 95.43,316.8879 " fill="none" id="UnregisteredUser-Client" style="stroke:#181818;stroke-width:1.0;"/><polygon fill="#000000" points="99.4936,244.9209,102.4441,235.8796,96.5663,235.8721,99.4936,244.9209" style="stroke:#000000;stroke-width:1.0;"/><text fill="#000000" font-family="sans-serif" font-size="13" lengthAdjust="spacing" textLength="77" x="108.5" y="244.9649">registered as</text><text fill="#000000" font-family="sans-serif" font-size="13" lengthAdjust="spacing" textLength="7" x="87.2816" y="222.1063">1</text><text fill="#000000" font-family="sans-serif" font-size="13" lengthAdjust="spacing" textLength="7" x="87.3732" y="305.3686">1</text></g><!--link Client to Property--><g id="link_Client_Property"><path codeLine="42" d="M72.87,373.4579 C59.02,391.3879 42.84,416.0579 35.5,441.0679 C25.86,473.9379 30.62,514.4379 34.72,537.2479 " fill="none" id="Client-Property" style="stroke:#181818;stroke-width:1.0;"/><polygon fill="#000000" points="39.3658,455.7906,44.2799,447.648,38.5553,446.3146,39.3658,455.7906" style="stroke:#000000;stroke-width:1.0;"/><text fill="#000000" font-family="sans-serif" font-size="13" lengthAdjust="spacing" textLength="95" x="49.5" y="455.9649">buys/rents/sells</text><text fill="#000000" font-family="sans-serif" font-size="13" lengthAdjust="spacing" textLength="7" x="60.2744" y="395.0223">1</text><text fill="#000000" font-family="sans-serif" font-size="13" lengthAdjust="spacing" textLength="20" x="10.4999" y="525.8759">1..*</text></g><!--link Address to Person--><g id="link_Address_Person"><path codeLine="44" d="M284.71,411.3379 C272.19,436.2479 257.93,464.6379 245.4,489.5779 " fill="none" id="Address-Person" style="stroke:#181818;stroke-width:1.0;"/><polygon fill="#000000" points="274.7447,446.4531,268.0579,453.216,273.3101,455.8549,274.7447,446.4531" style="stroke:#000000;stroke-width:1.0;"/><text fill="#000000" font-family="sans-serif" font-size="13" lengthAdjust="spacing" textLength="59" x="281.5" y="455.9649">located at</text><text fill="#000000" font-family="sans-serif" font-size="13" lengthAdjust="spacing" textLength="7" x="273.7408" y="433.4292">1</text><text fill="#000000" font-family="sans-serif" font-size="13" lengthAdjust="spacing" textLength="7" x="241.6156" y="478.2892">1</text></g><!--link Administrator to Person--><g id="link_Administrator_Person"><path codeLine="46" d="M172.09,84.4079 C179.15,92.7279 186.53,103.1779 190.5,114.0679 C233.14,231.1879 230.49,377.4279 222.88,468.5579 " fill="none" id="Administrator-to-Person" style="stroke:#181818;stroke-width:1.0;"/><polygon fill="none" points="229.86,469.1379,221.06,488.4179,215.92,467.8679,229.86,469.1379" style="stroke:#181818;stroke-width:1.0;"/></g><!--link Client to Person--><g id="link_Client_Person"><path codeLine="47" d="M111.84,373.4879 C122.44,392.4579 136.85,418.2779 149.5,441.0679 C154.89,450.7679 160.52,460.9379 166.11,471.0379 " fill="none" id="Client-to-Person" style="stroke:#181818;stroke-width:1.0;"/><polygon fill="none" points="172.11,467.4179,175.67,488.3079,159.86,474.1979,172.11,467.4179" style="stroke:#181818;stroke-width:1.0;"/></g><!--SRC=[PL5DRy8m3BtdLrWS9nMsqoGq8I5ssM5e4k87XCHh8_9HsKQiRFll2wKjPUII-FdvsS_XlOkr9XqWf9XCHIaW21rGyP2fjTdh4ZVIU0H28pgMVapWIjjqTB64J-qPrIXbl6PUYf3R7GJVJ8eRTq9uLAfo5i4uCbcgVGUKAbbMIfpaHgyfQ1VXFLdqiDqyAzLgmT865nqBQKdKWzj8M6OG2UsMSS0_a3Z5RmNvH1smVHXDTdq8kqmxXwA_HX7chdvfBI5p2zHLYjWHVWTTIZMID7syyWwZmALHdP5Z8dkbTtgNT1uTKIwJE6dM_LZsRCeP6G0MBRWqb68JMk3awbLUnrdtPWimUPf0KUHhEdsOt2q3vj0330kbxl93-QGpSYr02xejwXpUTkhNC8VTeU4PPGRF6BrlIphNO_dBV-I1V3BPN1ONUFdlfYX-5XspRpk6_W00]--></g></svg>