<?xml version="1.0" encoding="us-ascii" standalone="no"?><svg xmlns="http://www.w3.org/2000/svg" xmlns:xlink="http://www.w3.org/1999/xlink" contentStyleType="text/css" height="417px" preserveAspectRatio="none" style="width:772px;height:417px;background:#FFFFFF;" version="1.1" viewBox="0 0 772 417" width="772px" zoomAndPan="magnify"><defs/><g><text fill="#000000" font-family="sans-serif" font-size="14" font-weight="bold" lengthAdjust="spacing" textLength="224" x="273.25" y="29.9659">System Sequence Diagram (SSD)</text><rect fill="#FFFFFF" height="191.2361" style="stroke:#181818;stroke-width:1.0;" width="10" x="64.5" y="134.1358"/><rect fill="#FFFFFF" height="31.706" style="stroke:#181818;stroke-width:1.0;" width="10" x="728.5" y="157.8419"/><rect fill="#FFFFFF" height="31.706" style="stroke:#181818;stroke-width:1.0;" width="10" x="728.5" y="221.2539"/><rect fill="#FFFFFF" height="40.706" style="stroke:#181818;stroke-width:1.0;" width="10" x="728.5" y="284.6659"/><line style="stroke:#181818;stroke-width:0.5;stroke-dasharray:5.0,5.0;" x1="69" x2="69" y1="124.1358" y2="334.3719"/><line style="stroke:#181818;stroke-width:0.5;stroke-dasharray:5.0,5.0;" x1="733.5" x2="733.5" y1="124.1358" y2="334.3719"/><text fill="#000000" font-family="sans-serif" font-size="14" lengthAdjust="spacing" textLength="123" x="5" y="120.0339">Unregistered user</text><ellipse cx="69.5" cy="53.5679" fill="#E3E3E3" rx="8" ry="8" style="stroke:#181818;stroke-width:0.5;"/><path d="M69.5,61.5679 L69.5,88.5679 M56.5,69.5679 L82.5,69.5679 M69.5,88.5679 L56.5,103.5679 M69.5,88.5679 L82.5,103.5679 " fill="none" style="stroke:#181818;stroke-width:0.5;"/><text fill="#000000" font-family="sans-serif" font-size="14" lengthAdjust="spacing" textLength="123" x="5" y="348.3379">Unregistered user</text><ellipse cx="69.5" cy="360.9398" fill="#E3E3E3" rx="8" ry="8" style="stroke:#181818;stroke-width:0.5;"/><path d="M69.5,368.9398 L69.5,395.9398 M56.5,376.9398 L82.5,376.9398 M69.5,395.9398 L56.5,410.9398 M69.5,395.9398 L82.5,410.9398 " fill="none" style="stroke:#181818;stroke-width:0.5;"/><rect fill="#E3E3E3" height="33.0679" rx="2.5" ry="2.5" style="stroke:#181818;stroke-width:0.5;" width="66" x="700.5" y="90.0679"/><text fill="#000000" font-family="sans-serif" font-size="14" lengthAdjust="spacing" textLength="52" x="707.5" y="112.0339">:System</text><rect fill="#E3E3E3" height="33.0679" rx="2.5" ry="2.5" style="stroke:#181818;stroke-width:0.5;" width="66" x="700.5" y="333.3719"/><text fill="#000000" font-family="sans-serif" font-size="14" lengthAdjust="spacing" textLength="52" x="707.5" y="355.3379">:System</text><rect fill="#FFFFFF" height="191.2361" style="stroke:#181818;stroke-width:1.0;" width="10" x="64.5" y="134.1358"/><rect fill="#FFFFFF" height="31.706" style="stroke:#181818;stroke-width:1.0;" width="10" x="728.5" y="157.8419"/><rect fill="#FFFFFF" height="31.706" style="stroke:#181818;stroke-width:1.0;" width="10" x="728.5" y="221.2539"/><rect fill="#FFFFFF" height="40.706" style="stroke:#181818;stroke-width:1.0;" width="10" x="728.5" y="284.6659"/><polygon fill="#181818" points="716.5,153.8419,726.5,157.8419,716.5,161.8419,720.5,157.8419" style="stroke:#181818;stroke-width:1.0;"/><line style="stroke:#181818;stroke-width:1.0;" x1="74.5" x2="722.5" y1="157.8419" y2="157.8419"/><text fill="#000000" font-family="sans-serif" font-size="13" font-weight="bold" lengthAdjust="spacing" textLength="7" x="81.5" y="152.0328">1</text><text fill="#000000" font-family="sans-serif" font-size="13" lengthAdjust="spacing" textLength="207" x="92.5" y="152.0328">asks to be registered in the system</text><polygon fill="#181818" points="85.5,185.5479,75.5,189.5479,85.5,193.5479,81.5,189.5479" style="stroke:#181818;stroke-width:1.0;"/><line style="stroke:#181818;stroke-width:1.0;stroke-dasharray:2.0,2.0;" x1="79.5" x2="732.5" y1="189.5479" y2="189.5479"/><text fill="#000000" font-family="sans-serif" font-size="13" font-weight="bold" lengthAdjust="spacing" textLength="7" x="91.5" y="183.7389">2</text><text fill="#000000" font-family="sans-serif" font-size="13" lengthAdjust="spacing" textLength="224" x="102.5" y="183.7389">requests the required data to register</text><polygon fill="#181818" points="716.5,217.2539,726.5,221.2539,716.5,225.2539,720.5,221.2539" style="stroke:#181818;stroke-width:1.0;"/><line style="stroke:#181818;stroke-width:1.0;stroke-dasharray:2.0,2.0;" x1="74.5" x2="722.5" y1="221.2539" y2="221.2539"/><text fill="#000000" font-family="sans-serif" font-size="13" font-weight="bold" lengthAdjust="spacing" textLength="7" x="81.5" y="215.4449">3</text><text fill="#000000" font-family="sans-serif" font-size="13" lengthAdjust="spacing" textLength="624" x="92.5" y="215.4449">types requested data (name, passport card number, tax number, email address, phone number, address)</text><polygon fill="#181818" points="85.5,248.9599,75.5,252.9599,85.5,256.9599,81.5,252.9599" style="stroke:#181818;stroke-width:1.0;"/><line style="stroke:#181818;stroke-width:1.0;stroke-dasharray:2.0,2.0;" x1="79.5" x2="732.5" y1="252.9599" y2="252.9599"/><text fill="#000000" font-family="sans-serif" font-size="13" font-weight="bold" lengthAdjust="spacing" textLength="7" x="91.5" y="247.1509">4</text><text fill="#000000" font-family="sans-serif" font-size="13" lengthAdjust="spacing" textLength="155" x="102.5" y="247.1509">shows the requested data</text><polygon fill="#181818" points="716.5,280.6659,726.5,284.6659,716.5,288.6659,720.5,284.6659" style="stroke:#181818;stroke-width:1.0;"/><line style="stroke:#181818;stroke-width:1.0;stroke-dasharray:2.0,2.0;" x1="74.5" x2="722.5" y1="284.6659" y2="284.6659"/><text fill="#000000" font-family="sans-serif" font-size="13" font-weight="bold" lengthAdjust="spacing" textLength="7" x="81.5" y="278.8569">5</text><text fill="#000000" font-family="sans-serif" font-size="13" lengthAdjust="spacing" textLength="78" x="92.5" y="278.8569">submits data</text><polygon fill="#181818" points="85.5,312.3719,75.5,316.3719,85.5,320.3719,81.5,316.3719" style="stroke:#181818;stroke-width:1.0;"/><line style="stroke:#181818;stroke-width:1.0;stroke-dasharray:2.0,2.0;" x1="79.5" x2="727.5" y1="316.3719" y2="316.3719"/><text fill="#000000" font-family="sans-serif" font-size="13" font-weight="bold" lengthAdjust="spacing" textLength="7" x="91.5" y="310.5629">6</text><text fill="#000000" font-family="sans-serif" font-size="13" lengthAdjust="spacing" textLength="148" x="102.5" y="310.5629">shows operation success</text><!--SRC=[bP51Si8m34NtFeM65Sp01LXqnGqoFO2mrKH3RAUMKihjAoSaCDDsWLS_blI-lYCNJWCMZ11pohuhEH9e6Sd9MXdGNx2bHcyzGI6lcDh-kK4w3FdAgOKFx8MSKrPhRMwY5A6Xpv6I9pWnjhLzspIddNCuQavZF5CnxJKNsBodGYtRLA40er3P0Cead3afUnumAMoECtggpd92y1SgpUqEx5G5XxTbaQErNmGqmxdcM8quWNO4CeFguCfQu70_TzB1e1FyQ1nB9oeJedvmHGPKh4QBomG8z2Tttl9vJRqD90jveMqJHjhRpn0PSb7mM0BCxxS7nUzLKqJk0KCe9683NKwq5k_Nk_zZ_eueNRu-yZrMUYsKZEV8zaxhv4lkUQ22oZaPntjBu7u0]--></g></svg>