<?xml version="1.0" encoding="us-ascii" standalone="no"?><svg xmlns="http://www.w3.org/2000/svg" xmlns:xlink="http://www.w3.org/1999/xlink" contentStyleType="text/css" height="1870px" preserveAspectRatio="none" style="width:2177px;height:1870px;background:#FFFFFF;" version="1.1" viewBox="0 0 2177 1870" width="2177px" zoomAndPan="magnify"><defs/><g><rect fill="#FFFFFF" height="1684.1621" style="stroke:#181818;stroke-width:1.0;" width="10" x="46.5" y="93.6211"/><rect fill="#FFFFFF" height="243.0371" style="stroke:#181818;stroke-width:1.0;" width="10" x="468.5" y="116.9121"/><rect fill="#FFFFFF" height="1361.252" style="stroke:#181818;stroke-width:1.0;" width="10" x="468.5" y="417.5313"/><rect fill="#FFFFFF" height="891.5371" style="stroke:#181818;stroke-width:1.0;" width="10" x="473.5" y="705.8203"/><rect fill="#FFFFFF" height="31.291" style="stroke:#181818;stroke-width:1.0;" width="10" x="473.5" y="1645.2793"/><rect fill="#FFFFFF" height="31.291" style="stroke:#181818;stroke-width:1.0;" width="10" x="473.5" y="1731.4922"/><rect fill="#FFFFFF" height="170.4551" style="stroke:#181818;stroke-width:1.0;" width="10" x="669.5" y="158.2031"/><rect fill="#FFFFFF" height="90.543" style="stroke:#181818;stroke-width:1.0;" width="10" x="674.5" y="199.8242"/><rect fill="#FFFFFF" height="168.125" style="stroke:#181818;stroke-width:1.0;" width="10" x="669.5" y="448.8223"/><rect fill="#FFFFFF" height="90.543" style="stroke:#181818;stroke-width:1.0;" width="10" x="674.5" y="488.1133"/><rect fill="#FFFFFF" height="828.9551" style="stroke:#181818;stroke-width:1.0;" width="10" x="669.5" y="737.1113"/><rect fill="#FFFFFF" height="90.543" style="stroke:#181818;stroke-width:1.0;" width="10" x="674.5" y="776.4023"/><rect fill="#FFFFFF" height="90.543" style="stroke:#181818;stroke-width:1.0;" width="10" x="674.5" y="913.2363"/><rect fill="#FFFFFF" height="130.873" style="stroke:#181818;stroke-width:1.0;" width="10" x="674.5" y="1286.0684"/><rect fill="#FFFFFF" height="42.291" style="stroke:#181818;stroke-width:1.0;" width="10" x="679.5" y="1330.3594"/><rect fill="#FFFFFF" height="31.291" style="stroke:#181818;stroke-width:1.0;" width="10" x="1133.5" y="1042.0703"/><rect fill="#FFFFFF" height="31.291" style="stroke:#181818;stroke-width:1.0;" width="10" x="1238.5" y="1104.6523"/><rect fill="#FFFFFF" height="79.543" style="stroke:#181818;stroke-width:1.0;" width="10" x="1389.5" y="1455.2324"/><rect fill="#FFFFFF" height="79.543" style="stroke:#181818;stroke-width:1.0;" width="10" x="1549" y="1167.2344"/><rect fill="none" height="1395.834" style="stroke:#000000;stroke-width:1.5;" width="1619" x="10" y="374.9492"/><rect fill="none" height="1021.332" style="stroke:#000000;stroke-width:1.5;" width="1599" x="20" y="663.2383"/><line style="stroke:#181818;stroke-width:0.5;stroke-dasharray:5.0,5.0;" x1="51" x2="51" y1="83.6211" y2="1787.7832"/><line style="stroke:#181818;stroke-width:0.5;stroke-dasharray:5.0,5.0;" x1="473.5" x2="473.5" y1="83.6211" y2="1787.7832"/><line style="stroke:#181818;stroke-width:0.5;stroke-dasharray:5.0,5.0;" x1="674.5" x2="674.5" y1="156.7227" y2="1787.7832"/><line style="stroke:#181818;stroke-width:0.5;stroke-dasharray:5.0,5.0;" x1="1138" x2="1138" y1="83.6211" y2="1787.7832"/><line style="stroke:#181818;stroke-width:0.5;stroke-dasharray:5.0,5.0;" x1="1243" x2="1243" y1="83.6211" y2="1787.7832"/><line style="stroke:#181818;stroke-width:0.5;stroke-dasharray:5.0,5.0;" x1="1394" x2="1394" y1="83.6211" y2="1787.7832"/><line style="stroke:#181818;stroke-width:0.5;stroke-dasharray:5.0,5.0;" x1="1554" x2="1554" y1="83.6211" y2="1787.7832"/><line style="stroke:#181818;stroke-width:0.5;stroke-dasharray:5.0,5.0;" x1="1688" x2="1688" y1="83.6211" y2="1787.7832"/><line style="stroke:#181818;stroke-width:0.5;stroke-dasharray:5.0,5.0;" x1="1836" x2="1836" y1="83.6211" y2="1787.7832"/><line style="stroke:#181818;stroke-width:0.5;stroke-dasharray:5.0,5.0;" x1="1983" x2="1983" y1="83.6211" y2="1787.7832"/><line style="stroke:#181818;stroke-width:0.5;stroke-dasharray:5.0,5.0;" x1="2116" x2="2116" y1="83.6211" y2="1787.7832"/><text fill="#000000" font-family="sans-serif" font-size="14" lengthAdjust="spacing" textLength="37" x="30" y="80.1074">Agent</text><ellipse cx="51.5" cy="13.5" fill="#E3E3E3" rx="8" ry="8" style="stroke:#181818;stroke-width:0.5;"/><path d="M51.5,21.5 L51.5,48.5 M38.5,29.5 L64.5,29.5 M51.5,48.5 L38.5,63.5 M51.5,48.5 L64.5,63.5 " fill="none" style="stroke:#181818;stroke-width:0.5;"/><text fill="#000000" font-family="sans-serif" font-size="14" lengthAdjust="spacing" textLength="37" x="30" y="1801.8906">Agent</text><ellipse cx="51.5" cy="1813.9043" fill="#E3E3E3" rx="8" ry="8" style="stroke:#181818;stroke-width:0.5;"/><path d="M51.5,1821.9043 L51.5,1848.9043 M38.5,1829.9043 L64.5,1829.9043 M51.5,1848.9043 L38.5,1863.9043 M51.5,1848.9043 L64.5,1863.9043 " fill="none" style="stroke:#181818;stroke-width:0.5;"/><rect fill="#E3E3E3" height="32.6211" rx="2.5" ry="2.5" style="stroke:#181818;stroke-width:0.5;" width="134" x="406.5" y="50"/><text fill="#000000" font-family="sans-serif" font-size="14" lengthAdjust="spacing" textLength="120" x="413.5" y="72.1074">:BookingRequestUI</text><rect fill="#E3E3E3" height="32.6211" rx="2.5" ry="2.5" style="stroke:#181818;stroke-width:0.5;" width="134" x="406.5" y="1786.7832"/><text fill="#000000" font-family="sans-serif" font-size="14" lengthAdjust="spacing" textLength="120" x="413.5" y="1808.8906">:BookingRequestUI</text><rect fill="#E3E3E3" height="32.6211" rx="2.5" ry="2.5" style="stroke:#181818;stroke-width:0.5;" width="184" x="582.5" y="1786.7832"/><text fill="#000000" font-family="sans-serif" font-size="14" lengthAdjust="spacing" textLength="170" x="589.5" y="1808.8906">:BookingRequestController</text><rect fill="#E3E3E3" height="32.6211" rx="2.5" ry="2.5" style="stroke:#181818;stroke-width:0.5;" width="97" x="1090" y="50"/><text fill="#000000" font-family="sans-serif" font-size="14" lengthAdjust="spacing" textLength="83" x="1097" y="72.1074">:Repositories</text><rect fill="#E3E3E3" height="32.6211" rx="2.5" ry="2.5" style="stroke:#181818;stroke-width:0.5;" width="97" x="1090" y="1786.7832"/><text fill="#000000" font-family="sans-serif" font-size="14" lengthAdjust="spacing" textLength="83" x="1097" y="1808.8906">:Repositories</text><rect fill="#E3E3E3" height="51.2422" rx="2.5" ry="2.5" style="stroke:#181818;stroke-width:0.5;" width="93" x="1197" y="31.3789"/><text fill="#000000" font-family="sans-serif" font-size="14" lengthAdjust="spacing" textLength="78" x="1204.5" y="53.4863">repositories:</text><text fill="#000000" font-family="sans-serif" font-size="14" lengthAdjust="spacing" textLength="79" x="1204" y="72.1074">Repositories</text><rect fill="#E3E3E3" height="51.2422" rx="2.5" ry="2.5" style="stroke:#181818;stroke-width:0.5;" width="93" x="1197" y="1786.7832"/><text fill="#000000" font-family="sans-serif" font-size="14" lengthAdjust="spacing" textLength="78" x="1204.5" y="1808.8906">repositories:</text><text fill="#000000" font-family="sans-serif" font-size="14" lengthAdjust="spacing" textLength="79" x="1204" y="1827.5117">Repositories</text><rect fill="#E3E3E3" height="51.2422" rx="2.5" ry="2.5" style="stroke:#181818;stroke-width:0.5;" width="189" x="1300" y="31.3789"/><text fill="#000000" font-family="sans-serif" font-size="14" lengthAdjust="spacing" textLength="175" x="1307" y="53.4863">bookingRequestRepository:</text><text fill="#000000" font-family="sans-serif" font-size="14" lengthAdjust="spacing" textLength="172" x="1308.5" y="72.1074">BookingRequestRepository</text><rect fill="#E3E3E3" height="51.2422" rx="2.5" ry="2.5" style="stroke:#181818;stroke-width:0.5;" width="189" x="1300" y="1786.7832"/><text fill="#000000" font-family="sans-serif" font-size="14" lengthAdjust="spacing" textLength="175" x="1307" y="1808.8906">bookingRequestRepository:</text><text fill="#000000" font-family="sans-serif" font-size="14" lengthAdjust="spacing" textLength="172" x="1308.5" y="1827.5117">BookingRequestRepository</text><rect fill="#E3E3E3" height="51.2422" rx="2.5" ry="2.5" style="stroke:#181818;stroke-width:0.5;" width="110" x="1499" y="31.3789"/><text fill="#000000" font-family="sans-serif" font-size="14" lengthAdjust="spacing" textLength="96" x="1506" y="53.4863">visitRepository:</text><text fill="#000000" font-family="sans-serif" font-size="14" lengthAdjust="spacing" textLength="94" x="1507" y="72.1074">VisitRepository</text><rect fill="#E3E3E3" height="51.2422" rx="2.5" ry="2.5" style="stroke:#181818;stroke-width:0.5;" width="110" x="1499" y="1786.7832"/><text fill="#000000" font-family="sans-serif" font-size="14" lengthAdjust="spacing" textLength="96" x="1506" y="1808.8906">visitRepository:</text><text fill="#000000" font-family="sans-serif" font-size="14" lengthAdjust="spacing" textLength="94" x="1507" y="1827.5117">VisitRepository</text><rect fill="#E3E3E3" height="51.2422" rx="2.5" ry="2.5" style="stroke:#181818;stroke-width:0.5;" width="139" x="1619" y="31.3789"/><text fill="#000000" font-family="sans-serif" font-size="14" lengthAdjust="spacing" textLength="125" x="1626" y="53.4863">propertyRepository:</text><text fill="#000000" font-family="sans-serif" font-size="14" lengthAdjust="spacing" textLength="122" x="1627.5" y="72.1074">PropertyRepository</text><rect fill="#E3E3E3" height="51.2422" rx="2.5" ry="2.5" style="stroke:#181818;stroke-width:0.5;" width="139" x="1619" y="1786.7832"/><text fill="#000000" font-family="sans-serif" font-size="14" lengthAdjust="spacing" textLength="125" x="1626" y="1808.8906">propertyRepository:</text><text fill="#000000" font-family="sans-serif" font-size="14" lengthAdjust="spacing" textLength="122" x="1627.5" y="1827.5117">PropertyRepository</text><rect fill="#E3E3E3" height="32.6211" rx="2.5" ry="2.5" style="stroke:#181818;stroke-width:0.5;" width="137" x="1768" y="50"/><text fill="#000000" font-family="sans-serif" font-size="14" lengthAdjust="spacing" textLength="123" x="1775" y="72.1074">:ApplicationSession</text><rect fill="#E3E3E3" height="32.6211" rx="2.5" ry="2.5" style="stroke:#181818;stroke-width:0.5;" width="137" x="1768" y="1786.7832"/><text fill="#000000" font-family="sans-serif" font-size="14" lengthAdjust="spacing" textLength="123" x="1775" y="1808.8906">:ApplicationSession</text><rect fill="#E3E3E3" height="51.2422" rx="2.5" ry="2.5" style="stroke:#181818;stroke-width:0.5;" width="137" x="1915" y="31.3789"/><text fill="#000000" font-family="sans-serif" font-size="14" lengthAdjust="spacing" textLength="74" x="1946.5" y="53.4863">appSession</text><text fill="#000000" font-family="sans-serif" font-size="14" lengthAdjust="spacing" textLength="123" x="1922" y="72.1074">:ApplicationSession</text><rect fill="#E3E3E3" height="51.2422" rx="2.5" ry="2.5" style="stroke:#181818;stroke-width:0.5;" width="137" x="1915" y="1786.7832"/><text fill="#000000" font-family="sans-serif" font-size="14" lengthAdjust="spacing" textLength="74" x="1946.5" y="1808.8906">appSession</text><text fill="#000000" font-family="sans-serif" font-size="14" lengthAdjust="spacing" textLength="123" x="1922" y="1827.5117">:ApplicationSession</text><rect fill="#E3E3E3" height="51.2422" rx="2.5" ry="2.5" style="stroke:#181818;stroke-width:0.5;" width="109" x="2062" y="31.3789"/><text fill="#000000" font-family="sans-serif" font-size="14" lengthAdjust="spacing" textLength="95" x="2069" y="53.4863">currentSession</text><text fill="#000000" font-family="sans-serif" font-size="14" lengthAdjust="spacing" textLength="83" x="2075" y="72.1074">:UserSession</text><rect fill="#E3E3E3" height="51.2422" rx="2.5" ry="2.5" style="stroke:#181818;stroke-width:0.5;" width="109" x="2062" y="1786.7832"/><text fill="#000000" font-family="sans-serif" font-size="14" lengthAdjust="spacing" textLength="95" x="2069" y="1808.8906">currentSession</text><text fill="#000000" font-family="sans-serif" font-size="14" lengthAdjust="spacing" textLength="83" x="2075" y="1827.5117">:UserSession</text><rect fill="#FFFFFF" height="1684.1621" style="stroke:#181818;stroke-width:1.0;" width="10" x="46.5" y="93.6211"/><rect fill="#FFFFFF" height="243.0371" style="stroke:#181818;stroke-width:1.0;" width="10" x="468.5" y="116.9121"/><rect fill="#FFFFFF" height="1361.252" style="stroke:#181818;stroke-width:1.0;" width="10" x="468.5" y="417.5313"/><rect fill="#FFFFFF" height="891.5371" style="stroke:#181818;stroke-width:1.0;" width="10" x="473.5" y="705.8203"/><rect fill="#FFFFFF" height="31.291" style="stroke:#181818;stroke-width:1.0;" width="10" x="473.5" y="1645.2793"/><rect fill="#FFFFFF" height="31.291" style="stroke:#181818;stroke-width:1.0;" width="10" x="473.5" y="1731.4922"/><rect fill="#FFFFFF" height="170.4551" style="stroke:#181818;stroke-width:1.0;" width="10" x="669.5" y="158.2031"/><rect fill="#FFFFFF" height="90.543" style="stroke:#181818;stroke-width:1.0;" width="10" x="674.5" y="199.8242"/><rect fill="#FFFFFF" height="168.125" style="stroke:#181818;stroke-width:1.0;" width="10" x="669.5" y="448.8223"/><rect fill="#FFFFFF" height="90.543" style="stroke:#181818;stroke-width:1.0;" width="10" x="674.5" y="488.1133"/><rect fill="#FFFFFF" height="828.9551" style="stroke:#181818;stroke-width:1.0;" width="10" x="669.5" y="737.1113"/><rect fill="#FFFFFF" height="90.543" style="stroke:#181818;stroke-width:1.0;" width="10" x="674.5" y="776.4023"/><rect fill="#FFFFFF" height="90.543" style="stroke:#181818;stroke-width:1.0;" width="10" x="674.5" y="913.2363"/><rect fill="#FFFFFF" height="130.873" style="stroke:#181818;stroke-width:1.0;" width="10" x="674.5" y="1286.0684"/><rect fill="#FFFFFF" height="42.291" style="stroke:#181818;stroke-width:1.0;" width="10" x="679.5" y="1330.3594"/><rect fill="#FFFFFF" height="31.291" style="stroke:#181818;stroke-width:1.0;" width="10" x="1133.5" y="1042.0703"/><rect fill="#FFFFFF" height="31.291" style="stroke:#181818;stroke-width:1.0;" width="10" x="1238.5" y="1104.6523"/><rect fill="#FFFFFF" height="79.543" style="stroke:#181818;stroke-width:1.0;" width="10" x="1389.5" y="1455.2324"/><rect fill="#FFFFFF" height="79.543" style="stroke:#181818;stroke-width:1.0;" width="10" x="1549" y="1167.2344"/><polygon fill="#181818" points="456.5,112.9121,466.5,116.9121,456.5,120.9121,460.5,116.9121" style="stroke:#181818;stroke-width:1.0;"/><line style="stroke:#181818;stroke-width:1.0;" x1="56.5" x2="462.5" y1="116.9121" y2="116.9121"/><text fill="#000000" font-family="sans-serif" font-size="13" font-weight="bold" lengthAdjust="spacing" textLength="7" x="63.5" y="111.6494">1</text><text fill="#000000" font-family="sans-serif" font-size="13" lengthAdjust="spacing" textLength="160" x="74.5" y="111.6494">selects the booking request</text><polygon fill="#181818" points="570.5,144.2031,580.5,148.2031,570.5,152.2031,574.5,148.2031" style="stroke:#181818;stroke-width:1.0;"/><line style="stroke:#181818;stroke-width:1.0;" x1="478.5" x2="576.5" y1="148.2031" y2="148.2031"/><text fill="#000000" font-family="sans-serif" font-size="13" font-weight="bold" lengthAdjust="spacing" textLength="7" x="485.5" y="142.9404">2</text><text fill="#000000" font-family="sans-serif" font-size="13" lengthAdjust="spacing" textLength="36" x="496.5" y="142.9404">create</text><rect fill="#E3E3E3" height="32.6211" rx="2.5" ry="2.5" style="stroke:#181818;stroke-width:0.5;" width="184" x="582.5" y="124.9121"/><text fill="#000000" font-family="sans-serif" font-size="14" lengthAdjust="spacing" textLength="170" x="589.5" y="147.0195">:BookingRequestController</text><line style="stroke:#181818;stroke-width:1.0;" x1="679.5" x2="726.5" y1="186.8242" y2="186.8242"/><line style="stroke:#181818;stroke-width:1.0;" x1="726.5" x2="726.5" y1="186.8242" y2="199.8242"/><line style="stroke:#181818;stroke-width:1.0;" x1="685.5" x2="726.5" y1="199.8242" y2="199.8242"/><polygon fill="#181818" points="695.5,195.8242,685.5,199.8242,695.5,203.8242,691.5,199.8242" style="stroke:#181818;stroke-width:1.0;"/><text fill="#000000" font-family="sans-serif" font-size="13" font-weight="bold" lengthAdjust="spacing" textLength="7" x="691.5" y="181.5615">3</text><text fill="#000000" font-family="sans-serif" font-size="13" lengthAdjust="spacing" textLength="121" x="702.5" y="181.5615">getBookingRequest()</text><rect fill="none" height="43.252" style="stroke:#000000;stroke-width:1.5;" width="190" x="579.5" y="212.8242"/><path d="M579.5,212.8242 L641.5,212.8242 L641.5,221.8242 L631.5,231.8242 L579.5,231.8242 L579.5,212.8242 " fill="#EEEEEE" style="stroke:#000000;stroke-width:2.0;"/><text fill="#000000" font-family="sans-serif" font-size="13" font-weight="bold" lengthAdjust="spacing" textLength="17" x="592.5" y="228.8525">ref</text><text fill="#000000" font-family="sans-serif" font-size="12" lengthAdjust="spacing" textLength="182" x="583.5" y="248.7734">Get Booking Request Information</text><line style="stroke:#181818;stroke-width:1.0;stroke-dasharray:2.0,2.0;" x1="684.5" x2="726.5" y1="289.3672" y2="289.3672"/><line style="stroke:#181818;stroke-width:1.0;stroke-dasharray:2.0,2.0;" x1="726.5" x2="726.5" y1="289.3672" y2="302.3672"/><line style="stroke:#181818;stroke-width:1.0;stroke-dasharray:2.0,2.0;" x1="679.5" x2="726.5" y1="302.3672" y2="302.3672"/><polygon fill="#181818" points="689.5,298.3672,679.5,302.3672,689.5,306.3672,685.5,302.3672" style="stroke:#181818;stroke-width:1.0;"/><text fill="#000000" font-family="sans-serif" font-size="13" font-weight="bold" lengthAdjust="spacing" textLength="7" x="691.5" y="284.1045">4</text><text fill="#000000" font-family="sans-serif" font-size="13" lengthAdjust="spacing" textLength="4" x="702.5" y="284.1045">&#160;</text><polygon fill="#181818" points="489.5,324.6582,479.5,328.6582,489.5,332.6582,485.5,328.6582" style="stroke:#181818;stroke-width:1.0;"/><line style="stroke:#181818;stroke-width:1.0;stroke-dasharray:2.0,2.0;" x1="483.5" x2="673.5" y1="328.6582" y2="328.6582"/><text fill="#000000" font-family="sans-serif" font-size="13" font-weight="bold" lengthAdjust="spacing" textLength="7" x="495.5" y="323.3955">5</text><text fill="#000000" font-family="sans-serif" font-size="13" lengthAdjust="spacing" textLength="156" x="506.5" y="323.3955">bookingRequestInformation</text><polygon fill="#181818" points="67.5,355.9492,57.5,359.9492,67.5,363.9492,63.5,359.9492" style="stroke:#181818;stroke-width:1.0;"/><line style="stroke:#181818;stroke-width:1.0;stroke-dasharray:2.0,2.0;" x1="61.5" x2="472.5" y1="359.9492" y2="359.9492"/><text fill="#000000" font-family="sans-serif" font-size="13" font-weight="bold" lengthAdjust="spacing" textLength="7" x="73.5" y="354.6865">6</text><text fill="#000000" font-family="sans-serif" font-size="13" lengthAdjust="spacing" textLength="365" x="84.5" y="354.6865">displays booking request information and asks for the response</text><path d="M10,374.9492 L75,374.9492 L75,384.2402 L65,394.2402 L10,394.2402 L10,374.9492 " fill="#EEEEEE" style="stroke:#000000;stroke-width:1.5;"/><rect fill="none" height="1395.834" style="stroke:#000000;stroke-width:1.5;" width="1619" x="10" y="374.9492"/><text fill="#000000" font-family="sans-serif" font-size="13" font-weight="bold" lengthAdjust="spacing" textLength="20" x="25" y="389.9775">opt</text><text fill="#000000" font-family="sans-serif" font-size="11" font-weight="bold" lengthAdjust="spacing" textLength="62" x="90" y="388.8193">[responds]</text><polygon fill="#181818" points="456.5,413.5313,466.5,417.5313,456.5,421.5313,460.5,417.5313" style="stroke:#181818;stroke-width:1.0;"/><line style="stroke:#181818;stroke-width:1.0;" x1="56.5" x2="462.5" y1="417.5313" y2="417.5313"/><text fill="#000000" font-family="sans-serif" font-size="13" font-weight="bold" lengthAdjust="spacing" textLength="7" x="63.5" y="412.2686">7</text><text fill="#000000" font-family="sans-serif" font-size="13" lengthAdjust="spacing" textLength="125" x="74.5" y="412.2686">submits the response</text><polygon fill="#181818" points="657.5,444.8223,667.5,448.8223,657.5,452.8223,661.5,448.8223" style="stroke:#181818;stroke-width:1.0;"/><line style="stroke:#181818;stroke-width:1.0;" x1="478.5" x2="663.5" y1="448.8223" y2="448.8223"/><text fill="#000000" font-family="sans-serif" font-size="13" font-weight="bold" lengthAdjust="spacing" textLength="7" x="485.5" y="443.5596">8</text><text fill="#000000" font-family="sans-serif" font-size="13" lengthAdjust="spacing" textLength="53" x="496.5" y="443.5596">response</text><line style="stroke:#181818;stroke-width:1.0;" x1="679.5" x2="726.5" y1="475.1133" y2="475.1133"/><line style="stroke:#181818;stroke-width:1.0;" x1="726.5" x2="726.5" y1="475.1133" y2="488.1133"/><line style="stroke:#181818;stroke-width:1.0;" x1="685.5" x2="726.5" y1="488.1133" y2="488.1133"/><polygon fill="#181818" points="695.5,484.1133,685.5,488.1133,695.5,492.1133,691.5,488.1133" style="stroke:#181818;stroke-width:1.0;"/><text fill="#000000" font-family="sans-serif" font-size="13" font-weight="bold" lengthAdjust="spacing" textLength="7" x="691.5" y="469.8506">9</text><text fill="#000000" font-family="sans-serif" font-size="13" lengthAdjust="spacing" textLength="124" x="702.5" y="469.8506">getPropertyLocation()</text><rect fill="none" height="43.252" style="stroke:#000000;stroke-width:1.5;" width="190" x="579.5" y="501.1133"/><path d="M579.5,501.1133 L641.5,501.1133 L641.5,510.1133 L631.5,520.1133 L579.5,520.1133 L579.5,501.1133 " fill="#EEEEEE" style="stroke:#000000;stroke-width:2.0;"/><text fill="#000000" font-family="sans-serif" font-size="13" font-weight="bold" lengthAdjust="spacing" textLength="17" x="592.5" y="517.1416">ref</text><text fill="#000000" font-family="sans-serif" font-size="12" lengthAdjust="spacing" textLength="117" x="616" y="537.0625">Get Property Location</text><line style="stroke:#181818;stroke-width:1.0;stroke-dasharray:2.0,2.0;" x1="684.5" x2="726.5" y1="577.6563" y2="577.6563"/><line style="stroke:#181818;stroke-width:1.0;stroke-dasharray:2.0,2.0;" x1="726.5" x2="726.5" y1="577.6563" y2="590.6563"/><line style="stroke:#181818;stroke-width:1.0;stroke-dasharray:2.0,2.0;" x1="679.5" x2="726.5" y1="590.6563" y2="590.6563"/><polygon fill="#181818" points="689.5,586.6563,679.5,590.6563,689.5,594.6563,685.5,590.6563" style="stroke:#181818;stroke-width:1.0;"/><text fill="#000000" font-family="sans-serif" font-size="13" font-weight="bold" lengthAdjust="spacing" textLength="14" x="691.5" y="572.3936">10</text><text fill="#000000" font-family="sans-serif" font-size="13" lengthAdjust="spacing" textLength="4" x="709.5" y="572.3936">&#160;</text><polygon fill="#181818" points="489.5,612.9473,479.5,616.9473,489.5,620.9473,485.5,616.9473" style="stroke:#181818;stroke-width:1.0;"/><line style="stroke:#181818;stroke-width:1.0;stroke-dasharray:2.0,2.0;" x1="483.5" x2="673.5" y1="616.9473" y2="616.9473"/><text fill="#000000" font-family="sans-serif" font-size="13" font-weight="bold" lengthAdjust="spacing" textLength="14" x="495.5" y="611.6846">11</text><text fill="#000000" font-family="sans-serif" font-size="13" lengthAdjust="spacing" textLength="96" x="513.5" y="611.6846">propertyLocation</text><polygon fill="#181818" points="67.5,644.2383,57.5,648.2383,67.5,652.2383,63.5,648.2383" style="stroke:#181818;stroke-width:1.0;"/><line style="stroke:#181818;stroke-width:1.0;stroke-dasharray:2.0,2.0;" x1="61.5" x2="467.5" y1="648.2383" y2="648.2383"/><text fill="#000000" font-family="sans-serif" font-size="13" font-weight="bold" lengthAdjust="spacing" textLength="14" x="73.5" y="642.9756">12</text><text fill="#000000" font-family="sans-serif" font-size="13" lengthAdjust="spacing" textLength="370" x="91.5" y="642.9756">shows data(response, propertyLocation) and asks for verification</text><path d="M20,663.2383 L85,663.2383 L85,672.5293 L75,682.5293 L20,682.5293 L20,663.2383 " fill="#EEEEEE" style="stroke:#000000;stroke-width:1.5;"/><rect fill="none" height="1021.332" style="stroke:#000000;stroke-width:1.5;" width="1599" x="20" y="663.2383"/><text fill="#000000" font-family="sans-serif" font-size="13" font-weight="bold" lengthAdjust="spacing" textLength="20" x="35" y="678.2666">opt</text><text fill="#000000" font-family="sans-serif" font-size="11" font-weight="bold" lengthAdjust="spacing" textLength="50" x="100" y="677.1084">[verifies]</text><polygon fill="#181818" points="461.5,701.8203,471.5,705.8203,461.5,709.8203,465.5,705.8203" style="stroke:#181818;stroke-width:1.0;"/><line style="stroke:#181818;stroke-width:1.0;" x1="56.5" x2="467.5" y1="705.8203" y2="705.8203"/><text fill="#000000" font-family="sans-serif" font-size="13" font-weight="bold" lengthAdjust="spacing" textLength="14" x="63.5" y="700.5576">13</text><text fill="#000000" font-family="sans-serif" font-size="13" lengthAdjust="spacing" textLength="39" x="81.5" y="700.5576">verifies</text><polygon fill="#181818" points="657.5,733.1113,667.5,737.1113,657.5,741.1113,661.5,737.1113" style="stroke:#181818;stroke-width:1.0;"/><line style="stroke:#181818;stroke-width:1.0;" x1="483.5" x2="663.5" y1="737.1113" y2="737.1113"/><text fill="#000000" font-family="sans-serif" font-size="13" font-weight="bold" lengthAdjust="spacing" textLength="14" x="490.5" y="731.8486">14</text><text fill="#000000" font-family="sans-serif" font-size="13" lengthAdjust="spacing" textLength="70" x="508.5" y="731.8486">createVisit()</text><line style="stroke:#181818;stroke-width:1.0;" x1="679.5" x2="726.5" y1="763.4023" y2="763.4023"/><line style="stroke:#181818;stroke-width:1.0;" x1="726.5" x2="726.5" y1="763.4023" y2="776.4023"/><line style="stroke:#181818;stroke-width:1.0;" x1="685.5" x2="726.5" y1="776.4023" y2="776.4023"/><polygon fill="#181818" points="695.5,772.4023,685.5,776.4023,695.5,780.4023,691.5,776.4023" style="stroke:#181818;stroke-width:1.0;"/><text fill="#000000" font-family="sans-serif" font-size="13" font-weight="bold" lengthAdjust="spacing" textLength="14" x="691.5" y="758.1396">15</text><text fill="#000000" font-family="sans-serif" font-size="13" lengthAdjust="spacing" textLength="171" x="709.5" y="758.1396">getAgentNameFromSession()</text><rect fill="none" height="43.252" style="stroke:#000000;stroke-width:1.5;" width="190" x="579.5" y="789.4023"/><path d="M579.5,789.4023 L641.5,789.4023 L641.5,798.4023 L631.5,808.4023 L579.5,808.4023 L579.5,789.4023 " fill="#EEEEEE" style="stroke:#000000;stroke-width:2.0;"/><text fill="#000000" font-family="sans-serif" font-size="13" font-weight="bold" lengthAdjust="spacing" textLength="17" x="592.5" y="805.4307">ref</text><text fill="#000000" font-family="sans-serif" font-size="12" lengthAdjust="spacing" textLength="90" x="629.5" y="825.3516">Get Agent Name</text><line style="stroke:#181818;stroke-width:1.0;" x1="684.5" x2="726.5" y1="865.9453" y2="865.9453"/><line style="stroke:#181818;stroke-width:1.0;" x1="726.5" x2="726.5" y1="865.9453" y2="878.9453"/><line style="stroke:#181818;stroke-width:1.0;" x1="679.5" x2="726.5" y1="878.9453" y2="878.9453"/><polygon fill="#181818" points="689.5,874.9453,679.5,878.9453,689.5,882.9453,685.5,878.9453" style="stroke:#181818;stroke-width:1.0;"/><text fill="#000000" font-family="sans-serif" font-size="13" font-weight="bold" lengthAdjust="spacing" textLength="14" x="691.5" y="860.6826">16</text><text fill="#000000" font-family="sans-serif" font-size="13" lengthAdjust="spacing" textLength="66" x="709.5" y="860.6826">agentName</text><line style="stroke:#181818;stroke-width:1.0;" x1="679.5" x2="726.5" y1="900.2363" y2="900.2363"/><line style="stroke:#181818;stroke-width:1.0;" x1="726.5" x2="726.5" y1="900.2363" y2="913.2363"/><line style="stroke:#181818;stroke-width:1.0;" x1="685.5" x2="726.5" y1="913.2363" y2="913.2363"/><polygon fill="#181818" points="695.5,909.2363,685.5,913.2363,695.5,917.2363,691.5,913.2363" style="stroke:#181818;stroke-width:1.0;"/><text fill="#000000" font-family="sans-serif" font-size="13" font-weight="bold" lengthAdjust="spacing" textLength="14" x="691.5" y="894.9736">17</text><text fill="#000000" font-family="sans-serif" font-size="13" lengthAdjust="spacing" textLength="219" x="709.5" y="894.9736">getAgentPhoneNumberFromSession()</text><rect fill="none" height="43.252" style="stroke:#000000;stroke-width:1.5;" width="190" x="579.5" y="926.2363"/><path d="M579.5,926.2363 L641.5,926.2363 L641.5,935.2363 L631.5,945.2363 L579.5,945.2363 L579.5,926.2363 " fill="#EEEEEE" style="stroke:#000000;stroke-width:2.0;"/><text fill="#000000" font-family="sans-serif" font-size="13" font-weight="bold" lengthAdjust="spacing" textLength="17" x="592.5" y="942.2646">ref</text><text fill="#000000" font-family="sans-serif" font-size="12" lengthAdjust="spacing" textLength="140" x="604.5" y="962.1855">Get Agent Phone Number</text><line style="stroke:#181818;stroke-width:1.0;" x1="684.5" x2="726.5" y1="1002.7793" y2="1002.7793"/><line style="stroke:#181818;stroke-width:1.0;" x1="726.5" x2="726.5" y1="1002.7793" y2="1015.7793"/><line style="stroke:#181818;stroke-width:1.0;" x1="679.5" x2="726.5" y1="1015.7793" y2="1015.7793"/><polygon fill="#181818" points="689.5,1011.7793,679.5,1015.7793,689.5,1019.7793,685.5,1015.7793" style="stroke:#181818;stroke-width:1.0;"/><text fill="#000000" font-family="sans-serif" font-size="13" font-weight="bold" lengthAdjust="spacing" textLength="14" x="691.5" y="997.5166">18</text><text fill="#000000" font-family="sans-serif" font-size="13" lengthAdjust="spacing" textLength="114" x="709.5" y="997.5166">agentPhoneNumber</text><polygon fill="#181818" points="1121.5,1038.0703,1131.5,1042.0703,1121.5,1046.0703,1125.5,1042.0703" style="stroke:#181818;stroke-width:1.0;"/><line style="stroke:#181818;stroke-width:1.0;" x1="679.5" x2="1127.5" y1="1042.0703" y2="1042.0703"/><text fill="#000000" font-family="sans-serif" font-size="13" font-weight="bold" lengthAdjust="spacing" textLength="14" x="686.5" y="1036.8076">19</text><text fill="#000000" font-family="sans-serif" font-size="13" lengthAdjust="spacing" textLength="75" x="704.5" y="1036.8076">getInstance()</text><polygon fill="#181818" points="690.5,1069.3613,680.5,1073.3613,690.5,1077.3613,686.5,1073.3613" style="stroke:#181818;stroke-width:1.0;"/><line style="stroke:#181818;stroke-width:1.0;stroke-dasharray:2.0,2.0;" x1="684.5" x2="1137.5" y1="1073.3613" y2="1073.3613"/><text fill="#000000" font-family="sans-serif" font-size="13" font-weight="bold" lengthAdjust="spacing" textLength="14" x="696.5" y="1068.0986">20</text><text fill="#000000" font-family="sans-serif" font-size="13" lengthAdjust="spacing" textLength="67" x="714.5" y="1068.0986">repositories</text><polygon fill="#181818" points="1226.5,1100.6523,1236.5,1104.6523,1226.5,1108.6523,1230.5,1104.6523" style="stroke:#181818;stroke-width:1.0;"/><line style="stroke:#181818;stroke-width:1.0;" x1="679.5" x2="1232.5" y1="1104.6523" y2="1104.6523"/><text fill="#000000" font-family="sans-serif" font-size="13" font-weight="bold" lengthAdjust="spacing" textLength="14" x="686.5" y="1099.3896">21</text><text fill="#000000" font-family="sans-serif" font-size="13" lengthAdjust="spacing" textLength="114" x="704.5" y="1099.3896">getVisitRepository()</text><polygon fill="#181818" points="690.5,1131.9434,680.5,1135.9434,690.5,1139.9434,686.5,1135.9434" style="stroke:#181818;stroke-width:1.0;"/><line style="stroke:#181818;stroke-width:1.0;stroke-dasharray:2.0,2.0;" x1="684.5" x2="1242.5" y1="1135.9434" y2="1135.9434"/><text fill="#000000" font-family="sans-serif" font-size="13" font-weight="bold" lengthAdjust="spacing" textLength="14" x="696.5" y="1130.6807">22</text><text fill="#000000" font-family="sans-serif" font-size="13" lengthAdjust="spacing" textLength="88" x="714.5" y="1130.6807">VisitRepository</text><polygon fill="#181818" points="1537,1163.2344,1547,1167.2344,1537,1171.2344,1541,1167.2344" style="stroke:#181818;stroke-width:1.0;"/><line style="stroke:#181818;stroke-width:1.0;" x1="679.5" x2="1543" y1="1167.2344" y2="1167.2344"/><text fill="#000000" font-family="sans-serif" font-size="13" font-weight="bold" lengthAdjust="spacing" textLength="14" x="686.5" y="1161.9717">23</text><text fill="#000000" font-family="sans-serif" font-size="13" lengthAdjust="spacing" textLength="119" x="704.5" y="1161.9717">createVisit(visitDate)</text><rect fill="none" height="43.252" style="stroke:#000000;stroke-width:1.5;" width="116" x="1496" y="1175.2344"/><path d="M1496,1175.2344 L1558,1175.2344 L1558,1184.2344 L1548,1194.2344 L1496,1194.2344 L1496,1175.2344 " fill="#EEEEEE" style="stroke:#000000;stroke-width:2.0;"/><text fill="#000000" font-family="sans-serif" font-size="13" font-weight="bold" lengthAdjust="spacing" textLength="17" x="1509" y="1191.2627">ref</text><text fill="#000000" font-family="sans-serif" font-size="12" lengthAdjust="spacing" textLength="63" x="1522.5" y="1211.1836">Create Visit</text><polygon fill="#181818" points="690.5,1242.7773,680.5,1246.7773,690.5,1250.7773,686.5,1246.7773" style="stroke:#181818;stroke-width:1.0;"/><line style="stroke:#181818;stroke-width:1.0;stroke-dasharray:2.0,2.0;" x1="684.5" x2="1553" y1="1246.7773" y2="1246.7773"/><text fill="#000000" font-family="sans-serif" font-size="13" font-weight="bold" lengthAdjust="spacing" textLength="14" x="696.5" y="1241.5146">24</text><text fill="#000000" font-family="sans-serif" font-size="13" lengthAdjust="spacing" textLength="22" x="714.5" y="1241.5146">visit</text><line style="stroke:#181818;stroke-width:1.0;" x1="679.5" x2="726.5" y1="1273.0684" y2="1273.0684"/><line style="stroke:#181818;stroke-width:1.0;" x1="726.5" x2="726.5" y1="1273.0684" y2="1286.0684"/><line style="stroke:#181818;stroke-width:1.0;" x1="685.5" x2="726.5" y1="1286.0684" y2="1286.0684"/><polygon fill="#181818" points="695.5,1282.0684,685.5,1286.0684,695.5,1290.0684,691.5,1286.0684" style="stroke:#181818;stroke-width:1.0;"/><text fill="#000000" font-family="sans-serif" font-size="13" font-weight="bold" lengthAdjust="spacing" textLength="14" x="691.5" y="1267.8057">25</text><text fill="#000000" font-family="sans-serif" font-size="13" lengthAdjust="spacing" textLength="422" x="709.5" y="1267.8057">sendEmail(agentName, agentPhoneNumber, propertyLocation, response)</text><line style="stroke:#181818;stroke-width:1.0;" x1="684.5" x2="731.5" y1="1317.3594" y2="1317.3594"/><line style="stroke:#181818;stroke-width:1.0;" x1="731.5" x2="731.5" y1="1317.3594" y2="1330.3594"/><line style="stroke:#181818;stroke-width:1.0;" x1="690.5" x2="731.5" y1="1330.3594" y2="1330.3594"/><polygon fill="#181818" points="700.5,1326.3594,690.5,1330.3594,700.5,1334.3594,696.5,1330.3594" style="stroke:#181818;stroke-width:1.0;"/><text fill="#000000" font-family="sans-serif" font-size="13" font-weight="bold" lengthAdjust="spacing" textLength="14" x="696.5" y="1312.0967">26</text><text fill="#000000" font-family="sans-serif" font-size="13" lengthAdjust="spacing" textLength="51" x="714.5" y="1312.0967">validate()</text><line style="stroke:#181818;stroke-width:1.0;stroke-dasharray:2.0,2.0;" x1="689.5" x2="731.5" y1="1371.6504" y2="1371.6504"/><line style="stroke:#181818;stroke-width:1.0;stroke-dasharray:2.0,2.0;" x1="731.5" x2="731.5" y1="1371.6504" y2="1384.6504"/><line style="stroke:#181818;stroke-width:1.0;stroke-dasharray:2.0,2.0;" x1="684.5" x2="731.5" y1="1384.6504" y2="1384.6504"/><polygon fill="#181818" points="694.5,1380.6504,684.5,1384.6504,694.5,1388.6504,690.5,1384.6504" style="stroke:#181818;stroke-width:1.0;"/><text fill="#000000" font-family="sans-serif" font-size="13" font-weight="bold" lengthAdjust="spacing" textLength="14" x="696.5" y="1366.3877">27</text><text fill="#000000" font-family="sans-serif" font-size="13" lengthAdjust="spacing" textLength="4" x="714.5" y="1366.3877">&#160;</text><line style="stroke:#181818;stroke-width:1.0;stroke-dasharray:2.0,2.0;" x1="684.5" x2="726.5" y1="1415.9414" y2="1415.9414"/><line style="stroke:#181818;stroke-width:1.0;stroke-dasharray:2.0,2.0;" x1="726.5" x2="726.5" y1="1415.9414" y2="1428.9414"/><line style="stroke:#181818;stroke-width:1.0;stroke-dasharray:2.0,2.0;" x1="679.5" x2="726.5" y1="1428.9414" y2="1428.9414"/><polygon fill="#181818" points="689.5,1424.9414,679.5,1428.9414,689.5,1432.9414,685.5,1428.9414" style="stroke:#181818;stroke-width:1.0;"/><text fill="#000000" font-family="sans-serif" font-size="13" font-weight="bold" lengthAdjust="spacing" textLength="14" x="691.5" y="1410.6787">28</text><text fill="#000000" font-family="sans-serif" font-size="13" lengthAdjust="spacing" textLength="4" x="709.5" y="1410.6787">&#160;</text><polygon fill="#181818" points="1377.5,1451.2324,1387.5,1455.2324,1377.5,1459.2324,1381.5,1455.2324" style="stroke:#181818;stroke-width:1.0;"/><line style="stroke:#181818;stroke-width:1.0;" x1="679.5" x2="1383.5" y1="1455.2324" y2="1455.2324"/><text fill="#000000" font-family="sans-serif" font-size="13" font-weight="bold" lengthAdjust="spacing" textLength="14" x="686.5" y="1449.9697">29</text><text fill="#000000" font-family="sans-serif" font-size="13" lengthAdjust="spacing" textLength="138" x="704.5" y="1449.9697">deleteBookingRequest()</text><rect fill="none" height="43.252" style="stroke:#000000;stroke-width:1.5;" width="195" x="1297" y="1463.2324"/><path d="M1297,1463.2324 L1359,1463.2324 L1359,1472.2324 L1349,1482.2324 L1297,1482.2324 L1297,1463.2324 " fill="#EEEEEE" style="stroke:#000000;stroke-width:2.0;"/><text fill="#000000" font-family="sans-serif" font-size="13" font-weight="bold" lengthAdjust="spacing" textLength="17" x="1310" y="1479.2607">ref</text><text fill="#000000" font-family="sans-serif" font-size="12" lengthAdjust="spacing" textLength="134" x="1327.5" y="1499.1816">Delete Booking Request</text><polygon fill="#181818" points="690.5,1530.7754,680.5,1534.7754,690.5,1538.7754,686.5,1534.7754" style="stroke:#181818;stroke-width:1.0;"/><line style="stroke:#181818;stroke-width:1.0;stroke-dasharray:2.0,2.0;" x1="684.5" x2="1393.5" y1="1534.7754" y2="1534.7754"/><text fill="#000000" font-family="sans-serif" font-size="13" font-weight="bold" lengthAdjust="spacing" textLength="14" x="696.5" y="1529.5127">30</text><text fill="#000000" font-family="sans-serif" font-size="13" lengthAdjust="spacing" textLength="42" x="714.5" y="1529.5127">deleted</text><polygon fill="#181818" points="494.5,1562.0664,484.5,1566.0664,494.5,1570.0664,490.5,1566.0664" style="stroke:#181818;stroke-width:1.0;"/><line style="stroke:#181818;stroke-width:1.0;stroke-dasharray:2.0,2.0;" x1="488.5" x2="673.5" y1="1566.0664" y2="1566.0664"/><text fill="#000000" font-family="sans-serif" font-size="13" font-weight="bold" lengthAdjust="spacing" textLength="14" x="500.5" y="1560.8037">31</text><text fill="#000000" font-family="sans-serif" font-size="13" lengthAdjust="spacing" textLength="49" x="518.5" y="1560.8037">success</text><polygon fill="#181818" points="67.5,1593.3574,57.5,1597.3574,67.5,1601.3574,63.5,1597.3574" style="stroke:#181818;stroke-width:1.0;"/><line style="stroke:#181818;stroke-width:1.0;stroke-dasharray:2.0,2.0;" x1="61.5" x2="467.5" y1="1597.3574" y2="1597.3574"/><text fill="#000000" font-family="sans-serif" font-size="13" font-weight="bold" lengthAdjust="spacing" textLength="14" x="73.5" y="1592.0947">32</text><text fill="#000000" font-family="sans-serif" font-size="13" lengthAdjust="spacing" textLength="147" x="91.5" y="1592.0947">shows operation success</text><line style="stroke:#000000;stroke-width:1.0;stroke-dasharray:2.0,2.0;" x1="20" x2="1619" y1="1606.3574" y2="1606.3574"/><text fill="#000000" font-family="sans-serif" font-size="11" font-weight="bold" lengthAdjust="spacing" textLength="50" x="25" y="1618.2275">[cancels]</text><polygon fill="#181818" points="461.5,1641.2793,471.5,1645.2793,461.5,1649.2793,465.5,1645.2793" style="stroke:#181818;stroke-width:1.0;"/><line style="stroke:#181818;stroke-width:1.0;" x1="56.5" x2="467.5" y1="1645.2793" y2="1645.2793"/><text fill="#000000" font-family="sans-serif" font-size="13" font-weight="bold" lengthAdjust="spacing" textLength="14" x="63.5" y="1640.0166">33</text><text fill="#000000" font-family="sans-serif" font-size="13" lengthAdjust="spacing" textLength="45" x="81.5" y="1640.0166">cancels</text><polygon fill="#181818" points="67.5,1672.5703,57.5,1676.5703,67.5,1680.5703,63.5,1676.5703" style="stroke:#181818;stroke-width:1.0;"/><line style="stroke:#181818;stroke-width:1.0;stroke-dasharray:2.0,2.0;" x1="61.5" x2="467.5" y1="1676.5703" y2="1676.5703"/><text fill="#000000" font-family="sans-serif" font-size="13" font-weight="bold" lengthAdjust="spacing" textLength="14" x="73.5" y="1671.3076">34</text><text fill="#000000" font-family="sans-serif" font-size="13" lengthAdjust="spacing" textLength="199" x="91.5" y="1671.3076">goes back to booking requests list</text><line style="stroke:#000000;stroke-width:1.0;stroke-dasharray:2.0,2.0;" x1="10" x2="1629" y1="1692.5703" y2="1692.5703"/><text fill="#000000" font-family="sans-serif" font-size="11" font-weight="bold" lengthAdjust="spacing" textLength="51" x="15" y="1704.4404">[go back]</text><polygon fill="#181818" points="461.5,1727.4922,471.5,1731.4922,461.5,1735.4922,465.5,1731.4922" style="stroke:#181818;stroke-width:1.0;"/><line style="stroke:#181818;stroke-width:1.0;" x1="56.5" x2="467.5" y1="1731.4922" y2="1731.4922"/><text fill="#000000" font-family="sans-serif" font-size="13" font-weight="bold" lengthAdjust="spacing" textLength="14" x="63.5" y="1726.2295">35</text><text fill="#000000" font-family="sans-serif" font-size="13" lengthAdjust="spacing" textLength="46" x="81.5" y="1726.2295">go back</text><polygon fill="#181818" points="67.5,1758.7832,57.5,1762.7832,67.5,1766.7832,63.5,1762.7832" style="stroke:#181818;stroke-width:1.0;"/><line style="stroke:#181818;stroke-width:1.0;stroke-dasharray:2.0,2.0;" x1="61.5" x2="467.5" y1="1762.7832" y2="1762.7832"/><text fill="#000000" font-family="sans-serif" font-size="13" font-weight="bold" lengthAdjust="spacing" textLength="14" x="73.5" y="1757.5205">36</text><text fill="#000000" font-family="sans-serif" font-size="13" lengthAdjust="spacing" textLength="199" x="91.5" y="1757.5205">goes back to booking requests list</text><!--SRC=[nLZBRjim4BppAuXScXJ93_XGm7cqC12aHfpq5A2WfRLDM29LadRgl- -AUbYaH5bA35IN9EJkxEvmI2wZjrnaJB6KfbB8QADa2jIe7H1TpsGish8rBCmX0QeWCaoiawQ1th1OldEnfYkMQ224xOmKktG9Yf0l6nu3NKbfbl8lOP6HYbvCro3C1MMQsjy8uXWUyOm9Goycjr8YzleP_kn0czUPDNoTzLhTIM6KJ19GrlhkvVdHit-6J6gEuJbeQrCF71OyhmXpTbrKmsFo9be0yyVfY-knT78w1a3lsy2KHGhvkUXxZgCEw2ztn69vLYv4fcG6oXmSb7bhq0ArRJr6frcMy8WPBiK2jCOVrk_tT3vtBLcMbGPl8kJLSefsIg4sZewl6bJJO_6mMCn-Ff5SL7pF39HY8hJyx9_qvXjgXqweXWIrgwdPGCKtgjaINdlKIAYsUZ3_405nSbLz_OfOaGAqSYngLoizPoeVgTpHUGt65SFbrL2awbEmed8FgZ3filW1XfPHQ1c6piHAgjGot-a38iwHkqCMHPHLT5h4C23p6iQkYQlxllnwmNidywN3U8KO9ZJcEalOGViQeFmOdJ9aWkcjndDBMS4eq9aK6a9XctgHcIdjOnqKuswPybACBUm1AaI8pfH6gR3Qzu-os8wU3lrlmEgEqwYlroeVMYLqqgjNiUFKErh9OLLd7g_aBB76Y5nlvBkcCJFiifB9TIkjArVck5HyLHxChfYB6GYAkPxl5x2Ztk84jVTNG7O3QMdBsYRtn5BuZjrCUM7qI7l4KW-NT2xdWgGy4V8f3NiLigeyycb91RYRRwI09zk_dPt2CSV2aKIR4IrI8lJiR3OAFX-f7UrbmV5CQ6oX8nX2Q5UF6lJgYbYTUVbzSMnVXrGvAdHLTDuI5rLwhUcGOcq_7JIpq3V7bVC232cfFq1LWzT0UuULdRt7FmSKvBVYvDIUs0-hwSxcKp10FhWH_2eRpExxS1jq3YtFst8QKtj86KykwwFikhKFszVLTTtn19aVjaEzTFOiuNXJzcp7CR0dMeoXfyXPmUgAGy_Cl2t6rv61tdT99oN1boivUG44NKEUzpP7_rb3FdmL1Ebex8M2btZ8wJAE2hTbrBiemcjstBkgi-dBDqtnYF4n0yyLI3JGAB-Gac27LqttDdXUEci9-CXYqPOQwJ-sD4ruO-L2cU42Ol_ffRgM5ZMKQZNzdr8bf65H_3_Y7m00]--></g></svg>