<?xml version="1.0" encoding="us-ascii" standalone="no"?><svg xmlns="http://www.w3.org/2000/svg" xmlns:xlink="http://www.w3.org/1999/xlink" contentStyleType="text/css" height="887px" preserveAspectRatio="none" style="width:695px;height:887px;background:#FFFFFF;" version="1.1" viewBox="0 0 695 887" width="695px" zoomAndPan="magnify"><defs/><g><!--class BookingRequestUI--><g id="elem_BookingRequestUI"><rect codeLine="11" fill="#F1F1F1" height="48" id="BookingRequestUI" rx="2.5" ry="2.5" style="stroke:#181818;stroke-width:0.5;" width="148" x="216.5" y="7"/><ellipse cx="231.5" cy="23" fill="#ADD1B2" rx="11" ry="11" style="stroke:#181818;stroke-width:1.0;"/><path d="M234.2656,18.875 Q234.4219,18.6563 234.6094,18.5469 Q234.7969,18.4375 235.0156,18.4375 Q235.3906,18.4375 235.625,18.7031 Q235.8594,18.9531 235.8594,19.5625 L235.8594,21.0156 Q235.8594,21.625 235.625,21.8906 Q235.3906,22.1563 235.0156,22.1563 Q234.6719,22.1563 234.4688,21.9531 Q234.2656,21.7656 234.1563,21.25 Q234.1094,20.8906 233.9219,20.7031 Q233.5938,20.3281 232.9844,20.1094 Q232.375,19.8906 231.75,19.8906 Q230.9844,19.8906 230.3438,20.2188 Q229.7188,20.5469 229.2188,21.2969 Q228.7344,22.0469 228.7344,23.0781 L228.7344,24.1719 Q228.7344,25.4063 229.625,26.2344 Q230.5156,27.0469 232.1094,27.0469 Q233.0469,27.0469 233.7031,26.7969 Q234.0938,26.6406 234.5156,26.2031 Q234.7813,25.9375 234.9219,25.8594 Q235.0781,25.7813 235.2813,25.7813 Q235.6094,25.7813 235.8594,26.0469 Q236.125,26.2969 236.125,26.6406 Q236.125,26.9844 235.7813,27.3906 Q235.2813,27.9688 234.4844,28.2969 Q233.4063,28.75 232.1094,28.75 Q230.5938,28.75 229.3906,28.125 Q228.4063,27.625 227.7188,26.5625 Q227.0313,25.4844 227.0313,24.2031 L227.0313,23.0469 Q227.0313,21.7188 227.6406,20.5781 Q228.2656,19.4219 229.3594,18.8125 Q230.4531,18.1875 231.6875,18.1875 Q232.4219,18.1875 233.0625,18.3594 Q233.7188,18.5156 234.2656,18.875 Z " fill="#000000"/><text fill="#000000" font-family="sans-serif" font-size="14" lengthAdjust="spacing" textLength="116" x="245.5" y="28.7969">BookingRequestUI</text><line style="stroke:#181818;stroke-width:0.5;" x1="217.5" x2="363.5" y1="39" y2="39"/><line style="stroke:#181818;stroke-width:0.5;" x1="217.5" x2="363.5" y1="47" y2="47"/></g><!--class BookingRequestController--><g id="elem_BookingRequestController"><rect codeLine="13" fill="#F1F1F1" height="252.832" id="BookingRequestController" rx="2.5" ry="2.5" style="stroke:#181818;stroke-width:0.5;" width="260" x="160.5" y="116"/><ellipse cx="203.4" cy="132" fill="#ADD1B2" rx="11" ry="11" style="stroke:#181818;stroke-width:1.0;"/><path d="M206.1656,127.875 Q206.3219,127.6563 206.5094,127.5469 Q206.6969,127.4375 206.9156,127.4375 Q207.2906,127.4375 207.525,127.7031 Q207.7594,127.9531 207.7594,128.5625 L207.7594,130.0156 Q207.7594,130.625 207.525,130.8906 Q207.2906,131.1563 206.9156,131.1563 Q206.5719,131.1563 206.3688,130.9531 Q206.1656,130.7656 206.0563,130.25 Q206.0094,129.8906 205.8219,129.7031 Q205.4938,129.3281 204.8844,129.1094 Q204.275,128.8906 203.65,128.8906 Q202.8844,128.8906 202.2438,129.2188 Q201.6188,129.5469 201.1188,130.2969 Q200.6344,131.0469 200.6344,132.0781 L200.6344,133.1719 Q200.6344,134.4063 201.525,135.2344 Q202.4156,136.0469 204.0094,136.0469 Q204.9469,136.0469 205.6031,135.7969 Q205.9938,135.6406 206.4156,135.2031 Q206.6813,134.9375 206.8219,134.8594 Q206.9781,134.7813 207.1813,134.7813 Q207.5094,134.7813 207.7594,135.0469 Q208.025,135.2969 208.025,135.6406 Q208.025,135.9844 207.6813,136.3906 Q207.1813,136.9688 206.3844,137.2969 Q205.3063,137.75 204.0094,137.75 Q202.4938,137.75 201.2906,137.125 Q200.3063,136.625 199.6188,135.5625 Q198.9313,134.4844 198.9313,133.2031 L198.9313,132.0469 Q198.9313,130.7188 199.5406,129.5781 Q200.1656,128.4219 201.2594,127.8125 Q202.3531,127.1875 203.5875,127.1875 Q204.3219,127.1875 204.9625,127.3594 Q205.6188,127.5156 206.1656,127.875 Z " fill="#000000"/><text fill="#000000" font-family="sans-serif" font-size="14" lengthAdjust="spacing" textLength="166" x="223.6" y="137.7969">BookingRequestController</text><line style="stroke:#181818;stroke-width:0.5;" x1="161.5" x2="419.5" y1="148" y2="148"/><line style="stroke:#181818;stroke-width:0.5;" x1="161.5" x2="419.5" y1="156" y2="156"/><text fill="#000000" font-family="sans-serif" font-size="14" lengthAdjust="spacing" textLength="142" x="166.5" y="175.1074">+getBookingRequest()</text><text fill="#000000" font-family="sans-serif" font-size="14" lengthAdjust="spacing" textLength="146" x="166.5" y="193.7285">+getPropertyLocation()</text><text fill="#000000" font-family="sans-serif" font-size="14" lengthAdjust="spacing" textLength="194" x="166.5" y="212.3496">+getAgentNameFromSession()</text><text fill="#000000" font-family="sans-serif" font-size="14" lengthAdjust="spacing" textLength="248" x="166.5" y="230.9707">+getAgentPhoneNumberFromSession()</text><text fill="#000000" font-family="sans-serif" font-size="14" lengthAdjust="spacing" textLength="83" x="166.5" y="249.5918">+sendEmail()</text><text fill="#000000" font-family="sans-serif" font-size="14" lengthAdjust="spacing" textLength="84" x="166.5" y="268.2129">+createVisit()</text><text fill="#000000" font-family="sans-serif" font-size="14" lengthAdjust="spacing" textLength="161" x="166.5" y="286.834">+deleteBookingRequest()</text><text fill="#000000" font-family="sans-serif" font-size="14" lengthAdjust="spacing" textLength="207" x="166.5" y="305.4551">-getBookingRequestRepository()</text><text fill="#000000" font-family="sans-serif" font-size="14" lengthAdjust="spacing" textLength="157" x="166.5" y="324.0762">-getPropertyRepository()</text><text fill="#000000" font-family="sans-serif" font-size="14" lengthAdjust="spacing" textLength="129" x="166.5" y="342.6973">-getVisitRepository()</text><text fill="#000000" font-family="sans-serif" font-size="14" lengthAdjust="spacing" textLength="133" x="166.5" y="361.3184">-getCurrentSession()</text></g><!--class BookingRequestRepository--><g id="elem_BookingRequestRepository"><rect codeLine="27" fill="#F1F1F1" height="66.6211" id="BookingRequestRepository" rx="2.5" ry="2.5" style="stroke:#181818;stroke-width:0.5;" width="204" x="299.5" y="667.5"/><ellipse cx="314.5" cy="683.5" fill="#ADD1B2" rx="11" ry="11" style="stroke:#181818;stroke-width:1.0;"/><path d="M317.2656,679.375 Q317.4219,679.1563 317.6094,679.0469 Q317.7969,678.9375 318.0156,678.9375 Q318.3906,678.9375 318.625,679.2031 Q318.8594,679.4531 318.8594,680.0625 L318.8594,681.5156 Q318.8594,682.125 318.625,682.3906 Q318.3906,682.6563 318.0156,682.6563 Q317.6719,682.6563 317.4688,682.4531 Q317.2656,682.2656 317.1563,681.75 Q317.1094,681.3906 316.9219,681.2031 Q316.5938,680.8281 315.9844,680.6094 Q315.375,680.3906 314.75,680.3906 Q313.9844,680.3906 313.3438,680.7188 Q312.7188,681.0469 312.2188,681.7969 Q311.7344,682.5469 311.7344,683.5781 L311.7344,684.6719 Q311.7344,685.9063 312.625,686.7344 Q313.5156,687.5469 315.1094,687.5469 Q316.0469,687.5469 316.7031,687.2969 Q317.0938,687.1406 317.5156,686.7031 Q317.7813,686.4375 317.9219,686.3594 Q318.0781,686.2813 318.2813,686.2813 Q318.6094,686.2813 318.8594,686.5469 Q319.125,686.7969 319.125,687.1406 Q319.125,687.4844 318.7813,687.8906 Q318.2813,688.4688 317.4844,688.7969 Q316.4063,689.25 315.1094,689.25 Q313.5938,689.25 312.3906,688.625 Q311.4063,688.125 310.7188,687.0625 Q310.0313,685.9844 310.0313,684.7031 L310.0313,683.5469 Q310.0313,682.2188 310.6406,681.0781 Q311.2656,679.9219 312.3594,679.3125 Q313.4531,678.6875 314.6875,678.6875 Q315.4219,678.6875 316.0625,678.8594 Q316.7188,679.0156 317.2656,679.375 Z " fill="#000000"/><text fill="#000000" font-family="sans-serif" font-size="14" lengthAdjust="spacing" textLength="172" x="328.5" y="689.2969">BookingRequestRepository</text><line style="stroke:#181818;stroke-width:0.5;" x1="300.5" x2="502.5" y1="699.5" y2="699.5"/><line style="stroke:#181818;stroke-width:0.5;" x1="300.5" x2="502.5" y1="707.5" y2="707.5"/><text fill="#000000" font-family="sans-serif" font-size="14" lengthAdjust="spacing" textLength="161" x="305.5" y="726.6074">+deleteBookingRequest()</text></g><!--class ApplicationSession--><g id="elem_ApplicationSession"><rect codeLine="31" fill="#F1F1F1" height="85.2422" id="ApplicationSession" rx="2.5" ry="2.5" style="stroke:#181818;stroke-width:0.5;" width="151" x="7" y="466.5"/><ellipse cx="22" cy="482.5" fill="#ADD1B2" rx="11" ry="11" style="stroke:#181818;stroke-width:1.0;"/><path d="M24.7656,478.375 Q24.9219,478.1563 25.1094,478.0469 Q25.2969,477.9375 25.5156,477.9375 Q25.8906,477.9375 26.125,478.2031 Q26.3594,478.4531 26.3594,479.0625 L26.3594,480.5156 Q26.3594,481.125 26.125,481.3906 Q25.8906,481.6563 25.5156,481.6563 Q25.1719,481.6563 24.9688,481.4531 Q24.7656,481.2656 24.6563,480.75 Q24.6094,480.3906 24.4219,480.2031 Q24.0938,479.8281 23.4844,479.6094 Q22.875,479.3906 22.25,479.3906 Q21.4844,479.3906 20.8438,479.7188 Q20.2188,480.0469 19.7188,480.7969 Q19.2344,481.5469 19.2344,482.5781 L19.2344,483.6719 Q19.2344,484.9063 20.125,485.7344 Q21.0156,486.5469 22.6094,486.5469 Q23.5469,486.5469 24.2031,486.2969 Q24.5938,486.1406 25.0156,485.7031 Q25.2813,485.4375 25.4219,485.3594 Q25.5781,485.2813 25.7813,485.2813 Q26.1094,485.2813 26.3594,485.5469 Q26.625,485.7969 26.625,486.1406 Q26.625,486.4844 26.2813,486.8906 Q25.7813,487.4688 24.9844,487.7969 Q23.9063,488.25 22.6094,488.25 Q21.0938,488.25 19.8906,487.625 Q18.9063,487.125 18.2188,486.0625 Q17.5313,484.9844 17.5313,483.7031 L17.5313,482.5469 Q17.5313,481.2188 18.1406,480.0781 Q18.7656,478.9219 19.8594,478.3125 Q20.9531,477.6875 22.1875,477.6875 Q22.9219,477.6875 23.5625,477.8594 Q24.2188,478.0156 24.7656,478.375 Z " fill="#000000"/><text fill="#000000" font-family="sans-serif" font-size="14" lengthAdjust="spacing" textLength="119" x="36" y="488.2969">ApplicationSession</text><line style="stroke:#181818;stroke-width:0.5;" x1="8" x2="157" y1="498.5" y2="498.5"/><line style="stroke:#181818;stroke-width:0.5;" x1="8" x2="157" y1="506.5" y2="506.5"/><text fill="#000000" font-family="sans-serif" font-size="14" lengthAdjust="spacing" textLength="128" x="13" y="525.6074">+static getInstance()</text><text fill="#000000" font-family="sans-serif" font-size="14" lengthAdjust="spacing" textLength="136" x="13" y="544.2285">+getCurrentSession()</text></g><!--class UserSession--><g id="elem_UserSession"><rect codeLine="36" fill="#F1F1F1" height="66.6211" id="UserSession" rx="2.5" ry="2.5" style="stroke:#181818;stroke-width:0.5;" width="113" x="107" y="667.5"/><ellipse cx="122.9" cy="683.5" fill="#ADD1B2" rx="11" ry="11" style="stroke:#181818;stroke-width:1.0;"/><path d="M125.6656,679.375 Q125.8219,679.1563 126.0094,679.0469 Q126.1969,678.9375 126.4156,678.9375 Q126.7906,678.9375 127.025,679.2031 Q127.2594,679.4531 127.2594,680.0625 L127.2594,681.5156 Q127.2594,682.125 127.025,682.3906 Q126.7906,682.6563 126.4156,682.6563 Q126.0719,682.6563 125.8688,682.4531 Q125.6656,682.2656 125.5563,681.75 Q125.5094,681.3906 125.3219,681.2031 Q124.9938,680.8281 124.3844,680.6094 Q123.775,680.3906 123.15,680.3906 Q122.3844,680.3906 121.7438,680.7188 Q121.1188,681.0469 120.6188,681.7969 Q120.1344,682.5469 120.1344,683.5781 L120.1344,684.6719 Q120.1344,685.9063 121.025,686.7344 Q121.9156,687.5469 123.5094,687.5469 Q124.4469,687.5469 125.1031,687.2969 Q125.4938,687.1406 125.9156,686.7031 Q126.1813,686.4375 126.3219,686.3594 Q126.4781,686.2813 126.6813,686.2813 Q127.0094,686.2813 127.2594,686.5469 Q127.525,686.7969 127.525,687.1406 Q127.525,687.4844 127.1813,687.8906 Q126.6813,688.4688 125.8844,688.7969 Q124.8063,689.25 123.5094,689.25 Q121.9938,689.25 120.7906,688.625 Q119.8063,688.125 119.1188,687.0625 Q118.4313,685.9844 118.4313,684.7031 L118.4313,683.5469 Q118.4313,682.2188 119.0406,681.0781 Q119.6656,679.9219 120.7594,679.3125 Q121.8531,678.6875 123.0875,678.6875 Q123.8219,678.6875 124.4625,678.8594 Q125.1188,679.0156 125.6656,679.375 Z " fill="#000000"/><text fill="#000000" font-family="sans-serif" font-size="14" lengthAdjust="spacing" textLength="79" x="137.1" y="689.2969">UserSession</text><line style="stroke:#181818;stroke-width:0.5;" x1="108" x2="219" y1="699.5" y2="699.5"/><line style="stroke:#181818;stroke-width:0.5;" x1="108" x2="219" y1="707.5" y2="707.5"/><text fill="#000000" font-family="sans-serif" font-size="14" lengthAdjust="spacing" textLength="101" x="113" y="726.6074">+getUserEmail()</text></g><!--class Repositories--><g id="elem_Repositories"><rect codeLine="40" fill="#F1F1F1" height="122.4844" id="Repositories" rx="2.5" ry="2.5" style="stroke:#181818;stroke-width:0.5;" width="222" x="343.5" y="448"/><ellipse cx="410.75" cy="464" fill="#ADD1B2" rx="11" ry="11" style="stroke:#181818;stroke-width:1.0;"/><path d="M413.5156,459.875 Q413.6719,459.6563 413.8594,459.5469 Q414.0469,459.4375 414.2656,459.4375 Q414.6406,459.4375 414.875,459.7031 Q415.1094,459.9531 415.1094,460.5625 L415.1094,462.0156 Q415.1094,462.625 414.875,462.8906 Q414.6406,463.1563 414.2656,463.1563 Q413.9219,463.1563 413.7188,462.9531 Q413.5156,462.7656 413.4063,462.25 Q413.3594,461.8906 413.1719,461.7031 Q412.8438,461.3281 412.2344,461.1094 Q411.625,460.8906 411,460.8906 Q410.2344,460.8906 409.5938,461.2188 Q408.9688,461.5469 408.4688,462.2969 Q407.9844,463.0469 407.9844,464.0781 L407.9844,465.1719 Q407.9844,466.4063 408.875,467.2344 Q409.7656,468.0469 411.3594,468.0469 Q412.2969,468.0469 412.9531,467.7969 Q413.3438,467.6406 413.7656,467.2031 Q414.0313,466.9375 414.1719,466.8594 Q414.3281,466.7813 414.5313,466.7813 Q414.8594,466.7813 415.1094,467.0469 Q415.375,467.2969 415.375,467.6406 Q415.375,467.9844 415.0313,468.3906 Q414.5313,468.9688 413.7344,469.2969 Q412.6563,469.75 411.3594,469.75 Q409.8438,469.75 408.6406,469.125 Q407.6563,468.625 406.9688,467.5625 Q406.2813,466.4844 406.2813,465.2031 L406.2813,464.0469 Q406.2813,462.7188 406.8906,461.5781 Q407.5156,460.4219 408.6094,459.8125 Q409.7031,459.1875 410.9375,459.1875 Q411.6719,459.1875 412.3125,459.3594 Q412.9688,459.5156 413.5156,459.875 Z " fill="#000000"/><text fill="#000000" font-family="sans-serif" font-size="14" lengthAdjust="spacing" textLength="79" x="431.25" y="469.7969">Repositories</text><line style="stroke:#181818;stroke-width:0.5;" x1="344.5" x2="564.5" y1="480" y2="480"/><line style="stroke:#181818;stroke-width:0.5;" x1="344.5" x2="564.5" y1="488" y2="488"/><text fill="#000000" font-family="sans-serif" font-size="14" lengthAdjust="spacing" textLength="94" x="349.5" y="507.1074">-Repositories()</text><text fill="#000000" font-family="sans-serif" font-size="14" lengthAdjust="spacing" textLength="182" x="349.5" y="525.7285">+getInstance() : Repositories</text><text fill="#000000" font-family="sans-serif" font-size="14" lengthAdjust="spacing" textLength="210" x="349.5" y="544.3496">+getBookingRequestRepository()</text><text fill="#000000" font-family="sans-serif" font-size="14" lengthAdjust="spacing" textLength="160" x="349.5" y="562.9707">+getPropertyRepository()</text></g><!--class VisitRepository--><g id="elem_VisitRepository"><rect codeLine="47" fill="#F1F1F1" height="103.8633" id="VisitRepository" rx="2.5" ry="2.5" style="stroke:#181818;stroke-width:0.5;" width="150" x="538.5" y="649"/><ellipse cx="564.3" cy="665" fill="#ADD1B2" rx="11" ry="11" style="stroke:#181818;stroke-width:1.0;"/><path d="M567.0656,660.875 Q567.2219,660.6563 567.4094,660.5469 Q567.5969,660.4375 567.8156,660.4375 Q568.1906,660.4375 568.425,660.7031 Q568.6594,660.9531 568.6594,661.5625 L568.6594,663.0156 Q568.6594,663.625 568.425,663.8906 Q568.1906,664.1563 567.8156,664.1563 Q567.4719,664.1563 567.2688,663.9531 Q567.0656,663.7656 566.9563,663.25 Q566.9094,662.8906 566.7219,662.7031 Q566.3938,662.3281 565.7844,662.1094 Q565.175,661.8906 564.55,661.8906 Q563.7844,661.8906 563.1438,662.2188 Q562.5188,662.5469 562.0188,663.2969 Q561.5344,664.0469 561.5344,665.0781 L561.5344,666.1719 Q561.5344,667.4063 562.425,668.2344 Q563.3156,669.0469 564.9094,669.0469 Q565.8469,669.0469 566.5031,668.7969 Q566.8938,668.6406 567.3156,668.2031 Q567.5813,667.9375 567.7219,667.8594 Q567.8781,667.7813 568.0813,667.7813 Q568.4094,667.7813 568.6594,668.0469 Q568.925,668.2969 568.925,668.6406 Q568.925,668.9844 568.5813,669.3906 Q568.0813,669.9688 567.2844,670.2969 Q566.2063,670.75 564.9094,670.75 Q563.3938,670.75 562.1906,670.125 Q561.2063,669.625 560.5188,668.5625 Q559.8313,667.4844 559.8313,666.2031 L559.8313,665.0469 Q559.8313,663.7188 560.4406,662.5781 Q561.0656,661.4219 562.1594,660.8125 Q563.2531,660.1875 564.4875,660.1875 Q565.2219,660.1875 565.8625,660.3594 Q566.5188,660.5156 567.0656,660.875 Z " fill="#000000"/><text fill="#000000" font-family="sans-serif" font-size="14" lengthAdjust="spacing" textLength="94" x="580.7" y="670.7969">VisitRepository</text><line style="stroke:#181818;stroke-width:0.5;" x1="539.5" x2="687.5" y1="681" y2="681"/><line style="stroke:#181818;stroke-width:0.5;" x1="539.5" x2="687.5" y1="689" y2="689"/><text fill="#000000" font-family="sans-serif" font-size="14" lengthAdjust="spacing" textLength="138" x="544.5" y="708.1074">+createVisit(visitDate)</text><text fill="#000000" font-family="sans-serif" font-size="14" lengthAdjust="spacing" textLength="89" x="544.5" y="726.7285">-addVisit(visit)</text><text fill="#000000" font-family="sans-serif" font-size="14" lengthAdjust="spacing" textLength="114" x="544.5" y="745.3496">-validateVisit(visit)</text></g><!--class Visit--><g id="elem_Visit"><rect codeLine="53" fill="#F1F1F1" height="66.6211" id="Visit" rx="2.5" ry="2.5" style="stroke:#181818;stroke-width:0.5;" width="103" x="562" y="814"/><ellipse cx="597.25" cy="830" fill="#ADD1B2" rx="11" ry="11" style="stroke:#181818;stroke-width:1.0;"/><path d="M600.0156,825.875 Q600.1719,825.6563 600.3594,825.5469 Q600.5469,825.4375 600.7656,825.4375 Q601.1406,825.4375 601.375,825.7031 Q601.6094,825.9531 601.6094,826.5625 L601.6094,828.0156 Q601.6094,828.625 601.375,828.8906 Q601.1406,829.1563 600.7656,829.1563 Q600.4219,829.1563 600.2188,828.9531 Q600.0156,828.7656 599.9063,828.25 Q599.8594,827.8906 599.6719,827.7031 Q599.3438,827.3281 598.7344,827.1094 Q598.125,826.8906 597.5,826.8906 Q596.7344,826.8906 596.0938,827.2188 Q595.4688,827.5469 594.9688,828.2969 Q594.4844,829.0469 594.4844,830.0781 L594.4844,831.1719 Q594.4844,832.4063 595.375,833.2344 Q596.2656,834.0469 597.8594,834.0469 Q598.7969,834.0469 599.4531,833.7969 Q599.8438,833.6406 600.2656,833.2031 Q600.5313,832.9375 600.6719,832.8594 Q600.8281,832.7813 601.0313,832.7813 Q601.3594,832.7813 601.6094,833.0469 Q601.875,833.2969 601.875,833.6406 Q601.875,833.9844 601.5313,834.3906 Q601.0313,834.9688 600.2344,835.2969 Q599.1563,835.75 597.8594,835.75 Q596.3438,835.75 595.1406,835.125 Q594.1563,834.625 593.4688,833.5625 Q592.7813,832.4844 592.7813,831.2031 L592.7813,830.0469 Q592.7813,828.7188 593.3906,827.5781 Q594.0156,826.4219 595.1094,825.8125 Q596.2031,825.1875 597.4375,825.1875 Q598.1719,825.1875 598.8125,825.3594 Q599.4688,825.5156 600.0156,825.875 Z " fill="#000000"/><text fill="#000000" font-family="sans-serif" font-size="14" lengthAdjust="spacing" textLength="26" x="615.75" y="835.7969">Visit</text><line style="stroke:#181818;stroke-width:0.5;" x1="563" x2="664" y1="846" y2="846"/><text fill="#000000" font-family="sans-serif" font-size="14" lengthAdjust="spacing" textLength="91" x="568" y="865.1074">-date visitDate</text><line style="stroke:#181818;stroke-width:0.5;" x1="563" x2="664" y1="872.6211" y2="872.6211"/></g><!--link BookingRequestUI to BookingRequestController--><g id="link_BookingRequestUI_BookingRequestController"><path codeLine="57" d="M290.5,55.22 C290.5,69.62 290.5,89.4 290.5,110.71 " fill="none" id="BookingRequestUI-to-BookingRequestController" style="stroke:#181818;stroke-width:1.0;stroke-dasharray:7.0,7.0;"/><polygon fill="#181818" points="290.5,115.87,294.5,106.87,290.5,110.87,286.5,106.87,290.5,115.87" style="stroke:#181818;stroke-width:1.0;"/></g><!--link BookingRequestController to ApplicationSession--><g id="link_BookingRequestController_ApplicationSession"><path codeLine="59" d="M191.68,369.17 C165.51,402.44 138.9,436.27 118.51,462.21 " fill="none" id="BookingRequestController-to-ApplicationSession" style="stroke:#181818;stroke-width:1.0;stroke-dasharray:7.0,7.0;"/><polygon fill="#181818" points="115.29,466.3,123.9949,461.693,118.3785,462.3679,117.7036,456.7515,115.29,466.3" style="stroke:#181818;stroke-width:1.0;"/></g><!--link BookingRequestController to UserSession--><g id="link_BookingRequestController_UserSession"><path codeLine="60" d="M276.63,369.27 C266.49,461.24 254.5,570 254.5,570 C254.5,570 216.26,624.63 189.36,663.06 " fill="none" id="BookingRequestController-to-UserSession" style="stroke:#181818;stroke-width:1.0;stroke-dasharray:7.0,7.0;"/><polygon fill="#181818" points="186.46,667.2,194.8957,662.1168,189.3254,663.1025,188.3397,657.5322,186.46,667.2" style="stroke:#181818;stroke-width:1.0;"/></g><!--link BookingRequestController to Repositories--><g id="link_BookingRequestController_Repositories"><path codeLine="61" d="M368.42,369.17 C384.38,394.91 400.55,420.98 414.49,443.48 " fill="none" id="BookingRequestController-to-Repositories" style="stroke:#181818;stroke-width:1.0;stroke-dasharray:7.0,7.0;"/><polygon fill="#181818" points="417.25,447.93,415.9252,438.1707,414.6231,443.6756,409.1182,442.3736,417.25,447.93" style="stroke:#181818;stroke-width:1.0;"/><text fill="#000000" font-family="sans-serif" font-size="13" lengthAdjust="spacing" textLength="67" x="398.5" y="414.0283">repositories</text></g><!--link Repositories to Repositories--><g id="link_Repositories_Repositories"><path codeLine="63" d="M565.59,491.25 C586.09,493.46 600.5,499.38 600.5,509 C600.5,517.79 588.46,523.49 570.73,526.1 " fill="none" id="Repositories-to-Repositories" style="stroke:#181818;stroke-width:1.0;"/><polygon fill="#181818" points="565.59,526.75,575.0217,529.5861,570.5503,526.121,574.0153,521.6496,565.59,526.75" style="stroke:#181818;stroke-width:1.0;"/><text fill="#000000" font-family="sans-serif" font-size="13" lengthAdjust="spacing" textLength="49" x="606.5" y="514.5283">instance</text></g><!--link Repositories to BookingRequestRepository--><g id="link_Repositories_BookingRequestRepository"><path codeLine="64" d="M421.82,570.03 C412.83,586.54 405.5,600 405.5,600 C405.5,600 404.15,633.76 403.02,662.05 " fill="none" id="Repositories-to-BookingRequestRepository" style="stroke:#181818;stroke-width:1.0;"/><polygon fill="#181818" points="402.81,667.26,407.1665,658.4271,403.0098,662.264,399.1729,658.1073,402.81,667.26" style="stroke:#181818;stroke-width:1.0;"/><text fill="#000000" font-family="sans-serif" font-size="13" lengthAdjust="spacing" textLength="155" x="406.5" y="615.0283">bookingRequestRepository</text></g><!--link Repositories to VisitRepository--><g id="link_Repositories_VisitRepository"><path codeLine="65" d="M529.21,570.03 C549.75,586.54 566.5,600 566.5,600 C566.5,600 576.51,621.29 587.29,644.23 " fill="none" id="Repositories-to-VisitRepository" style="stroke:#181818;stroke-width:1.0;"/><polygon fill="#181818" points="589.45,648.83,589.2416,638.9833,587.3231,644.3049,582.0015,642.3864,589.45,648.83" style="stroke:#181818;stroke-width:1.0;"/><text fill="#000000" font-family="sans-serif" font-size="13" lengthAdjust="spacing" textLength="84" x="574.5" y="615.0283">visitRepository</text></g><!--link ApplicationSession to ApplicationSession--><g id="link_ApplicationSession_ApplicationSession"><path codeLine="67" d="M158.16,490.43 C178,491.53 193,497.72 193,509 C193,519.31 180.47,525.37 163.16,527.17 " fill="none" id="ApplicationSession-to-ApplicationSession" style="stroke:#181818;stroke-width:1.0;"/><polygon fill="#181818" points="158.16,527.57,167.4511,530.8374,163.144,527.1701,166.8113,522.8631,158.16,527.57" style="stroke:#181818;stroke-width:1.0;"/><text fill="#000000" font-family="sans-serif" font-size="13" lengthAdjust="spacing" textLength="49" x="199" y="514.5283">instance</text></g><!--link ApplicationSession to UserSession--><g id="link_ApplicationSession_UserSession"><path codeLine="68" d="M100.28,551.7 C114.39,584.81 133.95,630.69 147.56,662.61 " fill="none" id="ApplicationSession-to-UserSession" style="stroke:#181818;stroke-width:1.0;"/><polygon fill="#181818" points="149.53,667.22,149.6761,657.3722,147.5673,662.6213,142.3182,660.5125,149.53,667.22" style="stroke:#181818;stroke-width:1.0;"/><text fill="#000000" font-family="sans-serif" font-size="13" lengthAdjust="spacing" textLength="72" x="129.5" y="615.0283">userSession</text><text fill="#000000" font-family="sans-serif" font-size="13" lengthAdjust="spacing" textLength="7" x="139.1998" y="656.2525">1</text></g><!--link VisitRepository to Visit--><g id="link_VisitRepository_Visit"><path codeLine="70" d="M613.5,753.35 C613.5,771.58 613.5,791.76 613.5,808.66 " fill="none" id="VisitRepository-to-Visit" style="stroke:#181818;stroke-width:1.0;"/><polygon fill="#181818" points="613.5,813.79,617.5,804.79,613.5,808.79,609.5,804.79,613.5,813.79" style="stroke:#181818;stroke-width:1.0;"/><text fill="#000000" font-family="sans-serif" font-size="13" lengthAdjust="spacing" textLength="5" x="608.0234" y="802.8359">*</text></g><!--SRC=[VLHDRwim4BpxLrYvf7rHglQQmvFIBobILLMDshjZjiIgyL9xQKMZzz-V8G4Cc728O6TcTpmBcRjFPN9XHSOpD2Zt5ZFWP0jW7P8B-IbIs5AfWLkG94ogGuBRYmH_b4dvXz0kHBGoG6KEF4TTLWzi7W7H4h909RLmRararQuWs4WqM_KB_9gnkOOFueJSgdHFF56L7OM6iLh3Rn5zb_GLlWfmzBQ9r-_Ga4MjmHuOzzU2fq1zoiLbXxnOpC5I-OHILCD2R9s2eMUHmQDFRWlEnV2NFHfuBh8Ts1ZDWKaUCg5qMv4M1C6xSgepae06WgZBvTZ_A-JerMZBaDES98xMy-BGNM6jFqZd_5yysKvzE6-xrQ_pNAjZhgVkZTAHhyfg-iRuUoCX37RQqPi3EsZb-LMr2RcbjdOLE7uu7JSiXXCx5tpL8qszGwCe5vCxQ1qDTi0FaJVYk_gzzu_DWaII14XJ_HPQ9NtHS51pv8h6sxOLQVWXyQkhlvDVqP3U8RLilEBp_621vuczzQtyNrEm4zO3byiHMvtMEIPERT6BTXFGkCbmaQjZle64ZNEfbP5ou7P2DBkPXRbvHH6ao8PkQicVsT4bO_y1]--></g></svg>