<?xml version="1.0" encoding="us-ascii" standalone="no"?><svg xmlns="http://www.w3.org/2000/svg" xmlns:xlink="http://www.w3.org/1999/xlink" contentStyleType="text/css" height="956px" preserveAspectRatio="none" style="width:646px;height:956px;background:#FFFFFF;" version="1.1" viewBox="0 0 646 956" width="646px" zoomAndPan="magnify"><defs/><g><text fill="#000000" font-family="sans-serif" font-size="14" font-weight="bold" lengthAdjust="spacing" textLength="157" x="237.5" y="24.9659">Domain Model - US018</text><!--class Property--><g id="elem_Property"><rect codeLine="18" fill="#F1F1F1" height="94.2717" id="Property" rx="2.5" ry="2.5" style="stroke:#181818;stroke-width:0.5;" width="138" x="328" y="298.0679"/><text fill="#000000" font-family="sans-serif" font-size="14" lengthAdjust="spacing" textLength="57" x="368.5" y="318.0339">Property</text><line style="stroke:#181818;stroke-width:0.5;" x1="329" x2="465" y1="327.1358" y2="327.1358"/><text fill="#000000" font-family="sans-serif" font-size="14" lengthAdjust="spacing" textLength="30" x="334" y="346.1018">area</text><text fill="#000000" font-family="sans-serif" font-size="14" lengthAdjust="spacing" textLength="126" x="334" y="365.1697">cityCenterDistance</text><text fill="#000000" font-family="sans-serif" font-size="14" lengthAdjust="spacing" textLength="34" x="334" y="384.2376">price</text></g><!--class PropertyType--><g id="elem_PropertyType"><rect codeLine="24" fill="#F1F1F1" height="56.1358" id="PropertyType" rx="2.5" ry="2.5" style="stroke:#181818;stroke-width:0.5;" width="102" x="275" y="163.0679"/><text fill="#000000" font-family="sans-serif" font-size="14" lengthAdjust="spacing" textLength="89" x="281.5" y="183.0339">PropertyType</text><line style="stroke:#181818;stroke-width:0.5;" x1="276" x2="376" y1="192.1358" y2="192.1358"/><text fill="#000000" font-family="sans-serif" font-size="14" lengthAdjust="spacing" textLength="90" x="281" y="211.1018">propertyType</text></g><!--class BusinessType--><g id="elem_BusinessType"><rect codeLine="28" fill="#F1F1F1" height="56.1358" id="BusinessType" rx="2.5" ry="2.5" style="stroke:#181818;stroke-width:0.5;" width="104" x="159" y="509.0679"/><text fill="#000000" font-family="sans-serif" font-size="14" lengthAdjust="spacing" textLength="92" x="165" y="529.0339">BusinessType</text><line style="stroke:#181818;stroke-width:0.5;" x1="160" x2="262" y1="538.1358" y2="538.1358"/><text fill="#000000" font-family="sans-serif" font-size="14" lengthAdjust="spacing" textLength="92" x="165" y="557.1018">businessType</text></g><!--class Lease--><g id="elem_Lease"><rect codeLine="32" fill="#F1F1F1" height="75.2038" id="Lease" rx="2.5" ry="2.5" style="stroke:#181818;stroke-width:0.5;" width="126" x="7" y="691.5679"/><text fill="#000000" font-family="sans-serif" font-size="14" lengthAdjust="spacing" textLength="38" x="51" y="711.5339">Lease</text><line style="stroke:#181818;stroke-width:0.5;" x1="8" x2="132" y1="720.6358" y2="720.6358"/><text fill="#000000" font-family="sans-serif" font-size="14" lengthAdjust="spacing" textLength="72" x="13" y="739.6018">leaseValue</text><text fill="#000000" font-family="sans-serif" font-size="14" lengthAdjust="spacing" textLength="114" x="13" y="758.6697">contractDuration</text></g><!--class Sale--><g id="elem_Sale"><rect codeLine="37" fill="#F1F1F1" height="56.1358" id="Sale" rx="2.5" ry="2.5" style="stroke:#181818;stroke-width:0.5;" width="76" x="173" y="701.0679"/><text fill="#000000" font-family="sans-serif" font-size="14" lengthAdjust="spacing" textLength="28" x="197" y="721.0339">Sale</text><line style="stroke:#181818;stroke-width:0.5;" x1="174" x2="248" y1="730.1358" y2="730.1358"/><text fill="#000000" font-family="sans-serif" font-size="14" lengthAdjust="spacing" textLength="64" x="179" y="749.1018">saleValue</text></g><!--class StoreManager--><g id="elem_StoreManager"><rect codeLine="70" fill="#F1F1F1" height="37.0679" id="StoreManager" rx="2.5" ry="2.5" style="stroke:#181818;stroke-width:0.5;" width="102" x="418" y="47.0679"/><text fill="#000000" font-family="sans-serif" font-size="14" lengthAdjust="spacing" textLength="96" x="421" y="67.0339">StoreManager</text><line style="stroke:#181818;stroke-width:0.5;" x1="419" x2="519" y1="76.1358" y2="76.1358"/></g><!--class Dwelling--><g id="elem_Dwelling"><rect codeLine="45" fill="#F1F1F1" height="94.2717" id="Dwelling" rx="2.5" ry="2.5" style="stroke:#181818;stroke-width:0.5;" width="141" x="284.5" y="682.0679"/><text fill="#000000" font-family="sans-serif" font-size="14" lengthAdjust="spacing" textLength="59" x="325.5" y="702.0339">Dwelling</text><line style="stroke:#181818;stroke-width:0.5;" x1="285.5" x2="424.5" y1="711.1358" y2="711.1358"/><text fill="#000000" font-family="sans-serif" font-size="14" lengthAdjust="spacing" textLength="99" x="290.5" y="730.1018">numBedrooms</text><text fill="#000000" font-family="sans-serif" font-size="14" lengthAdjust="spacing" textLength="104" x="290.5" y="749.1697">numBathrooms</text><text fill="#000000" font-family="sans-serif" font-size="14" lengthAdjust="spacing" textLength="129" x="290.5" y="768.2376">numParkingSpaces</text></g><!--class House--><g id="elem_House"><rect codeLine="51" fill="#F1F1F1" height="94.2717" id="House" rx="2.5" ry="2.5" style="stroke:#181818;stroke-width:0.5;" width="114" x="222" y="855.0679"/><text fill="#000000" font-family="sans-serif" font-size="14" lengthAdjust="spacing" textLength="42" x="258" y="875.0339">House</text><line style="stroke:#181818;stroke-width:0.5;" x1="223" x2="335" y1="884.1358" y2="884.1358"/><text fill="#000000" font-family="sans-serif" font-size="14" lengthAdjust="spacing" textLength="67" x="228" y="903.1018">basement</text><text fill="#000000" font-family="sans-serif" font-size="14" lengthAdjust="spacing" textLength="102" x="228" y="922.1697">inhabitableLoft</text><text fill="#000000" font-family="sans-serif" font-size="14" lengthAdjust="spacing" textLength="87" x="228" y="941.2376">sunExposure</text></g><!--class Address--><g id="elem_Address"><rect codeLine="57" fill="#F1F1F1" height="132.4075" id="Address" rx="2.5" ry="2.5" style="stroke:#181818;stroke-width:0.5;" width="104" x="398" y="471.0679"/><text fill="#000000" font-family="sans-serif" font-size="14" lengthAdjust="spacing" textLength="55" x="422.5" y="491.0339">Address</text><line style="stroke:#181818;stroke-width:0.5;" x1="399" x2="501" y1="500.1358" y2="500.1358"/><text fill="#000000" font-family="sans-serif" font-size="14" lengthAdjust="spacing" textLength="39" x="404" y="519.1018">street</text><text fill="#000000" font-family="sans-serif" font-size="14" lengthAdjust="spacing" textLength="63" x="404" y="538.1697">cityName</text><text fill="#000000" font-family="sans-serif" font-size="14" lengthAdjust="spacing" textLength="87" x="404" y="557.2376">districtName</text><text fill="#000000" font-family="sans-serif" font-size="14" lengthAdjust="spacing" textLength="92" x="404" y="576.3055">stateAcronym</text><text fill="#000000" font-family="sans-serif" font-size="14" lengthAdjust="spacing" textLength="54" x="404" y="595.3734">zipCode</text></g><!--class Equipment--><g id="elem_Equipment"><rect codeLine="65" fill="#F1F1F1" height="75.2038" id="Equipment" rx="2.5" ry="2.5" style="stroke:#181818;stroke-width:0.5;" width="117" x="371.5" y="864.5679"/><text fill="#000000" font-family="sans-serif" font-size="14" lengthAdjust="spacing" textLength="74" x="393" y="884.5339">Equipment</text><line style="stroke:#181818;stroke-width:0.5;" x1="372.5" x2="487.5" y1="893.6358" y2="893.6358"/><text fill="#000000" font-family="sans-serif" font-size="14" lengthAdjust="spacing" textLength="100" x="377.5" y="912.6018">centralHeating</text><text fill="#000000" font-family="sans-serif" font-size="14" lengthAdjust="spacing" textLength="105" x="377.5" y="931.6697">airConditioning</text></g><!--class DealAnalysis--><g id="elem_DealAnalysis"><rect codeLine="73" fill="#F1F1F1" height="37.0679" id="DealAnalysis" rx="2.5" ry="2.5" style="stroke:#181818;stroke-width:0.5;" width="91" x="423.5" y="172.5679"/><text fill="#000000" font-family="sans-serif" font-size="14" lengthAdjust="spacing" textLength="85" x="426.5" y="192.5339">DealAnalysis</text><line style="stroke:#181818;stroke-width:0.5;" x1="424.5" x2="513.5" y1="201.6358" y2="201.6358"/></g><!--class Order--><g id="elem_Order"><rect codeLine="76" fill="#F1F1F1" height="56.1358" id="Order" rx="2.5" ry="2.5" style="stroke:#181818;stroke-width:0.5;" width="102" x="537" y="509.0679"/><text fill="#000000" font-family="sans-serif" font-size="14" lengthAdjust="spacing" textLength="40" x="568" y="529.0339">Order</text><line style="stroke:#181818;stroke-width:0.5;" x1="538" x2="638" y1="538.1358" y2="538.1358"/><text fill="#000000" font-family="sans-serif" font-size="14" lengthAdjust="spacing" textLength="90" x="543" y="557.1018">orderAmount</text></g><!--link StoreManager to DealAnalysis--><g id="link_StoreManager_DealAnalysis"><path codeLine="81" d="M469,84.5279 C469,107.9379 469,148.6579 469,172.0879 " fill="none" id="StoreManager-DealAnalysis" style="stroke:#181818;stroke-width:1.0;"/><polygon fill="#000000" points="474,128.9209,476.9389,119.8758,471.0611,119.8758,474,128.9209" style="stroke:#000000;stroke-width:1.0;"/><text fill="#000000" font-family="sans-serif" font-size="13" lengthAdjust="spacing" textLength="39" x="483" y="128.9649">does a</text><text fill="#000000" font-family="sans-serif" font-size="13" lengthAdjust="spacing" textLength="7" x="461.0594" y="105.8905">1</text><text fill="#000000" font-family="sans-serif" font-size="13" lengthAdjust="spacing" textLength="20" x="445.9375" y="160.6669">1..*</text></g><!--link DealAnalysis to Property--><g id="link_DealAnalysis_Property"><path codeLine="82" d="M460.6,209.7979 C450.47,231.1779 433.06,267.9379 419.02,297.5879 " fill="none" id="DealAnalysis-Property" style="stroke:#181818;stroke-width:1.0;"/><polygon fill="#000000" points="444.8598,263.4397,451.3876,256.5231,446.0754,254.0072,444.8598,263.4397" style="stroke:#000000;stroke-width:1.0;"/><text fill="#000000" font-family="sans-serif" font-size="13" lengthAdjust="spacing" textLength="51" x="456" y="263.9649">analyses</text></g><!--link Property to Order--><g id="link_Property_Order"><path codeLine="83" d="M466.36,389.1379 C480.18,399.1379 494.09,410.3279 506,422.0679 C532.74,448.4179 556.98,484.3179 572.06,508.7479 " fill="none" id="Property-Order" style="stroke:#181818;stroke-width:1.0;"/><polygon fill="#000000" points="529.311,435.6676,525.5236,426.9437,521.1191,430.8359,529.311,435.6676" style="stroke:#000000;stroke-width:1.0;"/><text fill="#000000" font-family="sans-serif" font-size="13" lengthAdjust="spacing" textLength="64" x="535" y="436.9649">belongs to</text></g><!--link Property to Address--><g id="link_Property_Address"><path codeLine="84" d="M409.97,392.5479 C416.52,416.0579 424.59,444.9879 431.77,470.6979 " fill="none" id="Property-Address" style="stroke:#181818;stroke-width:1.0;"/><polygon fill="#000000" points="430.3435,436.7371,430.744,427.2349,425.0823,428.8143,430.3435,436.7371" style="stroke:#000000;stroke-width:1.0;"/><text fill="#000000" font-family="sans-serif" font-size="13" lengthAdjust="spacing" textLength="59" x="438" y="436.9649">located at</text><text fill="#000000" font-family="sans-serif" font-size="13" lengthAdjust="spacing" textLength="7" x="404.3017" y="414.3477">1</text><text fill="#000000" font-family="sans-serif" font-size="13" lengthAdjust="spacing" textLength="7" x="422.3933" y="459.4223">1</text></g><!--reverse link Property to Dwelling--><g id="link_Property_Dwelling"><path codeLine="85" d="M387.33,413.6179 C384.8,432.2179 382.18,452.4079 380,471.0679 C371.43,544.5379 363.52,630.0679 358.98,681.5879 " fill="none" id="Property-backto-Dwelling" style="stroke:#181818;stroke-width:1.0;"/><polygon fill="none" points="380.4,412.6679,390.07,393.8179,394.27,414.5879,380.4,412.6679" style="stroke:#181818;stroke-width:1.0;"/></g><!--reverse link Dwelling to House--><g id="link_Dwelling_House"><path codeLine="86" d="M325.81,795.7479 C317.06,815.4279 307.65,836.5979 299.58,854.7579 " fill="none" id="Dwelling-backto-House" style="stroke:#181818;stroke-width:1.0;"/><polygon fill="none" points="319.3,793.1579,333.82,777.7279,332.09,798.8479,319.3,793.1579" style="stroke:#181818;stroke-width:1.0;"/></g><!--link Dwelling to Equipment--><g id="link_Dwelling_Equipment"><path codeLine="87" d="M375.3,776.3479 C387.4,803.9379 402.56,838.4979 413.84,864.2279 " fill="none" id="Dwelling-Equipment" style="stroke:#181818;stroke-width:1.0;"/><polygon fill="#000000" points="402.0081,820.4999,401.0669,811.0361,395.6839,813.3968,402.0081,820.4999" style="stroke:#000000;stroke-width:1.0;"/><text fill="#000000" font-family="sans-serif" font-size="13" lengthAdjust="spacing" textLength="21" x="409" y="820.9649">has</text><text fill="#000000" font-family="sans-serif" font-size="13" lengthAdjust="spacing" textLength="7" x="370.6625" y="798.1195">1</text><text fill="#000000" font-family="sans-serif" font-size="13" lengthAdjust="spacing" textLength="20" x="389.0167" y="852.6273">1..*</text></g><!--link PropertyType to Property--><g id="link_PropertyType_Property"><path codeLine="89" d="M319.57,219.3879 C317.35,234.2979 316.79,252.7779 323,268.0679 C327.37,278.8179 334.07,288.8779 341.69,297.9379 " fill="none" id="PropertyType-Property" style="stroke:#181818;stroke-width:1.0;"/><polygon fill="#000000" points="326.6447,254.1081,326.2676,263.6112,331.9254,262.0179,326.6447,254.1081" style="stroke:#000000;stroke-width:1.0;"/><text fill="#000000" font-family="sans-serif" font-size="13" lengthAdjust="spacing" textLength="88" x="337" y="263.9649">categorized by</text><text fill="#000000" font-family="sans-serif" font-size="13" lengthAdjust="spacing" textLength="7" x="310.5219" y="240.9379">1</text><text fill="#000000" font-family="sans-serif" font-size="13" lengthAdjust="spacing" textLength="20" x="311.6894" y="286.3498">1..*</text></g><!--link Property to BusinessType--><g id="link_Property_BusinessType"><path codeLine="91" d="M327.6,363.0279 C294.88,374.4679 258.05,392.9679 235,422.0679 C215.41,446.7979 210.78,483.7279 210.16,508.7979 " fill="none" id="Property-BusinessType" style="stroke:#181818;stroke-width:1.0;"/><polygon fill="#000000" points="236.8631,435.8145,244.8264,430.6148,240.2492,426.9271,236.8631,435.8145" style="stroke:#000000;stroke-width:1.0;"/><text fill="#000000" font-family="sans-serif" font-size="13" lengthAdjust="spacing" textLength="69" x="249" y="436.9649">classified as</text><text fill="#000000" font-family="sans-serif" font-size="13" lengthAdjust="spacing" textLength="7" x="313.0822" y="360.9229">1</text><text fill="#000000" font-family="sans-serif" font-size="13" lengthAdjust="spacing" textLength="7" x="202.1564" y="497.2578">1</text></g><!--link BusinessType to Lease--><g id="link_BusinessType_Lease"><path codeLine="93" d="M169.9,565.5379 C147.11,582.6079 119.86,606.3579 102,633.0679 C90.29,650.5779 82.51,672.7579 77.55,691.2779 " fill="none" id="BusinessType-Lease" style="stroke:#181818;stroke-width:1.0;"/><polygon fill="#000000" points="104.0403,646.9508,111.7632,641.4004,107.0258,637.921,104.0403,646.9508" style="stroke:#000000;stroke-width:1.0;"/><text fill="#000000" font-family="sans-serif" font-size="13" lengthAdjust="spacing" textLength="86" x="116" y="647.9649">categorized as</text><text fill="#000000" font-family="sans-serif" font-size="13" lengthAdjust="spacing" textLength="7" x="153.7013" y="587.1188">1</text><text fill="#000000" font-family="sans-serif" font-size="13" lengthAdjust="spacing" textLength="7" x="71.2967" y="679.6865">1</text></g><!--link BusinessType to Sale--><g id="link_BusinessType_Sale"><path codeLine="94" d="M211,565.2879 C211,601.3079 211,664.4379 211,700.5879 " fill="none" id="BusinessType-Sale" style="stroke:#181818;stroke-width:1.0;"/><polygon fill="#000000" points="216,647.9209,218.9389,638.8758,213.0611,638.8758,216,647.9209" style="stroke:#000000;stroke-width:1.0;"/><text fill="#000000" font-family="sans-serif" font-size="13" lengthAdjust="spacing" textLength="86" x="225" y="647.9649">categorized as</text><text fill="#000000" font-family="sans-serif" font-size="13" lengthAdjust="spacing" textLength="7" x="203.2344" y="587.2798">1</text><text fill="#000000" font-family="sans-serif" font-size="13" lengthAdjust="spacing" textLength="7" x="203.2344" y="689.4579">1</text></g><!--SRC=[TLJRQXin47tNLmY_60eEoLiffU34WHIIDk2sxxFIU5T4b-r8Ixfn- -yTQUszfAcVPe_EcSiPoV79-1O8d7J11zLGS2WJTIZYUDA2Ue8QzwctA0bL0b_REI4seCEpyRKyW8qenDhY8SaK99cwILARh3B1Yvb8MOXncnAPgaluMGM_DoyeBuLeZ4Qf32akKcA7gGaw2f5CuXPsmO7nyY5ej78Zl-ylhzvppP9GFbf8Xq1E7iLQoet6gCYqfVZwZn0d4eKMAVL78Va7X502PL9_WpuXxKpaAHKMk2N3qJ_YRtsBnnDXGYRUTHUDnnWdNZL39juzGZmHR0v_WEs6mkn98b1frn6K2KRD7kn94ZaQ5DDX2eGFu7bdTCpm2TyzexMyfK7eEtUDca9mSVo6r2o0Ho3ULxtd6u1nAd0NkdF75JVisBBoONm3bKbGMRmFXm6BdR_zrOROqQp3hTR4FfmcI8IOnWLy0JTChta7x7mQ0Lv9mgsYu7jNW1VJtl0bcFBU_knCcziPCYlC_jaxPFTyFUpQq4tmscGxC_QcQV8uuJi4k_LW-sZY3FvAEfkRKuOSRbtes0K-NoyoRJPoMwDNlVmWNS6Y_2GMbDNLAjDMLnSNxrQBUgpHWGN0aWNEzFCjP0uKk2GUKMQK5lcuGXjy7VDpd176gglpDfXgWsABjOGqftxylM7c-VQ8Sr3muIvCs7AOSH-Sku7Se9Y_dbVisKYvZJeG_o5eMN47uit6voyiY_9cpC7a0KgjnVbCLrxSgof5yJz1VcvlyVy2]--></g></svg>