<?xml version="1.0" encoding="us-ascii" standalone="no"?><svg xmlns="http://www.w3.org/2000/svg" xmlns:xlink="http://www.w3.org/1999/xlink" contentStyleType="text/css" height="597px" preserveAspectRatio="none" style="width:408px;height:597px;background:#FFFFFF;" version="1.1" viewBox="0 0 408 597" width="408px" zoomAndPan="magnify"><defs/><g><text fill="#000000" font-family="sans-serif" font-size="14" font-weight="bold" lengthAdjust="spacing" textLength="224" x="93.25" y="29.9659">System Sequence Diagram (SSD)</text><rect fill="#FFFFFF" height="370.7481" style="stroke:#181818;stroke-width:1.0;" width="10" x="37.5" y="134.1358"/><rect fill="#FFFFFF" height="31.706" style="stroke:#181818;stroke-width:1.0;" width="10" x="353.5" y="157.8419"/><rect fill="#FFFFFF" height="31.706" style="stroke:#181818;stroke-width:1.0;" width="10" x="353.5" y="221.2539"/><rect fill="#FFFFFF" height="38.706" style="stroke:#181818;stroke-width:1.0;" width="10" x="353.5" y="311.3719"/><rect fill="#FFFFFF" height="122.0999" style="stroke:#181818;stroke-width:1.0;" width="10" x="353.5" y="381.784"/><rect fill="none" height="51.412" style="stroke:#000000;stroke-width:1.5;" width="391.5" x="10" y="267.9599"/><rect fill="none" height="100.0999" style="stroke:#000000;stroke-width:1.5;" width="391.5" x="10" y="396.784"/><line style="stroke:#181818;stroke-width:0.5;stroke-dasharray:5.0,5.0;" x1="42" x2="42" y1="124.1358" y2="513.8839"/><line style="stroke:#181818;stroke-width:0.5;stroke-dasharray:5.0,5.0;" x1="358.5" x2="358.5" y1="124.1358" y2="513.8839"/><text fill="#000000" font-family="sans-serif" font-size="14" lengthAdjust="spacing" textLength="39" x="20" y="120.0339">Client</text><ellipse cx="42.5" cy="53.5679" fill="#E3E3E3" rx="8" ry="8" style="stroke:#181818;stroke-width:0.5;"/><path d="M42.5,61.5679 L42.5,88.5679 M29.5,69.5679 L55.5,69.5679 M42.5,88.5679 L29.5,103.5679 M42.5,88.5679 L55.5,103.5679 " fill="none" style="stroke:#181818;stroke-width:0.5;"/><text fill="#000000" font-family="sans-serif" font-size="14" lengthAdjust="spacing" textLength="39" x="20" y="527.8498">Client</text><ellipse cx="42.5" cy="540.4518" fill="#E3E3E3" rx="8" ry="8" style="stroke:#181818;stroke-width:0.5;"/><path d="M42.5,548.4518 L42.5,575.4518 M29.5,556.4518 L55.5,556.4518 M42.5,575.4518 L29.5,590.4518 M42.5,575.4518 L55.5,590.4518 " fill="none" style="stroke:#181818;stroke-width:0.5;"/><rect fill="#E3E3E3" height="33.0679" rx="2.5" ry="2.5" style="stroke:#181818;stroke-width:0.5;" width="66" x="325.5" y="90.0679"/><text fill="#000000" font-family="sans-serif" font-size="14" lengthAdjust="spacing" textLength="52" x="332.5" y="112.0339">:System</text><rect fill="#E3E3E3" height="33.0679" rx="2.5" ry="2.5" style="stroke:#181818;stroke-width:0.5;" width="66" x="325.5" y="512.8839"/><text fill="#000000" font-family="sans-serif" font-size="14" lengthAdjust="spacing" textLength="52" x="332.5" y="534.8498">:System</text><rect fill="#FFFFFF" height="370.7481" style="stroke:#181818;stroke-width:1.0;" width="10" x="37.5" y="134.1358"/><rect fill="#FFFFFF" height="31.706" style="stroke:#181818;stroke-width:1.0;" width="10" x="353.5" y="157.8419"/><rect fill="#FFFFFF" height="31.706" style="stroke:#181818;stroke-width:1.0;" width="10" x="353.5" y="221.2539"/><rect fill="#FFFFFF" height="38.706" style="stroke:#181818;stroke-width:1.0;" width="10" x="353.5" y="311.3719"/><rect fill="#FFFFFF" height="122.0999" style="stroke:#181818;stroke-width:1.0;" width="10" x="353.5" y="381.784"/><polygon fill="#181818" points="341.5,153.8419,351.5,157.8419,341.5,161.8419,345.5,157.8419" style="stroke:#181818;stroke-width:1.0;"/><line style="stroke:#181818;stroke-width:1.0;" x1="47.5" x2="347.5" y1="157.8419" y2="157.8419"/><text fill="#000000" font-family="sans-serif" font-size="13" font-weight="bold" lengthAdjust="spacing" textLength="7" x="54.5" y="152.0328">1</text><text fill="#000000" font-family="sans-serif" font-size="13" lengthAdjust="spacing" textLength="260" x="65.5" y="152.0328">asks to place an order to purchase property</text><polygon fill="#181818" points="58.5,185.5479,48.5,189.5479,58.5,193.5479,54.5,189.5479" style="stroke:#181818;stroke-width:1.0;"/><line style="stroke:#181818;stroke-width:1.0;stroke-dasharray:2.0,2.0;" x1="52.5" x2="357.5" y1="189.5479" y2="189.5479"/><text fill="#000000" font-family="sans-serif" font-size="13" font-weight="bold" lengthAdjust="spacing" textLength="7" x="64.5" y="183.7389">2</text><text fill="#000000" font-family="sans-serif" font-size="13" lengthAdjust="spacing" textLength="168" x="75.5" y="183.7389">displays available properties</text><polygon fill="#181818" points="341.5,217.2539,351.5,221.2539,341.5,225.2539,345.5,221.2539" style="stroke:#181818;stroke-width:1.0;"/><line style="stroke:#181818;stroke-width:1.0;" x1="47.5" x2="347.5" y1="221.2539" y2="221.2539"/><text fill="#000000" font-family="sans-serif" font-size="13" font-weight="bold" lengthAdjust="spacing" textLength="7" x="54.5" y="215.4449">3</text><text fill="#000000" font-family="sans-serif" font-size="13" lengthAdjust="spacing" textLength="99" x="65.5" y="215.4449">selects  property</text><polygon fill="#181818" points="58.5,248.9599,48.5,252.9599,58.5,256.9599,54.5,252.9599" style="stroke:#181818;stroke-width:1.0;"/><line style="stroke:#181818;stroke-width:1.0;stroke-dasharray:2.0,2.0;" x1="52.5" x2="357.5" y1="252.9599" y2="252.9599"/><text fill="#000000" font-family="sans-serif" font-size="13" font-weight="bold" lengthAdjust="spacing" textLength="7" x="64.5" y="247.1509">4</text><text fill="#000000" font-family="sans-serif" font-size="13" lengthAdjust="spacing" textLength="177" x="75.5" y="247.1509">requests data (order amount)</text><path d="M10,267.9599 L83,267.9599 L83,277.6659 L73,287.6659 L10,287.6659 L10,267.9599 " fill="#EEEEEE" style="stroke:#000000;stroke-width:1.5;"/><rect fill="none" height="51.412" style="stroke:#000000;stroke-width:1.5;" width="391.5" x="10" y="267.9599"/><text fill="#000000" font-family="sans-serif" font-size="13" font-weight="bold" lengthAdjust="spacing" textLength="28" x="25" y="282.8569">loop</text><text fill="#000000" font-family="sans-serif" font-size="11" font-weight="bold" lengthAdjust="spacing" textLength="226" x="98" y="281.7188">[until orderAmount is "equal" or "lower"]</text><polygon fill="#181818" points="341.5,307.3719,351.5,311.3719,341.5,315.3719,345.5,311.3719" style="stroke:#181818;stroke-width:1.0;"/><line style="stroke:#181818;stroke-width:1.0;" x1="47.5" x2="347.5" y1="311.3719" y2="311.3719"/><text fill="#000000" font-family="sans-serif" font-size="13" font-weight="bold" lengthAdjust="spacing" textLength="7" x="54.5" y="305.5629">5</text><text fill="#000000" font-family="sans-serif" font-size="13" lengthAdjust="spacing" textLength="127" x="65.5" y="305.5629">types requested data</text><polygon fill="#181818" points="58.5,346.0779,48.5,350.0779,58.5,354.0779,54.5,350.0779" style="stroke:#181818;stroke-width:1.0;"/><line style="stroke:#181818;stroke-width:1.0;stroke-dasharray:2.0,2.0;" x1="52.5" x2="357.5" y1="350.0779" y2="350.0779"/><text fill="#000000" font-family="sans-serif" font-size="13" font-weight="bold" lengthAdjust="spacing" textLength="7" x="64.5" y="344.2689">6</text><text fill="#000000" font-family="sans-serif" font-size="13" lengthAdjust="spacing" textLength="132" x="75.5" y="344.2689">shows requested data</text><polygon fill="#181818" points="341.5,377.784,351.5,381.784,341.5,385.784,345.5,381.784" style="stroke:#181818;stroke-width:1.0;"/><line style="stroke:#181818;stroke-width:1.0;" x1="47.5" x2="347.5" y1="381.784" y2="381.784"/><text fill="#000000" font-family="sans-serif" font-size="13" font-weight="bold" lengthAdjust="spacing" textLength="7" x="54.5" y="375.975">7</text><text fill="#000000" font-family="sans-serif" font-size="13" lengthAdjust="spacing" textLength="78" x="65.5" y="375.975">submits data</text><path d="M10,396.784 L73,396.784 L73,406.49 L63,416.49 L10,416.49 L10,396.784 " fill="#EEEEEE" style="stroke:#000000;stroke-width:1.5;"/><rect fill="none" height="100.0999" style="stroke:#000000;stroke-width:1.5;" width="391.5" x="10" y="396.784"/><text fill="#000000" font-family="sans-serif" font-size="13" font-weight="bold" lengthAdjust="spacing" textLength="18" x="25" y="411.681">alt</text><text fill="#000000" font-family="sans-serif" font-size="11" font-weight="bold" lengthAdjust="spacing" textLength="139" x="88" y="410.5429">[orderAmount is "equal"]</text><polygon fill="#181818" points="58.5,436.196,48.5,440.196,58.5,444.196,54.5,440.196" style="stroke:#181818;stroke-width:1.0;"/><line style="stroke:#181818;stroke-width:1.0;stroke-dasharray:2.0,2.0;" x1="52.5" x2="352.5" y1="440.196" y2="440.196"/><text fill="#000000" font-family="sans-serif" font-size="13" font-weight="bold" lengthAdjust="spacing" textLength="7" x="64.5" y="434.387">8</text><text fill="#000000" font-family="sans-serif" font-size="13" lengthAdjust="spacing" textLength="271" x="75.5" y="434.387">shows message and shows operation success</text><line style="stroke:#000000;stroke-width:1.0;stroke-dasharray:2.0,2.0;" x1="10" x2="401.5" y1="449.196" y2="449.196"/><text fill="#000000" font-family="sans-serif" font-size="11" font-weight="bold" lengthAdjust="spacing" textLength="139" x="15" y="460.9549">[orderAmount is "lower"]</text><polygon fill="#181818" points="58.5,484.8839,48.5,488.8839,58.5,492.8839,54.5,488.8839" style="stroke:#181818;stroke-width:1.0;"/><line style="stroke:#181818;stroke-width:1.0;stroke-dasharray:2.0,2.0;" x1="52.5" x2="352.5" y1="488.8839" y2="488.8839"/><text fill="#000000" font-family="sans-serif" font-size="13" font-weight="bold" lengthAdjust="spacing" textLength="7" x="64.5" y="483.0749">9</text><text fill="#000000" font-family="sans-serif" font-size="13" lengthAdjust="spacing" textLength="148" x="75.5" y="483.0749">shows operation success</text><!--SRC=[fPDDReCm48Ntd6B4Abdq0bbKgfeRS8A9cO8LOxkU8H6txs1-KYaKjIghaJtplUTdp5Vh8oRie0i-c3Q5Za1IJmMlEn7D5HkgP704YOoWRzpt1cwn3dVh6_X0nrGKOaLRgu65EgZeioTl2CuMcx7zK5NdOr5WBy7ttOMIraP2WlBTMV9I0ZAON1Og8DROY5wWF4t4l3-LUTBUK6WPA42_gOQNryN3IKUk318WEbGhw26acb9UwPDfaGbY2f6I31cnSXSXcB-P-ABmMUO4jMNb3WnuG-lmubQO9SwJDMq2DumoEOsOuHzsqfWuAwD6GJXC9yKkz5wEUsvS216qoRefdRSy0fQXL2Aw4iPBSk5EgNmus3Y3395uiK5rzh7sRqgJh_VFn6suRoB_a6n_wUoSodwewEI71DQMVPyTCUkJqV-idbV6kqInmQiDOtJxeKRwPfxavfH_9_SCNzbBhiynVG40]--></g></svg>