<?xml version="1.0" encoding="us-ascii" standalone="no"?><svg xmlns="http://www.w3.org/2000/svg" xmlns:xlink="http://www.w3.org/1999/xlink" contentStyleType="text/css" height="795px" preserveAspectRatio="none" style="width:412px;height:795px;background:#FFFFFF;" version="1.1" viewBox="0 0 412 795" width="412px" zoomAndPan="magnify"><defs/><g><text fill="#000000" font-family="sans-serif" font-size="14" font-weight="bold" lengthAdjust="spacing" textLength="228" x="93.75" y="27.6738">System Sequence Diagram (SSD)</text><rect fill="#FFFFFF" height="578.8047" style="stroke:#181818;stroke-width:1.0;" width="10" x="56.5" y="127.2813"/><rect fill="#FFFFFF" height="43.0469" style="stroke:#181818;stroke-width:1.0;" width="10" x="339.5" y="147.8047"/><rect fill="#FFFFFF" height="43.0469" style="stroke:#181818;stroke-width:1.0;" width="10" x="339.5" y="266.4219"/><rect fill="#FFFFFF" height="28.5234" style="stroke:#181818;stroke-width:1.0;" width="10" x="339.5" y="361.5156"/><rect fill="#FFFFFF" height="28.5234" style="stroke:#181818;stroke-width:1.0;" width="10" x="339.5" y="418.5625"/><rect fill="#FFFFFF" height="150.4297" style="stroke:#181818;stroke-width:1.0;" width="10" x="339.5" y="475.6094"/><rect fill="#FFFFFF" height="28.5234" style="stroke:#181818;stroke-width:1.0;" width="10" x="339.5" y="668.5625"/><rect fill="none" height="435.1875" style="stroke:#000000;stroke-width:1.5;" width="396.5" x="10" y="205.8516"/><rect fill="none" height="404.6641" style="stroke:#000000;stroke-width:1.5;" width="376.5" x="20" y="229.375"/><rect fill="none" height="230.4766" style="stroke:#000000;stroke-width:1.5;" width="356.5" x="30" y="324.4688"/><line style="stroke:#181818;stroke-width:0.5;stroke-dasharray:5.0,5.0;" x1="61" x2="61" y1="117.2813" y2="715.0859"/><line style="stroke:#181818;stroke-width:0.5;stroke-dasharray:5.0,5.0;" x1="344.5" x2="344.5" y1="117.2813" y2="715.0859"/><text fill="#000000" font-family="sans-serif" font-size="14" lengthAdjust="spacing" textLength="37" x="40" y="114.3145">Agent</text><ellipse cx="61.5" cy="50.1406" fill="#E3E3E3" rx="8" ry="8" style="stroke:#181818;stroke-width:0.5;"/><path d="M61.5,58.1406 L61.5,85.1406 M48.5,66.1406 L74.5,66.1406 M61.5,85.1406 L48.5,100.1406 M61.5,85.1406 L74.5,100.1406 " fill="none" style="stroke:#181818;stroke-width:0.5;"/><text fill="#000000" font-family="sans-serif" font-size="14" lengthAdjust="spacing" textLength="37" x="40" y="726.7598">Agent</text><ellipse cx="61.5" cy="738.2266" fill="#E3E3E3" rx="8" ry="8" style="stroke:#181818;stroke-width:0.5;"/><path d="M61.5,746.2266 L61.5,773.2266 M48.5,754.2266 L74.5,754.2266 M61.5,773.2266 L48.5,788.2266 M61.5,773.2266 L74.5,788.2266 " fill="none" style="stroke:#181818;stroke-width:0.5;"/><rect fill="#E3E3E3" height="29.6406" rx="2.5" ry="2.5" style="stroke:#181818;stroke-width:0.5;" width="64" x="312.5" y="86.6406"/><text fill="#000000" font-family="sans-serif" font-size="14" lengthAdjust="spacing" textLength="50" x="319.5" y="106.3145">:System</text><rect fill="#E3E3E3" height="29.6406" rx="2.5" ry="2.5" style="stroke:#181818;stroke-width:0.5;" width="64" x="312.5" y="714.0859"/><text fill="#000000" font-family="sans-serif" font-size="14" lengthAdjust="spacing" textLength="50" x="319.5" y="733.7598">:System</text><rect fill="#FFFFFF" height="578.8047" style="stroke:#181818;stroke-width:1.0;" width="10" x="56.5" y="127.2813"/><rect fill="#FFFFFF" height="43.0469" style="stroke:#181818;stroke-width:1.0;" width="10" x="339.5" y="147.8047"/><rect fill="#FFFFFF" height="43.0469" style="stroke:#181818;stroke-width:1.0;" width="10" x="339.5" y="266.4219"/><rect fill="#FFFFFF" height="28.5234" style="stroke:#181818;stroke-width:1.0;" width="10" x="339.5" y="361.5156"/><rect fill="#FFFFFF" height="28.5234" style="stroke:#181818;stroke-width:1.0;" width="10" x="339.5" y="418.5625"/><rect fill="#FFFFFF" height="150.4297" style="stroke:#181818;stroke-width:1.0;" width="10" x="339.5" y="475.6094"/><rect fill="#FFFFFF" height="28.5234" style="stroke:#181818;stroke-width:1.0;" width="10" x="339.5" y="668.5625"/><polygon fill="#181818" points="327.5,143.8047,337.5,147.8047,327.5,151.8047,331.5,147.8047" style="stroke:#181818;stroke-width:1.0;"/><line style="stroke:#181818;stroke-width:1.0;" x1="66.5" x2="333.5" y1="147.8047" y2="147.8047"/><text fill="#000000" font-family="sans-serif" font-size="13" font-weight="bold" lengthAdjust="spacing" textLength="7" x="73.5" y="143.0498">1</text><text fill="#000000" font-family="sans-serif" font-size="13" lengthAdjust="spacing" textLength="152" x="84.5" y="143.0498">asks to review list of offers</text><polygon fill="#181818" points="77.5,186.8516,67.5,190.8516,77.5,194.8516,73.5,190.8516" style="stroke:#181818;stroke-width:1.0;"/><line style="stroke:#181818;stroke-width:1.0;stroke-dasharray:2.0,2.0;" x1="71.5" x2="343.5" y1="190.8516" y2="190.8516"/><text fill="#000000" font-family="sans-serif" font-size="13" font-weight="bold" lengthAdjust="spacing" textLength="7" x="83.5" y="178.835">2</text><text fill="#000000" font-family="sans-serif" font-size="13" lengthAdjust="spacing" textLength="234" x="94.5" y="171.5732">shows list of offers by most recent dates</text><text fill="#000000" font-family="sans-serif" font-size="13" lengthAdjust="spacing" textLength="196" x="94.5" y="186.0967">and asks to choose one or cancel</text><path d="M10,205.8516 L75,205.8516 L75,212.375 L65,222.375 L10,222.375 L10,205.8516 " fill="#EEEEEE" style="stroke:#000000;stroke-width:1.5;"/><rect fill="none" height="435.1875" style="stroke:#000000;stroke-width:1.5;" width="396.5" x="10" y="205.8516"/><text fill="#000000" font-family="sans-serif" font-size="13" font-weight="bold" lengthAdjust="spacing" textLength="20" x="25" y="218.6201">opt</text><path d="M20,229.375 L93,229.375 L93,235.8984 L83,245.8984 L20,245.8984 L20,229.375 " fill="#EEEEEE" style="stroke:#000000;stroke-width:1.5;"/><rect fill="none" height="404.6641" style="stroke:#000000;stroke-width:1.5;" width="376.5" x="20" y="229.375"/><text fill="#000000" font-family="sans-serif" font-size="13" font-weight="bold" lengthAdjust="spacing" textLength="28" x="35" y="242.1436">loop</text><polygon fill="#181818" points="327.5,262.4219,337.5,266.4219,327.5,270.4219,331.5,266.4219" style="stroke:#181818;stroke-width:1.0;"/><line style="stroke:#181818;stroke-width:1.0;" x1="66.5" x2="333.5" y1="266.4219" y2="266.4219"/><text fill="#000000" font-family="sans-serif" font-size="13" font-weight="bold" lengthAdjust="spacing" textLength="7" x="73.5" y="261.667">3</text><text fill="#000000" font-family="sans-serif" font-size="13" lengthAdjust="spacing" textLength="136" x="84.5" y="261.667">selects request number</text><polygon fill="#181818" points="77.5,305.4688,67.5,309.4688,77.5,313.4688,73.5,309.4688" style="stroke:#181818;stroke-width:1.0;"/><line style="stroke:#181818;stroke-width:1.0;stroke-dasharray:2.0,2.0;" x1="71.5" x2="343.5" y1="309.4688" y2="309.4688"/><text fill="#000000" font-family="sans-serif" font-size="13" font-weight="bold" lengthAdjust="spacing" textLength="7" x="83.5" y="297.4521">4</text><text fill="#000000" font-family="sans-serif" font-size="13" lengthAdjust="spacing" textLength="214" x="94.5" y="290.1904">shows three options: accept request,</text><text fill="#000000" font-family="sans-serif" font-size="13" lengthAdjust="spacing" textLength="143" x="94.5" y="304.7139">delete request or cancel.</text><path d="M30,324.4688 L91,324.4688 L91,330.9922 L81,340.9922 L30,340.9922 L30,324.4688 " fill="#EEEEEE" style="stroke:#000000;stroke-width:1.5;"/><rect fill="none" height="230.4766" style="stroke:#000000;stroke-width:1.5;" width="356.5" x="30" y="324.4688"/><text fill="#000000" font-family="sans-serif" font-size="13" font-weight="bold" lengthAdjust="spacing" textLength="16" x="45" y="337.2373">alt</text><text fill="#000000" font-family="sans-serif" font-size="11" font-weight="bold" lengthAdjust="spacing" textLength="138" x="106" y="336.4268">[option = accept request]</text><polygon fill="#181818" points="327.5,357.5156,337.5,361.5156,327.5,365.5156,331.5,361.5156" style="stroke:#181818;stroke-width:1.0;"/><line style="stroke:#181818;stroke-width:1.0;" x1="66.5" x2="333.5" y1="361.5156" y2="361.5156"/><text fill="#000000" font-family="sans-serif" font-size="13" font-weight="bold" lengthAdjust="spacing" textLength="7" x="73.5" y="356.7607">5</text><text fill="#000000" font-family="sans-serif" font-size="13" lengthAdjust="spacing" textLength="139" x="84.5" y="356.7607">chooses accept request</text><polygon fill="#181818" points="77.5,386.0391,67.5,390.0391,77.5,394.0391,73.5,390.0391" style="stroke:#181818;stroke-width:1.0;"/><line style="stroke:#181818;stroke-width:1.0;stroke-dasharray:2.0,2.0;" x1="71.5" x2="343.5" y1="390.0391" y2="390.0391"/><text fill="#000000" font-family="sans-serif" font-size="13" font-weight="bold" lengthAdjust="spacing" textLength="7" x="83.5" y="385.2842">6</text><text fill="#000000" font-family="sans-serif" font-size="13" lengthAdjust="spacing" textLength="211" x="94.5" y="385.2842">shows and asks type of commission</text><polygon fill="#181818" points="327.5,414.5625,337.5,418.5625,327.5,422.5625,331.5,418.5625" style="stroke:#181818;stroke-width:1.0;"/><line style="stroke:#181818;stroke-width:1.0;" x1="66.5" x2="333.5" y1="418.5625" y2="418.5625"/><text fill="#000000" font-family="sans-serif" font-size="13" font-weight="bold" lengthAdjust="spacing" textLength="7" x="73.5" y="413.8076">7</text><text fill="#000000" font-family="sans-serif" font-size="13" lengthAdjust="spacing" textLength="159" x="84.5" y="413.8076">selects type of commission</text><polygon fill="#181818" points="77.5,443.0859,67.5,447.0859,77.5,451.0859,73.5,447.0859" style="stroke:#181818;stroke-width:1.0;"/><line style="stroke:#181818;stroke-width:1.0;stroke-dasharray:2.0,2.0;" x1="71.5" x2="343.5" y1="447.0859" y2="447.0859"/><text fill="#000000" font-family="sans-serif" font-size="13" font-weight="bold" lengthAdjust="spacing" textLength="7" x="83.5" y="442.3311">8</text><text fill="#000000" font-family="sans-serif" font-size="13" lengthAdjust="spacing" textLength="135" x="94.5" y="442.3311">asks commission value</text><polygon fill="#181818" points="327.5,471.6094,337.5,475.6094,327.5,479.6094,331.5,475.6094" style="stroke:#181818;stroke-width:1.0;"/><line style="stroke:#181818;stroke-width:1.0;" x1="66.5" x2="333.5" y1="475.6094" y2="475.6094"/><text fill="#000000" font-family="sans-serif" font-size="13" font-weight="bold" lengthAdjust="spacing" textLength="7" x="73.5" y="470.8545">9</text><text fill="#000000" font-family="sans-serif" font-size="13" lengthAdjust="spacing" textLength="146" x="84.5" y="470.8545">inserts commission value</text><polygon fill="#181818" points="77.5,500.1328,67.5,504.1328,77.5,508.1328,73.5,504.1328" style="stroke:#181818;stroke-width:1.0;"/><line style="stroke:#181818;stroke-width:1.0;stroke-dasharray:2.0,2.0;" x1="71.5" x2="338.5" y1="504.1328" y2="504.1328"/><text fill="#000000" font-family="sans-serif" font-size="13" font-weight="bold" lengthAdjust="spacing" textLength="14" x="83.5" y="499.3779">10</text><text fill="#000000" font-family="sans-serif" font-size="13" lengthAdjust="spacing" textLength="226" x="101.5" y="499.3779">confirms that the add has been created</text><line style="stroke:#000000;stroke-width:1.0;stroke-dasharray:2.0,2.0;" x1="30" x2="386.5" y1="513.1328" y2="513.1328"/><text fill="#000000" font-family="sans-serif" font-size="11" font-weight="bold" lengthAdjust="spacing" textLength="137" x="35" y="523.0908">[option = delete request]</text><polygon fill="#181818" points="327.5,542.9453,337.5,546.9453,327.5,550.9453,331.5,546.9453" style="stroke:#181818;stroke-width:1.0;"/><line style="stroke:#181818;stroke-width:1.0;" x1="66.5" x2="333.5" y1="546.9453" y2="546.9453"/><text fill="#000000" font-family="sans-serif" font-size="13" font-weight="bold" lengthAdjust="spacing" textLength="14" x="73.5" y="542.1904">11</text><text fill="#000000" font-family="sans-serif" font-size="13" lengthAdjust="spacing" textLength="135" x="91.5" y="542.1904">chooses delete request</text><polygon fill="#181818" points="77.5,622.0391,67.5,626.0391,77.5,630.0391,73.5,626.0391" style="stroke:#181818;stroke-width:1.0;"/><line style="stroke:#181818;stroke-width:1.0;stroke-dasharray:2.0,2.0;" x1="71.5" x2="343.5" y1="626.0391" y2="626.0391"/><text fill="#000000" font-family="sans-serif" font-size="13" font-weight="bold" lengthAdjust="spacing" textLength="14" x="83.5" y="599.499">12</text><text fill="#000000" font-family="sans-serif" font-size="13" lengthAdjust="spacing" textLength="179" x="101.5" y="577.7139">confirms that the add has been</text><text fill="#000000" font-family="sans-serif" font-size="13" lengthAdjust="spacing" textLength="200" x="105.5" y="592.2373">deleted and shows refreshed list of</text><text fill="#000000" font-family="sans-serif" font-size="13" lengthAdjust="spacing" textLength="183" x="101.5" y="606.7607">offers by most recent dates and</text><text fill="#000000" font-family="sans-serif" font-size="13" lengthAdjust="spacing" textLength="171" x="105.5" y="621.2842">asks to choose one or cancel</text><polygon fill="#181818" points="327.5,664.5625,337.5,668.5625,327.5,672.5625,331.5,668.5625" style="stroke:#181818;stroke-width:1.0;"/><line style="stroke:#181818;stroke-width:1.0;" x1="66.5" x2="333.5" y1="668.5625" y2="668.5625"/><text fill="#000000" font-family="sans-serif" font-size="13" font-weight="bold" lengthAdjust="spacing" textLength="14" x="73.5" y="663.8076">13</text><text fill="#000000" font-family="sans-serif" font-size="13" lengthAdjust="spacing" textLength="99" x="91.5" y="663.8076">selects to cancel</text><polygon fill="#181818" points="77.5,693.0859,67.5,697.0859,77.5,701.0859,73.5,697.0859" style="stroke:#181818;stroke-width:1.0;"/><line style="stroke:#181818;stroke-width:1.0;stroke-dasharray:2.0,2.0;" x1="71.5" x2="343.5" y1="697.0859" y2="697.0859"/><text fill="#000000" font-family="sans-serif" font-size="13" font-weight="bold" lengthAdjust="spacing" textLength="14" x="83.5" y="692.3311">14</text><text fill="#000000" font-family="sans-serif" font-size="13" lengthAdjust="spacing" textLength="140" x="101.5" y="692.3311">goes to the admin menu</text><!--SRC=[dPJ1Zjf038RlynGMfrRgzW6GMgdIzWcuSXac9XanOsV73eYthnD8iikoH3GYA0psv__tE2E7IAqlFaDcuj0KpWXQEdGo_TFwSF0rRlIS40e6zLIdzm7I-8fFaMhO-oJed4QrqCrP53DiyAr32WYlqTTz-BVDvlMxSxvJfYxliDXpK2wm-bCZwGgymD_S9ZuZEgkWCSJMay9gVK4E4PV78JKUlUASui2kyHUy_1w5h2tj8A1i9euHJv2YAF3UFdiiCgHDj17VBrxpNmmrOTVccazomu3TsHffAzOcimALeGIsvAcQYeU6MH2Ox2uGlBKc3MNwgy9F2hXLbvXRDmNTzIQOR6l4AbkxJS6rjMFEBNPSl-DjjAPDiHfMFZA9DIy4R7Na_zXIPHKLfuAJcPzttCmwabwHyEi6ESLyvV7IENcKzfNDfMsSD-ZSOh-VWNEE8gRp0-EEeyKTMK0-BtaGEjFWw5E7_oqpac3H1U3p8WFJFfRSZv5N-qBmLGMDlRaxH89Gq73L1C8aE0_6nz5QzZ1EnatU_CeWLSuz5hoWU4jNUZKCosLi2kuBIcDhupcmfKSdWMKQvycJmFNY-tjvqlWzvTD9ij20cd50N9pdI92HkaT7a_i7]--></g></svg>