<?xml version="1.0" encoding="us-ascii" standalone="no"?><svg xmlns="http://www.w3.org/2000/svg" xmlns:xlink="http://www.w3.org/1999/xlink" contentStyleType="text/css" height="830px" preserveAspectRatio="none" style="width:675px;height:830px;background:#FFFFFF;" version="1.1" viewBox="0 0 675 830" width="675px" zoomAndPan="magnify"><defs/><g><text fill="#000000" font-family="sans-serif" font-size="14" font-weight="bold" lengthAdjust="spacing" textLength="146" x="257.75" y="22.6738">US017 Class Diagram</text><!--class ListDealsUI--><g id="elem_ListDealsUI"><rect codeLine="13" fill="#F1F1F1" height="48" id="ListDealsUI" rx="2.5" ry="2.5" style="stroke:#181818;stroke-width:0.5;" width="102" x="199.5" y="43.6406"/><ellipse cx="214.5" cy="59.6406" fill="#ADD1B2" rx="11" ry="11" style="stroke:#181818;stroke-width:1.0;"/><path d="M217.2656,55.5156 Q217.4219,55.2969 217.6094,55.1875 Q217.7969,55.0781 218.0156,55.0781 Q218.3906,55.0781 218.625,55.3438 Q218.8594,55.5938 218.8594,56.2031 L218.8594,57.6563 Q218.8594,58.2656 218.625,58.5313 Q218.3906,58.7969 218.0156,58.7969 Q217.6719,58.7969 217.4688,58.5938 Q217.2656,58.4063 217.1563,57.8906 Q217.1094,57.5313 216.9219,57.3438 Q216.5938,56.9688 215.9844,56.75 Q215.375,56.5313 214.75,56.5313 Q213.9844,56.5313 213.3438,56.8594 Q212.7188,57.1875 212.2188,57.9375 Q211.7344,58.6875 211.7344,59.7188 L211.7344,60.8125 Q211.7344,62.0469 212.625,62.875 Q213.5156,63.6875 215.1094,63.6875 Q216.0469,63.6875 216.7031,63.4375 Q217.0938,63.2813 217.5156,62.8438 Q217.7813,62.5781 217.9219,62.5 Q218.0781,62.4219 218.2813,62.4219 Q218.6094,62.4219 218.8594,62.6875 Q219.125,62.9375 219.125,63.2813 Q219.125,63.625 218.7813,64.0313 Q218.2813,64.6094 217.4844,64.9375 Q216.4063,65.3906 215.1094,65.3906 Q213.5938,65.3906 212.3906,64.7656 Q211.4063,64.2656 210.7188,63.2031 Q210.0313,62.125 210.0313,60.8438 L210.0313,59.6875 Q210.0313,58.3594 210.6406,57.2188 Q211.2656,56.0625 212.3594,55.4531 Q213.4531,54.8281 214.6875,54.8281 Q215.4219,54.8281 216.0625,55 Q216.7188,55.1563 217.2656,55.5156 Z " fill="#000000"/><text fill="#000000" font-family="sans-serif" font-size="14" lengthAdjust="spacing" textLength="70" x="228.5" y="64.4941">ListDealsUI</text><line style="stroke:#181818;stroke-width:0.5;" x1="200.5" x2="300.5" y1="75.6406" y2="75.6406"/><line style="stroke:#181818;stroke-width:0.5;" x1="200.5" x2="300.5" y1="83.6406" y2="83.6406"/></g><!--class ListDealsController--><g id="elem_ListDealsController"><rect codeLine="17" fill="#F1F1F1" height="126.2031" id="ListDealsController" rx="2.5" ry="2.5" style="stroke:#181818;stroke-width:0.5;" width="173" x="164" y="152.6406"/><ellipse cx="188.45" cy="168.6406" fill="#ADD1B2" rx="11" ry="11" style="stroke:#181818;stroke-width:1.0;"/><path d="M191.2156,164.5156 Q191.3719,164.2969 191.5594,164.1875 Q191.7469,164.0781 191.9656,164.0781 Q192.3406,164.0781 192.575,164.3438 Q192.8094,164.5938 192.8094,165.2031 L192.8094,166.6563 Q192.8094,167.2656 192.575,167.5313 Q192.3406,167.7969 191.9656,167.7969 Q191.6219,167.7969 191.4188,167.5938 Q191.2156,167.4063 191.1063,166.8906 Q191.0594,166.5313 190.8719,166.3438 Q190.5438,165.9688 189.9344,165.75 Q189.325,165.5313 188.7,165.5313 Q187.9344,165.5313 187.2938,165.8594 Q186.6688,166.1875 186.1688,166.9375 Q185.6844,167.6875 185.6844,168.7188 L185.6844,169.8125 Q185.6844,171.0469 186.575,171.875 Q187.4656,172.6875 189.0594,172.6875 Q189.9969,172.6875 190.6531,172.4375 Q191.0438,172.2813 191.4656,171.8438 Q191.7313,171.5781 191.8719,171.5 Q192.0281,171.4219 192.2313,171.4219 Q192.5594,171.4219 192.8094,171.6875 Q193.075,171.9375 193.075,172.2813 Q193.075,172.625 192.7313,173.0313 Q192.2313,173.6094 191.4344,173.9375 Q190.3563,174.3906 189.0594,174.3906 Q187.5438,174.3906 186.3406,173.7656 Q185.3563,173.2656 184.6688,172.2031 Q183.9813,171.125 183.9813,169.8438 L183.9813,168.6875 Q183.9813,167.3594 184.5906,166.2188 Q185.2156,165.0625 186.3094,164.4531 Q187.4031,163.8281 188.6375,163.8281 Q189.3719,163.8281 190.0125,164 Q190.6688,164.1563 191.2156,164.5156 Z " fill="#000000"/><text fill="#000000" font-family="sans-serif" font-size="14" lengthAdjust="spacing" textLength="120" x="204.55" y="173.4941">ListDealsController</text><line style="stroke:#181818;stroke-width:0.5;" x1="165" x2="336" y1="184.6406" y2="184.6406"/><line style="stroke:#181818;stroke-width:0.5;" x1="165" x2="336" y1="192.6406" y2="192.6406"/><text fill="#000000" font-family="sans-serif" font-size="14" lengthAdjust="spacing" textLength="138" x="170" y="209.3145">+ListDealsController()</text><text fill="#000000" font-family="sans-serif" font-size="14" lengthAdjust="spacing" textLength="153" x="170" y="224.9551">+ascendingBubbleSort()</text><text fill="#000000" font-family="sans-serif" font-size="14" lengthAdjust="spacing" textLength="161" x="170" y="240.5957">+descendingBubbleSort()</text><text fill="#000000" font-family="sans-serif" font-size="14" lengthAdjust="spacing" textLength="139" x="170" y="256.2363">+ascendingTreeSort()</text><text fill="#000000" font-family="sans-serif" font-size="14" lengthAdjust="spacing" textLength="147" x="170" y="271.877">+descendingTreeSort()</text></g><!--class Sort--><g id="elem_Sort"><rect codeLine="25" fill="#F1F1F1" height="110.5625" id="Sort" rx="2.5" ry="2.5" style="stroke:#181818;stroke-width:0.5;" width="173" x="7" y="354.6406"/><ellipse cx="76.25" cy="370.6406" fill="#ADD1B2" rx="11" ry="11" style="stroke:#181818;stroke-width:1.0;"/><path d="M79.0156,366.5156 Q79.1719,366.2969 79.3594,366.1875 Q79.5469,366.0781 79.7656,366.0781 Q80.1406,366.0781 80.375,366.3438 Q80.6094,366.5938 80.6094,367.2031 L80.6094,368.6563 Q80.6094,369.2656 80.375,369.5313 Q80.1406,369.7969 79.7656,369.7969 Q79.4219,369.7969 79.2188,369.5938 Q79.0156,369.4063 78.9063,368.8906 Q78.8594,368.5313 78.6719,368.3438 Q78.3438,367.9688 77.7344,367.75 Q77.125,367.5313 76.5,367.5313 Q75.7344,367.5313 75.0938,367.8594 Q74.4688,368.1875 73.9688,368.9375 Q73.4844,369.6875 73.4844,370.7188 L73.4844,371.8125 Q73.4844,373.0469 74.375,373.875 Q75.2656,374.6875 76.8594,374.6875 Q77.7969,374.6875 78.4531,374.4375 Q78.8438,374.2813 79.2656,373.8438 Q79.5313,373.5781 79.6719,373.5 Q79.8281,373.4219 80.0313,373.4219 Q80.3594,373.4219 80.6094,373.6875 Q80.875,373.9375 80.875,374.2813 Q80.875,374.625 80.5313,375.0313 Q80.0313,375.6094 79.2344,375.9375 Q78.1563,376.3906 76.8594,376.3906 Q75.3438,376.3906 74.1406,375.7656 Q73.1563,375.2656 72.4688,374.2031 Q71.7813,373.125 71.7813,371.8438 L71.7813,370.6875 Q71.7813,369.3594 72.3906,368.2188 Q73.0156,367.0625 74.1094,366.4531 Q75.2031,365.8281 76.4375,365.8281 Q77.1719,365.8281 77.8125,366 Q78.4688,366.1563 79.0156,366.5156 Z " fill="#000000"/><text fill="#000000" font-family="sans-serif" font-size="14" lengthAdjust="spacing" textLength="26" x="96.75" y="375.4941">Sort</text><line style="stroke:#181818;stroke-width:0.5;" x1="8" x2="179" y1="386.6406" y2="386.6406"/><line style="stroke:#181818;stroke-width:0.5;" x1="8" x2="179" y1="394.6406" y2="394.6406"/><text fill="#000000" font-family="sans-serif" font-size="14" lengthAdjust="spacing" textLength="153" x="13" y="411.3145">+ascendingBubbleSort()</text><text fill="#000000" font-family="sans-serif" font-size="14" lengthAdjust="spacing" textLength="161" x="13" y="426.9551">+descendingBubbleSort()</text><text fill="#000000" font-family="sans-serif" font-size="14" lengthAdjust="spacing" textLength="139" x="13" y="442.5957">+ascendingTreeSort()</text><text fill="#000000" font-family="sans-serif" font-size="14" lengthAdjust="spacing" textLength="147" x="13" y="458.2363">+descendingTreeSort()</text></g><!--class Order--><g id="elem_Order"><rect codeLine="34" fill="#F1F1F1" height="79.2813" id="Order" rx="2.5" ry="2.5" style="stroke:#181818;stroke-width:0.5;" width="147" x="206" y="744.6406"/><ellipse cx="256.75" cy="760.6406" fill="#ADD1B2" rx="11" ry="11" style="stroke:#181818;stroke-width:1.0;"/><path d="M259.5156,756.5156 Q259.6719,756.2969 259.8594,756.1875 Q260.0469,756.0781 260.2656,756.0781 Q260.6406,756.0781 260.875,756.3438 Q261.1094,756.5938 261.1094,757.2031 L261.1094,758.6563 Q261.1094,759.2656 260.875,759.5313 Q260.6406,759.7969 260.2656,759.7969 Q259.9219,759.7969 259.7188,759.5938 Q259.5156,759.4063 259.4063,758.8906 Q259.3594,758.5313 259.1719,758.3438 Q258.8438,757.9688 258.2344,757.75 Q257.625,757.5313 257,757.5313 Q256.2344,757.5313 255.5938,757.8594 Q254.9688,758.1875 254.4688,758.9375 Q253.9844,759.6875 253.9844,760.7188 L253.9844,761.8125 Q253.9844,763.0469 254.875,763.875 Q255.7656,764.6875 257.3594,764.6875 Q258.2969,764.6875 258.9531,764.4375 Q259.3438,764.2813 259.7656,763.8438 Q260.0313,763.5781 260.1719,763.5 Q260.3281,763.4219 260.5313,763.4219 Q260.8594,763.4219 261.1094,763.6875 Q261.375,763.9375 261.375,764.2813 Q261.375,764.625 261.0313,765.0313 Q260.5313,765.6094 259.7344,765.9375 Q258.6563,766.3906 257.3594,766.3906 Q255.8438,766.3906 254.6406,765.7656 Q253.6563,765.2656 252.9688,764.2031 Q252.2813,763.125 252.2813,761.8438 L252.2813,760.6875 Q252.2813,759.3594 252.8906,758.2188 Q253.5156,757.0625 254.6094,756.4531 Q255.7031,755.8281 256.9375,755.8281 Q257.6719,755.8281 258.3125,756 Q258.9688,756.1563 259.5156,756.5156 Z " fill="#000000"/><text fill="#000000" font-family="sans-serif" font-size="14" lengthAdjust="spacing" textLength="37" x="277.25" y="765.4941">Order</text><line style="stroke:#181818;stroke-width:0.5;" x1="207" x2="352" y1="776.6406" y2="776.6406"/><text fill="#000000" font-family="sans-serif" font-size="14" lengthAdjust="spacing" textLength="135" x="212" y="793.3145">-Integer orderAmount</text><text fill="#000000" font-family="sans-serif" font-size="14" lengthAdjust="spacing" textLength="113" x="212" y="808.9551">-String clientEmail</text><line style="stroke:#181818;stroke-width:0.5;" x1="207" x2="352" y1="815.9219" y2="815.9219"/></g><!--class OrderRepository--><g id="elem_OrderRepository"><rect codeLine="40" fill="#F1F1F1" height="141.8438" id="OrderRepository" rx="2.5" ry="2.5" style="stroke:#181818;stroke-width:0.5;" width="390" x="84.5" y="541.6406"/><ellipse cx="222.75" cy="557.6406" fill="#ADD1B2" rx="11" ry="11" style="stroke:#181818;stroke-width:1.0;"/><path d="M225.5156,553.5156 Q225.6719,553.2969 225.8594,553.1875 Q226.0469,553.0781 226.2656,553.0781 Q226.6406,553.0781 226.875,553.3438 Q227.1094,553.5938 227.1094,554.2031 L227.1094,555.6563 Q227.1094,556.2656 226.875,556.5313 Q226.6406,556.7969 226.2656,556.7969 Q225.9219,556.7969 225.7188,556.5938 Q225.5156,556.4063 225.4063,555.8906 Q225.3594,555.5313 225.1719,555.3438 Q224.8438,554.9688 224.2344,554.75 Q223.625,554.5313 223,554.5313 Q222.2344,554.5313 221.5938,554.8594 Q220.9688,555.1875 220.4688,555.9375 Q219.9844,556.6875 219.9844,557.7188 L219.9844,558.8125 Q219.9844,560.0469 220.875,560.875 Q221.7656,561.6875 223.3594,561.6875 Q224.2969,561.6875 224.9531,561.4375 Q225.3438,561.2813 225.7656,560.8438 Q226.0313,560.5781 226.1719,560.5 Q226.3281,560.4219 226.5313,560.4219 Q226.8594,560.4219 227.1094,560.6875 Q227.375,560.9375 227.375,561.2813 Q227.375,561.625 227.0313,562.0313 Q226.5313,562.6094 225.7344,562.9375 Q224.6563,563.3906 223.3594,563.3906 Q221.8438,563.3906 220.6406,562.7656 Q219.6563,562.2656 218.9688,561.2031 Q218.2813,560.125 218.2813,558.8438 L218.2813,557.6875 Q218.2813,556.3594 218.8906,555.2188 Q219.5156,554.0625 220.6094,553.4531 Q221.7031,552.8281 222.9375,552.8281 Q223.6719,552.8281 224.3125,553 Q224.9688,553.1563 225.5156,553.5156 Z " fill="#000000"/><text fill="#000000" font-family="sans-serif" font-size="14" lengthAdjust="spacing" textLength="105" x="243.25" y="562.4941">OrderRepository</text><line style="stroke:#181818;stroke-width:0.5;" x1="85.5" x2="473.5" y1="573.6406" y2="573.6406"/><line style="stroke:#181818;stroke-width:0.5;" x1="85.5" x2="473.5" y1="581.6406" y2="581.6406"/><text fill="#000000" font-family="sans-serif" font-size="14" lengthAdjust="spacing" textLength="307" x="90.5" y="598.3145">+placeOrder(property, orderAmount, clientEmail)</text><text fill="#000000" font-family="sans-serif" font-size="14" lengthAdjust="spacing" textLength="82" x="90.5" y="613.9551">+getOrders()</text><text fill="#000000" font-family="sans-serif" font-size="14" lengthAdjust="spacing" textLength="324" x="90.5" y="629.5957">+checkOrderAmountIsValid(property, orderAmount)</text><text fill="#000000" font-family="sans-serif" font-size="14" lengthAdjust="spacing" textLength="110" x="90.5" y="645.2363">-addOrder(order)</text><text fill="#000000" font-family="sans-serif" font-size="14" lengthAdjust="spacing" textLength="135" x="90.5" y="660.877">-validateOrder(order)</text><text fill="#000000" font-family="sans-serif" font-size="14" lengthAdjust="spacing" textLength="378" x="90.5" y="676.5176">-checkClientMadeOrderSameProperty(clientEmail, property)</text></g><!--class Repositories--><g id="elem_Repositories"><rect codeLine="49" fill="#F1F1F1" height="94.9219" id="Repositories" rx="2.5" ry="2.5" style="stroke:#181818;stroke-width:0.5;" width="194" x="378.5" y="362.6406"/><ellipse cx="431.75" cy="378.6406" fill="#ADD1B2" rx="11" ry="11" style="stroke:#181818;stroke-width:1.0;"/><path d="M434.5156,374.5156 Q434.6719,374.2969 434.8594,374.1875 Q435.0469,374.0781 435.2656,374.0781 Q435.6406,374.0781 435.875,374.3438 Q436.1094,374.5938 436.1094,375.2031 L436.1094,376.6563 Q436.1094,377.2656 435.875,377.5313 Q435.6406,377.7969 435.2656,377.7969 Q434.9219,377.7969 434.7188,377.5938 Q434.5156,377.4063 434.4063,376.8906 Q434.3594,376.5313 434.1719,376.3438 Q433.8438,375.9688 433.2344,375.75 Q432.625,375.5313 432,375.5313 Q431.2344,375.5313 430.5938,375.8594 Q429.9688,376.1875 429.4688,376.9375 Q428.9844,377.6875 428.9844,378.7188 L428.9844,379.8125 Q428.9844,381.0469 429.875,381.875 Q430.7656,382.6875 432.3594,382.6875 Q433.2969,382.6875 433.9531,382.4375 Q434.3438,382.2813 434.7656,381.8438 Q435.0313,381.5781 435.1719,381.5 Q435.3281,381.4219 435.5313,381.4219 Q435.8594,381.4219 436.1094,381.6875 Q436.375,381.9375 436.375,382.2813 Q436.375,382.625 436.0313,383.0313 Q435.5313,383.6094 434.7344,383.9375 Q433.6563,384.3906 432.3594,384.3906 Q430.8438,384.3906 429.6406,383.7656 Q428.6563,383.2656 427.9688,382.2031 Q427.2813,381.125 427.2813,379.8438 L427.2813,378.6875 Q427.2813,377.3594 427.8906,376.2188 Q428.5156,375.0625 429.6094,374.4531 Q430.7031,373.8281 431.9375,373.8281 Q432.6719,373.8281 433.3125,374 Q433.9688,374.1563 434.5156,374.5156 Z " fill="#000000"/><text fill="#000000" font-family="sans-serif" font-size="14" lengthAdjust="spacing" textLength="79" x="452.25" y="383.4941">Repositories</text><line style="stroke:#181818;stroke-width:0.5;" x1="379.5" x2="571.5" y1="394.6406" y2="394.6406"/><line style="stroke:#181818;stroke-width:0.5;" x1="379.5" x2="571.5" y1="402.6406" y2="402.6406"/><text fill="#000000" font-family="sans-serif" font-size="14" lengthAdjust="spacing" textLength="94" x="384.5" y="419.3145">-Repositories()</text><text fill="#000000" font-family="sans-serif" font-size="14" lengthAdjust="spacing" textLength="182" x="384.5" y="434.9551">+getInstance() : Repositories</text><text fill="#000000" font-family="sans-serif" font-size="14" lengthAdjust="spacing" textLength="143" x="384.5" y="450.5957">+getOrderRepository()</text></g><!--link ListDealsUI to ListDealsController--><g id="link_ListDealsUI_ListDealsController"><path codeLine="56" d="M250.5,91.7706 C250.5,106.9006 250.5,127.4906 250.5,147.4906 " fill="none" id="ListDealsUI-to-ListDealsController" style="stroke:#181818;stroke-width:1.0;"/><polygon fill="#181818" points="250.5,152.5506,254.5,143.5506,250.5,147.5506,246.5,143.5506,250.5,152.5506" style="stroke:#181818;stroke-width:1.0;"/></g><!--link ListDealsController to Repositories--><g id="link_ListDealsController_Repositories"><path codeLine="58" d="M323.24,278.8706 C353.59,304.8406 388.37,334.6006 417.02,359.1106 " fill="none" id="ListDealsController-to-Repositories" style="stroke:#181818;stroke-width:1.0;stroke-dasharray:7.0,7.0;"/><polygon fill="#181818" points="420.84,362.3806,416.5906,353.4957,417.0367,359.1349,411.3974,359.581,420.84,362.3806" style="stroke:#181818;stroke-width:1.0;"/><text fill="#000000" font-family="sans-serif" font-size="13" lengthAdjust="spacing" textLength="67" x="377.5" y="321.4092">repositories</text></g><!--link ListDealsController to OrderRepository--><g id="link_ListDealsController_OrderRepository"><path codeLine="59" d="M254.75,278.8306 C259.78,352.5806 267.5,465.6406 267.5,465.6406 C267.5,465.6406 270.38,500.6406 273.31,536.3606 " fill="none" id="ListDealsController-to-OrderRepository" style="stroke:#181818;stroke-width:1.0;stroke-dasharray:7.0,7.0;"/><polygon fill="#181818" points="273.75,541.6306,277.0174,532.3396,273.3501,536.6466,269.0431,532.9793,273.75,541.6306" style="stroke:#181818;stroke-width:1.0;"/><text fill="#000000" font-family="sans-serif" font-size="13" lengthAdjust="spacing" textLength="91" x="268.5" y="414.9092">orderRepository</text></g><!--link ListDealsController to Sort--><g id="link_ListDealsController_Sort"><path codeLine="60" d="M199.74,278.8706 C180.94,301.9306 159.7,327.9706 141.19,350.6706 " fill="none" id="ListDealsController-to-Sort" style="stroke:#181818;stroke-width:1.0;stroke-dasharray:7.0,7.0;"/><polygon fill="#181818" points="138,354.5806,146.7798,350.118,141.153,350.7001,140.5709,345.0732,138,354.5806" style="stroke:#181818;stroke-width:1.0;"/></g><!--link Repositories to Repositories--><g id="link_Repositories_Repositories"><path codeLine="62" d="M572.78,393.5006 C592.98,395.2506 607.5,400.8006 607.5,410.1406 C607.5,418.6806 595.37,424.0506 577.86,426.2506 " fill="none" id="Repositories-to-Repositories" style="stroke:#181818;stroke-width:1.0;"/><polygon fill="#181818" points="572.78,426.7806,582.1525,429.8067,577.752,426.252,581.3067,421.8515,572.78,426.7806" style="stroke:#181818;stroke-width:1.0;"/><text fill="#000000" font-family="sans-serif" font-size="13" lengthAdjust="spacing" textLength="49" x="613.5" y="414.9092">instance</text></g><!--link Repositories to OrderRepository--><g id="link_Repositories_OrderRepository"><path codeLine="63" d="M430.04,457.6406 C406.77,481.4506 377.89,510.9906 351.67,537.8106 " fill="none" id="Repositories-to-OrderRepository" style="stroke:#181818;stroke-width:1.0;"/><polygon fill="#181818" points="348.15,541.4106,357.3062,537.7824,351.6496,537.8396,351.5925,532.183,348.15,541.4106" style="stroke:#181818;stroke-width:1.0;"/><text fill="#000000" font-family="sans-serif" font-size="13" lengthAdjust="spacing" textLength="91" x="390.5" y="508.4092">orderRepository</text><text fill="#000000" font-family="sans-serif" font-size="13" lengthAdjust="spacing" textLength="7" x="348.2758" y="530.6599">1</text></g><!--link OrderRepository to Order--><g id="link_OrderRepository_Order"><path codeLine="65" d="M279.5,684.0506 C279.5,702.6806 279.5,722.2606 279.5,739.0506 " fill="none" id="OrderRepository-to-Order" style="stroke:#181818;stroke-width:1.0;"/><polygon fill="#181818" points="279.5,744.1706,283.5,735.1706,279.5,739.1706,275.5,735.1706,279.5,744.1706" style="stroke:#181818;stroke-width:1.0;"/><text fill="#000000" font-family="sans-serif" font-size="13" lengthAdjust="spacing" textLength="5" x="274.0703" y="733.887">*</text></g><!--SRC=[lLCzRzim4DtvAmvPBBTsa4m5CWH8dGm2KgIeckuqUP49Kpo1FBTGW_xtKh8KqOeCTAesthjtxzs75c5lN2szhA0YHshdgK9WVq0n8hLKUrbYmOr5yAXOkjAc2M4dDVqoheGNQKEAMEEGcngX9jkq3x6O0SapYOIbh0pXZjcRxO4nL-GAynlXIWWs73qy5rVNds3JPi6zaMNa2B6m-CB01DwKEmPjMgU6d11TENWqWUyn-dlEXNWNt91ZJzQYVnKGluypIBOyGZ8eT3gs-_cmtLeielq1qdWUUwDzztY6b21_1elj-_K_2ejH-idhOHvho1rZYJukAmRlAZeuxf4YBYhkNbc3ZXygQUoqnZUiAHWct_ITG6sbmWxBQayrUcvMQUbLMgwt2oLoHmb30w1sgFPF8oqFFwGrUhxcilShjJugTzWG_TaI9UCCrAbiEZzVf3vc5BB2hxrAbdXTmQ2TxF2jVuC1Xe6cmInfCNSX_c4AioNSd2HDfZ0EzNWk8hbmMAzlvuuxIHg3S7bvUshn9lxcYUuvpiH6fD5fv2oplJKXJZHRnnCJff_4-yIBwuj_K1VJb8xweQV6YVq5]--></g></svg>