<?xml version="1.0" encoding="us-ascii" standalone="no"?><svg xmlns="http://www.w3.org/2000/svg" xmlns:xlink="http://www.w3.org/1999/xlink" contentStyleType="text/css" height="1797px" preserveAspectRatio="none" style="width:1247px;height:1797px;background:#FFFFFF;" version="1.1" viewBox="0 0 1247 1797" width="1247px" zoomAndPan="magnify"><defs/><g><rect fill="#FFFFFF" height="1609.6265" style="stroke:#181818;stroke-width:1.0;" width="10" x="88.5" y="94.0679"/><rect fill="#FFFFFF" height="364.8341" style="stroke:#181818;stroke-width:1.0;" width="10" x="449.5" y="117.7739"/><rect fill="#FFFFFF" height="31.706" style="stroke:#181818;stroke-width:1.0;" width="10" x="449.5" y="541.0201"/><rect fill="#FFFFFF" height="221.9421" style="stroke:#181818;stroke-width:1.0;" width="10" x="449.5" y="631.1381"/><rect fill="#FFFFFF" height="221.9421" style="stroke:#181818;stroke-width:1.0;" width="10" x="449.5" y="901.7681"/><rect fill="#FFFFFF" height="221.9421" style="stroke:#181818;stroke-width:1.0;" width="10" x="449.5" y="1189.1223"/><rect fill="#FFFFFF" height="221.9421" style="stroke:#181818;stroke-width:1.0;" width="10" x="449.5" y="1459.7523"/><rect fill="#FFFFFF" height="129.186" style="stroke:#181818;stroke-width:1.0;" width="10" x="666.5" y="159.4799"/><rect fill="#FFFFFF" height="95.118" style="stroke:#181818;stroke-width:1.0;" width="10" x="666.5" y="320.3719"/><rect fill="#FFFFFF" height="158.5301" style="stroke:#181818;stroke-width:1.0;" width="10" x="666.5" y="662.8441"/><rect fill="#FFFFFF" height="158.5301" style="stroke:#181818;stroke-width:1.0;" width="10" x="666.5" y="933.4742"/><rect fill="#FFFFFF" height="158.5301" style="stroke:#181818;stroke-width:1.0;" width="10" x="666.5" y="1220.8283"/><rect fill="#FFFFFF" height="158.5301" style="stroke:#181818;stroke-width:1.0;" width="10" x="666.5" y="1491.4583"/><rect fill="#FFFFFF" height="31.706" style="stroke:#181818;stroke-width:1.0;" width="10" x="799.5" y="193.5479"/><rect fill="#FFFFFF" height="31.706" style="stroke:#181818;stroke-width:1.0;" width="10" x="909" y="256.9599"/><rect fill="#FFFFFF" height="31.706" style="stroke:#181818;stroke-width:1.0;" width="10" x="1031" y="352.0779"/><rect fill="#FFFFFF" height="95.118" style="stroke:#181818;stroke-width:1.0;" width="10" x="1031" y="694.5501"/><rect fill="#FFFFFF" height="95.118" style="stroke:#181818;stroke-width:1.0;" width="10" x="1031" y="965.1802"/><rect fill="#FFFFFF" height="95.118" style="stroke:#181818;stroke-width:1.0;" width="10" x="1031" y="1252.5343"/><rect fill="#FFFFFF" height="95.118" style="stroke:#181818;stroke-width:1.0;" width="10" x="1031" y="1523.1643"/><rect fill="#FFFFFF" height="31.706" style="stroke:#181818;stroke-width:1.0;" width="10" x="1160" y="726.2562"/><rect fill="#FFFFFF" height="31.706" style="stroke:#181818;stroke-width:1.0;" width="10" x="1160" y="996.8862"/><rect fill="#FFFFFF" height="31.706" style="stroke:#181818;stroke-width:1.0;" width="10" x="1160" y="1284.2403"/><rect fill="#FFFFFF" height="31.706" style="stroke:#181818;stroke-width:1.0;" width="10" x="1160" y="1554.8704"/><rect fill="none" height="1199.0864" style="stroke:#000000;stroke-width:1.5;" width="1231" x="10" y="497.608"/><rect fill="none" height="543.9842" style="stroke:#000000;stroke-width:1.5;" width="1211" x="20" y="587.7261"/><rect fill="none" height="543.9842" style="stroke:#000000;stroke-width:1.5;" width="1211" x="20" y="1145.7103"/><line style="stroke:#181818;stroke-width:0.5;stroke-dasharray:5.0,5.0;" x1="93" x2="93" y1="84.0679" y2="1713.6944"/><line style="stroke:#181818;stroke-width:0.5;stroke-dasharray:5.0,5.0;" x1="454" x2="454" y1="84.0679" y2="1713.6944"/><line style="stroke:#181818;stroke-width:0.5;stroke-dasharray:5.0,5.0;" x1="671" x2="671" y1="157.8079" y2="1713.6944"/><line style="stroke:#181818;stroke-width:0.5;stroke-dasharray:5.0,5.0;" x1="804" x2="804" y1="84.0679" y2="1713.6944"/><line style="stroke:#181818;stroke-width:0.5;stroke-dasharray:5.0,5.0;" x1="914" x2="914" y1="84.0679" y2="1713.6944"/><line style="stroke:#181818;stroke-width:0.5;stroke-dasharray:5.0,5.0;" x1="1036" x2="1036" y1="84.0679" y2="1713.6944"/><line style="stroke:#181818;stroke-width:0.5;stroke-dasharray:5.0,5.0;" x1="1165" x2="1165" y1="84.0679" y2="1713.6944"/><text fill="#000000" font-family="sans-serif" font-size="14" lengthAdjust="spacing" textLength="121" x="30" y="79.9659">Network Manager</text><ellipse cx="93.5" cy="13.5" fill="#E3E3E3" rx="8" ry="8" style="stroke:#181818;stroke-width:0.5;"/><path d="M93.5,21.5 L93.5,48.5 M80.5,29.5 L106.5,29.5 M93.5,48.5 L80.5,63.5 M93.5,48.5 L106.5,63.5 " fill="none" style="stroke:#181818;stroke-width:0.5;"/><text fill="#000000" font-family="sans-serif" font-size="14" lengthAdjust="spacing" textLength="121" x="30" y="1727.6604">Network Manager</text><ellipse cx="93.5" cy="1740.2623" fill="#E3E3E3" rx="8" ry="8" style="stroke:#181818;stroke-width:0.5;"/><path d="M93.5,1748.2623 L93.5,1775.2623 M80.5,1756.2623 L106.5,1756.2623 M93.5,1775.2623 L80.5,1790.2623 M93.5,1775.2623 L106.5,1790.2623 " fill="none" style="stroke:#181818;stroke-width:0.5;"/><rect fill="#E3E3E3" height="33.0679" rx="2.5" ry="2.5" style="stroke:#181818;stroke-width:0.5;" width="93" x="408" y="50"/><text fill="#000000" font-family="sans-serif" font-size="14" lengthAdjust="spacing" textLength="79" x="415" y="71.9659">:ListDealsUI</text><rect fill="#E3E3E3" height="33.0679" rx="2.5" ry="2.5" style="stroke:#181818;stroke-width:0.5;" width="93" x="408" y="1712.6944"/><text fill="#000000" font-family="sans-serif" font-size="14" lengthAdjust="spacing" textLength="79" x="415" y="1734.6604">:ListDealsUI</text><rect fill="#E3E3E3" height="33.0679" rx="2.5" ry="2.5" style="stroke:#181818;stroke-width:0.5;" width="145" x="599" y="1712.6944"/><text fill="#000000" font-family="sans-serif" font-size="14" lengthAdjust="spacing" textLength="131" x="606" y="1734.6604">:ListDealsController</text><rect fill="#E3E3E3" height="33.0679" rx="2.5" ry="2.5" style="stroke:#181818;stroke-width:0.5;" width="101" x="754" y="50"/><text fill="#000000" font-family="sans-serif" font-size="14" lengthAdjust="spacing" textLength="87" x="761" y="71.9659">:Repositories</text><rect fill="#E3E3E3" height="33.0679" rx="2.5" ry="2.5" style="stroke:#181818;stroke-width:0.5;" width="101" x="754" y="1712.6944"/><text fill="#000000" font-family="sans-serif" font-size="14" lengthAdjust="spacing" textLength="87" x="761" y="1734.6604">:Repositories</text><rect fill="#E3E3E3" height="52.1358" rx="2.5" ry="2.5" style="stroke:#181818;stroke-width:0.5;" width="98" x="865" y="30.9321"/><text fill="#000000" font-family="sans-serif" font-size="14" lengthAdjust="spacing" textLength="84" x="872" y="52.898">repositories:</text><text fill="#000000" font-family="sans-serif" font-size="14" lengthAdjust="spacing" textLength="83" x="872.5" y="71.9659">Repositories</text><rect fill="#E3E3E3" height="52.1358" rx="2.5" ry="2.5" style="stroke:#181818;stroke-width:0.5;" width="98" x="865" y="1712.6944"/><text fill="#000000" font-family="sans-serif" font-size="14" lengthAdjust="spacing" textLength="84" x="872" y="1734.6604">repositories:</text><text fill="#000000" font-family="sans-serif" font-size="14" lengthAdjust="spacing" textLength="83" x="872.5" y="1753.7283">Repositories</text><rect fill="#E3E3E3" height="52.1358" rx="2.5" ry="2.5" style="stroke:#181818;stroke-width:0.5;" width="126" x="973" y="30.9321"/><text fill="#000000" font-family="sans-serif" font-size="14" lengthAdjust="spacing" textLength="112" x="980" y="52.898">orderRepository:</text><text fill="#000000" font-family="sans-serif" font-size="14" lengthAdjust="spacing" textLength="111" x="980.5" y="71.9659">OrderRepository</text><rect fill="#E3E3E3" height="52.1358" rx="2.5" ry="2.5" style="stroke:#181818;stroke-width:0.5;" width="126" x="973" y="1712.6944"/><text fill="#000000" font-family="sans-serif" font-size="14" lengthAdjust="spacing" textLength="112" x="980" y="1734.6604">orderRepository:</text><text fill="#000000" font-family="sans-serif" font-size="14" lengthAdjust="spacing" textLength="111" x="980.5" y="1753.7283">OrderRepository</text><rect fill="#E3E3E3" height="33.0679" rx="2.5" ry="2.5" style="stroke:#181818;stroke-width:0.5;" width="112" x="1109" y="50"/><text fill="#000000" font-family="sans-serif" font-size="14" lengthAdjust="spacing" textLength="98" x="1116" y="71.9659">:SortAlgorithm</text><rect fill="#E3E3E3" height="33.0679" rx="2.5" ry="2.5" style="stroke:#181818;stroke-width:0.5;" width="112" x="1109" y="1712.6944"/><text fill="#000000" font-family="sans-serif" font-size="14" lengthAdjust="spacing" textLength="98" x="1116" y="1734.6604">:SortAlgorithm</text><rect fill="#FFFFFF" height="1609.6265" style="stroke:#181818;stroke-width:1.0;" width="10" x="88.5" y="94.0679"/><rect fill="#FFFFFF" height="364.8341" style="stroke:#181818;stroke-width:1.0;" width="10" x="449.5" y="117.7739"/><rect fill="#FFFFFF" height="31.706" style="stroke:#181818;stroke-width:1.0;" width="10" x="449.5" y="541.0201"/><rect fill="#FFFFFF" height="221.9421" style="stroke:#181818;stroke-width:1.0;" width="10" x="449.5" y="631.1381"/><rect fill="#FFFFFF" height="221.9421" style="stroke:#181818;stroke-width:1.0;" width="10" x="449.5" y="901.7681"/><rect fill="#FFFFFF" height="221.9421" style="stroke:#181818;stroke-width:1.0;" width="10" x="449.5" y="1189.1223"/><rect fill="#FFFFFF" height="221.9421" style="stroke:#181818;stroke-width:1.0;" width="10" x="449.5" y="1459.7523"/><rect fill="#FFFFFF" height="129.186" style="stroke:#181818;stroke-width:1.0;" width="10" x="666.5" y="159.4799"/><rect fill="#FFFFFF" height="95.118" style="stroke:#181818;stroke-width:1.0;" width="10" x="666.5" y="320.3719"/><rect fill="#FFFFFF" height="158.5301" style="stroke:#181818;stroke-width:1.0;" width="10" x="666.5" y="662.8441"/><rect fill="#FFFFFF" height="158.5301" style="stroke:#181818;stroke-width:1.0;" width="10" x="666.5" y="933.4742"/><rect fill="#FFFFFF" height="158.5301" style="stroke:#181818;stroke-width:1.0;" width="10" x="666.5" y="1220.8283"/><rect fill="#FFFFFF" height="158.5301" style="stroke:#181818;stroke-width:1.0;" width="10" x="666.5" y="1491.4583"/><rect fill="#FFFFFF" height="31.706" style="stroke:#181818;stroke-width:1.0;" width="10" x="799.5" y="193.5479"/><rect fill="#FFFFFF" height="31.706" style="stroke:#181818;stroke-width:1.0;" width="10" x="909" y="256.9599"/><rect fill="#FFFFFF" height="31.706" style="stroke:#181818;stroke-width:1.0;" width="10" x="1031" y="352.0779"/><rect fill="#FFFFFF" height="95.118" style="stroke:#181818;stroke-width:1.0;" width="10" x="1031" y="694.5501"/><rect fill="#FFFFFF" height="95.118" style="stroke:#181818;stroke-width:1.0;" width="10" x="1031" y="965.1802"/><rect fill="#FFFFFF" height="95.118" style="stroke:#181818;stroke-width:1.0;" width="10" x="1031" y="1252.5343"/><rect fill="#FFFFFF" height="95.118" style="stroke:#181818;stroke-width:1.0;" width="10" x="1031" y="1523.1643"/><rect fill="#FFFFFF" height="31.706" style="stroke:#181818;stroke-width:1.0;" width="10" x="1160" y="726.2562"/><rect fill="#FFFFFF" height="31.706" style="stroke:#181818;stroke-width:1.0;" width="10" x="1160" y="996.8862"/><rect fill="#FFFFFF" height="31.706" style="stroke:#181818;stroke-width:1.0;" width="10" x="1160" y="1284.2403"/><rect fill="#FFFFFF" height="31.706" style="stroke:#181818;stroke-width:1.0;" width="10" x="1160" y="1554.8704"/><polygon fill="#181818" points="437.5,113.7739,447.5,117.7739,437.5,121.7739,441.5,117.7739" style="stroke:#181818;stroke-width:1.0;"/><line style="stroke:#181818;stroke-width:1.0;" x1="98.5" x2="443.5" y1="117.7739" y2="117.7739"/><text fill="#000000" font-family="sans-serif" font-size="13" font-weight="bold" lengthAdjust="spacing" textLength="7" x="105.5" y="111.9649">1</text><text fill="#000000" font-family="sans-serif" font-size="13" lengthAdjust="spacing" textLength="143" x="116.5" y="111.9649">ask to list all deals made</text><polygon fill="#181818" points="587,145.4799,597,149.4799,587,153.4799,591,149.4799" style="stroke:#181818;stroke-width:1.0;"/><line style="stroke:#181818;stroke-width:1.0;" x1="459.5" x2="593" y1="149.4799" y2="149.4799"/><text fill="#000000" font-family="sans-serif" font-size="13" font-weight="bold" lengthAdjust="spacing" textLength="7" x="466.5" y="143.6709">2</text><text fill="#000000" font-family="sans-serif" font-size="13" lengthAdjust="spacing" textLength="37" x="477.5" y="143.6709">create</text><rect fill="#E3E3E3" height="33.0679" rx="2.5" ry="2.5" style="stroke:#181818;stroke-width:0.5;" width="145" x="599" y="125.7739"/><text fill="#000000" font-family="sans-serif" font-size="14" lengthAdjust="spacing" textLength="131" x="606" y="147.7399">:ListDealsController</text><polygon fill="#181818" points="787.5,189.5479,797.5,193.5479,787.5,197.5479,791.5,193.5479" style="stroke:#181818;stroke-width:1.0;"/><line style="stroke:#181818;stroke-width:1.0;" x1="676.5" x2="793.5" y1="193.5479" y2="193.5479"/><text fill="#000000" font-family="sans-serif" font-size="13" font-weight="bold" lengthAdjust="spacing" textLength="7" x="683.5" y="187.7389">3</text><text fill="#000000" font-family="sans-serif" font-size="13" lengthAdjust="spacing" textLength="79" x="694.5" y="187.7389">getInstance()</text><polygon fill="#181818" points="687.5,221.2539,677.5,225.2539,687.5,229.2539,683.5,225.2539" style="stroke:#181818;stroke-width:1.0;"/><line style="stroke:#181818;stroke-width:1.0;stroke-dasharray:2.0,2.0;" x1="681.5" x2="803.5" y1="225.2539" y2="225.2539"/><text fill="#000000" font-family="sans-serif" font-size="13" font-weight="bold" lengthAdjust="spacing" textLength="7" x="693.5" y="219.4449">4</text><text fill="#000000" font-family="sans-serif" font-size="13" lengthAdjust="spacing" textLength="71" x="704.5" y="219.4449">repositories</text><polygon fill="#181818" points="897,252.9599,907,256.9599,897,260.9599,901,256.9599" style="stroke:#181818;stroke-width:1.0;"/><line style="stroke:#181818;stroke-width:1.0;" x1="676.5" x2="903" y1="256.9599" y2="256.9599"/><text fill="#000000" font-family="sans-serif" font-size="13" font-weight="bold" lengthAdjust="spacing" textLength="7" x="683.5" y="251.1509">5</text><text fill="#000000" font-family="sans-serif" font-size="13" lengthAdjust="spacing" textLength="128" x="694.5" y="251.1509">getOrderRepository()</text><polygon fill="#181818" points="682.5,284.6659,672.5,288.6659,682.5,292.6659,678.5,288.6659" style="stroke:#181818;stroke-width:1.0;"/><line style="stroke:#181818;stroke-width:1.0;stroke-dasharray:2.0,2.0;" x1="676.5" x2="913" y1="288.6659" y2="288.6659"/><text fill="#000000" font-family="sans-serif" font-size="13" font-weight="bold" lengthAdjust="spacing" textLength="7" x="688.5" y="282.8569">6</text><text fill="#000000" font-family="sans-serif" font-size="13" lengthAdjust="spacing" textLength="98" x="699.5" y="282.8569">orderRepository</text><polygon fill="#181818" points="654.5,316.3719,664.5,320.3719,654.5,324.3719,658.5,320.3719" style="stroke:#181818;stroke-width:1.0;"/><line style="stroke:#181818;stroke-width:1.0;" x1="459.5" x2="660.5" y1="320.3719" y2="320.3719"/><text fill="#000000" font-family="sans-serif" font-size="13" font-weight="bold" lengthAdjust="spacing" textLength="7" x="466.5" y="314.5629">7</text><text fill="#000000" font-family="sans-serif" font-size="13" lengthAdjust="spacing" textLength="177" x="477.5" y="314.5629">getDealsMadeSortedByDate()</text><polygon fill="#181818" points="1019,348.0779,1029,352.0779,1019,356.0779,1023,352.0779" style="stroke:#181818;stroke-width:1.0;"/><line style="stroke:#181818;stroke-width:1.0;" x1="676.5" x2="1025" y1="352.0779" y2="352.0779"/><text fill="#000000" font-family="sans-serif" font-size="13" font-weight="bold" lengthAdjust="spacing" textLength="7" x="683.5" y="346.2689">8</text><text fill="#000000" font-family="sans-serif" font-size="13" lengthAdjust="spacing" textLength="177" x="694.5" y="346.2689">getDealsMadeSortedByDate()</text><polygon fill="#181818" points="687.5,379.784,677.5,383.784,687.5,387.784,683.5,383.784" style="stroke:#181818;stroke-width:1.0;"/><line style="stroke:#181818;stroke-width:1.0;stroke-dasharray:2.0,2.0;" x1="681.5" x2="1035" y1="383.784" y2="383.784"/><text fill="#000000" font-family="sans-serif" font-size="13" font-weight="bold" lengthAdjust="spacing" textLength="7" x="693.5" y="377.975">9</text><text fill="#000000" font-family="sans-serif" font-size="13" lengthAdjust="spacing" textLength="64" x="704.5" y="377.975">listedDeals</text><polygon fill="#181818" points="470.5,411.49,460.5,415.49,470.5,419.49,466.5,415.49" style="stroke:#181818;stroke-width:1.0;"/><line style="stroke:#181818;stroke-width:1.0;stroke-dasharray:2.0,2.0;" x1="464.5" x2="670.5" y1="415.49" y2="415.49"/><text fill="#000000" font-family="sans-serif" font-size="13" font-weight="bold" lengthAdjust="spacing" textLength="14" x="476.5" y="409.681">10</text><text fill="#000000" font-family="sans-serif" font-size="13" lengthAdjust="spacing" textLength="115" x="494.5" y="409.681">ListOfAllDealsMade</text><polygon fill="#181818" points="109.5,478.608,99.5,482.608,109.5,486.608,105.5,482.608" style="stroke:#181818;stroke-width:1.0;"/><line style="stroke:#181818;stroke-width:1.0;stroke-dasharray:2.0,2.0;" x1="103.5" x2="453.5" y1="482.608" y2="482.608"/><text fill="#000000" font-family="sans-serif" font-size="13" font-weight="bold" lengthAdjust="spacing" textLength="14" x="115.5" y="459.093">11</text><text fill="#000000" font-family="sans-serif" font-size="13" lengthAdjust="spacing" textLength="242" x="133.5" y="441.387">displays available properties sorted from</text><text fill="#000000" font-family="sans-serif" font-size="13" lengthAdjust="spacing" textLength="255" x="133.5" y="459.093">the most recent to the oldest one and asks</text><text fill="#000000" font-family="sans-serif" font-size="13" lengthAdjust="spacing" textLength="309" x="133.5" y="476.799">to select one of the two sorting algorithms available</text><path d="M10,497.608 L73,497.608 L73,507.314 L63,517.314 L10,517.314 L10,497.608 " fill="#EEEEEE" style="stroke:#000000;stroke-width:1.5;"/><rect fill="none" height="1199.0864" style="stroke:#000000;stroke-width:1.5;" width="1231" x="10" y="497.608"/><text fill="#000000" font-family="sans-serif" font-size="13" font-weight="bold" lengthAdjust="spacing" textLength="18" x="25" y="512.505">alt</text><text fill="#000000" font-family="sans-serif" font-size="11" font-weight="bold" lengthAdjust="spacing" textLength="121" x="88" y="511.3669">[sort with bubbleSort]</text><polygon fill="#181818" points="437.5,537.0201,447.5,541.0201,437.5,545.0201,441.5,541.0201" style="stroke:#181818;stroke-width:1.0;"/><line style="stroke:#181818;stroke-width:1.0;" x1="98.5" x2="443.5" y1="541.0201" y2="541.0201"/><text fill="#000000" font-family="sans-serif" font-size="13" font-weight="bold" lengthAdjust="spacing" textLength="14" x="105.5" y="535.2111">12</text><text fill="#000000" font-family="sans-serif" font-size="13" lengthAdjust="spacing" textLength="172" x="123.5" y="535.2111">Selects bubblesort algorithm</text><polygon fill="#181818" points="109.5,568.7261,99.5,572.7261,109.5,576.7261,105.5,572.7261" style="stroke:#181818;stroke-width:1.0;"/><line style="stroke:#181818;stroke-width:1.0;stroke-dasharray:2.0,2.0;" x1="103.5" x2="453.5" y1="572.7261" y2="572.7261"/><text fill="#000000" font-family="sans-serif" font-size="13" font-weight="bold" lengthAdjust="spacing" textLength="14" x="115.5" y="566.9171">13</text><text fill="#000000" font-family="sans-serif" font-size="13" lengthAdjust="spacing" textLength="302" x="133.5" y="566.9171">asks to select sort order (ascending or descending)</text><path d="M20,587.7261 L83,587.7261 L83,597.4321 L73,607.4321 L20,607.4321 L20,587.7261 " fill="#EEEEEE" style="stroke:#000000;stroke-width:1.5;"/><rect fill="none" height="543.9842" style="stroke:#000000;stroke-width:1.5;" width="1211" x="20" y="587.7261"/><text fill="#000000" font-family="sans-serif" font-size="13" font-weight="bold" lengthAdjust="spacing" textLength="18" x="35" y="602.6231">alt</text><text fill="#000000" font-family="sans-serif" font-size="11" font-weight="bold" lengthAdjust="spacing" textLength="162" x="98" y="601.485">[bubbleSort ascending order]</text><polygon fill="#181818" points="437.5,627.1381,447.5,631.1381,437.5,635.1381,441.5,631.1381" style="stroke:#181818;stroke-width:1.0;"/><line style="stroke:#181818;stroke-width:1.0;" x1="98.5" x2="443.5" y1="631.1381" y2="631.1381"/><text fill="#000000" font-family="sans-serif" font-size="13" font-weight="bold" lengthAdjust="spacing" textLength="14" x="105.5" y="625.3291">14</text><text fill="#000000" font-family="sans-serif" font-size="13" lengthAdjust="spacing" textLength="134" x="123.5" y="625.3291">select ascending order</text><polygon fill="#181818" points="654.5,658.8441,664.5,662.8441,654.5,666.8441,658.5,662.8441" style="stroke:#181818;stroke-width:1.0;"/><line style="stroke:#181818;stroke-width:1.0;" x1="459.5" x2="660.5" y1="662.8441" y2="662.8441"/><text fill="#000000" font-family="sans-serif" font-size="13" font-weight="bold" lengthAdjust="spacing" textLength="14" x="466.5" y="657.0351">15</text><text fill="#000000" font-family="sans-serif" font-size="13" lengthAdjust="spacing" textLength="75" x="484.5" y="657.0351">bubbleSort()</text><polygon fill="#181818" points="1019,690.5501,1029,694.5501,1019,698.5501,1023,694.5501" style="stroke:#181818;stroke-width:1.0;"/><line style="stroke:#181818;stroke-width:1.0;" x1="676.5" x2="1025" y1="694.5501" y2="694.5501"/><text fill="#000000" font-family="sans-serif" font-size="13" font-weight="bold" lengthAdjust="spacing" textLength="14" x="683.5" y="688.7411">16</text><text fill="#000000" font-family="sans-serif" font-size="13" lengthAdjust="spacing" textLength="75" x="701.5" y="688.7411">bubbleSort()</text><polygon fill="#181818" points="1148,722.2562,1158,726.2562,1148,730.2562,1152,726.2562" style="stroke:#181818;stroke-width:1.0;"/><line style="stroke:#181818;stroke-width:1.0;" x1="1041" x2="1154" y1="726.2562" y2="726.2562"/><text fill="#000000" font-family="sans-serif" font-size="13" font-weight="bold" lengthAdjust="spacing" textLength="14" x="1048" y="720.4472">17</text><text fill="#000000" font-family="sans-serif" font-size="13" lengthAdjust="spacing" textLength="75" x="1066" y="720.4472">bubbleSort()</text><polygon fill="#181818" points="1052,753.9622,1042,757.9622,1052,761.9622,1048,757.9622" style="stroke:#181818;stroke-width:1.0;"/><line style="stroke:#181818;stroke-width:1.0;stroke-dasharray:2.0,2.0;" x1="1046" x2="1164" y1="757.9622" y2="757.9622"/><text fill="#000000" font-family="sans-serif" font-size="13" font-weight="bold" lengthAdjust="spacing" textLength="14" x="1058" y="752.1532">18</text><text fill="#000000" font-family="sans-serif" font-size="13" lengthAdjust="spacing" textLength="71" x="1076" y="752.1532">sortedDeals</text><polygon fill="#181818" points="687.5,785.6682,677.5,789.6682,687.5,793.6682,683.5,789.6682" style="stroke:#181818;stroke-width:1.0;"/><line style="stroke:#181818;stroke-width:1.0;stroke-dasharray:2.0,2.0;" x1="681.5" x2="1035" y1="789.6682" y2="789.6682"/><text fill="#000000" font-family="sans-serif" font-size="13" font-weight="bold" lengthAdjust="spacing" textLength="14" x="693.5" y="783.8592">19</text><text fill="#000000" font-family="sans-serif" font-size="13" lengthAdjust="spacing" textLength="71" x="711.5" y="783.8592">sortedDeals</text><polygon fill="#181818" points="470.5,817.3742,460.5,821.3742,470.5,825.3742,466.5,821.3742" style="stroke:#181818;stroke-width:1.0;"/><line style="stroke:#181818;stroke-width:1.0;stroke-dasharray:2.0,2.0;" x1="464.5" x2="670.5" y1="821.3742" y2="821.3742"/><text fill="#000000" font-family="sans-serif" font-size="13" font-weight="bold" lengthAdjust="spacing" textLength="14" x="476.5" y="815.5652">20</text><text fill="#000000" font-family="sans-serif" font-size="13" lengthAdjust="spacing" textLength="71" x="494.5" y="815.5652">sortedDeals</text><polygon fill="#181818" points="109.5,849.0802,99.5,853.0802,109.5,857.0802,105.5,853.0802" style="stroke:#181818;stroke-width:1.0;"/><line style="stroke:#181818;stroke-width:1.0;stroke-dasharray:2.0,2.0;" x1="103.5" x2="453.5" y1="853.0802" y2="853.0802"/><text fill="#000000" font-family="sans-serif" font-size="13" font-weight="bold" lengthAdjust="spacing" textLength="14" x="115.5" y="847.2712">21</text><text fill="#000000" font-family="sans-serif" font-size="13" lengthAdjust="spacing" textLength="253" x="133.5" y="847.2712">displays sorted deals with ascending order</text><line style="stroke:#000000;stroke-width:1.0;stroke-dasharray:2.0,2.0;" x1="20" x2="1231" y1="862.0802" y2="862.0802"/><text fill="#000000" font-family="sans-serif" font-size="11" font-weight="bold" lengthAdjust="spacing" textLength="169" x="25" y="873.8391">[bubbleSort descending order]</text><polygon fill="#181818" points="437.5,897.7681,447.5,901.7681,437.5,905.7681,441.5,901.7681" style="stroke:#181818;stroke-width:1.0;"/><line style="stroke:#181818;stroke-width:1.0;" x1="98.5" x2="443.5" y1="901.7681" y2="901.7681"/><text fill="#000000" font-family="sans-serif" font-size="13" font-weight="bold" lengthAdjust="spacing" textLength="14" x="105.5" y="895.9591">22</text><text fill="#000000" font-family="sans-serif" font-size="13" lengthAdjust="spacing" textLength="142" x="123.5" y="895.9591">select descending order</text><polygon fill="#181818" points="654.5,929.4742,664.5,933.4742,654.5,937.4742,658.5,933.4742" style="stroke:#181818;stroke-width:1.0;"/><line style="stroke:#181818;stroke-width:1.0;" x1="459.5" x2="660.5" y1="933.4742" y2="933.4742"/><text fill="#000000" font-family="sans-serif" font-size="13" font-weight="bold" lengthAdjust="spacing" textLength="14" x="466.5" y="927.6651">23</text><text fill="#000000" font-family="sans-serif" font-size="13" lengthAdjust="spacing" textLength="75" x="484.5" y="927.6651">bubbleSort()</text><polygon fill="#181818" points="1019,961.1802,1029,965.1802,1019,969.1802,1023,965.1802" style="stroke:#181818;stroke-width:1.0;"/><line style="stroke:#181818;stroke-width:1.0;" x1="676.5" x2="1025" y1="965.1802" y2="965.1802"/><text fill="#000000" font-family="sans-serif" font-size="13" font-weight="bold" lengthAdjust="spacing" textLength="14" x="683.5" y="959.3712">24</text><text fill="#000000" font-family="sans-serif" font-size="13" lengthAdjust="spacing" textLength="75" x="701.5" y="959.3712">bubbleSort()</text><polygon fill="#181818" points="1148,992.8862,1158,996.8862,1148,1000.8862,1152,996.8862" style="stroke:#181818;stroke-width:1.0;"/><line style="stroke:#181818;stroke-width:1.0;" x1="1041" x2="1154" y1="996.8862" y2="996.8862"/><text fill="#000000" font-family="sans-serif" font-size="13" font-weight="bold" lengthAdjust="spacing" textLength="14" x="1048" y="991.0772">25</text><text fill="#000000" font-family="sans-serif" font-size="13" lengthAdjust="spacing" textLength="75" x="1066" y="991.0772">bubbleSort()</text><polygon fill="#181818" points="1052,1024.5922,1042,1028.5922,1052,1032.5922,1048,1028.5922" style="stroke:#181818;stroke-width:1.0;"/><line style="stroke:#181818;stroke-width:1.0;stroke-dasharray:2.0,2.0;" x1="1046" x2="1164" y1="1028.5922" y2="1028.5922"/><text fill="#000000" font-family="sans-serif" font-size="13" font-weight="bold" lengthAdjust="spacing" textLength="14" x="1058" y="1022.7832">26</text><text fill="#000000" font-family="sans-serif" font-size="13" lengthAdjust="spacing" textLength="71" x="1076" y="1022.7832">sortedDeals</text><polygon fill="#181818" points="687.5,1056.2982,677.5,1060.2982,687.5,1064.2982,683.5,1060.2982" style="stroke:#181818;stroke-width:1.0;"/><line style="stroke:#181818;stroke-width:1.0;stroke-dasharray:2.0,2.0;" x1="681.5" x2="1035" y1="1060.2982" y2="1060.2982"/><text fill="#000000" font-family="sans-serif" font-size="13" font-weight="bold" lengthAdjust="spacing" textLength="14" x="693.5" y="1054.4892">27</text><text fill="#000000" font-family="sans-serif" font-size="13" lengthAdjust="spacing" textLength="71" x="711.5" y="1054.4892">sortedDeals</text><polygon fill="#181818" points="470.5,1088.0042,460.5,1092.0042,470.5,1096.0042,466.5,1092.0042" style="stroke:#181818;stroke-width:1.0;"/><line style="stroke:#181818;stroke-width:1.0;stroke-dasharray:2.0,2.0;" x1="464.5" x2="670.5" y1="1092.0042" y2="1092.0042"/><text fill="#000000" font-family="sans-serif" font-size="13" font-weight="bold" lengthAdjust="spacing" textLength="14" x="476.5" y="1086.1952">28</text><text fill="#000000" font-family="sans-serif" font-size="13" lengthAdjust="spacing" textLength="71" x="494.5" y="1086.1952">sortedDeals</text><polygon fill="#181818" points="109.5,1119.7103,99.5,1123.7103,109.5,1127.7103,105.5,1123.7103" style="stroke:#181818;stroke-width:1.0;"/><line style="stroke:#181818;stroke-width:1.0;stroke-dasharray:2.0,2.0;" x1="103.5" x2="453.5" y1="1123.7103" y2="1123.7103"/><text fill="#000000" font-family="sans-serif" font-size="13" font-weight="bold" lengthAdjust="spacing" textLength="14" x="115.5" y="1117.9012">29</text><text fill="#000000" font-family="sans-serif" font-size="13" lengthAdjust="spacing" textLength="261" x="133.5" y="1117.9012">displays sorted deals with descending order</text><path d="M20,1145.7103 L83,1145.7103 L83,1155.4163 L73,1165.4163 L20,1165.4163 L20,1145.7103 " fill="#EEEEEE" style="stroke:#000000;stroke-width:1.5;"/><rect fill="none" height="543.9842" style="stroke:#000000;stroke-width:1.5;" width="1211" x="20" y="1145.7103"/><text fill="#000000" font-family="sans-serif" font-size="13" font-weight="bold" lengthAdjust="spacing" textLength="18" x="35" y="1160.6073">alt</text><text fill="#000000" font-family="sans-serif" font-size="11" font-weight="bold" lengthAdjust="spacing" textLength="148" x="98" y="1159.4692">[treeSort ascending order]</text><polygon fill="#181818" points="437.5,1185.1223,447.5,1189.1223,437.5,1193.1223,441.5,1189.1223" style="stroke:#181818;stroke-width:1.0;"/><line style="stroke:#181818;stroke-width:1.0;" x1="98.5" x2="443.5" y1="1189.1223" y2="1189.1223"/><text fill="#000000" font-family="sans-serif" font-size="13" font-weight="bold" lengthAdjust="spacing" textLength="14" x="105.5" y="1183.3133">30</text><text fill="#000000" font-family="sans-serif" font-size="13" lengthAdjust="spacing" textLength="134" x="123.5" y="1183.3133">select ascending order</text><polygon fill="#181818" points="654.5,1216.8283,664.5,1220.8283,654.5,1224.8283,658.5,1220.8283" style="stroke:#181818;stroke-width:1.0;"/><line style="stroke:#181818;stroke-width:1.0;" x1="459.5" x2="660.5" y1="1220.8283" y2="1220.8283"/><text fill="#000000" font-family="sans-serif" font-size="13" font-weight="bold" lengthAdjust="spacing" textLength="14" x="466.5" y="1215.0193">31</text><text fill="#000000" font-family="sans-serif" font-size="13" lengthAdjust="spacing" textLength="57" x="484.5" y="1215.0193">treeSort()</text><polygon fill="#181818" points="1019,1248.5343,1029,1252.5343,1019,1256.5343,1023,1252.5343" style="stroke:#181818;stroke-width:1.0;"/><line style="stroke:#181818;stroke-width:1.0;" x1="676.5" x2="1025" y1="1252.5343" y2="1252.5343"/><text fill="#000000" font-family="sans-serif" font-size="13" font-weight="bold" lengthAdjust="spacing" textLength="14" x="683.5" y="1246.7253">32</text><text fill="#000000" font-family="sans-serif" font-size="13" lengthAdjust="spacing" textLength="57" x="701.5" y="1246.7253">treeSort()</text><polygon fill="#181818" points="1148,1280.2403,1158,1284.2403,1148,1288.2403,1152,1284.2403" style="stroke:#181818;stroke-width:1.0;"/><line style="stroke:#181818;stroke-width:1.0;" x1="1041" x2="1154" y1="1284.2403" y2="1284.2403"/><text fill="#000000" font-family="sans-serif" font-size="13" font-weight="bold" lengthAdjust="spacing" textLength="14" x="1048" y="1278.4313">33</text><text fill="#000000" font-family="sans-serif" font-size="13" lengthAdjust="spacing" textLength="57" x="1066" y="1278.4313">treeSort()</text><polygon fill="#181818" points="1052,1311.9464,1042,1315.9464,1052,1319.9464,1048,1315.9464" style="stroke:#181818;stroke-width:1.0;"/><line style="stroke:#181818;stroke-width:1.0;stroke-dasharray:2.0,2.0;" x1="1046" x2="1164" y1="1315.9464" y2="1315.9464"/><text fill="#000000" font-family="sans-serif" font-size="13" font-weight="bold" lengthAdjust="spacing" textLength="14" x="1058" y="1310.1373">34</text><text fill="#000000" font-family="sans-serif" font-size="13" lengthAdjust="spacing" textLength="71" x="1076" y="1310.1373">sortedDeals</text><polygon fill="#181818" points="687.5,1343.6524,677.5,1347.6524,687.5,1351.6524,683.5,1347.6524" style="stroke:#181818;stroke-width:1.0;"/><line style="stroke:#181818;stroke-width:1.0;stroke-dasharray:2.0,2.0;" x1="681.5" x2="1035" y1="1347.6524" y2="1347.6524"/><text fill="#000000" font-family="sans-serif" font-size="13" font-weight="bold" lengthAdjust="spacing" textLength="14" x="693.5" y="1341.8434">35</text><text fill="#000000" font-family="sans-serif" font-size="13" lengthAdjust="spacing" textLength="71" x="711.5" y="1341.8434">sortedDeals</text><polygon fill="#181818" points="470.5,1375.3584,460.5,1379.3584,470.5,1383.3584,466.5,1379.3584" style="stroke:#181818;stroke-width:1.0;"/><line style="stroke:#181818;stroke-width:1.0;stroke-dasharray:2.0,2.0;" x1="464.5" x2="670.5" y1="1379.3584" y2="1379.3584"/><text fill="#000000" font-family="sans-serif" font-size="13" font-weight="bold" lengthAdjust="spacing" textLength="14" x="476.5" y="1373.5494">36</text><text fill="#000000" font-family="sans-serif" font-size="13" lengthAdjust="spacing" textLength="71" x="494.5" y="1373.5494">sortedDeals</text><polygon fill="#181818" points="109.5,1407.0644,99.5,1411.0644,109.5,1415.0644,105.5,1411.0644" style="stroke:#181818;stroke-width:1.0;"/><line style="stroke:#181818;stroke-width:1.0;stroke-dasharray:2.0,2.0;" x1="103.5" x2="453.5" y1="1411.0644" y2="1411.0644"/><text fill="#000000" font-family="sans-serif" font-size="13" font-weight="bold" lengthAdjust="spacing" textLength="14" x="115.5" y="1405.2554">37</text><text fill="#000000" font-family="sans-serif" font-size="13" lengthAdjust="spacing" textLength="253" x="133.5" y="1405.2554">displays sorted deals with ascending order</text><line style="stroke:#000000;stroke-width:1.0;stroke-dasharray:2.0,2.0;" x1="20" x2="1231" y1="1420.0644" y2="1420.0644"/><text fill="#000000" font-family="sans-serif" font-size="11" font-weight="bold" lengthAdjust="spacing" textLength="155" x="25" y="1431.8233">[treeSort descending order]</text><polygon fill="#181818" points="437.5,1455.7523,447.5,1459.7523,437.5,1463.7523,441.5,1459.7523" style="stroke:#181818;stroke-width:1.0;"/><line style="stroke:#181818;stroke-width:1.0;" x1="98.5" x2="443.5" y1="1459.7523" y2="1459.7523"/><text fill="#000000" font-family="sans-serif" font-size="13" font-weight="bold" lengthAdjust="spacing" textLength="14" x="105.5" y="1453.9433">38</text><text fill="#000000" font-family="sans-serif" font-size="13" lengthAdjust="spacing" textLength="142" x="123.5" y="1453.9433">select descending order</text><polygon fill="#181818" points="654.5,1487.4583,664.5,1491.4583,654.5,1495.4583,658.5,1491.4583" style="stroke:#181818;stroke-width:1.0;"/><line style="stroke:#181818;stroke-width:1.0;" x1="459.5" x2="660.5" y1="1491.4583" y2="1491.4583"/><text fill="#000000" font-family="sans-serif" font-size="13" font-weight="bold" lengthAdjust="spacing" textLength="14" x="466.5" y="1485.6493">39</text><text fill="#000000" font-family="sans-serif" font-size="13" lengthAdjust="spacing" textLength="57" x="484.5" y="1485.6493">treeSort()</text><polygon fill="#181818" points="1019,1519.1643,1029,1523.1643,1019,1527.1643,1023,1523.1643" style="stroke:#181818;stroke-width:1.0;"/><line style="stroke:#181818;stroke-width:1.0;" x1="676.5" x2="1025" y1="1523.1643" y2="1523.1643"/><text fill="#000000" font-family="sans-serif" font-size="13" font-weight="bold" lengthAdjust="spacing" textLength="14" x="683.5" y="1517.3553">40</text><text fill="#000000" font-family="sans-serif" font-size="13" lengthAdjust="spacing" textLength="57" x="701.5" y="1517.3553">treeSort()</text><polygon fill="#181818" points="1148,1550.8704,1158,1554.8704,1148,1558.8704,1152,1554.8704" style="stroke:#181818;stroke-width:1.0;"/><line style="stroke:#181818;stroke-width:1.0;" x1="1041" x2="1154" y1="1554.8704" y2="1554.8704"/><text fill="#000000" font-family="sans-serif" font-size="13" font-weight="bold" lengthAdjust="spacing" textLength="14" x="1048" y="1549.0614">41</text><text fill="#000000" font-family="sans-serif" font-size="13" lengthAdjust="spacing" textLength="57" x="1066" y="1549.0614">treeSort()</text><polygon fill="#181818" points="1052,1582.5764,1042,1586.5764,1052,1590.5764,1048,1586.5764" style="stroke:#181818;stroke-width:1.0;"/><line style="stroke:#181818;stroke-width:1.0;stroke-dasharray:2.0,2.0;" x1="1046" x2="1164" y1="1586.5764" y2="1586.5764"/><text fill="#000000" font-family="sans-serif" font-size="13" font-weight="bold" lengthAdjust="spacing" textLength="14" x="1058" y="1580.7674">42</text><text fill="#000000" font-family="sans-serif" font-size="13" lengthAdjust="spacing" textLength="71" x="1076" y="1580.7674">sortedDeals</text><polygon fill="#181818" points="687.5,1614.2824,677.5,1618.2824,687.5,1622.2824,683.5,1618.2824" style="stroke:#181818;stroke-width:1.0;"/><line style="stroke:#181818;stroke-width:1.0;stroke-dasharray:2.0,2.0;" x1="681.5" x2="1035" y1="1618.2824" y2="1618.2824"/><text fill="#000000" font-family="sans-serif" font-size="13" font-weight="bold" lengthAdjust="spacing" textLength="14" x="693.5" y="1612.4734">43</text><text fill="#000000" font-family="sans-serif" font-size="13" lengthAdjust="spacing" textLength="71" x="711.5" y="1612.4734">sortedDeals</text><polygon fill="#181818" points="470.5,1645.9884,460.5,1649.9884,470.5,1653.9884,466.5,1649.9884" style="stroke:#181818;stroke-width:1.0;"/><line style="stroke:#181818;stroke-width:1.0;stroke-dasharray:2.0,2.0;" x1="464.5" x2="670.5" y1="1649.9884" y2="1649.9884"/><text fill="#000000" font-family="sans-serif" font-size="13" font-weight="bold" lengthAdjust="spacing" textLength="14" x="476.5" y="1644.1794">44</text><text fill="#000000" font-family="sans-serif" font-size="13" lengthAdjust="spacing" textLength="71" x="494.5" y="1644.1794">sortedDeals</text><polygon fill="#181818" points="109.5,1677.6944,99.5,1681.6944,109.5,1685.6944,105.5,1681.6944" style="stroke:#181818;stroke-width:1.0;"/><line style="stroke:#181818;stroke-width:1.0;stroke-dasharray:2.0,2.0;" x1="103.5" x2="453.5" y1="1681.6944" y2="1681.6944"/><text fill="#000000" font-family="sans-serif" font-size="13" font-weight="bold" lengthAdjust="spacing" textLength="14" x="115.5" y="1675.8854">45</text><text fill="#000000" font-family="sans-serif" font-size="13" lengthAdjust="spacing" textLength="261" x="133.5" y="1675.8854">displays sorted deals with descending order</text><!--SRC=[tLXDJ-Cm4BtxLuouBAp47-W1YOKB4Ymh2ZSkRZDjexfsPBkm_VSxTjh4TkCaBPosjzWpp_FntjYgMPUoufflOAEacg-qsY1OlKLccfsApzTyYLEx4mWQvvRBfGWDp8eNwhEKIrXmOP0nlhLARZSpr8pzM9K5ma8fErD_6PzRfU7YDzfFfTVmn2KXwmlW1kv4YT8oWhJblAouj70nUIoDlKT2VNlmHcyFEOCx9QrMGXpGNbyU4zCNh9GfwVmIZRTf5dRJqgL4GSSkEl2OlCiZW3-Fjw-nXz85wXQNd9xZ5U-Nh2LnJfMsjs99nzZLnjitNuov2fOVtEAXNWpsl_eRhc-eI30XjpLO1OBg0rm8A5oHOCCBR3mQAAfgi-X-140mheG_VnBKN2DPnIPj6AxGqPPRSVuTvIMm9Te7QOX3SxoyweRiwajasOLylO-OZWZR5lbH3KQVSSZ2zRWEE-bQBdfFYcZBGmJn9IJ9XUY1Cdl7LMzxLaVhHV54xNPqmkBNxfxySZ7dcvWaJTWdWwTiZwnI_A1CZhfO-ADoPSX3r_4VnE2cnFFYLeWcS3Q-gYwYMbiJA4fJ2Rupm3zuAVYC9cAbLOMaNpHWV3LWGLCKtgLT8KrLaX_DJETDQdHBIXH8YqeYS5audHfdhC2WeE7gDzJ2czAGz9XkjFB330ZEPXqvE2st2XVM0y0dUS9iEoCdrxBir9Zw6CpUrBis1_VFZRHIFgysAm_bYG-Nt50z2fSKtGLKZFtNLIwTC9is1mXX2dVLTAUq3o2rxiabab9xOCllRiBa9TEBaUNmaJHkseiW0nh01dT6IEWMuRepr9h2YUY2VdJ1zcYu0oulNm36acesJUp5YTgGbUnUdVL5w0MHuKHMJaYlcv21BNSJ2kP8UEG00tVn81LxXlXfV1mriFzJIfvrfmpXnEquWPLvagIyZEj8Fl6ij1hx9oMSCp47NuyfRGzX9E-3_lT7Btz78FO-EaPGEN_489-_nEjnz3wJvIF8dkb2B-b7lAE-PouFpUTeJZVixvdIvqxhCHeOBuCX8PofXLFKy0KvZDR3bmGnKX7dIcBS1N2o9ePLyJqNmxWBehaaMFmLB2G0OVJrtmt_0000]--></g></svg>