<?xml version="1.0" encoding="us-ascii" standalone="no"?><svg xmlns="http://www.w3.org/2000/svg" xmlns:xlink="http://www.w3.org/1999/xlink" contentStyleType="text/css" height="1637px" preserveAspectRatio="none" style="width:1126px;height:1637px;background:#FFFFFF;" version="1.1" viewBox="0 0 1126 1637" width="1126px" zoomAndPan="magnify"><defs/><g><rect fill="#FFFFFF" height="1456.2266" style="stroke:#181818;stroke-width:1.0;" width="10" x="83" y="90.6406"/><rect fill="#FFFFFF" height="312.2813" style="stroke:#181818;stroke-width:1.0;" width="10" x="432" y="111.1641"/><rect fill="#FFFFFF" height="28.5234" style="stroke:#181818;stroke-width:1.0;" width="10" x="432" y="475.4922"/><rect fill="#FFFFFF" height="184.1406" style="stroke:#181818;stroke-width:1.0;" width="10" x="432" y="556.0625"/><rect fill="#FFFFFF" height="184.1406" style="stroke:#181818;stroke-width:1.0;" width="10" x="432" y="783.0156"/><rect fill="#FFFFFF" height="28.5234" style="stroke:#181818;stroke-width:1.0;" width="10" x="432" y="1033.2031"/><rect fill="#FFFFFF" height="184.1406" style="stroke:#181818;stroke-width:1.0;" width="10" x="432" y="1113.7734"/><rect fill="#FFFFFF" height="184.1406" style="stroke:#181818;stroke-width:1.0;" width="10" x="432" y="1340.7266"/><rect fill="#FFFFFF" height="116.2109" style="stroke:#181818;stroke-width:1.0;" width="10" x="644" y="149.6875"/><rect fill="#FFFFFF" height="71.4531" style="stroke:#181818;stroke-width:1.0;" width="10" x="644" y="294.4219"/><rect fill="#FFFFFF" height="127.0938" style="stroke:#181818;stroke-width:1.0;" width="10" x="644" y="584.5859"/><rect fill="#FFFFFF" height="127.0938" style="stroke:#181818;stroke-width:1.0;" width="10" x="644" y="811.5391"/><rect fill="#FFFFFF" height="127.0938" style="stroke:#181818;stroke-width:1.0;" width="10" x="644" y="1142.2969"/><rect fill="#FFFFFF" height="127.0938" style="stroke:#181818;stroke-width:1.0;" width="10" x="644" y="1369.25"/><rect fill="#FFFFFF" height="28.5234" style="stroke:#181818;stroke-width:1.0;" width="10" x="771.5" y="180.3281"/><rect fill="#FFFFFF" height="28.5234" style="stroke:#181818;stroke-width:1.0;" width="10" x="876.5" y="237.375"/><rect fill="#FFFFFF" height="70.0469" style="stroke:#181818;stroke-width:1.0;" width="10" x="993" y="613.1094"/><rect fill="#FFFFFF" height="70.0469" style="stroke:#181818;stroke-width:1.0;" width="10" x="993" y="840.0625"/><rect fill="#FFFFFF" height="70.0469" style="stroke:#181818;stroke-width:1.0;" width="10" x="993" y="1170.8203"/><rect fill="#FFFFFF" height="70.0469" style="stroke:#181818;stroke-width:1.0;" width="10" x="993" y="1397.7734"/><rect fill="none" height="543.7109" style="stroke:#000000;stroke-width:1.5;" width="1110" x="10" y="438.4453"/><rect fill="none" height="456.1406" style="stroke:#000000;stroke-width:1.5;" width="1090" x="20" y="519.0156"/><rect fill="none" height="543.7109" style="stroke:#000000;stroke-width:1.5;" width="1097" x="10" y="996.1563"/><rect fill="none" height="456.1406" style="stroke:#000000;stroke-width:1.5;" width="1077" x="20" y="1076.7266"/><line style="stroke:#181818;stroke-width:0.5;stroke-dasharray:5.0,5.0;" x1="88" x2="88" y1="80.6406" y2="1556.8672"/><line style="stroke:#181818;stroke-width:0.5;stroke-dasharray:5.0,5.0;" x1="437" x2="437" y1="80.6406" y2="1556.8672"/><line style="stroke:#181818;stroke-width:0.5;stroke-dasharray:5.0,5.0;" x1="649" x2="649" y1="149.4844" y2="1556.8672"/><line style="stroke:#181818;stroke-width:0.5;stroke-dasharray:5.0,5.0;" x1="776" x2="776" y1="80.6406" y2="1556.8672"/><line style="stroke:#181818;stroke-width:0.5;stroke-dasharray:5.0,5.0;" x1="881" x2="881" y1="80.6406" y2="1556.8672"/><line style="stroke:#181818;stroke-width:0.5;stroke-dasharray:5.0,5.0;" x1="998" x2="998" y1="80.6406" y2="1556.8672"/><text fill="#000000" font-family="sans-serif" font-size="14" lengthAdjust="spacing" textLength="110" x="30" y="77.6738">Network Manager</text><ellipse cx="88" cy="13.5" fill="#E3E3E3" rx="8" ry="8" style="stroke:#181818;stroke-width:0.5;"/><path d="M88,21.5 L88,48.5 M75,29.5 L101,29.5 M88,48.5 L75,63.5 M88,48.5 L101,63.5 " fill="none" style="stroke:#181818;stroke-width:0.5;"/><text fill="#000000" font-family="sans-serif" font-size="14" lengthAdjust="spacing" textLength="110" x="30" y="1568.541">Network Manager</text><ellipse cx="88" cy="1580.0078" fill="#E3E3E3" rx="8" ry="8" style="stroke:#181818;stroke-width:0.5;"/><path d="M88,1588.0078 L88,1615.0078 M75,1596.0078 L101,1596.0078 M88,1615.0078 L75,1630.0078 M88,1615.0078 L101,1630.0078 " fill="none" style="stroke:#181818;stroke-width:0.5;"/><rect fill="#E3E3E3" height="29.6406" rx="2.5" ry="2.5" style="stroke:#181818;stroke-width:0.5;" width="88" x="393" y="50"/><text fill="#000000" font-family="sans-serif" font-size="14" lengthAdjust="spacing" textLength="74" x="400" y="69.6738">:ListDealsUI</text><rect fill="#E3E3E3" height="29.6406" rx="2.5" ry="2.5" style="stroke:#181818;stroke-width:0.5;" width="88" x="393" y="1555.8672"/><text fill="#000000" font-family="sans-serif" font-size="14" lengthAdjust="spacing" textLength="74" x="400" y="1575.541">:ListDealsUI</text><rect fill="#E3E3E3" height="29.6406" rx="2.5" ry="2.5" style="stroke:#181818;stroke-width:0.5;" width="138" x="580" y="1555.8672"/><text fill="#000000" font-family="sans-serif" font-size="14" lengthAdjust="spacing" textLength="124" x="587" y="1575.541">:ListDealsController</text><rect fill="#E3E3E3" height="29.6406" rx="2.5" ry="2.5" style="stroke:#181818;stroke-width:0.5;" width="97" x="728" y="50"/><text fill="#000000" font-family="sans-serif" font-size="14" lengthAdjust="spacing" textLength="83" x="735" y="69.6738">:Repositories</text><rect fill="#E3E3E3" height="29.6406" rx="2.5" ry="2.5" style="stroke:#181818;stroke-width:0.5;" width="97" x="728" y="1555.8672"/><text fill="#000000" font-family="sans-serif" font-size="14" lengthAdjust="spacing" textLength="83" x="735" y="1575.541">:Repositories</text><rect fill="#E3E3E3" height="45.2813" rx="2.5" ry="2.5" style="stroke:#181818;stroke-width:0.5;" width="93" x="835" y="34.3594"/><text fill="#000000" font-family="sans-serif" font-size="14" lengthAdjust="spacing" textLength="78" x="842.5" y="54.0332">repositories:</text><text fill="#000000" font-family="sans-serif" font-size="14" lengthAdjust="spacing" textLength="79" x="842" y="69.6738">Repositories</text><rect fill="#E3E3E3" height="45.2813" rx="2.5" ry="2.5" style="stroke:#181818;stroke-width:0.5;" width="93" x="835" y="1555.8672"/><text fill="#000000" font-family="sans-serif" font-size="14" lengthAdjust="spacing" textLength="78" x="842.5" y="1575.541">repositories:</text><text fill="#000000" font-family="sans-serif" font-size="14" lengthAdjust="spacing" textLength="79" x="842" y="1591.1816">Repositories</text><rect fill="#E3E3E3" height="45.2813" rx="2.5" ry="2.5" style="stroke:#181818;stroke-width:0.5;" width="120" x="938" y="34.3594"/><text fill="#000000" font-family="sans-serif" font-size="14" lengthAdjust="spacing" textLength="106" x="945" y="54.0332">orderRepository:</text><text fill="#000000" font-family="sans-serif" font-size="14" lengthAdjust="spacing" textLength="105" x="945.5" y="69.6738">OrderRepository</text><rect fill="#E3E3E3" height="45.2813" rx="2.5" ry="2.5" style="stroke:#181818;stroke-width:0.5;" width="120" x="938" y="1555.8672"/><text fill="#000000" font-family="sans-serif" font-size="14" lengthAdjust="spacing" textLength="106" x="945" y="1575.541">orderRepository:</text><text fill="#000000" font-family="sans-serif" font-size="14" lengthAdjust="spacing" textLength="105" x="945.5" y="1591.1816">OrderRepository</text><rect fill="#FFFFFF" height="1456.2266" style="stroke:#181818;stroke-width:1.0;" width="10" x="83" y="90.6406"/><rect fill="#FFFFFF" height="312.2813" style="stroke:#181818;stroke-width:1.0;" width="10" x="432" y="111.1641"/><rect fill="#FFFFFF" height="28.5234" style="stroke:#181818;stroke-width:1.0;" width="10" x="432" y="475.4922"/><rect fill="#FFFFFF" height="184.1406" style="stroke:#181818;stroke-width:1.0;" width="10" x="432" y="556.0625"/><rect fill="#FFFFFF" height="184.1406" style="stroke:#181818;stroke-width:1.0;" width="10" x="432" y="783.0156"/><rect fill="#FFFFFF" height="28.5234" style="stroke:#181818;stroke-width:1.0;" width="10" x="432" y="1033.2031"/><rect fill="#FFFFFF" height="184.1406" style="stroke:#181818;stroke-width:1.0;" width="10" x="432" y="1113.7734"/><rect fill="#FFFFFF" height="184.1406" style="stroke:#181818;stroke-width:1.0;" width="10" x="432" y="1340.7266"/><rect fill="#FFFFFF" height="116.2109" style="stroke:#181818;stroke-width:1.0;" width="10" x="644" y="149.6875"/><rect fill="#FFFFFF" height="71.4531" style="stroke:#181818;stroke-width:1.0;" width="10" x="644" y="294.4219"/><rect fill="#FFFFFF" height="127.0938" style="stroke:#181818;stroke-width:1.0;" width="10" x="644" y="584.5859"/><rect fill="#FFFFFF" height="127.0938" style="stroke:#181818;stroke-width:1.0;" width="10" x="644" y="811.5391"/><rect fill="#FFFFFF" height="127.0938" style="stroke:#181818;stroke-width:1.0;" width="10" x="644" y="1142.2969"/><rect fill="#FFFFFF" height="127.0938" style="stroke:#181818;stroke-width:1.0;" width="10" x="644" y="1369.25"/><rect fill="#FFFFFF" height="28.5234" style="stroke:#181818;stroke-width:1.0;" width="10" x="771.5" y="180.3281"/><rect fill="#FFFFFF" height="28.5234" style="stroke:#181818;stroke-width:1.0;" width="10" x="876.5" y="237.375"/><rect fill="#FFFFFF" height="70.0469" style="stroke:#181818;stroke-width:1.0;" width="10" x="993" y="613.1094"/><rect fill="#FFFFFF" height="70.0469" style="stroke:#181818;stroke-width:1.0;" width="10" x="993" y="840.0625"/><rect fill="#FFFFFF" height="70.0469" style="stroke:#181818;stroke-width:1.0;" width="10" x="993" y="1170.8203"/><rect fill="#FFFFFF" height="70.0469" style="stroke:#181818;stroke-width:1.0;" width="10" x="993" y="1397.7734"/><polygon fill="#181818" points="420,107.1641,430,111.1641,420,115.1641,424,111.1641" style="stroke:#181818;stroke-width:1.0;"/><line style="stroke:#181818;stroke-width:1.0;" x1="93" x2="426" y1="111.1641" y2="111.1641"/><text fill="#000000" font-family="sans-serif" font-size="13" font-weight="bold" lengthAdjust="spacing" textLength="7" x="100" y="106.4092">1</text><text fill="#000000" font-family="sans-serif" font-size="13" lengthAdjust="spacing" textLength="145" x="111" y="106.4092">ask to list all deals made</text><polygon fill="#181818" points="568,135.6875,578,139.6875,568,143.6875,572,139.6875" style="stroke:#181818;stroke-width:1.0;"/><line style="stroke:#181818;stroke-width:1.0;" x1="442" x2="574" y1="139.6875" y2="139.6875"/><text fill="#000000" font-family="sans-serif" font-size="13" font-weight="bold" lengthAdjust="spacing" textLength="7" x="449" y="134.9326">2</text><text fill="#000000" font-family="sans-serif" font-size="13" lengthAdjust="spacing" textLength="36" x="460" y="134.9326">create</text><rect fill="#E3E3E3" height="29.6406" rx="2.5" ry="2.5" style="stroke:#181818;stroke-width:0.5;" width="138" x="580" y="119.1641"/><text fill="#000000" font-family="sans-serif" font-size="14" lengthAdjust="spacing" textLength="124" x="587" y="138.8379">:ListDealsController</text><polygon fill="#181818" points="759.5,176.3281,769.5,180.3281,759.5,184.3281,763.5,180.3281" style="stroke:#181818;stroke-width:1.0;"/><line style="stroke:#181818;stroke-width:1.0;" x1="654" x2="765.5" y1="180.3281" y2="180.3281"/><text fill="#000000" font-family="sans-serif" font-size="13" font-weight="bold" lengthAdjust="spacing" textLength="7" x="661" y="175.5732">3</text><text fill="#000000" font-family="sans-serif" font-size="13" lengthAdjust="spacing" textLength="75" x="672" y="175.5732">getInstance()</text><polygon fill="#181818" points="665,204.8516,655,208.8516,665,212.8516,661,208.8516" style="stroke:#181818;stroke-width:1.0;"/><line style="stroke:#181818;stroke-width:1.0;stroke-dasharray:2.0,2.0;" x1="659" x2="775.5" y1="208.8516" y2="208.8516"/><text fill="#000000" font-family="sans-serif" font-size="13" font-weight="bold" lengthAdjust="spacing" textLength="7" x="671" y="204.0967">4</text><text fill="#000000" font-family="sans-serif" font-size="13" lengthAdjust="spacing" textLength="67" x="682" y="204.0967">repositories</text><polygon fill="#181818" points="864.5,233.375,874.5,237.375,864.5,241.375,868.5,237.375" style="stroke:#181818;stroke-width:1.0;"/><line style="stroke:#181818;stroke-width:1.0;" x1="654" x2="870.5" y1="237.375" y2="237.375"/><text fill="#000000" font-family="sans-serif" font-size="13" font-weight="bold" lengthAdjust="spacing" textLength="7" x="661" y="232.6201">5</text><text fill="#000000" font-family="sans-serif" font-size="13" lengthAdjust="spacing" textLength="120" x="672" y="232.6201">getOrderRepository()</text><polygon fill="#181818" points="660,261.8984,650,265.8984,660,269.8984,656,265.8984" style="stroke:#181818;stroke-width:1.0;"/><line style="stroke:#181818;stroke-width:1.0;stroke-dasharray:2.0,2.0;" x1="654" x2="880.5" y1="265.8984" y2="265.8984"/><text fill="#000000" font-family="sans-serif" font-size="13" font-weight="bold" lengthAdjust="spacing" textLength="7" x="666" y="261.1436">6</text><text fill="#000000" font-family="sans-serif" font-size="13" lengthAdjust="spacing" textLength="91" x="677" y="261.1436">orderRepository</text><polygon fill="#181818" points="632,290.4219,642,294.4219,632,298.4219,636,294.4219" style="stroke:#181818;stroke-width:1.0;"/><line style="stroke:#181818;stroke-width:1.0;" x1="442" x2="638" y1="294.4219" y2="294.4219"/><text fill="#000000" font-family="sans-serif" font-size="13" font-weight="bold" lengthAdjust="spacing" textLength="7" x="449" y="289.667">7</text><text fill="#000000" font-family="sans-serif" font-size="13" lengthAdjust="spacing" textLength="172" x="460" y="289.667">getDealsMadeSortedByDate()</text><rect fill="none" height="37.9297" style="stroke:#000000;stroke-width:1.5;" width="176" x="577" y="302.4219"/><path d="M577,302.4219 L639,302.4219 L639,308.4219 L629,318.4219 L577,318.4219 L577,302.4219 " fill="#EEEEEE" style="stroke:#000000;stroke-width:2.0;"/><text fill="#000000" font-family="sans-serif" font-size="13" font-weight="bold" lengthAdjust="spacing" textLength="17" x="590" y="316.1904">ref</text><text fill="#000000" font-family="sans-serif" font-size="12" lengthAdjust="spacing" textLength="168" x="581" y="333.2852">Get Deals Made sorted by date</text><polygon fill="#181818" points="453,361.875,443,365.875,453,369.875,449,365.875" style="stroke:#181818;stroke-width:1.0;"/><line style="stroke:#181818;stroke-width:1.0;stroke-dasharray:2.0,2.0;" x1="447" x2="648" y1="365.875" y2="365.875"/><text fill="#000000" font-family="sans-serif" font-size="13" font-weight="bold" lengthAdjust="spacing" textLength="7" x="459" y="361.1201">8</text><text fill="#000000" font-family="sans-serif" font-size="13" lengthAdjust="spacing" textLength="114" x="470" y="361.1201">ListOfAllDealsMade</text><polygon fill="#181818" points="104,419.4453,94,423.4453,104,427.4453,100,423.4453" style="stroke:#181818;stroke-width:1.0;"/><line style="stroke:#181818;stroke-width:1.0;stroke-dasharray:2.0,2.0;" x1="98" x2="436" y1="423.4453" y2="423.4453"/><text fill="#000000" font-family="sans-serif" font-size="13" font-weight="bold" lengthAdjust="spacing" textLength="7" x="110" y="404.167">9</text><text fill="#000000" font-family="sans-serif" font-size="13" lengthAdjust="spacing" textLength="231" x="121" y="389.6436">displays available properties sorted from</text><text fill="#000000" font-family="sans-serif" font-size="13" lengthAdjust="spacing" textLength="249" x="121" y="404.167">the most recent to the oldest one and asks</text><text fill="#000000" font-family="sans-serif" font-size="13" lengthAdjust="spacing" textLength="295" x="121" y="418.6904">to select one of the two sorting algorithms available</text><path d="M10,438.4453 L71,438.4453 L71,444.9688 L61,454.9688 L10,454.9688 L10,438.4453 " fill="#EEEEEE" style="stroke:#000000;stroke-width:1.5;"/><rect fill="none" height="543.7109" style="stroke:#000000;stroke-width:1.5;" width="1110" x="10" y="438.4453"/><text fill="#000000" font-family="sans-serif" font-size="13" font-weight="bold" lengthAdjust="spacing" textLength="16" x="25" y="451.2139">alt</text><text fill="#000000" font-family="sans-serif" font-size="11" font-weight="bold" lengthAdjust="spacing" textLength="122" x="86" y="450.4033">[sort with bubbleSort]</text><polygon fill="#181818" points="420,471.4922,430,475.4922,420,479.4922,424,475.4922" style="stroke:#181818;stroke-width:1.0;"/><line style="stroke:#181818;stroke-width:1.0;" x1="93" x2="426" y1="475.4922" y2="475.4922"/><text fill="#000000" font-family="sans-serif" font-size="13" font-weight="bold" lengthAdjust="spacing" textLength="14" x="100" y="470.7373">10</text><text fill="#000000" font-family="sans-serif" font-size="13" lengthAdjust="spacing" textLength="165" x="118" y="470.7373">Selects bubblesort algorithm</text><polygon fill="#181818" points="104,500.0156,94,504.0156,104,508.0156,100,504.0156" style="stroke:#181818;stroke-width:1.0;"/><line style="stroke:#181818;stroke-width:1.0;stroke-dasharray:2.0,2.0;" x1="98" x2="436" y1="504.0156" y2="504.0156"/><text fill="#000000" font-family="sans-serif" font-size="13" font-weight="bold" lengthAdjust="spacing" textLength="14" x="110" y="499.2607">11</text><text fill="#000000" font-family="sans-serif" font-size="13" lengthAdjust="spacing" textLength="297" x="128" y="499.2607">asks to select sort order (ascending or descending)</text><path d="M20,519.0156 L81,519.0156 L81,525.5391 L71,535.5391 L20,535.5391 L20,519.0156 " fill="#EEEEEE" style="stroke:#000000;stroke-width:1.5;"/><rect fill="none" height="456.1406" style="stroke:#000000;stroke-width:1.5;" width="1090" x="20" y="519.0156"/><text fill="#000000" font-family="sans-serif" font-size="13" font-weight="bold" lengthAdjust="spacing" textLength="16" x="35" y="531.7842">alt</text><text fill="#000000" font-family="sans-serif" font-size="11" font-weight="bold" lengthAdjust="spacing" textLength="163" x="96" y="530.9736">[bubbleSort ascending order]</text><polygon fill="#181818" points="420,552.0625,430,556.0625,420,560.0625,424,556.0625" style="stroke:#181818;stroke-width:1.0;"/><line style="stroke:#181818;stroke-width:1.0;" x1="93" x2="426" y1="556.0625" y2="556.0625"/><text fill="#000000" font-family="sans-serif" font-size="13" font-weight="bold" lengthAdjust="spacing" textLength="14" x="100" y="551.3076">12</text><text fill="#000000" font-family="sans-serif" font-size="13" lengthAdjust="spacing" textLength="131" x="118" y="551.3076">select ascending order</text><polygon fill="#181818" points="632,580.5859,642,584.5859,632,588.5859,636,584.5859" style="stroke:#181818;stroke-width:1.0;"/><line style="stroke:#181818;stroke-width:1.0;" x1="442" x2="638" y1="584.5859" y2="584.5859"/><text fill="#000000" font-family="sans-serif" font-size="13" font-weight="bold" lengthAdjust="spacing" textLength="14" x="449" y="579.8311">13</text><text fill="#000000" font-family="sans-serif" font-size="13" lengthAdjust="spacing" textLength="70" x="467" y="579.8311">bubbleSort()</text><polygon fill="#181818" points="981,609.1094,991,613.1094,981,617.1094,985,613.1094" style="stroke:#181818;stroke-width:1.0;"/><line style="stroke:#181818;stroke-width:1.0;" x1="654" x2="987" y1="613.1094" y2="613.1094"/><text fill="#000000" font-family="sans-serif" font-size="13" font-weight="bold" lengthAdjust="spacing" textLength="14" x="661" y="608.3545">14</text><text fill="#000000" font-family="sans-serif" font-size="13" lengthAdjust="spacing" textLength="70" x="679" y="608.3545">bubbleSort()</text><line style="stroke:#181818;stroke-width:1.0;" x1="1003" x2="1045" y1="641.6328" y2="641.6328"/><line style="stroke:#181818;stroke-width:1.0;" x1="1045" x2="1045" y1="641.6328" y2="654.6328"/><line style="stroke:#181818;stroke-width:1.0;" x1="1004" x2="1045" y1="654.6328" y2="654.6328"/><polygon fill="#181818" points="1014,650.6328,1004,654.6328,1014,658.6328,1010,654.6328" style="stroke:#181818;stroke-width:1.0;"/><text fill="#000000" font-family="sans-serif" font-size="13" font-weight="bold" lengthAdjust="spacing" textLength="14" x="1010" y="636.8779">15</text><text fill="#000000" font-family="sans-serif" font-size="13" lengthAdjust="spacing" textLength="70" x="1028" y="636.8779">bubbleSort()</text><polygon fill="#181818" points="665,679.1563,655,683.1563,665,687.1563,661,683.1563" style="stroke:#181818;stroke-width:1.0;"/><line style="stroke:#181818;stroke-width:1.0;stroke-dasharray:2.0,2.0;" x1="659" x2="997" y1="683.1563" y2="683.1563"/><text fill="#000000" font-family="sans-serif" font-size="13" font-weight="bold" lengthAdjust="spacing" textLength="14" x="671" y="678.4014">16</text><text fill="#000000" font-family="sans-serif" font-size="13" lengthAdjust="spacing" textLength="69" x="689" y="678.4014">sortedDeals</text><polygon fill="#181818" points="453,707.6797,443,711.6797,453,715.6797,449,711.6797" style="stroke:#181818;stroke-width:1.0;"/><line style="stroke:#181818;stroke-width:1.0;stroke-dasharray:2.0,2.0;" x1="447" x2="648" y1="711.6797" y2="711.6797"/><text fill="#000000" font-family="sans-serif" font-size="13" font-weight="bold" lengthAdjust="spacing" textLength="14" x="459" y="706.9248">17</text><text fill="#000000" font-family="sans-serif" font-size="13" lengthAdjust="spacing" textLength="69" x="477" y="706.9248">sortedDeals</text><polygon fill="#181818" points="104,736.2031,94,740.2031,104,744.2031,100,740.2031" style="stroke:#181818;stroke-width:1.0;"/><line style="stroke:#181818;stroke-width:1.0;stroke-dasharray:2.0,2.0;" x1="98" x2="436" y1="740.2031" y2="740.2031"/><text fill="#000000" font-family="sans-serif" font-size="13" font-weight="bold" lengthAdjust="spacing" textLength="14" x="110" y="735.4482">18</text><text fill="#000000" font-family="sans-serif" font-size="13" lengthAdjust="spacing" textLength="246" x="128" y="735.4482">displays sorted deals with ascending order</text><line style="stroke:#000000;stroke-width:1.0;stroke-dasharray:2.0,2.0;" x1="20" x2="1110" y1="749.2031" y2="749.2031"/><text fill="#000000" font-family="sans-serif" font-size="11" font-weight="bold" lengthAdjust="spacing" textLength="171" x="25" y="759.1611">[bubbleSort descending order]</text><polygon fill="#181818" points="420,779.0156,430,783.0156,420,787.0156,424,783.0156" style="stroke:#181818;stroke-width:1.0;"/><line style="stroke:#181818;stroke-width:1.0;" x1="93" x2="426" y1="783.0156" y2="783.0156"/><text fill="#000000" font-family="sans-serif" font-size="13" font-weight="bold" lengthAdjust="spacing" textLength="14" x="100" y="778.2607">19</text><text fill="#000000" font-family="sans-serif" font-size="13" lengthAdjust="spacing" textLength="138" x="118" y="778.2607">select descending order</text><polygon fill="#181818" points="632,807.5391,642,811.5391,632,815.5391,636,811.5391" style="stroke:#181818;stroke-width:1.0;"/><line style="stroke:#181818;stroke-width:1.0;" x1="442" x2="638" y1="811.5391" y2="811.5391"/><text fill="#000000" font-family="sans-serif" font-size="13" font-weight="bold" lengthAdjust="spacing" textLength="14" x="449" y="806.7842">20</text><text fill="#000000" font-family="sans-serif" font-size="13" lengthAdjust="spacing" textLength="70" x="467" y="806.7842">bubbleSort()</text><polygon fill="#181818" points="981,836.0625,991,840.0625,981,844.0625,985,840.0625" style="stroke:#181818;stroke-width:1.0;"/><line style="stroke:#181818;stroke-width:1.0;" x1="654" x2="987" y1="840.0625" y2="840.0625"/><text fill="#000000" font-family="sans-serif" font-size="13" font-weight="bold" lengthAdjust="spacing" textLength="14" x="661" y="835.3076">21</text><text fill="#000000" font-family="sans-serif" font-size="13" lengthAdjust="spacing" textLength="70" x="679" y="835.3076">bubbleSort()</text><line style="stroke:#181818;stroke-width:1.0;" x1="1003" x2="1045" y1="868.5859" y2="868.5859"/><line style="stroke:#181818;stroke-width:1.0;" x1="1045" x2="1045" y1="868.5859" y2="881.5859"/><line style="stroke:#181818;stroke-width:1.0;" x1="1004" x2="1045" y1="881.5859" y2="881.5859"/><polygon fill="#181818" points="1014,877.5859,1004,881.5859,1014,885.5859,1010,881.5859" style="stroke:#181818;stroke-width:1.0;"/><text fill="#000000" font-family="sans-serif" font-size="13" font-weight="bold" lengthAdjust="spacing" textLength="14" x="1010" y="863.8311">22</text><text fill="#000000" font-family="sans-serif" font-size="13" lengthAdjust="spacing" textLength="70" x="1028" y="863.8311">bubbleSort()</text><polygon fill="#181818" points="665,906.1094,655,910.1094,665,914.1094,661,910.1094" style="stroke:#181818;stroke-width:1.0;"/><line style="stroke:#181818;stroke-width:1.0;stroke-dasharray:2.0,2.0;" x1="659" x2="997" y1="910.1094" y2="910.1094"/><text fill="#000000" font-family="sans-serif" font-size="13" font-weight="bold" lengthAdjust="spacing" textLength="14" x="671" y="905.3545">23</text><text fill="#000000" font-family="sans-serif" font-size="13" lengthAdjust="spacing" textLength="69" x="689" y="905.3545">sortedDeals</text><polygon fill="#181818" points="453,934.6328,443,938.6328,453,942.6328,449,938.6328" style="stroke:#181818;stroke-width:1.0;"/><line style="stroke:#181818;stroke-width:1.0;stroke-dasharray:2.0,2.0;" x1="447" x2="648" y1="938.6328" y2="938.6328"/><text fill="#000000" font-family="sans-serif" font-size="13" font-weight="bold" lengthAdjust="spacing" textLength="14" x="459" y="933.8779">24</text><text fill="#000000" font-family="sans-serif" font-size="13" lengthAdjust="spacing" textLength="69" x="477" y="933.8779">sortedDeals</text><polygon fill="#181818" points="104,963.1563,94,967.1563,104,971.1563,100,967.1563" style="stroke:#181818;stroke-width:1.0;"/><line style="stroke:#181818;stroke-width:1.0;stroke-dasharray:2.0,2.0;" x1="98" x2="436" y1="967.1563" y2="967.1563"/><text fill="#000000" font-family="sans-serif" font-size="13" font-weight="bold" lengthAdjust="spacing" textLength="14" x="110" y="962.4014">25</text><text fill="#000000" font-family="sans-serif" font-size="13" lengthAdjust="spacing" textLength="253" x="128" y="962.4014">displays sorted deals with descending order</text><path d="M10,996.1563 L71,996.1563 L71,1002.6797 L61,1012.6797 L10,1012.6797 L10,996.1563 " fill="#EEEEEE" style="stroke:#000000;stroke-width:1.5;"/><rect fill="none" height="543.7109" style="stroke:#000000;stroke-width:1.5;" width="1097" x="10" y="996.1563"/><text fill="#000000" font-family="sans-serif" font-size="13" font-weight="bold" lengthAdjust="spacing" textLength="16" x="25" y="1008.9248">alt</text><text fill="#000000" font-family="sans-serif" font-size="11" font-weight="bold" lengthAdjust="spacing" textLength="107" x="86" y="1008.1143">[sort with treeSort]</text><polygon fill="#181818" points="420,1029.2031,430,1033.2031,420,1037.2031,424,1033.2031" style="stroke:#181818;stroke-width:1.0;"/><line style="stroke:#181818;stroke-width:1.0;" x1="93" x2="426" y1="1033.2031" y2="1033.2031"/><text fill="#000000" font-family="sans-serif" font-size="13" font-weight="bold" lengthAdjust="spacing" textLength="14" x="100" y="1028.4482">26</text><text fill="#000000" font-family="sans-serif" font-size="13" lengthAdjust="spacing" textLength="151" x="118" y="1028.4482">Selects treeSort algorithm</text><polygon fill="#181818" points="104,1057.7266,94,1061.7266,104,1065.7266,100,1061.7266" style="stroke:#181818;stroke-width:1.0;"/><line style="stroke:#181818;stroke-width:1.0;" x1="98" x2="436" y1="1061.7266" y2="1061.7266"/><text fill="#000000" font-family="sans-serif" font-size="13" font-weight="bold" lengthAdjust="spacing" textLength="14" x="110" y="1056.9717">27</text><text fill="#000000" font-family="sans-serif" font-size="13" lengthAdjust="spacing" textLength="297" x="128" y="1056.9717">asks to select sort order (ascending or descending)</text><path d="M20,1076.7266 L81,1076.7266 L81,1083.25 L71,1093.25 L20,1093.25 L20,1076.7266 " fill="#EEEEEE" style="stroke:#000000;stroke-width:1.5;"/><rect fill="none" height="456.1406" style="stroke:#000000;stroke-width:1.5;" width="1077" x="20" y="1076.7266"/><text fill="#000000" font-family="sans-serif" font-size="13" font-weight="bold" lengthAdjust="spacing" textLength="16" x="35" y="1089.4951">alt</text><text fill="#000000" font-family="sans-serif" font-size="11" font-weight="bold" lengthAdjust="spacing" textLength="148" x="96" y="1088.6846">[treeSort ascending order]</text><polygon fill="#181818" points="420,1109.7734,430,1113.7734,420,1117.7734,424,1113.7734" style="stroke:#181818;stroke-width:1.0;"/><line style="stroke:#181818;stroke-width:1.0;" x1="93" x2="426" y1="1113.7734" y2="1113.7734"/><text fill="#000000" font-family="sans-serif" font-size="13" font-weight="bold" lengthAdjust="spacing" textLength="14" x="100" y="1109.0186">28</text><text fill="#000000" font-family="sans-serif" font-size="13" lengthAdjust="spacing" textLength="131" x="118" y="1109.0186">select ascending order</text><polygon fill="#181818" points="632,1138.2969,642,1142.2969,632,1146.2969,636,1142.2969" style="stroke:#181818;stroke-width:1.0;"/><line style="stroke:#181818;stroke-width:1.0;" x1="442" x2="638" y1="1142.2969" y2="1142.2969"/><text fill="#000000" font-family="sans-serif" font-size="13" font-weight="bold" lengthAdjust="spacing" textLength="14" x="449" y="1137.542">29</text><text fill="#000000" font-family="sans-serif" font-size="13" lengthAdjust="spacing" textLength="54" x="467" y="1137.542">treeSort()</text><polygon fill="#181818" points="981,1166.8203,991,1170.8203,981,1174.8203,985,1170.8203" style="stroke:#181818;stroke-width:1.0;"/><line style="stroke:#181818;stroke-width:1.0;" x1="654" x2="987" y1="1170.8203" y2="1170.8203"/><text fill="#000000" font-family="sans-serif" font-size="13" font-weight="bold" lengthAdjust="spacing" textLength="14" x="661" y="1166.0654">30</text><text fill="#000000" font-family="sans-serif" font-size="13" lengthAdjust="spacing" textLength="54" x="679" y="1166.0654">treeSort()</text><line style="stroke:#181818;stroke-width:1.0;" x1="1003" x2="1045" y1="1199.3438" y2="1199.3438"/><line style="stroke:#181818;stroke-width:1.0;" x1="1045" x2="1045" y1="1199.3438" y2="1212.3438"/><line style="stroke:#181818;stroke-width:1.0;" x1="1004" x2="1045" y1="1212.3438" y2="1212.3438"/><polygon fill="#181818" points="1014,1208.3438,1004,1212.3438,1014,1216.3438,1010,1212.3438" style="stroke:#181818;stroke-width:1.0;"/><text fill="#000000" font-family="sans-serif" font-size="13" font-weight="bold" lengthAdjust="spacing" textLength="14" x="1010" y="1194.5889">31</text><text fill="#000000" font-family="sans-serif" font-size="13" lengthAdjust="spacing" textLength="57" x="1028" y="1194.5889">TreeSort()</text><polygon fill="#181818" points="665,1236.8672,655,1240.8672,665,1244.8672,661,1240.8672" style="stroke:#181818;stroke-width:1.0;"/><line style="stroke:#181818;stroke-width:1.0;stroke-dasharray:2.0,2.0;" x1="659" x2="997" y1="1240.8672" y2="1240.8672"/><text fill="#000000" font-family="sans-serif" font-size="13" font-weight="bold" lengthAdjust="spacing" textLength="14" x="671" y="1236.1123">32</text><text fill="#000000" font-family="sans-serif" font-size="13" lengthAdjust="spacing" textLength="69" x="689" y="1236.1123">sortedDeals</text><polygon fill="#181818" points="453,1265.3906,443,1269.3906,453,1273.3906,449,1269.3906" style="stroke:#181818;stroke-width:1.0;"/><line style="stroke:#181818;stroke-width:1.0;stroke-dasharray:2.0,2.0;" x1="447" x2="648" y1="1269.3906" y2="1269.3906"/><text fill="#000000" font-family="sans-serif" font-size="13" font-weight="bold" lengthAdjust="spacing" textLength="14" x="459" y="1264.6357">33</text><text fill="#000000" font-family="sans-serif" font-size="13" lengthAdjust="spacing" textLength="69" x="477" y="1264.6357">sortedDeals</text><polygon fill="#181818" points="104,1293.9141,94,1297.9141,104,1301.9141,100,1297.9141" style="stroke:#181818;stroke-width:1.0;"/><line style="stroke:#181818;stroke-width:1.0;stroke-dasharray:2.0,2.0;" x1="98" x2="436" y1="1297.9141" y2="1297.9141"/><text fill="#000000" font-family="sans-serif" font-size="13" font-weight="bold" lengthAdjust="spacing" textLength="14" x="110" y="1293.1592">34</text><text fill="#000000" font-family="sans-serif" font-size="13" lengthAdjust="spacing" textLength="246" x="128" y="1293.1592">displays sorted deals with ascending order</text><line style="stroke:#000000;stroke-width:1.0;stroke-dasharray:2.0,2.0;" x1="20" x2="1097" y1="1306.9141" y2="1306.9141"/><text fill="#000000" font-family="sans-serif" font-size="11" font-weight="bold" lengthAdjust="spacing" textLength="156" x="25" y="1316.8721">[treeSort descending order]</text><polygon fill="#181818" points="420,1336.7266,430,1340.7266,420,1344.7266,424,1340.7266" style="stroke:#181818;stroke-width:1.0;"/><line style="stroke:#181818;stroke-width:1.0;" x1="93" x2="426" y1="1340.7266" y2="1340.7266"/><text fill="#000000" font-family="sans-serif" font-size="13" font-weight="bold" lengthAdjust="spacing" textLength="14" x="100" y="1335.9717">35</text><text fill="#000000" font-family="sans-serif" font-size="13" lengthAdjust="spacing" textLength="138" x="118" y="1335.9717">select descending order</text><polygon fill="#181818" points="632,1365.25,642,1369.25,632,1373.25,636,1369.25" style="stroke:#181818;stroke-width:1.0;"/><line style="stroke:#181818;stroke-width:1.0;" x1="442" x2="638" y1="1369.25" y2="1369.25"/><text fill="#000000" font-family="sans-serif" font-size="13" font-weight="bold" lengthAdjust="spacing" textLength="14" x="449" y="1364.4951">36</text><text fill="#000000" font-family="sans-serif" font-size="13" lengthAdjust="spacing" textLength="54" x="467" y="1364.4951">treeSort()</text><polygon fill="#181818" points="981,1393.7734,991,1397.7734,981,1401.7734,985,1397.7734" style="stroke:#181818;stroke-width:1.0;"/><line style="stroke:#181818;stroke-width:1.0;" x1="654" x2="987" y1="1397.7734" y2="1397.7734"/><text fill="#000000" font-family="sans-serif" font-size="13" font-weight="bold" lengthAdjust="spacing" textLength="14" x="661" y="1393.0186">37</text><text fill="#000000" font-family="sans-serif" font-size="13" lengthAdjust="spacing" textLength="54" x="679" y="1393.0186">treeSort()</text><line style="stroke:#181818;stroke-width:1.0;" x1="1003" x2="1045" y1="1426.2969" y2="1426.2969"/><line style="stroke:#181818;stroke-width:1.0;" x1="1045" x2="1045" y1="1426.2969" y2="1439.2969"/><line style="stroke:#181818;stroke-width:1.0;" x1="1004" x2="1045" y1="1439.2969" y2="1439.2969"/><polygon fill="#181818" points="1014,1435.2969,1004,1439.2969,1014,1443.2969,1010,1439.2969" style="stroke:#181818;stroke-width:1.0;"/><text fill="#000000" font-family="sans-serif" font-size="13" font-weight="bold" lengthAdjust="spacing" textLength="14" x="1010" y="1421.542">38</text><text fill="#000000" font-family="sans-serif" font-size="13" lengthAdjust="spacing" textLength="54" x="1028" y="1421.542">treeSort()</text><polygon fill="#181818" points="665,1463.8203,655,1467.8203,665,1471.8203,661,1467.8203" style="stroke:#181818;stroke-width:1.0;"/><line style="stroke:#181818;stroke-width:1.0;stroke-dasharray:2.0,2.0;" x1="659" x2="997" y1="1467.8203" y2="1467.8203"/><text fill="#000000" font-family="sans-serif" font-size="13" font-weight="bold" lengthAdjust="spacing" textLength="14" x="671" y="1463.0654">39</text><text fill="#000000" font-family="sans-serif" font-size="13" lengthAdjust="spacing" textLength="69" x="689" y="1463.0654">sortedDeals</text><polygon fill="#181818" points="453,1492.3438,443,1496.3438,453,1500.3438,449,1496.3438" style="stroke:#181818;stroke-width:1.0;"/><line style="stroke:#181818;stroke-width:1.0;stroke-dasharray:2.0,2.0;" x1="447" x2="648" y1="1496.3438" y2="1496.3438"/><text fill="#000000" font-family="sans-serif" font-size="13" font-weight="bold" lengthAdjust="spacing" textLength="14" x="459" y="1491.5889">40</text><text fill="#000000" font-family="sans-serif" font-size="13" lengthAdjust="spacing" textLength="69" x="477" y="1491.5889">sortedDeals</text><polygon fill="#181818" points="104,1520.8672,94,1524.8672,104,1528.8672,100,1524.8672" style="stroke:#181818;stroke-width:1.0;"/><line style="stroke:#181818;stroke-width:1.0;stroke-dasharray:2.0,2.0;" x1="98" x2="436" y1="1524.8672" y2="1524.8672"/><text fill="#000000" font-family="sans-serif" font-size="13" font-weight="bold" lengthAdjust="spacing" textLength="14" x="110" y="1520.1123">41</text><text fill="#000000" font-family="sans-serif" font-size="13" lengthAdjust="spacing" textLength="253" x="128" y="1520.1123">displays sorted deals with descending order</text><!--SRC=[jLVBRjim4BppAnQvD0cG7_2XG9e0HO2aAUBabWijhMt2D2cGj5t_VPUKzHOjAG_VHEqETvSp8zfkXCguuLlOQgMJjT5R16Tso6pv9kF9XgzmxeuImM3Yk5h9Ue1TyrGVX5h1aakBZF6TqsgtNQ1XxCTQf0XBhTr2_sCySTh0nHzq1sqsyCGL8PiBu1Rkf43b644waOYCAmSNiqTXtJqIwjj327fxY0NSQUMCbh90UtrvR8M-OAQjeFq5sX1JBXpdmhT4HJTJJ2rZzguw07yVRr-R6TgaQ2fSIdfkheIyrXfZVYvYpnqMKs1m-kNFSFEJMeSP9M_0QP3KDN0f8VMjmvQdM6QKK3IhSj7_281W_62khmagCKXHj7SZg2h43x3nogzuX9wn4TmAtOEon8q4Bw_w8VlctOZiGxuvrKnRr8-ZaKTJ6Br7qOK_kxpircd4gW-7tNWL86hrjGu_Lc80YhphJhqwjRpQGFOdEl2vDWxJNyTxoelLt8KhVWQNeFTeyf2-YD_e86m6VZUmOJjO727rjEdBG9LwtDg6-R0BydgjFYzlfInxOEDdu8UGQs46gR2Pv4SBVC-5v0lofSpe34c8Q8jAb-HbyAxS6idRI2xaN3wRrEENj4oH5hL2u5GswShwO0qM9LbSUA6N8PIiAc1wW-DoHVHpwsrjRzRJWzTUfKZf0W0SA1CMkmKb-TEBgdmUQh2dq91QRdnUv-r9XRwghW9Ke2bSSalpI7rJvCWqZDFJLQoTUZTL3r27IRtXzxTqAg0TVQQN1l6h3IkgznEcq7TBrKCO7KiksctZ34F7Kwj-Seu67VJDk_k1OBsAwe692IcgePDSyYz9O6ZaaAByHlherobHaQd5YHWhEWamy34RvCOP3vn6a34K-Gn7ffBaB4iYlZk4qvpG1AB4porA5PMsdvhkw0oEyyOYS8epVeynXWwgSYPoFoQsmUjSHmT52QtBm8WBGLmIOp3ZD9oaZzTggn480ogPf9PnWZb_I_a2UstpAjXgoQkurZxch5_7hcyWrsXkZMAMYpFhOxmQowhnn1gu07-HA_VJZ4muj-MOmTLBo_-U_WS0]--></g></svg>