<?xml version="1.0" encoding="us-ascii" standalone="no"?><svg xmlns="http://www.w3.org/2000/svg" xmlns:xlink="http://www.w3.org/1999/xlink" contentStyleType="text/css" height="432px" preserveAspectRatio="none" style="width:402px;height:432px;background:#FFFFFF;" version="1.1" viewBox="0 0 402 432" width="402px" zoomAndPan="magnify"><defs/><g><rect fill="#FFFFFF" height="291.1875" style="stroke:#181818;stroke-width:1.0;" width="10" x="114" y="81.8047"/><rect fill="#FFFFFF" height="70.0469" style="stroke:#181818;stroke-width:1.0;" width="10" x="272.5" y="110.3281"/><rect fill="none" height="99.5703" style="stroke:#000000;stroke-width:1.5;" width="244.5" x="31.5" y="236.8984"/><line style="stroke:#181818;stroke-width:0.5;stroke-dasharray:5.0,5.0;" x1="118.5" x2="118.5" y1="51.2813" y2="381.9922"/><line style="stroke:#181818;stroke-width:0.5;stroke-dasharray:5.0,5.0;" x1="277.5" x2="277.5" y1="51.2813" y2="381.9922"/><rect fill="#E3E3E3" height="29.6406" rx="2.5" ry="2.5" style="stroke:#181818;stroke-width:0.5;" width="155" x="41.5" y="20.6406"/><text fill="#000000" font-family="sans-serif" font-size="14" lengthAdjust="spacing" textLength="141" x="48.5" y="40.3145">:ListRequestController</text><rect fill="#E3E3E3" height="29.6406" rx="2.5" ry="2.5" style="stroke:#181818;stroke-width:0.5;" width="155" x="41.5" y="380.9922"/><text fill="#000000" font-family="sans-serif" font-size="14" lengthAdjust="spacing" textLength="141" x="48.5" y="400.666">:ListRequestController</text><rect fill="#E3E3E3" height="45.2813" rx="2.5" ry="2.5" style="stroke:#181818;stroke-width:0.5;" width="142" x="206.5" y="5"/><text fill="#000000" font-family="sans-serif" font-size="14" lengthAdjust="spacing" textLength="72" x="241.5" y="24.6738">Repository:</text><text fill="#000000" font-family="sans-serif" font-size="14" lengthAdjust="spacing" textLength="128" x="213.5" y="40.3145">RequestsRepository</text><rect fill="#E3E3E3" height="45.2813" rx="2.5" ry="2.5" style="stroke:#181818;stroke-width:0.5;" width="142" x="206.5" y="380.9922"/><text fill="#000000" font-family="sans-serif" font-size="14" lengthAdjust="spacing" textLength="72" x="241.5" y="400.666">Repository:</text><text fill="#000000" font-family="sans-serif" font-size="14" lengthAdjust="spacing" textLength="128" x="213.5" y="416.3066">RequestsRepository</text><rect fill="#FFFFFF" height="291.1875" style="stroke:#181818;stroke-width:1.0;" width="10" x="114" y="81.8047"/><rect fill="#FFFFFF" height="70.0469" style="stroke:#181818;stroke-width:1.0;" width="10" x="272.5" y="110.3281"/><polygon fill="#181818" points="102,77.8047,112,81.8047,102,85.8047,106,81.8047" style="stroke:#181818;stroke-width:1.0;"/><line style="stroke:#181818;stroke-width:1.0;" x1="0" x2="108" y1="81.8047" y2="81.8047"/><text fill="#000000" font-family="sans-serif" font-size="13" font-weight="bold" lengthAdjust="spacing" textLength="7" x="7" y="77.0498">1</text><text fill="#000000" font-family="sans-serif" font-size="13" lengthAdjust="spacing" textLength="84" x="18" y="77.0498">ListRequests()</text><polygon fill="#181818" points="260.5,106.3281,270.5,110.3281,260.5,114.3281,264.5,110.3281" style="stroke:#181818;stroke-width:1.0;"/><line style="stroke:#181818;stroke-width:1.0;" x1="124" x2="266.5" y1="110.3281" y2="110.3281"/><text fill="#000000" font-family="sans-serif" font-size="13" font-weight="bold" lengthAdjust="spacing" textLength="7" x="131" y="105.5732">2</text><text fill="#000000" font-family="sans-serif" font-size="13" lengthAdjust="spacing" textLength="95" x="142" y="105.5732">getRequestList()</text><line style="stroke:#181818;stroke-width:1.0;" x1="282.5" x2="324.5" y1="138.8516" y2="138.8516"/><line style="stroke:#181818;stroke-width:1.0;" x1="324.5" x2="324.5" y1="138.8516" y2="151.8516"/><line style="stroke:#181818;stroke-width:1.0;" x1="283.5" x2="324.5" y1="151.8516" y2="151.8516"/><polygon fill="#181818" points="293.5,147.8516,283.5,151.8516,293.5,155.8516,289.5,151.8516" style="stroke:#181818;stroke-width:1.0;"/><text fill="#000000" font-family="sans-serif" font-size="13" font-weight="bold" lengthAdjust="spacing" textLength="7" x="289.5" y="134.0967">3</text><text fill="#000000" font-family="sans-serif" font-size="13" lengthAdjust="spacing" textLength="95" x="300.5" y="134.0967">getRequestList()</text><polygon fill="#181818" points="135,176.375,125,180.375,135,184.375,131,180.375" style="stroke:#181818;stroke-width:1.0;"/><line style="stroke:#181818;stroke-width:1.0;stroke-dasharray:2.0,2.0;" x1="129" x2="276.5" y1="180.375" y2="180.375"/><text fill="#000000" font-family="sans-serif" font-size="13" font-weight="bold" lengthAdjust="spacing" textLength="7" x="141" y="175.6201">4</text><text fill="#000000" font-family="sans-serif" font-size="13" lengthAdjust="spacing" textLength="95" x="152" y="175.6201">getRequestList()</text><line style="stroke:#181818;stroke-width:1.0;" x1="124" x2="166" y1="208.8984" y2="208.8984"/><line style="stroke:#181818;stroke-width:1.0;" x1="166" x2="166" y1="208.8984" y2="221.8984"/><line style="stroke:#181818;stroke-width:1.0;" x1="125" x2="166" y1="221.8984" y2="221.8984"/><polygon fill="#181818" points="135,217.8984,125,221.8984,135,225.8984,131,221.8984" style="stroke:#181818;stroke-width:1.0;"/><text fill="#000000" font-family="sans-serif" font-size="13" font-weight="bold" lengthAdjust="spacing" textLength="7" x="131" y="204.1436">5</text><text fill="#000000" font-family="sans-serif" font-size="13" lengthAdjust="spacing" textLength="115" x="142" y="204.1436">Collections.sort(list)</text><path d="M31.5,236.8984 L104.5,236.8984 L104.5,243.4219 L94.5,253.4219 L31.5,253.4219 L31.5,236.8984 " fill="#EEEEEE" style="stroke:#000000;stroke-width:1.5;"/><rect fill="none" height="99.5703" style="stroke:#000000;stroke-width:1.5;" width="244.5" x="31.5" y="236.8984"/><text fill="#000000" font-family="sans-serif" font-size="13" font-weight="bold" lengthAdjust="spacing" textLength="28" x="46.5" y="249.667">loop</text><line style="stroke:#181818;stroke-width:1.0;" x1="124" x2="166" y1="273.9453" y2="273.9453"/><line style="stroke:#181818;stroke-width:1.0;" x1="166" x2="166" y1="273.9453" y2="286.9453"/><line style="stroke:#181818;stroke-width:1.0;" x1="125" x2="166" y1="286.9453" y2="286.9453"/><polygon fill="#181818" points="135,282.9453,125,286.9453,135,290.9453,131,286.9453" style="stroke:#181818;stroke-width:1.0;"/><text fill="#000000" font-family="sans-serif" font-size="13" font-weight="bold" lengthAdjust="spacing" textLength="7" x="131" y="269.1904">6</text><text fill="#000000" font-family="sans-serif" font-size="13" lengthAdjust="spacing" textLength="122" x="142" y="269.1904">request.getProperty()</text><line style="stroke:#181818;stroke-width:1.0;" x1="124" x2="166" y1="315.4688" y2="315.4688"/><line style="stroke:#181818;stroke-width:1.0;" x1="166" x2="166" y1="315.4688" y2="328.4688"/><line style="stroke:#181818;stroke-width:1.0;" x1="125" x2="166" y1="328.4688" y2="328.4688"/><polygon fill="#181818" points="135,324.4688,125,328.4688,135,332.4688,131,328.4688" style="stroke:#181818;stroke-width:1.0;"/><text fill="#000000" font-family="sans-serif" font-size="13" font-weight="bold" lengthAdjust="spacing" textLength="7" x="131" y="310.7139">7</text><text fill="#000000" font-family="sans-serif" font-size="13" lengthAdjust="spacing" textLength="100" x="142" y="310.7139">request.getDate()</text><polygon fill="#181818" points="11,359.9922,1,363.9922,11,367.9922,7,363.9922" style="stroke:#181818;stroke-width:1.0;"/><line style="stroke:#181818;stroke-width:1.0;stroke-dasharray:2.0,2.0;" x1="5" x2="113" y1="363.9922" y2="363.9922"/><text fill="#000000" font-family="sans-serif" font-size="13" font-weight="bold" lengthAdjust="spacing" textLength="7" x="17" y="359.2373">8</text><text fill="#000000" font-family="sans-serif" font-size="13" lengthAdjust="spacing" textLength="17" x="28" y="359.2373">list</text><!--SRC=[ZP0zJyCm48Pt_mgh2-sG_e08iOIn0mgCB6voJQmwFdDt0VBlSJwS1ebAU7pzFFUUpLVhWo7JwGuzLYrX1rge1yNhJJ3LrJJmAeC3JL29yOtR0joQ6h-iR_J5E0QbJ2_e- -uCfDH3QslG5qGvuxUAWjZA1kD5x_AJPIdXemUM0hqGEWUqquPryLQUViCb16GhI4F-xXU9R-5anJWcQZhPqpH4vthJmlk3CfNOJoCmTwW9Yl3iHho1H8zY5FHoLd6fIVbY_cj6Oc_RtKLhI8Lhb7QTrMByheYWvoCZoTx50GUrqWun_AdcD1SUO_SBOG2IOLDy3tsEgsmmyBLwpBBqZh5S_G00]--></g></svg>