<?xml version="1.0" encoding="us-ascii" standalone="no"?><svg xmlns="http://www.w3.org/2000/svg" xmlns:xlink="http://www.w3.org/1999/xlink" contentStyleType="text/css" height="424px" preserveAspectRatio="none" style="width:1140px;height:424px;background:#FFFFFF;" version="1.1" viewBox="0 0 1140 424" width="1140px" zoomAndPan="magnify"><defs/><g><rect fill="#FFFFFF" height="306.0625" style="stroke:#181818;stroke-width:1.0;" width="10" x="244" y="66.1641"/><rect fill="#FFFFFF" height="166.8516" style="stroke:#181818;stroke-width:1.0;" width="10" x="562" y="176.8516"/><rect fill="#FFFFFF" height="69.1641" style="stroke:#181818;stroke-width:1.0;" width="10" x="880" y="246.0156"/><line style="stroke:#181818;stroke-width:0.5;stroke-dasharray:5.0,5.0;" x1="248.5" x2="248.5" y1="35.6406" y2="390.2266"/><line style="stroke:#181818;stroke-width:0.5;stroke-dasharray:5.0,5.0;" x1="566.5" x2="566.5" y1="146.0078" y2="390.2266"/><line style="stroke:#181818;stroke-width:0.5;stroke-dasharray:5.0,5.0;" x1="884.5" x2="884.5" y1="215.1719" y2="390.2266"/><line style="stroke:#181818;stroke-width:0.5;stroke-dasharray:5.0,5.0;" x1="1065.5" x2="1065.5" y1="284.3359" y2="390.2266"/><rect fill="#E3E3E3" height="29.6406" rx="2.5" ry="2.5" style="stroke:#181818;stroke-width:0.5;" width="155" x="171.5" y="5"/><text fill="#000000" font-family="sans-serif" font-size="14" lengthAdjust="spacing" textLength="141" x="178.5" y="24.6738">:ListRequestController</text><rect fill="#E3E3E3" height="29.6406" rx="2.5" ry="2.5" style="stroke:#181818;stroke-width:0.5;" width="155" x="171.5" y="389.2266"/><text fill="#000000" font-family="sans-serif" font-size="14" lengthAdjust="spacing" textLength="141" x="178.5" y="408.9004">:ListRequestController</text><rect fill="#E3E3E3" height="29.6406" rx="2.5" ry="2.5" style="stroke:#181818;stroke-width:0.5;" width="199" x="467.5" y="389.2266"/><text fill="#000000" font-family="sans-serif" font-size="14" lengthAdjust="spacing" textLength="185" x="474.5" y="408.9004">SaleAnnouncementController</text><rect fill="#E3E3E3" height="29.6406" rx="2.5" ry="2.5" style="stroke:#181818;stroke-width:0.5;" width="205" x="782.5" y="389.2266"/><text fill="#000000" font-family="sans-serif" font-size="14" lengthAdjust="spacing" textLength="191" x="789.5" y="408.9004">SaleAnnouncementRepository</text><rect fill="#E3E3E3" height="29.6406" rx="2.5" ry="2.5" style="stroke:#181818;stroke-width:0.5;" width="137" x="997.5" y="389.2266"/><text fill="#000000" font-family="sans-serif" font-size="14" lengthAdjust="spacing" textLength="123" x="1004.5" y="408.9004">SaleAnnouncement</text><rect fill="#FFFFFF" height="306.0625" style="stroke:#181818;stroke-width:1.0;" width="10" x="244" y="66.1641"/><rect fill="#FFFFFF" height="166.8516" style="stroke:#181818;stroke-width:1.0;" width="10" x="562" y="176.8516"/><rect fill="#FFFFFF" height="69.1641" style="stroke:#181818;stroke-width:1.0;" width="10" x="880" y="246.0156"/><polygon fill="#181818" points="232,62.1641,242,66.1641,232,70.1641,236,66.1641" style="stroke:#181818;stroke-width:1.0;"/><line style="stroke:#181818;stroke-width:1.0;" x1="0" x2="238" y1="66.1641" y2="66.1641"/><text fill="#000000" font-family="sans-serif" font-size="13" font-weight="bold" lengthAdjust="spacing" textLength="7" x="7" y="61.4092">1</text><text fill="#000000" font-family="sans-serif" font-size="13" lengthAdjust="spacing" textLength="214" x="18" y="61.4092">AcceptRequest(request,commission)</text><line style="stroke:#181818;stroke-width:1.0;" x1="254" x2="296" y1="94.6875" y2="94.6875"/><line style="stroke:#181818;stroke-width:1.0;" x1="296" x2="296" y1="94.6875" y2="107.6875"/><line style="stroke:#181818;stroke-width:1.0;" x1="255" x2="296" y1="107.6875" y2="107.6875"/><polygon fill="#181818" points="265,103.6875,255,107.6875,265,111.6875,261,107.6875" style="stroke:#181818;stroke-width:1.0;"/><text fill="#000000" font-family="sans-serif" font-size="13" font-weight="bold" lengthAdjust="spacing" textLength="7" x="261" y="89.9326">2</text><text fill="#000000" font-family="sans-serif" font-size="13" lengthAdjust="spacing" textLength="75" x="272" y="89.9326">getProperty()</text><polygon fill="#181818" points="455.5,132.2109,465.5,136.2109,455.5,140.2109,459.5,136.2109" style="stroke:#181818;stroke-width:1.0;"/><line style="stroke:#181818;stroke-width:1.0;" x1="254" x2="461.5" y1="136.2109" y2="136.2109"/><text fill="#000000" font-family="sans-serif" font-size="13" font-weight="bold" lengthAdjust="spacing" textLength="7" x="261" y="131.4561">3</text><text fill="#000000" font-family="sans-serif" font-size="13" lengthAdjust="spacing" textLength="36" x="272" y="131.4561">create</text><rect fill="#E3E3E3" height="29.6406" rx="2.5" ry="2.5" style="stroke:#181818;stroke-width:0.5;" width="199" x="467.5" y="115.6875"/><text fill="#000000" font-family="sans-serif" font-size="14" lengthAdjust="spacing" textLength="185" x="474.5" y="135.3613">SaleAnnouncementController</text><polygon fill="#181818" points="550,172.8516,560,176.8516,550,180.8516,554,176.8516" style="stroke:#181818;stroke-width:1.0;"/><line style="stroke:#181818;stroke-width:1.0;" x1="254" x2="556" y1="176.8516" y2="176.8516"/><text fill="#000000" font-family="sans-serif" font-size="13" font-weight="bold" lengthAdjust="spacing" textLength="7" x="261" y="172.0967">4</text><text fill="#000000" font-family="sans-serif" font-size="13" lengthAdjust="spacing" textLength="278" x="272" y="172.0967">createSaleAnnouncement(property,commission)</text><polygon fill="#181818" points="770.5,201.375,780.5,205.375,770.5,209.375,774.5,205.375" style="stroke:#181818;stroke-width:1.0;"/><line style="stroke:#181818;stroke-width:1.0;" x1="572" x2="776.5" y1="205.375" y2="205.375"/><text fill="#000000" font-family="sans-serif" font-size="13" font-weight="bold" lengthAdjust="spacing" textLength="7" x="579" y="200.6201">5</text><text fill="#000000" font-family="sans-serif" font-size="13" lengthAdjust="spacing" textLength="36" x="590" y="200.6201">create</text><rect fill="#E3E3E3" height="29.6406" rx="2.5" ry="2.5" style="stroke:#181818;stroke-width:0.5;" width="205" x="782.5" y="184.8516"/><text fill="#000000" font-family="sans-serif" font-size="14" lengthAdjust="spacing" textLength="191" x="789.5" y="204.5254">SaleAnnouncementRepository</text><polygon fill="#181818" points="868,242.0156,878,246.0156,868,250.0156,872,246.0156" style="stroke:#181818;stroke-width:1.0;"/><line style="stroke:#181818;stroke-width:1.0;" x1="572" x2="874" y1="246.0156" y2="246.0156"/><text fill="#000000" font-family="sans-serif" font-size="13" font-weight="bold" lengthAdjust="spacing" textLength="7" x="579" y="241.2607">6</text><text fill="#000000" font-family="sans-serif" font-size="13" lengthAdjust="spacing" textLength="278" x="590" y="241.2607">createSaleAnnouncement(property,commission)</text><polygon fill="#181818" points="985.5,270.5391,995.5,274.5391,985.5,278.5391,989.5,274.5391" style="stroke:#181818;stroke-width:1.0;"/><line style="stroke:#181818;stroke-width:1.0;" x1="890" x2="991.5" y1="274.5391" y2="274.5391"/><text fill="#000000" font-family="sans-serif" font-size="13" font-weight="bold" lengthAdjust="spacing" textLength="7" x="897" y="269.7842">7</text><text fill="#000000" font-family="sans-serif" font-size="13" lengthAdjust="spacing" textLength="36" x="908" y="269.7842">create</text><rect fill="#E3E3E3" height="29.6406" rx="2.5" ry="2.5" style="stroke:#181818;stroke-width:0.5;" width="137" x="997.5" y="254.0156"/><text fill="#000000" font-family="sans-serif" font-size="14" lengthAdjust="spacing" textLength="123" x="1004.5" y="273.6895">SaleAnnouncement</text><polygon fill="#181818" points="583,311.1797,573,315.1797,583,319.1797,579,315.1797" style="stroke:#181818;stroke-width:1.0;"/><line style="stroke:#181818;stroke-width:1.0;stroke-dasharray:2.0,2.0;" x1="577" x2="884" y1="315.1797" y2="315.1797"/><text fill="#000000" font-family="sans-serif" font-size="13" font-weight="bold" lengthAdjust="spacing" textLength="7" x="589" y="310.4248">8</text><text fill="#000000" font-family="sans-serif" font-size="13" lengthAdjust="spacing" textLength="111" x="600" y="310.4248">saleAnnouncement</text><polygon fill="#181818" points="265,339.7031,255,343.7031,265,347.7031,261,343.7031" style="stroke:#181818;stroke-width:1.0;"/><line style="stroke:#181818;stroke-width:1.0;stroke-dasharray:2.0,2.0;" x1="259" x2="566" y1="343.7031" y2="343.7031"/><text fill="#000000" font-family="sans-serif" font-size="13" font-weight="bold" lengthAdjust="spacing" textLength="7" x="271" y="338.9482">9</text><text fill="#000000" font-family="sans-serif" font-size="13" lengthAdjust="spacing" textLength="111" x="282" y="338.9482">saleAnnouncement</text><polygon fill="#181818" points="237,368.2266,247,372.2266,237,376.2266,241,372.2266" style="stroke:#181818;stroke-width:1.0;"/><line style="stroke:#181818;stroke-width:1.0;stroke-dasharray:2.0,2.0;" x1="0" x2="243" y1="372.2266" y2="372.2266"/><text fill="#000000" font-family="sans-serif" font-size="13" font-weight="bold" lengthAdjust="spacing" textLength="14" x="7" y="367.4717">10</text><text fill="#000000" font-family="sans-serif" font-size="13" lengthAdjust="spacing" textLength="111" x="25" y="367.4717">saleAnnouncement</text><!--SRC=[hP91Ri8m44NtFeN5fW6L2x2eXDYog48lC3X3OX5xZ3rfczlN0H9A50XKzSQI_T_yFsE7lROEF1Xfo98gF1cKx2iKeRjneFQGuuRh4gL7nM3pyhSW593HbxQvt44PK0Yec6nbjkY5U2bqXd97n5lw5X5WhRG3otAoMEl0AHug3BmYovxA4lr4Gf2hZtHzBTv0YKjhgR8A3Te-SBaUHrDq53IJhpiq7jrdEgM8Q_vs32WNIwNGjIqa_hI_AZ96Xw39JeKSMA1OVmBZgSiXnR5wvo9pv7TF3ZtNoVGkS3s6sIp2ocFqUeBgcFuC4dSEyNY7lMSPqlRCpt7YWuoblmd-TmFDvxWLeB5hhPl08taR-Nneug4NTR12XcskXmPo-K3FLe_e7yaV]--></g></svg>