<?xml version="1.0" encoding="us-ascii" standalone="no"?><svg xmlns="http://www.w3.org/2000/svg" xmlns:xlink="http://www.w3.org/1999/xlink" contentStyleType="text/css" height="1344.44px" preserveAspectRatio="none" style="width:1151px;height:1344px;background:#FFFFFF;" version="1.1" viewBox="0 0 1151 1344" width="1151.68px" zoomAndPan="magnify"><defs/><g><rect fill="#FFFFFF" height="1229.841" style="stroke:#181818;stroke-width:0.61;" width="6.1" x="60.085" y="55.2908"/><rect fill="#FFFFFF" height="274.9146" style="stroke:#181818;stroke-width:0.61;" width="6.1" x="236.985" y="67.8101"/><rect fill="#FFFFFF" height="86.3865" style="stroke:#181818;stroke-width:0.61;" width="6.1" x="236.985" y="388.8226"/><rect fill="#FFFFFF" height="17.3993" style="stroke:#181818;stroke-width:0.61;" width="6.1" x="236.985" y="506.9577"/><rect fill="#FFFFFF" height="17.3993" style="stroke:#181818;stroke-width:0.61;" width="6.1" x="236.985" y="541.7563"/><rect fill="#FFFFFF" height="665.2384" style="stroke:#181818;stroke-width:0.61;" width="6.1" x="236.985" y="576.5548"/><rect fill="#FFFFFF" height="17.3993" style="stroke:#181818;stroke-width:0.61;" width="6.1" x="236.985" y="1267.7325"/><rect fill="#FFFFFF" height="206.4659" style="stroke:#181818;stroke-width:0.61;" width="6.1" x="459.635" y="110.0002"/><rect fill="#FFFFFF" height="42.7286" style="stroke:#181818;stroke-width:0.61;" width="6.1" x="459.635" y="406.2219"/><rect fill="#FFFFFF" height="42.1901" style="stroke:#181818;stroke-width:0.61;" width="6.1" x="459.635" y="593.9541"/><rect fill="#FFFFFF" height="186.6981" style="stroke:#181818;stroke-width:0.61;" width="6.1" x="459.635" y="653.5435"/><rect fill="#FFFFFF" height="42.7286" style="stroke:#181818;stroke-width:0.61;" width="6.1" x="459.635" y="875.0402"/><rect fill="#FFFFFF" height="42.7286" style="stroke:#181818;stroke-width:0.61;" width="6.1" x="459.635" y="961.2837"/><rect fill="#FFFFFF" height="172.1344" style="stroke:#181818;stroke-width:0.61;" width="6.1" x="459.635" y="1025.6816"/><rect fill="#FFFFFF" height="42.7286" style="stroke:#181818;stroke-width:0.61;" width="6.1" x="598.715" y="161.731"/><rect fill="#FFFFFF" height="42.7286" style="stroke:#181818;stroke-width:0.61;" width="6.1" x="598.715" y="1043.0809"/><rect fill="#FFFFFF" height="101.7795" style="stroke:#181818;stroke-width:0.61;" width="6.1" x="776.53" y="721.0629"/><rect fill="#FFFFFF" height="42.1901" style="stroke:#181818;stroke-width:0.61;" width="6.1" x="974.78" y="763.253"/><rect fill="none" height="60.7379" style="stroke:#000000;stroke-width:0.915;" width="149.145" x="409.31" y="238.9389"/><rect fill="none" height="899.0685" style="stroke:#000000;stroke-width:0.915;" width="1142.225" x="6.1" y="351.8747"/><rect fill="none" height="880.4492" style="stroke:#000000;stroke-width:0.915;" width="1130.025" x="12.2" y="366.224"/><rect fill="none" height="524.5333" style="stroke:#000000;stroke-width:0.915;" width="1117.825" x="18.3" y="484.3591"/><rect fill="none" height="60.7379" style="stroke:#000000;stroke-width:0.915;" width="153.415" x="409.31" y="1120.2888"/><line style="stroke:#181818;stroke-width:0.305;stroke-dasharray:5.0,5.0;" x1="62.83" x2="62.83" y1="49.1908" y2="1296.1118"/><line style="stroke:#181818;stroke-width:0.305;stroke-dasharray:5.0,5.0;" x1="239.73" x2="239.73" y1="49.1908" y2="1296.1118"/><line style="stroke:#181818;stroke-width:0.305;stroke-dasharray:5.0,5.0;" x1="462.38" x2="462.38" y1="91.1855" y2="1296.1118"/><line style="stroke:#181818;stroke-width:0.305;stroke-dasharray:5.0,5.0;" x1="601.765" x2="601.765" y1="138.1459" y2="1296.1118"/><line style="stroke:#181818;stroke-width:0.305;stroke-dasharray:5.0,5.0;" x1="685.335" x2="685.335" y1="617.3295" y2="1296.1118"/><line style="stroke:#181818;stroke-width:0.305;stroke-dasharray:5.0,5.0;" x1="779.275" x2="779.275" y1="702.2482" y2="1296.1118"/><line style="stroke:#181818;stroke-width:0.305;stroke-dasharray:5.0,5.0;" x1="977.525" x2="977.525" y1="744.4383" y2="1296.1118"/><line style="stroke:#181818;stroke-width:0.305;stroke-dasharray:5.0,5.0;" x1="1087.935" x2="1087.935" y1="786.6284" y2="1296.1118"/><text fill="#000000" font-family="sans-serif" font-size="8.54" lengthAdjust="spacing" textLength="73.81" x="24.4" y="47.381">Organization Agent</text><ellipse cx="63.135" cy="8.235" fill="#E3E3E3" rx="4.88" ry="4.88" style="stroke:#181818;stroke-width:0.305;"/><path d="M63.135,13.115 L63.135,29.585 M55.205,17.995 L71.065,17.995 M63.135,29.585 L55.205,38.735 M63.135,29.585 L71.065,38.735 " fill="none" style="stroke:#181818;stroke-width:0.305;"/><text fill="#000000" font-family="sans-serif" font-size="8.54" lengthAdjust="spacing" textLength="73.81" x="24.4" y="1303.2328">Organization Agent</text><ellipse cx="63.135" cy="1310.2276" fill="#E3E3E3" rx="4.88" ry="4.88" style="stroke:#181818;stroke-width:0.305;"/><path d="M63.135,1315.1076 L63.135,1331.5776 M55.205,1319.9876 L71.065,1319.9876 M63.135,1331.5776 L55.205,1340.7276 M63.135,1331.5776 L71.065,1340.7276 " fill="none" style="stroke:#181818;stroke-width:0.305;"/><rect fill="#E3E3E3" height="18.0808" rx="1.525" ry="1.525" style="stroke:#181818;stroke-width:0.305;" width="64.05" x="208.01" y="30.5"/><text fill="#000000" font-family="sans-serif" font-size="8.54" lengthAdjust="spacing" textLength="55.51" x="212.28" y="42.501">:ListRequestUI</text><rect fill="#E3E3E3" height="18.0808" rx="1.525" ry="1.525" style="stroke:#181818;stroke-width:0.305;" width="64.05" x="208.01" y="1295.5018"/><text fill="#000000" font-family="sans-serif" font-size="8.54" lengthAdjust="spacing" textLength="55.51" x="212.28" y="1307.5028">:ListRequestUI</text><rect fill="#E3E3E3" height="18.0808" rx="1.525" ry="1.525" style="stroke:#181818;stroke-width:0.305;" width="94.55" x="415.41" y="1295.5018"/><text fill="#000000" font-family="sans-serif" font-size="8.54" lengthAdjust="spacing" textLength="86.01" x="419.68" y="1307.5028">:ListRequestController</text><rect fill="#E3E3E3" height="27.6216" rx="1.525" ry="1.525" style="stroke:#181818;stroke-width:0.305;" width="86.62" x="558.455" y="1295.5018"/><text fill="#000000" font-family="sans-serif" font-size="8.54" lengthAdjust="spacing" textLength="43.92" x="579.805" y="1307.5028">Repository:</text><text fill="#000000" font-family="sans-serif" font-size="8.54" lengthAdjust="spacing" textLength="78.08" x="562.725" y="1317.0436">RequestsRepository</text><rect fill="#E3E3E3" height="18.0808" rx="1.525" ry="1.525" style="stroke:#181818;stroke-width:0.305;" width="54.9" x="657.885" y="1295.5018"/><text fill="#000000" font-family="sans-serif" font-size="8.54" lengthAdjust="spacing" textLength="46.36" x="662.155" y="1307.5028">Commission</text><rect fill="#E3E3E3" height="18.0808" rx="1.525" ry="1.525" style="stroke:#181818;stroke-width:0.305;" width="121.39" x="718.885" y="1295.5018"/><text fill="#000000" font-family="sans-serif" font-size="8.54" lengthAdjust="spacing" textLength="112.85" x="723.155" y="1307.5028">SaleAnnouncementController</text><rect fill="#E3E3E3" height="18.0808" rx="1.525" ry="1.525" style="stroke:#181818;stroke-width:0.305;" width="125.05" x="915.305" y="1295.5018"/><text fill="#000000" font-family="sans-serif" font-size="8.54" lengthAdjust="spacing" textLength="116.51" x="919.575" y="1307.5028">SaleAnnouncementRepository</text><rect fill="#E3E3E3" height="18.0808" rx="1.525" ry="1.525" style="stroke:#181818;stroke-width:0.305;" width="83.57" x="1046.455" y="1295.5018"/><text fill="#000000" font-family="sans-serif" font-size="8.54" lengthAdjust="spacing" textLength="75.03" x="1050.725" y="1307.5028">SaleAnnouncement</text><rect fill="#FFFFFF" height="1229.841" style="stroke:#181818;stroke-width:0.61;" width="6.1" x="60.085" y="55.2908"/><rect fill="#FFFFFF" height="274.9146" style="stroke:#181818;stroke-width:0.61;" width="6.1" x="236.985" y="67.8101"/><rect fill="#FFFFFF" height="86.3865" style="stroke:#181818;stroke-width:0.61;" width="6.1" x="236.985" y="388.8226"/><rect fill="#FFFFFF" height="17.3993" style="stroke:#181818;stroke-width:0.61;" width="6.1" x="236.985" y="506.9577"/><rect fill="#FFFFFF" height="17.3993" style="stroke:#181818;stroke-width:0.61;" width="6.1" x="236.985" y="541.7563"/><rect fill="#FFFFFF" height="665.2384" style="stroke:#181818;stroke-width:0.61;" width="6.1" x="236.985" y="576.5548"/><rect fill="#FFFFFF" height="17.3993" style="stroke:#181818;stroke-width:0.61;" width="6.1" x="236.985" y="1267.7325"/><rect fill="#FFFFFF" height="206.4659" style="stroke:#181818;stroke-width:0.61;" width="6.1" x="459.635" y="110.0002"/><rect fill="#FFFFFF" height="42.7286" style="stroke:#181818;stroke-width:0.61;" width="6.1" x="459.635" y="406.2219"/><rect fill="#FFFFFF" height="42.1901" style="stroke:#181818;stroke-width:0.61;" width="6.1" x="459.635" y="593.9541"/><rect fill="#FFFFFF" height="186.6981" style="stroke:#181818;stroke-width:0.61;" width="6.1" x="459.635" y="653.5435"/><rect fill="#FFFFFF" height="42.7286" style="stroke:#181818;stroke-width:0.61;" width="6.1" x="459.635" y="875.0402"/><rect fill="#FFFFFF" height="42.7286" style="stroke:#181818;stroke-width:0.61;" width="6.1" x="459.635" y="961.2837"/><rect fill="#FFFFFF" height="172.1344" style="stroke:#181818;stroke-width:0.61;" width="6.1" x="459.635" y="1025.6816"/><rect fill="#FFFFFF" height="42.7286" style="stroke:#181818;stroke-width:0.61;" width="6.1" x="598.715" y="161.731"/><rect fill="#FFFFFF" height="42.7286" style="stroke:#181818;stroke-width:0.61;" width="6.1" x="598.715" y="1043.0809"/><rect fill="#FFFFFF" height="101.7795" style="stroke:#181818;stroke-width:0.61;" width="6.1" x="776.53" y="721.0629"/><rect fill="#FFFFFF" height="42.1901" style="stroke:#181818;stroke-width:0.61;" width="6.1" x="974.78" y="763.253"/><polygon fill="#181818" points="229.665,65.3701,235.765,67.8101,229.665,70.2501,232.105,67.8101" style="stroke:#181818;stroke-width:0.61;"/><line style="stroke:#181818;stroke-width:0.61;" x1="66.185" x2="233.325" y1="67.8101" y2="67.8101"/><text fill="#000000" font-family="sans-serif" font-size="7.93" font-weight="bold" lengthAdjust="spacing" textLength="4.27" x="70.455" y="64.9096">1</text><text fill="#000000" font-family="sans-serif" font-size="7.93" lengthAdjust="spacing" textLength="95.77" x="77.165" y="64.9096">asks to see list of requests</text><polygon fill="#181818" points="408.09,82.7694,414.19,85.2094,408.09,87.6494,410.53,85.2094" style="stroke:#181818;stroke-width:0.61;"/><line style="stroke:#181818;stroke-width:0.61;" x1="243.085" x2="411.75" y1="85.2094" y2="85.2094"/><text fill="#000000" font-family="sans-serif" font-size="7.93" font-weight="bold" lengthAdjust="spacing" textLength="4.27" x="247.355" y="82.3089">2</text><text fill="#000000" font-family="sans-serif" font-size="7.93" lengthAdjust="spacing" textLength="21.96" x="254.065" y="82.3089">create</text><rect fill="#E3E3E3" height="18.0808" rx="1.525" ry="1.525" style="stroke:#181818;stroke-width:0.305;" width="94.55" x="415.41" y="72.6901"/><text fill="#000000" font-family="sans-serif" font-size="8.54" lengthAdjust="spacing" textLength="86.01" x="419.68" y="84.6911">:ListRequestController</text><polygon fill="#181818" points="452.315,107.5602,458.415,110.0002,452.315,112.4402,454.755,110.0002" style="stroke:#181818;stroke-width:0.61;"/><line style="stroke:#181818;stroke-width:0.61;" x1="243.085" x2="455.975" y1="110.0002" y2="110.0002"/><text fill="#000000" font-family="sans-serif" font-size="7.93" font-weight="bold" lengthAdjust="spacing" textLength="4.27" x="247.355" y="107.0997">3</text><text fill="#000000" font-family="sans-serif" font-size="7.93" lengthAdjust="spacing" textLength="51.24" x="254.065" y="107.0997">ListRequests()</text><polygon fill="#181818" points="551.135,124.9595,557.235,127.3995,551.135,129.8395,553.575,127.3995" style="stroke:#181818;stroke-width:0.61;"/><line style="stroke:#181818;stroke-width:0.61;" x1="465.735" x2="554.795" y1="127.3995" y2="127.3995"/><text fill="#000000" font-family="sans-serif" font-size="7.93" font-weight="bold" lengthAdjust="spacing" textLength="4.27" x="470.005" y="124.499">4</text><text fill="#000000" font-family="sans-serif" font-size="7.93" lengthAdjust="spacing" textLength="71.37" x="476.715" y="124.499">RequestsRepository</text><rect fill="#E3E3E3" height="27.6216" rx="1.525" ry="1.525" style="stroke:#181818;stroke-width:0.305;" width="86.62" x="558.455" y="114.8802"/><text fill="#000000" font-family="sans-serif" font-size="8.54" lengthAdjust="spacing" textLength="43.92" x="579.805" y="126.8812">Repository:</text><text fill="#000000" font-family="sans-serif" font-size="8.54" lengthAdjust="spacing" textLength="78.08" x="562.725" y="136.422">RequestsRepository</text><polygon fill="#181818" points="591.395,159.291,597.495,161.731,591.395,164.171,593.835,161.731" style="stroke:#181818;stroke-width:0.61;"/><line style="stroke:#181818;stroke-width:0.61;" x1="465.735" x2="595.055" y1="161.731" y2="161.731"/><text fill="#000000" font-family="sans-serif" font-size="7.93" font-weight="bold" lengthAdjust="spacing" textLength="4.27" x="470.005" y="158.8305">5</text><text fill="#000000" font-family="sans-serif" font-size="7.93" lengthAdjust="spacing" textLength="57.95" x="476.715" y="158.8305">getRequestList()</text><line style="stroke:#181818;stroke-width:0.61;" x1="604.815" x2="630.435" y1="179.1303" y2="179.1303"/><line style="stroke:#181818;stroke-width:0.61;" x1="630.435" x2="630.435" y1="179.1303" y2="187.0603"/><line style="stroke:#181818;stroke-width:0.61;" x1="605.425" x2="630.435" y1="187.0603" y2="187.0603"/><polygon fill="#181818" points="611.525,184.6203,605.425,187.0603,611.525,189.5003,609.085,187.0603" style="stroke:#181818;stroke-width:0.61;"/><text fill="#000000" font-family="sans-serif" font-size="7.93" font-weight="bold" lengthAdjust="spacing" textLength="4.27" x="609.085" y="176.2298">6</text><text fill="#000000" font-family="sans-serif" font-size="7.93" lengthAdjust="spacing" textLength="57.95" x="615.795" y="176.2298">getRequestList()</text><polygon fill="#181818" points="472.445,202.0196,466.345,204.4596,472.445,206.8996,470.005,204.4596" style="stroke:#181818;stroke-width:0.61;"/><line style="stroke:#181818;stroke-width:0.61;stroke-dasharray:2.0,2.0;" x1="468.785" x2="601.155" y1="204.4596" y2="204.4596"/><text fill="#000000" font-family="sans-serif" font-size="7.93" font-weight="bold" lengthAdjust="spacing" textLength="4.27" x="476.105" y="201.5591">7</text><text fill="#000000" font-family="sans-serif" font-size="7.93" lengthAdjust="spacing" textLength="57.95" x="482.815" y="201.5591">getRequestList()</text><line style="stroke:#181818;stroke-width:0.61;" x1="465.735" x2="491.355" y1="221.8589" y2="221.8589"/><line style="stroke:#181818;stroke-width:0.61;" x1="491.355" x2="491.355" y1="221.8589" y2="229.7889"/><line style="stroke:#181818;stroke-width:0.61;" x1="466.345" x2="491.355" y1="229.7889" y2="229.7889"/><polygon fill="#181818" points="472.445,227.3489,466.345,229.7889,472.445,232.2289,470.005,229.7889" style="stroke:#181818;stroke-width:0.61;"/><text fill="#000000" font-family="sans-serif" font-size="7.93" font-weight="bold" lengthAdjust="spacing" textLength="4.27" x="470.005" y="218.9584">8</text><text fill="#000000" font-family="sans-serif" font-size="7.93" lengthAdjust="spacing" textLength="70.15" x="476.715" y="218.9584">Collections.sort(list)</text><path d="M409.31,238.9389 L453.84,238.9389 L453.84,242.9182 L447.74,249.0182 L409.31,249.0182 L409.31,238.9389 " fill="#EEEEEE" style="stroke:#000000;stroke-width:0.915;"/><rect fill="none" height="60.7379" style="stroke:#000000;stroke-width:0.915;" width="149.145" x="409.31" y="238.9389"/><text fill="#000000" font-family="sans-serif" font-size="7.93" font-weight="bold" lengthAdjust="spacing" textLength="17.08" x="418.46" y="246.7277">loop</text><line style="stroke:#181818;stroke-width:0.61;" x1="465.735" x2="491.355" y1="261.5375" y2="261.5375"/><line style="stroke:#181818;stroke-width:0.61;" x1="491.355" x2="491.355" y1="261.5375" y2="269.4675"/><line style="stroke:#181818;stroke-width:0.61;" x1="466.345" x2="491.355" y1="269.4675" y2="269.4675"/><polygon fill="#181818" points="472.445,267.0275,466.345,269.4675,472.445,271.9075,470.005,269.4675" style="stroke:#181818;stroke-width:0.61;"/><text fill="#000000" font-family="sans-serif" font-size="7.93" font-weight="bold" lengthAdjust="spacing" textLength="4.27" x="470.005" y="258.637">9</text><text fill="#000000" font-family="sans-serif" font-size="7.93" lengthAdjust="spacing" textLength="74.42" x="476.715" y="258.637">request.getProperty()</text><line style="stroke:#181818;stroke-width:0.61;" x1="465.735" x2="491.355" y1="286.8668" y2="286.8668"/><line style="stroke:#181818;stroke-width:0.61;" x1="491.355" x2="491.355" y1="286.8668" y2="294.7968"/><line style="stroke:#181818;stroke-width:0.61;" x1="466.345" x2="491.355" y1="294.7968" y2="294.7968"/><polygon fill="#181818" points="472.445,292.3568,466.345,294.7968,472.445,297.2368,470.005,294.7968" style="stroke:#181818;stroke-width:0.61;"/><text fill="#000000" font-family="sans-serif" font-size="7.93" font-weight="bold" lengthAdjust="spacing" textLength="8.54" x="470.005" y="283.9663">10</text><text fill="#000000" font-family="sans-serif" font-size="7.93" lengthAdjust="spacing" textLength="61" x="480.985" y="283.9663">request.getDate()</text><polygon fill="#181818" points="249.795,314.0261,243.695,316.4661,249.795,318.9061,247.355,316.4661" style="stroke:#181818;stroke-width:0.61;"/><line style="stroke:#181818;stroke-width:0.61;stroke-dasharray:2.0,2.0;" x1="246.135" x2="462.075" y1="316.4661" y2="316.4661"/><text fill="#000000" font-family="sans-serif" font-size="7.93" font-weight="bold" lengthAdjust="spacing" textLength="8.54" x="253.455" y="313.5656">11</text><text fill="#000000" font-family="sans-serif" font-size="7.93" lengthAdjust="spacing" textLength="10.37" x="264.435" y="313.5656">list</text><polygon fill="#181818" points="72.895,340.2847,66.795,342.7247,72.895,345.1647,70.455,342.7247" style="stroke:#181818;stroke-width:0.61;"/><line style="stroke:#181818;stroke-width:0.61;stroke-dasharray:2.0,2.0;" x1="69.235" x2="239.425" y1="342.7247" y2="342.7247"/><text fill="#000000" font-family="sans-serif" font-size="7.93" font-weight="bold" lengthAdjust="spacing" textLength="8.54" x="76.555" y="335.3946">12</text><text fill="#000000" font-family="sans-serif" font-size="7.93" lengthAdjust="spacing" textLength="142.74" x="87.535" y="330.9649">shows list of offers by most recent dates</text><text fill="#000000" font-family="sans-serif" font-size="7.93" lengthAdjust="spacing" textLength="119.56" x="87.535" y="339.8242">and asks to choose one or cancel</text><path d="M6.1,351.8747 L45.75,351.8747 L45.75,355.854 L39.65,361.954 L6.1,361.954 L6.1,351.8747 " fill="#EEEEEE" style="stroke:#000000;stroke-width:0.915;"/><rect fill="none" height="899.0685" style="stroke:#000000;stroke-width:0.915;" width="1142.225" x="6.1" y="351.8747"/><text fill="#000000" font-family="sans-serif" font-size="7.93" font-weight="bold" lengthAdjust="spacing" textLength="12.2" x="15.25" y="359.6635">opt</text><path d="M12.2,366.224 L56.73,366.224 L56.73,370.2033 L50.63,376.3033 L12.2,376.3033 L12.2,366.224 " fill="#EEEEEE" style="stroke:#000000;stroke-width:0.915;"/><rect fill="none" height="880.4492" style="stroke:#000000;stroke-width:0.915;" width="1130.025" x="12.2" y="366.224"/><text fill="#000000" font-family="sans-serif" font-size="7.93" font-weight="bold" lengthAdjust="spacing" textLength="17.08" x="21.35" y="374.0128">loop</text><polygon fill="#181818" points="229.665,386.3826,235.765,388.8226,229.665,391.2626,232.105,388.8226" style="stroke:#181818;stroke-width:0.61;"/><line style="stroke:#181818;stroke-width:0.61;" x1="66.185" x2="233.325" y1="388.8226" y2="388.8226"/><text fill="#000000" font-family="sans-serif" font-size="7.93" font-weight="bold" lengthAdjust="spacing" textLength="8.54" x="70.455" y="385.9221">13</text><text fill="#000000" font-family="sans-serif" font-size="7.93" lengthAdjust="spacing" textLength="82.96" x="81.435" y="385.9221">selects request number</text><polygon fill="#181818" points="452.315,403.7819,458.415,406.2219,452.315,408.6619,454.755,406.2219" style="stroke:#181818;stroke-width:0.61;"/><line style="stroke:#181818;stroke-width:0.61;" x1="243.085" x2="455.975" y1="406.2219" y2="406.2219"/><text fill="#000000" font-family="sans-serif" font-size="7.93" font-weight="bold" lengthAdjust="spacing" textLength="8.54" x="247.355" y="403.3214">14</text><text fill="#000000" font-family="sans-serif" font-size="7.93" lengthAdjust="spacing" textLength="100.65" x="258.335" y="403.3214">getRequest(requestNum,list)</text><line style="stroke:#181818;stroke-width:0.61;" x1="465.735" x2="491.355" y1="423.6212" y2="423.6212"/><line style="stroke:#181818;stroke-width:0.61;" x1="491.355" x2="491.355" y1="423.6212" y2="431.5512"/><line style="stroke:#181818;stroke-width:0.61;" x1="466.345" x2="491.355" y1="431.5512" y2="431.5512"/><polygon fill="#181818" points="472.445,429.1112,466.345,431.5512,472.445,433.9912,470.005,431.5512" style="stroke:#181818;stroke-width:0.61;"/><text fill="#000000" font-family="sans-serif" font-size="7.93" font-weight="bold" lengthAdjust="spacing" textLength="8.54" x="470.005" y="420.7207">15</text><text fill="#000000" font-family="sans-serif" font-size="7.93" lengthAdjust="spacing" textLength="100.65" x="480.985" y="420.7207">getRequest(requestNum,list)</text><polygon fill="#181818" points="249.795,446.5105,243.695,448.9505,249.795,451.3905,247.355,448.9505" style="stroke:#181818;stroke-width:0.61;"/><line style="stroke:#181818;stroke-width:0.61;stroke-dasharray:2.0,2.0;" x1="246.135" x2="462.075" y1="448.9505" y2="448.9505"/><text fill="#000000" font-family="sans-serif" font-size="7.93" font-weight="bold" lengthAdjust="spacing" textLength="8.54" x="253.455" y="446.05">16</text><text fill="#000000" font-family="sans-serif" font-size="7.93" lengthAdjust="spacing" textLength="26.23" x="264.435" y="446.05">request</text><polygon fill="#181818" points="72.895,472.7691,66.795,475.2091,72.895,477.6491,70.455,475.2091" style="stroke:#181818;stroke-width:0.61;"/><line style="stroke:#181818;stroke-width:0.61;stroke-dasharray:2.0,2.0;" x1="69.235" x2="239.425" y1="475.2091" y2="475.2091"/><text fill="#000000" font-family="sans-serif" font-size="7.93" font-weight="bold" lengthAdjust="spacing" textLength="8.54" x="76.555" y="467.8789">17</text><text fill="#000000" font-family="sans-serif" font-size="7.93" lengthAdjust="spacing" textLength="130.54" x="87.535" y="463.4493">shows three options: accept request,</text><text fill="#000000" font-family="sans-serif" font-size="7.93" lengthAdjust="spacing" textLength="87.23" x="87.535" y="472.3086">delete request or cancel.</text><path d="M18.3,484.3591 L55.51,484.3591 L55.51,488.3384 L49.41,494.4384 L18.3,494.4384 L18.3,484.3591 " fill="#EEEEEE" style="stroke:#000000;stroke-width:0.915;"/><rect fill="none" height="524.5333" style="stroke:#000000;stroke-width:0.915;" width="1117.825" x="18.3" y="484.3591"/><text fill="#000000" font-family="sans-serif" font-size="7.93" font-weight="bold" lengthAdjust="spacing" textLength="9.76" x="27.45" y="492.1479">alt</text><text fill="#000000" font-family="sans-serif" font-size="6.71" font-weight="bold" lengthAdjust="spacing" textLength="84.18" x="64.66" y="491.6534">[option = accept request]</text><polygon fill="#181818" points="229.665,504.5177,235.765,506.9577,229.665,509.3977,232.105,506.9577" style="stroke:#181818;stroke-width:0.61;"/><line style="stroke:#181818;stroke-width:0.61;" x1="66.185" x2="233.325" y1="506.9577" y2="506.9577"/><text fill="#000000" font-family="sans-serif" font-size="7.93" font-weight="bold" lengthAdjust="spacing" textLength="8.54" x="70.455" y="504.0572">18</text><text fill="#000000" font-family="sans-serif" font-size="7.93" lengthAdjust="spacing" textLength="84.79" x="81.435" y="504.0572">chooses accept request</text><polygon fill="#181818" points="72.895,521.917,66.795,524.357,72.895,526.797,70.455,524.357" style="stroke:#181818;stroke-width:0.61;"/><line style="stroke:#181818;stroke-width:0.61;stroke-dasharray:2.0,2.0;" x1="69.235" x2="239.425" y1="524.357" y2="524.357"/><text fill="#000000" font-family="sans-serif" font-size="7.93" font-weight="bold" lengthAdjust="spacing" textLength="8.54" x="76.555" y="521.4565">19</text><text fill="#000000" font-family="sans-serif" font-size="7.93" lengthAdjust="spacing" textLength="128.71" x="87.535" y="521.4565">shows and asks type of commission</text><polygon fill="#181818" points="229.665,539.3163,235.765,541.7563,229.665,544.1963,232.105,541.7563" style="stroke:#181818;stroke-width:0.61;"/><line style="stroke:#181818;stroke-width:0.61;" x1="66.185" x2="233.325" y1="541.7563" y2="541.7563"/><text fill="#000000" font-family="sans-serif" font-size="7.93" font-weight="bold" lengthAdjust="spacing" textLength="8.54" x="70.455" y="538.8558">20</text><text fill="#000000" font-family="sans-serif" font-size="7.93" lengthAdjust="spacing" textLength="96.99" x="81.435" y="538.8558">selects type of commission</text><polygon fill="#181818" points="72.895,556.7155,66.795,559.1555,72.895,561.5955,70.455,559.1555" style="stroke:#181818;stroke-width:0.61;"/><line style="stroke:#181818;stroke-width:0.61;stroke-dasharray:2.0,2.0;" x1="69.235" x2="239.425" y1="559.1555" y2="559.1555"/><text fill="#000000" font-family="sans-serif" font-size="7.93" font-weight="bold" lengthAdjust="spacing" textLength="8.54" x="76.555" y="556.2551">21</text><text fill="#000000" font-family="sans-serif" font-size="7.93" lengthAdjust="spacing" textLength="82.35" x="87.535" y="556.2551">asks commission value</text><polygon fill="#181818" points="229.665,574.1148,235.765,576.5548,229.665,578.9948,232.105,576.5548" style="stroke:#181818;stroke-width:0.61;"/><line style="stroke:#181818;stroke-width:0.61;" x1="66.185" x2="233.325" y1="576.5548" y2="576.5548"/><text fill="#000000" font-family="sans-serif" font-size="7.93" font-weight="bold" lengthAdjust="spacing" textLength="8.54" x="70.455" y="573.6544">22</text><text fill="#000000" font-family="sans-serif" font-size="7.93" lengthAdjust="spacing" textLength="89.06" x="81.435" y="573.6544">inserts commission value</text><polygon fill="#181818" points="452.315,591.5141,458.415,593.9541,452.315,596.3941,454.755,593.9541" style="stroke:#181818;stroke-width:0.61;"/><line style="stroke:#181818;stroke-width:0.61;" x1="243.085" x2="455.975" y1="593.9541" y2="593.9541"/><text fill="#000000" font-family="sans-serif" font-size="7.93" font-weight="bold" lengthAdjust="spacing" textLength="8.54" x="247.355" y="591.0537">23</text><text fill="#000000" font-family="sans-serif" font-size="7.93" lengthAdjust="spacing" textLength="193.98" x="258.335" y="591.0537">createCommission(commissiontype,commissionValue)</text><polygon fill="#181818" points="650.565,608.9134,656.665,611.3534,650.565,613.7934,653.005,611.3534" style="stroke:#181818;stroke-width:0.61;"/><line style="stroke:#181818;stroke-width:0.61;" x1="465.735" x2="654.225" y1="611.3534" y2="611.3534"/><text fill="#000000" font-family="sans-serif" font-size="7.93" font-weight="bold" lengthAdjust="spacing" textLength="8.54" x="470.005" y="608.453">24</text><text fill="#000000" font-family="sans-serif" font-size="7.93" lengthAdjust="spacing" textLength="21.96" x="480.985" y="608.453">create</text><rect fill="#E3E3E3" height="18.0808" rx="1.525" ry="1.525" style="stroke:#181818;stroke-width:0.305;" width="54.9" x="657.885" y="598.8341"/><text fill="#000000" font-family="sans-serif" font-size="8.54" lengthAdjust="spacing" textLength="46.36" x="662.155" y="610.8352">Commission</text><polygon fill="#181818" points="249.795,633.7042,243.695,636.1442,249.795,638.5842,247.355,636.1442" style="stroke:#181818;stroke-width:0.61;"/><line style="stroke:#181818;stroke-width:0.61;stroke-dasharray:2.0,2.0;" x1="246.135" x2="462.075" y1="636.1442" y2="636.1442"/><text fill="#000000" font-family="sans-serif" font-size="7.93" font-weight="bold" lengthAdjust="spacing" textLength="8.54" x="253.455" y="633.2437">25</text><text fill="#000000" font-family="sans-serif" font-size="7.93" lengthAdjust="spacing" textLength="42.7" x="264.435" y="633.2437">commission</text><polygon fill="#181818" points="452.315,651.1035,458.415,653.5435,452.315,655.9835,454.755,653.5435" style="stroke:#181818;stroke-width:0.61;"/><line style="stroke:#181818;stroke-width:0.61;" x1="243.085" x2="455.975" y1="653.5435" y2="653.5435"/><text fill="#000000" font-family="sans-serif" font-size="7.93" font-weight="bold" lengthAdjust="spacing" textLength="8.54" x="247.355" y="650.643">26</text><text fill="#000000" font-family="sans-serif" font-size="7.93" lengthAdjust="spacing" textLength="130.54" x="258.335" y="650.643">AcceptRequest(request,commission)</text><line style="stroke:#181818;stroke-width:0.61;" x1="465.735" x2="491.355" y1="670.9428" y2="670.9428"/><line style="stroke:#181818;stroke-width:0.61;" x1="491.355" x2="491.355" y1="670.9428" y2="678.8728"/><line style="stroke:#181818;stroke-width:0.61;" x1="466.345" x2="491.355" y1="678.8728" y2="678.8728"/><polygon fill="#181818" points="472.445,676.4328,466.345,678.8728,472.445,681.3128,470.005,678.8728" style="stroke:#181818;stroke-width:0.61;"/><text fill="#000000" font-family="sans-serif" font-size="7.93" font-weight="bold" lengthAdjust="spacing" textLength="8.54" x="470.005" y="668.0423">27</text><text fill="#000000" font-family="sans-serif" font-size="7.93" lengthAdjust="spacing" textLength="45.75" x="480.985" y="668.0423">getProperty()</text><polygon fill="#181818" points="711.565,693.8321,717.665,696.2721,711.565,698.7121,714.005,696.2721" style="stroke:#181818;stroke-width:0.61;"/><line style="stroke:#181818;stroke-width:0.61;" x1="465.735" x2="715.225" y1="696.2721" y2="696.2721"/><text fill="#000000" font-family="sans-serif" font-size="7.93" font-weight="bold" lengthAdjust="spacing" textLength="8.54" x="470.005" y="693.3716">28</text><text fill="#000000" font-family="sans-serif" font-size="7.93" lengthAdjust="spacing" textLength="21.96" x="480.985" y="693.3716">create</text><rect fill="#E3E3E3" height="18.0808" rx="1.525" ry="1.525" style="stroke:#181818;stroke-width:0.305;" width="121.39" x="718.885" y="683.7528"/><text fill="#000000" font-family="sans-serif" font-size="8.54" lengthAdjust="spacing" textLength="112.85" x="723.155" y="695.7538">SaleAnnouncementController</text><polygon fill="#181818" points="769.21,718.6229,775.31,721.0629,769.21,723.5029,771.65,721.0629" style="stroke:#181818;stroke-width:0.61;"/><line style="stroke:#181818;stroke-width:0.61;" x1="465.735" x2="772.87" y1="721.0629" y2="721.0629"/><text fill="#000000" font-family="sans-serif" font-size="7.93" font-weight="bold" lengthAdjust="spacing" textLength="8.54" x="470.005" y="718.1624">29</text><text fill="#000000" font-family="sans-serif" font-size="7.93" lengthAdjust="spacing" textLength="169.58" x="480.985" y="718.1624">createSaleAnnouncement(property,commission)</text><polygon fill="#181818" points="907.985,736.0222,914.085,738.4622,907.985,740.9022,910.425,738.4622" style="stroke:#181818;stroke-width:0.61;"/><line style="stroke:#181818;stroke-width:0.61;" x1="782.63" x2="911.645" y1="738.4622" y2="738.4622"/><text fill="#000000" font-family="sans-serif" font-size="7.93" font-weight="bold" lengthAdjust="spacing" textLength="8.54" x="786.9" y="735.5617">30</text><text fill="#000000" font-family="sans-serif" font-size="7.93" lengthAdjust="spacing" textLength="21.96" x="797.88" y="735.5617">create</text><rect fill="#E3E3E3" height="18.0808" rx="1.525" ry="1.525" style="stroke:#181818;stroke-width:0.305;" width="125.05" x="915.305" y="725.9429"/><text fill="#000000" font-family="sans-serif" font-size="8.54" lengthAdjust="spacing" textLength="116.51" x="919.575" y="737.9439">SaleAnnouncementRepository</text><polygon fill="#181818" points="967.46,760.813,973.56,763.253,967.46,765.693,969.9,763.253" style="stroke:#181818;stroke-width:0.61;"/><line style="stroke:#181818;stroke-width:0.61;" x1="782.63" x2="971.12" y1="763.253" y2="763.253"/><text fill="#000000" font-family="sans-serif" font-size="7.93" font-weight="bold" lengthAdjust="spacing" textLength="8.54" x="786.9" y="760.3525">31</text><text fill="#000000" font-family="sans-serif" font-size="7.93" lengthAdjust="spacing" textLength="169.58" x="797.88" y="760.3525">createSaleAnnouncement(property,commission)</text><polygon fill="#181818" points="1039.135,778.2123,1045.235,780.6523,1039.135,783.0923,1041.575,780.6523" style="stroke:#181818;stroke-width:0.61;"/><line style="stroke:#181818;stroke-width:0.61;" x1="980.88" x2="1042.795" y1="780.6523" y2="780.6523"/><text fill="#000000" font-family="sans-serif" font-size="7.93" font-weight="bold" lengthAdjust="spacing" textLength="8.54" x="985.15" y="777.7518">32</text><text fill="#000000" font-family="sans-serif" font-size="7.93" lengthAdjust="spacing" textLength="21.96" x="996.13" y="777.7518">create</text><rect fill="#E3E3E3" height="18.0808" rx="1.525" ry="1.525" style="stroke:#181818;stroke-width:0.305;" width="83.57" x="1046.455" y="768.133"/><text fill="#000000" font-family="sans-serif" font-size="8.54" lengthAdjust="spacing" textLength="75.03" x="1050.725" y="780.134">SaleAnnouncement</text><polygon fill="#181818" points="789.34,803.003,783.24,805.443,789.34,807.883,786.9,805.443" style="stroke:#181818;stroke-width:0.61;"/><line style="stroke:#181818;stroke-width:0.61;stroke-dasharray:2.0,2.0;" x1="785.68" x2="977.22" y1="805.443" y2="805.443"/><text fill="#000000" font-family="sans-serif" font-size="7.93" font-weight="bold" lengthAdjust="spacing" textLength="8.54" x="793" y="802.5426">33</text><text fill="#000000" font-family="sans-serif" font-size="7.93" lengthAdjust="spacing" textLength="67.71" x="803.98" y="802.5426">saleAnnouncement</text><polygon fill="#181818" points="472.445,820.4023,466.345,822.8423,472.445,825.2823,470.005,822.8423" style="stroke:#181818;stroke-width:0.61;"/><line style="stroke:#181818;stroke-width:0.61;stroke-dasharray:2.0,2.0;" x1="468.785" x2="778.97" y1="822.8423" y2="822.8423"/><text fill="#000000" font-family="sans-serif" font-size="7.93" font-weight="bold" lengthAdjust="spacing" textLength="8.54" x="476.105" y="819.9419">34</text><text fill="#000000" font-family="sans-serif" font-size="7.93" lengthAdjust="spacing" textLength="67.71" x="487.085" y="819.9419">saleAnnouncement</text><polygon fill="#181818" points="249.795,837.8016,243.695,840.2416,249.795,842.6816,247.355,840.2416" style="stroke:#181818;stroke-width:0.61;"/><line style="stroke:#181818;stroke-width:0.61;stroke-dasharray:2.0,2.0;" x1="246.135" x2="462.075" y1="840.2416" y2="840.2416"/><text fill="#000000" font-family="sans-serif" font-size="7.93" font-weight="bold" lengthAdjust="spacing" textLength="8.54" x="253.455" y="837.3412">35</text><text fill="#000000" font-family="sans-serif" font-size="7.93" lengthAdjust="spacing" textLength="67.71" x="264.435" y="837.3412">saleAnnouncement</text><polygon fill="#181818" points="72.895,855.2009,66.795,857.6409,72.895,860.0809,70.455,857.6409" style="stroke:#181818;stroke-width:0.61;"/><line style="stroke:#181818;stroke-width:0.61;stroke-dasharray:2.0,2.0;" x1="69.235" x2="236.375" y1="857.6409" y2="857.6409"/><text fill="#000000" font-family="sans-serif" font-size="7.93" font-weight="bold" lengthAdjust="spacing" textLength="8.54" x="76.555" y="854.7405">36</text><text fill="#000000" font-family="sans-serif" font-size="7.93" lengthAdjust="spacing" textLength="137.86" x="87.535" y="854.7405">confirms that the add has been created</text><polygon fill="#181818" points="452.315,872.6002,458.415,875.0402,452.315,877.4802,454.755,875.0402" style="stroke:#181818;stroke-width:0.61;"/><line style="stroke:#181818;stroke-width:0.61;" x1="243.085" x2="455.975" y1="875.0402" y2="875.0402"/><text fill="#000000" font-family="sans-serif" font-size="7.93" font-weight="bold" lengthAdjust="spacing" textLength="8.54" x="247.355" y="872.1398">37</text><text fill="#000000" font-family="sans-serif" font-size="7.93" lengthAdjust="spacing" textLength="95.77" x="258.335" y="872.1398">DeleteRequest(request,list)</text><line style="stroke:#181818;stroke-width:0.61;" x1="465.735" x2="491.355" y1="892.4395" y2="892.4395"/><line style="stroke:#181818;stroke-width:0.61;" x1="491.355" x2="491.355" y1="892.4395" y2="900.3695"/><line style="stroke:#181818;stroke-width:0.61;" x1="466.345" x2="491.355" y1="900.3695" y2="900.3695"/><polygon fill="#181818" points="472.445,897.9295,466.345,900.3695,472.445,902.8095,470.005,900.3695" style="stroke:#181818;stroke-width:0.61;"/><text fill="#000000" font-family="sans-serif" font-size="7.93" font-weight="bold" lengthAdjust="spacing" textLength="8.54" x="470.005" y="889.5391">38</text><text fill="#000000" font-family="sans-serif" font-size="7.93" lengthAdjust="spacing" textLength="71.37" x="480.985" y="889.5391">List.remove(request)</text><polygon fill="#181818" points="249.795,915.3288,243.695,917.7688,249.795,920.2088,247.355,917.7688" style="stroke:#181818;stroke-width:0.61;"/><line style="stroke:#181818;stroke-width:0.61;stroke-dasharray:2.0,2.0;" x1="246.135" x2="462.075" y1="917.7688" y2="917.7688"/><text fill="#000000" font-family="sans-serif" font-size="7.93" font-weight="bold" lengthAdjust="spacing" textLength="8.54" x="253.455" y="914.8683">39</text><text fill="#000000" font-family="sans-serif" font-size="7.93" lengthAdjust="spacing" textLength="10.37" x="264.435" y="914.8683">list</text><line style="stroke:#000000;stroke-width:0.61;stroke-dasharray:2.0,2.0;" x1="18.3" x2="1136.125" y1="923.2588" y2="923.2588"/><text fill="#000000" font-family="sans-serif" font-size="6.71" font-weight="bold" lengthAdjust="spacing" textLength="83.57" x="21.35" y="929.3332">[option = delete request]</text><polygon fill="#181818" points="229.665,941.4445,235.765,943.8845,229.665,946.3245,232.105,943.8845" style="stroke:#181818;stroke-width:0.61;"/><line style="stroke:#181818;stroke-width:0.61;" x1="66.185" x2="233.325" y1="943.8845" y2="943.8845"/><text fill="#000000" font-family="sans-serif" font-size="7.93" font-weight="bold" lengthAdjust="spacing" textLength="8.54" x="70.455" y="940.984">40</text><text fill="#000000" font-family="sans-serif" font-size="7.93" lengthAdjust="spacing" textLength="82.35" x="81.435" y="940.984">chooses delete request</text><polygon fill="#181818" points="452.315,958.8438,458.415,961.2837,452.315,963.7238,454.755,961.2837" style="stroke:#181818;stroke-width:0.61;"/><line style="stroke:#181818;stroke-width:0.61;" x1="243.085" x2="455.975" y1="961.2837" y2="961.2837"/><text fill="#000000" font-family="sans-serif" font-size="7.93" font-weight="bold" lengthAdjust="spacing" textLength="8.54" x="247.355" y="958.3833">41</text><text fill="#000000" font-family="sans-serif" font-size="7.93" lengthAdjust="spacing" textLength="95.77" x="258.335" y="958.3833">DeleteRequest(request,list)</text><line style="stroke:#181818;stroke-width:0.61;" x1="465.735" x2="491.355" y1="978.683" y2="978.683"/><line style="stroke:#181818;stroke-width:0.61;" x1="491.355" x2="491.355" y1="978.683" y2="986.613"/><line style="stroke:#181818;stroke-width:0.61;" x1="466.345" x2="491.355" y1="986.613" y2="986.613"/><polygon fill="#181818" points="472.445,984.173,466.345,986.613,472.445,989.053,470.005,986.613" style="stroke:#181818;stroke-width:0.61;"/><text fill="#000000" font-family="sans-serif" font-size="7.93" font-weight="bold" lengthAdjust="spacing" textLength="8.54" x="470.005" y="975.7826">42</text><text fill="#000000" font-family="sans-serif" font-size="7.93" lengthAdjust="spacing" textLength="71.37" x="480.985" y="975.7826">List.remove(request)</text><polygon fill="#181818" points="249.795,1001.5723,243.695,1004.0123,249.795,1006.4523,247.355,1004.0123" style="stroke:#181818;stroke-width:0.61;"/><line style="stroke:#181818;stroke-width:0.61;stroke-dasharray:2.0,2.0;" x1="246.135" x2="462.075" y1="1004.0123" y2="1004.0123"/><text fill="#000000" font-family="sans-serif" font-size="7.93" font-weight="bold" lengthAdjust="spacing" textLength="8.54" x="253.455" y="1001.1119">43</text><text fill="#000000" font-family="sans-serif" font-size="7.93" lengthAdjust="spacing" textLength="10.37" x="264.435" y="1001.1119">list</text><polygon fill="#181818" points="452.315,1023.2416,458.415,1025.6816,452.315,1028.1216,454.755,1025.6816" style="stroke:#181818;stroke-width:0.61;"/><line style="stroke:#181818;stroke-width:0.61;" x1="243.085" x2="455.975" y1="1025.6816" y2="1025.6816"/><text fill="#000000" font-family="sans-serif" font-size="7.93" font-weight="bold" lengthAdjust="spacing" textLength="8.54" x="247.355" y="1022.7812">44</text><text fill="#000000" font-family="sans-serif" font-size="7.93" lengthAdjust="spacing" textLength="51.24" x="258.335" y="1022.7812">ListRequests()</text><polygon fill="#181818" points="591.395,1040.6409,597.495,1043.0809,591.395,1045.5209,593.835,1043.0809" style="stroke:#181818;stroke-width:0.61;"/><line style="stroke:#181818;stroke-width:0.61;" x1="465.735" x2="595.055" y1="1043.0809" y2="1043.0809"/><text fill="#000000" font-family="sans-serif" font-size="7.93" font-weight="bold" lengthAdjust="spacing" textLength="8.54" x="470.005" y="1040.1805">45</text><text fill="#000000" font-family="sans-serif" font-size="7.93" lengthAdjust="spacing" textLength="57.95" x="480.985" y="1040.1805">getRequestList()</text><line style="stroke:#181818;stroke-width:0.61;" x1="604.815" x2="630.435" y1="1060.4802" y2="1060.4802"/><line style="stroke:#181818;stroke-width:0.61;" x1="630.435" x2="630.435" y1="1060.4802" y2="1068.4102"/><line style="stroke:#181818;stroke-width:0.61;" x1="605.425" x2="630.435" y1="1068.4102" y2="1068.4102"/><polygon fill="#181818" points="611.525,1065.9702,605.425,1068.4102,611.525,1070.8502,609.085,1068.4102" style="stroke:#181818;stroke-width:0.61;"/><text fill="#000000" font-family="sans-serif" font-size="7.93" font-weight="bold" lengthAdjust="spacing" textLength="8.54" x="609.085" y="1057.5798">46</text><text fill="#000000" font-family="sans-serif" font-size="7.93" lengthAdjust="spacing" textLength="57.95" x="620.065" y="1057.5798">getRequestList()</text><polygon fill="#181818" points="472.445,1083.3695,466.345,1085.8095,472.445,1088.2495,470.005,1085.8095" style="stroke:#181818;stroke-width:0.61;"/><line style="stroke:#181818;stroke-width:0.61;stroke-dasharray:2.0,2.0;" x1="468.785" x2="601.155" y1="1085.8095" y2="1085.8095"/><text fill="#000000" font-family="sans-serif" font-size="7.93" font-weight="bold" lengthAdjust="spacing" textLength="8.54" x="476.105" y="1082.9091">47</text><text fill="#000000" font-family="sans-serif" font-size="7.93" lengthAdjust="spacing" textLength="57.95" x="487.085" y="1082.9091">getRequestList()</text><line style="stroke:#181818;stroke-width:0.61;" x1="465.735" x2="491.355" y1="1103.2088" y2="1103.2088"/><line style="stroke:#181818;stroke-width:0.61;" x1="491.355" x2="491.355" y1="1103.2088" y2="1111.1388"/><line style="stroke:#181818;stroke-width:0.61;" x1="466.345" x2="491.355" y1="1111.1388" y2="1111.1388"/><polygon fill="#181818" points="472.445,1108.6988,466.345,1111.1388,472.445,1113.5788,470.005,1111.1388" style="stroke:#181818;stroke-width:0.61;"/><text fill="#000000" font-family="sans-serif" font-size="7.93" font-weight="bold" lengthAdjust="spacing" textLength="8.54" x="470.005" y="1100.3083">48</text><text fill="#000000" font-family="sans-serif" font-size="7.93" lengthAdjust="spacing" textLength="70.15" x="480.985" y="1100.3083">Collections.sort(list)</text><path d="M409.31,1120.2888 L453.84,1120.2888 L453.84,1124.2681 L447.74,1130.3681 L409.31,1130.3681 L409.31,1120.2888 " fill="#EEEEEE" style="stroke:#000000;stroke-width:0.915;"/><rect fill="none" height="60.7379" style="stroke:#000000;stroke-width:0.915;" width="153.415" x="409.31" y="1120.2888"/><text fill="#000000" font-family="sans-serif" font-size="7.93" font-weight="bold" lengthAdjust="spacing" textLength="17.08" x="418.46" y="1128.0776">loop</text><line style="stroke:#181818;stroke-width:0.61;" x1="465.735" x2="491.355" y1="1142.8874" y2="1142.8874"/><line style="stroke:#181818;stroke-width:0.61;" x1="491.355" x2="491.355" y1="1142.8874" y2="1150.8174"/><line style="stroke:#181818;stroke-width:0.61;" x1="466.345" x2="491.355" y1="1150.8174" y2="1150.8174"/><polygon fill="#181818" points="472.445,1148.3774,466.345,1150.8174,472.445,1153.2574,470.005,1150.8174" style="stroke:#181818;stroke-width:0.61;"/><text fill="#000000" font-family="sans-serif" font-size="7.93" font-weight="bold" lengthAdjust="spacing" textLength="8.54" x="470.005" y="1139.9869">49</text><text fill="#000000" font-family="sans-serif" font-size="7.93" lengthAdjust="spacing" textLength="74.42" x="480.985" y="1139.9869">request.getProperty()</text><line style="stroke:#181818;stroke-width:0.61;" x1="465.735" x2="491.355" y1="1168.2167" y2="1168.2167"/><line style="stroke:#181818;stroke-width:0.61;" x1="491.355" x2="491.355" y1="1168.2167" y2="1176.1467"/><line style="stroke:#181818;stroke-width:0.61;" x1="466.345" x2="491.355" y1="1176.1467" y2="1176.1467"/><polygon fill="#181818" points="472.445,1173.7067,466.345,1176.1467,472.445,1178.5867,470.005,1176.1467" style="stroke:#181818;stroke-width:0.61;"/><text fill="#000000" font-family="sans-serif" font-size="7.93" font-weight="bold" lengthAdjust="spacing" textLength="8.54" x="470.005" y="1165.3162">50</text><text fill="#000000" font-family="sans-serif" font-size="7.93" lengthAdjust="spacing" textLength="61" x="480.985" y="1165.3162">request.getDate()</text><polygon fill="#181818" points="249.795,1195.376,243.695,1197.816,249.795,1200.256,247.355,1197.816" style="stroke:#181818;stroke-width:0.61;"/><line style="stroke:#181818;stroke-width:0.61;stroke-dasharray:2.0,2.0;" x1="246.135" x2="462.075" y1="1197.816" y2="1197.816"/><text fill="#000000" font-family="sans-serif" font-size="7.93" font-weight="bold" lengthAdjust="spacing" textLength="8.54" x="253.455" y="1194.9155">51</text><text fill="#000000" font-family="sans-serif" font-size="7.93" lengthAdjust="spacing" textLength="10.37" x="264.435" y="1194.9155">list</text><polygon fill="#181818" points="72.895,1239.3532,66.795,1241.7932,72.895,1244.2332,70.455,1241.7932" style="stroke:#181818;stroke-width:0.61;"/><line style="stroke:#181818;stroke-width:0.61;stroke-dasharray:2.0,2.0;" x1="69.235" x2="239.425" y1="1241.7932" y2="1241.7932"/><text fill="#000000" font-family="sans-serif" font-size="7.93" font-weight="bold" lengthAdjust="spacing" textLength="8.54" x="76.555" y="1225.6038">52</text><text fill="#000000" font-family="sans-serif" font-size="7.93" lengthAdjust="spacing" textLength="109.19" x="87.535" y="1212.3148">confirms that the add has been</text><text fill="#000000" font-family="sans-serif" font-size="7.93" lengthAdjust="spacing" textLength="122" x="89.975" y="1221.1741">deleted and shows refreshed list of</text><text fill="#000000" font-family="sans-serif" font-size="7.93" lengthAdjust="spacing" textLength="111.63" x="87.535" y="1230.0334">offers by most recent dates and</text><text fill="#000000" font-family="sans-serif" font-size="7.93" lengthAdjust="spacing" textLength="104.31" x="89.975" y="1238.8927">asks to choose one or cancel</text><polygon fill="#181818" points="229.665,1265.2925,235.765,1267.7325,229.665,1270.1725,232.105,1267.7325" style="stroke:#181818;stroke-width:0.61;"/><line style="stroke:#181818;stroke-width:0.61;" x1="66.185" x2="233.325" y1="1267.7325" y2="1267.7325"/><text fill="#000000" font-family="sans-serif" font-size="7.93" font-weight="bold" lengthAdjust="spacing" textLength="8.54" x="70.455" y="1264.832">53</text><text fill="#000000" font-family="sans-serif" font-size="7.93" lengthAdjust="spacing" textLength="60.39" x="81.435" y="1264.832">selects to cancel</text><polygon fill="#181818" points="69.845,1282.6918,63.745,1285.1318,69.845,1287.5718,67.405,1285.1318" style="stroke:#181818;stroke-width:0.61;"/><line style="stroke:#181818;stroke-width:0.61;stroke-dasharray:2.0,2.0;" x1="66.185" x2="239.425" y1="1285.1318" y2="1285.1318"/><text fill="#000000" font-family="sans-serif" font-size="7.93" font-weight="bold" lengthAdjust="spacing" textLength="8.54" x="73.505" y="1282.2313">54</text><text fill="#000000" font-family="sans-serif" font-size="7.93" lengthAdjust="spacing" textLength="85.4" x="84.485" y="1282.2313">goes to the admin menu</text><!--SRC=[hLXBRvmm4BxpAwnSigdIvBvIAwsIGokb3wMFqruSc5rGm4DjapJzzHq31cmCooQBb0YRUNdccuTNFMQYv98Nh421SIgn0APb1P7glfGyVkHx-A5VSc0IOit5FXyIg9Gd-9o9FTlnN44KyKgZg8e7a55qdcO9i1sYVi2_4OyrIdRsJUwvoFvndQ5Wcpq8VSQuOflRBn69r5cSbLneThQ-ovI-XpyLAFthSqtpw_CqoGqABJ7FGTQaDp_lxrpYUoXHPMJ2otehMYRLRzPSj4qxBjyD5aMc55dR2EwMBjaFdiD62An430KTohEd_posp6VrZ3AVHrRvF1rbT7tk-cYQqgNxBh44gHkTTk7Ht3v3dbEmQngxy6W-OQMW9gZV_8XnaTGVpSk41JzVId2iC1iUxIP992ZLGATvzwMbg74lUPasihhb-NKK6J1cJrn3ZRk8jGyjsFkFX3Es9fv7nJGo1S1omXd37ML00vkUevD3sBHxn4v2J9pVlID1iGGY27obRmC0gzL5G6oD5hjRCn5p0zDQ-1Z84zH4kmUhowWbTIDjBVxjVikvI8QbxSysIPg0LJYojM6zCNaJcmAXhXHAlJB-7tWdHoo3hEisG5Uasu9de7YAz9PC6P018TFZiQ0mXeJE4KLEV8dSG6bDvH6VLGSVtEr0AlRmGXMNTgYUKZwoX0GejXMK41teuXHH0KD1VvB5d78txrMC3J3mwpvZgLrNZHY7E5TWVAqijbbRl7sMeAOWflkuhrgPNwlYiWdXf5G7vs5K72NO3LjBFkF0Q1Z2SIXj97KggHoGWmqsgKR4CPJQYh_SYeISgQ7pPHUxgpdL8wVakbN1FdWgHhHUD1lSg2LSeSeLFdo7unwXL90DeEE-6OP4p9nn2eKB9HzbV6roBv0zyRo2jngS2KNLPQ7SsUJn4wZf5_sSiUfL6EzSzilVHk75lCPWOZd9rOap3SLhLfCfjJpo1y-xgR7gPVRWb6y-O5Sz0YqXnE3EQg4UVfYhu_77hrNP6h7yXDxi6ABrbBVcs25Xnlf9nbCVO3XN-0OOTLRr0H1QylSXZolFrDVakE-G7a2daEwsfLD8T2fTZ6ANoSBqAQxf7p2U92obyVS1GBG1JQB3ESbkwqRc9sMurxug7SrCU2MXm2UmuYyMkCmPm6PQUVVuT90hwBkhswyF5dtRNXUmlScRh_FmARt-XaWiYyueBYA93WoMKvUbrtbg-VLeKhvtNVAVOwvFKxmBhbD75epZhrl-uro_vaGVk8ujPVMkPq7ad02pSpFBiChE5zcjQAj3Ke_BpU0iOIT1fRHdhu9RCNSP94wICtiPN7YLCSu9lK_EtnXIuColiyvXUuHQIkEN8XECEbjrwEhQsUpj3vRcXvh_]--></g></svg>