<?xml version="1.0" encoding="us-ascii" standalone="no"?><svg xmlns="http://www.w3.org/2000/svg" xmlns:xlink="http://www.w3.org/1999/xlink" contentStyleType="text/css" height="1238.4px" preserveAspectRatio="none" style="width:1377px;height:1238px;background:#FFFFFF;" version="1.1" viewBox="0 0 1377 1238" width="1377.6px" zoomAndPan="magnify"><defs/><g><rect fill="#FFFFFF" height="1088.0438" style="stroke:#181818;stroke-width:0.8000000000000002;" width="8" x="78.8" y="72.5125"/><rect fill="#FFFFFF" height="157.5188" style="stroke:#181818;stroke-width:0.8000000000000002;" width="8" x="301.2" y="88.9313"/><rect fill="#FFFFFF" height="113.2938" style="stroke:#181818;stroke-width:0.8000000000000002;" width="8" x="301.2" y="341.3438"/><rect fill="#FFFFFF" height="22.8188" style="stroke:#181818;stroke-width:0.8000000000000002;" width="8" x="301.2" y="496.275"/><rect fill="#FFFFFF" height="22.8188" style="stroke:#181818;stroke-width:0.8000000000000002;" width="8" x="301.2" y="541.9125"/><rect fill="#FFFFFF" height="516.1688" style="stroke:#181818;stroke-width:0.8000000000000002;" width="8" x="301.2" y="587.55"/><rect fill="#FFFFFF" height="22.8188" style="stroke:#181818;stroke-width:0.8000000000000002;" width="8" x="301.2" y="1137.7375"/><rect fill="#FFFFFF" height="102.1875" style="stroke:#181818;stroke-width:0.8000000000000002;" width="8" x="593.2" y="144.2625"/><rect fill="#FFFFFF" height="56.0375" style="stroke:#181818;stroke-width:0.8000000000000002;" width="8" x="593.2" y="364.1625"/><rect fill="#FFFFFF" height="55.3313" style="stroke:#181818;stroke-width:0.8000000000000002;" width="8" x="593.2" y="610.3688"/><rect fill="#FFFFFF" height="57.1625" style="stroke:#181818;stroke-width:0.8000000000000002;" width="8" x="593.2" y="688.5188"/><rect fill="#FFFFFF" height="56.0375" style="stroke:#181818;stroke-width:0.8000000000000002;" width="8" x="593.2" y="791.3188"/><rect fill="#FFFFFF" height="56.0375" style="stroke:#181818;stroke-width:0.8000000000000002;" width="8" x="593.2" y="904.425"/><rect fill="#FFFFFF" height="57.1625" style="stroke:#181818;stroke-width:0.8000000000000002;" width="8" x="593.2" y="988.8813"/><rect fill="none" height="822.8313" style="stroke:#000000;stroke-width:1.2000000000000002;" width="932.4" x="8" y="292.8875"/><rect fill="none" height="798.4125" style="stroke:#000000;stroke-width:1.2000000000000002;" width="916.4" x="16" y="311.7063"/><rect fill="none" height="500.225" style="stroke:#000000;stroke-width:1.2000000000000002;" width="900.4" x="24" y="466.6375"/><line style="stroke:#181818;stroke-width:0.4000000000000001;stroke-dasharray:5.0,5.0;" x1="82.4" x2="82.4" y1="64.5125" y2="1174.9563"/><line style="stroke:#181818;stroke-width:0.4000000000000001;stroke-dasharray:5.0,5.0;" x1="304.8" x2="304.8" y1="64.5125" y2="1174.9563"/><line style="stroke:#181818;stroke-width:0.4000000000000001;stroke-dasharray:5.0,5.0;" x1="596.8" x2="596.8" y1="119.5875" y2="1174.9563"/><line style="stroke:#181818;stroke-width:0.4000000000000001;stroke-dasharray:5.0,5.0;" x1="779.6" x2="779.6" y1="181.175" y2="1174.9563"/><line style="stroke:#181818;stroke-width:0.4000000000000001;stroke-dasharray:5.0,5.0;" x1="880.4" x2="880.4" y1="641.025" y2="1174.9563"/><line style="stroke:#181818;stroke-width:0.4000000000000001;stroke-dasharray:5.0,5.0;" x1="1003.6" x2="1003.6" y1="64.5125" y2="1174.9563"/><line style="stroke:#181818;stroke-width:0.4000000000000001;stroke-dasharray:5.0,5.0;" x1="1173.2" x2="1173.2" y1="64.5125" y2="1174.9563"/><line style="stroke:#181818;stroke-width:0.4000000000000001;stroke-dasharray:5.0,5.0;" x1="1318" x2="1318" y1="64.5125" y2="1174.9563"/><text fill="#000000" font-family="sans-serif" font-size="11.2" lengthAdjust="spacing" textLength="96.8" x="32" y="62.1391">Organization Agent</text><ellipse cx="82.8" cy="10.8" fill="#E3E3E3" rx="6.4" ry="6.4" style="stroke:#181818;stroke-width:0.4000000000000001;"/><path d="M82.8,17.2 L82.8,38.8 M72.4,23.6 L93.2,23.6 M82.8,38.8 L72.4,50.8 M82.8,38.8 L93.2,50.8 " fill="none" style="stroke:#181818;stroke-width:0.4000000000000001;"/><text fill="#000000" font-family="sans-serif" font-size="11.2" lengthAdjust="spacing" textLength="96.8" x="32" y="1184.2953">Organization Agent</text><ellipse cx="82.8" cy="1193.4688" fill="#E3E3E3" rx="6.4" ry="6.4" style="stroke:#181818;stroke-width:0.4000000000000001;"/><path d="M82.8,1199.8688 L82.8,1221.4688 M72.4,1206.2688 L93.2,1206.2688 M82.8,1221.4688 L72.4,1233.4688 M82.8,1221.4688 L93.2,1233.4688 " fill="none" style="stroke:#181818;stroke-width:0.4000000000000001;"/><rect fill="#E3E3E3" height="23.7125" rx="2" ry="2" style="stroke:#181818;stroke-width:0.4000000000000001;" width="84" x="263.2" y="40"/><text fill="#000000" font-family="sans-serif" font-size="11.2" lengthAdjust="spacing" textLength="72.8" x="268.8" y="55.7391">:ListRequestUI</text><rect fill="#E3E3E3" height="23.7125" rx="2" ry="2" style="stroke:#181818;stroke-width:0.4000000000000001;" width="84" x="263.2" y="1174.1563"/><text fill="#000000" font-family="sans-serif" font-size="11.2" lengthAdjust="spacing" textLength="72.8" x="268.8" y="1189.8953">:ListRequestUI</text><rect fill="#E3E3E3" height="23.7125" rx="2" ry="2" style="stroke:#181818;stroke-width:0.4000000000000001;" width="124" x="535.2" y="1174.1563"/><text fill="#000000" font-family="sans-serif" font-size="11.2" lengthAdjust="spacing" textLength="112.8" x="540.8" y="1189.8953">:ListRequestController</text><rect fill="#E3E3E3" height="36.225" rx="2" ry="2" style="stroke:#181818;stroke-width:0.4000000000000001;" width="113.6" x="722.8" y="1174.1563"/><text fill="#000000" font-family="sans-serif" font-size="11.2" lengthAdjust="spacing" textLength="57.6" x="750.8" y="1189.8953">Repository:</text><text fill="#000000" font-family="sans-serif" font-size="11.2" lengthAdjust="spacing" textLength="102.4" x="728.4" y="1202.4078">RequestsRepository</text><rect fill="#E3E3E3" height="23.7125" rx="2" ry="2" style="stroke:#181818;stroke-width:0.4000000000000001;" width="72" x="844.4" y="1174.1563"/><text fill="#000000" font-family="sans-serif" font-size="11.2" lengthAdjust="spacing" textLength="60.8" x="850" y="1189.8953">Commission</text><rect fill="#E3E3E3" height="23.7125" rx="2" ry="2" style="stroke:#181818;stroke-width:0.4000000000000001;" width="159.2" x="924.4" y="40"/><text fill="#000000" font-family="sans-serif" font-size="11.2" lengthAdjust="spacing" textLength="148" x="930" y="55.7391">SaleAnnouncementController</text><rect fill="#E3E3E3" height="23.7125" rx="2" ry="2" style="stroke:#181818;stroke-width:0.4000000000000001;" width="159.2" x="924.4" y="1174.1563"/><text fill="#000000" font-family="sans-serif" font-size="11.2" lengthAdjust="spacing" textLength="148" x="930" y="1189.8953">SaleAnnouncementController</text><rect fill="#E3E3E3" height="23.7125" rx="2" ry="2" style="stroke:#181818;stroke-width:0.4000000000000001;" width="164" x="1091.6" y="40"/><text fill="#000000" font-family="sans-serif" font-size="11.2" lengthAdjust="spacing" textLength="152.8" x="1097.2" y="55.7391">SaleAnnouncementRepository</text><rect fill="#E3E3E3" height="23.7125" rx="2" ry="2" style="stroke:#181818;stroke-width:0.4000000000000001;" width="164" x="1091.6" y="1174.1563"/><text fill="#000000" font-family="sans-serif" font-size="11.2" lengthAdjust="spacing" textLength="152.8" x="1097.2" y="1189.8953">SaleAnnouncementRepository</text><rect fill="#E3E3E3" height="23.7125" rx="2" ry="2" style="stroke:#181818;stroke-width:0.4000000000000001;" width="109.6" x="1263.6" y="40"/><text fill="#000000" font-family="sans-serif" font-size="11.2" lengthAdjust="spacing" textLength="98.4" x="1269.2" y="55.7391">SaleAnnouncement</text><rect fill="#E3E3E3" height="23.7125" rx="2" ry="2" style="stroke:#181818;stroke-width:0.4000000000000001;" width="109.6" x="1263.6" y="1174.1563"/><text fill="#000000" font-family="sans-serif" font-size="11.2" lengthAdjust="spacing" textLength="98.4" x="1269.2" y="1189.8953">SaleAnnouncement</text><rect fill="#FFFFFF" height="1088.0438" style="stroke:#181818;stroke-width:0.8000000000000002;" width="8" x="78.8" y="72.5125"/><rect fill="#FFFFFF" height="157.5188" style="stroke:#181818;stroke-width:0.8000000000000002;" width="8" x="301.2" y="88.9313"/><rect fill="#FFFFFF" height="113.2938" style="stroke:#181818;stroke-width:0.8000000000000002;" width="8" x="301.2" y="341.3438"/><rect fill="#FFFFFF" height="22.8188" style="stroke:#181818;stroke-width:0.8000000000000002;" width="8" x="301.2" y="496.275"/><rect fill="#FFFFFF" height="22.8188" style="stroke:#181818;stroke-width:0.8000000000000002;" width="8" x="301.2" y="541.9125"/><rect fill="#FFFFFF" height="516.1688" style="stroke:#181818;stroke-width:0.8000000000000002;" width="8" x="301.2" y="587.55"/><rect fill="#FFFFFF" height="22.8188" style="stroke:#181818;stroke-width:0.8000000000000002;" width="8" x="301.2" y="1137.7375"/><rect fill="#FFFFFF" height="102.1875" style="stroke:#181818;stroke-width:0.8000000000000002;" width="8" x="593.2" y="144.2625"/><rect fill="#FFFFFF" height="56.0375" style="stroke:#181818;stroke-width:0.8000000000000002;" width="8" x="593.2" y="364.1625"/><rect fill="#FFFFFF" height="55.3313" style="stroke:#181818;stroke-width:0.8000000000000002;" width="8" x="593.2" y="610.3688"/><rect fill="#FFFFFF" height="57.1625" style="stroke:#181818;stroke-width:0.8000000000000002;" width="8" x="593.2" y="688.5188"/><rect fill="#FFFFFF" height="56.0375" style="stroke:#181818;stroke-width:0.8000000000000002;" width="8" x="593.2" y="791.3188"/><rect fill="#FFFFFF" height="56.0375" style="stroke:#181818;stroke-width:0.8000000000000002;" width="8" x="593.2" y="904.425"/><rect fill="#FFFFFF" height="57.1625" style="stroke:#181818;stroke-width:0.8000000000000002;" width="8" x="593.2" y="988.8813"/><polygon fill="#181818" points="291.6,85.7313,299.6,88.9313,291.6,92.1313,294.8,88.9313" style="stroke:#181818;stroke-width:0.8000000000000002;"/><line style="stroke:#181818;stroke-width:0.8000000000000002;" x1="86.8" x2="296.4" y1="88.9313" y2="88.9313"/><text fill="#000000" font-family="sans-serif" font-size="10.4" font-weight="bold" lengthAdjust="spacing" textLength="5.6" x="92.4" y="85.1273">1</text><text fill="#000000" font-family="sans-serif" font-size="10.4" lengthAdjust="spacing" textLength="125.6" x="101.2" y="85.1273">asks to see list of requests</text><polygon fill="#181818" points="525.6,108.55,533.6,111.75,525.6,114.95,528.8,111.75" style="stroke:#181818;stroke-width:0.8000000000000002;"/><line style="stroke:#181818;stroke-width:0.8000000000000002;" x1="309.2" x2="530.4" y1="111.75" y2="111.75"/><text fill="#000000" font-family="sans-serif" font-size="10.4" font-weight="bold" lengthAdjust="spacing" textLength="5.6" x="314.8" y="107.9461">2</text><text fill="#000000" font-family="sans-serif" font-size="10.4" lengthAdjust="spacing" textLength="28.8" x="323.6" y="107.9461">create</text><rect fill="#E3E3E3" height="23.7125" rx="2" ry="2" style="stroke:#181818;stroke-width:0.4000000000000001;" width="124" x="535.2" y="95.3313"/><text fill="#000000" font-family="sans-serif" font-size="11.2" lengthAdjust="spacing" textLength="112.8" x="540.8" y="111.0703">:ListRequestController</text><polygon fill="#181818" points="583.6,141.0625,591.6,144.2625,583.6,147.4625,586.8,144.2625" style="stroke:#181818;stroke-width:0.8000000000000002;"/><line style="stroke:#181818;stroke-width:0.8000000000000002;" x1="309.2" x2="588.4" y1="144.2625" y2="144.2625"/><text fill="#000000" font-family="sans-serif" font-size="10.4" font-weight="bold" lengthAdjust="spacing" textLength="5.6" x="314.8" y="140.4586">3</text><text fill="#000000" font-family="sans-serif" font-size="10.4" lengthAdjust="spacing" textLength="67.2" x="323.6" y="140.4586">ListRequests()</text><polygon fill="#181818" points="713.2,163.8813,721.2,167.0813,713.2,170.2813,716.4,167.0813" style="stroke:#181818;stroke-width:0.8000000000000002;"/><line style="stroke:#181818;stroke-width:0.8000000000000002;" x1="601.2" x2="718" y1="167.0813" y2="167.0813"/><text fill="#000000" font-family="sans-serif" font-size="10.4" font-weight="bold" lengthAdjust="spacing" textLength="5.6" x="606.8" y="163.2773">4</text><text fill="#000000" font-family="sans-serif" font-size="10.4" lengthAdjust="spacing" textLength="93.6" x="615.6" y="163.2773">RequestsRepository</text><rect fill="#E3E3E3" height="36.225" rx="2" ry="2" style="stroke:#181818;stroke-width:0.4000000000000001;" width="113.6" x="722.8" y="150.6625"/><text fill="#000000" font-family="sans-serif" font-size="11.2" lengthAdjust="spacing" textLength="57.6" x="750.8" y="166.4016">Repository:</text><text fill="#000000" font-family="sans-serif" font-size="11.2" lengthAdjust="spacing" textLength="102.4" x="728.4" y="178.9141">RequestsRepository</text><rect fill="none" height="30.3438" style="stroke:#000000;stroke-width:1.2000000000000002;" width="128.8" x="532.8" y="195.6875"/><path d="M532.8,195.6875 L582.4,195.6875 L582.4,200.4875 L574.4,208.4875 L532.8,208.4875 L532.8,195.6875 " fill="#EEEEEE" style="stroke:#000000;stroke-width:1.6000000000000003;"/><text fill="#000000" font-family="sans-serif" font-size="10.4" font-weight="bold" lengthAdjust="spacing" textLength="13.6" x="543.2" y="206.7023">ref</text><text fill="#000000" font-family="sans-serif" font-size="9.6" lengthAdjust="spacing" textLength="59.2" x="567.6" y="220.3781">ListRequests</text><polygon fill="#181818" points="314,243.25,306,246.45,314,249.65,310.8,246.45" style="stroke:#181818;stroke-width:0.8000000000000002;"/><line style="stroke:#181818;stroke-width:0.8000000000000002;stroke-dasharray:2.0,2.0;" x1="309.2" x2="596.4" y1="246.45" y2="246.45"/><text fill="#000000" font-family="sans-serif" font-size="10.4" font-weight="bold" lengthAdjust="spacing" textLength="5.6" x="318.8" y="242.6461">5</text><text fill="#000000" font-family="sans-serif" font-size="10.4" lengthAdjust="spacing" textLength="13.6" x="327.6" y="242.6461">list</text><polygon fill="#181818" points="95.6,277.6875,87.6,280.8875,95.6,284.0875,92.4,280.8875" style="stroke:#181818;stroke-width:0.8000000000000002;"/><line style="stroke:#181818;stroke-width:0.8000000000000002;stroke-dasharray:2.0,2.0;" x1="90.8" x2="304.4" y1="280.8875" y2="280.8875"/><text fill="#000000" font-family="sans-serif" font-size="10.4" font-weight="bold" lengthAdjust="spacing" textLength="5.6" x="100.4" y="271.2742">6</text><text fill="#000000" font-family="sans-serif" font-size="10.4" lengthAdjust="spacing" textLength="187.2" x="109.2" y="265.4648">shows list of offers by most recent dates</text><text fill="#000000" font-family="sans-serif" font-size="10.4" lengthAdjust="spacing" textLength="156.8" x="109.2" y="277.0836">and asks to choose one or cancel</text><path d="M8,292.8875 L60,292.8875 L60,298.1063 L52,306.1063 L8,306.1063 L8,292.8875 " fill="#EEEEEE" style="stroke:#000000;stroke-width:1.2000000000000002;"/><rect fill="none" height="822.8313" style="stroke:#000000;stroke-width:1.2000000000000002;" width="932.4" x="8" y="292.8875"/><text fill="#000000" font-family="sans-serif" font-size="10.4" font-weight="bold" lengthAdjust="spacing" textLength="16" x="20" y="303.1023">opt</text><path d="M16,311.7063 L74.4,311.7063 L74.4,316.925 L66.4,324.925 L16,324.925 L16,311.7063 " fill="#EEEEEE" style="stroke:#000000;stroke-width:1.2000000000000002;"/><rect fill="none" height="798.4125" style="stroke:#000000;stroke-width:1.2000000000000002;" width="916.4" x="16" y="311.7063"/><text fill="#000000" font-family="sans-serif" font-size="10.4" font-weight="bold" lengthAdjust="spacing" textLength="22.4" x="28" y="321.9211">loop</text><polygon fill="#181818" points="291.6,338.1438,299.6,341.3438,291.6,344.5438,294.8,341.3438" style="stroke:#181818;stroke-width:0.8000000000000002;"/><line style="stroke:#181818;stroke-width:0.8000000000000002;" x1="86.8" x2="296.4" y1="341.3438" y2="341.3438"/><text fill="#000000" font-family="sans-serif" font-size="10.4" font-weight="bold" lengthAdjust="spacing" textLength="5.6" x="92.4" y="337.5398">7</text><text fill="#000000" font-family="sans-serif" font-size="10.4" lengthAdjust="spacing" textLength="108.8" x="101.2" y="337.5398">selects request number</text><polygon fill="#181818" points="583.6,360.9625,591.6,364.1625,583.6,367.3625,586.8,364.1625" style="stroke:#181818;stroke-width:0.8000000000000002;"/><line style="stroke:#181818;stroke-width:0.8000000000000002;" x1="309.2" x2="588.4" y1="364.1625" y2="364.1625"/><text fill="#000000" font-family="sans-serif" font-size="10.4" font-weight="bold" lengthAdjust="spacing" textLength="5.6" x="314.8" y="360.3586">8</text><text fill="#000000" font-family="sans-serif" font-size="10.4" lengthAdjust="spacing" textLength="132" x="323.6" y="360.3586">getRequest(requestNum,list)</text><line style="stroke:#181818;stroke-width:0.8000000000000002;" x1="601.2" x2="634.8" y1="386.9813" y2="386.9813"/><line style="stroke:#181818;stroke-width:0.8000000000000002;" x1="634.8" x2="634.8" y1="386.9813" y2="397.3813"/><line style="stroke:#181818;stroke-width:0.8000000000000002;" x1="602" x2="634.8" y1="397.3813" y2="397.3813"/><polygon fill="#181818" points="610,394.1813,602,397.3813,610,400.5813,606.8,397.3813" style="stroke:#181818;stroke-width:0.8000000000000002;"/><text fill="#000000" font-family="sans-serif" font-size="10.4" font-weight="bold" lengthAdjust="spacing" textLength="5.6" x="606.8" y="383.1773">9</text><text fill="#000000" font-family="sans-serif" font-size="10.4" lengthAdjust="spacing" textLength="132" x="615.6" y="383.1773">getRequest(requestNum,list)</text><polygon fill="#181818" points="318,417,310,420.2,318,423.4,314.8,420.2" style="stroke:#181818;stroke-width:0.8000000000000002;"/><line style="stroke:#181818;stroke-width:0.8000000000000002;stroke-dasharray:2.0,2.0;" x1="313.2" x2="596.4" y1="420.2" y2="420.2"/><text fill="#000000" font-family="sans-serif" font-size="10.4" font-weight="bold" lengthAdjust="spacing" textLength="11.2" x="322.8" y="416.3961">10</text><text fill="#000000" font-family="sans-serif" font-size="10.4" lengthAdjust="spacing" textLength="34.4" x="337.2" y="416.3961">request</text><polygon fill="#181818" points="95.6,451.4375,87.6,454.6375,95.6,457.8375,92.4,454.6375" style="stroke:#181818;stroke-width:0.8000000000000002;"/><line style="stroke:#181818;stroke-width:0.8000000000000002;stroke-dasharray:2.0,2.0;" x1="90.8" x2="304.4" y1="454.6375" y2="454.6375"/><text fill="#000000" font-family="sans-serif" font-size="10.4" font-weight="bold" lengthAdjust="spacing" textLength="11.2" x="100.4" y="445.0242">11</text><text fill="#000000" font-family="sans-serif" font-size="10.4" lengthAdjust="spacing" textLength="171.2" x="114.8" y="439.2148">shows three options: accept request,</text><text fill="#000000" font-family="sans-serif" font-size="10.4" lengthAdjust="spacing" textLength="114.4" x="114.8" y="450.8336">delete request or cancel.</text><path d="M24,466.6375 L72.8,466.6375 L72.8,471.8563 L64.8,479.8563 L24,479.8563 L24,466.6375 " fill="#EEEEEE" style="stroke:#000000;stroke-width:1.2000000000000002;"/><rect fill="none" height="500.225" style="stroke:#000000;stroke-width:1.2000000000000002;" width="900.4" x="24" y="466.6375"/><text fill="#000000" font-family="sans-serif" font-size="10.4" font-weight="bold" lengthAdjust="spacing" textLength="12.8" x="36" y="476.8523">alt</text><text fill="#000000" font-family="sans-serif" font-size="8.8" font-weight="bold" lengthAdjust="spacing" textLength="110.4" x="84.8" y="476.2039">[option = accept request]</text><polygon fill="#181818" points="291.6,493.075,299.6,496.275,291.6,499.475,294.8,496.275" style="stroke:#181818;stroke-width:0.8000000000000002;"/><line style="stroke:#181818;stroke-width:0.8000000000000002;" x1="86.8" x2="296.4" y1="496.275" y2="496.275"/><text fill="#000000" font-family="sans-serif" font-size="10.4" font-weight="bold" lengthAdjust="spacing" textLength="11.2" x="92.4" y="492.4711">12</text><text fill="#000000" font-family="sans-serif" font-size="10.4" lengthAdjust="spacing" textLength="111.2" x="106.8" y="492.4711">chooses accept request</text><polygon fill="#181818" points="95.6,515.8938,87.6,519.0938,95.6,522.2938,92.4,519.0938" style="stroke:#181818;stroke-width:0.8000000000000002;"/><line style="stroke:#181818;stroke-width:0.8000000000000002;stroke-dasharray:2.0,2.0;" x1="90.8" x2="304.4" y1="519.0938" y2="519.0938"/><text fill="#000000" font-family="sans-serif" font-size="10.4" font-weight="bold" lengthAdjust="spacing" textLength="11.2" x="100.4" y="515.2898">13</text><text fill="#000000" font-family="sans-serif" font-size="10.4" lengthAdjust="spacing" textLength="168.8" x="114.8" y="515.2898">shows and asks type of commission</text><polygon fill="#181818" points="291.6,538.7125,299.6,541.9125,291.6,545.1125,294.8,541.9125" style="stroke:#181818;stroke-width:0.8000000000000002;"/><line style="stroke:#181818;stroke-width:0.8000000000000002;" x1="86.8" x2="296.4" y1="541.9125" y2="541.9125"/><text fill="#000000" font-family="sans-serif" font-size="10.4" font-weight="bold" lengthAdjust="spacing" textLength="11.2" x="92.4" y="538.1086">14</text><text fill="#000000" font-family="sans-serif" font-size="10.4" lengthAdjust="spacing" textLength="127.2" x="106.8" y="538.1086">selects type of commission</text><polygon fill="#181818" points="95.6,561.5313,87.6,564.7313,95.6,567.9313,92.4,564.7313" style="stroke:#181818;stroke-width:0.8000000000000002;"/><line style="stroke:#181818;stroke-width:0.8000000000000002;stroke-dasharray:2.0,2.0;" x1="90.8" x2="304.4" y1="564.7313" y2="564.7313"/><text fill="#000000" font-family="sans-serif" font-size="10.4" font-weight="bold" lengthAdjust="spacing" textLength="11.2" x="100.4" y="560.9273">15</text><text fill="#000000" font-family="sans-serif" font-size="10.4" lengthAdjust="spacing" textLength="108" x="114.8" y="560.9273">asks commission value</text><polygon fill="#181818" points="291.6,584.35,299.6,587.55,291.6,590.75,294.8,587.55" style="stroke:#181818;stroke-width:0.8000000000000002;"/><line style="stroke:#181818;stroke-width:0.8000000000000002;" x1="86.8" x2="296.4" y1="587.55" y2="587.55"/><text fill="#000000" font-family="sans-serif" font-size="10.4" font-weight="bold" lengthAdjust="spacing" textLength="11.2" x="92.4" y="583.7461">16</text><text fill="#000000" font-family="sans-serif" font-size="10.4" lengthAdjust="spacing" textLength="116.8" x="106.8" y="583.7461">inserts commission value</text><polygon fill="#181818" points="583.6,607.1688,591.6,610.3688,583.6,613.5688,586.8,610.3688" style="stroke:#181818;stroke-width:0.8000000000000002;"/><line style="stroke:#181818;stroke-width:0.8000000000000002;" x1="309.2" x2="588.4" y1="610.3688" y2="610.3688"/><text fill="#000000" font-family="sans-serif" font-size="10.4" font-weight="bold" lengthAdjust="spacing" textLength="11.2" x="314.8" y="606.5648">17</text><text fill="#000000" font-family="sans-serif" font-size="10.4" lengthAdjust="spacing" textLength="254.4" x="329.2" y="606.5648">createCommission(commissiontype,commissionValue)</text><polygon fill="#181818" points="834.8,629.9875,842.8,633.1875,834.8,636.3875,838,633.1875" style="stroke:#181818;stroke-width:0.8000000000000002;"/><line style="stroke:#181818;stroke-width:0.8000000000000002;" x1="601.2" x2="839.6" y1="633.1875" y2="633.1875"/><text fill="#000000" font-family="sans-serif" font-size="10.4" font-weight="bold" lengthAdjust="spacing" textLength="11.2" x="606.8" y="629.3836">18</text><text fill="#000000" font-family="sans-serif" font-size="10.4" lengthAdjust="spacing" textLength="28.8" x="621.2" y="629.3836">create</text><rect fill="#E3E3E3" height="23.7125" rx="2" ry="2" style="stroke:#181818;stroke-width:0.4000000000000001;" width="72" x="844.4" y="616.7688"/><text fill="#000000" font-family="sans-serif" font-size="11.2" lengthAdjust="spacing" textLength="60.8" x="850" y="632.5078">Commission</text><polygon fill="#181818" points="318,662.5,310,665.7,318,668.9,314.8,665.7" style="stroke:#181818;stroke-width:0.8000000000000002;"/><line style="stroke:#181818;stroke-width:0.8000000000000002;stroke-dasharray:2.0,2.0;" x1="313.2" x2="596.4" y1="665.7" y2="665.7"/><text fill="#000000" font-family="sans-serif" font-size="10.4" font-weight="bold" lengthAdjust="spacing" textLength="11.2" x="322.8" y="661.8961">19</text><text fill="#000000" font-family="sans-serif" font-size="10.4" lengthAdjust="spacing" textLength="56" x="337.2" y="661.8961">commission</text><polygon fill="#181818" points="583.6,685.3188,591.6,688.5188,583.6,691.7188,586.8,688.5188" style="stroke:#181818;stroke-width:0.8000000000000002;"/><line style="stroke:#181818;stroke-width:0.8000000000000002;" x1="309.2" x2="588.4" y1="688.5188" y2="688.5188"/><text fill="#000000" font-family="sans-serif" font-size="10.4" font-weight="bold" lengthAdjust="spacing" textLength="11.2" x="314.8" y="684.7148">20</text><text fill="#000000" font-family="sans-serif" font-size="10.4" lengthAdjust="spacing" textLength="171.2" x="329.2" y="684.7148">AcceptRequest(request,commission)</text><rect fill="none" height="30.3438" style="stroke:#000000;stroke-width:1.2000000000000002;" width="128.8" x="532.8" y="694.9188"/><path d="M532.8,694.9188 L582.4,694.9188 L582.4,699.7188 L574.4,707.7188 L532.8,707.7188 L532.8,694.9188 " fill="#EEEEEE" style="stroke:#000000;stroke-width:1.6000000000000003;"/><text fill="#000000" font-family="sans-serif" font-size="10.4" font-weight="bold" lengthAdjust="spacing" textLength="13.6" x="543.2" y="705.9336">ref</text><text fill="#000000" font-family="sans-serif" font-size="9.6" lengthAdjust="spacing" textLength="66.4" x="564" y="719.6094">AcceptRequest</text><polygon fill="#181818" points="318,742.4813,310,745.6813,318,748.8813,314.8,745.6813" style="stroke:#181818;stroke-width:0.8000000000000002;"/><line style="stroke:#181818;stroke-width:0.8000000000000002;stroke-dasharray:2.0,2.0;" x1="313.2" x2="596.4" y1="745.6813" y2="745.6813"/><text fill="#000000" font-family="sans-serif" font-size="10.4" font-weight="bold" lengthAdjust="spacing" textLength="11.2" x="322.8" y="741.8773">21</text><text fill="#000000" font-family="sans-serif" font-size="10.4" lengthAdjust="spacing" textLength="88.8" x="337.2" y="741.8773">saleAnnouncement</text><polygon fill="#181818" points="95.6,765.3,87.6,768.5,95.6,771.7,92.4,768.5" style="stroke:#181818;stroke-width:0.8000000000000002;"/><line style="stroke:#181818;stroke-width:0.8000000000000002;stroke-dasharray:2.0,2.0;" x1="90.8" x2="300.4" y1="768.5" y2="768.5"/><text fill="#000000" font-family="sans-serif" font-size="10.4" font-weight="bold" lengthAdjust="spacing" textLength="11.2" x="100.4" y="764.6961">22</text><text fill="#000000" font-family="sans-serif" font-size="10.4" lengthAdjust="spacing" textLength="180.8" x="114.8" y="764.6961">confirms that the add has been created</text><polygon fill="#181818" points="583.6,788.1188,591.6,791.3188,583.6,794.5188,586.8,791.3188" style="stroke:#181818;stroke-width:0.8000000000000002;"/><line style="stroke:#181818;stroke-width:0.8000000000000002;" x1="309.2" x2="588.4" y1="791.3188" y2="791.3188"/><text fill="#000000" font-family="sans-serif" font-size="10.4" font-weight="bold" lengthAdjust="spacing" textLength="11.2" x="314.8" y="787.5148">23</text><text fill="#000000" font-family="sans-serif" font-size="10.4" lengthAdjust="spacing" textLength="125.6" x="329.2" y="787.5148">DeleteRequest(request,list)</text><line style="stroke:#181818;stroke-width:0.8000000000000002;" x1="601.2" x2="634.8" y1="814.1375" y2="814.1375"/><line style="stroke:#181818;stroke-width:0.8000000000000002;" x1="634.8" x2="634.8" y1="814.1375" y2="824.5375"/><line style="stroke:#181818;stroke-width:0.8000000000000002;" x1="602" x2="634.8" y1="824.5375" y2="824.5375"/><polygon fill="#181818" points="610,821.3375,602,824.5375,610,827.7375,606.8,824.5375" style="stroke:#181818;stroke-width:0.8000000000000002;"/><text fill="#000000" font-family="sans-serif" font-size="10.4" font-weight="bold" lengthAdjust="spacing" textLength="11.2" x="606.8" y="810.3336">24</text><text fill="#000000" font-family="sans-serif" font-size="10.4" lengthAdjust="spacing" textLength="93.6" x="621.2" y="810.3336">List.remove(request)</text><polygon fill="#181818" points="318,844.1563,310,847.3563,318,850.5563,314.8,847.3563" style="stroke:#181818;stroke-width:0.8000000000000002;"/><line style="stroke:#181818;stroke-width:0.8000000000000002;stroke-dasharray:2.0,2.0;" x1="313.2" x2="596.4" y1="847.3563" y2="847.3563"/><text fill="#000000" font-family="sans-serif" font-size="10.4" font-weight="bold" lengthAdjust="spacing" textLength="11.2" x="322.8" y="843.5523">25</text><text fill="#000000" font-family="sans-serif" font-size="10.4" lengthAdjust="spacing" textLength="13.6" x="337.2" y="843.5523">list</text><line style="stroke:#000000;stroke-width:0.8000000000000002;stroke-dasharray:2.0,2.0;" x1="24" x2="924.4" y1="854.5563" y2="854.5563"/><text fill="#000000" font-family="sans-serif" font-size="8.8" font-weight="bold" lengthAdjust="spacing" textLength="109.6" x="28" y="862.5227">[option = delete request]</text><polygon fill="#181818" points="291.6,878.4063,299.6,881.6063,291.6,884.8063,294.8,881.6063" style="stroke:#181818;stroke-width:0.8000000000000002;"/><line style="stroke:#181818;stroke-width:0.8000000000000002;" x1="86.8" x2="296.4" y1="881.6063" y2="881.6063"/><text fill="#000000" font-family="sans-serif" font-size="10.4" font-weight="bold" lengthAdjust="spacing" textLength="11.2" x="92.4" y="877.8023">26</text><text fill="#000000" font-family="sans-serif" font-size="10.4" lengthAdjust="spacing" textLength="108" x="106.8" y="877.8023">chooses delete request</text><polygon fill="#181818" points="583.6,901.225,591.6,904.425,583.6,907.625,586.8,904.425" style="stroke:#181818;stroke-width:0.8000000000000002;"/><line style="stroke:#181818;stroke-width:0.8000000000000002;" x1="309.2" x2="588.4" y1="904.425" y2="904.425"/><text fill="#000000" font-family="sans-serif" font-size="10.4" font-weight="bold" lengthAdjust="spacing" textLength="11.2" x="314.8" y="900.6211">27</text><text fill="#000000" font-family="sans-serif" font-size="10.4" lengthAdjust="spacing" textLength="125.6" x="329.2" y="900.6211">DeleteRequest(request,list)</text><line style="stroke:#181818;stroke-width:0.8000000000000002;" x1="601.2" x2="634.8" y1="927.2438" y2="927.2438"/><line style="stroke:#181818;stroke-width:0.8000000000000002;" x1="634.8" x2="634.8" y1="927.2438" y2="937.6438"/><line style="stroke:#181818;stroke-width:0.8000000000000002;" x1="602" x2="634.8" y1="937.6438" y2="937.6438"/><polygon fill="#181818" points="610,934.4438,602,937.6438,610,940.8438,606.8,937.6438" style="stroke:#181818;stroke-width:0.8000000000000002;"/><text fill="#000000" font-family="sans-serif" font-size="10.4" font-weight="bold" lengthAdjust="spacing" textLength="11.2" x="606.8" y="923.4398">28</text><text fill="#000000" font-family="sans-serif" font-size="10.4" lengthAdjust="spacing" textLength="93.6" x="621.2" y="923.4398">List.remove(request)</text><polygon fill="#181818" points="318,957.2625,310,960.4625,318,963.6625,314.8,960.4625" style="stroke:#181818;stroke-width:0.8000000000000002;"/><line style="stroke:#181818;stroke-width:0.8000000000000002;stroke-dasharray:2.0,2.0;" x1="313.2" x2="596.4" y1="960.4625" y2="960.4625"/><text fill="#000000" font-family="sans-serif" font-size="10.4" font-weight="bold" lengthAdjust="spacing" textLength="11.2" x="322.8" y="956.6586">29</text><text fill="#000000" font-family="sans-serif" font-size="10.4" lengthAdjust="spacing" textLength="13.6" x="337.2" y="956.6586">list</text><polygon fill="#181818" points="583.6,985.6813,591.6,988.8813,583.6,992.0813,586.8,988.8813" style="stroke:#181818;stroke-width:0.8000000000000002;"/><line style="stroke:#181818;stroke-width:0.8000000000000002;" x1="309.2" x2="588.4" y1="988.8813" y2="988.8813"/><text fill="#000000" font-family="sans-serif" font-size="10.4" font-weight="bold" lengthAdjust="spacing" textLength="11.2" x="314.8" y="985.0773">30</text><text fill="#000000" font-family="sans-serif" font-size="10.4" lengthAdjust="spacing" textLength="67.2" x="329.2" y="985.0773">ListRequests()</text><rect fill="none" height="30.3438" style="stroke:#000000;stroke-width:1.2000000000000002;" width="128.8" x="532.8" y="995.2813"/><path d="M532.8,995.2813 L582.4,995.2813 L582.4,1000.0813 L574.4,1008.0813 L532.8,1008.0813 L532.8,995.2813 " fill="#EEEEEE" style="stroke:#000000;stroke-width:1.6000000000000003;"/><text fill="#000000" font-family="sans-serif" font-size="10.4" font-weight="bold" lengthAdjust="spacing" textLength="13.6" x="543.2" y="1006.2961">ref</text><text fill="#000000" font-family="sans-serif" font-size="9.6" lengthAdjust="spacing" textLength="59.2" x="567.6" y="1019.9719">ListRequests</text><polygon fill="#181818" points="318,1042.8438,310,1046.0438,318,1049.2438,314.8,1046.0438" style="stroke:#181818;stroke-width:0.8000000000000002;"/><line style="stroke:#181818;stroke-width:0.8000000000000002;stroke-dasharray:2.0,2.0;" x1="313.2" x2="596.4" y1="1046.0438" y2="1046.0438"/><text fill="#000000" font-family="sans-serif" font-size="10.4" font-weight="bold" lengthAdjust="spacing" textLength="11.2" x="322.8" y="1042.2398">31</text><text fill="#000000" font-family="sans-serif" font-size="10.4" lengthAdjust="spacing" textLength="13.6" x="337.2" y="1042.2398">list</text><polygon fill="#181818" points="95.6,1100.5188,87.6,1103.7188,95.6,1106.9188,92.4,1103.7188" style="stroke:#181818;stroke-width:0.8000000000000002;"/><line style="stroke:#181818;stroke-width:0.8000000000000002;stroke-dasharray:2.0,2.0;" x1="90.8" x2="304.4" y1="1103.7188" y2="1103.7188"/><text fill="#000000" font-family="sans-serif" font-size="10.4" font-weight="bold" lengthAdjust="spacing" textLength="11.2" x="100.4" y="1082.4867">32</text><text fill="#000000" font-family="sans-serif" font-size="10.4" lengthAdjust="spacing" textLength="143.2" x="114.8" y="1065.0586">confirms that the add has been</text><text fill="#000000" font-family="sans-serif" font-size="10.4" lengthAdjust="spacing" textLength="160" x="118" y="1076.6773">deleted and shows refreshed list of</text><text fill="#000000" font-family="sans-serif" font-size="10.4" lengthAdjust="spacing" textLength="146.4" x="114.8" y="1088.2961">offers by most recent dates and</text><text fill="#000000" font-family="sans-serif" font-size="10.4" lengthAdjust="spacing" textLength="136.8" x="118" y="1099.9148">asks to choose one or cancel</text><polygon fill="#181818" points="291.6,1134.5375,299.6,1137.7375,291.6,1140.9375,294.8,1137.7375" style="stroke:#181818;stroke-width:0.8000000000000002;"/><line style="stroke:#181818;stroke-width:0.8000000000000002;" x1="86.8" x2="296.4" y1="1137.7375" y2="1137.7375"/><text fill="#000000" font-family="sans-serif" font-size="10.4" font-weight="bold" lengthAdjust="spacing" textLength="11.2" x="92.4" y="1133.9336">33</text><text fill="#000000" font-family="sans-serif" font-size="10.4" lengthAdjust="spacing" textLength="79.2" x="106.8" y="1133.9336">selects to cancel</text><polygon fill="#181818" points="91.6,1157.3563,83.6,1160.5563,91.6,1163.7563,88.4,1160.5563" style="stroke:#181818;stroke-width:0.8000000000000002;"/><line style="stroke:#181818;stroke-width:0.8000000000000002;stroke-dasharray:2.0,2.0;" x1="86.8" x2="304.4" y1="1160.5563" y2="1160.5563"/><text fill="#000000" font-family="sans-serif" font-size="10.4" font-weight="bold" lengthAdjust="spacing" textLength="11.2" x="96.4" y="1156.7523">34</text><text fill="#000000" font-family="sans-serif" font-size="10.4" lengthAdjust="spacing" textLength="112" x="110.8" y="1156.7523">goes to the admin menu</text><!--SRC=[hLTBJzmm4BxxLuou01M5-qgjj893aUX3F7hQYqbcDn699xKTAFtr7ISR9t4Ukmj40YNsp3VZRrvUyvIgGcgPGqwAeaHJZc1rYSBudK96JtA3T_OrGz0OMQasMLV093AcbrHjO2qpWqB8qf8gyqVKGXmdQOom9hAFz5V8o9A6evzw8rNwJzgK52mtgEmHI0FBg- -28MqQfOLK5euMDwcnj_YdH6CVhYkPX-jfaKjILbEMeQv4B-zlR_h2jrYGITc5ryLARPLCkrXfyJAlzFKkASzJOzZR6jX_ziNkP8PBfQXK4UPygC2VTdleMQWQEEMs1rw5EbvIN1ptEPgMxClzqbIWjhNDvYEGkNh1BEDWLpBDHo3pZKg3bK3r5aPCghZQT2yJ7jo_5jZpmYq4iiiurcXCdJhrUuYMaAMDbaLIO_dFumiXN3Acpz9YbNS2jWz_mEUld6UmO9qd0vR084B6UGQqvWgeqwRLy3YScyqQgpE8Y_EdJmmKQMI1aLtUwoImEJaTebR90i5JwJ96dQsLZM4-jovgN0Cze-w3TItxHLIn4szrQrCD9Ou6lnLZu-NOaX2z0pE2utR1_O9UZEUJrclK1XvVkGNn2ZSOJb286S30Id66-2X42P518CL_6YB9oPo90JEj0ouUVfkArksCg1WgTWDlCED6PvfWmxQRXIgZbaQ3lC66wPCjveyoFtCSd4wZpaR-3S3zI6x5PmWKtH0EGzb4qYQQwuC9vePek6YY20lRm9-jLCnaMlHS-jYTpvaUa9BPhGdu4fWOo0RHhFF6xACrLihZX_Tvt6OeToYNq54x7SOWPiuubOLx8X_aVELo2mZFCYlnlGwdod2ltXDtjdZ20geRQ3juJreJZfspzlEtCtWwRt6qi7h5vU5SQmswzsH9xH_vdUTTLhaQL7Rdb6yzuFWWwCMpQtbKefaGE_a04zmxtaoBJzk8r3hLkMiwql8_11d7aF1mVqHKspaRYzq4mrNLbKA6nnldWSdJplLpZJdJtS2Vxi5PRy3Ez6N_3CAJ6MnRPR_vxgpWfbVkeVOkDj_6y4Uo_ev8x1UTaR8HEsu94rV1mujuydPtI2qFOo8-WBYvSk-M-dobhzGsHUDg0DUZc0_2Fm8INcikboirTxraJSQPlLxkUJboiHrxdvpeD6QWDn5doO4DOOLIyvAd2hY_bhikmzxdOBtpwNuB_GS0]--></g></svg>