<?xml version="1.0" encoding="us-ascii" standalone="no"?><svg xmlns="http://www.w3.org/2000/svg" xmlns:xlink="http://www.w3.org/1999/xlink" contentStyleType="text/css" height="1118px" preserveAspectRatio="none" style="width:948px;height:1118px;background:#FFFFFF;" version="1.1" viewBox="0 0 948 1118" width="948px" zoomAndPan="magnify"><defs/><g><!--class ListRequestUI--><g id="elem_ListRequestUI"><rect codeLine="14" fill="#F1F1F1" height="48" id="ListRequestUI" rx="2.5" ry="2.5" style="stroke:#181818;stroke-width:0.5;" width="119" x="150" y="22.5"/><ellipse cx="165" cy="38.5" fill="#ADD1B2" rx="11" ry="11" style="stroke:#181818;stroke-width:1.0;"/><path d="M167.7656,34.375 Q167.9219,34.1563 168.1094,34.0469 Q168.2969,33.9375 168.5156,33.9375 Q168.8906,33.9375 169.125,34.2031 Q169.3594,34.4531 169.3594,35.0625 L169.3594,36.5156 Q169.3594,37.125 169.125,37.3906 Q168.8906,37.6563 168.5156,37.6563 Q168.1719,37.6563 167.9688,37.4531 Q167.7656,37.2656 167.6563,36.75 Q167.6094,36.3906 167.4219,36.2031 Q167.0938,35.8281 166.4844,35.6094 Q165.875,35.3906 165.25,35.3906 Q164.4844,35.3906 163.8438,35.7188 Q163.2188,36.0469 162.7188,36.7969 Q162.2344,37.5469 162.2344,38.5781 L162.2344,39.6719 Q162.2344,40.9063 163.125,41.7344 Q164.0156,42.5469 165.6094,42.5469 Q166.5469,42.5469 167.2031,42.2969 Q167.5938,42.1406 168.0156,41.7031 Q168.2813,41.4375 168.4219,41.3594 Q168.5781,41.2813 168.7813,41.2813 Q169.1094,41.2813 169.3594,41.5469 Q169.625,41.7969 169.625,42.1406 Q169.625,42.4844 169.2813,42.8906 Q168.7813,43.4688 167.9844,43.7969 Q166.9063,44.25 165.6094,44.25 Q164.0938,44.25 162.8906,43.625 Q161.9063,43.125 161.2188,42.0625 Q160.5313,40.9844 160.5313,39.7031 L160.5313,38.5469 Q160.5313,37.2188 161.1406,36.0781 Q161.7656,34.9219 162.8594,34.3125 Q163.9531,33.6875 165.1875,33.6875 Q165.9219,33.6875 166.5625,33.8594 Q167.2188,34.0156 167.7656,34.375 Z " fill="#000000"/><text fill="#000000" font-family="sans-serif" font-size="14" lengthAdjust="spacing" textLength="87" x="179" y="43.3535">ListRequestUI</text><line style="stroke:#181818;stroke-width:0.5;" x1="151" x2="268" y1="54.5" y2="54.5"/><line style="stroke:#181818;stroke-width:0.5;" x1="151" x2="268" y1="62.5" y2="62.5"/></g><!--class ListRequestController--><g id="elem_ListRequestController"><rect codeLine="18" fill="#F1F1F1" height="79.2813" id="ListRequestController" rx="2.5" ry="2.5" style="stroke:#181818;stroke-width:0.5;" width="169" x="304" y="7"/><ellipse cx="319" cy="23" fill="#ADD1B2" rx="11" ry="11" style="stroke:#181818;stroke-width:1.0;"/><path d="M321.7656,18.875 Q321.9219,18.6563 322.1094,18.5469 Q322.2969,18.4375 322.5156,18.4375 Q322.8906,18.4375 323.125,18.7031 Q323.3594,18.9531 323.3594,19.5625 L323.3594,21.0156 Q323.3594,21.625 323.125,21.8906 Q322.8906,22.1563 322.5156,22.1563 Q322.1719,22.1563 321.9688,21.9531 Q321.7656,21.7656 321.6563,21.25 Q321.6094,20.8906 321.4219,20.7031 Q321.0938,20.3281 320.4844,20.1094 Q319.875,19.8906 319.25,19.8906 Q318.4844,19.8906 317.8438,20.2188 Q317.2188,20.5469 316.7188,21.2969 Q316.2344,22.0469 316.2344,23.0781 L316.2344,24.1719 Q316.2344,25.4063 317.125,26.2344 Q318.0156,27.0469 319.6094,27.0469 Q320.5469,27.0469 321.2031,26.7969 Q321.5938,26.6406 322.0156,26.2031 Q322.2813,25.9375 322.4219,25.8594 Q322.5781,25.7813 322.7813,25.7813 Q323.1094,25.7813 323.3594,26.0469 Q323.625,26.2969 323.625,26.6406 Q323.625,26.9844 323.2813,27.3906 Q322.7813,27.9688 321.9844,28.2969 Q320.9063,28.75 319.6094,28.75 Q318.0938,28.75 316.8906,28.125 Q315.9063,27.625 315.2188,26.5625 Q314.5313,25.4844 314.5313,24.2031 L314.5313,23.0469 Q314.5313,21.7188 315.1406,20.5781 Q315.7656,19.4219 316.8594,18.8125 Q317.9531,18.1875 319.1875,18.1875 Q319.9219,18.1875 320.5625,18.3594 Q321.2188,18.5156 321.7656,18.875 Z " fill="#000000"/><text fill="#000000" font-family="sans-serif" font-size="14" lengthAdjust="spacing" textLength="137" x="333" y="27.8535">ListRequestController</text><line style="stroke:#181818;stroke-width:0.5;" x1="305" x2="472" y1="39" y2="39"/><line style="stroke:#181818;stroke-width:0.5;" x1="305" x2="472" y1="47" y2="47"/><text fill="#000000" font-family="sans-serif" font-size="14" lengthAdjust="spacing" textLength="92" x="310" y="63.6738">ListRequests()</text><text fill="#000000" font-family="sans-serif" font-size="14" lengthAdjust="spacing" textLength="86" x="310" y="79.3145">ChooseOne()</text></g><!--class Commission--><g id="elem_Commission"><rect codeLine="25" fill="#F1F1F1" height="79.2813" id="Commission" rx="2.5" ry="2.5" style="stroke:#181818;stroke-width:0.5;" width="190" x="163.5" y="613"/><ellipse cx="216.25" cy="629" fill="#ADD1B2" rx="11" ry="11" style="stroke:#181818;stroke-width:1.0;"/><path d="M219.0156,624.875 Q219.1719,624.6563 219.3594,624.5469 Q219.5469,624.4375 219.7656,624.4375 Q220.1406,624.4375 220.375,624.7031 Q220.6094,624.9531 220.6094,625.5625 L220.6094,627.0156 Q220.6094,627.625 220.375,627.8906 Q220.1406,628.1563 219.7656,628.1563 Q219.4219,628.1563 219.2188,627.9531 Q219.0156,627.7656 218.9063,627.25 Q218.8594,626.8906 218.6719,626.7031 Q218.3438,626.3281 217.7344,626.1094 Q217.125,625.8906 216.5,625.8906 Q215.7344,625.8906 215.0938,626.2188 Q214.4688,626.5469 213.9688,627.2969 Q213.4844,628.0469 213.4844,629.0781 L213.4844,630.1719 Q213.4844,631.4063 214.375,632.2344 Q215.2656,633.0469 216.8594,633.0469 Q217.7969,633.0469 218.4531,632.7969 Q218.8438,632.6406 219.2656,632.2031 Q219.5313,631.9375 219.6719,631.8594 Q219.8281,631.7813 220.0313,631.7813 Q220.3594,631.7813 220.6094,632.0469 Q220.875,632.2969 220.875,632.6406 Q220.875,632.9844 220.5313,633.3906 Q220.0313,633.9688 219.2344,634.2969 Q218.1563,634.75 216.8594,634.75 Q215.3438,634.75 214.1406,634.125 Q213.1563,633.625 212.4688,632.5625 Q211.7813,631.4844 211.7813,630.2031 L211.7813,629.0469 Q211.7813,627.7188 212.3906,626.5781 Q213.0156,625.4219 214.1094,624.8125 Q215.2031,624.1875 216.4375,624.1875 Q217.1719,624.1875 217.8125,624.3594 Q218.4688,624.5156 219.0156,624.875 Z " fill="#000000"/><text fill="#000000" font-family="sans-serif" font-size="14" lengthAdjust="spacing" textLength="76" x="236.75" y="633.8535">Commission</text><line style="stroke:#181818;stroke-width:0.5;" x1="164.5" x2="352.5" y1="645" y2="645"/><text fill="#000000" font-family="sans-serif" font-size="14" lengthAdjust="spacing" textLength="178" x="169.5" y="661.6738">-boolean typeOfCommission</text><text fill="#000000" font-family="sans-serif" font-size="14" lengthAdjust="spacing" textLength="161" x="169.5" y="677.3145">-double commissionValue</text><line style="stroke:#181818;stroke-width:0.5;" x1="164.5" x2="352.5" y1="684.2813" y2="684.2813"/></g><!--class Request--><g id="elem_Request"><rect codeLine="30" fill="#F1F1F1" height="79.2813" id="Request" rx="2.5" ry="2.5" style="stroke:#181818;stroke-width:0.5;" width="148" x="282.5" y="302"/><ellipse cx="325.85" cy="318" fill="#ADD1B2" rx="11" ry="11" style="stroke:#181818;stroke-width:1.0;"/><path d="M328.6156,313.875 Q328.7719,313.6563 328.9594,313.5469 Q329.1469,313.4375 329.3656,313.4375 Q329.7406,313.4375 329.975,313.7031 Q330.2094,313.9531 330.2094,314.5625 L330.2094,316.0156 Q330.2094,316.625 329.975,316.8906 Q329.7406,317.1563 329.3656,317.1563 Q329.0219,317.1563 328.8188,316.9531 Q328.6156,316.7656 328.5063,316.25 Q328.4594,315.8906 328.2719,315.7031 Q327.9438,315.3281 327.3344,315.1094 Q326.725,314.8906 326.1,314.8906 Q325.3344,314.8906 324.6938,315.2188 Q324.0688,315.5469 323.5688,316.2969 Q323.0844,317.0469 323.0844,318.0781 L323.0844,319.1719 Q323.0844,320.4063 323.975,321.2344 Q324.8656,322.0469 326.4594,322.0469 Q327.3969,322.0469 328.0531,321.7969 Q328.4438,321.6406 328.8656,321.2031 Q329.1313,320.9375 329.2719,320.8594 Q329.4281,320.7813 329.6313,320.7813 Q329.9594,320.7813 330.2094,321.0469 Q330.475,321.2969 330.475,321.6406 Q330.475,321.9844 330.1313,322.3906 Q329.6313,322.9688 328.8344,323.2969 Q327.7563,323.75 326.4594,323.75 Q324.9438,323.75 323.7406,323.125 Q322.7563,322.625 322.0688,321.5625 Q321.3813,320.4844 321.3813,319.2031 L321.3813,318.0469 Q321.3813,316.7188 321.9906,315.5781 Q322.6156,314.4219 323.7094,313.8125 Q324.8031,313.1875 326.0375,313.1875 Q326.7719,313.1875 327.4125,313.3594 Q328.0688,313.5156 328.6156,313.875 Z " fill="#000000"/><text fill="#000000" font-family="sans-serif" font-size="14" lengthAdjust="spacing" textLength="53" x="346.15" y="322.8535">Request</text><line style="stroke:#181818;stroke-width:0.5;" x1="283.5" x2="429.5" y1="334" y2="334"/><text fill="#000000" font-family="sans-serif" font-size="14" lengthAdjust="spacing" textLength="74" x="288.5" y="350.6738">-String date</text><line style="stroke:#181818;stroke-width:0.5;" x1="283.5" x2="429.5" y1="357.6406" y2="357.6406"/><text fill="#000000" font-family="sans-serif" font-size="14" lengthAdjust="spacing" textLength="136" x="288.5" y="374.3145">+Request(todayDate)</text></g><!--class SaleAnnouncement--><g id="elem_SaleAnnouncement"><rect codeLine="36" fill="#F1F1F1" height="63.6406" id="SaleAnnouncement" rx="2.5" ry="2.5" style="stroke:#181818;stroke-width:0.5;" width="182" x="176.5" y="457"/><ellipse cx="203.65" cy="473" fill="#ADD1B2" rx="11" ry="11" style="stroke:#181818;stroke-width:1.0;"/><path d="M206.4156,468.875 Q206.5719,468.6563 206.7594,468.5469 Q206.9469,468.4375 207.1656,468.4375 Q207.5406,468.4375 207.775,468.7031 Q208.0094,468.9531 208.0094,469.5625 L208.0094,471.0156 Q208.0094,471.625 207.775,471.8906 Q207.5406,472.1563 207.1656,472.1563 Q206.8219,472.1563 206.6188,471.9531 Q206.4156,471.7656 206.3063,471.25 Q206.2594,470.8906 206.0719,470.7031 Q205.7438,470.3281 205.1344,470.1094 Q204.525,469.8906 203.9,469.8906 Q203.1344,469.8906 202.4938,470.2188 Q201.8688,470.5469 201.3688,471.2969 Q200.8844,472.0469 200.8844,473.0781 L200.8844,474.1719 Q200.8844,475.4063 201.775,476.2344 Q202.6656,477.0469 204.2594,477.0469 Q205.1969,477.0469 205.8531,476.7969 Q206.2438,476.6406 206.6656,476.2031 Q206.9313,475.9375 207.0719,475.8594 Q207.2281,475.7813 207.4313,475.7813 Q207.7594,475.7813 208.0094,476.0469 Q208.275,476.2969 208.275,476.6406 Q208.275,476.9844 207.9313,477.3906 Q207.4313,477.9688 206.6344,478.2969 Q205.5563,478.75 204.2594,478.75 Q202.7438,478.75 201.5406,478.125 Q200.5563,477.625 199.8688,476.5625 Q199.1813,475.4844 199.1813,474.2031 L199.1813,473.0469 Q199.1813,471.7188 199.7906,470.5781 Q200.4156,469.4219 201.5094,468.8125 Q202.6031,468.1875 203.8375,468.1875 Q204.5719,468.1875 205.2125,468.3594 Q205.8688,468.5156 206.4156,468.875 Z " fill="#000000"/><text fill="#000000" font-family="sans-serif" font-size="14" lengthAdjust="spacing" textLength="123" x="220.35" y="477.8535">SaleAnnouncement</text><line style="stroke:#181818;stroke-width:0.5;" x1="177.5" x2="357.5" y1="489" y2="489"/><text fill="#000000" font-family="sans-serif" font-size="14" lengthAdjust="spacing" textLength="170" x="182.5" y="505.6738">-String announcementDate</text><line style="stroke:#181818;stroke-width:0.5;" x1="177.5" x2="357.5" y1="512.6406" y2="512.6406"/></g><!--class RequestsRepository--><g id="elem_RequestsRepository"><rect codeLine="41" fill="#F1F1F1" height="63.6406" id="RequestsRepository" rx="2.5" ry="2.5" style="stroke:#181818;stroke-width:0.5;" width="167" x="308" y="162"/><ellipse cx="326.15" cy="178" fill="#ADD1B2" rx="11" ry="11" style="stroke:#181818;stroke-width:1.0;"/><path d="M328.9156,173.875 Q329.0719,173.6563 329.2594,173.5469 Q329.4469,173.4375 329.6656,173.4375 Q330.0406,173.4375 330.275,173.7031 Q330.5094,173.9531 330.5094,174.5625 L330.5094,176.0156 Q330.5094,176.625 330.275,176.8906 Q330.0406,177.1563 329.6656,177.1563 Q329.3219,177.1563 329.1188,176.9531 Q328.9156,176.7656 328.8063,176.25 Q328.7594,175.8906 328.5719,175.7031 Q328.2438,175.3281 327.6344,175.1094 Q327.025,174.8906 326.4,174.8906 Q325.6344,174.8906 324.9938,175.2188 Q324.3688,175.5469 323.8688,176.2969 Q323.3844,177.0469 323.3844,178.0781 L323.3844,179.1719 Q323.3844,180.4063 324.275,181.2344 Q325.1656,182.0469 326.7594,182.0469 Q327.6969,182.0469 328.3531,181.7969 Q328.7438,181.6406 329.1656,181.2031 Q329.4313,180.9375 329.5719,180.8594 Q329.7281,180.7813 329.9313,180.7813 Q330.2594,180.7813 330.5094,181.0469 Q330.775,181.2969 330.775,181.6406 Q330.775,181.9844 330.4313,182.3906 Q329.9313,182.9688 329.1344,183.2969 Q328.0563,183.75 326.7594,183.75 Q325.2438,183.75 324.0406,183.125 Q323.0563,182.625 322.3688,181.5625 Q321.6813,180.4844 321.6813,179.2031 L321.6813,178.0469 Q321.6813,176.7188 322.2906,175.5781 Q322.9156,174.4219 324.0094,173.8125 Q325.1031,173.1875 326.3375,173.1875 Q327.0719,173.1875 327.7125,173.3594 Q328.3688,173.5156 328.9156,173.875 Z " fill="#000000"/><text fill="#000000" font-family="sans-serif" font-size="14" lengthAdjust="spacing" textLength="128" x="340.85" y="182.8535">RequestsRepository</text><line style="stroke:#181818;stroke-width:0.5;" x1="309" x2="474" y1="194" y2="194"/><text fill="#000000" font-family="sans-serif" font-size="14" lengthAdjust="spacing" textLength="155" x="314" y="210.6738">-List&lt;Request&gt; requests</text><line style="stroke:#181818;stroke-width:0.5;" x1="309" x2="474" y1="217.6406" y2="217.6406"/></g><!--class Property--><g id="elem_Property"><rect codeLine="47" fill="#F1F1F1" height="110.5625" id="Property" rx="2.5" ry="2.5" style="stroke:#181818;stroke-width:0.5;" width="100" x="388.5" y="597"/><ellipse cx="409.8" cy="613" fill="#ADD1B2" rx="11" ry="11" style="stroke:#181818;stroke-width:1.0;"/><path d="M412.5656,608.875 Q412.7219,608.6563 412.9094,608.5469 Q413.0969,608.4375 413.3156,608.4375 Q413.6906,608.4375 413.925,608.7031 Q414.1594,608.9531 414.1594,609.5625 L414.1594,611.0156 Q414.1594,611.625 413.925,611.8906 Q413.6906,612.1563 413.3156,612.1563 Q412.9719,612.1563 412.7688,611.9531 Q412.5656,611.7656 412.4563,611.25 Q412.4094,610.8906 412.2219,610.7031 Q411.8938,610.3281 411.2844,610.1094 Q410.675,609.8906 410.05,609.8906 Q409.2844,609.8906 408.6438,610.2188 Q408.0188,610.5469 407.5188,611.2969 Q407.0344,612.0469 407.0344,613.0781 L407.0344,614.1719 Q407.0344,615.4063 407.925,616.2344 Q408.8156,617.0469 410.4094,617.0469 Q411.3469,617.0469 412.0031,616.7969 Q412.3938,616.6406 412.8156,616.2031 Q413.0813,615.9375 413.2219,615.8594 Q413.3781,615.7813 413.5813,615.7813 Q413.9094,615.7813 414.1594,616.0469 Q414.425,616.2969 414.425,616.6406 Q414.425,616.9844 414.0813,617.3906 Q413.5813,617.9688 412.7844,618.2969 Q411.7063,618.75 410.4094,618.75 Q408.8938,618.75 407.6906,618.125 Q406.7063,617.625 406.0188,616.5625 Q405.3313,615.4844 405.3313,614.2031 L405.3313,613.0469 Q405.3313,611.7188 405.9406,610.5781 Q406.5656,609.4219 407.6594,608.8125 Q408.7531,608.1875 409.9875,608.1875 Q410.7219,608.1875 411.3625,608.3594 Q412.0188,608.5156 412.5656,608.875 Z " fill="#000000"/><text fill="#000000" font-family="sans-serif" font-size="14" lengthAdjust="spacing" textLength="54" x="425.2" y="617.8535">Property</text><line style="stroke:#181818;stroke-width:0.5;" x1="389.5" x2="487.5" y1="629" y2="629"/><text fill="#000000" font-family="sans-serif" font-size="14" lengthAdjust="spacing" textLength="53" x="394.5" y="645.6738">-int area</text><text fill="#000000" font-family="sans-serif" font-size="14" lengthAdjust="spacing" textLength="88" x="394.5" y="661.3145">-int cityCenter</text><text fill="#000000" font-family="sans-serif" font-size="14" lengthAdjust="spacing" textLength="55" x="394.5" y="676.9551">-int price</text><line style="stroke:#181818;stroke-width:0.5;" x1="389.5" x2="487.5" y1="683.9219" y2="683.9219"/><text fill="#000000" font-family="sans-serif" font-size="14" lengthAdjust="spacing" textLength="72" x="394.5" y="700.5957">+Property()</text></g><!--class Dwelling--><g id="elem_Dwelling"><rect codeLine="55" fill="#F1F1F1" height="94.9219" id="Dwelling" rx="2.5" ry="2.5" style="stroke:#181818;stroke-width:0.5;" width="158" x="10.5" y="815"/><ellipse cx="59.25" cy="831" fill="#ADD1B2" rx="11" ry="11" style="stroke:#181818;stroke-width:1.0;"/><path d="M62.0156,826.875 Q62.1719,826.6563 62.3594,826.5469 Q62.5469,826.4375 62.7656,826.4375 Q63.1406,826.4375 63.375,826.7031 Q63.6094,826.9531 63.6094,827.5625 L63.6094,829.0156 Q63.6094,829.625 63.375,829.8906 Q63.1406,830.1563 62.7656,830.1563 Q62.4219,830.1563 62.2188,829.9531 Q62.0156,829.7656 61.9063,829.25 Q61.8594,828.8906 61.6719,828.7031 Q61.3438,828.3281 60.7344,828.1094 Q60.125,827.8906 59.5,827.8906 Q58.7344,827.8906 58.0938,828.2188 Q57.4688,828.5469 56.9688,829.2969 Q56.4844,830.0469 56.4844,831.0781 L56.4844,832.1719 Q56.4844,833.4063 57.375,834.2344 Q58.2656,835.0469 59.8594,835.0469 Q60.7969,835.0469 61.4531,834.7969 Q61.8438,834.6406 62.2656,834.2031 Q62.5313,833.9375 62.6719,833.8594 Q62.8281,833.7813 63.0313,833.7813 Q63.3594,833.7813 63.6094,834.0469 Q63.875,834.2969 63.875,834.6406 Q63.875,834.9844 63.5313,835.3906 Q63.0313,835.9688 62.2344,836.2969 Q61.1563,836.75 59.8594,836.75 Q58.3438,836.75 57.1406,836.125 Q56.1563,835.625 55.4688,834.5625 Q54.7813,833.4844 54.7813,832.2031 L54.7813,831.0469 Q54.7813,829.7188 55.3906,828.5781 Q56.0156,827.4219 57.1094,826.8125 Q58.2031,826.1875 59.4375,826.1875 Q60.1719,826.1875 60.8125,826.3594 Q61.4688,826.5156 62.0156,826.875 Z " fill="#000000"/><text fill="#000000" font-family="sans-serif" font-size="14" lengthAdjust="spacing" textLength="52" x="79.75" y="835.8535">Dwelling</text><line style="stroke:#181818;stroke-width:0.5;" x1="11.5" x2="167.5" y1="847" y2="847"/><text fill="#000000" font-family="sans-serif" font-size="14" lengthAdjust="spacing" textLength="115" x="16.5" y="863.6738">-int numBedrooms</text><text fill="#000000" font-family="sans-serif" font-size="14" lengthAdjust="spacing" textLength="119" x="16.5" y="879.3145">-int numBathrooms</text><text fill="#000000" font-family="sans-serif" font-size="14" lengthAdjust="spacing" textLength="146" x="16.5" y="894.9551">-int numParkingSpaces</text><line style="stroke:#181818;stroke-width:0.5;" x1="11.5" x2="167.5" y1="901.9219" y2="901.9219"/></g><!--class House--><g id="elem_House"><rect codeLine="61" fill="#F1F1F1" height="94.9219" id="House" rx="2.5" ry="2.5" style="stroke:#181818;stroke-width:0.5;" width="165" x="7" y="1017"/><ellipse cx="65.25" cy="1033" fill="#ADD1B2" rx="11" ry="11" style="stroke:#181818;stroke-width:1.0;"/><path d="M68.0156,1028.875 Q68.1719,1028.6563 68.3594,1028.5469 Q68.5469,1028.4375 68.7656,1028.4375 Q69.1406,1028.4375 69.375,1028.7031 Q69.6094,1028.9531 69.6094,1029.5625 L69.6094,1031.0156 Q69.6094,1031.625 69.375,1031.8906 Q69.1406,1032.1563 68.7656,1032.1563 Q68.4219,1032.1563 68.2188,1031.9531 Q68.0156,1031.7656 67.9063,1031.25 Q67.8594,1030.8906 67.6719,1030.7031 Q67.3438,1030.3281 66.7344,1030.1094 Q66.125,1029.8906 65.5,1029.8906 Q64.7344,1029.8906 64.0938,1030.2188 Q63.4688,1030.5469 62.9688,1031.2969 Q62.4844,1032.0469 62.4844,1033.0781 L62.4844,1034.1719 Q62.4844,1035.4063 63.375,1036.2344 Q64.2656,1037.0469 65.8594,1037.0469 Q66.7969,1037.0469 67.4531,1036.7969 Q67.8438,1036.6406 68.2656,1036.2031 Q68.5313,1035.9375 68.6719,1035.8594 Q68.8281,1035.7813 69.0313,1035.7813 Q69.3594,1035.7813 69.6094,1036.0469 Q69.875,1036.2969 69.875,1036.6406 Q69.875,1036.9844 69.5313,1037.3906 Q69.0313,1037.9688 68.2344,1038.2969 Q67.1563,1038.75 65.8594,1038.75 Q64.3438,1038.75 63.1406,1038.125 Q62.1563,1037.625 61.4688,1036.5625 Q60.7813,1035.4844 60.7813,1034.2031 L60.7813,1033.0469 Q60.7813,1031.7188 61.3906,1030.5781 Q62.0156,1029.4219 63.1094,1028.8125 Q64.2031,1028.1875 65.4375,1028.1875 Q66.1719,1028.1875 66.8125,1028.3594 Q67.4688,1028.5156 68.0156,1028.875 Z " fill="#000000"/><text fill="#000000" font-family="sans-serif" font-size="14" lengthAdjust="spacing" textLength="40" x="85.75" y="1037.8535">House</text><line style="stroke:#181818;stroke-width:0.5;" x1="8" x2="171" y1="1049" y2="1049"/><text fill="#000000" font-family="sans-serif" font-size="14" lengthAdjust="spacing" textLength="122" x="13" y="1065.6738">-boolean basement</text><text fill="#000000" font-family="sans-serif" font-size="14" lengthAdjust="spacing" textLength="153" x="13" y="1081.3145">-boolean inhabitableLoft</text><text fill="#000000" font-family="sans-serif" font-size="14" lengthAdjust="spacing" textLength="106" x="13" y="1096.9551">-int sunExposure</text><line style="stroke:#181818;stroke-width:0.5;" x1="8" x2="171" y1="1103.9219" y2="1103.9219"/></g><!--class PropertyType--><g id="elem_PropertyType"><rect codeLine="68" fill="#F1F1F1" height="63.6406" id="PropertyType" rx="2.5" ry="2.5" style="stroke:#181818;stroke-width:0.5;" width="121" x="204" y="830.5"/><ellipse cx="220.35" cy="846.5" fill="#ADD1B2" rx="11" ry="11" style="stroke:#181818;stroke-width:1.0;"/><path d="M223.1156,842.375 Q223.2719,842.1563 223.4594,842.0469 Q223.6469,841.9375 223.8656,841.9375 Q224.2406,841.9375 224.475,842.2031 Q224.7094,842.4531 224.7094,843.0625 L224.7094,844.5156 Q224.7094,845.125 224.475,845.3906 Q224.2406,845.6563 223.8656,845.6563 Q223.5219,845.6563 223.3188,845.4531 Q223.1156,845.2656 223.0063,844.75 Q222.9594,844.3906 222.7719,844.2031 Q222.4438,843.8281 221.8344,843.6094 Q221.225,843.3906 220.6,843.3906 Q219.8344,843.3906 219.1938,843.7188 Q218.5688,844.0469 218.0688,844.7969 Q217.5844,845.5469 217.5844,846.5781 L217.5844,847.6719 Q217.5844,848.9063 218.475,849.7344 Q219.3656,850.5469 220.9594,850.5469 Q221.8969,850.5469 222.5531,850.2969 Q222.9438,850.1406 223.3656,849.7031 Q223.6313,849.4375 223.7719,849.3594 Q223.9281,849.2813 224.1313,849.2813 Q224.4594,849.2813 224.7094,849.5469 Q224.975,849.7969 224.975,850.1406 Q224.975,850.4844 224.6313,850.8906 Q224.1313,851.4688 223.3344,851.7969 Q222.2563,852.25 220.9594,852.25 Q219.4438,852.25 218.2406,851.625 Q217.2563,851.125 216.5688,850.0625 Q215.8813,848.9844 215.8813,847.7031 L215.8813,846.5469 Q215.8813,845.2188 216.4906,844.0781 Q217.1156,842.9219 218.2094,842.3125 Q219.3031,841.6875 220.5375,841.6875 Q221.2719,841.6875 221.9125,841.8594 Q222.5688,842.0156 223.1156,842.375 Z " fill="#000000"/><text fill="#000000" font-family="sans-serif" font-size="14" lengthAdjust="spacing" textLength="86" x="234.65" y="851.3535">PropertyType</text><line style="stroke:#181818;stroke-width:0.5;" x1="205" x2="324" y1="862.5" y2="862.5"/><text fill="#000000" font-family="sans-serif" font-size="14" lengthAdjust="spacing" textLength="109" x="210" y="879.1738">-int propertyType</text><line style="stroke:#181818;stroke-width:0.5;" x1="205" x2="324" y1="886.1406" y2="886.1406"/></g><!--class Address--><g id="elem_Address"><rect codeLine="72" fill="#F1F1F1" height="157.4844" id="Address" rx="2.5" ry="2.5" style="stroke:#181818;stroke-width:0.5;" width="157" x="360" y="784"/><ellipse cx="408.25" cy="800" fill="#ADD1B2" rx="11" ry="11" style="stroke:#181818;stroke-width:1.0;"/><path d="M411.0156,795.875 Q411.1719,795.6563 411.3594,795.5469 Q411.5469,795.4375 411.7656,795.4375 Q412.1406,795.4375 412.375,795.7031 Q412.6094,795.9531 412.6094,796.5625 L412.6094,798.0156 Q412.6094,798.625 412.375,798.8906 Q412.1406,799.1563 411.7656,799.1563 Q411.4219,799.1563 411.2188,798.9531 Q411.0156,798.7656 410.9063,798.25 Q410.8594,797.8906 410.6719,797.7031 Q410.3438,797.3281 409.7344,797.1094 Q409.125,796.8906 408.5,796.8906 Q407.7344,796.8906 407.0938,797.2188 Q406.4688,797.5469 405.9688,798.2969 Q405.4844,799.0469 405.4844,800.0781 L405.4844,801.1719 Q405.4844,802.4063 406.375,803.2344 Q407.2656,804.0469 408.8594,804.0469 Q409.7969,804.0469 410.4531,803.7969 Q410.8438,803.6406 411.2656,803.2031 Q411.5313,802.9375 411.6719,802.8594 Q411.8281,802.7813 412.0313,802.7813 Q412.3594,802.7813 412.6094,803.0469 Q412.875,803.2969 412.875,803.6406 Q412.875,803.9844 412.5313,804.3906 Q412.0313,804.9688 411.2344,805.2969 Q410.1563,805.75 408.8594,805.75 Q407.3438,805.75 406.1406,805.125 Q405.1563,804.625 404.4688,803.5625 Q403.7813,802.4844 403.7813,801.2031 L403.7813,800.0469 Q403.7813,798.7188 404.3906,797.5781 Q405.0156,796.4219 406.1094,795.8125 Q407.2031,795.1875 408.4375,795.1875 Q409.1719,795.1875 409.8125,795.3594 Q410.4688,795.5156 411.0156,795.875 Z " fill="#000000"/><text fill="#000000" font-family="sans-serif" font-size="14" lengthAdjust="spacing" textLength="52" x="428.75" y="804.8535">Address</text><line style="stroke:#181818;stroke-width:0.5;" x1="361" x2="516" y1="816" y2="816"/><text fill="#000000" font-family="sans-serif" font-size="14" lengthAdjust="spacing" textLength="65" x="366" y="832.6738">-int district</text><text fill="#000000" font-family="sans-serif" font-size="14" lengthAdjust="spacing" textLength="55" x="366" y="848.3145">-int state</text><text fill="#000000" font-family="sans-serif" font-size="14" lengthAdjust="spacing" textLength="45" x="366" y="863.9551">-int city</text><text fill="#000000" font-family="sans-serif" font-size="14" lengthAdjust="spacing" textLength="60" x="366" y="879.5957">-int street</text><text fill="#000000" font-family="sans-serif" font-size="14" lengthAdjust="spacing" textLength="77" x="366" y="895.2363">-int zip-code</text><line style="stroke:#181818;stroke-width:0.5;" x1="361" x2="516" y1="902.2031" y2="902.2031"/><text fill="#000000" font-family="sans-serif" font-size="14" lengthAdjust="spacing" textLength="145" x="366" y="918.877">+Address(district,state,</text><text fill="#000000" font-family="sans-serif" font-size="14" lengthAdjust="spacing" textLength="123" x="366" y="934.5176">city,street,zip-code)</text></g><!--class Photograph--><g id="elem_Photograph"><rect codeLine="81" fill="#F1F1F1" height="79.2813" id="Photograph" rx="2.5" ry="2.5" style="stroke:#181818;stroke-width:0.5;" width="184" x="552.5" y="823"/><ellipse cx="603.25" cy="839" fill="#ADD1B2" rx="11" ry="11" style="stroke:#181818;stroke-width:1.0;"/><path d="M606.0156,834.875 Q606.1719,834.6563 606.3594,834.5469 Q606.5469,834.4375 606.7656,834.4375 Q607.1406,834.4375 607.375,834.7031 Q607.6094,834.9531 607.6094,835.5625 L607.6094,837.0156 Q607.6094,837.625 607.375,837.8906 Q607.1406,838.1563 606.7656,838.1563 Q606.4219,838.1563 606.2188,837.9531 Q606.0156,837.7656 605.9063,837.25 Q605.8594,836.8906 605.6719,836.7031 Q605.3438,836.3281 604.7344,836.1094 Q604.125,835.8906 603.5,835.8906 Q602.7344,835.8906 602.0938,836.2188 Q601.4688,836.5469 600.9688,837.2969 Q600.4844,838.0469 600.4844,839.0781 L600.4844,840.1719 Q600.4844,841.4063 601.375,842.2344 Q602.2656,843.0469 603.8594,843.0469 Q604.7969,843.0469 605.4531,842.7969 Q605.8438,842.6406 606.2656,842.2031 Q606.5313,841.9375 606.6719,841.8594 Q606.8281,841.7813 607.0313,841.7813 Q607.3594,841.7813 607.6094,842.0469 Q607.875,842.2969 607.875,842.6406 Q607.875,842.9844 607.5313,843.3906 Q607.0313,843.9688 606.2344,844.2969 Q605.1563,844.75 603.8594,844.75 Q602.3438,844.75 601.1406,844.125 Q600.1563,843.625 599.4688,842.5625 Q598.7813,841.4844 598.7813,840.2031 L598.7813,839.0469 Q598.7813,837.7188 599.3906,836.5781 Q600.0156,835.4219 601.1094,834.8125 Q602.2031,834.1875 603.4375,834.1875 Q604.1719,834.1875 604.8125,834.3594 Q605.4688,834.5156 606.0156,834.875 Z " fill="#000000"/><text fill="#000000" font-family="sans-serif" font-size="14" lengthAdjust="spacing" textLength="74" x="623.75" y="843.8535">Photograph</text><line style="stroke:#181818;stroke-width:0.5;" x1="553.5" x2="735.5" y1="855" y2="855"/><text fill="#000000" font-family="sans-serif" font-size="14" lengthAdjust="spacing" textLength="126" x="558.5" y="871.6738">-String photographs</text><line style="stroke:#181818;stroke-width:0.5;" x1="553.5" x2="735.5" y1="878.6406" y2="878.6406"/><text fill="#000000" font-family="sans-serif" font-size="14" lengthAdjust="spacing" textLength="172" x="558.5" y="895.3145">+Photograph(photographs)</text></g><!--class Equipment--><g id="elem_Equipment"><rect codeLine="86" fill="#F1F1F1" height="79.2813" id="Equipment" rx="2.5" ry="2.5" style="stroke:#181818;stroke-width:0.5;" width="170" x="771.5" y="823"/><ellipse cx="818.75" cy="839" fill="#ADD1B2" rx="11" ry="11" style="stroke:#181818;stroke-width:1.0;"/><path d="M821.5156,834.875 Q821.6719,834.6563 821.8594,834.5469 Q822.0469,834.4375 822.2656,834.4375 Q822.6406,834.4375 822.875,834.7031 Q823.1094,834.9531 823.1094,835.5625 L823.1094,837.0156 Q823.1094,837.625 822.875,837.8906 Q822.6406,838.1563 822.2656,838.1563 Q821.9219,838.1563 821.7188,837.9531 Q821.5156,837.7656 821.4063,837.25 Q821.3594,836.8906 821.1719,836.7031 Q820.8438,836.3281 820.2344,836.1094 Q819.625,835.8906 819,835.8906 Q818.2344,835.8906 817.5938,836.2188 Q816.9688,836.5469 816.4688,837.2969 Q815.9844,838.0469 815.9844,839.0781 L815.9844,840.1719 Q815.9844,841.4063 816.875,842.2344 Q817.7656,843.0469 819.3594,843.0469 Q820.2969,843.0469 820.9531,842.7969 Q821.3438,842.6406 821.7656,842.2031 Q822.0313,841.9375 822.1719,841.8594 Q822.3281,841.7813 822.5313,841.7813 Q822.8594,841.7813 823.1094,842.0469 Q823.375,842.2969 823.375,842.6406 Q823.375,842.9844 823.0313,843.3906 Q822.5313,843.9688 821.7344,844.2969 Q820.6563,844.75 819.3594,844.75 Q817.8438,844.75 816.6406,844.125 Q815.6563,843.625 814.9688,842.5625 Q814.2813,841.4844 814.2813,840.2031 L814.2813,839.0469 Q814.2813,837.7188 814.8906,836.5781 Q815.5156,835.4219 816.6094,834.8125 Q817.7031,834.1875 818.9375,834.1875 Q819.6719,834.1875 820.3125,834.3594 Q820.9688,834.5156 821.5156,834.875 Z " fill="#000000"/><text fill="#000000" font-family="sans-serif" font-size="14" lengthAdjust="spacing" textLength="67" x="839.25" y="843.8535">Equipment</text><line style="stroke:#181818;stroke-width:0.5;" x1="772.5" x2="940.5" y1="855" y2="855"/><text fill="#000000" font-family="sans-serif" font-size="14" lengthAdjust="spacing" textLength="125" x="777.5" y="871.6738">-int numEquipments</text><text fill="#000000" font-family="sans-serif" font-size="14" lengthAdjust="spacing" textLength="158" x="777.5" y="887.3145">-List&lt;String&gt; Equipments</text><line style="stroke:#181818;stroke-width:0.5;" x1="772.5" x2="940.5" y1="894.2813" y2="894.2813"/></g><!--link ListRequestUI to ListRequestController--><g id="link_ListRequestUI_ListRequestController"><path codeLine="92" d="M269,46.5 C269.11,46.5 269.17,46.5 269.17,46.5 C269.17,46.5 283.99,46.5 298.85,46.5 " fill="none" id="ListRequestUI-to-ListRequestController" style="stroke:#181818;stroke-width:1.0;stroke-dasharray:7.0,7.0;"/><polygon fill="#181818" points="303.88,46.5,294.8915,42.4743,298.88,46.4857,294.8686,50.4743,303.88,46.5" style="stroke:#181818;stroke-width:1.0;"/></g><!--link ListRequestController to Request--><g id="link_ListRequestController_Request"><path codeLine="93" d="M338.39,86.26 C295.46,119.48 240.5,162 240.5,162 C240.5,162 240.5,226 240.5,226 C240.5,226 280.6,265.58 313.65,298.2 " fill="none" id="ListRequestController-to-Request" style="stroke:#181818;stroke-width:1.0;stroke-dasharray:7.0,7.0;"/><polygon fill="#181818" points="317.23,301.74,313.6388,292.5692,313.6731,298.226,308.0164,298.2602,317.23,301.74" style="stroke:#181818;stroke-width:1.0;"/><text fill="#000000" font-family="sans-serif" font-size="13" lengthAdjust="spacing" textLength="48" x="241.5" y="198.7686">Request</text><text fill="#000000" font-family="sans-serif" font-size="13" lengthAdjust="spacing" textLength="5" x="304.7897" y="291.201">*</text></g><!--link ListRequestController to RequestsRepository--><g id="link_ListRequestController_RequestsRepository"><path codeLine="94" d="M386.81,86.15 C386.13,101.69 385.5,116 385.5,116 C385.5,116 385.5,132 385.5,132 C385.5,132 386.63,143.52 387.91,156.54 " fill="none" id="ListRequestController-to-RequestsRepository" style="stroke:#181818;stroke-width:1.0;stroke-dasharray:7.0,7.0;"/><polygon fill="#181818" points="388.43,161.79,391.5359,152.4437,387.9438,156.8137,383.5738,153.2216,388.43,161.79" style="stroke:#181818;stroke-width:1.0;"/><text fill="#000000" font-family="sans-serif" font-size="13" lengthAdjust="spacing" textLength="117" x="386.5" y="128.7686">RequestsRepository</text><text fill="#000000" font-family="sans-serif" font-size="13" lengthAdjust="spacing" textLength="7" x="379.9928" y="151.0779">1</text></g><!--link RequestsRepository to Request--><g id="link_RequestsRepository_Request"><path codeLine="95" d="M383.99,226.21 C379.04,246.79 372.49,274.02 367.03,296.74 " fill="none" id="RequestsRepository-to-Request" style="stroke:#181818;stroke-width:1.0;stroke-dasharray:7.0,7.0;"/><polygon fill="#181818" points="365.8,301.82,371.7934,294.0047,366.969,296.9586,364.0151,292.1342,365.8,301.82" style="stroke:#181818;stroke-width:1.0;"/><text fill="#000000" font-family="sans-serif" font-size="13" lengthAdjust="spacing" textLength="43" x="377.5" y="268.7686">creates</text><text fill="#000000" font-family="sans-serif" font-size="13" lengthAdjust="spacing" textLength="5" x="362.0113" y="291.2952">*</text></g><!--link ListRequestController to Property--><g id="link_ListRequestController_Property"><path codeLine="96" d="M456.22,86.15 C483.43,101.69 508.5,116 508.5,116 C508.5,116 530.5,193 530.5,193 C530.5,193 530.5,193 530.5,490 C530.5,490 498.44,546.28 472.17,592.39 " fill="none" id="ListRequestController-to-Property" style="stroke:#181818;stroke-width:1.0;stroke-dasharray:7.0,7.0;"/><polygon fill="#181818" points="469.65,596.82,477.5923,590.996,472.1338,592.4805,470.6492,587.022,469.65,596.82" style="stroke:#181818;stroke-width:1.0;"/><text fill="#000000" font-family="sans-serif" font-size="13" lengthAdjust="spacing" textLength="49" x="531.5" y="346.2686">Property</text><text fill="#000000" font-family="sans-serif" font-size="13" lengthAdjust="spacing" textLength="5" x="468.4998" y="586.2305">*</text></g><!--link Request to Property--><g id="link_Request_Property"><path codeLine="97" d="M372.3,381.15 C378.65,396.69 384.5,411 384.5,411 C384.5,411 409.12,520.64 425.11,591.87 " fill="none" id="Request-to-Property" style="stroke:#181818;stroke-width:1.0;stroke-dasharray:7.0,7.0;"/><polygon fill="#181818" points="426.25,596.93,428.1755,587.2712,425.1518,592.0521,420.3709,589.0284,426.25,596.93" style="stroke:#181818;stroke-width:1.0;"/><text fill="#000000" font-family="sans-serif" font-size="13" lengthAdjust="spacing" textLength="47" x="409.5" y="493.7686">refers to</text><text fill="#000000" font-family="sans-serif" font-size="13" lengthAdjust="spacing" textLength="7" x="417.1336" y="586.3553">1</text></g><!--link Request to SaleAnnouncement--><g id="link_Request_SaleAnnouncement"><path codeLine="98" d="M332.88,381.11 C319.42,403.12 302.66,430.52 289.48,452.06 " fill="none" id="Request-to-SaleAnnouncement" style="stroke:#181818;stroke-width:1.0;stroke-dasharray:7.0,7.0;"/><polygon fill="#181818" points="286.73,456.57,294.84,450.9817,289.3401,452.3054,288.0165,446.8055,286.73,456.57" style="stroke:#181818;stroke-width:1.0;"/><text fill="#000000" font-family="sans-serif" font-size="13" lengthAdjust="spacing" textLength="62" x="313.5" y="423.7686">can turn to</text><text fill="#000000" font-family="sans-serif" font-size="13" lengthAdjust="spacing" textLength="7" x="282.9743" y="446.2972">1</text></g><!--link SaleAnnouncement to Commission--><g id="link_SaleAnnouncement_Commission"><path codeLine="100" d="M265.76,521.14 C264.39,545.73 262.47,580.35 260.94,607.73 " fill="none" id="SaleAnnouncement-to-Commission" style="stroke:#181818;stroke-width:1.0;stroke-dasharray:7.0,7.0;"/><polygon fill="#181818" points="260.66,612.75,265.1684,603.9936,260.9461,607.7582,257.1815,603.5359,260.66,612.75" style="stroke:#181818;stroke-width:1.0;"/><text fill="#000000" font-family="sans-serif" font-size="13" lengthAdjust="spacing" textLength="32" x="265.5" y="563.7686">has a</text><text fill="#000000" font-family="sans-serif" font-size="13" lengthAdjust="spacing" textLength="7" x="253.4213" y="602.2128">1</text></g><!--link SaleAnnouncement to Property--><g id="link_SaleAnnouncement_Property"><path codeLine="101" d="M300.47,521.14 C324.34,543.68 357.13,574.65 384.76,600.75 " fill="none" id="SaleAnnouncement-to-Property" style="stroke:#181818;stroke-width:1.0;stroke-dasharray:7.0,7.0;"/><polygon fill="#181818" points="388.45,604.23,384.6744,595.1336,384.8229,600.7885,379.168,600.937,388.45,604.23" style="stroke:#181818;stroke-width:1.0;"/><text fill="#000000" font-family="sans-serif" font-size="13" lengthAdjust="spacing" textLength="47" x="349.5" y="563.7686">refers to</text><text fill="#000000" font-family="sans-serif" font-size="13" lengthAdjust="spacing" textLength="7" x="373.5848" y="593.9513">1</text></g><!--link Property to PropertyType--><g id="link_Property_PropertyType"><path codeLine="103" d="M392.78,708.15 C361.43,745.62 320.78,794.23 293.72,826.57 " fill="none" id="Property-to-PropertyType" style="stroke:#181818;stroke-width:1.0;stroke-dasharray:7.0,7.0;"/><polygon fill="#181818" points="290.49,830.43,299.3404,826.1091,293.705,826.6006,293.2134,820.9652,290.49,830.43" style="stroke:#181818;stroke-width:1.0;"/><text fill="#000000" font-family="sans-serif" font-size="13" lengthAdjust="spacing" textLength="32" x="368.5" y="750.7686">has a</text><text fill="#000000" font-family="sans-serif" font-size="13" lengthAdjust="spacing" textLength="7" x="288.4097" y="819.7485">1</text></g><!--link Property to Address--><g id="link_Property_Address"><path codeLine="104" d="M438.5,708.15 C438.5,729.72 438.5,754.99 438.5,778.72 " fill="none" id="Property-to-Address" style="stroke:#181818;stroke-width:1.0;stroke-dasharray:7.0,7.0;"/><polygon fill="#181818" points="438.5,783.75,442.5,774.75,438.5,778.75,434.5,774.75,438.5,783.75" style="stroke:#181818;stroke-width:1.0;"/><text fill="#000000" font-family="sans-serif" font-size="13" lengthAdjust="spacing" textLength="57" x="439.5" y="750.7686">located at</text><text fill="#000000" font-family="sans-serif" font-size="13" lengthAdjust="spacing" textLength="7" x="431.1664" y="773.3474">1</text></g><!--link Property to Photograph--><g id="link_Property_Photograph"><path codeLine="105" d="M488.63,704.12 C523.56,739.39 569.62,785.9 602.6,819.19 " fill="none" id="Property-to-Photograph" style="stroke:#181818;stroke-width:1.0;stroke-dasharray:7.0,7.0;"/><polygon fill="#181818" points="606.15,822.78,602.6702,813.5664,602.636,819.2231,596.9792,819.1888,606.15,822.78" style="stroke:#181818;stroke-width:1.0;"/><text fill="#000000" font-family="sans-serif" font-size="13" lengthAdjust="spacing" textLength="21" x="535.5" y="750.7686">has</text><text fill="#000000" font-family="sans-serif" font-size="13" lengthAdjust="spacing" textLength="20" x="577.5377" y="812.2481">1..*</text></g><!--link Property to Dwelling--><g id="link_Property_Dwelling"><path codeLine="106" d="M388.37,693.68 C378.17,701.85 370.5,708 370.5,708 C370.5,708 186.5,784 186.5,784 C186.5,784 170.88,796.48 152.18,811.42 " fill="none" id="Property-to-Dwelling" style="stroke:#181818;stroke-width:1.0;stroke-dasharray:7.0,7.0;"/><polygon fill="#181818" points="147.88,814.85,157.4133,812.3767,151.7927,811.737,152.4324,806.1164,147.88,814.85" style="stroke:#181818;stroke-width:1.0;"/><text fill="#000000" font-family="sans-serif" font-size="13" lengthAdjust="spacing" textLength="39" x="296.5" y="750.7686">can be</text><text fill="#000000" font-family="sans-serif" font-size="13" lengthAdjust="spacing" textLength="7" x="149.2835" y="804.2963">1</text></g><!--link Property to Equipment--><g id="link_Property_Equipment"><path codeLine="107" d="M488.57,674.18 C577.67,710.98 754.5,784 754.5,784 C754.5,784 777.47,801.45 801.6,819.79 " fill="none" id="Property-to-Equipment" style="stroke:#181818;stroke-width:1.0;stroke-dasharray:7.0,7.0;"/><polygon fill="#181818" points="805.8,822.98,801.0541,814.35,801.8189,819.9549,796.214,820.7198,805.8,822.98" style="stroke:#181818;stroke-width:1.0;"/><text fill="#000000" font-family="sans-serif" font-size="13" lengthAdjust="spacing" textLength="51" x="678.5" y="750.7686">can have</text><text fill="#000000" font-family="sans-serif" font-size="13" lengthAdjust="spacing" textLength="5" x="790.9912" y="812.1938">*</text></g><!--link Dwelling to House--><g id="link_Dwelling_House"><path codeLine="108" d="M89.5,910.14 C89.5,940.47 89.5,980.07 89.5,1011.43 " fill="none" id="Dwelling-to-House" style="stroke:#181818;stroke-width:1.0;stroke-dasharray:7.0,7.0;"/><polygon fill="#181818" points="89.5,1016.79,93.5,1007.79,89.5,1011.79,85.5,1007.79,89.5,1016.79" style="stroke:#181818;stroke-width:1.0;"/><text fill="#000000" font-family="sans-serif" font-size="13" lengthAdjust="spacing" textLength="39" x="90.5" y="983.7686">can be</text><text fill="#000000" font-family="sans-serif" font-size="13" lengthAdjust="spacing" textLength="7" x="81.9641" y="1006.2271">1</text></g><!--SRC=[VLHDJzmm4BtxLrXSMCgoQgzLjH9Ta8g416BRddhn9hE9XUC9zgHqGVtl7ITsOdQtv9IyUUzvlfnJ_wXjgvngP8CMYzfX0v9S1sAAjAfuL1MiQMT0EYX8sSha15-h4f-rhUHM6Pz7ZBP0knPaYsONFiJfaI0wGf6f2gEyloHoUjCHt1Her_e5v4TnQc1Bab0wNTKaInsoqMX5__GoUQizFS1J1vv-tBmAyVT8O8MM71e3JhuAoKyMyxEp7bhLY1xkBF2t23Q3omgRHdlFXmxAYmsY0MLbgEHkEuM7Q8dTXhjMZF1FPRYvOrBnqEYrvfAvYwKYw87p69uHbcftnV1PbifQ6RYq5ZjRG0DspqHbaQ0K1uVw1sZHQqAtYzBGXYynkkHH3pIHIUyTjk281HVQabGErF1MQDgj-2XmmtVhT07YFF534qUJgsSmFFmgcjYk-GgbGspy12YgtoBtol62L6lUHl2JrpViFB1H6iD6-Rxa2T6sLXjDYkTmYriQ37rdh_zmzPthXx5NtNUUvMkgOuAcKo_Bqe7taLDosxZSP4sXssDJ4kW08k55jnS5bjoTQ3DB1lDUE_zbWt0-QEQ9VfPDeKR2ogcsvWpYlDiHyzpsyMEMuPd3zLEdss5fKeD7Y7lUBy9Wl9HP81YykM1oiJn-iSJnwxPW_ic7axI2ydDwUu__wUJ8oaxI31H7U8T75horn4lqVeff6LYGNfDzIYkZEDY2y_nlskSSNDEGGFXVTCu6kZY8H-7qAs55hRnK_wKUpKECQCeaN-_Hyu0Lbv891WlkKoaLxRCMYz2WSRC6iqEhTD5ZoHlOex39k5oHKwlV84PTCkfl-UGoFFy0]--></g></svg>