<?xml version="1.0" encoding="us-ascii" standalone="no"?><svg xmlns="http://www.w3.org/2000/svg" xmlns:xlink="http://www.w3.org/1999/xlink" contentStyleType="text/css" height="1300px" preserveAspectRatio="none" style="width:1158px;height:1300px;background:#FFFFFF;" version="1.1" viewBox="0 0 1158 1300" width="1158px" zoomAndPan="magnify"><defs/><g><!--class Company--><g id="elem_Company"><rect codeLine="16" fill="#F1F1F1" height="37.0679" id="Company" rx="2.5" ry="2.5" style="stroke:#181818;stroke-width:0.5;" width="69" x="677.0839" y="7"/><text fill="#000000" font-family="sans-serif" font-size="14" lengthAdjust="spacing" textLength="63" x="680.0839" y="26.9659">Company</text><line style="stroke:#181818;stroke-width:0.5;" x1="678.0839" x2="745.0839" y1="36.0679" y2="36.0679"/></g><!--class Store--><g id="elem_Store"><rect codeLine="18" fill="#F1F1F1" height="94.2717" id="Store" rx="2.5" ry="2.5" style="stroke:#181818;stroke-width:0.5;" width="111" x="367.0839" y="978.5"/><text fill="#000000" font-family="sans-serif" font-size="14" lengthAdjust="spacing" textLength="35" x="405.0839" y="998.4659">Store</text><line style="stroke:#181818;stroke-width:0.5;" x1="368.0839" x2="477.0839" y1="1007.5679" y2="1007.5679"/><text fill="#000000" font-family="sans-serif" font-size="14" lengthAdjust="spacing" textLength="80" x="373.0839" y="1026.5339">designation</text><text fill="#000000" font-family="sans-serif" font-size="14" lengthAdjust="spacing" textLength="92" x="373.0839" y="1045.6018">emailAddress</text><text fill="#000000" font-family="sans-serif" font-size="14" lengthAdjust="spacing" textLength="99" x="373.0839" y="1064.6697">phoneNumber</text></g><!--class Administrator--><g id="elem_Administrator"><rect codeLine="24" fill="#F1F1F1" height="37.0679" id="Administrator" rx="2.5" ry="2.5" style="stroke:#181818;stroke-width:0.5;" width="99" x="68.0839" y="805.5"/><text fill="#000000" font-family="sans-serif" font-size="14" lengthAdjust="spacing" textLength="93" x="71.0839" y="825.4659">Administrator</text><line style="stroke:#181818;stroke-width:0.5;" x1="69.0839" x2="166.0839" y1="834.5679" y2="834.5679"/></g><!--class Agent--><g id="elem_Agent"><rect codeLine="26" fill="#F1F1F1" height="37.0679" id="Agent" rx="2.5" ry="2.5" style="stroke:#181818;stroke-width:0.5;" width="46" x="344.5839" y="258"/><text fill="#000000" font-family="sans-serif" font-size="14" lengthAdjust="spacing" textLength="40" x="347.5839" y="277.9659">Agent</text><line style="stroke:#181818;stroke-width:0.5;" x1="345.5839" x2="389.5839" y1="287.0679" y2="287.0679"/></g><!--class StoreManager--><g id="elem_StoreManager"><rect codeLine="28" fill="#F1F1F1" height="37.0679" id="StoreManager" rx="2.5" ry="2.5" style="stroke:#181818;stroke-width:0.5;" width="102" x="560.5839" y="1208.5"/><text fill="#000000" font-family="sans-serif" font-size="14" lengthAdjust="spacing" textLength="96" x="563.5839" y="1228.4659">StoreManager</text><line style="stroke:#181818;stroke-width:0.5;" x1="561.5839" x2="661.5839" y1="1237.5679" y2="1237.5679"/></g><!--class StoreNetworkManager--><g id="elem_StoreNetworkManager"><rect codeLine="30" fill="#F1F1F1" height="37.0679" id="StoreNetworkManager" rx="2.5" ry="2.5" style="stroke:#181818;stroke-width:0.5;" width="158" x="483.5839" y="258"/><text fill="#000000" font-family="sans-serif" font-size="14" lengthAdjust="spacing" textLength="152" x="486.5839" y="277.9659">StoreNetworkManager</text><line style="stroke:#181818;stroke-width:0.5;" x1="484.5839" x2="640.5839" y1="287.0679" y2="287.0679"/></g><!--class Client--><g id="elem_Client"><rect codeLine="32" fill="#F1F1F1" height="37.0679" id="Client" rx="2.5" ry="2.5" style="stroke:#181818;stroke-width:0.5;" width="45" x="322.0839" y="402.5"/><text fill="#000000" font-family="sans-serif" font-size="14" lengthAdjust="spacing" textLength="39" x="325.0839" y="422.4659">Client</text><line style="stroke:#181818;stroke-width:0.5;" x1="323.0839" x2="366.0839" y1="431.5679" y2="431.5679"/></g><!--class Owner--><g id="elem_Owner"><rect codeLine="34" fill="#F1F1F1" height="113.3396" id="Owner" rx="2.5" ry="2.5" style="stroke:#181818;stroke-width:0.5;" width="111" x="513.0839" y="969"/><text fill="#000000" font-family="sans-serif" font-size="14" lengthAdjust="spacing" textLength="45" x="546.0839" y="988.9659">Owner</text><line style="stroke:#181818;stroke-width:0.5;" x1="514.0839" x2="623.0839" y1="998.0679" y2="998.0679"/><text fill="#000000" font-family="sans-serif" font-size="14" lengthAdjust="spacing" textLength="86" x="519.0839" y="1017.0339">cardNumber</text><text fill="#000000" font-family="sans-serif" font-size="14" lengthAdjust="spacing" textLength="76" x="519.0839" y="1036.1018">taxNumber</text><text fill="#000000" font-family="sans-serif" font-size="14" lengthAdjust="spacing" textLength="92" x="519.0839" y="1055.1697">emailAddress</text><text fill="#000000" font-family="sans-serif" font-size="14" lengthAdjust="spacing" textLength="99" x="519.0839" y="1074.2376">phoneNumber</text></g><!--class House--><g id="elem_House"><rect codeLine="41" fill="#F1F1F1" height="94.2717" id="House" rx="2.5" ry="2.5" style="stroke:#181818;stroke-width:0.5;" width="117" x="1034.0839" y="777"/><text fill="#000000" font-family="sans-serif" font-size="14" lengthAdjust="spacing" textLength="42" x="1071.5839" y="796.9659">House</text><line style="stroke:#181818;stroke-width:0.5;" x1="1035.0839" x2="1150.0839" y1="806.0679" y2="806.0679"/><text fill="#000000" font-family="sans-serif" font-size="14" lengthAdjust="spacing" textLength="67" x="1040.0839" y="825.0339">basement</text><text fill="#000000" font-family="sans-serif" font-size="14" lengthAdjust="spacing" textLength="105" x="1040.0839" y="844.1018">inhabitable_loft</text><text fill="#000000" font-family="sans-serif" font-size="14" lengthAdjust="spacing" textLength="93" x="1040.0839" y="863.1697">sun_exposure</text></g><!--class Apartment--><g id="elem_Apartment"><rect codeLine="47" fill="#F1F1F1" height="37.0679" id="Apartment" rx="2.5" ry="2.5" style="stroke:#181818;stroke-width:0.5;" width="78" x="805.5839" y="805.5"/><text fill="#000000" font-family="sans-serif" font-size="14" lengthAdjust="spacing" textLength="72" x="808.5839" y="825.4659">Apartment</text><line style="stroke:#181818;stroke-width:0.5;" x1="806.5839" x2="882.5839" y1="834.5679" y2="834.5679"/></g><!--class Apartment_House--><g id="elem_Apartment_House"><rect codeLine="49" fill="#F1F1F1" height="132.4075" id="Apartment_House" rx="2.5" ry="2.5" style="stroke:#181818;stroke-width:0.5;" width="153" x="879.0839" y="547"/><text fill="#000000" font-family="sans-serif" font-size="14" lengthAdjust="spacing" textLength="120" x="895.5839" y="566.9659">Apartment_House</text><line style="stroke:#181818;stroke-width:0.5;" x1="880.0839" x2="1031.0839" y1="576.0679" y2="576.0679"/><text fill="#000000" font-family="sans-serif" font-size="14" lengthAdjust="spacing" textLength="105" x="885.0839" y="595.0339">num_bedrooms</text><text fill="#000000" font-family="sans-serif" font-size="14" lengthAdjust="spacing" textLength="110" x="885.0839" y="614.1018">num_bathrooms</text><text fill="#000000" font-family="sans-serif" font-size="14" lengthAdjust="spacing" textLength="141" x="885.0839" y="633.1697">num_parking_spaces</text><text fill="#000000" font-family="sans-serif" font-size="14" lengthAdjust="spacing" textLength="105" x="885.0839" y="652.2376">central_heating</text><text fill="#000000" font-family="sans-serif" font-size="14" lengthAdjust="spacing" textLength="109" x="885.0839" y="671.3055">air_conditioning</text></g><!--class Land--><g id="elem_Land"><rect codeLine="57" fill="#F1F1F1" height="37.0679" id="Land" rx="2.5" ry="2.5" style="stroke:#181818;stroke-width:0.5;" width="39" x="1067.0839" y="594.5"/><text fill="#000000" font-family="sans-serif" font-size="14" lengthAdjust="spacing" textLength="33" x="1070.0839" y="614.4659">Land</text><line style="stroke:#181818;stroke-width:0.5;" x1="1068.0839" x2="1105.0839" y1="623.5679" y2="623.5679"/></g><!--class Network--><g id="elem_Network"><rect codeLine="59" fill="#F1F1F1" height="37.0679" id="Network" rx="2.5" ry="2.5" style="stroke:#181818;stroke-width:0.5;" width="62" x="680.5839" y="132.5"/><text fill="#000000" font-family="sans-serif" font-size="14" lengthAdjust="spacing" textLength="56" x="683.5839" y="152.4659">Network</text><line style="stroke:#181818;stroke-width:0.5;" x1="681.5839" x2="741.5839" y1="161.5679" y2="161.5679"/></g><!--class Equipment--><g id="elem_Equipment"><rect codeLine="61" fill="#F1F1F1" height="37.0679" id="Equipment" rx="2.5" ry="2.5" style="stroke:#181818;stroke-width:0.5;" width="80" x="918.5839" y="805.5"/><text fill="#000000" font-family="sans-serif" font-size="14" lengthAdjust="spacing" textLength="74" x="921.5839" y="825.4659">Equipment</text><line style="stroke:#181818;stroke-width:0.5;" x1="919.5839" x2="997.5839" y1="834.5679" y2="834.5679"/></g><!--class Property--><g id="elem_Property"><rect codeLine="63" fill="#F1F1F1" height="113.3396" id="Property" rx="2.5" ry="2.5" style="stroke:#181818;stroke-width:0.5;" width="147" x="368.0839" y="556.5"/><text fill="#000000" font-family="sans-serif" font-size="14" lengthAdjust="spacing" textLength="57" x="413.0839" y="576.4659">Property</text><line style="stroke:#181818;stroke-width:0.5;" x1="369.0839" x2="514.0839" y1="585.5679" y2="585.5679"/><text fill="#000000" font-family="sans-serif" font-size="14" lengthAdjust="spacing" textLength="30" x="374.0839" y="604.5339">area</text><text fill="#000000" font-family="sans-serif" font-size="14" lengthAdjust="spacing" textLength="135" x="374.0839" y="623.6018">city_center_distance</text><text fill="#000000" font-family="sans-serif" font-size="14" lengthAdjust="spacing" textLength="34" x="374.0839" y="642.6697">price</text><text fill="#000000" font-family="sans-serif" font-size="14" lengthAdjust="spacing" textLength="80" x="374.0839" y="661.7376">photograph</text></g><!--class Employee--><g id="elem_Employee"><rect codeLine="70" fill="#F1F1F1" height="132.4075" id="Employee" rx="2.5" ry="2.5" style="stroke:#181818;stroke-width:0.5;" width="111" x="128.0839" y="1161"/><text fill="#000000" font-family="sans-serif" font-size="14" lengthAdjust="spacing" textLength="65" x="151.0839" y="1180.9659">Employee</text><line style="stroke:#181818;stroke-width:0.5;" x1="129.0839" x2="238.0839" y1="1190.0679" y2="1190.0679"/><text fill="#000000" font-family="sans-serif" font-size="14" lengthAdjust="spacing" textLength="38" x="134.0839" y="1209.0339">name</text><text fill="#000000" font-family="sans-serif" font-size="14" lengthAdjust="spacing" textLength="86" x="134.0839" y="1228.1018">cardNumber</text><text fill="#000000" font-family="sans-serif" font-size="14" lengthAdjust="spacing" textLength="76" x="134.0839" y="1247.1697">taxNumber</text><text fill="#000000" font-family="sans-serif" font-size="14" lengthAdjust="spacing" textLength="92" x="134.0839" y="1266.2376">emailAddress</text><text fill="#000000" font-family="sans-serif" font-size="14" lengthAdjust="spacing" textLength="99" x="134.0839" y="1285.3055">phoneNumber</text></g><!--class OrganizationRole--><g id="elem_OrganizationRole"><rect codeLine="78" fill="#F1F1F1" height="56.1358" id="OrganizationRole" rx="2.5" ry="2.5" style="stroke:#181818;stroke-width:0.5;" width="123" x="306.0839" y="123"/><text fill="#000000" font-family="sans-serif" font-size="14" lengthAdjust="spacing" textLength="117" x="309.0839" y="142.9659">OrganizationRole</text><line style="stroke:#181818;stroke-width:0.5;" x1="307.0839" x2="428.0839" y1="152.0679" y2="152.0679"/><text fill="#000000" font-family="sans-serif" font-size="14" lengthAdjust="spacing" textLength="103" x="312.0839" y="171.0339">nameEmployee</text></g><!--class Offer--><g id="elem_Offer"><rect codeLine="82" fill="#F1F1F1" height="94.2717" id="Offer" rx="2.5" ry="2.5" style="stroke:#181818;stroke-width:0.5;" width="147" x="406.0839" y="374"/><text fill="#000000" font-family="sans-serif" font-size="14" lengthAdjust="spacing" textLength="35" x="462.0839" y="393.9659">Offer</text><line style="stroke:#181818;stroke-width:0.5;" x1="407.0839" x2="552.0839" y1="403.0679" y2="403.0679"/><text fill="#000000" font-family="sans-serif" font-size="14" lengthAdjust="spacing" textLength="107" x="412.0839" y="422.0339">publicationDate</text><text fill="#000000" font-family="sans-serif" font-size="14" lengthAdjust="spacing" textLength="34" x="412.0839" y="441.1018">price</text><text fill="#000000" font-family="sans-serif" font-size="14" lengthAdjust="spacing" textLength="135" x="412.0839" y="460.1697">propertyDescription</text></g><!--class UnregisteredUser--><g id="elem_UnregisteredUser"><rect codeLine="88" fill="#F1F1F1" height="37.0679" id="UnregisteredUser" rx="2.5" ry="2.5" style="stroke:#181818;stroke-width:0.5;" width="126" x="389.5839" y="805.5"/><text fill="#000000" font-family="sans-serif" font-size="14" lengthAdjust="spacing" textLength="120" x="392.5839" y="825.4659">UnregisteredUser</text><line style="stroke:#181818;stroke-width:0.5;" x1="390.5839" x2="514.5839" y1="834.5679" y2="834.5679"/></g><!--class Visit--><g id="elem_Visit"><rect codeLine="90" fill="#F1F1F1" height="56.1358" id="Visit" rx="2.5" ry="2.5" style="stroke:#181818;stroke-width:0.5;" width="70" x="189.5839" y="585"/><text fill="#000000" font-family="sans-serif" font-size="14" lengthAdjust="spacing" textLength="28" x="210.5839" y="604.9659">Visit</text><line style="stroke:#181818;stroke-width:0.5;" x1="190.5839" x2="258.5839" y1="614.0679" y2="614.0679"/><text fill="#000000" font-family="sans-serif" font-size="14" lengthAdjust="spacing" textLength="58" x="195.5839" y="633.0339">visitDate</text></g><!--class Address--><g id="elem_Address"><rect codeLine="94" fill="#F1F1F1" height="132.4075" id="Address" rx="2.5" ry="2.5" style="stroke:#181818;stroke-width:0.5;" width="104" x="250.5839" y="758"/><text fill="#000000" font-family="sans-serif" font-size="14" lengthAdjust="spacing" textLength="55" x="275.0839" y="777.9659">Address</text><line style="stroke:#181818;stroke-width:0.5;" x1="251.5839" x2="353.5839" y1="787.0679" y2="787.0679"/><text fill="#000000" font-family="sans-serif" font-size="14" lengthAdjust="spacing" textLength="39" x="256.5839" y="806.0339">street</text><text fill="#000000" font-family="sans-serif" font-size="14" lengthAdjust="spacing" textLength="63" x="256.5839" y="825.1018">cityName</text><text fill="#000000" font-family="sans-serif" font-size="14" lengthAdjust="spacing" textLength="87" x="256.5839" y="844.1697">districtName</text><text fill="#000000" font-family="sans-serif" font-size="14" lengthAdjust="spacing" textLength="92" x="256.5839" y="863.2376">stateAcronym</text><text fill="#000000" font-family="sans-serif" font-size="14" lengthAdjust="spacing" textLength="54" x="256.5839" y="882.3055">zipCode</text></g><!--class PropertyType--><g id="elem_PropertyType"><rect codeLine="102" fill="#F1F1F1" height="37.0679" id="PropertyType" rx="2.5" ry="2.5" style="stroke:#181818;stroke-width:0.5;" width="95" x="908.0839" y="402.5"/><text fill="#000000" font-family="sans-serif" font-size="14" lengthAdjust="spacing" textLength="89" x="911.0839" y="422.4659">PropertyType</text><line style="stroke:#181818;stroke-width:0.5;" x1="909.0839" x2="1002.0839" y1="431.5679" y2="431.5679"/></g><!--link Address to Employee--><g id="link_Address_Employee"><path codeLine="104" d="M283.2039,890.32 C261.0739,964.89 225.0839,1086.15 202.9639,1160.71 " fill="none" id="Address-Employee" style="stroke:#181818;stroke-width:1.0;"/><polygon fill="#000000" points="266.0064,1021.0596,260.6156,1028.8948,266.2506,1030.567,266.0064,1021.0596" style="stroke:#000000;stroke-width:1.0;"/><text fill="#000000" font-family="sans-serif" font-size="13" lengthAdjust="spacing" textLength="59" x="273.5839" y="1030.897">located at</text><text fill="#000000" font-family="sans-serif" font-size="13" lengthAdjust="spacing" textLength="7" x="273.7014" y="912.4168">1</text><text fill="#000000" font-family="sans-serif" font-size="13" lengthAdjust="spacing" textLength="7" x="197.8" y="1148.9767">1</text></g><!--link Address to Owner--><g id="link_Address_Owner"><path codeLine="105" d="M355.0339,876.63 C360.4839,881.32 366.0539,885.85 371.5839,890 C392.6239,905.78 400.3239,906 422.5839,920 C455.6639,940.8 463.7939,946.28 495.5839,969 C501.1539,972.98 506.9139,977.19 512.6339,981.44 " fill="none" id="Address-Owner" style="stroke:#181818;stroke-width:1.0;"/><polygon fill="#000000" points="453.4205,927.0842,459.3247,934.5402,462.5796,929.6458,453.4205,927.0842" style="stroke:#000000;stroke-width:1.0;"/><text fill="#000000" font-family="sans-serif" font-size="13" lengthAdjust="spacing" textLength="59" x="466.5839" y="934.897">located at</text><text fill="#000000" font-family="sans-serif" font-size="13" lengthAdjust="spacing" textLength="7" x="362.5522" y="879.477">1</text><text fill="#000000" font-family="sans-serif" font-size="13" lengthAdjust="spacing" textLength="7" x="498.0169" y="971.6262">1</text></g><!--link Address to Store--><g id="link_Address_Store"><path codeLine="106" d="M321.7439,890.33 C327.8739,906.8 335.4939,924.04 344.5839,939 C352.9339,952.73 363.6839,966.23 374.5139,978.31 " fill="none" id="Address-Store" style="stroke:#181818;stroke-width:1.0;"/><polygon fill="#000000" points="347.0121,925.5652,349.1442,934.8336,354.1849,931.8103,347.0121,925.5652" style="stroke:#000000;stroke-width:1.0;"/><text fill="#000000" font-family="sans-serif" font-size="13" lengthAdjust="spacing" textLength="59" x="358.5839" y="934.897">located at</text><text fill="#000000" font-family="sans-serif" font-size="13" lengthAdjust="spacing" textLength="7" x="316.4567" y="912.4279">1</text><text fill="#000000" font-family="sans-serif" font-size="13" lengthAdjust="spacing" textLength="7" x="359.6172" y="966.7127">1</text></g><!--link Company to Network--><g id="link_Company_Network"><path codeLine="108" d="M711.5839,44.46 C711.5839,67.87 711.5839,108.59 711.5839,132.02 " fill="none" id="Company-Network" style="stroke:#181818;stroke-width:1.0;"/><polygon fill="#000000" points="716.5839,88.853,719.5228,79.8079,713.645,79.8079,716.5839,88.853" style="stroke:#000000;stroke-width:1.0;"/><text fill="#000000" font-family="sans-serif" font-size="13" lengthAdjust="spacing" textLength="32" x="725.5839" y="88.897">owns</text><text fill="#000000" font-family="sans-serif" font-size="13" lengthAdjust="spacing" textLength="7" x="703.6433" y="65.8226">1</text><text fill="#000000" font-family="sans-serif" font-size="13" lengthAdjust="spacing" textLength="7" x="703.512" y="120.599">1</text></g><!--link Network to Store--><g id="link_Network_Store"><path codeLine="110" d="M743.0839,169.06 C776.2039,189.56 823.5839,227.31 823.5839,275.5 C823.5839,275.5 823.5839,275.5 823.5839,508.5 C823.5839,738.95 692.5039,771.17 534.5839,939 C533.9139,939.71 506.1339,960.92 478.4039,982.04 " fill="none" id="Network-Store" style="stroke:#181818;stroke-width:1.0;"/><polygon fill="#000000" points="827.036,512.6074,832.6307,504.9165,827.0416,503.0968,827.036,512.6074" style="stroke:#000000;stroke-width:1.0;"/><text fill="#000000" font-family="sans-serif" font-size="13" lengthAdjust="spacing" textLength="51" x="837.5839" y="512.897">contains</text><text fill="#000000" font-family="sans-serif" font-size="13" lengthAdjust="spacing" textLength="7" x="745.0089" y="191.5247">1</text><text fill="#000000" font-family="sans-serif" font-size="13" lengthAdjust="spacing" textLength="20" x="484.9938" y="972.142">1..*</text></g><!--link Network to StoreNetworkManager--><g id="link_Network_StoreNetworkManager"><path codeLine="111" d="M689.9139,169.96 C661.6639,193.37 612.5339,234.09 584.2739,257.52 " fill="none" id="Network-StoreNetworkManager" style="stroke:#181818;stroke-width:1.0;"/><polygon fill="#000000" points="649.4335,215.6623,640.5941,219.1716,644.345,223.6971,649.4335,215.6623" style="stroke:#000000;stroke-width:1.0;"/><text fill="#000000" font-family="sans-serif" font-size="13" lengthAdjust="spacing" textLength="55" x="654.5839" y="223.897">manages</text><text fill="#000000" font-family="sans-serif" font-size="13" lengthAdjust="spacing" textLength="7" x="676.1495" y="191.3226">1</text><text fill="#000000" font-family="sans-serif" font-size="13" lengthAdjust="spacing" textLength="7" x="582.8446" y="246.099">1</text></g><!--link Store to StoreManager--><g id="link_Store_StoreManager"><path codeLine="113" d="M466.4239,1072.77 C507.4239,1116.05 566.4939,1178.4 594.9739,1208.47 " fill="none" id="Store-StoreManager" style="stroke:#181818;stroke-width:1.0;"/><polygon fill="#000000" points="518.1453,1118.2231,522.2322,1126.8108,526.4994,1122.7685,518.1453,1118.2231" style="stroke:#000000;stroke-width:1.0;"/><text fill="#000000" font-family="sans-serif" font-size="13" lengthAdjust="spacing" textLength="55" x="530.5839" y="1126.897">manages</text><text fill="#000000" font-family="sans-serif" font-size="13" lengthAdjust="spacing" textLength="7" x="465.0967" y="1094.5402">1</text><text fill="#000000" font-family="sans-serif" font-size="13" lengthAdjust="spacing" textLength="7" x="581.5638" y="1196.8529">1</text></g><!--link Store to Employee--><g id="link_Store_Employee"><path codeLine="114" d="M367.1539,1072.77 C328.8139,1104.77 277.9939,1147.19 239.5439,1179.29 " fill="none" id="Store-Employee" style="stroke:#181818;stroke-width:1.0;"/><polygon fill="#000000" points="318.7454,1125.0571,327.5726,1121.517,323.806,1117.0047,318.7454,1125.0571" style="stroke:#000000;stroke-width:1.0;"/><text fill="#000000" font-family="sans-serif" font-size="13" lengthAdjust="spacing" textLength="32" x="331.5839" y="1126.897">owns</text><text fill="#000000" font-family="sans-serif" font-size="13" lengthAdjust="spacing" textLength="7" x="352.2352" y="1074.9059">1</text><text fill="#000000" font-family="sans-serif" font-size="13" lengthAdjust="spacing" textLength="20" x="247.1705" y="1169.705">1..*</text></g><!--reverse link OrganizationRole to Administrator--><g id="link_OrganizationRole_Administrator"><path codeLine="116" d="M284.6139,158.35 C210.5039,169.09 113.5839,197.96 113.5839,275.5 C113.5839,275.5 113.5839,275.5 113.5839,614 C113.5839,684.77 115.9039,768.99 117.0139,805.11 " fill="none" id="OrganizationRole-backto-Administrator" style="stroke:#181818;stroke-width:1.0;"/><polygon fill="none" points="283.5539,151.43,304.2739,155.86,285.3139,165.32,283.5539,151.43" style="stroke:#181818;stroke-width:1.0;"/></g><!--reverse link OrganizationRole to Agent--><g id="link_OrganizationRole_Agent"><path codeLine="117" d="M367.5839,200.77 C367.5839,220.83 367.5839,242.81 367.5839,257.71 " fill="none" id="OrganizationRole-backto-Agent" style="stroke:#181818;stroke-width:1.0;"/><polygon fill="none" points="360.5839,200.92,367.5839,180.92,374.5839,200.92,360.5839,200.92" style="stroke:#181818;stroke-width:1.0;"/></g><!--reverse link OrganizationRole to StoreManager--><g id="link_OrganizationRole_StoreManager"><path codeLine="118" d="M450.6539,156.9 C540.6539,163.68 676.9839,178.69 718.5839,209 C745.4139,228.55 752.5839,242.31 752.5839,275.5 C752.5839,275.5 752.5839,275.5 752.5839,1026.5 C752.5839,1106.24 676.5439,1176.45 636.1439,1208.13 " fill="none" id="OrganizationRole-backto-StoreManager" style="stroke:#181818;stroke-width:1.0;"/><polygon fill="none" points="450.3739,163.9,430.9239,155.5,451.3739,149.94,450.3739,163.9" style="stroke:#181818;stroke-width:1.0;"/></g><!--reverse link OrganizationRole to StoreNetworkManager--><g id="link_OrganizationRole_StoreNetworkManager"><path codeLine="119" d="M429.0039,190.9 C464.2239,213.2 506.7339,240.13 534.2039,257.52 " fill="none" id="OrganizationRole-backto-StoreNetworkManager" style="stroke:#181818;stroke-width:1.0;"/><polygon fill="none" points="425.2939,196.83,412.1439,180.22,432.7839,185.01,425.2939,196.83" style="stroke:#181818;stroke-width:1.0;"/></g><!--link OrganizationRole to Employee--><g id="link_OrganizationRole_Employee"><path codeLine="121" d="M305.6939,160.66 C204.4539,176.57 14.5839,214.55 14.5839,275.5 C14.5839,275.5 14.5839,275.5 14.5839,1026.5 C14.5839,1097.99 78.5539,1157.03 127.7739,1191.88 " fill="none" id="OrganizationRole-Employee" style="stroke:#181818;stroke-width:1.0;"/><polygon fill="#000000" points="20.434,608.4258,16,616.8395,21.7923,617.8389,20.434,608.4258" style="stroke:#000000;stroke-width:1.0;"/><text fill="#000000" font-family="sans-serif" font-size="13" lengthAdjust="spacing" textLength="31" x="28.5839" y="618.397">plays</text><text fill="#000000" font-family="sans-serif" font-size="13" lengthAdjust="spacing" textLength="20" x="278.2802" y="157.706">1..*</text><text fill="#000000" font-family="sans-serif" font-size="13" lengthAdjust="spacing" textLength="7" x="113.1748" y="1183.2073">1</text></g><!--link Administrator to Employee--><g id="link_Administrator_Employee"><path codeLine="123" d="M118.8739,842.88 C122.0739,884.86 131.3239,992.96 147.5839,1082 C152.3239,1107.98 159.0439,1136.25 165.3939,1160.8 " fill="none" id="Administrator-Employee" style="stroke:#181818;stroke-width:1.0;"/><polygon fill="#000000" points="153.3078,1030.8003,154.9062,1021.425,149.0903,1022.2761,153.3078,1030.8003" style="stroke:#000000;stroke-width:1.0;"/><text fill="#000000" font-family="sans-serif" font-size="13" lengthAdjust="spacing" textLength="52" x="161.5839" y="1030.897">registers</text><text fill="#000000" font-family="sans-serif" font-size="13" lengthAdjust="spacing" textLength="7" x="111.2523" y="864.5674">1</text><text fill="#000000" font-family="sans-serif" font-size="13" lengthAdjust="spacing" textLength="20" x="142.1344" y="1149.0771">1..*</text></g><!--link Administrator to Store--><g id="link_Administrator_Store"><path codeLine="124" d="M136.0839,842.92 C162.0939,867.33 211.7539,911.18 260.5839,939 C293.2139,957.6 306.2039,951.78 339.5839,969 C348.6739,973.69 357.9839,979.16 366.9239,984.81 " fill="none" id="Administrator-Store" style="stroke:#181818;stroke-width:1.0;"/><polygon fill="#000000" points="269.8435,932.4713,263.6767,925.231,260.5988,930.2385,269.8435,932.4713" style="stroke:#000000;stroke-width:1.0;"/><text fill="#000000" font-family="sans-serif" font-size="13" lengthAdjust="spacing" textLength="52" x="274.5839" y="934.897">registers</text><text fill="#000000" font-family="sans-serif" font-size="13" lengthAdjust="spacing" textLength="7" x="133.3026" y="864.6186">1</text><text fill="#000000" font-family="sans-serif" font-size="13" lengthAdjust="spacing" textLength="20" x="338.9216" y="975.7385">1..*</text></g><!--link Client to Property--><g id="link_Client_Property"><path codeLine="126" d="M347.9339,439.83 C352.0439,459.44 360.0539,491.55 372.5839,517 C379.1539,530.35 387.5939,543.81 396.2939,556.24 " fill="none" id="Client-Property" style="stroke:#181818;stroke-width:1.0;"/><polygon fill="#000000" points="379.5021,512.4704,378.7461,502.99,373.318,505.2449,379.5021,512.4704" style="stroke:#000000;stroke-width:1.0;"/><text fill="#000000" font-family="sans-serif" font-size="13" lengthAdjust="spacing" textLength="65" x="386.5839" y="512.897">buys/rents</text><text fill="#000000" font-family="sans-serif" font-size="13" lengthAdjust="spacing" textLength="7" x="340.8917" y="461.5033">1</text><text fill="#000000" font-family="sans-serif" font-size="13" lengthAdjust="spacing" textLength="20" x="369.2099" y="544.7991">1..*</text></g><!--link Client to Visit--><g id="link_Client_Visit"><path codeLine="127" d="M331.2239,439.79 C319.9939,454.99 303.7139,477.58 290.5839,498 C271.9139,527.05 252.3039,561.49 239.3639,584.86 " fill="none" id="Client-Visit" style="stroke:#181818;stroke-width:1.0;"/><polygon fill="#000000" points="292.909,512.0773,300.2309,506.0077,295.2649,502.8632,292.909,512.0773" style="stroke:#000000;stroke-width:1.0;"/><text fill="#000000" font-family="sans-serif" font-size="13" lengthAdjust="spacing" textLength="52" x="304.5839" y="512.897">requests</text><text fill="#000000" font-family="sans-serif" font-size="13" lengthAdjust="spacing" textLength="7" x="319.482" y="461.4521">1</text><text fill="#000000" font-family="sans-serif" font-size="13" lengthAdjust="spacing" textLength="20" x="220.4693" y="573.3499">1..*</text></g><!--link Owner to Offer--><g id="link_Owner_Offer"><path codeLine="129" d="M575.9339,968.87 C586.6839,870.34 599.3839,660.25 538.5839,498 C534.7139,487.68 528.9239,477.62 522.4439,468.39 " fill="none" id="Owner-Offer" style="stroke:#181818;stroke-width:1.0;"/><polygon fill="#000000" points="586.0525,713.8813,584.0915,723.1875,589.9361,722.5629,586.0525,713.8813" style="stroke:#000000;stroke-width:1.0;"/><text fill="#000000" font-family="sans-serif" font-size="13" lengthAdjust="spacing" textLength="39" x="595.5839" y="723.897">makes</text><text fill="#000000" font-family="sans-serif" font-size="13" lengthAdjust="spacing" textLength="7" x="569.4512" y="957.0398">1</text><text fill="#000000" font-family="sans-serif" font-size="13" lengthAdjust="spacing" textLength="20" x="507.0648" y="490.1771">1..*</text></g><!--link Offer to Property--><g id="link_Offer_Property"><path codeLine="131" d="M470.2839,468.48 C464.9939,494.96 458.3239,528.31 452.7439,556.19 " fill="none" id="Offer-Property" style="stroke:#181818;stroke-width:1.0;"/><polygon fill="#000000" points="468.6034,512.7559,473.259,504.4628,467.4952,503.3102,468.6034,512.7559" style="stroke:#000000;stroke-width:1.0;"/><text fill="#000000" font-family="sans-serif" font-size="13" lengthAdjust="spacing" textLength="51" x="478.5839" y="512.897">contains</text><text fill="#000000" font-family="sans-serif" font-size="13" lengthAdjust="spacing" textLength="7" x="461.4839" y="490.2797">1</text><text fill="#000000" font-family="sans-serif" font-size="13" lengthAdjust="spacing" textLength="7" x="446.7253" y="544.7426">1</text></g><!--link Property to UnregisteredUser--><g id="link_Property_UnregisteredUser"><path codeLine="133" d="M444.5139,669.73 C446.8939,714.96 450.1039,775.89 451.6639,805.46 " fill="none" id="Property-UnregisteredUser" style="stroke:#181818;stroke-width:1.0;"/><polygon fill="#000000" points="452.3209,713.8599,449.8618,723.0471,455.7315,722.7379,452.3209,713.8599" style="stroke:#000000;stroke-width:1.0;"/><text fill="#000000" font-family="sans-serif" font-size="13" lengthAdjust="spacing" textLength="48" x="461.5839" y="723.897">displays</text><text fill="#000000" font-family="sans-serif" font-size="13" lengthAdjust="spacing" textLength="20" x="423.6522" y="691.5992">1..*</text><text fill="#000000" font-family="sans-serif" font-size="13" lengthAdjust="spacing" textLength="7" x="443.255" y="793.8397">1</text></g><!--link Property to Address--><g id="link_Property_Address"><path codeLine="134" d="M394.3439,669.83 C384.4339,682.41 374.3339,695.92 365.5839,709 C355.3339,724.32 345.2239,741.43 336.2039,757.65 " fill="none" id="Property-Address" style="stroke:#181818;stroke-width:1.0;"/><polygon fill="#000000" points="367.8238,723.0221,375.2674,717.1025,370.3663,713.8577,367.8238,723.0221" style="stroke:#000000;stroke-width:1.0;"/><text fill="#000000" font-family="sans-serif" font-size="13" lengthAdjust="spacing" textLength="59" x="379.5839" y="723.897">located at</text><text fill="#000000" font-family="sans-serif" font-size="13" lengthAdjust="spacing" textLength="7" x="381.16" y="691.7114">1</text><text fill="#000000" font-family="sans-serif" font-size="13" lengthAdjust="spacing" textLength="7" x="332.4983" y="746.3766">1</text></g><!--link Apartment_House to Equipment--><g id="link_Apartment_House_Equipment"><path codeLine="136" d="M956.5239,679.27 C957.1539,723.11 957.9339,777.72 958.3339,805.3 " fill="none" id="Apartment_House-Equipment" style="stroke:#181818;stroke-width:1.0;"/><polygon fill="#000000" points="961.6557,723.8525,964.4644,714.7661,958.5872,714.8505,961.6557,723.8525" style="stroke:#000000;stroke-width:1.0;"/><text fill="#000000" font-family="sans-serif" font-size="13" lengthAdjust="spacing" textLength="21" x="970.5839" y="723.897">has</text><text fill="#000000" font-family="sans-serif" font-size="13" lengthAdjust="spacing" textLength="7" x="949.2439" y="701.3613">1</text><text fill="#000000" font-family="sans-serif" font-size="13" lengthAdjust="spacing" textLength="20" x="935.0667" y="793.6287">1..*</text></g><!--reverse link Apartment_House to Apartment--><g id="link_Apartment_House_Apartment"><path codeLine="137" d="M910.9539,698.03 C889.8739,737.73 866.6039,781.54 853.9839,805.3 " fill="none" id="Apartment_House-backto-Apartment" style="stroke:#181818;stroke-width:1.0;"/><polygon fill="none" points="904.6439,694.99,920.2139,680.61,917.0139,701.55,904.6439,694.99" style="stroke:#181818;stroke-width:1.0;"/></g><!--reverse link Apartment_House to House--><g id="link_Apartment_House_House"><path codeLine="138" d="M1010.0939,697.16 C1027.8639,724.27 1046.9439,753.37 1062.2739,776.76 " fill="none" id="Apartment_House-backto-House" style="stroke:#181818;stroke-width:1.0;"/><polygon fill="none" points="1004.3039,701.1,999.1939,680.54,1016.0139,693.42,1004.3039,701.1" style="stroke:#181818;stroke-width:1.0;"/></g><!--link Agent to Offer--><g id="link_Agent_Offer"><path codeLine="140" d="M390.9939,288.05 C406.8039,296.2 427.1739,308.81 440.5839,325 C452.2939,339.14 460.9039,357.28 466.9939,373.92 " fill="none" id="Agent-Offer" style="stroke:#181818;stroke-width:1.0;"/><polygon fill="#000000" points="461.8977,338.5972,458.1037,329.8761,453.7022,333.7717,461.8977,338.5972" style="stroke:#000000;stroke-width:1.0;"/><text fill="#000000" font-family="sans-serif" font-size="13" lengthAdjust="spacing" textLength="45" x="467.5839" y="339.897">reviews</text><text fill="#000000" font-family="sans-serif" font-size="13" lengthAdjust="spacing" textLength="7" x="398.5623" y="285.8946">1</text><text fill="#000000" font-family="sans-serif" font-size="13" lengthAdjust="spacing" textLength="20" x="443.5348" y="362.3396">1..*</text></g><!--link Agent to Offer--><g id="link_Agent_Offer"><path codeLine="141" d="M360.3939,295.26 C355.9139,309.33 352.3839,329.03 360.5839,344 C370.8339,362.7 387.8539,377.47 405.8739,388.82 " fill="none" id="Agent-Offer-1" style="stroke:#181818;stroke-width:1.0;"/><polygon fill="#000000" points="367.7698,339.3499,366.4586,329.9301,361.1722,332.4998,367.7698,339.3499" style="stroke:#000000;stroke-width:1.0;"/><text fill="#000000" font-family="sans-serif" font-size="13" lengthAdjust="spacing" textLength="57" x="374.5839" y="339.897">publishes</text><text fill="#000000" font-family="sans-serif" font-size="13" lengthAdjust="spacing" textLength="7" x="350.3873" y="316.9136">1</text><text fill="#000000" font-family="sans-serif" font-size="13" lengthAdjust="spacing" textLength="20" x="378.1569" y="381.9868">1..*</text></g><!--link Agent to Visit--><g id="link_Agent_Visit"><path codeLine="142" d="M344.2539,286.09 C312.0239,299.36 255.0739,328.21 230.5839,374 C194.0339,442.34 207.8039,538.24 217.7939,584.68 " fill="none" id="Agent-Visit" style="stroke:#181818;stroke-width:1.0;"/><polygon fill="#000000" points="233.6339,425.9571,239.8676,418.7744,234.4552,416.4821,233.6339,425.9571" style="stroke:#000000;stroke-width:1.0;"/><text fill="#000000" font-family="sans-serif" font-size="13" lengthAdjust="spacing" textLength="59" x="244.5839" y="426.397">schedules</text><text fill="#000000" font-family="sans-serif" font-size="13" lengthAdjust="spacing" textLength="7" x="329.708" y="283.3833">1</text><text fill="#000000" font-family="sans-serif" font-size="13" lengthAdjust="spacing" textLength="20" x="193.9112" y="573.1283">1..*</text></g><!--link Visit to Address--><g id="link_Visit_Address"><path codeLine="144" d="M218.3539,641.18 C214.1839,664.87 211.1839,699.76 221.5839,728 C227.8039,744.88 238.5039,760.8 250.1239,774.61 " fill="none" id="Visit-Address" style="stroke:#181818;stroke-width:1.0;"/><polygon fill="#000000" points="227.742,723.717,228.5059,714.2372,222.7879,715.5987,227.742,723.717" style="stroke:#000000;stroke-width:1.0;"/><text fill="#000000" font-family="sans-serif" font-size="13" lengthAdjust="spacing" textLength="59" x="235.5839" y="723.897">located at</text><text fill="#000000" font-family="sans-serif" font-size="13" lengthAdjust="spacing" textLength="7" x="209.2255" y="663.1631">1</text><text fill="#000000" font-family="sans-serif" font-size="13" lengthAdjust="spacing" textLength="7" x="235.6043" y="763.7481">1</text></g><!--link PropertyType to Property--><g id="link_PropertyType_Property"><path codeLine="146" d="M908.0239,432.2 C851.9939,444.86 756.5339,468.42 677.5839,498 C621.7639,518.91 561.2739,548.27 515.5139,571.96 " fill="none" id="PropertyType-Property" style="stroke:#181818;stroke-width:1.0;"/><polygon fill="#000000" points="687.2942,506.1758,677.7873,506.4412,679.759,511.9785,687.2942,506.1758" style="stroke:#000000;stroke-width:1.0;"/><text fill="#000000" font-family="sans-serif" font-size="13" lengthAdjust="spacing" textLength="88" x="691.5839" y="512.897">categorized by</text><text fill="#000000" font-family="sans-serif" font-size="13" lengthAdjust="spacing" textLength="7" x="893.2053" y="429.5593">1</text><text fill="#000000" font-family="sans-serif" font-size="13" lengthAdjust="spacing" textLength="7" x="523.1359" y="563.9985">1</text></g><!--reverse link PropertyType to Apartment_House--><g id="link_PropertyType_Apartment_House"><path codeLine="147" d="M955.5839,461.12 C955.5839,485.77 955.5839,518.22 955.5839,546.71 " fill="none" id="PropertyType-backto-Apartment_House" style="stroke:#181818;stroke-width:1.0;"/><polygon fill="none" points="948.5839,461.39,955.5839,441.39,962.5839,461.39,948.5839,461.39" style="stroke:#181818;stroke-width:1.0;"/></g><!--reverse link PropertyType to Land--><g id="link_PropertyType_Land"><path codeLine="148" d="M983.3639,456.45 C1002.7639,481.09 1028.7939,515.35 1049.5839,547 C1059.7739,562.52 1070.1239,580.98 1077.2839,594.26 " fill="none" id="PropertyType-backto-Land" style="stroke:#181818;stroke-width:1.0;"/><polygon fill="none" points="977.9439,460.89,970.9639,440.88,988.9039,452.17,977.9439,460.89" style="stroke:#181818;stroke-width:1.0;"/></g><!--SRC=[hLPBRzGm4BxxLrYzh8HK7bU4aAgs4aXG40MkaHFF9bRz26E79GN-EnDxdNMoswe7zhBs-9lNDuzTVwTiBr0ORfnrJOVE00yu0FFpIo-QEz72RHWrS8Gc2Dlg4k0x8TrEsPPlXVR0DeSdhIo4iGVkC7IERJHi0m-EesgxmAMQp2bd2sED5jvVX82g7WAyRvozLVV0Nx9EIU2DmePynxC1CYazOvkW0eLsvOnGbdzq4ZG9eo7-MOkmTMZuRxRX_5o2Rr3rqUVcBsC9TEbCB-oOhxV18Vncd3w4LwqL4J_TWLpe2oaHl8-2ldCMRWPJ0xBPteKqoYeVK92bMTY23GiN7uKbNd4Xku6mStYtUhhKgb3-jBE0ARv6eDnxdwv1_2fkJmlsdHlyFjjQU32Je-cYR2Tg5KIjeT9kcuH-i1NywfqV48fygNJ1517EWggmRWTJrI3HEUCF0X6wfOHKgHdQobFVGH8tP0c5hZgWIjWsoeJ2Yff3ggasat2EveEmCf_tTERhzOz1zMMWdz7rW65C4Ge4aHogC5QJLy1AKY65RI0nY2gVEXTSYwBl3fwlJQ_T23bVOU1_5UaJjiAg-zY8NvmkF6IV1NQxpUtH3xLMJTIw4k4eXNtoLyLGp5Q-MOIMKWS4-SqVMl6xyYeawp-dOxHRT7vC9BtJ0024cT2RpCV4A0KHPW4H7E2YGMT74mNtgh-aCJxOpNNwIhk4iRqNVlRgZ9-VnwzC0t_DjQECGN8H-9jJq3W-Jy35ULpZs7vNbC1zan7KxQpdRndBaXdq_FcpWq5gsq2RQa8U0SzEhG7ICV7afmYIcRN6AUWA6OCeYChHhfkBl_b3-EKIUm0JTzhfjyMAUmIotdX7q7tWnuNkjHWZ8ujG7yutD_IKz6CgkKubdgKLl4BcjYHmFOp-1H9aGfy4nyc9PdyCu4EYFlRY4XVdDzRn3X8e2eg25swBNcApUCdOUf99YoOmarSepHfv61QzJmvMQttDT5wkfDU9IF8Adtfc_h4u-HoFvAez9Z0JW_1JmIuwU0GLTv_lu25SBeTlEf23JbGduHEeA1VIGwKXUEkG_hr8Ney5rL5doKLYu0GY_fZz0m00]--></g></svg>